<?xml version="1.0" encoding="utf-8"?>
<!-- Generator: Adobe Illustrator 22.0.1, SVG Export Plug-In . SVG Version: 6.00 Build 0)  -->
<svg version="1.1" id="Ebene_3" xmlns="http://www.w3.org/2000/svg" xmlns:xlink="http://www.w3.org/1999/xlink" x="0px" y="0px"
	 viewBox="0 0 104.8 74" style="enable-background:new 0 0 104.8 74;" xml:space="preserve">
<path d="M102,27.9c-0.7,2.9-1.3,5.8-2,8.6c-5.4,20.7-25,36-45.7,35.2c0-2.4,0-4.7,0-7.7c9.5-1.3,17.2-5.6,20.7-15.8
	c-10-2.7-17-8.3-19-18.9c-2.4-12.4,5.3-23.9,18-26.8c11.5-2.7,23.8,4.9,27,16.6c0.3,1.3,0.8,2.5,1.2,3.7C102,24.5,102,26.2,102,27.9
	z"/>
<path d="M2,71.8c0-2.8,0-5.3,0-7.9c9.8-1.1,17.3-5.6,20.9-15.5c-1-0.4-1.9-0.9-2.8-1.2C7.6,42.8,1,31.5,4,19.5
	C6.8,8.4,18.1,0.5,29.2,2.1c12.6,1.7,21.1,12.3,20.4,25.3C48.4,50.3,28,71.1,6.1,71.8C4.8,71.9,3.5,71.8,2,71.8z"/>
</svg>
