<?xml version="1.0" encoding="utf-8"?>
<!-- Generator: Adobe Illustrator 21.0.0, SVG Export Plug-In . SVG Version: 6.00 Build 0)  -->
<svg version="1.1" xmlns="http://www.w3.org/2000/svg" xmlns:xlink="http://www.w3.org/1999/xlink" x="0px" y="0px"
	 viewBox="0 0 500 500" style="enable-background:new 0 0 500 500;" xml:space="preserve">
<style type="text/css">
	.st0{fill:#72C3C7; opacity: 0.5}
	.st1{fill:#4A483F; opacity: 0.5}
	.st2{fill:#7CD1A8; opacity: 0.5}
	.st3{fill:#D6D9B3; opacity: 0.5}
	.st4{fill:#EDDCCE; opacity: 0.5}
	.st5{fill:#EAB9B2; opacity: 0.5}
</style>
<g id="PATTERN">
	<g>
		<path class="st1" d="M300.2,226.5c-0.2-0.2-0.4-0.4-0.5-0.6c-0.1-0.3,0-0.6,0.3-0.7c0.3-0.1,0.5,0.2,0.7,0.4
			c0.4,0.5,0.9,1.1,1.3,1.6c0.1,0.2,0.3,0.4,0.4,0.6c0.4,0.8-0.1,1.2-0.7,0.5C301.2,227.7,300.8,227,300.2,226.5z"/>
		<path class="st1" d="M155.2,322.7c-0.2-0.2-0.4-0.4-0.5-0.6c-0.1-0.3,0-0.6,0.3-0.7c0.3-0.1,0.5,0.2,0.7,0.4
			c0.4,0.5,0.9,1.1,1.3,1.6c0.1,0.2,0.3,0.4,0.4,0.6c0.4,0.8-0.1,1.2-0.7,0.5C156.2,323.9,155.8,323.3,155.2,322.7z"/>
		<path class="st1" d="M159.1,283.5c-0.2-0.2-0.4-0.4-0.5-0.6c-0.1-0.3,0-0.6,0.3-0.7c0.3-0.1,0.5,0.2,0.7,0.4
			c0.4,0.5,0.9,1.1,1.3,1.6c0.1,0.2,0.3,0.4,0.4,0.6c0.4,0.8-0.1,1.2-0.7,0.5C160.1,284.7,159.7,284,159.1,283.5z"/>
		<path class="st1" d="M339.5,366.6c-0.2-0.2-0.4-0.4-0.5-0.6c-0.1-0.3,0-0.6,0.3-0.7c0.3-0.1,0.5,0.2,0.7,0.4
			c0.4,0.5,0.9,1.1,1.3,1.6c0.1,0.2,0.3,0.4,0.4,0.6c0.4,0.8-0.1,1.2-0.7,0.5C340.5,367.8,340.1,367.2,339.5,366.6z"/>
		<path class="st1" d="M293.1,277.6c0.1-0.3,0.2-0.5,0.4-0.7c0.2-0.2,0.6-0.2,0.7,0c0.2,0.2,0,0.5-0.1,0.8c-0.3,0.6-0.7,1.2-1,1.8
			c-0.1,0.2-0.2,0.4-0.4,0.6c-0.6,0.7-1.2,0.4-0.7-0.4C292.4,278.9,292.8,278.3,293.1,277.6z"/>
		<path class="st1" d="M129.4,329.9c0.1-0.3,0.2-0.5,0.4-0.7c0.2-0.2,0.6-0.2,0.7,0c0.2,0.2,0,0.5-0.1,0.8c-0.3,0.6-0.7,1.2-1,1.8
			c-0.1,0.2-0.2,0.4-0.4,0.6c-0.6,0.7-1.2,0.4-0.7-0.4C128.7,331.3,129.1,330.6,129.4,329.9z"/>
		<path class="st1" d="M301.5,336.6c-0.3,0-0.6,0-0.8-0.2c-0.2-0.1-0.4-0.5-0.2-0.7c0.2-0.2,0.5-0.2,0.7-0.1c0.7,0.1,1.4,0.3,2,0.4
			c0.2,0,0.4,0.1,0.7,0.2c0.8,0.3,0.7,1-0.2,0.8C303.1,336.9,302.3,336.7,301.5,336.6z"/>
		<path class="st1" d="M211.3,257.4c-0.2,0.2-0.4,0.4-0.6,0.5c-0.3,0.1-0.6,0-0.7-0.3c-0.1-0.3,0.2-0.5,0.4-0.7
			c0.5-0.4,1.1-0.9,1.6-1.3c0.2-0.1,0.4-0.3,0.6-0.4c0.8-0.4,1.2,0.1,0.5,0.7C212.4,256.4,211.8,256.8,211.3,257.4z"/>
		<path class="st1" d="M313.5,156.8c-0.2,0.2-0.4,0.4-0.6,0.5c-0.3,0.1-0.6,0-0.7-0.3c-0.1-0.3,0.2-0.5,0.4-0.7
			c0.5-0.4,1.1-0.9,1.6-1.3c0.2-0.1,0.4-0.3,0.6-0.4c0.8-0.4,1.2,0.1,0.5,0.7C314.7,155.8,314.1,156.2,313.5,156.8z"/>
		<path class="st5" d="M380.7,220c-0.2,0.2-0.4,0.4-0.6,0.5c-0.3,0.1-0.6,0-0.7-0.3c-0.1-0.3,0.2-0.5,0.4-0.7
			c0.5-0.4,1.1-0.9,1.6-1.3c0.2-0.1,0.4-0.3,0.6-0.4c0.8-0.4,1.2,0.1,0.5,0.7C381.9,219,381.2,219.4,380.7,220z"/>
		<path class="st5" d="M209.6,280.7c-0.2,0.2-0.4,0.4-0.6,0.5c-0.3,0.1-0.6,0-0.7-0.3c-0.1-0.3,0.2-0.5,0.4-0.7
			c0.5-0.4,1.1-0.9,1.6-1.3c0.2-0.1,0.4-0.3,0.6-0.4c0.8-0.4,1.2,0.1,0.5,0.7C210.7,279.7,210.1,280.2,209.6,280.7z"/>
		<path class="st5" d="M136.8,304.1c-0.3-0.1-0.5-0.1-0.7-0.3c-0.2-0.2-0.3-0.5-0.1-0.7c0.2-0.2,0.5-0.1,0.8,0
			c0.6,0.3,1.3,0.5,1.9,0.8c0.2,0.1,0.4,0.2,0.6,0.3c0.7,0.5,0.5,1.1-0.3,0.8C138.3,304.6,137.6,304.3,136.8,304.1z"/>
		<path class="st1" d="M448,423.9c-0.2-0.2-0.4-0.4-0.5-0.6c-0.1-0.3,0-0.6,0.3-0.7c0.3-0.1,0.5,0.2,0.7,0.4
			c0.4,0.5,0.9,1.1,1.3,1.6c0.1,0.2,0.3,0.4,0.4,0.6c0.4,0.8-0.1,1.2-0.7,0.5C449,425,448.6,424.4,448,423.9z"/>
		<path class="st1" d="M422.2,431c0.1-0.3,0.2-0.5,0.4-0.7c0.2-0.2,0.6-0.2,0.7,0c0.2,0.2,0,0.5-0.1,0.8c-0.3,0.6-0.7,1.2-1,1.8
			c-0.1,0.2-0.2,0.4-0.4,0.6c-0.6,0.7-1.2,0.4-0.7-0.4C421.5,432.4,422,431.8,422.2,431z"/>
		<path class="st5" d="M429.7,405.2c-0.3-0.1-0.5-0.1-0.7-0.3c-0.2-0.2-0.3-0.5-0.1-0.7c0.2-0.2,0.5-0.1,0.8,0
			c0.6,0.3,1.3,0.5,1.9,0.8c0.2,0.1,0.4,0.2,0.6,0.3c0.7,0.5,0.5,1.1-0.3,0.8C431.1,405.8,430.4,405.4,429.7,405.2z"/>
		<path class="st1" d="M259.6,454.5c-0.2-0.2-0.4-0.4-0.5-0.6c-0.1-0.3,0-0.6,0.3-0.7c0.3-0.1,0.5,0.2,0.7,0.4
			c0.4,0.5,0.9,1.1,1.3,1.6c0.1,0.2,0.3,0.4,0.4,0.6c0.4,0.8-0.1,1.2-0.7,0.5C260.6,455.7,260.1,455,259.6,454.5z"/>
		<path class="st1" d="M263.5,415.3c-0.2-0.2-0.4-0.4-0.5-0.6c-0.1-0.3,0-0.6,0.3-0.7c0.3-0.1,0.5,0.2,0.7,0.4
			c0.4,0.5,0.9,1.1,1.3,1.6c0.1,0.2,0.3,0.4,0.4,0.6c0.4,0.8-0.1,1.2-0.7,0.5C264.5,416.4,264.1,415.8,263.5,415.3z"/>
		<path class="st1" d="M233.8,461.7c0.1-0.3,0.2-0.5,0.4-0.7c0.2-0.2,0.6-0.2,0.7,0c0.2,0.2,0,0.5-0.1,0.8c-0.3,0.6-0.7,1.2-1,1.8
			c-0.1,0.2-0.2,0.4-0.4,0.6c-0.6,0.7-1.2,0.4-0.7-0.4C233.1,463,233.5,462.4,233.8,461.7z"/>
		<path class="st5" d="M241.2,435.9c-0.3-0.1-0.5-0.1-0.7-0.3c-0.2-0.2-0.3-0.5-0.1-0.7c0.2-0.2,0.5-0.1,0.8,0
			c0.6,0.3,1.3,0.5,1.9,0.8c0.2,0.1,0.4,0.2,0.6,0.3c0.7,0.5,0.5,1.1-0.3,0.8C242.6,436.4,242,436.1,241.2,435.9z"/>
		<path class="st1" d="M73.3,392.6c-0.2-0.2-0.4-0.4-0.5-0.6c-0.1-0.3,0-0.6,0.3-0.7c0.3-0.1,0.5,0.2,0.7,0.4
			c0.4,0.5,0.9,1.1,1.3,1.6c0.1,0.2,0.3,0.4,0.4,0.6c0.4,0.8-0.1,1.2-0.7,0.5C74.3,393.8,73.9,393.2,73.3,392.6z"/>
		<path class="st1" d="M47.5,399.8c0.1-0.3,0.2-0.5,0.4-0.7c0.2-0.2,0.6-0.2,0.7,0c0.2,0.2,0,0.5-0.1,0.8c-0.3,0.6-0.7,1.2-1,1.8
			c-0.1,0.2-0.2,0.4-0.4,0.6c-0.6,0.7-1.2,0.4-0.7-0.4C46.8,401.2,47.2,400.5,47.5,399.8z"/>
		<path class="st5" d="M54.9,374c-0.3-0.1-0.5-0.1-0.7-0.3c-0.2-0.2-0.3-0.5-0.1-0.7c0.2-0.2,0.5-0.1,0.8,0c0.6,0.3,1.3,0.5,1.9,0.8
			c0.2,0.1,0.4,0.2,0.6,0.3c0.7,0.5,0.5,1.1-0.3,0.8C56.4,374.5,55.7,374.2,54.9,374z"/>
		<path class="st1" d="M474.1,477.3c-0.2-0.2-0.4-0.4-0.5-0.6c-0.1-0.3,0-0.6,0.3-0.7c0.3-0.1,0.5,0.2,0.7,0.4
			c0.4,0.5,0.9,1.1,1.3,1.6c0.1,0.2,0.3,0.4,0.4,0.6c0.4,0.8-0.1,1.2-0.7,0.5C475.1,478.4,474.7,477.8,474.1,477.3z"/>
		<path class="st1" d="M448.4,484.4c0.1-0.3,0.2-0.5,0.4-0.7c0.2-0.2,0.6-0.2,0.7,0c0.2,0.2,0,0.5-0.1,0.8c-0.3,0.6-0.7,1.2-1,1.8
			c-0.1,0.2-0.2,0.4-0.4,0.6c-0.6,0.7-1.2,0.4-0.7-0.4C447.6,485.8,448.1,485.2,448.4,484.4z"/>
		<path class="st5" d="M455.8,458.6c-0.3-0.1-0.5-0.1-0.7-0.3c-0.2-0.2-0.3-0.5-0.1-0.7c0.2-0.2,0.5-0.1,0.8,0
			c0.6,0.3,1.3,0.5,1.9,0.8c0.2,0.1,0.4,0.2,0.6,0.3c0.7,0.5,0.5,1.1-0.3,0.8C457.2,459.2,456.5,458.8,455.8,458.6z"/>
		<path class="st5" d="M114,369.9c-0.3-0.1-0.5-0.1-0.7-0.3c-0.2-0.2-0.3-0.5-0.1-0.7c0.2-0.2,0.5-0.1,0.8,0
			c0.6,0.3,1.3,0.5,1.9,0.8c0.2,0.1,0.4,0.2,0.6,0.3c0.7,0.5,0.5,1.1-0.3,0.8C115.5,370.5,114.8,370.1,114,369.9z"/>
		<path class="st5" d="M124.7,178.7c-0.3-0.1-0.5-0.1-0.7-0.3c-0.2-0.2-0.3-0.5-0.1-0.7c0.2-0.2,0.5-0.1,0.8,0
			c0.6,0.3,1.3,0.5,1.9,0.8c0.2,0.1,0.4,0.2,0.6,0.3c0.7,0.5,0.5,1.1-0.3,0.8C126.2,179.2,125.5,178.9,124.7,178.7z"/>
		<path class="st5" d="M239.6,373.6c-0.3-0.1-0.5-0.1-0.7-0.3c-0.2-0.2-0.3-0.5-0.1-0.7c0.2-0.2,0.5-0.1,0.8,0
			c0.6,0.3,1.3,0.5,1.9,0.8c0.2,0.1,0.4,0.2,0.6,0.3c0.7,0.5,0.5,1.1-0.3,0.8C241,374.1,240.3,373.8,239.6,373.6z"/>
		<path class="st5" d="M283.5,118.7c-0.3-0.1-0.5-0.1-0.7-0.3c-0.2-0.2-0.3-0.5-0.1-0.7c0.2-0.2,0.5-0.1,0.8,0
			c0.6,0.3,1.3,0.5,1.9,0.8c0.2,0.1,0.4,0.2,0.6,0.3c0.7,0.5,0.5,1.1-0.3,0.8C285,119.2,284.3,118.9,283.5,118.7z"/>
		<path class="st5" d="M97.4,21.6c-0.3-0.1-0.5-0.1-0.7-0.3c-0.2-0.2-0.3-0.5-0.1-0.7c0.2-0.2,0.5-0.1,0.8,0
			c0.6,0.3,1.3,0.5,1.9,0.8c0.2,0.1,0.4,0.2,0.6,0.3c0.7,0.5,0.5,1.1-0.3,0.8C98.8,22.1,98.2,21.8,97.4,21.6z"/>
		<path class="st5" d="M78.4,74.8c-0.3-0.1-0.5-0.1-0.7-0.3c-0.2-0.2-0.3-0.5-0.1-0.7c0.2-0.2,0.5-0.1,0.8,0
			c0.6,0.3,1.3,0.5,1.9,0.8c0.2,0.1,0.4,0.2,0.6,0.3c0.7,0.5,0.5,1.1-0.3,0.8C79.9,75.3,79.2,75,78.4,74.8z"/>
		<path class="st0" d="M173.6,264.2c-0.2,0.2-0.4,0.4-0.6,0.5c-0.3,0.1-0.6,0-0.7-0.3c-0.1-0.3,0.2-0.5,0.4-0.7
			c0.5-0.4,1.1-0.9,1.6-1.3c0.2-0.1,0.4-0.3,0.6-0.4c0.8-0.4,1.2,0.1,0.5,0.7C174.8,263.2,174.1,263.6,173.6,264.2z"/>
		<path class="st0" d="M140.9,237.9c-0.2,0.2-0.4,0.4-0.6,0.5c-0.3,0.1-0.6,0-0.7-0.3c-0.1-0.3,0.2-0.5,0.4-0.7
			c0.5-0.4,1.1-0.9,1.6-1.3c0.2-0.1,0.4-0.3,0.6-0.4c0.8-0.4,1.2,0.1,0.5,0.7C142.1,236.9,141.4,237.3,140.9,237.9z"/>
		<path class="st0" d="M135.9,198.5c-0.2,0.2-0.4,0.4-0.6,0.5c-0.3,0.1-0.6,0-0.7-0.3c-0.1-0.3,0.2-0.5,0.4-0.7
			c0.5-0.4,1.1-0.9,1.6-1.3c0.2-0.1,0.4-0.3,0.6-0.4c0.8-0.4,1.2,0.1,0.5,0.7C137.1,197.5,136.5,197.9,135.9,198.5z"/>
		<path class="st5" d="M445.5,106.9c-0.3-0.1-0.5-0.1-0.7-0.3c-0.2-0.2-0.3-0.5-0.1-0.7c0.2-0.2,0.5-0.1,0.8,0
			c0.6,0.3,1.3,0.5,1.9,0.8c0.2,0.1,0.4,0.2,0.6,0.3c0.7,0.5,0.5,1.1-0.3,0.8C447,107.4,446.3,107.1,445.5,106.9z"/>
		<path class="st0" d="M456.7,126.7c-0.2,0.2-0.4,0.4-0.6,0.5c-0.3,0.1-0.6,0-0.7-0.3c-0.1-0.3,0.2-0.5,0.4-0.7
			c0.5-0.4,1.1-0.9,1.6-1.3c0.2-0.1,0.4-0.3,0.6-0.4c0.8-0.4,1.2,0.1,0.5,0.7C457.9,125.7,457.2,126.1,456.7,126.7z"/>
		<path class="st0" d="M465.8,42.7c0,0.3,0.1,0.5,0,0.8c-0.1,0.3-0.4,0.4-0.6,0.3c-0.2-0.1-0.3-0.4-0.3-0.7c0-0.7,0-1.4,0-2.1
			c0-0.2,0-0.5,0.1-0.7c0.2-0.8,0.8-0.9,0.8,0C465.7,41.1,465.7,41.9,465.8,42.7z"/>
		<path class="st0" d="M192.6,159.7c0,0.3,0.1,0.5,0,0.8c-0.1,0.3-0.4,0.4-0.6,0.3c-0.2-0.1-0.3-0.4-0.3-0.7c0-0.7,0-1.4,0-2.1
			c0-0.2,0-0.5,0.1-0.7c0.2-0.8,0.8-0.9,0.8,0C192.6,158.2,192.5,158.9,192.6,159.7z"/>
		<path class="st0" d="M219,46.1c0,0.3,0.1,0.5,0,0.8c-0.1,0.3-0.4,0.4-0.6,0.3c-0.2-0.1-0.3-0.4-0.3-0.7c0-0.7,0-1.4,0-2.1
			c0-0.2,0-0.5,0.1-0.7c0.2-0.8,0.8-0.9,0.8,0C219,44.5,218.9,45.3,219,46.1z"/>
		<path class="st0" d="M342.2,168.1c-0.3,0.1-0.5,0.2-0.8,0.1c-0.3-0.1-0.5-0.3-0.4-0.6c0.1-0.3,0.4-0.3,0.6-0.4
			c0.7-0.1,1.4-0.3,2-0.4c0.2,0,0.4-0.1,0.7-0.1c0.9,0,1,0.6,0.1,0.8C343.7,167.8,342.9,167.9,342.2,168.1z"/>
		<path class="st0" d="M243.8,204.9c-0.3,0.1-0.5,0.2-0.8,0.1c-0.3-0.1-0.5-0.3-0.4-0.6c0.1-0.3,0.4-0.3,0.6-0.4
			c0.7-0.1,1.4-0.3,2-0.4c0.2,0,0.4-0.1,0.7-0.1c0.9,0,1,0.6,0.1,0.8C245.3,204.6,244.6,204.7,243.8,204.9z"/>
		<path class="st0" d="M288.5,222.9c-0.3,0.1-0.5,0.2-0.8,0.1c-0.3-0.1-0.5-0.3-0.4-0.6c0.1-0.3,0.4-0.3,0.6-0.4
			c0.7-0.1,1.4-0.3,2-0.4c0.2,0,0.5-0.1,0.7-0.1c0.9,0,1,0.6,0.1,0.8C290,222.6,289.2,222.7,288.5,222.9z"/>
		<path class="st0" d="M167.2,347.7c-0.3,0.1-0.5,0.2-0.8,0.1c-0.3-0.1-0.5-0.3-0.4-0.6c0.1-0.3,0.4-0.3,0.6-0.4
			c0.7-0.1,1.4-0.3,2-0.4c0.2,0,0.4-0.1,0.7-0.1c0.9,0,1,0.6,0.1,0.8C168.7,347.4,167.9,347.5,167.2,347.7z"/>
		<path class="st0" d="M122.8,289.6c-0.3,0.1-0.5,0.2-0.8,0.1c-0.3-0.1-0.5-0.3-0.4-0.6c0.1-0.3,0.4-0.3,0.6-0.4
			c0.7-0.1,1.4-0.3,2-0.4c0.2,0,0.4-0.1,0.7-0.1c0.9,0,1,0.6,0.1,0.8C124.3,289.2,123.5,289.3,122.8,289.6z"/>
		<path class="st1" d="M38.2,288.6c-0.2-0.2-0.4-0.4-0.5-0.6c-0.1-0.3,0-0.6,0.3-0.7c0.3-0.1,0.5,0.2,0.7,0.4
			c0.4,0.5,0.9,1.1,1.3,1.6c0.1,0.2,0.3,0.4,0.4,0.6c0.4,0.8-0.1,1.2-0.7,0.5C39.2,289.7,38.7,289.1,38.2,288.6z"/>
		<path class="st1" d="M12.4,295.7c0.1-0.3,0.2-0.5,0.4-0.7c0.2-0.2,0.6-0.2,0.7,0c0.2,0.2,0,0.5-0.1,0.8c-0.3,0.6-0.7,1.2-1,1.8
			c-0.1,0.2-0.2,0.4-0.4,0.6c-0.6,0.7-1.2,0.4-0.7-0.4C11.7,297.1,12.1,296.5,12.4,295.7z"/>
		<path class="st5" d="M19.8,269.9c-0.3-0.1-0.5-0.1-0.7-0.3c-0.2-0.2-0.3-0.5-0.1-0.7c0.2-0.2,0.5-0.1,0.8,0
			c0.6,0.3,1.3,0.5,1.9,0.8c0.2,0.1,0.4,0.2,0.6,0.3c0.7,0.5,0.5,1.1-0.3,0.8C21.2,270.5,20.6,270.1,19.8,269.9z"/>
		<path class="st0" d="M22.5,373.5c-0.3,0.1-0.5,0.2-0.8,0.1c-0.3-0.1-0.5-0.3-0.4-0.6c0.1-0.3,0.4-0.3,0.6-0.4
			c0.7-0.1,1.4-0.3,2-0.4c0.2,0,0.4-0.1,0.7-0.1c0.9,0,1,0.6,0.1,0.8C24,373.1,23.2,373.2,22.5,373.5z"/>
		<path class="st1" d="M241.6,312.5c-0.3,0-0.5-0.1-0.8-0.3c-0.2-0.2-0.3-0.5-0.1-0.7c0.2-0.2,0.5-0.1,0.8,0c0.7,0.2,1.3,0.4,2,0.6
			c0.2,0.1,0.4,0.1,0.6,0.3c0.7,0.4,0.6,1.1-0.3,0.8C243,312.9,242.3,312.6,241.6,312.5z"/>
		<path class="st1" d="M335.7,341.5c-0.3,0-0.5-0.1-0.8-0.3c-0.2-0.2-0.3-0.5-0.1-0.7c0.2-0.2,0.5-0.1,0.8,0c0.7,0.2,1.3,0.4,2,0.6
			c0.2,0.1,0.4,0.1,0.6,0.3c0.7,0.4,0.6,1.1-0.3,0.8C337.1,341.9,336.4,341.6,335.7,341.5z"/>
		<path class="st1" d="M407.6,328.2c-0.2-0.2-0.4-0.4-0.5-0.6c-0.1-0.3,0-0.6,0.3-0.7c0.3-0.1,0.5,0.2,0.7,0.4
			c0.4,0.5,0.9,1.1,1.3,1.6c0.1,0.2,0.3,0.4,0.4,0.6c0.4,0.8-0.1,1.2-0.7,0.5C408.6,329.4,408.1,328.8,407.6,328.2z"/>
		<path class="st1" d="M403.7,303.1c-0.3,0-0.5-0.1-0.8-0.3c-0.2-0.2-0.3-0.5-0.1-0.7c0.2-0.2,0.5-0.1,0.8,0c0.7,0.2,1.3,0.4,2,0.6
			c0.2,0.1,0.4,0.1,0.6,0.3c0.7,0.4,0.6,1.1-0.3,0.8C405.1,303.5,404.5,303.2,403.7,303.1z"/>
		<path class="st4" d="M293.3,188.2c-0.3,0-0.5-0.1-0.8-0.3c-0.2-0.2-0.3-0.5-0.1-0.7c0.2-0.2,0.5-0.1,0.8,0c0.7,0.2,1.3,0.4,2,0.6
			c0.2,0.1,0.4,0.1,0.6,0.3c0.7,0.4,0.6,1.1-0.3,0.8C294.7,188.6,294,188.3,293.3,188.2z"/>
		<path class="st4" d="M213.8,229c-0.2,0.2-0.4,0.4-0.7,0.4c-0.3,0-0.6-0.1-0.6-0.4c0-0.3,0.2-0.5,0.5-0.6c0.6-0.4,1.2-0.7,1.8-1.1
			c0.2-0.1,0.4-0.2,0.6-0.3c0.8-0.3,1.2,0.2,0.4,0.7C215.1,228.2,214.4,228.5,213.8,229z"/>
		<path class="st4" d="M270,303.3c-0.3,0-0.6,0-0.8-0.1c-0.2-0.1-0.4-0.4-0.3-0.7c0.1-0.2,0.5-0.2,0.7-0.2c0.7,0,1.4,0.1,2.1,0.1
			c0.2,0,0.5,0,0.7,0.1c0.8,0.2,0.8,0.9-0.1,0.8C271.5,303.4,270.8,303.3,270,303.3z"/>
		<path class="st4" d="M486.4,67.8c-0.3,0-0.6,0-0.8-0.1c-0.2-0.1-0.4-0.4-0.3-0.7c0.1-0.2,0.5-0.2,0.7-0.2c0.7,0,1.4,0.1,2.1,0.1
			c0.2,0,0.5,0,0.7,0.1c0.8,0.2,0.8,0.9-0.1,0.8C488,67.9,487.2,67.8,486.4,67.8z"/>
		<path class="st4" d="M407,9.7c-0.3,0-0.6,0-0.8-0.1c-0.2-0.1-0.4-0.4-0.3-0.7c0.1-0.2,0.5-0.2,0.7-0.2c0.7,0,1.4,0.1,2.1,0.1
			c0.2,0,0.5,0,0.7,0.1c0.8,0.2,0.8,0.9-0.1,0.8C408.6,9.8,407.8,9.7,407,9.7z"/>
		<path class="st4" d="M266.7,333.4c-0.3,0-0.6,0-0.8-0.1c-0.2-0.1-0.4-0.4-0.3-0.7c0.1-0.2,0.5-0.2,0.7-0.2c0.7,0,1.4,0.1,2.1,0.1
			c0.2,0,0.5,0,0.7,0.1c0.8,0.2,0.8,0.9-0.1,0.8C268.3,333.4,267.5,333.3,266.7,333.4z"/>
		<path class="st4" d="M352.4,139.4c-0.3,0-0.6,0-0.8-0.1c-0.2-0.1-0.4-0.4-0.3-0.7c0.1-0.2,0.5-0.2,0.7-0.2c0.7,0,1.4,0.1,2.1,0.1
			c0.2,0,0.5,0,0.7,0.1c0.8,0.2,0.8,0.9-0.1,0.8C354,139.4,353.2,139.3,352.4,139.4z"/>
		<path class="st4" d="M305.2,248.9c-0.3,0-0.6,0-0.8-0.1c-0.2-0.1-0.4-0.4-0.3-0.7c0.1-0.2,0.5-0.2,0.7-0.2c0.7,0,1.4,0.1,2.1,0.1
			c0.2,0,0.5,0,0.7,0.1c0.8,0.2,0.8,0.9-0.1,0.8C306.8,249,306,248.9,305.2,248.9z"/>
		<path class="st4" d="M238.4,348.8c-0.3,0-0.6,0-0.8-0.1c-0.2-0.1-0.4-0.4-0.3-0.7c0.1-0.2,0.5-0.2,0.7-0.2c0.7,0,1.4,0.1,2.1,0.1
			c0.2,0,0.5,0,0.7,0.1c0.8,0.2,0.8,0.9-0.1,0.8C240,348.8,239.2,348.7,238.4,348.8z"/>
		<path class="st5" d="M134.9,480c-0.3-0.1-0.5-0.1-0.7-0.3c-0.2-0.2-0.3-0.5-0.1-0.7c0.2-0.2,0.5-0.1,0.8,0
			c0.6,0.3,1.3,0.5,1.9,0.8c0.2,0.1,0.4,0.2,0.6,0.3c0.7,0.5,0.5,1.1-0.3,0.8C136.3,480.5,135.6,480.2,134.9,480z"/>
		<path class="st1" d="M136.8,418.9c-0.3,0-0.5-0.1-0.8-0.3c-0.2-0.2-0.3-0.5-0.1-0.7c0.2-0.2,0.5-0.1,0.8,0c0.7,0.2,1.3,0.4,2,0.6
			c0.2,0.1,0.4,0.1,0.6,0.3c0.7,0.4,0.6,1.1-0.3,0.8C138.3,419.4,137.6,419.1,136.8,418.9z"/>
		<path class="st4" d="M165.3,409.7c-0.3,0-0.6,0-0.8-0.1c-0.2-0.1-0.4-0.4-0.3-0.7c0.1-0.2,0.5-0.2,0.7-0.2c0.7,0,1.4,0.1,2.1,0.1
			c0.2,0,0.5,0,0.7,0.1c0.8,0.2,0.8,0.9-0.1,0.8C166.8,409.8,166.1,409.7,165.3,409.7z"/>
		<path class="st4" d="M162,439.8c-0.3,0-0.6,0-0.8-0.1c-0.2-0.1-0.4-0.4-0.3-0.7c0.1-0.2,0.5-0.2,0.7-0.2c0.7,0,1.4,0.1,2.1,0.1
			c0.2,0,0.5,0,0.7,0.1c0.8,0.2,0.8,0.9-0.1,0.8C163.5,439.9,162.8,439.8,162,439.8z"/>
		<path class="st4" d="M133.7,455.2c-0.3,0-0.6,0-0.8-0.1c-0.2-0.1-0.4-0.4-0.3-0.7c0.1-0.2,0.5-0.2,0.7-0.2c0.7,0,1.4,0.1,2.1,0.1
			c0.2,0,0.5,0,0.7,0.1c0.8,0.2,0.8,0.9-0.1,0.8C135.3,455.3,134.5,455.1,133.7,455.2z"/>
		<path class="st1" d="M267.8,201.2c-0.3,0-0.5-0.1-0.8-0.3c-0.2-0.2-0.3-0.5-0.1-0.7c0.2-0.2,0.5-0.1,0.8,0c0.7,0.2,1.3,0.4,2,0.6
			c0.2,0.1,0.4,0.1,0.6,0.3c0.7,0.4,0.6,1.1-0.3,0.8C269.3,201.7,268.6,201.4,267.8,201.2z"/>
		<path class="st1" d="M383.2,32.5c-0.3,0-0.5-0.1-0.8-0.3c-0.2-0.2-0.3-0.5-0.1-0.7c0.2-0.2,0.5-0.1,0.8,0c0.7,0.2,1.3,0.4,2,0.6
			c0.2,0.1,0.4,0.1,0.6,0.3c0.7,0.4,0.6,1.1-0.3,0.8C384.6,32.9,383.9,32.6,383.2,32.5z"/>
		<path class="st1" d="M409.7,98.4c-0.2-0.2-0.4-0.4-0.5-0.6s0-0.6,0.3-0.7c0.3-0.1,0.5,0.2,0.7,0.4c0.4,0.5,0.9,1.1,1.3,1.6
			c0.1,0.2,0.3,0.4,0.4,0.6c0.4,0.8-0.1,1.2-0.7,0.5C410.7,99.6,410.3,98.9,409.7,98.4z"/>
		<path class="st0" d="M353.3,76.8c-0.3,0.1-0.5,0.2-0.8,0.1c-0.3-0.1-0.5-0.3-0.4-0.6c0.1-0.3,0.4-0.3,0.6-0.4
			c0.7-0.1,1.4-0.3,2-0.4c0.2,0,0.5-0.1,0.7-0.1c0.9,0,1,0.6,0.1,0.8C354.8,76.5,354.1,76.6,353.3,76.8z"/>
		<path class="st0" d="M398,94.8c-0.3,0.1-0.5,0.2-0.8,0.1c-0.3-0.1-0.5-0.3-0.4-0.6c0.1-0.3,0.4-0.3,0.6-0.4c0.7-0.1,1.4-0.3,2-0.4
			c0.2,0,0.5-0.1,0.7-0.1c0.9,0,1,0.6,0.1,0.8C399.5,94.5,398.7,94.6,398,94.8z"/>
		<path class="st1" d="M377.3,73.1c-0.3,0-0.5-0.1-0.8-0.3c-0.2-0.2-0.3-0.5-0.1-0.7c0.2-0.2,0.5-0.1,0.8,0c0.7,0.2,1.3,0.4,2,0.6
			c0.2,0.1,0.4,0.1,0.6,0.3c0.7,0.4,0.6,1.1-0.3,0.8C378.8,73.6,378.1,73.3,377.3,73.1z"/>
		<path class="st1" d="M278.6,109c-0.2-0.2-0.4-0.4-0.5-0.6c-0.1-0.3,0-0.6,0.3-0.7c0.3-0.1,0.5,0.2,0.7,0.4
			c0.4,0.5,0.9,1.1,1.3,1.6c0.1,0.2,0.3,0.4,0.4,0.6c0.4,0.8-0.1,1.2-0.7,0.5C279.6,110.2,279.2,109.6,278.6,109z"/>
		<path class="st0" d="M222.3,87.5c-0.3,0.1-0.5,0.2-0.8,0.1c-0.3-0.1-0.5-0.3-0.4-0.6c0.1-0.3,0.4-0.3,0.6-0.4
			c0.7-0.1,1.4-0.3,2-0.4c0.2,0,0.4-0.1,0.7-0.1c0.9,0,1,0.6,0.1,0.8C223.8,87.1,223,87.2,222.3,87.5z"/>
		<path class="st0" d="M266.9,105.4c-0.3,0.1-0.5,0.2-0.8,0.1c-0.3-0.1-0.5-0.3-0.4-0.6c0.1-0.3,0.4-0.3,0.6-0.4
			c0.7-0.1,1.4-0.3,2-0.4c0.2,0,0.5-0.1,0.7-0.1c0.9,0,1,0.6,0.1,0.8C268.4,105.1,267.7,105.2,266.9,105.4z"/>
		<path class="st0" d="M186,12.8c-0.3,0.1-0.5,0.2-0.8,0.1c-0.3-0.1-0.5-0.3-0.4-0.6c0.1-0.3,0.4-0.3,0.6-0.4c0.7-0.1,1.4-0.3,2-0.4
			c0.2,0,0.4-0.1,0.7-0.1c0.9,0,1,0.6,0.1,0.8C187.5,12.5,186.8,12.6,186,12.8z"/>
		<path class="st1" d="M246.2,83.8c-0.3,0-0.5-0.1-0.8-0.3c-0.2-0.2-0.3-0.5-0.1-0.7c0.2-0.2,0.5-0.1,0.8,0c0.7,0.2,1.3,0.4,2,0.6
			c0.2,0.1,0.4,0.1,0.6,0.3c0.7,0.4,0.6,1.1-0.3,0.8C247.7,84.2,247,83.9,246.2,83.8z"/>
		<path class="st1" d="M451.2,215.3c-0.2-0.2-0.4-0.4-0.5-0.6c-0.1-0.3,0-0.6,0.3-0.7c0.3-0.1,0.5,0.2,0.7,0.4
			c0.4,0.5,0.9,1.1,1.3,1.6c0.1,0.2,0.3,0.4,0.4,0.6c0.4,0.8-0.1,1.2-0.7,0.5C452.2,216.5,451.8,215.9,451.2,215.3z"/>
		<path class="st0" d="M439.5,211.7c-0.3,0.1-0.5,0.2-0.8,0.1c-0.3-0.1-0.5-0.3-0.4-0.6c0.1-0.3,0.4-0.3,0.6-0.4
			c0.7-0.1,1.4-0.3,2-0.4c0.2,0,0.4-0.1,0.7-0.1c0.9,0,1,0.6,0.1,0.8C441,211.4,440.2,211.5,439.5,211.7z"/>
		<path class="st0" d="M358.4,48.2c-0.3,0.1-0.5,0.2-0.8,0.1c-0.3-0.1-0.5-0.3-0.4-0.6c0.1-0.3,0.4-0.3,0.6-0.4
			c0.7-0.1,1.4-0.3,2-0.4c0.2,0,0.5-0.1,0.7-0.1c0.9,0,1,0.6,0.1,0.8C359.9,47.9,359.1,48,358.4,48.2z"/>
		<path class="st4" d="M444.3,177c-0.3,0-0.5-0.1-0.8-0.3c-0.2-0.2-0.3-0.5-0.1-0.7c0.2-0.2,0.5-0.1,0.8,0c0.7,0.2,1.3,0.4,2,0.6
			c0.2,0.1,0.4,0.1,0.6,0.3c0.7,0.4,0.6,1.1-0.3,0.8C445.7,177.5,445,177.2,444.3,177z"/>
		<path class="st1" d="M418.8,190.1c-0.3,0-0.5-0.1-0.8-0.3c-0.2-0.2-0.3-0.5-0.1-0.7c0.2-0.2,0.5-0.1,0.8,0c0.7,0.2,1.3,0.4,2,0.6
			c0.2,0.1,0.4,0.1,0.6,0.3c0.7,0.4,0.6,1.1-0.3,0.8C420.3,190.5,419.6,190.2,418.8,190.1z"/>
		<path class="st0" d="M10.6,22.1c-0.3,0.1-0.5,0.2-0.8,0.1c-0.3-0.1-0.5-0.3-0.4-0.6c0.1-0.3,0.4-0.3,0.6-0.4
			c0.7-0.1,1.4-0.3,2-0.4c0.2,0,0.4-0.1,0.7-0.1c0.9,0,1,0.6,0.1,0.8C12.1,21.8,11.3,21.8,10.6,22.1z"/>
		<path class="st1" d="M34.6,18.4c-0.3,0-0.5-0.1-0.8-0.3c-0.2-0.2-0.3-0.5-0.1-0.7c0.2-0.2,0.5-0.1,0.8,0c0.7,0.2,1.3,0.4,2,0.6
			c0.2,0.1,0.4,0.1,0.6,0.3c0.7,0.4,0.6,1.1-0.3,0.8C36.1,18.8,35.4,18.5,34.6,18.4z"/>
		<path class="st1" d="M142.9,166.2c-0.3,0-0.5-0.1-0.8-0.3c-0.2-0.2-0.3-0.5-0.1-0.7c0.2-0.2,0.5-0.1,0.8,0c0.7,0.2,1.3,0.4,2,0.6
			c0.2,0.1,0.4,0.1,0.6,0.3c0.7,0.4,0.6,1.1-0.3,0.8C144.3,166.7,143.6,166.4,142.9,166.2z"/>
		<path class="st5" d="M294.5,27.3c-0.3-0.1-0.5-0.1-0.7-0.3c-0.2-0.2-0.3-0.5-0.1-0.7c0.2-0.2,0.5-0.1,0.8,0
			c0.6,0.3,1.3,0.5,1.9,0.8c0.2,0.1,0.4,0.2,0.6,0.3c0.7,0.5,0.5,1.1-0.3,0.8C295.9,27.8,295.2,27.5,294.5,27.3z"/>
		<path class="st0" d="M305.7,47.1c-0.2,0.2-0.4,0.4-0.6,0.5c-0.3,0.1-0.6,0-0.7-0.3c-0.1-0.3,0.2-0.5,0.4-0.7
			c0.5-0.4,1.1-0.9,1.6-1.3c0.2-0.1,0.4-0.3,0.6-0.4c0.8-0.4,1.2,0.1,0.5,0.7C306.8,46.1,306.2,46.6,305.7,47.1z"/>
		<path class="st1" d="M312.6,14.9c-0.3,0-0.5-0.1-0.8-0.3c-0.2-0.2-0.3-0.5-0.1-0.7c0.2-0.2,0.5-0.1,0.8,0c0.7,0.2,1.3,0.4,2,0.6
			c0.2,0.1,0.4,0.1,0.6,0.3c0.7,0.4,0.6,1.1-0.3,0.8C314.1,15.3,313.4,15,312.6,14.9z"/>
		<path class="st0" d="M490.9,262.6c0,0.3,0.1,0.5,0,0.8c-0.1,0.3-0.4,0.4-0.6,0.3c-0.2-0.1-0.3-0.4-0.3-0.7c0-0.7,0-1.4,0-2.1
			c0-0.2,0-0.5,0.1-0.7c0.2-0.8,0.8-0.9,0.8,0C490.9,261.1,490.8,261.8,490.9,262.6z"/>
		<path class="st4" d="M449.9,243.4c-0.3,0-0.6,0-0.8-0.1c-0.2-0.1-0.4-0.4-0.3-0.7c0.1-0.2,0.5-0.2,0.7-0.2c0.7,0,1.4,0.1,2.1,0.1
			c0.2,0,0.5,0,0.7,0.1c0.8,0.2,0.8,0.9-0.1,0.8C451.4,243.5,450.7,243.4,449.9,243.4z"/>
		<path class="st1" d="M469.9,88.5c-0.3,0-0.5-0.1-0.8-0.3c-0.2-0.2-0.3-0.5-0.1-0.7c0.2-0.2,0.5-0.1,0.8,0c0.7,0.2,1.3,0.4,2,0.6
			c0.2,0.1,0.4,0.1,0.6,0.3c0.7,0.4,0.6,1.1-0.3,0.8C471.3,88.9,470.7,88.6,469.9,88.5z"/>
		<path class="st5" d="M35.4,244.9c-0.3-0.1-0.5-0.1-0.7-0.3c-0.2-0.2-0.3-0.5-0.1-0.7c0.2-0.2,0.5-0.1,0.8,0
			c0.6,0.3,1.3,0.5,1.9,0.8c0.2,0.1,0.4,0.2,0.6,0.3c0.7,0.5,0.5,1.1-0.3,0.8C36.9,245.4,36.2,245.1,35.4,244.9z"/>
		<path class="st0" d="M46.6,264.7c-0.2,0.2-0.4,0.4-0.6,0.5c-0.3,0.1-0.6,0-0.7-0.3c-0.1-0.3,0.2-0.5,0.4-0.7
			c0.5-0.4,1.1-0.9,1.6-1.3c0.2-0.1,0.4-0.3,0.6-0.4c0.8-0.4,1.2,0.1,0.5,0.7C47.8,263.7,47.1,264.1,46.6,264.7z"/>
		<path class="st1" d="M53.5,232.4c-0.3,0-0.5-0.1-0.8-0.3c-0.2-0.2-0.3-0.5-0.1-0.7c0.2-0.2,0.5-0.1,0.8,0c0.7,0.2,1.3,0.4,2,0.6
			c0.2,0.1,0.4,0.1,0.6,0.3c0.7,0.4,0.6,1.1-0.3,0.8C55,232.9,54.3,232.6,53.5,232.4z"/>
		<path class="st5" d="M49.4,110.9c-0.3-0.1-0.5-0.1-0.7-0.3c-0.2-0.2-0.3-0.5-0.1-0.7c0.2-0.2,0.5-0.1,0.8,0
			c0.6,0.3,1.3,0.5,1.9,0.8c0.2,0.1,0.4,0.2,0.6,0.3c0.7,0.5,0.5,1.1-0.3,0.8C50.8,111.5,50.1,111.1,49.4,110.9z"/>
		<path class="st0" d="M60.6,130.8c-0.2,0.2-0.4,0.4-0.6,0.5c-0.3,0.1-0.6,0-0.7-0.3c-0.1-0.3,0.2-0.5,0.4-0.7
			c0.5-0.4,1.1-0.9,1.6-1.3c0.2-0.1,0.4-0.3,0.6-0.4c0.8-0.4,1.2,0.1,0.5,0.7C61.7,129.8,61.1,130.2,60.6,130.8z"/>
		<path class="st1" d="M67.5,98.5c-0.3,0-0.5-0.1-0.8-0.3c-0.2-0.2-0.3-0.5-0.1-0.7c0.2-0.2,0.5-0.1,0.8,0c0.7,0.2,1.3,0.4,2,0.6
			c0.2,0.1,0.4,0.1,0.6,0.3c0.7,0.4,0.6,1.1-0.3,0.8C69,99,68.3,98.7,67.5,98.5z"/>
		<path class="st1" d="M198.2,370c-0.3,0-0.5-0.1-0.8-0.3c-0.2-0.2-0.3-0.5-0.1-0.7c0.2-0.2,0.5-0.1,0.8,0c0.7,0.2,1.3,0.4,2,0.6
			c0.2,0.1,0.4,0.1,0.6,0.3c0.7,0.4,0.6,1.1-0.3,0.8C199.7,370.5,199,370.2,198.2,370z"/>
		<path class="st1" d="M215.3,181c-0.3,0-0.5-0.1-0.8-0.3c-0.2-0.2-0.3-0.5-0.1-0.7c0.2-0.2,0.5-0.1,0.8,0c0.7,0.2,1.3,0.4,2,0.6
			c0.2,0.1,0.4,0.1,0.6,0.3c0.7,0.4,0.6,1.1-0.3,0.8C216.8,181.4,216.1,181.1,215.3,181z"/>
		<path class="st1" d="M179.8,40.6c-0.3,0-0.5-0.1-0.8-0.3c-0.2-0.2-0.3-0.5-0.1-0.7c0.2-0.2,0.5-0.1,0.8,0c0.7,0.2,1.3,0.4,2,0.6
			c0.2,0.1,0.4,0.1,0.6,0.3c0.7,0.4,0.6,1.1-0.3,0.8C181.2,41,180.5,40.7,179.8,40.6z"/>
		<path class="st0" d="M103,56.5c0,0.3,0.1,0.5,0,0.8c-0.1,0.3-0.4,0.4-0.6,0.3c-0.2-0.1-0.3-0.4-0.3-0.7c0-0.7,0-1.4,0-2.1
			c0-0.2,0-0.5,0.1-0.7c0.2-0.8,0.8-0.9,0.8,0C103,55,102.9,55.7,103,56.5z"/>
		<path class="st4" d="M62,37.3c-0.3,0-0.6,0-0.8-0.1c-0.2-0.1-0.4-0.4-0.3-0.7c0.1-0.2,0.5-0.2,0.7-0.2c0.7,0,1.4,0.1,2.1,0.1
			c0.2,0,0.5,0,0.7,0.1c0.8,0.2,0.8,0.9-0.1,0.8C63.6,37.4,62.8,37.3,62,37.3z"/>
		<path class="st1" d="M125.7,77.8c-0.3,0-0.5-0.1-0.8-0.3c-0.2-0.2-0.3-0.5-0.1-0.7c0.2-0.2,0.5-0.1,0.8,0c0.7,0.2,1.3,0.4,2,0.6
			c0.2,0.1,0.4,0.1,0.6,0.3c0.7,0.4,0.6,1.1-0.3,0.8C127.2,78.2,126.5,77.9,125.7,77.8z"/>
		<path class="st1" d="M365.5,303.8c-0.3,0-0.5-0.1-0.8-0.3c-0.2-0.2-0.3-0.5-0.1-0.7c0.2-0.2,0.5-0.1,0.8,0c0.7,0.2,1.3,0.4,2,0.6
			c0.2,0.1,0.4,0.1,0.6,0.3c0.7,0.4,0.6,1.1-0.3,0.8C367,304.2,366.3,303.9,365.5,303.8z"/>
		<path class="st1" d="M213.3,125.8c-0.3,0-0.5-0.1-0.8-0.3c-0.2-0.2-0.3-0.5-0.1-0.7c0.2-0.2,0.5-0.1,0.8,0c0.7,0.2,1.3,0.4,2,0.6
			c0.2,0.1,0.4,0.1,0.6,0.3c0.7,0.4,0.6,1.1-0.3,0.8C214.8,126.2,214.1,125.9,213.3,125.8z"/>
		<path class="st1" d="M363,434.2c-0.2,0.2-0.4,0.4-0.6,0.5c-0.3,0.1-0.6,0-0.7-0.3c-0.1-0.3,0.2-0.5,0.4-0.7
			c0.5-0.4,1.1-0.9,1.6-1.3c0.2-0.1,0.4-0.3,0.6-0.4c0.8-0.4,1.2,0.1,0.5,0.7C364.2,433.2,363.6,433.6,363,434.2z"/>
		<path class="st5" d="M283.5,474.6c-0.3-0.1-0.5-0.1-0.7-0.3c-0.2-0.2-0.3-0.5-0.1-0.7c0.2-0.2,0.5-0.1,0.8,0
			c0.6,0.3,1.3,0.5,1.9,0.8c0.2,0.1,0.4,0.2,0.6,0.3c0.7,0.5,0.5,1.1-0.3,0.8C285,475.1,284.3,474.8,283.5,474.6z"/>
		<path class="st0" d="M473,381.7c0,0.3,0.1,0.5,0,0.8c-0.1,0.3-0.4,0.4-0.6,0.3c-0.2-0.1-0.3-0.4-0.3-0.7c0-0.7,0-1.4,0-2.1
			c0-0.2,0-0.5,0.1-0.7c0.2-0.8,0.8-0.9,0.8,0C473,380.1,472.9,380.9,473,381.7z"/>
		<path class="st0" d="M391.7,445.5c-0.3,0.1-0.5,0.2-0.8,0.1c-0.3-0.1-0.5-0.3-0.4-0.6c0.1-0.3,0.4-0.3,0.6-0.4
			c0.7-0.1,1.4-0.3,2-0.4c0.2,0,0.5-0.1,0.7-0.1c0.9,0,1,0.6,0.1,0.8C393.2,445.2,392.4,445.3,391.7,445.5z"/>
		<path class="st4" d="M151.6,496.4c-0.3,0-0.6,0-0.8-0.1c-0.2-0.1-0.4-0.4-0.3-0.7c0.1-0.2,0.5-0.2,0.7-0.2c0.7,0,1.4,0.1,2.1,0.1
			c0.2,0,0.5,0,0.7,0.1c0.8,0.2,0.8,0.9-0.1,0.8C153.1,496.5,152.4,496.4,151.6,496.4z"/>
		<path class="st4" d="M352.4,495.3c-0.3,0-0.6,0-0.8-0.1c-0.2-0.1-0.4-0.4-0.3-0.7c0.1-0.2,0.5-0.2,0.7-0.2c0.7,0,1.4,0.1,2.1,0.1
			c0.2,0,0.5,0,0.7,0.1c0.8,0.2,0.8,0.9-0.1,0.8C354,495.3,353.2,495.2,352.4,495.3z"/>
		<path class="st1" d="M13.1,480.2c-0.2,0.2-0.4,0.4-0.6,0.5c-0.3,0.1-0.6,0-0.7-0.3c-0.1-0.3,0.2-0.5,0.4-0.7
			c0.5-0.4,1.1-0.9,1.6-1.3c0.2-0.1,0.4-0.3,0.6-0.4c0.8-0.4,1.2,0.1,0.5,0.7C14.3,479.2,13.6,479.7,13.1,480.2z"/>
		<path class="st0" d="M41.7,491.5c-0.3,0.1-0.5,0.2-0.8,0.1c-0.3-0.1-0.5-0.3-0.4-0.6c0.1-0.3,0.4-0.3,0.6-0.4
			c0.7-0.1,1.4-0.3,2-0.4c0.2,0,0.4-0.1,0.7-0.1c0.9,0,1,0.6,0.1,0.8C43.2,491.2,42.5,491.3,41.7,491.5z"/>
		<path class="st4" d="M52,462.8c-0.3,0-0.6,0-0.8-0.1c-0.2-0.1-0.4-0.4-0.3-0.7c0.1-0.2,0.5-0.2,0.7-0.2c0.7,0,1.4,0.1,2.1,0.1
			c0.2,0,0.5,0,0.7,0.1c0.8,0.2,0.8,0.9-0.1,0.8C53.5,462.8,52.8,462.7,52,462.8z"/>
		<path class="st1" d="M423.3,388.2c-0.3,0-0.5-0.1-0.8-0.3c-0.2-0.2-0.3-0.5-0.1-0.7c0.2-0.2,0.5-0.1,0.8,0c0.7,0.2,1.3,0.4,2,0.6
			c0.2,0.1,0.4,0.1,0.6,0.3c0.7,0.4,0.6,1.1-0.3,0.8C424.8,388.6,424.1,388.3,423.3,388.2z"/>
		<path class="st1" d="M108.7,328.8c-0.2-0.2-0.4-0.4-0.5-0.6c-0.1-0.3,0-0.6,0.3-0.7c0.3-0.1,0.5,0.2,0.7,0.4
			c0.4,0.5,0.9,1.1,1.3,1.6c0.1,0.2,0.3,0.4,0.4,0.6c0.4,0.8-0.1,1.2-0.7,0.5C109.7,330,109.3,329.4,108.7,328.8z"/>
		<path class="st1" d="M82.9,336c0.1-0.3,0.2-0.5,0.4-0.7c0.2-0.2,0.6-0.2,0.7,0c0.2,0.2,0,0.5-0.1,0.8c-0.3,0.6-0.7,1.2-1,1.8
			c-0.1,0.2-0.2,0.4-0.4,0.6c-0.6,0.7-1.2,0.4-0.7-0.4C82.2,337.4,82.7,336.8,82.9,336z"/>
		<path class="st5" d="M90.3,310.2c-0.3-0.1-0.5-0.1-0.7-0.3c-0.2-0.2-0.3-0.5-0.1-0.7c0.2-0.2,0.5-0.1,0.8,0
			c0.6,0.3,1.3,0.5,1.9,0.8c0.2,0.1,0.4,0.2,0.6,0.3c0.7,0.5,0.5,1.1-0.3,0.8C91.8,310.8,91.1,310.4,90.3,310.2z"/>
		<path class="st1" d="M84,293.2c-0.3,0-0.5-0.1-0.8-0.3c-0.2-0.2-0.3-0.5-0.1-0.7c0.2-0.2,0.5-0.1,0.8,0c0.7,0.2,1.3,0.4,2,0.6
			c0.2,0.1,0.4,0.1,0.6,0.3c0.7,0.4,0.6,1.1-0.3,0.8C85.4,293.6,84.8,293.3,84,293.2z"/>
		<path class="st0" d="M105.5,427.3c0,0.3,0.1,0.5,0,0.8c-0.1,0.3-0.4,0.4-0.6,0.3c-0.2-0.1-0.3-0.4-0.3-0.7c0-0.7,0-1.4,0-2.1
			c0-0.2,0-0.5,0.1-0.7c0.2-0.8,0.8-0.9,0.8,0C105.5,425.8,105.4,426.5,105.5,427.3z"/>
		<path class="st0" d="M17.2,403.4c0,0.3,0.1,0.5,0,0.8c-0.1,0.3-0.4,0.4-0.6,0.3c-0.2-0.1-0.3-0.4-0.3-0.7c0-0.7,0-1.4,0-2.1
			c0-0.2,0-0.5,0.1-0.7c0.2-0.8,0.8-0.9,0.8,0C17.2,401.8,17.1,402.6,17.2,403.4z"/>
		<path class="st1" d="M55.8,433.8c-0.3,0-0.5-0.1-0.8-0.3c-0.2-0.2-0.3-0.5-0.1-0.7c0.2-0.2,0.5-0.1,0.8,0c0.7,0.2,1.3,0.4,2,0.6
			c0.2,0.1,0.4,0.1,0.6,0.3c0.7,0.4,0.6,1.1-0.3,0.8C57.3,434.3,56.6,434,55.8,433.8z"/>
		<path class="st1" d="M213.3,481.7c-0.3,0-0.5-0.1-0.8-0.3c-0.2-0.2-0.3-0.5-0.1-0.7c0.2-0.2,0.5-0.1,0.8,0c0.7,0.2,1.3,0.4,2,0.6
			c0.2,0.1,0.4,0.1,0.6,0.3c0.7,0.4,0.6,1.1-0.3,0.8C214.8,482.1,214.1,481.8,213.3,481.7z"/>
	</g>
</g>
<g id="DESIGNED_BY_FREEPIK">
</g>
</svg>
