<svg id="Layer_1" data-name="Layer 1" xmlns="http://www.w3.org/2000/svg" viewBox="0 0 475.07 928.58"><defs><style>.cls-1{fill:#941a27;}.cls-2{fill:#231f20;}.cls-3{fill:#fdd8cb;}.cls-4{fill:none;stroke:#fff;}.cls-5{isolation:isolate;}.cls-6{fill:#fbc7b5;}</style></defs><title>Good-Day-Terp-3B</title><polygon class="cls-1" points="0 904.05 0 928.58 461.4 928.58 461.4 904.05 0 904.05 0 904.05"/><path class="cls-2" d="M440.54,427h4.3v-.65h-3.46l2.4-3a3.79,3.79,0,0,0,1.05-2.44,2.1,2.1,0,0,0-2-2.17h-.25a2.84,2.84,0,0,0-1.86.73v.83a2.47,2.47,0,0,1,1.84-.87,1.47,1.47,0,0,1,1.59,1.34v.2a3.29,3.29,0,0,1-.94,2l-2.64,3.37Zm8.44-7.6a1.9,1.9,0,0,1,2,1.79v3.21a2,2,0,0,1-3.92.8,2.15,2.15,0,0,1,0-.8v-3a1.9,1.9,0,0,1,1.79-2H449Zm0-.68a2.59,2.59,0,0,0-2.65,2.53v3.19a2.66,2.66,0,0,0,5.32,0h0v-3.05a2.6,2.6,0,0,0-2.53-2.67Zm7,.68a1.91,1.91,0,0,1,2,1.82v3.18a2,2,0,0,1-3.93.75,1.89,1.89,0,0,1,0-.75v-3a1.91,1.91,0,0,1,1.82-2H456Zm0-.68a2.58,2.58,0,0,0-2.65,2.51v3.21a2.66,2.66,0,1,0,5.31.33,1.82,1.82,0,0,0,0-.33v-3.05a2.6,2.6,0,0,0-2.51-2.67Zm4.12,7.81a.59.59,0,1,0,.59-.59h0a.57.57,0,0,0-.58.56Zm5.3-7.13a1.91,1.91,0,0,1,2,1.82v3.18a2,2,0,0,1-3.93.75,1.89,1.89,0,0,1,0-.75v-3a1.91,1.91,0,0,1,1.82-2h.11Zm0-.68a2.58,2.58,0,0,0-2.65,2.51v3.21a2.66,2.66,0,1,0,5.31.33,1.82,1.82,0,0,0,0-.33v-3.05a2.6,2.6,0,0,0-2.51-2.67Zm7,.68a1.91,1.91,0,0,1,2,1.82v3.18a2,2,0,0,1-3.92.8,2.15,2.15,0,0,1,0-.8v-3a1.9,1.9,0,0,1,1.79-2h.13Zm0-.68a2.59,2.59,0,0,0-2.65,2.53v3.19a2.66,2.66,0,1,0,5.32,0h0v-3.05a2.6,2.6,0,0,0-2.53-2.67Z" transform="translate(0 -2.08)"/><path class="cls-2" d="M440.54,877.8h4.3v-.65h-3.46l2.4-3a3.79,3.79,0,0,0,1.05-2.44,2.1,2.1,0,0,0-2-2.17h-.25a2.84,2.84,0,0,0-1.86.73v.83a2.47,2.47,0,0,1,1.84-.87,1.47,1.47,0,0,1,1.59,1.34v.2a3.29,3.29,0,0,1-.94,2l-2.64,3.37v.64Zm8.44-7.6a1.9,1.9,0,0,1,2,1.79v3.21a2,2,0,0,1-3.92.8,2.15,2.15,0,0,1,0-.8v-3a1.9,1.9,0,0,1,1.79-2H449Zm0-.68a2.59,2.59,0,0,0-2.65,2.53v3.14a2.66,2.66,0,1,0,5.32,0h0v-3a2.6,2.6,0,0,0-2.53-2.67Zm7,.68a1.91,1.91,0,0,1,2,1.82v3.18a2,2,0,0,1-3.93.75,1.89,1.89,0,0,1,0-.75v-3a1.91,1.91,0,0,1,1.82-2H456Zm0-.68a2.58,2.58,0,0,0-2.65,2.51v3.16a2.66,2.66,0,1,0,5.31.33,1.82,1.82,0,0,0,0-.33v-3a2.6,2.6,0,0,0-2.51-2.67Zm4.12,7.81a.59.59,0,1,0,.59-.59h0a.57.57,0,0,0-.58.56Zm5.3-7.13a1.91,1.91,0,0,1,2,1.82v3.18a2,2,0,0,1-3.93.75,1.89,1.89,0,0,1,0-.75v-3a1.91,1.91,0,0,1,1.82-2h.11Zm0-.68a2.58,2.58,0,0,0-2.65,2.51v3.16a2.66,2.66,0,1,0,5.31.33,1.82,1.82,0,0,0,0-.33v-3a2.6,2.6,0,0,0-2.51-2.67Zm7,.68a1.91,1.91,0,0,1,2,1.82v3.18a2,2,0,0,1-3.92.8,2.15,2.15,0,0,1,0-.8v-3a1.9,1.9,0,0,1,1.79-2h.13Zm0-.68a2.59,2.59,0,0,0-2.65,2.53v3.14a2.66,2.66,0,1,0,5.32,0h0v-3a2.6,2.6,0,0,0-2.53-2.67Z" transform="translate(0 -2.08)"/><polygon class="cls-3" points="0 127.38 0 156.18 461.4 156.18 461.4 127.38 0 127.38 0 127.38"/><polygon class="cls-3" points="0 17.78 0 46.58 461.4 46.58 461.4 17.78 0 17.78 0 17.78"/><polygon class="cls-3" points="0 72.58 0 101.38 461.4 101.38 461.4 72.58 0 72.58 0 72.58"/><polygon class="cls-3" points="0 182.18 0 210.98 461.4 210.98 461.4 182.18 0 182.18 0 182.18"/><polygon class="cls-3" points="0 236.98 0 265.78 461.4 265.78 461.4 236.98 0 236.98 0 236.98"/><polygon class="cls-3" points="0 291.78 0 320.58 461.4 320.58 461.4 291.78 0 291.78 0 291.78"/><polygon class="cls-3" points="0 346.58 0 375.38 461.4 375.38 461.4 346.58 0 346.58 0 346.58"/><polygon class="cls-3" points="0 608.18 0 636.98 461.4 636.98 461.4 608.18 0 608.18 0 608.18"/><polygon class="cls-3" points="0 498.58 0 527.38 461.4 527.38 461.4 498.58 0 498.58 0 498.58"/><polygon class="cls-3" points="0 553.38 0 582.18 461.4 582.18 461.4 553.38 0 553.38 0 553.38"/><polygon class="cls-3" points="0 662.98 0 691.78 461.4 691.78 461.4 662.98 0 662.98 0 662.98"/><polygon class="cls-3" points="0 717.78 0 746.58 461.4 746.58 461.4 717.78 0 717.78 0 717.78"/><polygon class="cls-3" points="0 772.58 0 801.38 461.4 801.38 461.4 772.58 0 772.58 0 772.58"/><polygon class="cls-3" points="0 827.38 0 856.18 461.4 856.18 461.4 827.38 0 827.38 0 827.38"/><path class="cls-4" d="M0,406.66H461.4m-.5-.5V20.26M199.29,406.16V20.26M330.5,406.16V20.26M0,19.76H461.4" transform="translate(0 -2.08)"/><path class="cls-2" d="M52,390.2a3.43,3.43,0,0,1,1.81-.55,1.31,1.31,0,0,1,1.44,1.15,1.77,1.77,0,0,1,0,.23v.57a2.35,2.35,0,0,0-1.65-.66,2.24,2.24,0,0,0-2.36,2.12v.13a2.18,2.18,0,0,0,2.1,2.27,1.77,1.77,0,0,0,.23,0,2.07,2.07,0,0,0,1.68-.78v.63h1.54v-4.26a2.48,2.48,0,0,0-2.17-2.77,2.29,2.29,0,0,0-.64,0,4.93,4.93,0,0,0-2,.43v1.49Zm.76,3A1.17,1.17,0,0,1,54,392.08a1.2,1.2,0,0,1,1.25,1.12,1.25,1.25,0,0,1-2.48,0ZM60,385.66H58.5v9.66H60v-9.66Zm3.3,2.77H61.8v9.76h1.53v-4a2.68,2.68,0,0,0,2.36,1.27,3.6,3.6,0,0,0,0-7.18,2.59,2.59,0,0,0-2.36,1.34v-1.2Zm0,3.45A2.06,2.06,0,1,1,65.4,394,2,2,0,0,1,63.34,392Zm8.58-6.22H70.39v9.66h1.53v-4.06a1.45,1.45,0,1,1,2.9.08h0v4h1.54V391a2.46,2.46,0,0,0-2.25-2.65h-.25a2.11,2.11,0,0,0-1.94,1.12v-3.77Zm6.39,4.55a3.4,3.4,0,0,1,1.8-.55,1.3,1.3,0,0,1,1.44,1.14,1,1,0,0,1,0,.24v.57a2.35,2.35,0,0,0-1.65-.66,2.26,2.26,0,0,0-2.37,2.13v.12a2.2,2.2,0,0,0,2.12,2.27h.22a2.07,2.07,0,0,0,1.68-.78v.63H83.1v-4.26a2.51,2.51,0,0,0-2.19-2.78,2.66,2.66,0,0,0-.63,0,4.93,4.93,0,0,0-2,.43v1.49Zm.75,3a1.25,1.25,0,0,1,1.1-1.38,1.25,1.25,0,0,1,.28,2.48H80.3A1.18,1.18,0,0,1,79.06,393.21Zm10.87,2.12v-5.57h1.24v-1.32H89.93V386.5l-1.46.33v1.61H87.23v1.32h1.16v5.57Zm8.43-2.93a3.46,3.46,0,0,0,.09-.78,3.2,3.2,0,0,0-3.08-3.32h-.19a3.59,3.59,0,1,0,.08,7.18,5.15,5.15,0,0,0,2.52-.63v-1.52a4.36,4.36,0,0,1-2.4.75,2,2,0,0,1-2.1-1.68Zm-3.19-2.81a1.69,1.69,0,0,1,1.8,1.58v0H93.26A1.86,1.86,0,0,1,95.17,389.59Zm6.08-1.15H99.72v6.89h1.53v-4.06a1.34,1.34,0,0,1,1.2-1.46h.15a2.39,2.39,0,0,1,.92.18v-1.64H103a1.88,1.88,0,0,0-1.7,1v-.9Zm4.9,0h-1.53v9.76h1.53v-4a2.68,2.68,0,0,0,2.36,1.27,3.6,3.6,0,0,0,0-7.18,2.59,2.59,0,0,0-2.36,1.34v-1.2Zm0,3.45a2.06,2.06,0,1,1,2,2.11,2,2,0,0,1-2.06-1.94v-.17Zm8.59-3.45H113.2v6.89h1.54Zm-1.72-2.1a.93.93,0,0,0,.91,1h0a1,1,0,0,0,.64-1.26,1,1,0,0,0-.64-.64.94.94,0,0,0-1,.93v0Zm5,2.1h-1.54v6.89H118v-4.06a1.4,1.4,0,0,1,1.31-1.47h.13a1.42,1.42,0,0,1,1.47,1.35,1.34,1.34,0,0,1,0,.2v4h1.54V391a2.46,2.46,0,0,0-2.25-2.65h-.26A2.08,2.08,0,0,0,118,389.4v-1Zm12.35,4a3.47,3.47,0,0,0,.1-.78,3.2,3.2,0,0,0-3.08-3.32h-.2a3.59,3.59,0,0,0,.08,7.18,5.15,5.15,0,0,0,2.52-.63v-1.52a4.36,4.36,0,0,1-2.4.75,2,2,0,0,1-2.1-1.68Zm-3.19-2.81a1.69,1.69,0,0,1,1.8,1.58v0h-3.71A1.86,1.86,0,0,1,127.18,389.63Zm6.08-1.15h-1.53v6.89h1.53v-4.06a1.45,1.45,0,0,1,2.9.08h0v4h1.54V391a2.44,2.44,0,0,0-2.23-2.65h-.27a2.1,2.1,0,0,0-1.94,1.12Zm12.35,4a2.93,2.93,0,0,0,.1-.78,3.2,3.2,0,0,0-3.08-3.32h-.19a3.59,3.59,0,1,0,.08,7.18h0a5.15,5.15,0,0,0,2.52-.63v-1.52a4.4,4.4,0,0,1-2.41.75,2,2,0,0,1-2.1-1.68Zm-3.19-2.81a1.69,1.69,0,0,1,1.81,1.56v.06h-3.71A1.85,1.85,0,0,1,142.42,389.67Z" transform="translate(0 -2.08)"/><path class="cls-2" d="M66.58,362.85a3.43,3.43,0,0,1,1.81-.55,1.31,1.31,0,0,1,1.44,1.15,1.77,1.77,0,0,1,0,.23v.57a2.35,2.35,0,0,0-1.65-.66,2.26,2.26,0,0,0-2.37,2.13v.12a2.2,2.2,0,0,0,2.12,2.27h.22a2.07,2.07,0,0,0,1.68-.78V368h1.54v-4.3a2.5,2.5,0,0,0-2.19-2.77,2.15,2.15,0,0,0-.62,0,4.93,4.93,0,0,0-2,.43v1.49Zm.76,3a1.17,1.17,0,0,1,1.23-1.12,1.2,1.2,0,0,1,1.25,1.12,1.25,1.25,0,0,1-2.48,0Zm7.28-7.54H73.08V368h1.54v-9.7Zm3.3,2.77H76.38v9.76h1.54v-4a2.7,2.7,0,0,0,2.35,1.27,3.6,3.6,0,0,0,0-7.18,2.6,2.6,0,0,0-2.35,1.34v-1.2Zm0,3.45A2.05,2.05,0,1,1,80,366.6a2,2,0,0,1-2.06-1.94v-.14Zm8.58-6.22H85V368h1.54v-4.1a1.45,1.45,0,1,1,2.9.08h0v4H91v-4.37A2.46,2.46,0,0,0,88.73,361h-.25a2.11,2.11,0,0,0-1.94,1.12V358.3Zm6.39,4.55a3.4,3.4,0,0,1,1.8-.55,1.3,1.3,0,0,1,1.44,1.14,1,1,0,0,1,0,.24v.57a2.34,2.34,0,0,0-1.66-.66,2.24,2.24,0,0,0-2.36,2.12v.13a2.18,2.18,0,0,0,2.1,2.27h.23a2.09,2.09,0,0,0,1.69-.78V368h1.53v-4.3a2.48,2.48,0,0,0-2.17-2.77,2.29,2.29,0,0,0-.64,0,4.93,4.93,0,0,0-2,.43v1.49Zm.75,3a1.25,1.25,0,0,1,1.1-1.38A1.25,1.25,0,0,1,95,367h-.14A1.18,1.18,0,0,1,93.64,365.86Zm9.3-1.16v-1.44H99.28v1.44Zm3.2-3.61h-1.53v9.76h1.53v-4a2.68,2.68,0,0,0,2.36,1.27,3.6,3.6,0,0,0,0-7.18,2.59,2.59,0,0,0-2.36,1.34v-1.2Zm0,3.45a2.06,2.06,0,1,1,2.06,2.08,2,2,0,0,1-2.06-1.94Zm8.59-3.45h-1.54V368h1.54v-6.91ZM113,359a.93.93,0,0,0,.91.95h0a1,1,0,0,0,.64-1.26,1,1,0,0,0-.64-.64.93.93,0,0,0-1,.93v0Zm5,2.1h-1.54V368H118v-4.1a1.4,1.4,0,0,1,1.31-1.47h.13a1.42,1.42,0,0,1,1.47,1.35,1.34,1.34,0,0,1,0,.2v4h1.54v-4.37a2.46,2.46,0,0,0-2.25-2.65h-.26a2.09,2.09,0,0,0-1.93,1.12v-1Zm12.35,4a3.47,3.47,0,0,0,.1-.78,3.2,3.2,0,0,0-3.08-3.32h-.2a3.59,3.59,0,0,0,.08,7.18h0a5.15,5.15,0,0,0,2.52-.63V366a4.36,4.36,0,0,1-2.4.75,2,2,0,0,1-2.1-1.68Zm-3.19-2.81a1.69,1.69,0,0,1,1.8,1.58v0h-3.71A1.86,1.86,0,0,1,127.16,362.29Zm6.08-1.15h-1.53V368h1.53v-4.1a1.45,1.45,0,0,1,2.9.08v4h1.54v-4.37a2.44,2.44,0,0,0-2.23-2.65h-.27a2.1,2.1,0,0,0-1.94,1.12v-.93Zm12.35,4a2.93,2.93,0,0,0,.1-.78,3.2,3.2,0,0,0-3.08-3.32h-.19a3.59,3.59,0,0,0,.08,7.18,5.15,5.15,0,0,0,2.52-.63V366a4.4,4.4,0,0,1-2.41.75,2,2,0,0,1-2.1-1.68Zm-3.19-2.81a1.69,1.69,0,0,1,1.81,1.56V364H140.5A1.85,1.85,0,0,1,142.4,362.33Z" transform="translate(0 -2.08)"/><path class="cls-2" d="M53.55,335.5a3.4,3.4,0,0,1,1.8-.55,1.3,1.3,0,0,1,1.44,1.14,1,1,0,0,1,0,.24v.57a2.34,2.34,0,0,0-1.66-.66,2.24,2.24,0,0,0-2.36,2.12v.13a2.18,2.18,0,0,0,2.1,2.27h.23A2.09,2.09,0,0,0,56.8,340v.63h1.54v-4.26a2.51,2.51,0,0,0-2.19-2.78,2.66,2.66,0,0,0-.63,0,4.93,4.93,0,0,0-2,.43v1.49Zm.75,3a1.25,1.25,0,0,1,1.1-1.38,1.25,1.25,0,0,1,.28,2.48h-.14A1.18,1.18,0,0,1,54.3,338.5ZM61.58,331H60v9.66h1.54V331Zm3.31,2.77H63.35v9.76h1.54v-4a2.67,2.67,0,0,0,2.35,1.27,3.6,3.6,0,0,0,0-7.18,2.55,2.55,0,0,0-2.35,1.34v-1.2Zm0,3.45A2.05,2.05,0,1,1,67,339.26a2,2,0,0,1-2.06-1.94ZM73.47,331H71.93v9.66h1.54v-4.06a1.4,1.4,0,0,1,1.31-1.47h.14a1.41,1.41,0,0,1,1.46,1.36,1.21,1.21,0,0,1,0,.19v4h1.54v-4.37a2.46,2.46,0,0,0-2.25-2.65H75.4a2.11,2.11,0,0,0-1.93,1.12V331Zm6.38,4.55a3.43,3.43,0,0,1,1.81-.55,1.31,1.31,0,0,1,1.44,1.15,1.77,1.77,0,0,1,0,.23v.57a2.35,2.35,0,0,0-1.65-.66,2.26,2.26,0,0,0-2.37,2.13v.12a2.2,2.2,0,0,0,2.12,2.27h.22A2.07,2.07,0,0,0,83.1,340v.63h1.54v-4.26a2.5,2.5,0,0,0-2.19-2.77,2.15,2.15,0,0,0-.62,0,4.93,4.93,0,0,0-2,.43v1.49Zm.76,3a1.17,1.17,0,0,1,1.23-1.12,1.2,1.2,0,0,1,1.25,1.12,1.25,1.25,0,0,1-2.48,0Zm9.3-1.16v-1.44H86.25v1.44Zm3.2,2.16a2.73,2.73,0,0,0,2.37,1.27,3.6,3.6,0,0,0,0-7.18,2.72,2.72,0,0,0-2.35,1.26V331H91.59v9.66h1.54v-1.12Zm0-2.33a2.05,2.05,0,1,1,2.06,2.09,2,2,0,0,1-2.06-1.94Zm8.58-3.44h-1.54v6.89h1.54Zm-1.72-2.1a.94.94,0,0,0,.93.95h0a1,1,0,0,0,.64-1.26,1,1,0,0,0-.64-.64.94.94,0,0,0-1,.93v0Zm7.21,2.24a5.13,5.13,0,0,0-1.6-.28c-1.56,0-2.43.83-2.43,2a1.88,1.88,0,0,0,1,1.71l1.18.7c.43.25.59.48.59.76s-.34.71-1,.71a2.92,2.92,0,0,1-1.7-.64v1.58a4.57,4.57,0,0,0,1.79.39c1.55,0,2.46-.84,2.46-2a2,2,0,0,0-1.15-1.82l-1.1-.66c-.34-.21-.52-.36-.52-.65a.81.81,0,0,1,.9-.68,3.05,3.05,0,0,1,1.55.49v-1.55Zm1.95,1.64a3.4,3.4,0,0,1,1.8-.55,1.3,1.3,0,0,1,1.44,1.14,1,1,0,0,1,0,.24v.57a2.34,2.34,0,0,0-1.66-.66,2.24,2.24,0,0,0-2.36,2.12v.13a2.18,2.18,0,0,0,2.1,2.27,1.77,1.77,0,0,0,.23,0,2.09,2.09,0,0,0,1.69-.78v.63h1.53v-4.26a2.48,2.48,0,0,0-2.17-2.77,2.29,2.29,0,0,0-.64,0,4.93,4.93,0,0,0-2,.43v1.49Zm.75,3a1.17,1.17,0,0,1,1.23-1.12,1.2,1.2,0,0,1,1.25,1.12,1.25,1.25,0,0,1-2.48,0Zm7.27,1a2.68,2.68,0,0,0,2.36,1.27,3.6,3.6,0,0,0,0-7.18,2.67,2.67,0,0,0-2.35,1.26V331h-1.54v9.66h1.54v-1.14Zm0-2.33a2.05,2.05,0,1,1,2.06,2.09,2,2,0,0,1-2.06-1.94Zm6.62,0a3.59,3.59,0,1,0,3.6-3.58h0a3.53,3.53,0,0,0-3.58,3.5Zm1.55,0a2,2,0,0,1,1.92-2.08h.08a2.09,2.09,0,0,1,0,4.17,2.05,2.05,0,0,1-2-2.09Zm8.5-6.21h-1.54v9.66h1.54V331Zm1.35,6.21a3.58,3.58,0,1,0,3.58-3.58h0a3.53,3.53,0,0,0-3.58,3.5Zm1.55,0a2,2,0,1,1,0,.09v-.09Zm8.5-6.21h-1.54v9.66h1.54V331Z" transform="translate(0 -2.08)"/><path class="cls-2" d="M78.52,313.26v-5.57h1.25v-1.32H78.52v-1.94l-1.45.33v1.61H75.82v1.32H77v5.57ZM87,310.33a2.93,2.93,0,0,0,.1-.78A3.2,3.2,0,0,0,84,306.23h-.2a3.59,3.59,0,1,0,.09,7.18,5.15,5.15,0,0,0,2.52-.63v-1.52A4.4,4.4,0,0,1,84,312a2,2,0,0,1-2.1-1.68Zm-3.19-2.81a1.69,1.69,0,0,1,1.81,1.56v.06H81.86A1.85,1.85,0,0,1,83.76,307.52Zm6.09-1.15H88.31v6.89h1.54V309.2a1.31,1.31,0,0,1,1.34-1.47,2.48,2.48,0,0,1,.93.18v-1.64h-.58a1.85,1.85,0,0,0-1.69,1v-.9Zm4.9,0H93.21v9.76h1.54v-4a2.67,2.67,0,0,0,2.35,1.27,3.6,3.6,0,0,0,0-7.18,2.55,2.55,0,0,0-2.35,1.34v-1.2Zm0,3.45a2.05,2.05,0,1,1,2.06,2.08A2,2,0,0,1,94.75,310Zm8.58-3.45h-1.54v6.89h1.54Zm-1.72-2.1a1,1,0,0,0,1,.9,1,1,0,0,0,0-1.9.93.93,0,0,0-1,.91Zm5,2.1H105.1v6.89h1.53V309.2a1.45,1.45,0,1,1,2.9.08h0v4h1.54v-4.37a2.46,2.46,0,0,0-2.25-2.65h-.25a2.1,2.1,0,0,0-1.94,1.12v-1Zm5.72,3.44a3.58,3.58,0,1,0,3.58-3.58h0a3.53,3.53,0,0,0-3.58,3.5Zm1.55,0a2,2,0,1,1,0,.09Zm8.5-6.21h-1.54v9.66h1.54Zm8,6.73a3.47,3.47,0,0,0,.1-.78,3.2,3.2,0,0,0-3.08-3.32h-.2a3.59,3.59,0,0,0,.08,7.18h0a5.15,5.15,0,0,0,2.52-.63v-1.52a4.36,4.36,0,0,1-2.4.75,2,2,0,0,1-2.1-1.68Zm-3.19-2.81a1.69,1.69,0,0,1,1.8,1.58v0h-3.71A1.86,1.86,0,0,1,127.19,307.52Zm6.08-1.15h-1.53v6.89h1.53V309.2a1.45,1.45,0,1,1,2.9.08h0v4h1.54v-4.37a2.44,2.44,0,0,0-2.23-2.65h-.27a2.1,2.1,0,0,0-1.94,1.12v-1Zm12.35,4a2.93,2.93,0,0,0,.1-.78,3.2,3.2,0,0,0-3.08-3.32h-.19a3.59,3.59,0,0,0,.08,7.18h0a5.15,5.15,0,0,0,2.52-.63V311.3a4.4,4.4,0,0,1-2.41.75,2,2,0,0,1-2.1-1.68Zm-3.19-2.81a1.69,1.69,0,0,1,1.81,1.56v.06h-3.71A1.85,1.85,0,0,1,142.43,307.56Z" transform="translate(0 -2.08)"/><path class="cls-2" d="M102.23,279v1.12a2.75,2.75,0,0,0-2.4-1.26,3.5,3.5,0,1,0,0,7h0a2.79,2.79,0,0,0,2.38-1.23v.8a2,2,0,0,1-1.93,2.07H100a4.49,4.49,0,0,1-2.36-.73v1.61a5.22,5.22,0,0,0,2.36.56,3.38,3.38,0,0,0,3.71-3,3.64,3.64,0,0,0,0-.66V279Zm-.09,3.35a2,2,0,1,1-2-2,1.94,1.94,0,0,1,2,1.88Zm9.63.61a2.93,2.93,0,0,0,.1-.78,3.2,3.2,0,0,0-3.08-3.32h-.19a3.59,3.59,0,0,0,.08,7.18,5.15,5.15,0,0,0,2.52-.63v-1.52a4.4,4.4,0,0,1-2.41.75,2,2,0,0,1-2.1-1.68Zm-3.19-2.81a1.69,1.69,0,0,1,1.81,1.56v.06h-3.71A1.85,1.85,0,0,1,108.58,280.15Zm6.09-1.15h-1.54v6.89h1.54v-4.06a1.31,1.31,0,0,1,1.34-1.47,2.44,2.44,0,0,1,.93.18V278.9h-.58a1.85,1.85,0,0,0-1.69,1V279Zm3.46,1.78a3.4,3.4,0,0,1,1.8-.55,1.3,1.3,0,0,1,1.44,1.14,1,1,0,0,1,0,.24v.57a2.34,2.34,0,0,0-1.66-.66,2.24,2.24,0,0,0-2.36,2.12v.13a2.2,2.2,0,0,0,2.12,2.27h.22a2.1,2.1,0,0,0,1.68-.78v.63h1.54v-4.26a2.51,2.51,0,0,0-2.19-2.78,2.66,2.66,0,0,0-.63,0,4.93,4.93,0,0,0-2,.43v1.49Zm.75,3a1.25,1.25,0,0,1,1.1-1.38,1.25,1.25,0,0,1,.28,2.48h-.14A1.18,1.18,0,0,1,118.88,283.78Zm7.27-4.77h-1.54v6.89h1.54v-4.06a1.4,1.4,0,0,1,1.31-1.47h.13a1.42,1.42,0,0,1,1.47,1.35,1.34,1.34,0,0,1,0,.2v4h1.54v-4.37a2.46,2.46,0,0,0-2.25-2.65h-.26a2.09,2.09,0,0,0-1.93,1.12Zm7.67,0h-1.54v6.89h1.54V279Zm-1.72-2.1a1,1,0,0,0,.88,1h.07a1,1,0,0,0,.64-1.26,1,1,0,0,0-.64-.64.94.94,0,0,0-1,.93v0Zm3.07,5.54a3.58,3.58,0,1,0,3.58-3.58h0a3.54,3.54,0,0,0-3.58,3.5Zm1.55,0a2,2,0,1,1,0,.09v-.09Zm8.5-6.21h-1.54v9.66h1.54Z" transform="translate(0 -2.08)"/><path class="cls-2" d="M90.27,255.63a3.47,3.47,0,0,0,.1-.78,3.22,3.22,0,0,0-3.1-3.32h-.18a3.59,3.59,0,1,0,.09,7.18h0a5.11,5.11,0,0,0,2.51-.63v-1.52a4.36,4.36,0,0,1-2.4.75,2,2,0,0,1-2.1-1.68Zm-3.19-2.81a1.68,1.68,0,0,1,1.8,1.55v.07H85.17A1.86,1.86,0,0,1,87.08,252.82ZM96,258.56h1.53v-6.89H96v4.06a1.45,1.45,0,0,1-2.9-.1h0v-4H91.56V256a2.46,2.46,0,0,0,2.25,2.65h.25A2.1,2.1,0,0,0,96,257.55v1Zm8.18-1.89a2.73,2.73,0,0,1-1.65.53,2.09,2.09,0,0,1,0-4.17,2.8,2.8,0,0,1,1.65.53v-1.65a3.77,3.77,0,0,0-1.65-.38,3.59,3.59,0,1,0,0,7.18h0a3.65,3.65,0,0,0,1.65-.4Zm1.69-3.22a3.43,3.43,0,0,1,1.81-.55,1.31,1.31,0,0,1,1.44,1.15,1.77,1.77,0,0,1,0,.23v.57a2.35,2.35,0,0,0-1.65-.66,2.26,2.26,0,0,0-2.37,2.13v.12a2.2,2.2,0,0,0,2.12,2.27,1.61,1.61,0,0,0,.22,0,2.07,2.07,0,0,0,1.68-.78v.63h1.54V254.3a2.5,2.5,0,0,0-2.19-2.77,2.15,2.15,0,0,0-.62,0,4.93,4.93,0,0,0-2,.43v1.49Zm.76,3a1.17,1.17,0,0,1,1.23-1.12,1.2,1.2,0,0,1,1.25,1.12,1.25,1.25,0,0,1-2.48,0Zm7.28-7.54h-1.54v9.66h1.54V248.9Zm2,12.53h1.78l4.16-9.76h-1.74l-1.79,4.42-1.71-4.42H115l2.59,6.36-1.57,3.4Zm8.4-9.76h-1.54v9.76h1.54v-4a2.7,2.7,0,0,0,2.35,1.27,3.6,3.6,0,0,0,0-7.18,2.6,2.6,0,0,0-2.35,1.34v-1.2Zm0,3.45a2.05,2.05,0,1,1,2.06,2.08,2,2,0,0,1-2.06-1.94Zm9,3.44V253h1.25v-1.32h-1.25v-1.94l-1.45.33v1.61h-1.25V253h1.16v5.57Zm1.8-3.45a3.58,3.58,0,1,0,3.58-3.58h0a3.54,3.54,0,0,0-3.58,3.5Zm1.55,0a2,2,0,1,1,0,.09v-.09Zm8.5-6.21h-1.54v9.66h1.54V248.9Z" transform="translate(0 -2.08)"/><path class="cls-2" d="M88,228.94a3.59,3.59,0,0,1-2.33.83,3.32,3.32,0,0,1,0-6.63A3.57,3.57,0,0,1,88,224v-1.84a4.91,4.91,0,1,0,0,8.63v-1.85Zm1.78-2.84a3.4,3.4,0,0,1,1.8-.55A1.3,1.3,0,0,1,93,226.69a1,1,0,0,1,0,.24v.57a2.39,2.39,0,0,0-1.66-.66A2.24,2.24,0,0,0,89,229v.13a2.18,2.18,0,0,0,2.1,2.27h.23a2.09,2.09,0,0,0,1.69-.78v.63h1.53V227a2.48,2.48,0,0,0-2.17-2.77,2.29,2.29,0,0,0-.64,0,4.93,4.93,0,0,0-2,.43v1.49Zm.75,3A1.17,1.17,0,0,1,91.76,228,1.2,1.2,0,0,1,93,229.1a1.25,1.25,0,0,1-2.48,0Zm7.27-4.77H96.26v6.89H97.8v-4.16A1.29,1.29,0,0,1,99,225.69h.15A1.31,1.31,0,0,1,100.5,227a1.21,1.21,0,0,1,0,.19v4.06H102v-4.06a1.32,1.32,0,0,1,1.18-1.46h.19a1.31,1.31,0,0,1,1.34,1.28,1.21,1.21,0,0,1,0,.19v4.06h1.54v-4.48A2.38,2.38,0,0,0,104,224.2h-.19a2.13,2.13,0,0,0-2.07,1.33,2.24,2.24,0,0,0-2.17-1.33,2,2,0,0,0-1.82,1v-.88Zm11.69,0H108v9.76h1.54v-4a2.67,2.67,0,0,0,2.35,1.27,3.6,3.6,0,0,0,0-7.18,2.55,2.55,0,0,0-2.35,1.34v-1.2Zm0,3.45a2.05,2.05,0,1,1,2.06,2.08,2,2,0,0,1-2.06-1.94Zm8.58-6.22h-1.54v9.66H118v-4.06a1.45,1.45,0,0,1,2.9.08h0v4h1.54v-4.37a2.46,2.46,0,0,0-2.25-2.65h-.26A2.11,2.11,0,0,0,118,225.3v-3.75Zm12.35,6.73a3.47,3.47,0,0,0,.1-.78,3.2,3.2,0,0,0-3.08-3.32h-.2a3.59,3.59,0,1,0,.08,7.18h0a5.15,5.15,0,0,0,2.52-.63v-1.52a4.36,4.36,0,0,1-2.4.75,2,2,0,0,1-2.1-1.68Zm-3.19-2.81a1.69,1.69,0,0,1,1.8,1.58v0h-3.71A1.86,1.86,0,0,1,127.23,225.48Zm6.08-1.15h-1.53v6.89h1.53v-4.06a1.45,1.45,0,0,1,2.9.08h0v4h1.54v-4.37a2.44,2.44,0,0,0-2.23-2.65h-.27a2.1,2.1,0,0,0-1.94,1.12Zm12.35,4a2.93,2.93,0,0,0,.1-.78,3.2,3.2,0,0,0-3.08-3.32h-.19a3.59,3.59,0,1,0,.08,7.18h0a5.15,5.15,0,0,0,2.52-.63v-1.52a4.4,4.4,0,0,1-2.41.75,2,2,0,0,1-2.1-1.68Zm-3.19-2.81a1.69,1.69,0,0,1,1.81,1.56v.06h-3.71A1.85,1.85,0,0,1,142.47,225.52Z" transform="translate(0 -2.08)"/><path class="cls-2" d="M86.73,197H85.19v9.76h1.54v-4A2.67,2.67,0,0,0,89.08,204a3.6,3.6,0,0,0,0-7.18,2.55,2.55,0,0,0-2.35,1.34Zm0,3.45a2.05,2.05,0,1,1,2,2.08h0a2,2,0,0,1-2-2Zm10.61.16v-1.44H93.68v1.44Zm6.52,1.39a2.73,2.73,0,0,1-1.65.53,2.09,2.09,0,0,1,0-4.17,2.8,2.8,0,0,1,1.65.53v-1.65a3.77,3.77,0,0,0-1.65-.38,3.59,3.59,0,0,0,0,7.18,3.65,3.65,0,0,0,1.65-.4Zm1.75,4.76h1.78l4.16-9.76h-1.74L108,201.39,106.31,197h-1.72l2.59,6.36ZM114,197h-1.54v6.89H114V199.7a1.35,1.35,0,0,1,2.7-.11,1.48,1.48,0,0,1,0,.21v4.06h1.54V199.8a1.32,1.32,0,0,1,1.18-1.46h.19a1.3,1.3,0,0,1,1.34,1.26,1.48,1.48,0,0,1,0,.21v4.06h1.54v-4.48a2.38,2.38,0,0,0-2.22-2.54h-.19a2.13,2.13,0,0,0-2.07,1.33,2.24,2.24,0,0,0-2.17-1.33,2,2,0,0,0-1.82,1V197Zm16.37,4a3.47,3.47,0,0,0,.1-.78,3.2,3.2,0,0,0-3.08-3.32h-.2a3.59,3.59,0,1,0,.08,7.18,5.15,5.15,0,0,0,2.52-.63v-1.52a4.36,4.36,0,0,1-2.4.75,2,2,0,0,1-2.1-1.68Zm-3.19-2.81a1.69,1.69,0,0,1,1.8,1.58v0h-3.71A1.86,1.86,0,0,1,127.18,198.19Zm6.08-1.15h-1.53v6.89h1.53V199.8a1.45,1.45,0,0,1,2.9.08v4h1.54v-4.37a2.44,2.44,0,0,0-2.23-2.65h-.27a2.1,2.1,0,0,0-1.94,1.12V197Zm12.35,4a2.93,2.93,0,0,0,.1-.78,3.2,3.2,0,0,0-3.08-3.32h-.19a3.59,3.59,0,1,0,.08,7.18,5.15,5.15,0,0,0,2.52-.63V202a4.4,4.4,0,0,1-2.41.75,2,2,0,0,1-2.1-1.68Zm-3.19-2.81a1.69,1.69,0,0,1,1.81,1.56v.06h-3.71A1.85,1.85,0,0,1,142.42,198.23Z" transform="translate(0 -2.08)"/><path class="cls-2" d="M98.86,167.34a4.61,4.61,0,0,0-2-.49c-2.31,0-3.15,1.37-3.15,2.64A2.61,2.61,0,0,0,95.27,172l1.48.91c.62.38.88.74.88,1.16,0,.63-.5,1.13-1.47,1.13a3.93,3.93,0,0,1-2.31-.82v1.79a5.6,5.6,0,0,0,2.38.54c2.1,0,3.11-1.3,3.11-2.72a2.79,2.79,0,0,0-1.68-2.53l-1.46-.91c-.51-.32-.78-.66-.78-1.06,0-.63.5-1.08,1.41-1.08a3.52,3.52,0,0,1,2.07.71v-1.73Zm2.1,4.06a3.43,3.43,0,0,1,1.81-.55,1.31,1.31,0,0,1,1.44,1.15,1.77,1.77,0,0,1,0,.23v.57a2.35,2.35,0,0,0-1.65-.66,2.24,2.24,0,0,0-2.36,2.12v.13a2.18,2.18,0,0,0,2.1,2.27h.23a2.07,2.07,0,0,0,1.68-.78v.63h1.54v-4.26a2.48,2.48,0,0,0-2.17-2.77,2.29,2.29,0,0,0-.64,0,4.93,4.93,0,0,0-2,.43v1.49Zm.76,3a1.17,1.17,0,0,1,1.23-1.12,1.2,1.2,0,0,1,1.25,1.12,1.25,1.25,0,0,1-2.48,0Zm7.27,1a2.68,2.68,0,0,0,2.36,1.27,3.6,3.6,0,0,0,0-7.18,2.67,2.67,0,0,0-2.35,1.26v-3.9h-1.54v9.66H109v-1.12Zm0-2.33a2,2,0,1,1,2.05,2.05A2.05,2.05,0,0,1,109,173.07Zm8.58-3.44H116v6.89h1.54v-6.89Zm-1.72-2.1a1,1,0,0,0,1,.9,1,1,0,0,0,0-1.9.93.93,0,0,0-1,.91Zm9.7,6.06a3.47,3.47,0,0,0,.1-.78,3.2,3.2,0,0,0-3.08-3.32h-.2a3.59,3.59,0,1,0,.09,7.18A5.13,5.13,0,0,0,125,176v-1.52a4.36,4.36,0,0,1-2.4.75,2,2,0,0,1-2.1-1.68Zm-3.19-2.81a1.68,1.68,0,0,1,1.8,1.55v.07h-3.71A1.86,1.86,0,0,1,122.36,170.78Zm6.09-1.15h-1.54v6.89h1.54v-4.06a1.39,1.39,0,0,1,1.29-1.47h.15a1.42,1.42,0,0,1,1.47,1.35,1.34,1.34,0,0,1,0,.2v4h1.53v-4.37a2.46,2.46,0,0,0-2.25-2.65h-.25a2.07,2.07,0,0,0-1.93,1.12Zm12.34,4a2.93,2.93,0,0,0,.1-.78,3.2,3.2,0,0,0-3.08-3.32h-.19a3.59,3.59,0,1,0,.08,7.18,5.15,5.15,0,0,0,2.52-.63v-1.52a4.4,4.4,0,0,1-2.41.75,2,2,0,0,1-2.1-1.68Zm-3.19-2.81a1.69,1.69,0,0,1,1.81,1.56v.06H135.7a1.85,1.85,0,0,1,1.9-1.62Zm4.4-3.2-.27.47,1.3.77-1.3.76.27.48,1.31-.76v1.5h.55v-1.5l1.31.76.28-.49-1.32-.75,1.32-.77-.28-.47-1.31.77v-1.54h-.55v1.54Z" transform="translate(0 -2.08)"/><path class="cls-2" d="M114.5,142.27v1.12a2.74,2.74,0,0,0-2.39-1.26,3.5,3.5,0,0,0,0,7,2.79,2.79,0,0,0,2.38-1.23v.8a2,2,0,0,1-1.93,2.07h-.24A4.48,4.48,0,0,1,110,150v1.61a5.09,5.09,0,0,0,2.36.56,3.37,3.37,0,0,0,3.64-3.09,2.91,2.91,0,0,0,0-.59v-6.22Zm-.08,3.35a2,2,0,1,1-2-2,1.94,1.94,0,0,1,2,1.88Zm7.81,3.54h1.53v-6.89h-1.53v4.06a1.45,1.45,0,1,1-2.9-.1v-4h-1.54v4.38a2.46,2.46,0,0,0,2.25,2.65h.24a2.08,2.08,0,0,0,2-1.12v1Zm3.57-5.11a3.43,3.43,0,0,1,1.81-.55,1.31,1.31,0,0,1,1.44,1.15,1.77,1.77,0,0,1,0,.23v.57a2.35,2.35,0,0,0-1.65-.66,2.26,2.26,0,0,0-2.4,2.09V147a2.2,2.2,0,0,0,2.12,2.27h.22a2.07,2.07,0,0,0,1.68-.78v.63h1.54V144.9a2.51,2.51,0,0,0-2.19-2.78,2.66,2.66,0,0,0-.63,0,4.93,4.93,0,0,0-2,.43v1.49Zm.75,3a1.25,1.25,0,0,1,1.1-1.38,1.25,1.25,0,0,1,.28,2.48h-.14a1.19,1.19,0,0,1-1.24-1.14v0Zm7.27-4.77h-1.54v6.89h1.54v-6.9Zm-1.72-2.1a1,1,0,0,0,.88,1h.07a1,1,0,0,0,.64-1.26,1,1,0,0,0-.64-.64.93.93,0,0,0-1,.93v0Zm3.07,5.54a3.58,3.58,0,1,0,3.58-3.58h0a3.54,3.54,0,0,0-3.58,3.5Zm1.55,0a2,2,0,1,1,0,.09v-.09Zm8.5-6.21h-1.54v9.66h1.54V139.5Z" transform="translate(0 -2.08)"/><path class="cls-2" d="M29.13,119.92a2.73,2.73,0,0,1-1.65.53,2.09,2.09,0,0,1,0-4.17,2.8,2.8,0,0,1,1.65.53v-1.65a3.77,3.77,0,0,0-1.65-.38,3.59,3.59,0,0,0,0,7.18,3.65,3.65,0,0,0,1.65-.4Zm1.7-3.22a3.4,3.4,0,0,1,1.8-.55,1.31,1.31,0,0,1,1.44,1.15,1.77,1.77,0,0,1,0,.23v.57a2.35,2.35,0,0,0-1.65-.66,2.24,2.24,0,0,0-2.36,2.12v.13A2.18,2.18,0,0,0,32.12,122a1.22,1.22,0,0,0,.27,0,2.07,2.07,0,0,0,1.68-.78v.63h1.54v-4.3a2.48,2.48,0,0,0-2.17-2.77,2.29,2.29,0,0,0-.64,0,4.93,4.93,0,0,0-2,.43v1.49Zm.75,3a1.17,1.17,0,0,1,1.23-1.12,1.2,1.2,0,0,1,1.25,1.12,1.25,1.25,0,0,1-2.48,0Zm7.27-4.77H37.31v6.89h1.54v-4.07A1.32,1.32,0,0,1,40,116.29h.18a2.48,2.48,0,0,1,.93.18v-1.64h-.58a1.85,1.85,0,0,0-1.69,1v-.89Zm3.64,9.76h1.77l4.16-9.76H46.69l-1.79,4.42-1.71-4.42H41.46l2.6,6.36-1.57,3.4Zm6.21-6.32a3.59,3.59,0,1,0,3.6-3.58h0a3.55,3.55,0,0,0-3.59,3.51Zm1.56,0a2,2,0,0,1,1.92-2.08h.08a2.09,2.09,0,0,1,0,4.17,2,2,0,0,1-2-2Zm8.48-3.44H57.2v9.76h1.54v-4A2.69,2.69,0,0,0,61.09,122a3.6,3.6,0,0,0,0-7.18,2.6,2.6,0,0,0-2.35,1.34v-1.23Zm0,3.45a2.05,2.05,0,1,1,2.06,2.08,2,2,0,0,1-2.06-1.94Zm8.58-6.22H65.78v9.66h1.54v-4.07a1.45,1.45,0,1,1,2.9.08h0v4h1.54v-4.39a2.46,2.46,0,0,0-2.25-2.65h-.25a2.11,2.11,0,0,0-1.94,1.12v-3.75Zm6.22,12.53h1.78l4.15-9.76H77.74L76,119.34l-1.71-4.42H72.57l2.59,6.36-1.57,3.4ZM82,112.15H80.46v9.66H82Zm3.32,0H83.78v9.66h1.54Zm8,6.73a2.93,2.93,0,0,0,.1-.78,3.2,3.2,0,0,0-3.08-3.32h-.2a3.59,3.59,0,0,0,.09,7.18,5.15,5.15,0,0,0,2.52-.63v-1.52a4.4,4.4,0,0,1-2.41.75,2,2,0,0,1-2.1-1.68Zm-3.19-2.81a1.69,1.69,0,0,1,1.81,1.56v.06H88.23A1.85,1.85,0,0,1,90.13,116.07Zm6.09-1.15H94.68v6.89h1.54v-4.06a1.4,1.4,0,0,1,1.31-1.47h.13a1.42,1.42,0,0,1,1.47,1.35,1.34,1.34,0,0,1,0,.2v4h1.54v-4.39a2.46,2.46,0,0,0-2.25-2.65h-.26a2.09,2.09,0,0,0-1.93,1.12v-1Zm12.35,4a3.46,3.46,0,0,0,.09-.78,3.2,3.2,0,0,0-3.08-3.32h-.19a3.59,3.59,0,1,0,0,7.18,5.15,5.15,0,0,0,2.52-.63v-1.56a4.36,4.36,0,0,1-2.4.75,2,2,0,0,1-2.1-1.68Zm-3.19-2.81a1.69,1.69,0,0,1,1.8,1.58v0H103.4a1.86,1.86,0,0,1,1.91-1.62Zm7.26,2.29a3.59,3.59,0,1,0,3.6-3.58h0a3.54,3.54,0,0,0-3.59,3.49Zm1.55,0a2.06,2.06,0,0,1,2-2.08,2.09,2.09,0,0,1,0,4.17A2.05,2.05,0,0,1,114.19,118.4Zm9.16,1.15,1.46,2.3h1.8l-2.31-3.45,2.31-3.44h-1.8l-1.46,2.28L121.91,115H120l2.33,3.44L120,121.81h1.81l1.44-2.3Zm5.78-4.59h-1.54v6.89h1.54V115Zm-1.72-2.1a.94.94,0,0,0,.88,1h.12a1,1,0,0,0,.64-1.26,1,1,0,0,0-.64-.64.94.94,0,0,0-1,.88v0Zm8.78,9h1.52v-9.71h-1.52V116a2.72,2.72,0,0,0-2.35-1.26,3.6,3.6,0,0,0,0,7.18,2.79,2.79,0,0,0,2.37-1.27v1.12Zm0-3.45a2.06,2.06,0,1,1-2.06-2.07,2.06,2.06,0,0,1,2.06,2.07Zm9.5.52a2.93,2.93,0,0,0,.1-.78,3.2,3.2,0,0,0-3.08-3.32h-.19a3.59,3.59,0,1,0,.08,7.18,5.15,5.15,0,0,0,2.52-.63v-1.57a4.4,4.4,0,0,1-2.41.75,2,2,0,0,1-2.1-1.68Zm-3.19-2.81a1.69,1.69,0,0,1,1.81,1.56v.06H140.6A1.85,1.85,0,0,1,142.5,116.12Z" transform="translate(0 -2.08)"/><path class="cls-2" d="M104.72,84.8h-1.54v9.66h1.54Zm3.3,2.77h-1.54v6.89H108V87.57Zm-1.72-2.1a1,1,0,0,0,.88,1h.07a1,1,0,0,0,.64-1.26,1,1,0,0,0-.64-.64.94.94,0,0,0-1,.93v0Zm5,2.1h-1.54v6.89h1.54V90.4a1.45,1.45,0,0,1,2.9.08h0v4h1.54V90.09a2.46,2.46,0,0,0-2.25-2.65h-.25a2.1,2.1,0,0,0-1.94,1.12v-1Zm6.39,1.78a3.4,3.4,0,0,1,1.8-.55,1.3,1.3,0,0,1,1.5,1.07,1.61,1.61,0,0,1,0,.31v.57a2.34,2.34,0,0,0-1.66-.66A2.24,2.24,0,0,0,117,92.21v.13a2.2,2.2,0,0,0,2.12,2.27,1.61,1.61,0,0,0,.22,0,2.1,2.1,0,0,0,1.68-.78v.63h1.54V90.2a2.51,2.51,0,0,0-2.19-2.78,2.66,2.66,0,0,0-.63,0,4.93,4.93,0,0,0-2,.43v1.49Zm.75,3a1.25,1.25,0,0,1,1.1-1.38,1.25,1.25,0,1,1,.28,2.48h-.14A1.18,1.18,0,0,1,118.44,92.35Zm7.28-7.54H124.2v9.66h1.54V84.8ZM127.09,91a3.58,3.58,0,1,0,3.58-3.58h0a3.54,3.54,0,0,0-3.58,3.5Zm1.55,0a2,2,0,1,1,0,.09Zm6.53,0a3.58,3.58,0,1,0,3.58-3.58,3.54,3.54,0,0,0-3.58,3.5V91Zm1.55,0a2,2,0,1,1,0,.09Zm8.5-6.21h-1.54v9.66h1.54V84.8Z" transform="translate(0 -2.08)"/><path class="cls-2" d="M98.19,60.22H96.65v6.89h1.54V63a1.29,1.29,0,0,1,1.21-1.37h.15a1.31,1.31,0,0,1,1.34,1.28,1.21,1.21,0,0,1,0,.19v4.06h1.54V63.05a1.32,1.32,0,0,1,1.18-1.46h.19a1.3,1.3,0,0,1,1.34,1.26,1.48,1.48,0,0,1,0,.21v4.06h1.54V62.63a2.38,2.38,0,0,0-2.22-2.54h-.18a2.14,2.14,0,0,0-2.08,1.33A2.23,2.23,0,0,0,100,60.08a2,2,0,0,0-1.82,1v-.86Zm16.37,4a3.47,3.47,0,0,0,.1-.78,3.22,3.22,0,0,0-3.1-3.32h-.18a3.44,3.44,0,0,0-3.46,3.42v.16a3.46,3.46,0,0,0,3.3,3.6h.25a5.09,5.09,0,0,0,2.53-.67V65.11a4.4,4.4,0,0,1-2.41.75,2,2,0,0,1-2.1-1.68Zm-3.19-2.81a1.68,1.68,0,0,1,1.8,1.55v0h-3.71a1.86,1.86,0,0,1,1.91-1.62Zm6.09-1.15h-1.54v6.89h1.54v-4.1a1.39,1.39,0,0,1,1.29-1.47h.15a1.41,1.41,0,0,1,1.46,1.34,1.48,1.48,0,0,1,0,.21v4h1.54V62.74a2.46,2.46,0,0,0-2.25-2.65h-.25a2.07,2.07,0,0,0-1.93,1.12v-.94Zm8.13,6.89V61.54h1.25V60.22h-1.25V58.28l-1.46.33v1.61h-1.24v1.32h1.16v5.57Zm3.86-9.66h-1.54v9.66h1.54v-4.1a1.4,1.4,0,0,1,1.33-1.47h.13a1.4,1.4,0,0,1,1.45,1.35,1.34,1.34,0,0,1,0,.2v4h1.54V62.74a2.46,2.46,0,0,0-2.25-2.65h-.25a2.11,2.11,0,0,0-1.94,1.12V57.49Zm5.72,6.21a3.54,3.54,0,0,0,3.48,3.6h.1a3.54,3.54,0,0,0,3.58-3.5v-.1a3.53,3.53,0,0,0-3.46-3.58h-.12a3.51,3.51,0,0,0-3.58,3.44v.14Zm1.55,0a2,2,0,0,1,1.92-2.08h.08a2,2,0,0,1,2,2v.08a2,2,0,0,1-1.91,2.09h-.09a2,2,0,0,1-2-2Zm8.5-6.21h-1.54v9.66h1.54Z" transform="translate(0 -2.08)"/><path class="cls-2" d="M84.54,32.87H83v6.89h1.54Zm-1.72-2.1a.94.94,0,0,0,.93.95h0a.92.92,0,0,0,.94-.9v-.05a.94.94,0,0,0-.86-1h-.08a.93.93,0,0,0-1,.93ZM90,33a5.07,5.07,0,0,0-1.59-.28c-1.57,0-2.44.83-2.44,2a1.88,1.88,0,0,0,1,1.71l1.18.7c.43.25.59.48.59.76s-.34.71-1,.71A2.92,2.92,0,0,1,86,38v1.58a4.57,4.57,0,0,0,1.79.39c1.55,0,2.46-.84,2.46-2a2,2,0,0,0-1.15-1.82L88,35.45c-.34-.21-.52-.36-.52-.65a.81.81,0,0,1,.9-.68,3.05,3.05,0,0,1,1.55.49V33Zm1.27,3.3a3.55,3.55,0,0,0,3.5,3.6h.09a3.55,3.55,0,0,0,3.58-3.52V36.3A3.53,3.53,0,0,0,95,32.72h-.1a3.53,3.53,0,0,0-3.59,3.45Zm1.56,0a2,2,0,0,1,1.92-2.08h.08a2,2,0,0,1,2,2v.08a2,2,0,0,1-1.91,2.09h-.09a2,2,0,0,1-2-2Zm8.48-3.44H99.8v9.76h1.54v-4a2.7,2.7,0,0,0,2.35,1.27A3.4,3.4,0,0,0,107,36.41v-.09a3.37,3.37,0,0,0-3.16-3.58h-.19a2.6,2.6,0,0,0-2.35,1.34v-1.2Zm0,3.45a2,2,0,0,1,1.92-2.08h.14a2,2,0,0,1,2,2v.07a2,2,0,0,1-1.91,2.09h-.09a2.05,2.05,0,0,1-2.06-2V36.3Zm11.44,3.44h1.53V32.86h-1.53v4.06a1.41,1.41,0,0,1-1.35,1.47h-.11A1.41,1.41,0,0,1,109.84,37a1.34,1.34,0,0,1,0-.2v-4h-1.54V37.2a2.46,2.46,0,0,0,2.25,2.65h.24a2.09,2.09,0,0,0,2-1.12v1Zm4.87-9.66h-1.54v9.66h1.54V30.1Zm8,6.73a2.93,2.93,0,0,0,.1-.78,3.2,3.2,0,0,0-3.08-3.32h-.19A3.43,3.43,0,0,0,119,36.15v.16a3.46,3.46,0,0,0,3.3,3.6h.24a5.15,5.15,0,0,0,2.52-.63V37.76a4.4,4.4,0,0,1-2.41.75,2,2,0,0,1-2.1-1.68ZM122.44,34a1.69,1.69,0,0,1,1.81,1.56v.06h-3.71A1.85,1.85,0,0,1,122.44,34Zm9.81-1.15V34a2.74,2.74,0,0,0-2.39-1.26,3.32,3.32,0,0,0-3.28,3.35v.15a3.3,3.3,0,0,0,3.11,3.47h.18a2.79,2.79,0,0,0,2.38-1.23v.8a2,2,0,0,1-1.93,2.07h-.24a4.49,4.49,0,0,1-2.36-.73v1.61a5.22,5.22,0,0,0,2.36.56,3.38,3.38,0,0,0,3.71-3,3.64,3.64,0,0,0,0-.66V32.88Zm-.08,3.35a1.94,1.94,0,0,1-1.88,2h-.12a1.94,1.94,0,0,1-2-1.88V36.2a1.94,1.94,0,0,1,1.88-2h.12a1.94,1.94,0,0,1,2,1.88Zm3,.09a3.54,3.54,0,0,0,3.48,3.6h.1a3.54,3.54,0,0,0,3.58-3.5v-.1a3.53,3.53,0,0,0-3.46-3.58h-.12a3.51,3.51,0,0,0-3.58,3.44Zm1.55,0a2,2,0,0,1,1.92-2.08h.08a2,2,0,0,1,2,2v.08a2,2,0,0,1-1.91,2.09h-.09a2,2,0,0,1-2-2v-.09Zm8.5-6.21h-1.54v9.66h1.54V30.08Z" transform="translate(0 -2.08)"/><path class="cls-2" d="M172.13,368H178v-1.53h-2v-8h-3.57V360h2v6.47h-2.29V368Zm10.18-8.09a1.67,1.67,0,0,1,1.74,1.61.67.67,0,0,1,0,.2v3a1.75,1.75,0,1,1-3.49.26,1.13,1.13,0,0,1,0-.26v-3a1.69,1.69,0,0,1,1.54-1.81Zm0-1.57a3.24,3.24,0,0,0-3.34,3.14v3.33a3.34,3.34,0,0,0,6.67.37,2.28,2.28,0,0,0,0-.37v-3.13a3.23,3.23,0,0,0-3.12-3.34Zm6,9.66h1.9l2.79-4.3a3.67,3.67,0,0,0,.63-2,3.37,3.37,0,1,0-3.39,3.35h.1l-2,2.94Zm.14-6.29a1.74,1.74,0,1,1,3.48,0h0a1.74,1.74,0,1,1-3.48,0Z" transform="translate(0 -2.08)"/><path class="cls-2" d="M181.49,340.61h5.82v-1.53h-1.95v-8h-3.57v1.52h2v6.47h-2.28v1.53Zm6.55,0h5.82v-1.53h-1.94v-8h-3.57v1.52h2v6.47H188v1.53Z" transform="translate(0 -2.08)"/><path class="cls-2" d="M179.37,256.61v-1.52h-1.22V249h-1.59l-4.2,6.2v1.37h4.2v1.95h1.59v-1.95Zm-5.32-1.52,2.51-3.77v3.77Zm13.08,1.52v-1.52h-1.22V249h-1.59l-4.2,6.2v1.37h4.2v1.95h1.59v-1.95Zm-5.32-1.52,2.51-3.77v3.77Zm6.36,3.47h5.23V257h-3.19l2.13-2.69a4.17,4.17,0,0,0,1.09-2.76,2.62,2.62,0,0,0-2.56-2.69,2,2,0,0,0-.35,0,3.83,3.83,0,0,0-2.17.71v1.81a2.84,2.84,0,0,1,2.06-.93,1.28,1.28,0,0,1,1.38,1.17v.2a3.09,3.09,0,0,1-.85,1.82l-2.77,3.51v1.4Z" transform="translate(0 -2.08)"/><path class="cls-2" d="M180.77,227h1.36a1.37,1.37,0,0,1,1.49,1.23.41.41,0,0,1,0,.11,1.45,1.45,0,0,1-1.48,1.4h-.1a3.08,3.08,0,0,1-2-.69v1.82a5.38,5.38,0,0,0,2.09.46,2.88,2.88,0,0,0,3.12-2.62.61.61,0,0,0,0-.14,2.42,2.42,0,0,0-1.48-2.33,2.26,2.26,0,0,0,1.21-2.14,2.66,2.66,0,0,0-2.72-2.59h-.22a4.44,4.44,0,0,0-1.9.43v1.73a3.14,3.14,0,0,1,1.85-.57,1.19,1.19,0,0,1,1.33,1.05.66.66,0,0,1,0,.14,1.15,1.15,0,0,1-1.15,1.17h-1.44V227Zm9.23-3.92a1.67,1.67,0,0,1,1.74,1.61.67.67,0,0,1,0,.2v3a1.75,1.75,0,1,1-3.49.26,1.13,1.13,0,0,1,0-.26v-3a1.69,1.69,0,0,1,1.54-1.81Zm0-1.57a3.24,3.24,0,0,0-3.35,3.13V228a3.34,3.34,0,0,0,6.68,0h0v-3.13a3.23,3.23,0,0,0-3.12-3.34H190Z" transform="translate(0 -2.08)"/><path class="cls-2" d="M181.66,203.86h5.23v-1.53H183.7l2.13-2.69a4.17,4.17,0,0,0,1.09-2.76,2.63,2.63,0,0,0-2.56-2.7l-.36,0a3.83,3.83,0,0,0-2.17.71v1.81a2.84,2.84,0,0,1,2.06-.93,1.28,1.28,0,0,1,1.38,1.17v.2a3.09,3.09,0,0,1-.85,1.82l-2.77,3.51v1.37Zm6.51,0h5.23v-1.53h-3.19l2.13-2.69a4.17,4.17,0,0,0,1.09-2.76,2.62,2.62,0,0,0-2.56-2.69,2,2,0,0,0-.35,0,3.83,3.83,0,0,0-2.17.71v1.81a2.84,2.84,0,0,1,2.06-.93,1.28,1.28,0,0,1,1.38,1.17v.2a3.09,3.09,0,0,1-.85,1.82l-2.77,3.51v1.37Z" transform="translate(0 -2.08)"/><path class="cls-2" d="M192.17,167h-1.91l-2.73,4.25a3.9,3.9,0,0,0-.61,2.05,3.37,3.37,0,1,0,6.73.37,2.29,2.29,0,0,0,0-.37,3.24,3.24,0,0,0-3.2-3.28h-.28l2-3Zm-.14,6.3a1.75,1.75,0,1,1-3.49.26,1.13,1.13,0,0,1,0-.26A1.75,1.75,0,1,1,192,173,1.13,1.13,0,0,1,192,173.3Z" transform="translate(0 -2.08)"/><path class="cls-2" d="M187.66,142.11a2.18,2.18,0,0,0,1.09,2,2.5,2.5,0,0,0-1.41,2.33,3.09,3.09,0,0,0,6.17,0,2.48,2.48,0,0,0-1.42-2.31,2.26,2.26,0,0,0,1.1-2,2.77,2.77,0,0,0-5.53,0Zm1.2,4.26a1.57,1.57,0,1,1,1.62,1.52h-.06a1.52,1.52,0,0,1-1.56-1.48Zm.31-4.26a1.26,1.26,0,1,1,1.14,1.14A1.26,1.26,0,0,1,189.17,142.11Z" transform="translate(0 -2.08)"/><path class="cls-2" d="M181.51,121.81h5.83v-1.53h-2v-8h-3.57v1.52h2v6.47h-2.29v1.53Zm7.49-4.17h1.36a1.37,1.37,0,0,1,1.49,1.23.41.41,0,0,1,0,.11,1.45,1.45,0,0,1-1.5,1.4h-.09a3,3,0,0,1-2-.69v1.82a5.3,5.3,0,0,0,2.08.46,2.88,2.88,0,0,0,3.13-2.61s0-.1,0-.15a2.42,2.42,0,0,0-1.49-2.33,2.26,2.26,0,0,0,1.22-2.14,2.66,2.66,0,0,0-2.72-2.59h-.22a4.44,4.44,0,0,0-1.9.43v1.73a3.14,3.14,0,0,1,1.85-.57,1.19,1.19,0,0,1,1.33,1.05.66.66,0,0,1,0,.14,1.15,1.15,0,0,1-1.15,1.17H189Z" transform="translate(0 -2.08)"/><path class="cls-2" d="M182.48,90.29h1.36a1.37,1.37,0,0,1,1.49,1.23.41.41,0,0,1,0,.11A1.45,1.45,0,0,1,183.82,93h-.07a3,3,0,0,1-2-.69v1.82a5.3,5.3,0,0,0,2.08.46A2.88,2.88,0,0,0,187,92c0-.06,0-.11,0-.17a2.42,2.42,0,0,0-1.48-2.33,2.26,2.26,0,0,0,1.21-2.14A2.66,2.66,0,0,0,184,84.79h-.22a4.44,4.44,0,0,0-1.9.43V87a3.14,3.14,0,0,1,1.85-.57,1.19,1.19,0,0,1,1.33,1,.66.66,0,0,1,0,.14,1.15,1.15,0,0,1-1.15,1.17h-1.44v1.5Zm5.69,4.17h5.23V92.93h-3.19l2.13-2.69a4.17,4.17,0,0,0,1.09-2.76,2.62,2.62,0,0,0-2.56-2.69,2,2,0,0,0-.35,0,3.83,3.83,0,0,0-2.17.71v1.81a2.84,2.84,0,0,1,2.06-.93,1.28,1.28,0,0,1,1.38,1.17v.2a3.09,3.09,0,0,1-.85,1.82l-2.77,3.51v1.37Z" transform="translate(0 -2.08)"/><g class="cls-5"><path class="cls-1" d="M75.82,11.42a5.06,5.06,0,0,1-2.18.49A4.81,4.81,0,0,1,68.74,7a4.82,4.82,0,0,1,4.9-4.92,5.06,5.06,0,0,1,2.18.49V4.85a3.34,3.34,0,0,0-2.18-.78A2.87,2.87,0,0,0,70.79,7a2.85,2.85,0,0,0,2.85,2.92,3.32,3.32,0,0,0,2.18-.77Z" transform="translate(0 -2.08)"/></g><g class="cls-5"><path class="cls-1" d="M81.64,2.08A4.82,4.82,0,0,1,86.55,7a4.91,4.91,0,1,1-9.81,0A4.82,4.82,0,0,1,81.64,2.08Zm0,7.84A2.85,2.85,0,0,0,84.49,7a2.85,2.85,0,1,0-5.7,0A2.85,2.85,0,0,0,81.64,9.92Z" transform="translate(0 -2.08)"/><path class="cls-1" d="M92.26,11.76,90,5.82v5.94h-2V2.23h2.44l2.65,7,2.63-7H98.2v9.53h-2V5.82L94,11.76Z" transform="translate(0 -2.08)"/><path class="cls-1" d="M100.29,2.23h3.25a2.89,2.89,0,0,1,3.14,3,2.88,2.88,0,0,1-3.14,3h-1.26v3.49h-2Zm3.22,1.92h-1.23v2.2h1.23a1,1,0,0,0,1.12-1.09A1,1,0,0,0,103.51,4.15Z" transform="translate(0 -2.08)"/><path class="cls-1" d="M112.43,2.08A4.81,4.81,0,0,1,117.33,7a4.9,4.9,0,1,1-9.8,0A4.81,4.81,0,0,1,112.43,2.08Zm0,7.84A2.85,2.85,0,0,0,115.27,7a2.85,2.85,0,1,0-5.7,0A2.86,2.86,0,0,0,112.43,9.92Z" transform="translate(0 -2.08)"/><path class="cls-1" d="M126,2.23V8.17a3.64,3.64,0,1,1-7.27,0V2.23h2V8.34a1.65,1.65,0,0,0,3.29,0V2.23Z" transform="translate(0 -2.08)"/><path class="cls-1" d="M130,6.25v5.51h-2V3.42l-.66-1V2.23h2.36l4.17,6.07V2.23h2v9.53h-2Z" transform="translate(0 -2.08)"/><path class="cls-1" d="M138,2.23h3.53A4.47,4.47,0,0,1,146.24,7a4.46,4.46,0,0,1-4.7,4.76H138Zm2,1.92V9.84h1.53A2.58,2.58,0,0,0,144.18,7a2.59,2.59,0,0,0-2.66-2.85Z" transform="translate(0 -2.08)"/></g><g class="cls-5"><path class="cls-1" d="M171.58,5.79a2.39,2.39,0,0,1,2.15-1.15,3.4,3.4,0,0,1,3.32,3.63,3.4,3.4,0,0,1-3.34,3.64,2.55,2.55,0,0,1-2.13-1.05v3.77h-1.9V4.78h1.9ZM173.33,10a1.76,1.76,0,1,0-1.75-1.77A1.74,1.74,0,0,0,173.33,10Z" transform="translate(0 -2.08)"/><path class="cls-1" d="M180.14,5.79a2.37,2.37,0,0,1,2.14-1.15,3.39,3.39,0,0,1,3.32,3.63,3.4,3.4,0,0,1-3.33,3.64,2.54,2.54,0,0,1-2.13-1.05v3.77h-1.91V4.78h1.91ZM181.89,10a1.76,1.76,0,1,0-1.75-1.77A1.74,1.74,0,0,0,181.89,10Z" transform="translate(0 -2.08)"/><path class="cls-1" d="M188.69,5.61a2.05,2.05,0,0,1,1.78-1,2.25,2.25,0,0,1,2.14,1.26,2.17,2.17,0,0,1,2.06-1.26,2.43,2.43,0,0,1,2.4,2.57v4.55h-1.91v-4A1.1,1.1,0,0,0,194,6.51a1.13,1.13,0,0,0-1.16,1.24v4H191v-4a1.14,1.14,0,1,0-2.28-.09v4.1h-1.9v-7h1.9Z" transform="translate(0 -2.08)"/></g><g class="cls-5"><path class="cls-1" d="M278.6,2.08A4.82,4.82,0,0,1,283.51,7a4.87,4.87,0,0,1-.91,2.88l.92.91-1.36,1.36-1-1a5,5,0,0,1-2.6.72A4.81,4.81,0,0,1,273.7,7,4.82,4.82,0,0,1,278.6,2.08Zm0,7.84a2.16,2.16,0,0,0,1.06-.26L278.31,8.3l1.36-1.37,1.41,1.43A2.56,2.56,0,0,0,281.45,7a2.85,2.85,0,1,0-5.7,0A2.85,2.85,0,0,0,278.6,9.92Z" transform="translate(0 -2.08)"/><path class="cls-1" d="M292.31,2.23V8.17a3.64,3.64,0,1,1-7.27,0V2.23h2V8.34a1.65,1.65,0,0,0,3.29,0V2.23Z" transform="translate(0 -2.08)"/></g><g class="cls-5"><path class="cls-1" d="M299.34,9.73h-3.4l-.72,2H293l3.53-9.53h2.23l3.53,9.53h-2.23Zm-2.75-1.92h2.11l-1.06-3Z" transform="translate(0 -2.08)"/><path class="cls-1" d="M305.33,6.25v5.51h-2V3.42l-.66-1V2.23H305l4.17,6.07V2.23h2v9.53h-2Z" transform="translate(0 -2.08)"/><path class="cls-1" d="M314.83,4.15h-2.31V2.23h6.62V4.15h-2.32v7.61h-2Z" transform="translate(0 -2.08)"/><path class="cls-1" d="M320.46,2.23h2v9.53h-2Z" transform="translate(0 -2.08)"/></g><g class="cls-5"><path class="cls-1" d="M326.08,4.15h-2.31V2.23h6.61V4.15h-2.31v7.61h-2Z" transform="translate(0 -2.08)"/><path class="cls-1" d="M335.79,9.73h-3.41l-.71,2h-2.23L333,2.23h2.23l3.53,9.53H336.5ZM333,7.81h2.1l-1.05-3Z" transform="translate(0 -2.08)"/></g><g class="cls-5"><path class="cls-1" d="M341.23,4.15h-2.31V2.23h6.61V4.15h-2.31v7.61h-2Z" transform="translate(0 -2.08)"/><path class="cls-1" d="M346.86,2.23h2v9.53h-2Z" transform="translate(0 -2.08)"/><path class="cls-1" d="M349.84,2.23h2.23l2.42,7.22,2.41-7.22h2.23l-3.53,9.53h-2.23Z" transform="translate(0 -2.08)"/><path class="cls-1" d="M360.13,11.76V2.23h5.42V4.15h-3.43V6h3.15V7.92h-3.15V9.84h3.43v1.92Z" transform="translate(0 -2.08)"/><path class="cls-1" d="M370.39,2.23h3.25a2.89,2.89,0,0,1,3.14,3,2.88,2.88,0,0,1-3.14,3h-1.26v3.49h-2Zm3.22,1.92h-1.23v2.2h1.23a1,1,0,0,0,1.12-1.09A1,1,0,0,0,373.61,4.15Z" transform="translate(0 -2.08)"/><path class="cls-1" d="M378.22,2.23h3.29c1.86,0,3.15,1,3.15,2.78a2.34,2.34,0,0,1-1.72,2.41c1.19.61,1.9,2.29,2.13,4.34H383c-.34-2.07-1.15-3.54-2.31-3.54h-.49v3.54h-2Zm3.29,1.92h-1.3V6.3h1.3a1,1,0,0,0,1.11-1.07A1,1,0,0,0,381.51,4.15Z" transform="translate(0 -2.08)"/><path class="cls-1" d="M390.72,2.08A4.81,4.81,0,0,1,395.62,7a4.9,4.9,0,1,1-9.8,0A4.81,4.81,0,0,1,390.72,2.08Zm0,7.84A2.86,2.86,0,0,0,393.57,7a2.86,2.86,0,1,0-5.71,0A2.86,2.86,0,0,0,390.72,9.92Z" transform="translate(0 -2.08)"/><path class="cls-1" d="M399.12,8.33v3.43h-2V2.23h5.42V4.15h-3.43V6.41h3.15V8.33Z" transform="translate(0 -2.08)"/><path class="cls-1" d="M404.19,2.23h2v9.53h-2Z" transform="translate(0 -2.08)"/><path class="cls-1" d="M408.28,11.76V2.23h2V9.84h3.44v1.92Z" transform="translate(0 -2.08)"/><path class="cls-1" d="M415,11.76V2.23h5.42V4.15H417V6h3.16V7.92H417V9.84h3.44v1.92Z" transform="translate(0 -2.08)"/></g><path class="cls-2" d="M148.3,421.23h-.68v8.23h.68v-3.82a2.58,2.58,0,0,0,2.41,1.48,3,3,0,1,0,0-6,2.58,2.58,0,0,0-2.41,1.51v-1.39Zm0,2.88a2.31,2.31,0,1,1,2.31,2.34,2.28,2.28,0,0,1-2.31-2.25Zm7.42-2.88H155v8.23h.68v-3.82a2.61,2.61,0,0,0,2.4,1.48,3,3,0,1,0,0-6,2.55,2.55,0,0,0-2.4,1.51v-1.39Zm0,2.88a2.31,2.31,0,1,1,4.61-.3,1.5,1.5,0,0,1,0,.3,2.31,2.31,0,1,1-4.61.3A1.5,1.5,0,0,1,155.72,424.11Zm7.42-2.88h-.69V427h.69v-3.68a1.43,1.43,0,0,1,1.31-1.54h.21a1.46,1.46,0,0,1,1.51,1.41,1.62,1.62,0,0,1,0,.22V427h.68v-3.59a1.52,1.52,0,1,1,3-.49,1.35,1.35,0,0,1,0,.49V427h.68v-3.72a2,2,0,0,0-1.82-2.16h-.24a1.77,1.77,0,0,0-1.8,1.27,1.91,1.91,0,0,0-1.91-1.27,1.71,1.71,0,0,0-1.65,1v-.85Zm14.66-1.83a1.91,1.91,0,0,1,2,1.82v3.18a2,2,0,1,1-3.93.75,1.89,1.89,0,0,1,0-.75v-3a1.91,1.91,0,0,1,1.82-2h.11Zm0-.68a2.58,2.58,0,0,0-2.65,2.51v3.21a2.66,2.66,0,1,0,5.31.33,1.82,1.82,0,0,0,0-.33v-3.05a2.6,2.6,0,0,0-2.51-2.67Zm4.12,7.81a.59.59,0,1,0,.59-.59h0a.57.57,0,0,0-.58.56Zm5.3-7.13a1.91,1.91,0,0,1,2,1.82v3.18a2,2,0,1,1-3.93.75,1.89,1.89,0,0,1,0-.75v-3a1.91,1.91,0,0,1,1.82-2h.11Zm0-.68a2.58,2.58,0,0,0-2.65,2.51v3.21a2.66,2.66,0,1,0,5.31.33,1.82,1.82,0,0,0,0-.33v-3.05a2.6,2.6,0,0,0-2.51-2.67Zm7,.68a1.9,1.9,0,0,1,2,1.79v3.21a2,2,0,0,1-3.92.8,2.15,2.15,0,0,1,0-.8v-3a1.9,1.9,0,0,1,1.79-2h.13Zm0-.68a2.59,2.59,0,0,0-2.65,2.53v3.19a2.66,2.66,0,0,0,5.32,0v-3.05a2.6,2.6,0,0,0-2.53-2.67Z" transform="translate(0 -2.08)"/><path class="cls-2" d="M309.09,427h4.65v-.65h-1.81v-7.51h-2.67v.64h2v6.87h-2.15V427Zm8.39-7.6a1.91,1.91,0,0,1,2,1.82v3.18a2,2,0,1,1-3.93.75,1.89,1.89,0,0,1,0-.75v-3a1.91,1.91,0,0,1,1.82-2h.11Zm0-.68a2.59,2.59,0,0,0-2.66,2.52v3.2a2.66,2.66,0,0,0,5.32,0h0v-3.05a2.6,2.6,0,0,0-2.51-2.67Zm7,.68a1.91,1.91,0,0,1,2,1.82v3.18a2,2,0,1,1-3.93.75,1.89,1.89,0,0,1,0-.75v-3a1.91,1.91,0,0,1,1.82-2h.11Zm0-.68a2.58,2.58,0,0,0-2.65,2.51v3.21a2.66,2.66,0,1,0,5.31.33,1.82,1.82,0,0,0,0-.33v-3.05a2.6,2.6,0,0,0-2.51-2.67Zm4.12,7.81a.59.59,0,1,0,.59-.59h0a.57.57,0,0,0-.58.56Zm5.3-7.13a1.91,1.91,0,0,1,2,1.82v3.18a2,2,0,1,1-3.93.75,1.89,1.89,0,0,1,0-.75v-3a1.91,1.91,0,0,1,1.82-2h.11Zm0-.68a2.58,2.58,0,0,0-2.65,2.51v3.21a2.66,2.66,0,1,0,5.31.33,1.82,1.82,0,0,0,0-.33v-3.05a2.6,2.6,0,0,0-2.51-2.67Zm7,.68a1.9,1.9,0,0,1,2,1.79v3.21a2,2,0,1,1-3.92.8,2.15,2.15,0,0,1,0-.8v-3a1.9,1.9,0,0,1,1.79-2h.13Zm0-.68a2.59,2.59,0,0,0-2.65,2.53v3.19a2.66,2.66,0,0,0,5.32,0h0v-3.05a2.6,2.6,0,0,0-2.53-2.67Z" transform="translate(0 -2.08)"/><path class="cls-4" d="M0,857.46H461.4m-.5-.5V501.06M199.29,857V501.06M330.5,857V501.06M0,500.56H461.4" transform="translate(0 -2.08)"/><path class="cls-2" d="M60.31,848.76v-5.57h1.24v-1.32H60.31v-1.94l-1.46.33v1.61H57.61v1.32h1.16v5.57Zm3.86-6.89H62.63v6.89h1.54V844.7a1.34,1.34,0,0,1,1.2-1.46h.15a2.39,2.39,0,0,1,.92.18v-1.64h-.57a1.86,1.86,0,0,0-1.7,1v-.9Zm3.46,1.78a3.43,3.43,0,0,1,1.81-.55,1.31,1.31,0,0,1,1.44,1.15,1.77,1.77,0,0,1,0,.23v.57a2.35,2.35,0,0,0-1.65-.66,2.26,2.26,0,0,0-2.37,2.13v.12A2.2,2.2,0,0,0,69,848.91h.22a2.07,2.07,0,0,0,1.68-.78v.63h1.54V844.5a2.51,2.51,0,0,0-2.19-2.78,2.66,2.66,0,0,0-.63,0,4.93,4.93,0,0,0-2,.43v1.49Zm.76,3a1.17,1.17,0,0,1,1.23-1.12,1.2,1.2,0,0,1,1.25,1.12,1.25,1.25,0,0,1-2.48,0Zm7.26-4.77H74.11v6.89h1.54V844.7a1.45,1.45,0,1,1,2.9.08v4h1.54v-4.37a2.46,2.46,0,0,0-2.25-2.65h-.26a2.11,2.11,0,0,0-1.93,1.12v-1Zm9.86.14a5.18,5.18,0,0,0-1.6-.28c-1.56,0-2.43.83-2.43,2a1.88,1.88,0,0,0,1,1.71l1.18.7c.43.25.59.48.59.76s-.34.71-1,.71a2.85,2.85,0,0,1-1.7-.64v1.58a4.57,4.57,0,0,0,1.79.39c1.55,0,2.46-.84,2.46-2a2,2,0,0,0-1.15-1.82l-1.1-.66c-.34-.21-.52-.36-.52-.65a.81.81,0,0,1,.89-.68,3.06,3.06,0,0,1,1.56.49V842Zm5.18,3.47V844H87v1.44Zm3.2-3.61H92.36v6.89h1.53V844.7a1.45,1.45,0,1,1,2.9.08h0v4h1.54v-4.37a2.46,2.46,0,0,0-2.25-2.65h-.25a2.1,2.1,0,0,0-1.94,1.12v-1Zm12.35,4a2.93,2.93,0,0,0,.1-.78,3.2,3.2,0,0,0-3.08-3.32h-.2a3.59,3.59,0,1,0,.09,7.18,5.15,5.15,0,0,0,2.52-.63v-1.52a4.4,4.4,0,0,1-2.41.75,2,2,0,0,1-2.1-1.68ZM103.05,843a1.69,1.69,0,0,1,1.81,1.56v.06h-3.71A1.85,1.85,0,0,1,103.05,843Zm6.09-1.15H107.6v6.89h1.54v-4a1.31,1.31,0,0,1,1.34-1.47,2.44,2.44,0,0,1,.93.18v-1.64h-.58a1.85,1.85,0,0,0-1.69,1v-.92Zm2.74,3.44a3.59,3.59,0,1,0,3.6-3.58h0a3.55,3.55,0,0,0-3.59,3.51Zm1.56,0a2,2,0,1,1,0,.09Zm8.5-6.21H120.4v9.66h1.54v-9.66Zm3.3,2.77H123.7v6.89h1.54v-6.89Zm-1.72-2.1a.94.94,0,0,0,.88,1h.12a1,1,0,0,0,.64-1.26,1,1,0,0,0-.64-.64.94.94,0,0,0-1,.88v0Zm8.78,9h1.52V839.1H132.3V843a2.74,2.74,0,0,0-2.36-1.26,3.6,3.6,0,0,0,0,7.18,2.79,2.79,0,0,0,2.37-1.27v1.1Zm0-3.45a2.06,2.06,0,0,1-4.12,0h0a2.06,2.06,0,0,1,4.12,0Zm2.87,0a3.58,3.58,0,1,0,3.58-3.58,3.53,3.53,0,0,0-3.58,3.5Zm1.55,0a2,2,0,1,1,0,.09v-.09Zm8.5-6.21h-1.54v9.66h1.54V839.1Z" transform="translate(0 -2.08)"/><path class="cls-2" d="M77,819.52a2.73,2.73,0,0,1-1.65.53,2.09,2.09,0,0,1,0-4.17,2.8,2.8,0,0,1,1.65.53v-1.65a3.77,3.77,0,0,0-1.65-.38,3.59,3.59,0,1,0,0,7.18h0a3.65,3.65,0,0,0,1.65-.4Zm3-5H78.46v6.89H80Zm-1.72-2.1a1,1,0,1,0,1-.95.93.93,0,0,0-1,.91Zm7.21,2.24a5.18,5.18,0,0,0-1.6-.28c-1.56,0-2.43.83-2.43,2a1.88,1.88,0,0,0,1,1.71l1.18.7c.43.25.59.48.59.76s-.34.71-1,.71a2.85,2.85,0,0,1-1.7-.64v1.58a4.57,4.57,0,0,0,1.79.39c1.55,0,2.46-.84,2.46-2a2,2,0,0,0-1.15-1.82l-1.1-.66c-.34-.21-.52-.36-.52-.65a.81.81,0,0,1,.89-.68,3.06,3.06,0,0,1,1.56.49v-1.55Zm5.18,3.47v-1.44H87v1.44Zm3.2-3.61H92.34v6.89h1.53v-4.06a1.45,1.45,0,1,1,2.9.08v4h1.54V817a2.46,2.46,0,0,0-2.25-2.65h-.25a2.1,2.1,0,0,0-1.94,1.12v-.94Zm12.35,4a2.93,2.93,0,0,0,.1-.78,3.2,3.2,0,0,0-3.08-3.32H103a3.59,3.59,0,1,0,.09,7.18,5.15,5.15,0,0,0,2.52-.63v-1.52a4.4,4.4,0,0,1-2.41.75,2,2,0,0,1-2.1-1.68ZM103,815.71a1.69,1.69,0,0,1,1.81,1.56v.06h-3.71A1.85,1.85,0,0,1,103,815.71Zm6.09-1.15H107.6v6.89h1.54v-4.06a1.31,1.31,0,0,1,1.34-1.47,2.44,2.44,0,0,1,.93.18v-1.64h-.58a1.85,1.85,0,0,0-1.69,1v-.84Zm2.74,3.44a3.59,3.59,0,1,0,3.6-3.58h0a3.55,3.55,0,0,0-3.59,3.51Zm1.56,0a2,2,0,1,1,0,.09Zm8.5-6.21H120.4v9.66h1.54v-9.66Zm3.3,2.77H123.7v6.89h1.54v-6.89Zm-1.72-2.1a.94.94,0,0,0,.88,1h.12a1,1,0,0,0,.64-1.26,1,1,0,0,0-.64-.64,1,1,0,0,0-1,.88v0Zm8.78,9h1.52V811.8h-1.5v3.89a2.74,2.74,0,0,0-2.36-1.26,3.6,3.6,0,0,0,0,7.18,2.79,2.79,0,0,0,2.37-1.27v1.12Zm0-3.45a2.06,2.06,0,0,1-4.12,0h0a2.06,2.06,0,0,1,4.12,0Zm2.87,0a3.58,3.58,0,1,0,3.58-3.58,3.54,3.54,0,0,0-3.58,3.5V818Zm1.55,0a2,2,0,1,1,0,.09Zm8.5-6.21h-1.54v9.66h1.54Z" transform="translate(0 -2.08)"/><path class="cls-2" d="M48,789a3.43,3.43,0,0,1,1.81-.55,1.31,1.31,0,0,1,1.44,1.15,1.77,1.77,0,0,1,0,.23v.57a2.35,2.35,0,0,0-1.65-.66,2.26,2.26,0,0,0-2.37,2.13V792a2.2,2.2,0,0,0,2.12,2.27h.22a2.07,2.07,0,0,0,1.68-.78v.63h1.54V789.8a2.5,2.5,0,0,0-2.16-2.8,2.22,2.22,0,0,0-.63,0,4.93,4.93,0,0,0-2,.43Zm.76,3A1.17,1.17,0,0,1,50,790.88,1.2,1.2,0,0,1,51.24,792a1.25,1.25,0,0,1-2.48,0ZM56,784.46H54.5v9.66H56v-9.66Zm3.3,2.77H57.8V797h1.54v-4a2.7,2.7,0,0,0,2.35,1.27,3.6,3.6,0,0,0,0-7.18,2.6,2.6,0,0,0-2.35,1.34v-1.2Zm0,3.45a2.05,2.05,0,1,1,2.06,2.08,2,2,0,0,1-2.06-1.94ZM68,784.4H66.46v9.66H68V790a1.45,1.45,0,0,1,2.9.08v4h1.54v-4.37a2.46,2.46,0,0,0-2.25-2.65h-.25A2.11,2.11,0,0,0,68,788.17ZM74.39,789a3.4,3.4,0,0,1,1.8-.55,1.3,1.3,0,0,1,1.44,1.14,1,1,0,0,1,0,.24v.57a2.39,2.39,0,0,0-1.66-.66,2.24,2.24,0,0,0-2.36,2.12v.13a2.18,2.18,0,0,0,2.1,2.27H76a2.09,2.09,0,0,0,1.69-.78v.63h1.53V789.8A2.47,2.47,0,0,0,77,787a2.29,2.29,0,0,0-.64,0,4.93,4.93,0,0,0-2,.43V789Zm.75,3a1.17,1.17,0,0,1,1.23-1.12A1.2,1.2,0,0,1,77.62,792a1.25,1.25,0,0,1-2.48,0Zm9.3-1.16v-1.44H80.79v1.44Zm3.2-6.38H86.11v9.66h1.53V790a1.45,1.45,0,0,1,2.9.08v4H92v-4.37a2.46,2.46,0,0,0-2.25-2.65H89.5a2.11,2.11,0,0,0-1.94,1.12V784.4Zm10.53,9.66H99.7v-6.89H98.17v4.06a1.45,1.45,0,1,1-2.9-.1v-4H93.74v4.38A2.46,2.46,0,0,0,96,794.17h.24a2.1,2.1,0,0,0,1.94-1.12v1Zm4.86-6.89h-1.54v6.89H103V789.9a1.29,1.29,0,0,1,1.21-1.37h.15a1.31,1.31,0,0,1,1.34,1.28,1.21,1.21,0,0,1,0,.19v4.06h1.54V790a1.32,1.32,0,0,1,1.18-1.46h.19a1.31,1.31,0,0,1,1.34,1.28,1.21,1.21,0,0,1,0,.19v4.06h1.54v-4.48a2.37,2.37,0,0,0-2.19-2.57H109a2.13,2.13,0,0,0-2.07,1.33A2.22,2.22,0,0,0,104.8,787a2,2,0,0,0-1.82,1v-.88Zm14.55,6.89h1.52v-6.89h-1.52v4.06a1.45,1.45,0,1,1-2.9-.1v-4h-1.54v4.38a2.46,2.46,0,0,0,2.25,2.65h.24a2.11,2.11,0,0,0,2-1.12v1Zm4.87-9.66h-1.54v9.66h1.54V784.4Zm8,6.73a3.47,3.47,0,0,0,.1-.78,3.2,3.2,0,0,0-3-3.36h-.32a3.59,3.59,0,0,0,.08,7.18h0a5.15,5.15,0,0,0,2.52-.63V792a4.36,4.36,0,0,1-2.4.75,2,2,0,0,1-2.1-1.68Zm-3.19-2.81a1.69,1.69,0,0,1,1.8,1.58v0h-3.71A1.86,1.86,0,0,1,127.26,788.33Zm6.08-1.15h-1.53v6.89h1.53V790a1.45,1.45,0,1,1,2.9.08v4h1.54v-4.37a2.44,2.44,0,0,0-2.23-2.65h-.27a2.1,2.1,0,0,0-1.94,1.12v-1Zm12.35,4a2.93,2.93,0,0,0,.1-.78,3.2,3.2,0,0,0-3.08-3.32h-.19a3.59,3.59,0,0,0,.08,7.18h0a5.15,5.15,0,0,0,2.52-.63v-1.52a4.4,4.4,0,0,1-2.41.75,2,2,0,0,1-2.1-1.68Zm-3.19-2.81a1.69,1.69,0,0,1,1.81,1.56V790H140.6A1.85,1.85,0,0,1,142.5,788.37Z" transform="translate(0 -2.08)"/><path class="cls-2" d="M42.46,759.82v1.12a2.74,2.74,0,0,0-2.39-1.26,3.5,3.5,0,0,0,0,7h0a2.79,2.79,0,0,0,2.38-1.23v.8a2,2,0,0,1-1.93,2.07h-.24a4.55,4.55,0,0,1-2.37-.73v1.61a5.26,5.26,0,0,0,2.37.56,3.37,3.37,0,0,0,3.72-3,3.14,3.14,0,0,0,0-.75v-6.22Zm-.08,3.35a2,2,0,1,1-2-2,1.94,1.94,0,0,1,2,1.88ZM46,761.6a3.43,3.43,0,0,1,1.81-.55,1.31,1.31,0,0,1,1.44,1.15,1.77,1.77,0,0,1,0,.23V763a2.35,2.35,0,0,0-1.65-.66,2.26,2.26,0,0,0-2.37,2.13v.12a2.2,2.2,0,0,0,2.12,2.27h.22a2.07,2.07,0,0,0,1.68-.78v.63h1.54v-4.26a2.48,2.48,0,0,0-2.17-2.77,2.29,2.29,0,0,0-.64,0,4.93,4.93,0,0,0-2,.43v1.49Zm.76,3A1.17,1.17,0,0,1,48,763.48a1.2,1.2,0,0,1,1.25,1.12,1.25,1.25,0,0,1-2.48,0ZM54,759.83H52.49v6.89H54v-4.16a1.28,1.28,0,0,1,1.18-1.37h.17a1.32,1.32,0,0,1,1.35,1.27,1.34,1.34,0,0,1,0,.2v4.06h1.53v-4.06a1.32,1.32,0,0,1,1.18-1.46h.2A1.31,1.31,0,0,1,61,762.47a1.21,1.21,0,0,1,0,.19v4.06h1.53v-4.48a2.38,2.38,0,0,0-2.2-2.54h-.2A2.14,2.14,0,0,0,58,761a2.21,2.21,0,0,0-2.16-1.33,2,2,0,0,0-1.82,1v-.86Zm11.68,0H64.18v6.89h1.53v-4.16a1.29,1.29,0,0,1,1.21-1.37h.15a1.32,1.32,0,0,1,1.35,1.27,1.34,1.34,0,0,1,0,.2v4.06H70v-4.06a1.32,1.32,0,0,1,1.18-1.46h.2a1.31,1.31,0,0,1,1.34,1.28,1.21,1.21,0,0,1,0,.19v4.06h1.53v-4.48A2.38,2.38,0,0,0,72,759.7h-.2A2.14,2.14,0,0,0,69.76,761a2.22,2.22,0,0,0-2.16-1.33,2,2,0,0,0-1.83,1v-.88Zm10.41,1.78a3.4,3.4,0,0,1,1.8-.55,1.3,1.3,0,0,1,1.44,1.14,1,1,0,0,1,0,.24V763a2.34,2.34,0,0,0-1.66-.66,2.24,2.24,0,0,0-2.36,2.12v.13a2.18,2.18,0,0,0,2.1,2.27h.23a2.09,2.09,0,0,0,1.69-.78v.63H80.9v-4.26a2.48,2.48,0,0,0-2.17-2.77,2.29,2.29,0,0,0-.64,0,4.93,4.93,0,0,0-2,.43v1.49Zm.75,3a1.25,1.25,0,0,1,1.1-1.38,1.25,1.25,0,0,1,.28,2.48h-.14A1.18,1.18,0,0,1,76.87,764.61Zm9.3-1.16V762H82.51v1.44Zm3.71,3.28v-5.57h1.24v-1.32H89.88V757.9l-1.46.33v1.61H87.18v1.32h1.16v5.57Zm8.43-2.93a3.46,3.46,0,0,0,.09-.78,3.2,3.2,0,0,0-3.08-3.32h-.19a3.59,3.59,0,0,0,.08,7.18h0a5.15,5.15,0,0,0,2.52-.63v-1.52a4.36,4.36,0,0,1-2.4.75,2,2,0,0,1-2.1-1.68ZM95.16,761a1.69,1.69,0,0,1,1.8,1.58v0H93.25A1.86,1.86,0,0,1,95.16,761Zm6.08-1.15H99.71v6.89h1.53v-4.06a1.34,1.34,0,0,1,1.2-1.46h.15a2.39,2.39,0,0,1,.92.18v-1.64h-.57a1.88,1.88,0,0,0-1.7,1v-.9Zm4.9,0h-1.53v9.76h1.53v-4a2.68,2.68,0,0,0,2.36,1.27,3.6,3.6,0,0,0,0-7.18,2.59,2.59,0,0,0-2.36,1.34v-1.2Zm0,3.45a2.06,2.06,0,1,1,2.06,2.08,2,2,0,0,1-2.06-1.94Zm8.59-3.45h-1.54v6.89h1.54Zm-1.72-2.1a.93.93,0,0,0,.91,1h0a1,1,0,0,0,.64-1.26,1,1,0,0,0-.64-.64.93.93,0,0,0-.95.93v0Zm5,2.1h-1.54v6.89H118v-4.06a1.4,1.4,0,0,1,1.31-1.47h.13a1.42,1.42,0,0,1,1.47,1.35,1.34,1.34,0,0,1,0,.2v4h1.54v-4.37a2.46,2.46,0,0,0-2.25-2.65h-.26A2.11,2.11,0,0,0,118,760.8v-.95Zm12.35,4a3.47,3.47,0,0,0,.1-.78,3.2,3.2,0,0,0-3.08-3.32h-.2a3.59,3.59,0,0,0,.08,7.18,5.15,5.15,0,0,0,2.52-.63v-1.52a4.36,4.36,0,0,1-2.4.75,2,2,0,0,1-2.1-1.68ZM127.19,761a1.69,1.69,0,0,1,1.8,1.58v0h-3.71A1.86,1.86,0,0,1,127.19,761Zm6.08-1.15h-1.53v6.89h1.53v-4.06a1.45,1.45,0,0,1,2.9.08h0v4h1.54v-4.37a2.44,2.44,0,0,0-2.23-2.65h-.27a2.1,2.1,0,0,0-1.94,1.12v-1Zm12.35,4a2.93,2.93,0,0,0,.1-.78,3.2,3.2,0,0,0-3.08-3.32h-.19a3.59,3.59,0,0,0,.08,7.18,5.15,5.15,0,0,0,2.52-.63v-1.52a4.4,4.4,0,0,1-2.41.75,2,2,0,0,1-2.1-1.68ZM142.43,761a1.69,1.69,0,0,1,1.81,1.56v.06h-3.71A1.85,1.85,0,0,1,142.43,761Z" transform="translate(0 -2.08)"/><path class="cls-2" d="M47,737.47a2.73,2.73,0,0,1-1.65.53,2.09,2.09,0,0,1,0-4.17,2.8,2.8,0,0,1,1.65.53v-1.65a3.77,3.77,0,0,0-1.65-.38,3.59,3.59,0,1,0,0,7.18h0a3.65,3.65,0,0,0,1.65-.4Zm3-5H48.46v6.89H50Zm-1.72-2.1a1,1,0,0,0,1,.9,1,1,0,0,0-.05-1.9.93.93,0,0,0-.95.91Zm7.21,2.24a5.18,5.18,0,0,0-1.6-.28c-1.57,0-2.43.83-2.43,2a1.88,1.88,0,0,0,1,1.71l1.18.7c.43.25.58.48.58.76s-.33.71-1,.71a3,3,0,0,1-1.71-.64v1.58a4.57,4.57,0,0,0,1.79.39c1.56,0,2.47-.84,2.47-2a2,2,0,0,0-1.15-1.82l-1.1-.66c-.34-.21-.52-.36-.52-.65a.8.8,0,0,1,.89-.68,3.06,3.06,0,0,1,1.56.49v-1.55Zm5.18,3.47v-1.44H57v1.44Zm3.2,2.16a2.73,2.73,0,0,0,2.37,1.27,3.6,3.6,0,0,0,0-7.18,2.69,2.69,0,0,0-2.36,1.26V729.7H62.34v9.66h1.54v-1.12Zm0-2.33A2.06,2.06,0,1,1,66,738a2,2,0,0,1-2.06-1.94v-.15Zm13.26.52a2.93,2.93,0,0,0,.1-.78,3.2,3.2,0,0,0-3.08-3.32H74a3.59,3.59,0,1,0,.09,7.18,5.15,5.15,0,0,0,2.52-.63v-1.52a4.4,4.4,0,0,1-2.41.75,2,2,0,0,1-2.1-1.68ZM74,733.62a1.69,1.69,0,0,1,1.81,1.56v.06H72.1A1.85,1.85,0,0,1,74,733.62Zm6.56,5.74v-5.57h1.25v-1.32H80.56v-1.94l-1.45.33v1.61H77.86v1.32H79v5.57Zm2.52-5.11a3.43,3.43,0,0,1,1.81-.55,1.31,1.31,0,0,1,1.44,1.15,1.77,1.77,0,0,1,0,.23v.57a2.35,2.35,0,0,0-1.65-.66,2.24,2.24,0,0,0-2.36,2.12v.13a2.18,2.18,0,0,0,2.1,2.27h.23a2.07,2.07,0,0,0,1.68-.78v.63h1.54V735.1a2.47,2.47,0,0,0-2.17-2.77,2.29,2.29,0,0,0-.64,0,4.93,4.93,0,0,0-2,.43v1.49Zm.76,3a1.17,1.17,0,0,1,1.23-1.12,1.2,1.2,0,0,1,1.25,1.12,1.25,1.25,0,0,1-2.48,0Zm9.3-1.16v-1.44H89.48v1.44Zm1.24-.17a3.59,3.59,0,1,0,3.6-3.58h0a3.55,3.55,0,0,0-3.59,3.51Zm1.56,0a2,2,0,0,1,1.92-2.08h.08a2.09,2.09,0,0,1,0,4.17,2,2,0,0,1-2-2v-.09Zm11.8,1.56a2.73,2.73,0,0,1-1.65.53,2.09,2.09,0,0,1,0-4.17,2.8,2.8,0,0,1,1.65.53v-1.65a3.77,3.77,0,0,0-1.65-.38,3.59,3.59,0,1,0,0,7.18h0a3.65,3.65,0,0,0,1.65-.4Zm3-5H109.2v6.89h1.54Zm-1.72-2.1a1,1,0,0,0,1,.9,1,1,0,0,0,0-1.9.93.93,0,0,0-1,.91Zm5,2.1h-1.54v6.89H114V735.2a1.35,1.35,0,0,1,2.7-.11,1.48,1.48,0,0,1,0,.21v4.06h1.54V735.3a1.32,1.32,0,0,1,1.18-1.46h.19a1.3,1.3,0,0,1,1.34,1.26,1.48,1.48,0,0,1,0,.21v4.06h1.54v-4.48a2.38,2.38,0,0,0-2.22-2.54h-.19a2.13,2.13,0,0,0-2.07,1.33,2.24,2.24,0,0,0-2.17-1.33,2,2,0,0,0-1.82,1v-.88Zm16.37,4a3.47,3.47,0,0,0,.1-.78,3.2,3.2,0,0,0-3.08-3.32h-.2a3.59,3.59,0,0,0,.08,7.18,5.15,5.15,0,0,0,2.52-.63v-1.52a4.36,4.36,0,0,1-2.4.75,2,2,0,0,1-2.1-1.68Zm-3.19-2.81a1.69,1.69,0,0,1,1.8,1.58v0h-3.71A1.86,1.86,0,0,1,127.2,733.67Zm6.08-1.15h-1.53v6.89h1.53V735.3a1.45,1.45,0,1,1,2.9.08v4h1.54V735a2.44,2.44,0,0,0-2.23-2.65h-.27a2.1,2.1,0,0,0-1.94,1.12v-.94Zm12.35,4a2.93,2.93,0,0,0,.1-.78,3.2,3.2,0,0,0-3.08-3.32h-.19a3.59,3.59,0,0,0,.08,7.18,5.15,5.15,0,0,0,2.52-.63v-1.52a4.4,4.4,0,0,1-2.41.75,2,2,0,0,1-2.1-1.68Zm-3.19-2.81a1.69,1.69,0,0,1,1.81,1.56v.06h-3.71A1.85,1.85,0,0,1,142.44,733.71Z" transform="translate(0 -2.08)"/><path class="cls-2" d="M75.32,712h3.43a4.76,4.76,0,1,0,0-9.52H75.32Zm3.41-8a3.24,3.24,0,0,1,0,6.47H76.91V704Zm9.71,4.72v-1.44H84.78v1.44Zm3.21-6.38H90.12V712h1.53v-9.66ZM95,705.11H93.42V712H95v-6.89ZM93.24,703a1,1,0,1,0,1-1,.93.93,0,0,0-1,.91Zm5,2.1H96.7V712h1.54v-4.16a1.35,1.35,0,0,1,2.7-.11,1.48,1.48,0,0,1,0,.21V712h1.54v-4a1.32,1.32,0,0,1,1.18-1.46h.19a1.3,1.3,0,0,1,1.34,1.26,1.48,1.48,0,0,1,0,.21v4h1.54v-4.48a2.38,2.38,0,0,0-2.22-2.54h-.19a2.13,2.13,0,0,0-2.07,1.33,2.24,2.24,0,0,0-2.17-1.33,2,2,0,0,0-1.82,1v-.86Zm9.73,3.44a3.59,3.59,0,1,0,3.6-3.58h0a3.55,3.55,0,0,0-3.59,3.51Zm1.56,0a2,2,0,0,1,1.92-2.08h.08a2.09,2.09,0,0,1,0,4.17,2,2,0,0,1-2-2v-.09Zm8.48-3.44h-1.54V712H118v-4a1.4,1.4,0,0,1,1.31-1.47h.13a1.42,1.42,0,0,1,1.47,1.35,1.34,1.34,0,0,1,0,.2v4h1.54v-4.37a2.47,2.47,0,0,0-2.2-2.7H120a2.09,2.09,0,0,0-2,1.1v-1Zm12.35,4a3.47,3.47,0,0,0,.1-.78,3.2,3.2,0,0,0-3.07-3.33h-.19a3.59,3.59,0,0,0,.08,7.18,5.15,5.15,0,0,0,2.52-.63V710a4.36,4.36,0,0,1-2.4.75,2,2,0,0,1-2.1-1.68Zm-3.19-2.81a1.69,1.69,0,0,1,1.8,1.58v0h-3.71A1.86,1.86,0,0,1,127.17,706.3Zm6.08-1.15h-1.53V712h1.53v-4a1.45,1.45,0,1,1,2.9.08h0v4h1.54v-4.37a2.44,2.44,0,0,0-2.23-2.65h-.27a2.1,2.1,0,0,0-1.94,1.12v-1Zm12.35,4a2.93,2.93,0,0,0,.1-.78,3.2,3.2,0,0,0-3.08-3.32h-.19a3.59,3.59,0,0,0,.08,7.18h0a5.15,5.15,0,0,0,2.52-.63V710a4.4,4.4,0,0,1-2.41.75,2,2,0,0,1-2.1-1.68Zm-3.19-2.81a1.69,1.69,0,0,1,1.81,1.56V708h-3.71A1.85,1.85,0,0,1,142.41,706.34Z" transform="translate(0 -2.08)"/><path class="cls-2" d="M56.74,679.55a3.43,3.43,0,0,1,1.81-.55A1.31,1.31,0,0,1,60,680.15a1.77,1.77,0,0,1,0,.23V681a2.35,2.35,0,0,0-1.65-.66A2.26,2.26,0,0,0,56,682.47v.12a2.2,2.2,0,0,0,2.12,2.27h.22A2.08,2.08,0,0,0,60,684v.63h1.54V680.4a2.51,2.51,0,0,0-2.19-2.78,2.66,2.66,0,0,0-.63,0,4.93,4.93,0,0,0-2,.43v1.49Zm.75,3a1.25,1.25,0,0,1,1.1-1.38,1.25,1.25,0,0,1,.28,2.48h-.14A1.18,1.18,0,0,1,57.49,682.55ZM64.77,675H63.24v9.66h1.53V675Zm3.31,2.77H66.54v9.76h1.54v-4a2.67,2.67,0,0,0,2.35,1.27,3.6,3.6,0,0,0,0-7.18A2.56,2.56,0,0,0,68.08,679v-1.2Zm0,3.45a2.05,2.05,0,1,1,2.06,2.08,2,2,0,0,1-2.06-1.94ZM76.66,675H75.12v9.66h1.54V680.6a1.45,1.45,0,1,1,2.9.08v4H81.1v-4.37a2.46,2.46,0,0,0-2.25-2.65h-.26a2.11,2.11,0,0,0-1.93,1.12V675ZM83,679.56a3.43,3.43,0,0,1,1.81-.55,1.31,1.31,0,0,1,1.44,1.15,1.77,1.77,0,0,1,0,.23V681a2.35,2.35,0,0,0-1.65-.66,2.24,2.24,0,0,0-2.36,2.12v.13a2.18,2.18,0,0,0,2.1,2.27h.23a2.07,2.07,0,0,0,1.68-.78v.63h1.54V680.4a2.48,2.48,0,0,0-2.17-2.77,2.29,2.29,0,0,0-.64,0,4.93,4.93,0,0,0-2,.43v1.49Zm.76,3A1.17,1.17,0,0,1,85,681.44a1.2,1.2,0,0,1,1.25,1.12,1.25,1.25,0,0,1-2.48,0Zm9.3-1.16V680H89.44v1.44Zm1.24-.17a3.59,3.59,0,1,0,3.6-3.58h0a3.55,3.55,0,0,0-3.59,3.51Zm1.56,0a2,2,0,0,1,1.92-2.08h.08a2.09,2.09,0,0,1,0,4.17,2,2,0,0,1-2-2v-.09Zm11.8,1.56a2.73,2.73,0,0,1-1.65.53,2.09,2.09,0,0,1,0-4.17,2.8,2.8,0,0,1,1.65.53V678a3.77,3.77,0,0,0-1.65-.38,3.59,3.59,0,1,0,0,7.18h0a3.65,3.65,0,0,0,1.65-.4v-1.61Zm3-5h-1.54v6.89h1.54Zm-1.72-2.1a1,1,0,1,0,1-1,.93.93,0,0,0-1,.91Zm5,2.1h-1.54v6.89H114V680.5a1.35,1.35,0,0,1,2.7-.11,1.48,1.48,0,0,1,0,.21v4.06h1.54V680.6a1.32,1.32,0,0,1,1.18-1.46h.19a1.3,1.3,0,0,1,1.34,1.26,1.48,1.48,0,0,1,0,.21v4.06h1.54v-4.48a2.38,2.38,0,0,0-2.22-2.54h-.19A2.12,2.12,0,0,0,118,679a2.24,2.24,0,0,0-2.17-1.33,2,2,0,0,0-1.82,1v-.88Zm16.37,4a3.47,3.47,0,0,0,.1-.78,3.2,3.2,0,0,0-3.08-3.32h-.2a3.59,3.59,0,0,0,.08,7.18h0a5.15,5.15,0,0,0,2.52-.63v-1.52a4.36,4.36,0,0,1-2.4.75,2,2,0,0,1-2.1-1.68ZM127.16,679a1.69,1.69,0,0,1,1.8,1.58v0h-3.71A1.86,1.86,0,0,1,127.16,679Zm6.08-1.15h-1.53v6.89h1.53V680.6a1.45,1.45,0,1,1,2.9.08v4h1.54v-4.37a2.44,2.44,0,0,0-2.23-2.65h-.27a2.1,2.1,0,0,0-1.94,1.12v-.94Zm12.35,4a2.93,2.93,0,0,0,.1-.78,3.2,3.2,0,0,0-3.08-3.32h-.19a3.59,3.59,0,0,0,.08,7.18,5.15,5.15,0,0,0,2.52-.63v-1.52a4.4,4.4,0,0,1-2.41.75,2,2,0,0,1-2.1-1.68ZM142.4,679a1.69,1.69,0,0,1,1.81,1.56v.06H140.5A1.85,1.85,0,0,1,142.4,679Z" transform="translate(0 -2.08)"/><path class="cls-2" d="M28,652.2a3.43,3.43,0,0,1,1.81-.55,1.31,1.31,0,0,1,1.44,1.15,1.77,1.77,0,0,1,0,.23v.57a2.35,2.35,0,0,0-1.65-.66,2.24,2.24,0,0,0-2.36,2.12v.13a2.18,2.18,0,0,0,2.1,2.27h.23a2.07,2.07,0,0,0,1.68-.78v.63h1.54v-4.26a2.48,2.48,0,0,0-2.17-2.77,2.29,2.29,0,0,0-.64,0,4.93,4.93,0,0,0-2,.43v1.49Zm.76,3A1.17,1.17,0,0,1,30,654.08a1.2,1.2,0,0,1,1.25,1.12,1.25,1.25,0,0,1-2.48,0ZM36,647.66H34.5v9.66H36v-9.66Zm3.3,2.77H37.81v9.76h1.53v-4a2.68,2.68,0,0,0,2.36,1.27,3.6,3.6,0,0,0,0-7.18,2.59,2.59,0,0,0-2.36,1.34v-1.2Zm0,3.45A2.06,2.06,0,1,1,41.4,656,2,2,0,0,1,39.34,654Zm8.58-6.22H46.39v9.66h1.53v-4.06a1.46,1.46,0,0,1,2.92-.15,1.77,1.77,0,0,1,0,.23v4h1.53V653a2.46,2.46,0,0,0-2.25-2.65h-.25a2.11,2.11,0,0,0-1.94,1.12v-3.77Zm6.39,4.55a3.43,3.43,0,0,1,1.81-.55,1.31,1.31,0,0,1,1.44,1.15,1.77,1.77,0,0,1,0,.23v.57a2.35,2.35,0,0,0-1.65-.66,2.26,2.26,0,0,0-2.37,2.13v.12a2.2,2.2,0,0,0,2.12,2.27h.22a2.07,2.07,0,0,0,1.68-.78v.63H59.1v-4.26a2.51,2.51,0,0,0-2.19-2.78,2.66,2.66,0,0,0-.63,0,4.93,4.93,0,0,0-2,.43v1.49Zm.75,3a1.25,1.25,0,0,1,2.49,0,1.25,1.25,0,0,1-2.49,0Zm9.3-1.16v-1.44H60.71V654Zm3.21-3.61H66v9.76h1.54v-4a2.67,2.67,0,0,0,2.35,1.27,3.6,3.6,0,0,0,0-7.18,2.55,2.55,0,0,0-2.35,1.34v-1.2Zm0,3.45A2.05,2.05,0,1,1,69.63,656,2,2,0,0,1,67.57,654Zm8.58-6.22H74.61v9.66h1.54v-4.06a1.4,1.4,0,0,1,1.31-1.47h.14a1.41,1.41,0,0,1,1.46,1.36,1.15,1.15,0,0,1,0,.19v4h1.54V653a2.46,2.46,0,0,0-2.25-2.65h-.26a2.11,2.11,0,0,0-1.93,1.12v-3.77ZM88.5,654.4a3.46,3.46,0,0,0,.09-.78,3.2,3.2,0,0,0-3.08-3.32h-.19a3.59,3.59,0,0,0,.08,7.18h0a5.15,5.15,0,0,0,2.52-.63v-1.52a4.36,4.36,0,0,1-2.4.75,2,2,0,0,1-2.1-1.68Zm-3.19-2.81a1.69,1.69,0,0,1,1.8,1.58v0H83.4A1.86,1.86,0,0,1,85.31,651.59Zm6.1-3.92H89.87v9.66h1.54Zm3.32,0H93.19v9.66h1.54Zm2,4.55a3.43,3.43,0,0,1,1.81-.55A1.3,1.3,0,0,1,100,652.8a1.34,1.34,0,0,1,0,.2v.57a2.35,2.35,0,0,0-1.65-.66A2.26,2.26,0,0,0,96,655v.12a2.2,2.2,0,0,0,2.12,2.27,1.61,1.61,0,0,0,.22,0,2.07,2.07,0,0,0,1.68-.78v.63h1.54V653a2.48,2.48,0,0,0-2.17-2.77,2.29,2.29,0,0,0-.64,0,4.93,4.93,0,0,0-2,.43v1.54Zm.76,3a1.17,1.17,0,0,1,1.23-1.12,1.2,1.2,0,0,1,1.25,1.12,1.25,1.25,0,0,1-2.48,0Zm7.26-4.77h-1.53v6.89h1.53v-4.06a1.45,1.45,0,0,1,2.9.08v4h1.54V653a2.46,2.46,0,0,0-2.25-2.65h-.25a2.1,2.1,0,0,0-1.94,1.12v-1Zm11.43,6.89h1.52v-9.66h-1.52v3.89a2.72,2.72,0,0,0-2.35-1.26,3.6,3.6,0,0,0,0,7.18,2.79,2.79,0,0,0,2.37-1.27v1.12Zm0-3.45a2.06,2.06,0,1,1-2.06-2.07,2.06,2.06,0,0,1,2.06,2.07Zm4.83-3.44h-1.54v6.89H121v-4.06a1.31,1.31,0,0,1,1.34-1.47,2.48,2.48,0,0,1,.93.18v-1.64h-.58a1.85,1.85,0,0,0-1.69,1v-.9Zm9.38,4a3.47,3.47,0,0,0,.1-.78,3.2,3.2,0,0,0-3.08-3.32h-.2a3.59,3.59,0,0,0,.08,7.18,5.15,5.15,0,0,0,2.52-.63v-1.52a4.36,4.36,0,0,1-2.4.75,2,2,0,0,1-2.1-1.68Zm-3.19-2.81a1.69,1.69,0,0,1,1.8,1.58v0h-3.71A1.86,1.86,0,0,1,127.2,651.64Zm6.08-1.15h-1.53v6.89h1.53v-4.06a1.45,1.45,0,0,1,2.9.08h0v4h1.54V653a2.44,2.44,0,0,0-2.23-2.65h-.27a2.1,2.1,0,0,0-1.94,1.12v-1Zm12.35,4a2.93,2.93,0,0,0,.1-.78,3.2,3.2,0,0,0-3.08-3.32h-.19a3.59,3.59,0,0,0,.08,7.18,5.15,5.15,0,0,0,2.52-.63v-1.52a4.4,4.4,0,0,1-2.41.75,2,2,0,0,1-2.1-1.68Zm-3.19-2.81a1.69,1.69,0,0,1,1.81,1.56v.06h-3.71A1.85,1.85,0,0,1,142.44,651.68Z" transform="translate(0 -2.08)"/><path class="cls-2" d="M63.74,628.84a2.71,2.71,0,0,0,2.36,1.27,3.6,3.6,0,0,0,0-7.18,2.68,2.68,0,0,0-2.35,1.26V620.3H62.2V630h1.54v-1.16Zm0-2.33a2.05,2.05,0,1,1,2.06,2.09,2,2,0,0,1-2.06-1.94ZM77,627a3.46,3.46,0,0,0,.09-.78A3.2,3.2,0,0,0,74,622.9h-.19a3.59,3.59,0,0,0,.08,7.18h0a5.15,5.15,0,0,0,2.52-.63V628a4.36,4.36,0,0,1-2.4.75,2,2,0,0,1-2.1-1.68Zm-3.19-2.81a1.69,1.69,0,0,1,1.8,1.58v0H71.9A1.86,1.86,0,0,1,73.81,624.19Zm6.56,5.74v-5.57h1.25V623H80.37V621.1l-1.45.33V623H77.67v1.32h1.16V630Zm2.52-5.11a3.43,3.43,0,0,1,1.81-.55,1.31,1.31,0,0,1,1.44,1.15,1.77,1.77,0,0,1,0,.23v.57a2.35,2.35,0,0,0-1.65-.66,2.26,2.26,0,0,0-2.37,2.13v.12a2.2,2.2,0,0,0,2.12,2.27h.22a2.07,2.07,0,0,0,1.68-.78v.7h1.54v-4.3a2.51,2.51,0,0,0-2.19-2.78,2.66,2.66,0,0,0-.63,0,4.93,4.93,0,0,0-2,.43v1.49Zm.76,3a1.17,1.17,0,0,1,1.23-1.12,1.12,1.12,0,1,1,0,2.23A1.19,1.19,0,0,1,83.65,627.82Zm9.29-1.16v-1.44H89.29v1.44Zm3.21-3.61H94.61v7h1.54v-4.2a1.29,1.29,0,0,1,1.21-1.37h.15a1.31,1.31,0,0,1,1.34,1.28,1.21,1.21,0,0,1,0,.19V630h1.54v-4.1a1.32,1.32,0,0,1,1.18-1.46h.19a1.31,1.31,0,0,1,1.34,1.28,1.21,1.21,0,0,1,0,.19V630h1.54v-4.48A2.38,2.38,0,0,0,102.4,623h-.19a2.13,2.13,0,0,0-2.07,1.33A2.24,2.24,0,0,0,98,623a2,2,0,0,0-1.82,1v-.92Zm10.23,9.76h1.78l4.16-9.76h-1.74l-1.79,4.42-1.71-4.42h-1.72l2.59,6.36Zm8.4-9.76h-1.54v7h1.54v-4.1a1.34,1.34,0,0,1,1.2-1.46h.15a2.39,2.39,0,0,1,.92.18V623h-.57a1.86,1.86,0,0,0-1.7,1v-1Zm8,5a2.73,2.73,0,0,1-1.65.53,2.09,2.09,0,0,1,0-4.17,2.8,2.8,0,0,1,1.65.53v-1.65a3.77,3.77,0,0,0-1.65-.38,3.59,3.59,0,1,0,0,7.18h0a3.65,3.65,0,0,0,1.65-.4Zm7.58-1a3.47,3.47,0,0,0,.1-.78,3.2,3.2,0,0,0-3.08-3.32h-.2a3.59,3.59,0,1,0,.08,7.18h0a5.15,5.15,0,0,0,2.52-.63V628a4.36,4.36,0,0,1-2.4.75,2,2,0,0,1-2.1-1.68Zm-3.19-2.81a1.69,1.69,0,0,1,1.8,1.58v0h-3.71A1.86,1.86,0,0,1,127.17,624.24Zm6.08-1.15h-1.53V630h1.53v-4.1a1.45,1.45,0,0,1,2.9.08v4h1.54v-4.37a2.44,2.44,0,0,0-2.23-2.65h-.27a2.1,2.1,0,0,0-1.94,1.12v-1Zm12.35,4a2.93,2.93,0,0,0,.1-.78,3.2,3.2,0,0,0-3.08-3.32h-.19a3.59,3.59,0,1,0,.08,7.18h0a5.15,5.15,0,0,0,2.52-.63V628a4.4,4.4,0,0,1-2.41.75,2,2,0,0,1-2.1-1.68Zm-3.19-2.81a1.69,1.69,0,0,1,1.81,1.56v.06h-3.71A1.85,1.85,0,0,1,142.41,624.28Z" transform="translate(0 -2.08)"/><path class="cls-2" d="M79.17,602.61v-1.53H75.5v-8H73.9v9.52Zm4.25-3.28v-1.44H79.77v1.44Zm5.21-3.61H87.1v-.52a.82.82,0,0,1,.74-.89H88a1.87,1.87,0,0,1,.7.15v-1.55a3.86,3.86,0,0,0-.76-.1,2.14,2.14,0,0,0-2.36,1.9,2.81,2.81,0,0,0,0,.41v.6h-1V597h1v5.57H87.1V597h1.53v-1.28Zm7.17,4a3.47,3.47,0,0,0,.1-.78,3.2,3.2,0,0,0-3.08-3.32h-.2a3.59,3.59,0,0,0,.09,7.18,5.15,5.15,0,0,0,2.52-.63v-1.52a4.4,4.4,0,0,1-2.41.75,2,2,0,0,1-2.1-1.68Zm-3.19-2.81a1.68,1.68,0,0,1,1.8,1.55v.07H90.7A1.86,1.86,0,0,1,92.61,596.91Zm6.09-1.15H97.16v6.89H98.7v-4.06a1.39,1.39,0,0,1,1.29-1.47h.15a1.42,1.42,0,0,1,1.47,1.35,1.34,1.34,0,0,1,0,.2v4h1.53V598.3a2.46,2.46,0,0,0-2.25-2.65h-.25a2.07,2.07,0,0,0-1.93,1.12v-1Zm11,5a2.74,2.74,0,0,1-1.66.53,2.09,2.09,0,0,1,0-4.17,2.81,2.81,0,0,1,1.66.53V596a3.81,3.81,0,0,0-1.66-.38,3.59,3.59,0,1,0,0,7.18h0a3.66,3.66,0,0,0,1.66-.4Zm3-7.77h-1.54v9.66h1.54v-4.06a1.4,1.4,0,0,1,1.31-1.47h.14a1.41,1.41,0,0,1,1.46,1.36,1.21,1.21,0,0,1,0,.19v4h1.53V598.3a2.44,2.44,0,0,0-2.23-2.65h-.27a2.09,2.09,0,0,0-1.93,1.12V593Zm5.71,6.21a3.59,3.59,0,1,0,3.6-3.58h0a3.54,3.54,0,0,0-3.58,3.5Zm1.55,0a2,2,0,1,1,0,.09Zm8.49-3.44h-1.54v6.89h1.54v-4.06a1.39,1.39,0,0,1,1.29-1.47h.15a1.42,1.42,0,0,1,1.47,1.35,1.34,1.34,0,0,1,0,.2v4h1.53V598.3a2.46,2.46,0,0,0-2.25-2.65h-.25a2.07,2.07,0,0,0-1.93,1.12v-1Zm12.34,4a2.93,2.93,0,0,0,.1-.78,3.2,3.2,0,0,0-3.08-3.32h-.19a3.59,3.59,0,1,0,.08,7.18h0a5.15,5.15,0,0,0,2.52-.63v-1.52a4.4,4.4,0,0,1-2.41.75,2,2,0,0,1-2.1-1.68ZM137.6,597a1.69,1.69,0,0,1,1.81,1.56v.06H135.7a1.85,1.85,0,0,1,1.9-1.62ZM142,593.8l-.27.47,1.3.77-1.3.76.27.48,1.31-.76V597h.55v-1.5l1.31.76.28-.49-1.32-.75,1.32-.77-.28-.47-1.31.77V593h-.55v1.54l-1.31-.77Z" transform="translate(0 -2.08)"/><path class="cls-2" d="M64.27,575.26H65.8V565.6H64.27v3.89a2.72,2.72,0,0,0-2.35-1.26,3.6,3.6,0,0,0,0,7.18,2.72,2.72,0,0,0,2.36-1.27v1.12Zm0-3.45a2.06,2.06,0,1,1-2.06-2.07,2.06,2.06,0,0,1,2.06,2.07Zm9.51.52a3.47,3.47,0,0,0,.1-.78,3.22,3.22,0,0,0-3.1-3.32H70.6a3.59,3.59,0,1,0,.08,7.18,5.15,5.15,0,0,0,2.52-.63v-1.52a4.36,4.36,0,0,1-2.4.75,2,2,0,0,1-2.1-1.68Zm-3.19-2.81a1.68,1.68,0,0,1,1.8,1.55v.07H68.68A1.86,1.86,0,0,1,70.59,569.52Zm6.1-3.92H75.15v9.66h1.54V565.6Zm3.85,9.66v-5.57h1.25v-1.32H80.54v-1.94l-1.46.33v1.61H77.84v1.32H79v5.57Zm2.52-5.11a3.4,3.4,0,0,1,1.8-.55,1.3,1.3,0,0,1,1.44,1.14,1,1,0,0,1,0,.24v.57a2.35,2.35,0,0,0-1.65-.66A2.26,2.26,0,0,0,82.29,573v.12a2.2,2.2,0,0,0,2.12,2.27h.22a2.1,2.1,0,0,0,1.68-.78v.63h1.54V571a2.51,2.51,0,0,0-2.19-2.78,2.66,2.66,0,0,0-.63,0,4.93,4.93,0,0,0-2,.43v1.49Zm.75,3a1.25,1.25,0,0,1,1.1-1.38,1.25,1.25,0,0,1,.28,2.48h-.14A1.18,1.18,0,0,1,83.81,573.15Zm9.3-1.16v-1.44H89.46V572Zm2.09-.89h1.36A1.36,1.36,0,0,1,98,572.32a.49.49,0,0,1,0,.12,1.45,1.45,0,0,1-1.48,1.4h-.1a3.1,3.1,0,0,1-2-.69V575a5.38,5.38,0,0,0,2.09.46,2.87,2.87,0,0,0,3.12-2.6c0-.05,0-.11,0-.16a2.42,2.42,0,0,0-1.48-2.33,2.27,2.27,0,0,0,1.22-2.14,2.66,2.66,0,0,0-2.72-2.59h-.22a4.44,4.44,0,0,0-1.9.43v1.73a3.11,3.11,0,0,1,1.84-.57,1.2,1.2,0,0,1,1.34,1,.76.76,0,0,1,0,.15,1.15,1.15,0,0,1-1.15,1.17H95.2v1.5Zm9.56.89v-1.44H101.1V572Zm6.52,1.39a2.73,2.73,0,0,1-1.65.53,2.09,2.09,0,0,1,0-4.17,2.8,2.8,0,0,1,1.65.53v-1.65a3.77,3.77,0,0,0-1.65-.38,3.59,3.59,0,1,0,0,7.18h0a3.65,3.65,0,0,0,1.65-.4v-1.64Zm1.7-3.22a3.4,3.4,0,0,1,1.8-.55,1.3,1.3,0,0,1,1.44,1.14,1,1,0,0,1,0,.24v.57a2.34,2.34,0,0,0-1.66-.66,2.24,2.24,0,0,0-2.36,2.12v.13a2.18,2.18,0,0,0,2.1,2.27h.23a2.09,2.09,0,0,0,1.69-.78v.63h1.53V571a2.48,2.48,0,0,0-2.17-2.77,2.29,2.29,0,0,0-.64,0,4.93,4.93,0,0,0-2,.43v1.49Zm.75,3a1.18,1.18,0,0,1,1.2-1.16H115a1.2,1.2,0,0,1,1.25,1.12,1.25,1.25,0,0,1-2.48,0Zm7.27-4.77h-1.54v6.89H121V571.2a1.31,1.31,0,0,1,1.34-1.47,2.48,2.48,0,0,1,.93.18v-1.64h-.58a1.85,1.85,0,0,0-1.69,1v-.88Zm9.38,4a3.47,3.47,0,0,0,.1-.78,3.2,3.2,0,0,0-3.08-3.32h-.2a3.59,3.59,0,1,0,.08,7.18,5.15,5.15,0,0,0,2.52-.63v-1.52a4.36,4.36,0,0,1-2.4.75,2,2,0,0,1-2.1-1.68Zm-3.19-2.81a1.69,1.69,0,0,1,1.8,1.58v0h-3.71A1.86,1.86,0,0,1,127.19,569.58Zm6.08-1.15h-1.53v6.89h1.53V571.2a1.45,1.45,0,0,1,2.9.08h0v4h1.54v-4.37a2.44,2.44,0,0,0-2.23-2.65h-.27a2.1,2.1,0,0,0-1.94,1.12v-.94Zm12.35,4a2.93,2.93,0,0,0,.1-.78,3.2,3.2,0,0,0-3.08-3.32h-.19a3.59,3.59,0,1,0,.08,7.18h0a5.15,5.15,0,0,0,2.52-.63v-1.52a4.4,4.4,0,0,1-2.41.75,2,2,0,0,1-2.1-1.68Zm-3.19-2.81a1.69,1.69,0,0,1,1.81,1.56v.06h-3.71A1.85,1.85,0,0,1,142.43,569.62Z" transform="translate(0 -2.08)"/><path class="cls-2" d="M73.74,546.79a2.68,2.68,0,0,0,2.36,1.27,3.6,3.6,0,0,0,0-7.18,2.67,2.67,0,0,0-2.35,1.26v-3.89H72.2v9.66h1.54v-1.12Zm0-2.33a2,2,0,1,1,4.1,0h0a2,2,0,1,1-4.1,0ZM87,545a2.93,2.93,0,0,0,.1-.78A3.2,3.2,0,0,0,84,540.9h-.19a3.59,3.59,0,1,0,.08,7.18,5.15,5.15,0,0,0,2.52-.63v-1.52a4.4,4.4,0,0,1-2.41.75,2,2,0,0,1-2.1-1.68Zm-3.19-2.81a1.69,1.69,0,0,1,1.81,1.56v.06H81.9a1.85,1.85,0,0,1,1.9-1.62Zm6.57,5.74v-5.57h1.24V541H90.38v-1.94l-1.46.33V541H87.68v1.32h1.16v5.57Zm2.52-5.11a3.4,3.4,0,0,1,1.8-.55,1.3,1.3,0,0,1,1.44,1.14,1,1,0,0,1,0,.24v.57a2.34,2.34,0,0,0-1.66-.66,2.24,2.24,0,0,0-2.36,2.12v.13a2.18,2.18,0,0,0,2.1,2.27h.23a2.09,2.09,0,0,0,1.69-.78v.63h1.53v-4.26a2.48,2.48,0,0,0-2.17-2.77,2.29,2.29,0,0,0-.64,0,4.93,4.93,0,0,0-2,.43v1.49Zm.75,3a1.25,1.25,0,0,1,1.1-1.38,1.25,1.25,0,0,1,.28,2.48h-.14A1.18,1.18,0,0,1,93.65,545.82Zm9.3-1.16v-1.44H99.29v1.44Zm3.2-3.61h-1.53v9.76h1.53v-4a2.68,2.68,0,0,0,2.36,1.27,3.6,3.6,0,0,0,0-7.18,2.59,2.59,0,0,0-2.36,1.34v-1.19Zm0,3.45a2.06,2.06,0,1,1,2.06,2.08,2,2,0,0,1-2.06-1.94Zm8.59-3.45H113.2v6.89h1.54v-6.89ZM113,539a.93.93,0,0,0,.91.95h0a1,1,0,0,0,.64-1.26A1,1,0,0,0,114,538a.94.94,0,0,0-1,.93v0Zm5,2.1h-1.54v6.89H118v-4.06a1.4,1.4,0,0,1,1.31-1.47h.13a1.42,1.42,0,0,1,1.47,1.35,1.34,1.34,0,0,1,0,.2v4h1.54v-4.37a2.46,2.46,0,0,0-2.25-2.65h-.26A2.11,2.11,0,0,0,118,542v-1Zm12.35,4a3.47,3.47,0,0,0,.1-.78,3.2,3.2,0,0,0-3.08-3.32h-.2a3.59,3.59,0,1,0,.08,7.18h0a5.15,5.15,0,0,0,2.52-.63V546a4.36,4.36,0,0,1-2.4.75,2,2,0,0,1-2.1-1.68Zm-3.19-2.81a1.69,1.69,0,0,1,1.8,1.58v0h-3.71A1.86,1.86,0,0,1,127.18,542.24Zm6.08-1.15h-1.53V548h1.53v-4.06a1.45,1.45,0,0,1,2.9.08h0v4h1.54v-4.37a2.44,2.44,0,0,0-2.23-2.65h-.27a2.1,2.1,0,0,0-1.94,1.12Zm12.35,4a2.93,2.93,0,0,0,.1-.78,3.2,3.2,0,0,0-3.08-3.32h-.19a3.59,3.59,0,0,0,.08,7.18,5.15,5.15,0,0,0,2.52-.63V546a4.4,4.4,0,0,1-2.41.75,2,2,0,0,1-2.1-1.68Zm-3.19-2.81a1.69,1.69,0,0,1,1.81,1.56v.06h-3.71A1.85,1.85,0,0,1,142.42,542.28Z" transform="translate(0 -2.08)"/><path class="cls-2" d="M30.53,519.44a2.73,2.73,0,0,0,2.37,1.27,3.6,3.6,0,0,0,0-7.18,2.72,2.72,0,0,0-2.35,1.26V510.9H29v9.66h1.54v-1.12Zm0-2.33a2.05,2.05,0,1,1,2.06,2.09,2,2,0,0,1-2.06-1.94Zm13.26.52a2.93,2.93,0,0,0,.1-.78,3.2,3.2,0,0,0-3.08-3.32h-.2a3.59,3.59,0,0,0,.09,7.18h0a5.15,5.15,0,0,0,2.52-.63v-1.52a4.4,4.4,0,0,1-2.41.75,2,2,0,0,1-2.1-1.68Zm-3.19-2.81a1.68,1.68,0,0,1,1.8,1.55v.07H38.69A1.86,1.86,0,0,1,40.6,514.82Zm6.56,5.74V515h1.25v-1.32H47.16v-1.94l-1.45.33v1.61H44.46V515h1.16v5.57Zm2.52-5.11a3.43,3.43,0,0,1,1.81-.55,1.31,1.31,0,0,1,1.44,1.15,1.77,1.77,0,0,1,0,.23v.57a2.35,2.35,0,0,0-1.65-.66,2.26,2.26,0,0,0-2.37,2.13v.12A2.2,2.2,0,0,0,51,520.71h.22a2.07,2.07,0,0,0,1.68-.78v.63h1.54V516.3a2.48,2.48,0,0,0-2.17-2.77,2.29,2.29,0,0,0-.64,0,4.93,4.93,0,0,0-2,.43v1.49Zm.76,3a1.17,1.17,0,0,1,1.23-1.12,1.2,1.2,0,0,1,1.25,1.12,1.25,1.25,0,0,1-2.48,0Zm9.3-1.16v-1.44H56.08v1.44Zm6.52,1.39a2.73,2.73,0,0,1-1.65.53,2.09,2.09,0,0,1,0-4.17,2.8,2.8,0,0,1,1.65.53v-1.65a3.77,3.77,0,0,0-1.65-.38,3.59,3.59,0,1,0,0,7.18h0a3.65,3.65,0,0,0,1.65-.4v-1.64ZM68,515.46a3.43,3.43,0,0,1,1.81-.55,1.31,1.31,0,0,1,1.44,1.15,1.77,1.77,0,0,1,0,.23v.57a2.35,2.35,0,0,0-1.65-.66,2.26,2.26,0,0,0-2.37,2.13v.12a2.2,2.2,0,0,0,2.12,2.27h.22a2.07,2.07,0,0,0,1.68-.78v.63h1.54V516.3a2.48,2.48,0,0,0-2.17-2.77,2.29,2.29,0,0,0-.64,0,4.93,4.93,0,0,0-2,.43v1.49Zm.76,3a1.17,1.17,0,0,1,1.23-1.12,1.2,1.2,0,0,1,1.25,1.12,1.25,1.25,0,0,1-2.48,0ZM76,513.69H74.44v6.89H76V516.5A1.34,1.34,0,0,1,77.2,515h.15a2.39,2.39,0,0,1,.92.18v-1.64a5.42,5.42,0,0,0-.57,0,1.88,1.88,0,0,0-1.7,1v-.84Zm3.64,9.76h1.78l4.16-9.76H83.81L82,518.09l-1.71-4.42H78.57L81.16,520l-1.57,3.4Zm6.22-6.32a3.59,3.59,0,1,0,3.6-3.58h0A3.54,3.54,0,0,0,85.83,517Zm1.55,0a2.06,2.06,0,0,1,2-2.08,2.09,2.09,0,0,1,0,4.17,2.05,2.05,0,0,1-2-2.09Zm8.49-3.44H94.33v9.76h1.54v-4a2.67,2.67,0,0,0,2.35,1.27,3.6,3.6,0,0,0,0-7.18,2.55,2.55,0,0,0-2.35,1.34v-1.2Zm0,3.45a2.05,2.05,0,1,1,2.06,2.08,2,2,0,0,1-2.06-1.94Zm8.58-6.22h-1.54v9.66h1.54V516.5a1.45,1.45,0,1,1,2.9.08h0v4h1.54v-4.37a2.46,2.46,0,0,0-2.25-2.65h-.26a2.11,2.11,0,0,0-1.93,1.12v-3.75Zm6.22,12.53h1.77l4.16-9.76h-1.73l-1.8,4.42-1.7-4.42h-1.72l2.59,6.36-1.57,3.4Zm8.41-12.53h-1.54v9.66h1.54v-9.66Zm3.32,0h-1.54v9.66h1.54v-9.66Zm8,6.73a3.47,3.47,0,0,0,.1-.78,3.2,3.2,0,0,0-3.08-3.32h-.2a3.59,3.59,0,1,0,.08,7.18,5.15,5.15,0,0,0,2.52-.63v-1.52a4.36,4.36,0,0,1-2.4.75,2,2,0,0,1-2.1-1.68Zm-3.19-2.81a1.69,1.69,0,0,1,1.8,1.58v0H125.3A1.86,1.86,0,0,1,127.21,514.84Zm6.08-1.15h-1.53v6.89h1.53V516.5a1.45,1.45,0,0,1,2.9.08h0v4h1.54v-4.37a2.44,2.44,0,0,0-2.23-2.65h-.27a2.1,2.1,0,0,0-1.94,1.12v-1Zm12.35,4a2.93,2.93,0,0,0,.1-.78,3.2,3.2,0,0,0-3.08-3.32h-.19a3.59,3.59,0,0,0,.08,7.18,5.15,5.15,0,0,0,2.52-.63v-1.52a4.4,4.4,0,0,1-2.41.75,2,2,0,0,1-2.1-1.68Zm-3.19-2.81a1.69,1.69,0,0,1,1.81,1.56v.06h-3.71A1.85,1.85,0,0,1,142.45,514.88Z" transform="translate(0 -2.08)"/><path class="cls-2" d="M187.13,792.11v-1.52h-1.22v-6.05h-1.59l-4.2,6.2v1.37h4.2v1.95h1.59v-1.95Zm-5.32-1.52,2.51-3.77v3.77Zm6.36,3.47h5.23v-1.53h-3.19l2.13-2.69a4.17,4.17,0,0,0,1.09-2.76,2.62,2.62,0,0,0-2.56-2.69,2,2,0,0,0-.35,0,3.83,3.83,0,0,0-2.17.71v1.81a2.84,2.84,0,0,1,2.06-.93,1.28,1.28,0,0,1,1.38,1.17v.2a3.09,3.09,0,0,1-.85,1.82l-2.77,3.51v1.37Z" transform="translate(0 -2.08)"/><path class="cls-2" d="M186,764.76v-1.52h-1.22v-6h-1.59l-4.2,6.2v1.37h4.2v2h1.59v-2Zm-5.32-1.52,2.51-3.77v3.77Zm11.54-6h-1.91l-2.73,4.25a3.94,3.94,0,0,0-.61,2,3.37,3.37,0,0,0,6.73.37,2.28,2.28,0,0,0,0-.37,3.24,3.24,0,0,0-3.2-3.28h-.28l2-3Zm-.14,6.3a1.75,1.75,0,1,1-3.49.26,1.13,1.13,0,0,1,0-.26,1.75,1.75,0,1,1,3.49-.26A1.13,1.13,0,0,1,192.08,763.54Z" transform="translate(0 -2.08)"/><path class="cls-2" d="M181.51,739.36h5.83v-1.53h-2v-8h-3.57v1.52h2v6.47h-2.29v1.53Zm7.48-4.17h1.36a1.37,1.37,0,0,1,1.49,1.23.41.41,0,0,1,0,.11,1.45,1.45,0,0,1-1.5,1.4h-.09a3,3,0,0,1-2-.69v1.82a5.3,5.3,0,0,0,2.08.46,2.88,2.88,0,0,0,3.13-2.61s0-.1,0-.15a2.42,2.42,0,0,0-1.49-2.33,2.26,2.26,0,0,0,1.22-2.14,2.66,2.66,0,0,0-2.72-2.59h-.22a4.44,4.44,0,0,0-1.9.43v1.73a3.14,3.14,0,0,1,1.85-.57,1.19,1.19,0,0,1,1.33,1.05.66.66,0,0,1,0,.14,1.15,1.15,0,0,1-1.15,1.17H189v1.54Z" transform="translate(0 -2.08)"/><path class="cls-2" d="M175.59,707.84H177a1.37,1.37,0,0,1,1.49,1.23.41.41,0,0,1,0,.11,1.45,1.45,0,0,1-1.48,1.4h-.1a3.08,3.08,0,0,1-2-.69v1.82a5.3,5.3,0,0,0,2.08.46,2.88,2.88,0,0,0,3.13-2.61s0-.1,0-.15a2.42,2.42,0,0,0-1.48-2.33,2.26,2.26,0,0,0,1.21-2.14,2.65,2.65,0,0,0-2.7-2.59h-.23a4.52,4.52,0,0,0-1.91.43v1.73a3.14,3.14,0,0,1,1.85-.57,1.19,1.19,0,0,1,1.33,1,.66.66,0,0,1,0,.14,1.15,1.15,0,0,1-1.15,1.17h-1.43v1.54Zm5.69,4.17h5.23v-1.53h-3.19l2.13-2.69a4.17,4.17,0,0,0,1.09-2.76,2.62,2.62,0,0,0-2.56-2.69,2,2,0,0,0-.35,0,3.83,3.83,0,0,0-2.17.71v1.81a2.84,2.84,0,0,1,2.06-.93,1.28,1.28,0,0,1,1.38,1.17v.2a3.09,3.09,0,0,1-.85,1.82l-2.77,3.51V712Zm12.05-8v-1.52h-4.45l-.48,4.93h1.28c1.16,0,2.14.39,2.14,1.52a1.63,1.63,0,0,1-1.63,1.63h-.11a3.21,3.21,0,0,1-2.25-1v2a4.81,4.81,0,0,0,2.34.64,3,3,0,0,0,3.29-2.78,2.16,2.16,0,0,0,0-.44c0-1.86-1.32-3-3.33-3h-.09l.26-1.94Z" transform="translate(0 -2.08)"/><path class="cls-2" d="M181.83,630h1.91l2.72-4.26a3.74,3.74,0,0,0,.62-2,3.37,3.37,0,1,0-3.39,3.35h.11l-2,2.94Zm.14-6.29a1.75,1.75,0,1,1,3.49-.26,1.13,1.13,0,0,1,0,.26A1.75,1.75,0,1,1,182,624,1.13,1.13,0,0,1,182,623.71Zm6.2,6.29h5.23v-1.53h-3.19l2.13-2.69a4.17,4.17,0,0,0,1.09-2.76,2.62,2.62,0,0,0-2.56-2.69,2,2,0,0,0-.35,0,3.83,3.83,0,0,0-2.17.71v1.81a2.84,2.84,0,0,1,2.06-.93,1.28,1.28,0,0,1,1.38,1.17v.2a3.09,3.09,0,0,1-.85,1.82l-2.77,3.51V630Z" transform="translate(0 -2.08)"/><path class="cls-2" d="M173.31,547.91h5.82v-1.53h-1.94v-8h-3.57v1.52h2v6.47h-2.28v1.53Zm6.64,0h5.23v-1.53H182l2.13-2.69a4.17,4.17,0,0,0,1.09-2.76,2.62,2.62,0,0,0-2.56-2.69,2,2,0,0,0-.35,0,3.83,3.83,0,0,0-2.17.71v1.81a2.84,2.84,0,0,1,2.06-.93,1.28,1.28,0,0,1,1.38,1.17v.2a3.09,3.09,0,0,1-.85,1.82L180,546.54v1.37Zm10-8.09a1.67,1.67,0,0,1,1.74,1.61.67.67,0,0,1,0,.2v3a1.75,1.75,0,1,1-3.49.26,1.13,1.13,0,0,1,0-.26v-3a1.69,1.69,0,0,1,1.54-1.81Zm0-1.57a3.24,3.24,0,0,0-3.35,3.13v3.34a3.34,3.34,0,0,0,6.68,0h0v-3.13a3.23,3.23,0,0,0-3.12-3.34Z" transform="translate(0 -2.08)"/><path class="cls-2" d="M173.46,520.56h5.83V519h-1.95v-8h-3.57v1.52h2V519h-2.29v1.53Zm12.18-8V511h-4.45l-.47,4.93H182c1.16,0,2.14.39,2.14,1.52a1.61,1.61,0,0,1-1.61,1.63h-.12a3.22,3.22,0,0,1-2.26-1v2a4.81,4.81,0,0,0,2.34.64,3,3,0,0,0,3.29-2.67,3.39,3.39,0,0,0,0-.55c0-1.86-1.31-3-3.33-3h-.08l.25-1.94Zm6.53-1.52h-1.91l-2.73,4.25a3.94,3.94,0,0,0-.61,2,3.37,3.37,0,1,0,6.73.37,2.29,2.29,0,0,0,0-.37,3.24,3.24,0,0,0-3.2-3.28h-.28l2-3Zm-.14,6.3a1.75,1.75,0,1,1-3.49.26,1.13,1.13,0,0,1,0-.26,1.75,1.75,0,1,1,3.49-.26A1.13,1.13,0,0,1,192,517.34Z" transform="translate(0 -2.08)"/><g class="cls-5"><path class="cls-1" d="M75.82,492.22a5.06,5.06,0,0,1-2.18.49,4.92,4.92,0,0,1,0-9.83,5.06,5.06,0,0,1,2.18.49v2.28a3.34,3.34,0,0,0-2.18-.78,2.93,2.93,0,0,0,0,5.85,3.32,3.32,0,0,0,2.18-.77Z" transform="translate(0 -2.08)"/></g><g class="cls-5"><path class="cls-1" d="M81.64,482.88a4.92,4.92,0,1,1-4.9,4.92A4.82,4.82,0,0,1,81.64,482.88Zm0,7.84a2.93,2.93,0,1,0-2.85-2.92A2.85,2.85,0,0,0,81.64,490.72Z" transform="translate(0 -2.08)"/><path class="cls-1" d="M92.26,492.56,90,486.62v5.94h-2V483h2.44l2.65,7,2.63-7H98.2v9.53h-2v-5.94L94,492.56Z" transform="translate(0 -2.08)"/><path class="cls-1" d="M100.29,483h3.25a3,3,0,1,1,0,6h-1.26v3.49h-2Zm3.22,1.92h-1.23v2.2h1.23a1,1,0,0,0,1.12-1.09A1,1,0,0,0,103.51,485Z" transform="translate(0 -2.08)"/><path class="cls-1" d="M112.43,482.88a4.92,4.92,0,1,1-4.9,4.92A4.81,4.81,0,0,1,112.43,482.88Zm0,7.84a2.93,2.93,0,1,0-2.86-2.92A2.85,2.85,0,0,0,112.43,490.72Z" transform="translate(0 -2.08)"/><path class="cls-1" d="M126,483V489a3.64,3.64,0,1,1-7.27,0V483h2v6.11a1.65,1.65,0,0,0,3.29,0V483Z" transform="translate(0 -2.08)"/><path class="cls-1" d="M130,487.05v5.51h-2v-8.34l-.66-1.05V483h2.36l4.17,6.07V483h2v9.53h-2Z" transform="translate(0 -2.08)"/><path class="cls-1" d="M138,483h3.53a4.77,4.77,0,0,1,0,9.53H138Zm2,1.92v5.69h1.53a2.85,2.85,0,0,0,0-5.69Z" transform="translate(0 -2.08)"/></g><g class="cls-5"><path class="cls-1" d="M171.58,486.59a2.39,2.39,0,0,1,2.15-1.15,3.65,3.65,0,0,1,0,7.27,2.55,2.55,0,0,1-2.13-1v3.77h-1.9v-9.85h1.9Zm1.75,4.25a1.76,1.76,0,1,0-1.75-1.77A1.74,1.74,0,0,0,173.33,490.84Z" transform="translate(0 -2.08)"/><path class="cls-1" d="M180.14,486.59a2.37,2.37,0,0,1,2.14-1.15,3.65,3.65,0,0,1,0,7.27,2.54,2.54,0,0,1-2.13-1v3.77h-1.91v-9.85h1.91Zm1.75,4.25a1.76,1.76,0,1,0-1.75-1.77A1.74,1.74,0,0,0,181.89,490.84Z" transform="translate(0 -2.08)"/><path class="cls-1" d="M188.69,486.41a2.05,2.05,0,0,1,1.78-1,2.25,2.25,0,0,1,2.14,1.26,2.17,2.17,0,0,1,2.06-1.26,2.43,2.43,0,0,1,2.4,2.57v4.55h-1.91v-4a1.1,1.1,0,0,0-1.12-1.24,1.13,1.13,0,0,0-1.16,1.24v4H191v-4a1.14,1.14,0,1,0-2.28-.09v4.1h-1.9v-7h1.9Z" transform="translate(0 -2.08)"/></g><g class="cls-5"><path class="cls-1" d="M278.6,482.88a4.94,4.94,0,0,1,4,7.8l.92.91L282.16,493l-1-1a5,5,0,0,1-2.6.72,4.92,4.92,0,0,1,0-9.83Zm0,7.84a2.16,2.16,0,0,0,1.06-.26l-1.35-1.36,1.36-1.37,1.41,1.43a2.56,2.56,0,0,0,.37-1.36,2.85,2.85,0,1,0-2.85,2.92Z" transform="translate(0 -2.08)"/><path class="cls-1" d="M292.31,483V489a3.64,3.64,0,1,1-7.27,0V483h2v6.11a1.65,1.65,0,0,0,3.29,0V483Z" transform="translate(0 -2.08)"/></g><g class="cls-5"><path class="cls-1" d="M299.34,490.53h-3.4l-.72,2H293l3.53-9.53h2.23l3.53,9.53h-2.23Zm-2.75-1.92h2.11l-1.06-3Z" transform="translate(0 -2.08)"/><path class="cls-1" d="M305.33,487.05v5.51h-2v-8.34l-.66-1.05V483H305l4.17,6.07V483h2v9.53h-2Z" transform="translate(0 -2.08)"/><path class="cls-1" d="M314.83,485h-2.31V483h6.62V485h-2.32v7.61h-2Z" transform="translate(0 -2.08)"/><path class="cls-1" d="M320.46,483h2v9.53h-2Z" transform="translate(0 -2.08)"/></g><g class="cls-5"><path class="cls-1" d="M326.08,485h-2.31V483h6.61V485h-2.31v7.61h-2Z" transform="translate(0 -2.08)"/><path class="cls-1" d="M335.79,490.53h-3.41l-.71,2h-2.23L333,483h2.23l3.53,9.53H336.5ZM333,488.61h2.1l-1.05-3Z" transform="translate(0 -2.08)"/></g><g class="cls-5"><path class="cls-1" d="M341.23,485h-2.31V483h6.61V485h-2.31v7.61h-2Z" transform="translate(0 -2.08)"/><path class="cls-1" d="M346.86,483h2v9.53h-2Z" transform="translate(0 -2.08)"/><path class="cls-1" d="M349.84,483h2.23l2.42,7.22L356.9,483h2.23l-3.53,9.53h-2.23Z" transform="translate(0 -2.08)"/><path class="cls-1" d="M360.13,492.56V483h5.42V485h-3.43v1.85h3.15v1.92h-3.15v1.92h3.43v1.92Z" transform="translate(0 -2.08)"/><path class="cls-1" d="M370.39,483h3.25a3,3,0,1,1,0,6h-1.26v3.49h-2Zm3.22,1.92h-1.23v2.2h1.23a1,1,0,0,0,1.12-1.09A1,1,0,0,0,373.61,485Z" transform="translate(0 -2.08)"/><path class="cls-1" d="M378.22,483h3.29c1.86,0,3.15,1,3.15,2.78a2.34,2.34,0,0,1-1.72,2.41c1.19.61,1.9,2.29,2.13,4.34H383c-.34-2.07-1.15-3.54-2.31-3.54h-.49v3.54h-2Zm3.29,1.92h-1.3v2.15h1.3a1.08,1.08,0,1,0,0-2.15Z" transform="translate(0 -2.08)"/><path class="cls-1" d="M390.72,482.88a4.92,4.92,0,1,1-4.9,4.92A4.81,4.81,0,0,1,390.72,482.88Zm0,7.84a2.93,2.93,0,1,0-2.86-2.92A2.86,2.86,0,0,0,390.72,490.72Z" transform="translate(0 -2.08)"/><path class="cls-1" d="M399.12,489.13v3.43h-2V483h5.42V485h-3.43v2.26h3.15v1.92Z" transform="translate(0 -2.08)"/><path class="cls-1" d="M404.19,483h2v9.53h-2Z" transform="translate(0 -2.08)"/><path class="cls-1" d="M408.28,492.56V483h2v7.61h3.44v1.92Z" transform="translate(0 -2.08)"/><path class="cls-1" d="M415,492.56V483h5.42V485H417v1.85h3.16v1.92H417v1.92h3.44v1.92Z" transform="translate(0 -2.08)"/></g><path class="cls-2" d="M148.3,872h-.68v8.23h.68v-3.82a2.58,2.58,0,0,0,2.41,1.48,3,3,0,0,0,0-6,2.58,2.58,0,0,0-2.41,1.51Zm0,2.88a2.31,2.31,0,1,1,2.31,2.34A2.28,2.28,0,0,1,148.3,875Zm7.42-2.88H155v8.23h.68v-3.82a2.61,2.61,0,0,0,2.4,1.48,3,3,0,1,0,0-6,2.55,2.55,0,0,0-2.4,1.51V872Zm0,2.88a2.31,2.31,0,1,1,4.61-.3,1.5,1.5,0,0,1,0,.3,2.31,2.31,0,1,1-4.61.3A1.5,1.5,0,0,1,155.72,874.88Zm7.42-2.88h-.69v5.77h.69v-3.68a1.43,1.43,0,0,1,1.31-1.54h.21a1.46,1.46,0,0,1,1.51,1.41,1.62,1.62,0,0,1,0,.22v3.59h.68v-3.59a1.52,1.52,0,1,1,3-.49,1.35,1.35,0,0,1,0,.49v3.59h.68v-3.72a2,2,0,0,0-1.82-2.16h-.24a1.77,1.77,0,0,0-1.8,1.27,1.91,1.91,0,0,0-1.91-1.27,1.71,1.71,0,0,0-1.65,1V872Zm14.66-1.83a1.91,1.91,0,0,1,2,1.82v3.18a2,2,0,0,1-3.93.75,1.89,1.89,0,0,1,0-.75v-3a1.91,1.91,0,0,1,1.82-2h.11Zm0-.68a2.58,2.58,0,0,0-2.65,2.51v3.16a2.66,2.66,0,1,0,5.31.33,1.82,1.82,0,0,0,0-.33v-3a2.59,2.59,0,0,0-2.51-2.67Zm4.12,7.81a.59.59,0,1,0,.59-.59h0a.57.57,0,0,0-.58.56Zm5.3-7.13a1.91,1.91,0,0,1,2,1.82v3.18a2,2,0,0,1-3.93.75,1.89,1.89,0,0,1,0-.75v-3a1.91,1.91,0,0,1,1.82-2h.11Zm0-.68a2.58,2.58,0,0,0-2.65,2.51v3.16a2.66,2.66,0,0,0,5.31.33,1.82,1.82,0,0,0,0-.33v-3a2.59,2.59,0,0,0-2.51-2.67Zm7,.68a1.9,1.9,0,0,1,2,1.79v3.21a2,2,0,1,1-3.92.8,2.15,2.15,0,0,1,0-.8v-3a1.9,1.9,0,0,1,1.79-2h.13Zm0-.68a2.59,2.59,0,0,0-2.65,2.53v3.14a2.66,2.66,0,1,0,5.32,0h0v-3a2.6,2.6,0,0,0-2.53-2.67Z" transform="translate(0 -2.08)"/><path class="cls-2" d="M309.09,877.8h4.65v-.65h-1.81v-7.51h-2.67v.64h2v6.87h-2.15v.65Zm8.39-7.6a1.91,1.91,0,0,1,2,1.82v3.18a2,2,0,0,1-3.93.75,1.89,1.89,0,0,1,0-.75v-3a1.91,1.91,0,0,1,1.82-2h.11Zm0-.68a2.59,2.59,0,0,0-2.66,2.52v3.15a2.66,2.66,0,1,0,5.32,0h0v-3a2.6,2.6,0,0,0-2.51-2.67Zm7,.68a1.91,1.91,0,0,1,2,1.82v3.18a2,2,0,0,1-3.93.75,1.89,1.89,0,0,1,0-.75v-3a1.91,1.91,0,0,1,1.82-2h.11Zm0-.68a2.58,2.58,0,0,0-2.65,2.51v3.16a2.66,2.66,0,1,0,5.31.33,1.82,1.82,0,0,0,0-.33v-3a2.6,2.6,0,0,0-2.51-2.67Zm4.12,7.81a.59.59,0,1,0,.59-.59h0a.57.57,0,0,0-.58.56Zm5.3-7.13a1.91,1.91,0,0,1,2,1.82v3.18A2,2,0,0,1,332,876a1.89,1.89,0,0,1,0-.75v-3a1.91,1.91,0,0,1,1.82-2h.11Zm0-.68a2.58,2.58,0,0,0-2.65,2.51v3.16a2.66,2.66,0,1,0,5.31.33,1.82,1.82,0,0,0,0-.33v-3a2.6,2.6,0,0,0-2.51-2.67Zm7,.68a1.9,1.9,0,0,1,2,1.79v3.21a2,2,0,0,1-3.92.8,2.15,2.15,0,0,1,0-.8v-3a1.9,1.9,0,0,1,1.79-2h.13Zm0-.68a2.59,2.59,0,0,0-2.65,2.53v3.14a2.66,2.66,0,1,0,5.32,0h0v-3a2.6,2.6,0,0,0-2.53-2.67Z" transform="translate(0 -2.08)"/><path class="cls-6" d="M146.83,922.53h1.94v-9.71h2.94V911h-7.82v1.85h2.94v9.68Zm4.67-4.18a4.36,4.36,0,1,0,4.36-4.36h0a4.31,4.31,0,0,0-4.36,4.26Zm1.89,0a2.48,2.48,0,0,1,2.42-2.54h.05a2.54,2.54,0,0,1,0,5.07,2.48,2.48,0,0,1-2.47-2.49Zm10.8,4.18v-6.77h1.51v-1.6h-1.51V911.8l-1.77.41v1.95h-1.51v1.6h1.41v6.77Zm3.06-6.21a4.14,4.14,0,0,1,2.19-.66,1.57,1.57,0,0,1,1.74,1.38,1.38,1.38,0,0,1,0,.29V918a2.93,2.93,0,0,0-2-.8,2.75,2.75,0,0,0-2.88,2.6v.14a2.67,2.67,0,0,0,2.59,2.76h.25a2.49,2.49,0,0,0,2-1v.77H173V917.3c0-2.36-1.34-3.37-3.41-3.37a5.68,5.68,0,0,0-2.4.53v1.8Zm.91,3.64a1.52,1.52,0,1,1,1.69,1.33h-.19A1.43,1.43,0,0,1,168.16,920ZM177,910.8h-1.87v11.73H177Zm7.7,11.73h1.94v-9.71h2.94V911h-7.82v1.85h2.94v9.68ZM197.44,919a3.38,3.38,0,0,0,.12-1,3.89,3.89,0,0,0-3.78-4h-.22a4.37,4.37,0,0,0,.11,8.73,6.29,6.29,0,0,0,3.06-.77V920.1a5.29,5.29,0,0,1-2.93.92,2.44,2.44,0,0,1-2.55-2Zm-3.87-3.41a2,2,0,0,1,2.18,1.8,1.34,1.34,0,0,1,0,.2h-4.5A2.24,2.24,0,0,1,193.57,915.59Zm7.39-1.4h-1.87v8.37H201v-5a1.6,1.6,0,0,1,1.64-1.79,2.9,2.9,0,0,1,1.12.22v-2a4.09,4.09,0,0,0-.7,0,2.25,2.25,0,0,0-2.06,1.19v-1Zm5.95,0H205V926h1.87v-4.84a3.26,3.26,0,0,0,2.86,1.55,4.38,4.38,0,0,0,0-8.73,3.11,3.11,0,0,0-2.86,1.64v-1.47Zm0,4.19a2.5,2.5,0,1,1,2.5,2.53,2.5,2.5,0,0,1-2.5-2.53ZM223,919a3.38,3.38,0,0,0,.12-1,3.89,3.89,0,0,0-3.78-4h-.22a4.37,4.37,0,0,0,.11,8.73,6.29,6.29,0,0,0,3.06-.77V920.1a5.29,5.29,0,0,1-2.93.92,2.44,2.44,0,0,1-2.55-2Zm-3.87-3.41a2,2,0,0,1,2.18,1.8,1.34,1.34,0,0,1,0,.2h-4.5A2.25,2.25,0,0,1,219.13,915.59Zm7.39-1.4h-1.87v8.37h1.87v-5a1.76,1.76,0,0,1,3.52.1v4.83h1.87v-5.31a3,3,0,0,0-2.76-3.22h-.24a2.56,2.56,0,0,0-2.35,1.36v-1.19Zm15,4.81a3.38,3.38,0,0,0,.12-1,3.89,3.89,0,0,0-3.78-4h-.22a4.37,4.37,0,0,0,.1,8.73,6.29,6.29,0,0,0,3.06-.77V920.1a5.26,5.26,0,0,1-2.92.92,2.44,2.44,0,0,1-2.55-2Zm-3.88-3.41a2.06,2.06,0,0,1,2.2,1.91v.09h-4.51A2.26,2.26,0,0,1,237.64,915.59Zm5.38,5.93a1.17,1.17,0,0,0,1.13,1.21h.07a1.22,1.22,0,1,0,.22-2.43h-.22a1.17,1.17,0,0,0-1.2,1.14Zm0-6a1.17,1.17,0,0,0,1.13,1.21h.07a1.19,1.19,0,0,0,1.25-1.13v-.08a1.21,1.21,0,0,0-1.2-1.22h-.05a1.18,1.18,0,0,0-1.2,1.16Zm7.58,2.89,7.63,3v-1.53l-5.78-2.14,5.78-2.18V914l-7.63,3v1.41Zm13.4-5.73a2,2,0,0,1,2.12,1.87c0,.12,0,.23,0,.34v3.71a2.12,2.12,0,0,1-4.23.29,1.41,1.41,0,0,1,0-.29v-3.71a2,2,0,0,1,1.77-2.2A1.37,1.37,0,0,1,264,912.68Zm0-1.9a3.94,3.94,0,0,0-4.06,3.82v4a4.06,4.06,0,1,0,8.11.4,2.67,2.67,0,0,0,0-.4v-3.81a3.94,3.94,0,0,0-3.82-4.06Zm5.7,10.59a1.33,1.33,0,1,0,2.65.23.89.89,0,0,0,0-.23,1.33,1.33,0,1,0-2.65-.23A.89.89,0,0,0,269.7,921.37Zm4,1.16h7.08v-1.85h-2.37V911h-4.33v1.85h2.4v7.86H273.7v1.82Zm11.07-8.37,2.54,8.37h2l1.8-5.12,2,5.12h2l2.55-8.37h-2L294,920.23l-2.3-6.07h-1.86l.4,1.09-1.73,5-1.7-6.07Zm16.61,8.37v-6.77H303v-1.6h-1.52V911.8l-1.76.41v1.95H298.2v1.6h1.41v6.77Zm5.82,0h1.41L313.84,911h-1.43l-5.13,11.56Zm-.83-10.39a1.12,1.12,0,0,1,1.22,1v2.24a1.22,1.22,0,0,1-2.43,0V913.3a1.12,1.12,0,0,1,1.08-1.16Zm0-1.34a2.45,2.45,0,0,0-2.59,2.31v2.31a2.6,2.6,0,0,0,5.19,0v-2.16a2.46,2.46,0,0,0-2.46-2.46Zm8.14,6.15a1.12,1.12,0,0,1,1.22,1v2.22a1.22,1.22,0,0,1-2.44,0h0v-2.07a1.11,1.11,0,0,1,1-1.16Zm0-1.34a2.46,2.46,0,0,0-2.6,2.32v2.3a2.6,2.6,0,0,0,5.2,0v-2.16a2.46,2.46,0,0,0-2.46-2.46Z" transform="translate(0 -2.08)"/><polygon class="cls-1" points="199.9 325.78 206.1 325.78 206.1 341.25 199.9 341.25 199.9 325.78 199.9 325.78"/><polygon class="cls-1" points="199.9 243.78 431.5 243.78 431.5 259.25 199.9 259.25 199.9 243.78 199.9 243.78"/><polygon class="cls-1" points="199.9 216.61 215.46 216.61 215.46 232.08 199.9 232.08 199.9 216.61 199.9 216.61"/><polygon class="cls-1" points="199.9 188.98 211.7 188.98 211.7 204.45 199.9 204.45 199.9 188.98 199.9 188.98"/><polygon class="cls-1" points="199.9 161.58 203.3 161.58 203.3 177.05 199.9 177.05 199.9 161.58 199.9 161.58"/><polygon class="cls-1" points="199.9 134.58 204.1 134.58 204.1 150.05 199.9 150.05 199.9 134.58 199.9 134.58"/><polygon class="cls-1" points="199.9 107.58 206.4 107.58 206.4 123.05 199.9 123.05 199.9 107.58 199.9 107.58"/><polygon class="cls-1" points="199.9 80.58 216.9 80.58 216.9 96.05 199.9 96.05 199.9 80.58 199.9 80.58"/><polygon class="cls-1" points="199.9 352.58 256.9 352.58 256.9 368.05 199.9 368.05 199.9 352.58 199.9 352.58"/><polygon class="cls-1" points="199.9 778.61 222.33 778.61 222.33 794.08 199.9 794.08 199.9 778.61 199.9 778.61"/><polygon class="cls-1" points="199.9 751.21 224.13 751.21 224.13 766.68 199.9 766.68 199.9 751.21 199.9 751.21"/><polygon class="cls-1" points="199.9 723.81 207.13 723.81 207.13 739.28 199.9 739.28 199.9 723.81 199.9 723.81"/><polygon class="cls-1" points="199.9 696.41 370.43 696.41 370.43 711.88 199.9 711.88 199.9 696.41 199.9 696.41"/><polygon class="cls-1" points="199.9 614.87 247.93 614.87 247.93 630.33 199.9 630.33 199.9 614.87 199.9 614.87"/><polygon class="cls-1" points="199.9 532.74 262.93 532.74 262.93 548.21 199.9 548.21 199.9 532.74 199.9 532.74"/><polygon class="cls-1" points="199.9 505.34 281.93 505.34 281.93 520.81 199.9 520.81 199.9 505.34 199.9 505.34"/></svg>