<svg id="Layer_1" data-name="Layer 1" xmlns="http://www.w3.org/2000/svg" viewBox="0 0 613.6 499.92"><defs><style>.cls-1{fill:#39325f;}.cls-2{fill:#ebe9f4;}.cls-3,.cls-6{fill:none;stroke:#fff;}.cls-4{fill:#231f20;}.cls-5{fill:#dfdbed;}.cls-6{stroke-width:7px;}.cls-7{isolation:isolate;}</style></defs><title>Good-Night-Cann-3B</title><polygon class="cls-1" points="1.33 475.4 1.33 499.92 609.98 499.92 609.98 475.4 1.33 475.4 1.33 475.4"/><polygon class="cls-2" points="1.33 127.36 1.33 156.16 608.98 156.16 608.98 127.36 1.33 127.36 1.33 127.36"/><polygon class="cls-2" points="1.33 17.76 1.33 46.56 608.98 46.56 608.98 17.76 1.33 17.76 1.33 17.76"/><polygon class="cls-2" points="1.33 72.56 1.33 101.36 608.98 101.36 608.98 72.56 1.33 72.56 1.33 72.56"/><polygon class="cls-2" points="1.33 182.16 1.33 210.96 608.98 210.96 608.98 182.16 1.33 182.16 1.33 182.16"/><polygon class="cls-2" points="1.33 236.96 1.33 265.76 608.98 265.76 608.98 236.96 1.33 236.96 1.33 236.96"/><polygon class="cls-2" points="1.33 291.76 1.33 320.56 608.98 320.56 608.98 291.76 1.33 291.76 1.33 291.76"/><line class="cls-3" x1="1.33" y1="17.66" x2="609.98" y2="17.66"/><path class="cls-4" d="M159.59,448.86h6v-1.92h-1.87v-7.6H160v1.92h1.81v5.68h-2.17v1.92Zm6.77-1.15a1.26,1.26,0,0,0,1.23,1.29h.06a1.3,1.3,0,1,0-1.29-1.31Zm3.6,1.15h6v-1.92H174.1v-7.6h-3.8v1.92h1.81v5.68H170v1.92Zm6.78,0h5.34v-1.92h-2.75l1.79-2.27a4,4,0,0,0,1-2.7,2.7,2.7,0,0,0-2.63-2.78,2.26,2.26,0,0,0-.37,0,4.06,4.06,0,0,0-2.17.63v2.24a2.8,2.8,0,0,1,2-.88,1,1,0,0,1,1.13,1,.67.67,0,0,1,0,.2,2.75,2.75,0,0,1-.71,1.53l-2.63,3.29v1.69Zm8.87-7,2.06,7h2L191,445l1.39,3.82h2l2.08-7h-2l-1.2,4.63-1.63-4.63h-1.89l.34,1-1.23,3.68-1.23-4.63Zm14.15,7v-5.35h1.18v-1.62h-1.18V440l-1.78.4v1.53H196.8v1.62h1.06v5.35Zm4.78,0H206l4.25-9.52h-1.43l-4.23,9.52Zm-.7-8.33a.81.81,0,0,1,.87.73V443a.87.87,0,0,1-1.74,0v-1.62a.8.8,0,0,1,.76-.84h.11Zm0-1.33a2.12,2.12,0,0,0-2.24,2V443a2.24,2.24,0,0,0,4.48,0v-1.69a2.1,2.1,0,0,0-2.09-2.13h-.15Zm7,5.18a.8.8,0,0,1,.87.7v1.75a.86.86,0,0,1-1.72,0v-1.62a.78.78,0,0,1,.72-.83Zm0-1.34a2.11,2.11,0,0,0-2.22,2v1.83a2.23,2.23,0,0,0,4.46,0v-1.71A2.1,2.1,0,0,0,211,443Z" transform="translate(0 0)"/><path class="cls-4" d="M161.06,412.14a1.43,1.43,0,0,1,1.47,1.37,1.21,1.21,0,0,1,0,.19v2.82a1.47,1.47,0,0,1-1.34,1.59,1.48,1.48,0,0,1-1.59-1.35,1,1,0,0,1,0-.24V413.7a1.43,1.43,0,0,1,1.29-1.55Zm0-1.94a3.34,3.34,0,0,0-3.45,3.23v3.13a3.45,3.45,0,1,0,6.9,0v-2.92a3.34,3.34,0,0,0-3.24-3.44Zm4.64,8.51a1.25,1.25,0,0,0,1.21,1.29H167a1.3,1.3,0,1,0-1.29-1.31v0Zm7.22-6.57a1.43,1.43,0,0,1,1.47,1.37,1.21,1.21,0,0,1,0,.19v2.82a1.47,1.47,0,0,1-1.34,1.59,1.48,1.48,0,0,1-1.59-1.35,1,1,0,0,1,0-.24V413.7a1.43,1.43,0,0,1,1.29-1.55Zm0-1.94a3.35,3.35,0,0,0-3.46,3.24v3.12a3.45,3.45,0,0,0,6.9,0h0v-2.92a3.33,3.33,0,0,0-3.22-3.44Zm11.57,7.8v-1.91h-1.15v-5.77h-2l-4.05,6V418h4.05v1.84h2V418Zm-5.1-1.91,2-3v3Zm8.41-3.22,2.06,7h2l1.29-3.82,1.39,3.82h2l2.07-7h-2l-1.2,4.63-1.62-4.63H191.9l.33,1L191,417.52l-1.23-4.63Zm14.16,7v-5.35h1.17V412.9H202V411l-1.79.4v1.53H199v1.62h1.06v5.35Zm4.77,0h1.41l4.25-9.52H211l-4.23,9.52Zm-.7-8.33a.81.81,0,0,1,.87.73V414a.87.87,0,0,1-1.74,0v-1.62a.8.8,0,0,1,.76-.84Zm0-1.33a2.12,2.12,0,0,0-2.24,2V414a2.24,2.24,0,0,0,4.48,0v-1.69a2.12,2.12,0,0,0-2.1-2.12H206Zm7,5.18a.8.8,0,0,1,.87.7v1.75a.86.86,0,1,1-1.72,0v-1.62a.78.78,0,0,1,.72-.83Zm0-1.34a2.11,2.11,0,0,0-2.22,2v1.83a2.23,2.23,0,0,0,4.46,0v-1.71a2.12,2.12,0,0,0-2-2.18H213Z" transform="translate(0 0)"/><path class="cls-4" d="M159.65,390.86h6v-1.92h-1.86v-7.6H160v1.92h1.81v5.68h-2.17v1.92Zm6.78-1.15a1.25,1.25,0,0,0,1.21,1.29h.07a1.3,1.3,0,1,0-1.28-1.32Zm3.68,1.15h5.34v-1.92H172.7l1.79-2.28a4,4,0,0,0,1-2.69,2.7,2.7,0,0,0-2.63-2.78,2.26,2.26,0,0,0-.37,0,4.06,4.06,0,0,0-2.17.63v2.24a2.8,2.8,0,0,1,2-.88,1,1,0,0,1,1.13,1,.67.67,0,0,1,0,.2,2.75,2.75,0,0,1-.71,1.53l-2.63,3.29v1.69Zm6.56,0H182v-1.92h-2.76l1.79-2.28a4,4,0,0,0,1-2.69,2.7,2.7,0,0,0-2.61-2.79l-.39,0a4.06,4.06,0,0,0-2.17.63v2.24a2.8,2.8,0,0,1,2-.88,1,1,0,0,1,1.13,1,.67.67,0,0,1,0,.2,2.75,2.75,0,0,1-.71,1.53l-2.64,3.29v1.69Zm8.88-7,2.06,7h2L190.9,387l1.38,3.82h2l2.07-7h-2l-1.2,4.63-1.63-4.63h-1.89l.34,1-1.23,3.68-1.24-4.63Zm14.15,7v-5.35h1.18v-1.62H199.7V382l-1.79.4v1.53h-1.17v1.62h1.06v5.35Zm4.78,0h1.41l4.24-9.52h-1.42l-4.23,9.52Zm-.7-8.33a.82.82,0,0,1,.87.75V385a.87.87,0,0,1-1.74,0v-1.62a.8.8,0,0,1,.76-.84h.11Zm0-1.33a2.12,2.12,0,0,0-2.24,2V385a2.24,2.24,0,0,0,4.48,0v-1.69a2.1,2.1,0,0,0-2.09-2.13h-.15Zm7,5.18a.8.8,0,0,1,.87.7v1.75a.87.87,0,0,1-1.73,0v-1.62a.79.79,0,0,1,.75-.83Zm0-1.34a2.12,2.12,0,0,0-2.23,2v1.82a2.24,2.24,0,0,0,4.47,0v-1.71a2.1,2.1,0,0,0-2.1-2.12Z" transform="translate(0 0)"/><path class="cls-4" d="M186.34,330.42a1.67,1.67,0,0,1,1.74,1.61.67.67,0,0,1,0,.2v3a1.75,1.75,0,1,1-3.49.26,1.13,1.13,0,0,1,0-.26v-3a1.69,1.69,0,0,1,1.54-1.81Zm0-1.57A3.24,3.24,0,0,0,183,332v3.34a3.34,3.34,0,0,0,6.68,0h0v-3.13a3.23,3.23,0,0,0-3.12-3.34Z" transform="translate(0 0)"/><path class="cls-4" d="M186.34,303.07a1.67,1.67,0,0,1,1.74,1.61.67.67,0,0,1,0,.2v3.05a1.75,1.75,0,1,1-3.49.26,1.13,1.13,0,0,1,0-.26v-3.05a1.69,1.69,0,0,1,1.54-1.81Zm0-1.57a3.24,3.24,0,0,0-3.35,3.13V308a3.34,3.34,0,0,0,6.68,0h0v-3.13a3.23,3.23,0,0,0-3.12-3.34h-.21Z" transform="translate(0 0)"/><path class="cls-4" d="M186.34,275.72a1.67,1.67,0,0,1,1.74,1.61.67.67,0,0,1,0,.2v3.05a1.75,1.75,0,1,1-3.49.26,1.13,1.13,0,0,1,0-.26v-3.05a1.69,1.69,0,0,1,1.54-1.81Zm0-1.57a3.24,3.24,0,0,0-3.35,3.13v3.34a3.34,3.34,0,0,0,6.68,0h0v-3.13a3.23,3.23,0,0,0-3.12-3.34Z" transform="translate(0 0)"/><path class="cls-4" d="M186.34,248.37a1.67,1.67,0,0,1,1.74,1.61.67.67,0,0,1,0,.2v3a1.75,1.75,0,1,1-3.49.26,1.13,1.13,0,0,1,0-.26v-3a1.69,1.69,0,0,1,1.54-1.81Zm0-1.57a3.24,3.24,0,0,0-3.35,3.13v3.34a3.34,3.34,0,0,0,6.68,0h0v-3.13a3.23,3.23,0,0,0-3.12-3.34Z" transform="translate(0 0)"/><path class="cls-4" d="M186.34,221a1.67,1.67,0,0,1,1.74,1.61.67.67,0,0,1,0,.2v3.05a1.75,1.75,0,1,1-3.49.26,1.13,1.13,0,0,1,0-.26v-3.05a1.69,1.69,0,0,1,1.54-1.81Zm0-1.57a3.24,3.24,0,0,0-3.35,3.13v3.34a3.34,3.34,0,0,0,6.68,0h0v-3.13a3.23,3.23,0,0,0-3.12-3.34Z" transform="translate(0 0)"/><path class="cls-4" d="M177.29,193.67a1.67,1.67,0,0,1,1.74,1.61.67.67,0,0,1,0,.2v3a1.75,1.75,0,1,1-3.49.26,1.13,1.13,0,0,1,0-.26v-3a1.69,1.69,0,0,1,1.54-1.81Zm0-1.57a3.24,3.24,0,0,0-3.35,3.13v3.34a3.34,3.34,0,0,0,6.68,0h0v-3.13a3.23,3.23,0,0,0-3.12-3.34Zm4.69,8.71a1.09,1.09,0,0,0,2.18,0h0a1.09,1.09,0,0,0-2.18,0Zm6.89-7.14a1.66,1.66,0,0,1,1.73,1.6.74.74,0,0,1,0,.21v3a1.74,1.74,0,1,1-3.48,0v-3a1.67,1.67,0,0,1,1.52-1.81Zm0-1.57a3.24,3.24,0,0,0-3.35,3.13v3.34a3.34,3.34,0,0,0,6.68,0h0v-3.13a3.23,3.23,0,0,0-3.12-3.34Zm5.51,5.49h1.36a1.37,1.37,0,0,1,1.49,1.23.41.41,0,0,1,0,.11,1.45,1.45,0,0,1-1.48,1.4h-.1a3.1,3.1,0,0,1-2-.69v1.82a5.38,5.38,0,0,0,2.09.46,2.88,2.88,0,0,0,3.12-2.62.61.61,0,0,0,0-.14,2.42,2.42,0,0,0-1.48-2.33,2.26,2.26,0,0,0,1.21-2.14,2.65,2.65,0,0,0-2.7-2.59h-.23a4.52,4.52,0,0,0-1.91.43v1.74a3.08,3.08,0,0,1,1.85-.58,1.19,1.19,0,0,1,1.33,1.05.66.66,0,0,1,0,.14,1.15,1.15,0,0,1-1.15,1.17h-1.44v1.54Z" transform="translate(0 0)"/><path class="cls-4" d="M177.28,166.32a1.68,1.68,0,0,1,1.73,1.62,1.2,1.2,0,0,1,0,.19v3.05a1.75,1.75,0,1,1-3.49.26,1.13,1.13,0,0,1,0-.26v-3.05a1.69,1.69,0,0,1,1.54-1.81Zm0-1.57a3.24,3.24,0,0,0-3.35,3.13v3.34a3.34,3.34,0,0,0,6.68,0h0v-3.13a3.24,3.24,0,0,0-3.14-3.34Zm4.69,8.71a1.09,1.09,0,0,0,2.18,0h0a1.09,1.09,0,0,0-2.18,0Zm6.88-7.14a1.67,1.67,0,0,1,1.74,1.61.67.67,0,0,1,0,.2v3.05a1.75,1.75,0,1,1-3.49.26,1.13,1.13,0,0,1,0-.26v-3.05a1.69,1.69,0,0,1,1.54-1.81Zm0-1.57a3.24,3.24,0,0,0-3.34,3.14v3.33a3.34,3.34,0,0,0,6.67.37,2.28,2.28,0,0,0,0-.37v-3.13a3.23,3.23,0,0,0-3.12-3.34Zm4.6,9.66h5.82v-1.53h-2v-8h-3.57v1.52h2v6.47h-2.28v1.53Z" transform="translate(0 0)"/><path class="cls-4" d="M177.3,139a1.66,1.66,0,0,1,1.73,1.6.74.74,0,0,1,0,.21v3.05a1.74,1.74,0,0,1-3.48,0v-3.05a1.69,1.69,0,0,1,1.54-1.81Zm0-1.57a3.24,3.24,0,0,0-3.35,3.13v3.34a3.34,3.34,0,0,0,6.68,0h0v-3.13a3.24,3.24,0,0,0-3.14-3.34Zm4.69,8.71a1.09,1.09,0,0,0,2.18,0h0a1.09,1.09,0,0,0-2.18,0Zm6.89-7.14a1.68,1.68,0,0,1,1.73,1.62,1.2,1.2,0,0,1,0,.19v3.05a1.75,1.75,0,1,1-3.49.26,1.13,1.13,0,0,1,0-.26v-3.05a1.69,1.69,0,0,1,1.56-1.81Zm0-1.57a3.24,3.24,0,0,0-3.35,3.13v3.34a3.34,3.34,0,0,0,6.68,0h0v-3.13a3.24,3.24,0,0,0-3.14-3.34Zm4.67,9.66h5.24v-1.53H195.6l2.12-2.69a4.15,4.15,0,0,0,1.09-2.76,2.62,2.62,0,0,0-2.56-2.69,2,2,0,0,0-.35,0,3.83,3.83,0,0,0-2.17.71V140a2.89,2.89,0,0,1,2.06-.93,1.29,1.29,0,0,1,1.39,1.18v.19a3,3,0,0,1-.86,1.82l-2.77,3.51Z" transform="translate(0 0)"/><path class="cls-4" d="M186.34,111.62a1.67,1.67,0,0,1,1.74,1.61.67.67,0,0,1,0,.2v3a1.75,1.75,0,1,1-3.49.26,1.13,1.13,0,0,1,0-.26v-3a1.69,1.69,0,0,1,1.54-1.81Zm0-1.57a3.24,3.24,0,0,0-3.35,3.13v3.34a3.34,3.34,0,0,0,6.68,0h0v-3.13a3.23,3.23,0,0,0-3.12-3.34Z" transform="translate(0 0)"/><path class="cls-4" d="M175.27,92.36h5.82V90.83h-2v-8h-3.56v1.52h2v6.47H175.3v1.53Zm6.72-1a1.09,1.09,0,0,0,2.18,0h0a1.09,1.09,0,0,0-2.18,0Zm3.33,1h5.82V90.83H189.2v-8h-3.57v1.52h2v6.47h-2.28v1.53Zm6.63,0h5.24V90.83H194l2.13-2.69a4.17,4.17,0,0,0,1.09-2.76,2.62,2.62,0,0,0-2.56-2.69,2,2,0,0,0-.35,0,3.75,3.75,0,0,0-2.17.71v1.81a2.89,2.89,0,0,1,2.06-.93,1.29,1.29,0,0,1,1.38,1.19v.18a3,3,0,0,1-.85,1.82L192,91v1.37Z" transform="translate(0 0)"/><path class="cls-4" d="M186.34,56.92a1.67,1.67,0,0,1,1.74,1.61.67.67,0,0,1,0,.2v3.05a1.75,1.75,0,1,1-3.49.26,1.13,1.13,0,0,1,0-.26V58.73a1.69,1.69,0,0,1,1.54-1.81Zm0-1.57A3.24,3.24,0,0,0,183,58.48v3.34a3.34,3.34,0,0,0,6.68,0h0V58.69a3.23,3.23,0,0,0-3.12-3.34Z" transform="translate(0 0)"/><path class="cls-4" d="M176.67,29.57a1.67,1.67,0,0,1,1.74,1.61.67.67,0,0,1,0,.2v3.05a1.75,1.75,0,1,1-3.49.26,1.13,1.13,0,0,1,0-.26V31.38a1.69,1.69,0,0,1,1.54-1.81Zm0-1.57a3.24,3.24,0,0,0-3.34,3.14v3.33a3.34,3.34,0,1,0,6.67.37,2.28,2.28,0,0,0,0-.37V31.34A3.23,3.23,0,0,0,176.88,28Zm4.69,8.71a1.1,1.1,0,1,0,0-.21A.74.74,0,0,0,181.36,36.71Zm6.89-7.14A1.67,1.67,0,0,1,190,31.18a.67.67,0,0,1,0,.2v3.05a1.75,1.75,0,1,1-3.49.26,1.13,1.13,0,0,1,0-.26V31.38A1.69,1.69,0,0,1,188,29.57Zm0-1.57a3.24,3.24,0,0,0-3.34,3.14v3.33a3.34,3.34,0,0,0,6.67.37,2.28,2.28,0,0,0,0-.37V31.34A3.23,3.23,0,0,0,188.46,28Zm11.4,7.71V34.19h-1.22v-6h-1.6l-4.2,6.2v1.37h4.2v1.95h1.6V35.71Zm-5.32-1.52,2.5-3.77v3.77Z" transform="translate(0 0)"/><path class="cls-1" d="M155.21,9.66h2.23l2-5.67,1.68,5.67h2.23L165.9.14h-2.22l-1.59,7-2-7h-2l.32,1.16-1.94,5.87-1.61-7h-2.22l2.55,9.52Zm17.23,0V7.74H169V5.82h3.15V3.91H169V2.06h3.43V.14H167V9.66Zm1.84,0h2V.14h-2Zm11-9.21A6.64,6.64,0,0,0,182.71,0a4.79,4.79,0,0,0-4.93,4.65V4.9a4.72,4.72,0,0,0,4.51,4.91h.24a4.43,4.43,0,0,0,4.64-4.21,4,4,0,0,0,0-.49,8.07,8.07,0,0,0-.12-1.39h-4.51V5.53H185v.21a2.24,2.24,0,0,1-2.38,2.09h-.06A2.92,2.92,0,0,1,182.69,2a5.47,5.47,0,0,1,2.57.61V.45Zm9.57,9.21h2V.14h-2V3.91h-4.36V.14h-2V9.66h2V5.82h4.36Zm5.61,0h2V2.06h2.31V.14h-6.61V2.06h2.31v7.6Zm10.65,0h1.42L216.77.14h-1.43Zm-.7-8.33a.81.81,0,0,1,.87.73V3.79a.87.87,0,0,1-1.74,0V2.17a.81.81,0,0,1,.78-.84Zm0-1.33a2.12,2.12,0,0,0-2.24,2V3.82a2.24,2.24,0,0,0,4.48,0V2.13A2.1,2.1,0,0,0,210.56,0Zm7,5.18a.8.8,0,0,1,.87.71V7.63a.86.86,0,0,1-1.72,0V6a.78.78,0,0,1,.74-.82Zm0-1.34a2.11,2.11,0,0,0-2.22,2V7.67a2.23,2.23,0,0,0,4.46,0h0V6a2.1,2.1,0,0,0-2.1-2.12h-.14Z" transform="translate(0 0)"/><path class="cls-4" d="M275.8,448.86h6v-1.92H280v-7.6h-3.79v1.92H278v5.68h-2.2Zm10.36-7.72a1.41,1.41,0,0,1,1.46,1.36,1.21,1.21,0,0,1,0,.19v2.83a1.46,1.46,0,1,1-2.92,0h0v-2.83a1.43,1.43,0,0,1,1.28-1.55Zm0-1.94a3.35,3.35,0,0,0-3.46,3.24v3.12a3.45,3.45,0,1,0,6.9,0v-2.92a3.33,3.33,0,0,0-3.22-3.44Zm4.63,8.51a1.3,1.3,0,0,0,2.6,0,1.3,1.3,0,1,0-2.6,0Zm9.28-6.45v-1.92h-4.62L295,444.5h1.27c1,0,1.92.21,1.92,1.21a1.36,1.36,0,0,1-1.4,1.32h-.06a3.16,3.16,0,0,1-2.2-1v2.39a5.18,5.18,0,0,0,2.31.56,3.1,3.1,0,0,0,3.38-2.79,2.9,2.9,0,0,0,0-.51,3,3,0,0,0-2.94-3.05h-.23l.18-1.4Zm1.22,7.6h6v-1.92h-1.86v-7.6h-3.79v1.92h1.8v5.68h-2.17v1.92Zm15-7h-1.9v7h1.9v-4.1a1.15,1.15,0,0,1,2.3-.1,1.21,1.21,0,0,1,0,.19v4h1.9v-4a1.11,1.11,0,0,1,1-1.23h.17a1.1,1.1,0,0,1,1.13,1.07,1,1,0,0,1,0,.17v4h1.9V444.3a2.42,2.42,0,0,0-2.26-2.56h-.13a2.15,2.15,0,0,0-2.06,1.26,2.25,2.25,0,0,0-2.14-1.26,2.07,2.07,0,0,0-1.78,1v-.88Zm15,0v.92a2.65,2.65,0,0,0-2.21-1.06,3.54,3.54,0,0,0,0,7,2.72,2.72,0,0,0,2.2-1v.49a1.77,1.77,0,0,1-1.71,1.82,1.38,1.38,0,0,1-.29,0,4.67,4.67,0,0,1-2.35-.7v2a5.26,5.26,0,0,0,2.34.52c2.42,0,3.88-1.29,3.88-3.85v-6.13Zm-.11,3.39a1.66,1.66,0,1,1-1.66-1.66A1.66,1.66,0,0,1,331.18,445.25Zm3.15,3.58h1.41l4.25-9.52h-1.43Zm8.46-7h-1.91v7h1.91v-4.1a1.14,1.14,0,0,1,2.28.09h0v4H347v-4a1.14,1.14,0,0,1,1-1.24h.16a1.1,1.1,0,0,1,1.13,1.07,1,1,0,0,1,0,.17v4h1.9v-4.55a2.42,2.42,0,0,0-2.26-2.56h-.13a2.12,2.12,0,0,0-2.06,1.26,2.25,2.25,0,0,0-2.14-1.26,2,2,0,0,0-1.78,1v-.88Zm11.81-2.69h-1.91v9.66h1.91v-9.66Z" transform="translate(0 0)"/><path class="cls-4" d="M282.9,412.14a1.43,1.43,0,0,1,1.46,1.38,1.09,1.09,0,0,1,0,.18v2.82a1.47,1.47,0,0,1-1.34,1.59,1.48,1.48,0,0,1-1.59-1.35,1,1,0,0,1,0-.24V413.7a1.44,1.44,0,0,1,1.29-1.56Zm0-1.94a3.35,3.35,0,0,0-3.46,3.24v3.12a3.45,3.45,0,0,0,6.9,0v-2.92a3.34,3.34,0,0,0-3.24-3.44Zm4.63,8.51a1.3,1.3,0,0,0,2.6,0,1.3,1.3,0,1,0-2.6,0Zm4.49-2.8h1.35c.73,0,1.23.39,1.23,1a1.16,1.16,0,0,1-1.23,1.09h-.06a3,3,0,0,1-2-.69v2.24a5.83,5.83,0,0,0,2.1.43,3,3,0,0,0,3.24-2.74v0a2.43,2.43,0,0,0-1.4-2.28,2.27,2.27,0,0,0,1.13-2.11,2.72,2.72,0,0,0-3-2.64,4.61,4.61,0,0,0-1.9.41v2.13a3.19,3.19,0,0,1,1.82-.55c.67,0,1.09.37,1.09.91a.9.9,0,0,1-.9.9H292v1.92Zm11.31-3.65v-1.92h-4.61l-.45,5.16h1.27c1,0,1.92.21,1.92,1.21a1.35,1.35,0,0,1-1.4,1.29H300a3.16,3.16,0,0,1-2.2-1v2.39a5,5,0,0,0,2.31.56,3.09,3.09,0,0,0,3.37-2.78,3.26,3.26,0,0,0-2.93-3.57,1.77,1.77,0,0,0-.23,0l.18-1.4Zm9.48.63h-1.9v7h1.9v-4.1a1.15,1.15,0,0,1,2.3-.1,1.21,1.21,0,0,1,0,.19v4H317v-4a1.14,1.14,0,0,1,1-1.24h.15a1.1,1.1,0,0,1,1.13,1.07,1,1,0,0,1,0,.17v4h1.9v-4.55a2.42,2.42,0,0,0-2.26-2.56h-.13a2.15,2.15,0,0,0-2.06,1.26,2.25,2.25,0,0,0-2.14-1.26,2,2,0,0,0-1.78,1v-.88Zm15,0v.92a2.65,2.65,0,0,0-2.21-1.06,3.53,3.53,0,0,0,0,7,2.68,2.68,0,0,0,2.19-1v.49a1.78,1.78,0,0,1-1.74,1.82,1.15,1.15,0,0,1-.26,0,4.67,4.67,0,0,1-2.35-.7v2a5.26,5.26,0,0,0,2.34.52c2.42,0,3.88-1.29,3.88-3.85v-6.13Zm-.11,3.39a1.66,1.66,0,1,1-1.66-1.66A1.66,1.66,0,0,1,327.7,416.28Zm3.15,3.58h1.41l4.25-9.52h-1.43Zm8.46-7H337.4v7h1.91v-4.1a1.14,1.14,0,0,1,2.28.09h0v4h1.9v-4a1.14,1.14,0,0,1,1-1.24h.15a1.09,1.09,0,0,1,1.13,1.24v4h1.9V415.3a2.42,2.42,0,0,0-2.26-2.56h-.13a2.12,2.12,0,0,0-2.06,1.26,2.25,2.25,0,0,0-2.14-1.26,2,2,0,0,0-1.78,1v-.88Zm11.81-2.69h-1.91v9.66h1.91v-9.66Z" transform="translate(0 0)"/><path class="cls-4" d="M276.15,390.86h6v-1.92h-1.86v-7.6h-3.8v1.92h1.81v5.68h-2.17v1.92Zm6.69,0h6v-1.92H287v-7.6h-3.8v1.92H285v5.68h-2.17v1.92Zm6.78-1.15a1.25,1.25,0,0,0,1.21,1.29h.07a1.3,1.3,0,1,0-1.28-1.32v0Zm10.56-.69v-1.91H299v-5.77h-2l-4,6V389h4v1.84h2V389Zm-5.09-1.91,2-3v3Zm6.92-.2h1.34c.73,0,1.23.39,1.23,1a1.16,1.16,0,0,1-1.23,1.09h-.06a2.92,2.92,0,0,1-2-.69v2.24a5.83,5.83,0,0,0,2.1.43,3,3,0,0,0,3.23-2.75v0a2.41,2.41,0,0,0-1.4-2.29,2.24,2.24,0,0,0,1.13-2.1,2.72,2.72,0,0,0-3-2.64,4.64,4.64,0,0,0-1.9.41v2.13a3.27,3.27,0,0,1,1.82-.55c.67,0,1.09.37,1.09.91a.9.9,0,0,1-.9.9H302v2Zm13.88-3H314v7h1.9v-4.1a1.15,1.15,0,1,1,2.3-.1,1.21,1.21,0,0,1,0,.19v4h1.9v-4a1.11,1.11,0,0,1,1-1.23h.17a1.1,1.1,0,0,1,1.13,1.07,1,1,0,0,1,0,.17v4h1.9v-4.55a2.42,2.42,0,0,0-2.26-2.56h-.13a2.15,2.15,0,0,0-2.06,1.26,2.25,2.25,0,0,0-2.14-1.26,2.07,2.07,0,0,0-1.78,1v-.88Zm15,0v.92a2.65,2.65,0,0,0-2.21-1.06,3.54,3.54,0,0,0,0,7,2.72,2.72,0,0,0,2.2-1v.49a1.78,1.78,0,0,1-1.74,1.82,1.15,1.15,0,0,1-.26,0,4.67,4.67,0,0,1-2.35-.7v2a5.26,5.26,0,0,0,2.34.52c2.42,0,3.88-1.29,3.88-3.85v-6.13Zm-.11,3.39a1.66,1.66,0,1,1-1.66-1.66A1.66,1.66,0,0,1,330.78,387.3Zm3.15,3.58h1.41l4.25-9.52h-1.43Zm8.46-7h-1.91v7h1.91v-4.1a1.14,1.14,0,1,1,2.28.09v4h1.9v-4a1.14,1.14,0,0,1,1-1.24h.15a1.09,1.09,0,0,1,1.13,1.24v4h1.9v-4.55a2.42,2.42,0,0,0-2.26-2.56h-.13a2.12,2.12,0,0,0-2.06,1.26,2.27,2.27,0,0,0-2.14-1.26,2,2,0,0,0-1.78,1v-.88Zm11.81-2.69h-1.91v9.66h1.91V381.2Z" transform="translate(0 0)"/><path class="cls-4" d="M315.34,330.42a1.67,1.67,0,0,1,1.74,1.61.67.67,0,0,1,0,.2v3a1.75,1.75,0,1,1-3.49.26,1.13,1.13,0,0,1,0-.26v-3a1.69,1.69,0,0,1,1.54-1.81Zm0-1.57A3.24,3.24,0,0,0,312,332v3.34a3.34,3.34,0,0,0,6.68,0h0v-3.13a3.23,3.23,0,0,0-3.12-3.34Z" transform="translate(0 0)"/><path class="cls-4" d="M315.34,303.07a1.67,1.67,0,0,1,1.74,1.61.67.67,0,0,1,0,.2v3.05a1.75,1.75,0,1,1-3.49.26,1.13,1.13,0,0,1,0-.26v-3.05a1.69,1.69,0,0,1,1.54-1.81Zm0-1.57a3.24,3.24,0,0,0-3.35,3.13V308a3.34,3.34,0,0,0,6.68,0h0v-3.13a3.23,3.23,0,0,0-3.12-3.34h-.21Z" transform="translate(0 0)"/><path class="cls-4" d="M315.34,275.72a1.67,1.67,0,0,1,1.74,1.61.67.67,0,0,1,0,.2v3.05a1.75,1.75,0,1,1-3.49.26,1.13,1.13,0,0,1,0-.26v-3.05a1.69,1.69,0,0,1,1.54-1.81Zm0-1.57a3.24,3.24,0,0,0-3.35,3.13v3.34a3.34,3.34,0,0,0,6.68,0h0v-3.13a3.23,3.23,0,0,0-3.12-3.34Z" transform="translate(0 0)"/><path class="cls-4" d="M315.34,248.37a1.67,1.67,0,0,1,1.74,1.61.67.67,0,0,1,0,.2v3a1.75,1.75,0,1,1-3.49.26,1.13,1.13,0,0,1,0-.26v-3a1.69,1.69,0,0,1,1.54-1.81Zm0-1.57a3.24,3.24,0,0,0-3.35,3.13v3.34a3.34,3.34,0,0,0,6.68,0h0v-3.13a3.23,3.23,0,0,0-3.12-3.34Z" transform="translate(0 0)"/><path class="cls-4" d="M315.34,221a1.67,1.67,0,0,1,1.74,1.61.67.67,0,0,1,0,.2v3.05a1.75,1.75,0,1,1-3.49.26,1.13,1.13,0,0,1,0-.26v-3.05a1.69,1.69,0,0,1,1.54-1.81Zm0-1.57a3.24,3.24,0,0,0-3.35,3.13v3.34a3.34,3.34,0,0,0,6.68,0h0v-3.13a3.23,3.23,0,0,0-3.12-3.34Z" transform="translate(0 0)"/><path class="cls-4" d="M307.09,193.67a1.66,1.66,0,0,1,1.73,1.6.74.74,0,0,1,0,.21v3a1.74,1.74,0,1,1-3.48,0h0v-3a1.67,1.67,0,0,1,1.52-1.81Zm0-1.57a3.24,3.24,0,0,0-3.35,3.13v3.34a3.34,3.34,0,0,0,6.68,0h0v-3.13a3.23,3.23,0,0,0-3.12-3.34Zm4.69,8.71a1.09,1.09,0,0,0,2.18,0h0a1.09,1.09,0,0,0-2.18,0Zm4.25-3.22h1.36a1.37,1.37,0,0,1,1.49,1.23.41.41,0,0,1,0,.11,1.45,1.45,0,0,1-1.48,1.4h-.1a3.1,3.1,0,0,1-2-.69v1.82a5.38,5.38,0,0,0,2.09.46,2.88,2.88,0,0,0,3.12-2.62.61.61,0,0,0,0-.14,2.42,2.42,0,0,0-1.48-2.33,2.26,2.26,0,0,0,1.21-2.14,2.65,2.65,0,0,0-2.7-2.59h-.23a4.52,4.52,0,0,0-1.91.43v1.74a3.08,3.08,0,0,1,1.85-.58,1.19,1.19,0,0,1,1.33,1.05.66.66,0,0,1,0,.14,1.15,1.15,0,0,1-1.15,1.17H316v1.54Zm5.6,4.17h5.83v-1.53h-2v-8h-3.57v1.52h2v6.47H321.6v1.53Z" transform="translate(0 0)"/><path class="cls-4" d="M307.07,166.32a1.67,1.67,0,0,1,1.74,1.61.67.67,0,0,1,0,.2v3.05a1.75,1.75,0,1,1-3.49.26,1.13,1.13,0,0,1,0-.26v-3.05a1.69,1.69,0,0,1,1.54-1.81Zm0-1.57a3.24,3.24,0,0,0-3.34,3.14v3.33a3.34,3.34,0,0,0,6.67.37,2.28,2.28,0,0,0,0-.37v-3.13a3.23,3.23,0,0,0-3.12-3.34Zm4.69,8.71a1.1,1.1,0,1,0,0-.21A.74.74,0,0,0,311.76,173.46Zm3.34,1h5.82v-1.53H319v-8h-3.6v1.52h2v6.47h-2.3v1.53Zm6.55,0h5.82v-1.53h-2v-8H322v1.52h2v6.47h-2.28v1.53Z" transform="translate(0 0)"/><path class="cls-4" d="M306.91,139a1.68,1.68,0,0,1,1.73,1.62,1.2,1.2,0,0,1,0,.19v3.05a1.75,1.75,0,1,1-3.49.26,1.13,1.13,0,0,1,0-.26v-3.05a1.69,1.69,0,0,1,1.56-1.81Zm0-1.57a3.24,3.24,0,0,0-3.35,3.13v3.34a3.34,3.34,0,0,0,6.68,0h0v-3.13a3.24,3.24,0,0,0-3.14-3.34Zm4.69,8.71a1.09,1.09,0,0,0,2.18,0h0a1.09,1.09,0,0,0-2.18,0Zm3.33,1h5.82v-1.53h-2v-8h-3.56v1.52h2v6.47h-2.28v1.53Zm12.18-8v-1.52h-4.45l-.48,4.93h1.27c1.17,0,2.15.39,2.15,1.52a1.63,1.63,0,0,1-1.63,1.63h-.11a3.21,3.21,0,0,1-2.25-1v2a4.77,4.77,0,0,0,2.33.64,3.06,3.06,0,0,0,3.3-2.79,2.08,2.08,0,0,0,0-.43c0-1.86-1.32-3-3.33-3h-.09l.25-1.94Z" transform="translate(0 0)"/><path class="cls-4" d="M315.34,111.62a1.67,1.67,0,0,1,1.74,1.61.67.67,0,0,1,0,.2v3a1.75,1.75,0,1,1-3.49.26,1.13,1.13,0,0,1,0-.26v-3a1.69,1.69,0,0,1,1.54-1.81Zm0-1.57a3.24,3.24,0,0,0-3.35,3.13v3.34a3.34,3.34,0,0,0,6.68,0h0v-3.13a3.23,3.23,0,0,0-3.12-3.34Z" transform="translate(0 0)"/><path class="cls-4" d="M300,92.36h5.82V90.83h-2v-8h-3.57v1.52h2v6.47H300v1.53Zm10.17-8.09a1.67,1.67,0,0,1,1.74,1.61.67.67,0,0,1,0,.2v3a1.75,1.75,0,1,1-3.49.26,1.13,1.13,0,0,1,0-.26v-3A1.69,1.69,0,0,1,310,84.27Zm0-1.57a3.24,3.24,0,0,0-3.34,3.14v3.33a3.34,3.34,0,0,0,6.67.37,2.28,2.28,0,0,0,0-.37V86a3.23,3.23,0,0,0-3.12-3.34h-.21Zm4.69,8.71a1.09,1.09,0,0,0,2.18,0h0a1.09,1.09,0,0,0-2.18,0Zm9-7V82.89h-4.45l-.48,4.93h1.28c1.16,0,2.14.39,2.14,1.52A1.63,1.63,0,0,1,320.72,91h-.11a3.21,3.21,0,0,1-2.25-1v2a4.81,4.81,0,0,0,2.34.64A3,3,0,0,0,324,89.94a3.39,3.39,0,0,0,0-.55c0-1.86-1.31-3-3.33-3h-.08l.25-1.94Zm1.26,8h5.82V90.88H329v-8h-3.6V84.4h2v6.47h-2.28V92.4Z" transform="translate(0 0)"/><path class="cls-4" d="M315.34,56.92a1.67,1.67,0,0,1,1.74,1.61.67.67,0,0,1,0,.2v3.05a1.75,1.75,0,1,1-3.49.26,1.13,1.13,0,0,1,0-.26V58.73a1.69,1.69,0,0,1,1.54-1.81Zm0-1.57A3.24,3.24,0,0,0,312,58.48v3.34a3.34,3.34,0,0,0,6.68,0h0V58.69a3.23,3.23,0,0,0-3.12-3.34Z" transform="translate(0 0)"/><path class="cls-4" d="M306.92,29.57a1.67,1.67,0,0,1,1.74,1.61.67.67,0,0,1,0,.2v3.05a1.75,1.75,0,1,1-3.49.26,1.13,1.13,0,0,1,0-.26V31.38a1.69,1.69,0,0,1,1.54-1.81Zm0-1.57a3.24,3.24,0,0,0-3.35,3.13v3.34a3.34,3.34,0,0,0,6.68,0h0V31.34A3.23,3.23,0,0,0,307.13,28Zm4.69,8.71a1.09,1.09,0,0,0,2.18,0h0a1.09,1.09,0,0,0-2.18,0Zm4.26-3.22h1.35a1.37,1.37,0,0,1,1.49,1.23.41.41,0,0,1,0,.11,1.45,1.45,0,0,1-1.48,1.4h-.1a3.1,3.1,0,0,1-2-.69v1.82a5.38,5.38,0,0,0,2.09.46,2.88,2.88,0,0,0,3.12-2.62.57.57,0,0,0,0-.13,2.42,2.42,0,0,0-1.48-2.34,2.27,2.27,0,0,0,1.22-2.14A2.66,2.66,0,0,0,317.38,28h-.22a4.52,4.52,0,0,0-1.91.43v1.74a3.08,3.08,0,0,1,1.85-.58,1.21,1.21,0,0,1,1.34,1.06.57.57,0,0,1,0,.13A1.17,1.17,0,0,1,317.28,32h-1.42v1.54Zm11.22-3.83V28.14h-4.45l-.47,4.93h1.27c1.16,0,2.14.39,2.14,1.52A1.61,1.61,0,0,1,324,36.22h-.12a3.22,3.22,0,0,1-2.26-1v2a4.81,4.81,0,0,0,2.34.64,3,3,0,0,0,3.29-2.67,3.39,3.39,0,0,0,0-.55c0-1.86-1.31-3-3.33-3h-.08l.25-1.94Z" transform="translate(0 0)"/><path class="cls-4" d="M36.72,448.86l2.65-6.59v6.59H41v-9.52H39l-3,7.49-3-7.49H31.07v9.52h1.59v-6.59l2.65,6.59Zm6.4-5.11a3.4,3.4,0,0,1,1.8-.55,1.3,1.3,0,0,1,1.44,1.14,1,1,0,0,1,0,.24v.57a2.43,2.43,0,0,0-1.66-.66,2.24,2.24,0,0,0-2.36,2.12v.13a2.18,2.18,0,0,0,2.1,2.27h.23a2.12,2.12,0,0,0,1.69-.78v.63H47.9V444.6a2.47,2.47,0,0,0-2.17-2.77,2.29,2.29,0,0,0-.64,0,4.78,4.78,0,0,0-2,.44v1.48Zm.75,3a1.25,1.25,0,0,1,1.1-1.38,1.25,1.25,0,0,1,.28,2.48h-.14A1.18,1.18,0,0,1,43.87,446.75Zm8.19-.18,1.46,2.3h1.8L53,445.42,55.31,442h-1.8l-1.46,2.28L50.62,442H48.81l2.33,3.45-2.33,3.44h1.81l1.44-2.3Zm14.25,0a3.57,3.57,0,0,1-2.32.83,3.32,3.32,0,0,1,0-6.63,3.52,3.52,0,0,1,2.32.84v-1.84a4.9,4.9,0,1,0,0,8.65v-1.84Zm1.8,2.27h3.16c1.78,0,3.08-1,3.08-2.6a2.35,2.35,0,0,0-1.53-2.3,2.18,2.18,0,0,0,1.25-2.11c0-1.53-1.23-2.51-2.91-2.51h-3v9.52Zm4.6-2.81c0,.88-.64,1.28-1.44,1.28H69.7v-2.59h1.57a1.27,1.27,0,0,1,1.43,1.09,1.62,1.62,0,0,1,0,.22Zm-.28-4a1.12,1.12,0,0,1-1.07,1.17H69.7v-2.34h1.46a1.14,1.14,0,0,1,1.26,1,1.09,1.09,0,0,1,0,.18Zm3.64,6.82H79.5a4.76,4.76,0,0,0,0-9.52H76.07Zm3.42-8a3.24,3.24,0,0,1,0,6.47H77.67v-6.47Z" transform="translate(0 0)"/><path class="cls-4" d="M37.12,419.86l2.64-6.59v6.59h1.6v-9.52H39.44l-3,7.49-3-7.49H31.51v9.52H33.1v-6.59l2.65,6.59Zm6.4-5.11a3.4,3.4,0,0,1,1.8-.55,1.31,1.31,0,0,1,1.44,1.15,1.77,1.77,0,0,1,0,.23v.57a2.43,2.43,0,0,0-1.65-.66,2.24,2.24,0,0,0-2.36,2.12v.13a2.18,2.18,0,0,0,2.1,2.27h.23a2.07,2.07,0,0,0,1.68-.78v.63H48.3V415.6a2.47,2.47,0,0,0-2.17-2.77,2.29,2.29,0,0,0-.64,0,4.78,4.78,0,0,0-2,.44v1.48Zm.75,3a1.17,1.17,0,0,1,1.23-1.12,1.2,1.2,0,0,1,1.25,1.12,1.25,1.25,0,0,1-2.48,0Zm8.19-.18,1.46,2.3h1.8l-2.31-3.44L55.72,413h-1.8l-1.46,2.28L51,413H49.19l2.33,3.45-2.33,3.44H51l1.44-2.3Zm8.82,2.3h1.6v-8H65.3v-1.52H58.86v1.52h2.42v8Zm11.92,0h1.59v-9.52H73.2v4H68.31v-4h-1.6v9.52h1.6v-4H73.2Zm10.49-2.27a3.57,3.57,0,0,1-2.32.83,3.32,3.32,0,0,1,0-6.63,3.52,3.52,0,0,1,2.32.84V410.8a4.91,4.91,0,1,0,0,8.63Z" transform="translate(0 0)"/><path class="cls-4" d="M45.81,390.86h1.6v-8h2.42v-1.52H43.39v1.52h2.42v8Zm3.85-3.45a3.59,3.59,0,1,0,3.6-3.58h0a3.54,3.54,0,0,0-3.59,3.49Zm1.55,0a2.06,2.06,0,0,1,2-2.08,2.09,2.09,0,0,1,0,4.17,2.05,2.05,0,0,1-2-2.09Zm8.89,3.45v-5.57h1.25V384H60.1v-2l-1.45.33V384H57.4v1.32h1.17v5.57Zm2.52-5.11a3.43,3.43,0,0,1,1.81-.55,1.31,1.31,0,0,1,1.44,1.15,1.77,1.77,0,0,1,0,.23v.57a2.43,2.43,0,0,0-1.65-.66,2.24,2.24,0,0,0-2.36,2.12v.13A2.18,2.18,0,0,0,64,391h.23a2.07,2.07,0,0,0,1.68-.78v.63h1.54V386.6a2.47,2.47,0,0,0-2.17-2.77,2.29,2.29,0,0,0-.64,0,4.93,4.93,0,0,0-2,.43v1.49Zm.76,3a1.17,1.17,0,0,1,1.23-1.12,1.2,1.2,0,0,1,1.25,1.12,1.25,1.25,0,0,1-2.48,0Zm7.28-7.54H69.12v9.66h1.54V381.2Z" transform="translate(0 0)"/><path class="cls-4" d="M38.28,335.58a3.47,3.47,0,0,0,.1-.78,3.2,3.2,0,0,0-3.08-3.32h-.2a3.59,3.59,0,1,0,.09,7.18,5.15,5.15,0,0,0,2.52-.63v-1.52a4.4,4.4,0,0,1-2.41.75,2,2,0,0,1-2.1-1.68Zm-3.19-2.81a1.68,1.68,0,0,1,1.8,1.55v.07H33.18A1.86,1.86,0,0,1,35.09,332.77Zm6.84,3.44,1.46,2.3H45.2l-2.31-3.44,2.31-3.45H43.39l-1.46,2.28-1.44-2.28h-1.8L41,335.07l-2.32,3.44h1.8Zm3.57-1.14a3.59,3.59,0,1,0,3.59-3.59h0A3.54,3.54,0,0,0,45.5,335Zm1.56,0A2,2,0,0,1,49,333h.09a2.09,2.09,0,1,1-2,2.18Zm10.51.16v-1.44H53.92v1.44Zm2.86,3.28H62v-8h2.42V329H58v1.52h2.42v8Zm11.91,0h1.6V329h-1.6v4H67.45v-4H65.86v9.52h1.59v-4h4.89v4Zm10.5-2.27a3.57,3.57,0,0,1-2.32.83,3.32,3.32,0,0,1,0-6.63,3.52,3.52,0,0,1,2.32.84v-1.84a4.9,4.9,0,1,0,0,8.64Z" transform="translate(0 0)"/><path class="cls-4" d="M34.72,311.16h3.43a4.76,4.76,0,0,0,0-9.52H34.72Zm3.41-8a3.24,3.24,0,0,1,0,6.47H36.31v-6.47Zm6.16.95a2.19,2.19,0,0,0,1.09,1.95A2.5,2.5,0,0,0,44,308.39a3.09,3.09,0,0,0,6.17,0,2.48,2.48,0,0,0-1.42-2.31,2.26,2.26,0,0,0,1.1-2,2.77,2.77,0,0,0-5.53,0Zm1.21,4.26a1.56,1.56,0,1,1,1.6,1.52h-.05a1.52,1.52,0,0,1-1.55-1.47Zm.3-4.26a1.26,1.26,0,1,1,1.14,1.14A1.26,1.26,0,0,1,45.8,304.11Zm9.38,3.77v-1.44H51.53v1.44ZM58,311.16h1.6v-8h2.42v-1.52H55.62v1.52H58v8Zm11.91,0h1.6v-9.52H70v4H65.12v-4h-1.6v9.52h1.6v-4H70v4Zm10.5-2.27a3.57,3.57,0,0,1-2.32.83,3.32,3.32,0,0,1,0-6.63,3.52,3.52,0,0,1,2.32.84v-1.84a4.9,4.9,0,1,0,0,8.64Z" transform="translate(0 0)"/><path class="cls-4" d="M47.55,281.54a3.59,3.59,0,0,1-2.33.83,3.32,3.32,0,0,1,0-6.63,3.55,3.55,0,0,1,2.33.84v-1.84a4.9,4.9,0,0,0-4.62,8.64,4.81,4.81,0,0,0,2.29.58,5,5,0,0,0,2.33-.58Zm1.79,2.27H52.5c1.78,0,3.08-1,3.08-2.6a2.34,2.34,0,0,0-1.52-2.3,2.17,2.17,0,0,0,1.24-2.11c0-1.53-1.23-2.51-2.91-2.51h-3ZM54,281a1.27,1.27,0,0,1-1.24,1.3H51V279.7h1.57A1.29,1.29,0,0,1,54,280.8,1.34,1.34,0,0,1,54,281Zm-.28-4a1.14,1.14,0,0,1-1.09,1.17H51v-2.34h1.46a1.15,1.15,0,0,1,1.27,1A1,1,0,0,1,53.72,277Zm10.57-2.34a6.61,6.61,0,0,0-2.6-.5,4.79,4.79,0,0,0-4.95,4.63v.27A4.73,4.73,0,0,0,61.27,284h.21a4.44,4.44,0,0,0,4.65-4.22,3.38,3.38,0,0,0,0-.45A7.07,7.07,0,0,0,66,278H61.44v1.44h2.92a1.93,1.93,0,0,1,0,.34,2.68,2.68,0,0,1-2.71,2.63h-.16a3.32,3.32,0,0,1,.16-6.63,5.26,5.26,0,0,1,2.6.66v-1.75Zm9.19,9.16h1.78L71.7,274.3H69.93l-3.56,9.52h1.78l.85-2.35h3.63l.85,2.35Zm-2.66-7.43,1.29,3.55H69.52Z" transform="translate(0 0)"/><path class="cls-4" d="M47.83,254.19a3.57,3.57,0,0,1-2.32.83,3.32,3.32,0,0,1,0-6.63,3.52,3.52,0,0,1,2.32.84v-1.84a4.91,4.91,0,1,0,0,8.63Zm1.8,2.27h3.16c1.78,0,3.08-1,3.08-2.61a2.35,2.35,0,0,0-1.52-2.29,2.17,2.17,0,0,0,1.24-2.11c0-1.53-1.23-2.51-2.91-2.51h-3Zm4.6-2.81c0,.88-.64,1.28-1.44,1.28H51.22v-2.59h1.57a1.28,1.28,0,0,1,1.43,1.09A1.62,1.62,0,0,1,54.23,253.65Zm-.28-4a1.12,1.12,0,0,1-1.07,1.17H51.22v-2.34h1.46a1.14,1.14,0,0,1,1.26,1A1.09,1.09,0,0,1,54,249.65Zm3.64,6.82H61A4.76,4.76,0,0,0,61,247H57.57v9.52Zm3.42-8a3.24,3.24,0,0,1,0,6.47H59.19v-6.47Zm12.14,8h1.77L71.37,247H69.59L66,256.46h1.78l.86-2.35h3.62l.86,2.35ZM70.49,249l1.28,3.55H69.18Z" transform="translate(0 0)"/><path class="cls-4" d="M42.84,229.11h1.6v-8h2.42v-1.52H40.42v1.52h2.42v8Zm11.92,0h1.59v-9.52H54.76v4H49.87v-4H48.28v9.52h1.59v-4h4.89Zm10.5-2.27a3.59,3.59,0,0,1-2.33.83,3.32,3.32,0,0,1,0-6.63,3.55,3.55,0,0,1,2.33.84V220a4.91,4.91,0,1,0,0,8.63v-1.79Zm7.81,2.27h1.78l-3.56-9.52H69.51L66,229.11h1.78l.85-2.35h3.62l.86,2.35Zm-2.66-7.43,1.29,3.55H69.11Z" transform="translate(0 0)"/><path class="cls-4" d="M51.91,199.49a3.59,3.59,0,0,1-2.33.83,3.32,3.32,0,0,1,0-6.63,3.55,3.55,0,0,1,2.33.84v-1.84a4.91,4.91,0,1,0,0,8.63Zm1.79,2.27h3.17c1.77,0,3.07-1,3.07-2.61a2.34,2.34,0,0,0-1.52-2.29,2.19,2.19,0,0,0,1.24-2.12c0-1.52-1.23-2.5-2.91-2.5h-3ZM58.31,199a1.27,1.27,0,0,1-1.25,1.29H55.3v-2.59h1.57a1.28,1.28,0,0,1,1.43,1.11A1.34,1.34,0,0,1,58.31,199ZM58,195a1.14,1.14,0,0,1-1.09,1.17H55.3v-2.34h1.45a1.15,1.15,0,0,1,1.27,1A1,1,0,0,1,58,195Zm9.75,6.82h1.6v-9.52h-1.6V199L63,192.24H61.09v.13l.65,1v8.39h1.59V195.6l4.48,6.16Z" transform="translate(0 0)"/><path class="cls-4" d="M52.71,172.14a3.59,3.59,0,0,1-2.33.83,3.32,3.32,0,0,1,0-6.63,3.55,3.55,0,0,1,2.33.84v-1.84A4.9,4.9,0,0,0,48.09,174a4.81,4.81,0,0,0,2.29.58,5,5,0,0,0,2.33-.58Zm1.79,2.27h3.16c1.78,0,3.08-1,3.08-2.61a2.34,2.34,0,0,0-1.52-2.29,2.19,2.19,0,0,0,1.24-2.12c0-1.52-1.23-2.5-2.91-2.5h-3Zm4.6-2.81c0,.88-.64,1.28-1.44,1.28H56.09v-2.59h1.57a1.27,1.27,0,0,1,1.43,1.09A1.62,1.62,0,0,1,59.1,171.6Zm-.27-4a1.14,1.14,0,0,1-1.09,1.17H56.09v-2.34h1.46a1.15,1.15,0,0,1,1.27,1A1,1,0,0,1,58.83,167.6Zm10.24,4.55a3.57,3.57,0,0,1-2.32.83,3.32,3.32,0,0,1,0-6.63,3.52,3.52,0,0,1,2.32.84v-1.84a4.9,4.9,0,1,0,0,8.64Z" transform="translate(0 0)"/><path class="cls-4" d="M51.77,144.79a3.59,3.59,0,0,1-2.33.83,3.32,3.32,0,0,1,0-6.63,3.55,3.55,0,0,1,2.33.84V138a4.91,4.91,0,1,0,0,8.63V144.8Zm1.79,2.27h3.16c1.78,0,3.08-1,3.08-2.61a2.34,2.34,0,0,0-1.52-2.29,2.17,2.17,0,0,0,1.24-2.11c0-1.53-1.23-2.51-2.91-2.51h-3Zm4.61-2.82a1.27,1.27,0,0,1-1.24,1.3H55.16v-2.59h1.56a1.29,1.29,0,0,1,1.44,1.1A1.34,1.34,0,0,1,58.17,144.24Zm-.28-4a1.14,1.14,0,0,1-1.09,1.17H55.16v-2.34h1.45a1.15,1.15,0,0,1,1.27,1A1,1,0,0,1,57.89,140.24Zm10.57-2.34a6.57,6.57,0,0,0-2.59-.5,4.79,4.79,0,0,0-5,4.57v.33a4.73,4.73,0,0,0,4.53,4.91h.22A4.43,4.43,0,0,0,70.26,143a3.53,3.53,0,0,0,0-.46,7.35,7.35,0,0,0-.11-1.32H65.59v1.44h2.92a1.93,1.93,0,0,1,0,.34,2.68,2.68,0,0,1-2.71,2.63h-.16a3.32,3.32,0,0,1,.17-6.63,5.2,5.2,0,0,1,2.59.66V137.9Z" transform="translate(0 0)"/><path class="cls-4" d="M47.85,117.44a3.59,3.59,0,0,1-2.33.83,3.32,3.32,0,0,1,0-6.63,3.55,3.55,0,0,1,2.33.84v-1.84a4.91,4.91,0,1,0,0,8.63Zm1.79,2.27H52.8c1.78,0,3.08-1,3.08-2.61a2.34,2.34,0,0,0-1.52-2.29,2.17,2.17,0,0,0,1.24-2.11c0-1.53-1.23-2.51-2.91-2.51h-3Zm4.61-2.82a1.27,1.27,0,0,1-1.24,1.3H51.24v-2.59H52.8a1.29,1.29,0,0,1,1.44,1.1A1.34,1.34,0,0,1,54.25,116.89Zm-.28-4a1.14,1.14,0,0,1-1.09,1.17H51.24v-2.34h1.45a1.15,1.15,0,0,1,1.27,1A1,1,0,0,1,54,112.89Zm3.64,6.82H61a4.76,4.76,0,0,0,0-9.52H57.57v9.52Zm3.41-8a3.24,3.24,0,0,1,0,6.47H59.2v-6.47Zm8.58,8h1.78l3.56-9.52H73.16l-2.66,7.66-2.67-7.66H66.05l3.55,9.52Z" transform="translate(0 0)"/><path class="cls-4" d="M52,90.09a3.59,3.59,0,0,1-2.33.83,3.32,3.32,0,0,1,0-6.63,3.55,3.55,0,0,1,2.33.84V83.29a4.91,4.91,0,1,0,0,8.63Zm1.79,2.27H57c1.77,0,3.07-1,3.07-2.6a2.34,2.34,0,0,0-1.52-2.3,2.19,2.19,0,0,0,1.24-2.12c0-1.52-1.23-2.5-2.91-2.5h-3v9.52Zm4.61-2.81a1.27,1.27,0,0,1-1.25,1.29H55.39V88.24H57a1.28,1.28,0,0,1,1.43,1.11,1.34,1.34,0,0,1,0,.2Zm-.28-4A1.14,1.14,0,0,1,57,86.72H55.39V84.37h1.45a1.15,1.15,0,0,1,1.27,1A1,1,0,0,1,58.12,85.55Zm3.64,6.82h3.43a4.76,4.76,0,0,0,0-9.52H61.76Zm3.41-8a3.24,3.24,0,0,1,0,6.47H63.35V84.37Z" transform="translate(0 0)"/><path class="cls-4" d="M42.86,65h1.59V57h2.43V55.48H40.44V57h2.42Zm11.91,0h1.6V55.48h-1.6v4H49.88v-4H48.29V65h1.59V61h4.89Zm10.5-2.27a3.57,3.57,0,0,1-2.32.83,3.32,3.32,0,0,1,0-6.63,3.52,3.52,0,0,1,2.32.84V55.93a4.9,4.9,0,1,0,0,8.64ZM69.53,65H71.3l3.56-9.52H73.08l-2.66,7.66-2.67-7.66H66L69.56,65Z" transform="translate(0 0)"/><path class="cls-4" d="M34.55,37.66H38a4.76,4.76,0,0,0,0-9.52H34.57v9.52Zm3.41-8a3.24,3.24,0,0,1,0,6.47H36.14V29.66Zm7.19,8h1.9l2.72-4.26a3.67,3.67,0,0,0,.63-2A3.37,3.37,0,1,0,47,34.75h.1l-2,2.94Zm.14-6.29A1.74,1.74,0,1,1,47,33.11a1.74,1.74,0,0,1-1.74-1.74Zm10.06,3V32.93H51.7v1.44Zm2.86,3.28H59.8v-8h2.43V28.13H55.79v1.52h2.42Zm11.91,0h1.6V28.13h-1.6v4H65.24v-4h-1.6v9.52h1.6v-4h4.88Zm10.5-2.27a3.57,3.57,0,0,1-2.32.83,3.32,3.32,0,0,1,0-6.63,3.52,3.52,0,0,1,2.32.84V28.58a4.91,4.91,0,1,0,0,8.63Z" transform="translate(0 0)"/><path class="cls-1" d="M51.45,9.66h2V.14h-2Zm4.09,0h3.53a4.76,4.76,0,0,0,0-9.52H55.54Zm3.51-7.6a2.85,2.85,0,0,1,0,5.68H57.53V2.06Z" transform="translate(0 0)"/><path class="cls-3" d="M609.48,358.72V18.16M121.83,358.72V18.16m129,340.56V18.16m149,340.56V18.16" transform="translate(0 0)"/><path class="cls-1" d="M266.86,7.06a3.29,3.29,0,0,1-2.16.77,2.92,2.92,0,0,1,0-5.84,3.28,3.28,0,0,1,2.16.78V.49A5,5,0,0,0,264.7,0a4.91,4.91,0,0,0,0,9.81,5,5,0,0,0,2.16-.49Zm.93-2.15A4.9,4.9,0,1,0,272.69,0a4.8,4.8,0,0,0-4.9,4.7Zm2,0a2.85,2.85,0,1,1,2.86,2.92,2.86,2.86,0,0,1-2.86-2.92ZM285,9.66h2V.14h-2V6.2L280.83.14H278.5V.28l.66,1.05V9.66h2V4.16L285,9.66Zm10.57-2.6a3.37,3.37,0,0,1-2.17.77,2.92,2.92,0,1,1,0-5.84,3.32,3.32,0,0,1,2.17.78V.49A5.1,5.1,0,0,0,293.4,0a4.91,4.91,0,0,0,0,9.81,5.1,5.1,0,0,0,2.17-.49Zm7.09,2.6V7.74h-3.43V5.82h3.15V3.91h-3.15V2.06h3.43V.14h-5.42V9.66Zm7.75,0h2V.14h-2V6.2L306.24.14h-2.35V.28l.66,1.05V9.66h2V4.16l3.88,5.5Zm5.63,0h2V2.06h2.31V.14h-6.61V2.06h2.31v7.6Zm5.63,0h2V6.12h.49c1.16,0,2,1.47,2.31,3.54h2c-.22-2-.93-3.73-2.12-4.34a2.34,2.34,0,0,0,1.72-2.41c0-1.76-1.29-2.77-3.15-2.77h-3.29V9.66Zm4.4-6.52a1,1,0,0,1-.94,1.06H323.7V2.06H325a1,1,0,0,1,1.11.88,1.34,1.34,0,0,1,0,.2Zm9.85,6.52h2.23L334.62.14h-2.23l-3.53,9.52h2.23l.71-2h3.41l.71,2Zm-2.41-6.92,1.05,3h-2.1l1-3Zm6.58,6.92h2V2.06h2.31V.14h-6.6V2.06h2.31v7.6Zm5.63,0h2V.14h-2Zm3.5-4.75A4.9,4.9,0,1,0,354.12,0a4.8,4.8,0,0,0-4.9,4.7Zm2,0a2.85,2.85,0,1,1,2.86,2.92,2.86,2.86,0,0,1-2.86-2.92Zm15.2,4.75h2V.14h-2V6.2L362.24.14H360V.28l.66,1.05V9.66h2V4.16l3.88,5.5Zm8.74-7h-1.9v7h1.9V5.56a1.15,1.15,0,0,1,2.3-.1,1.21,1.21,0,0,1,0,.19v4h1.9v-4a1.14,1.14,0,0,1,1-1.24h.15a1.1,1.1,0,0,1,1.13,1.07,1,1,0,0,1,0,.17v4h1.91V5.1a2.43,2.43,0,0,0-2.28-2.56h-.12a2.15,2.15,0,0,0-2.06,1.26,2.25,2.25,0,0,0-2.14-1.26,2.07,2.07,0,0,0-1.78,1V2.66Zm15,0v.92A2.65,2.65,0,0,0,388,2.52a3.53,3.53,0,0,0,0,7,2.68,2.68,0,0,0,2.19-1V9a1.77,1.77,0,0,1-1.71,1.82,1.38,1.38,0,0,1-.29,0,4.67,4.67,0,0,1-2.35-.7v2a5.26,5.26,0,0,0,2.34.52c2.42,0,3.88-1.29,3.88-3.85V2.66Zm-.11,3.39a1.66,1.66,0,1,1-1.66-1.66,1.66,1.66,0,0,1,1.66,1.66Zm3.15,3.58h1.42L398.86.11h-1.43Zm8.46-7h-1.91v7h1.91V5.53a1.14,1.14,0,1,1,2.28.09h0v4h1.9v-4a1.14,1.14,0,0,1,1-1.24H407a1.1,1.1,0,0,1,1.13,1.07,1,1,0,0,1,0,.17v4H410V5.07a2.42,2.42,0,0,0-2.26-2.56h-.13a2.12,2.12,0,0,0-2.06,1.26,2.25,2.25,0,0,0-2.14-1.26,2,2,0,0,0-1.78,1V2.63ZM413.51,0H411.6V9.66h1.91V0Z" transform="translate(0 0)"/><path class="cls-5" d="M188,493.54h2.42v-4.31H191c1.41,0,2.4,1.79,2.81,4.31h2.5c-.27-2.49-1.14-4.53-2.59-5.28a2.83,2.83,0,0,0,2.09-2.92c0-2.14-1.56-3.37-3.82-3.37h-4v11.57Zm5.34-7.93a1.22,1.22,0,0,1-1.16,1.29.54.54,0,0,1-.18,0h-1.58v-2.6H192a1.24,1.24,0,0,1,1.34,1.13v.18Zm4.73,2a4.5,4.5,0,0,1,2.17-.62c.89,0,1.57.42,1.57,1.44v.46a3,3,0,0,0-1.85-.61,2.67,2.67,0,0,0-2.83,2.5V491a2.62,2.62,0,0,0,2.48,2.75h.31a2.43,2.43,0,0,0,1.89-.81v.63h2.31v-5.09c0-2.46-1.32-3.55-3.6-3.55a7.08,7.08,0,0,0-2.45.49v2.19Zm1.34,3.39a1.12,1.12,0,0,1,1.18-1.06h0a1.06,1.06,0,1,1,.21,2.11h-.21a1.12,1.12,0,0,1-1.19-1Zm9.46,2.57V487h1.42v-2H208.9v-2.35l-2.18.49V485h-1.43v2h1.29v6.5Zm4.93-8.47h-2.32v8.47h2.32Zm-2.52-2.47a1.36,1.36,0,1,0,1.36-1.37,1.34,1.34,0,0,0-1.36,1.32Zm4,6.7a4.41,4.41,0,1,0,4.42-4.4h0a4.35,4.35,0,0,0-4.4,4.3Zm2.35,0a2,2,0,1,1,2,2.16,2.08,2.08,0,0,1-2-2.16Zm11.07,0a4.4,4.4,0,1,0,4.4-4.4,4.35,4.35,0,0,0-4.4,4.3Zm2.34,0a2.1,2.1,0,0,1,2-2.14h0a2.15,2.15,0,0,1,0,4.3,2.1,2.1,0,0,1-2.1-2.1v-.09Zm12.42-3.89H241.8v-.61a.84.84,0,0,1,.76-.91h.14a2.09,2.09,0,0,1,.78.16v-2.31a3.64,3.64,0,0,0-.87-.11,2.81,2.81,0,0,0-3.12,2.44,3.49,3.49,0,0,0,0,.56v.77h-1.19v2h1.19v6.16h2.32v-6.16h1.65v-2Zm6.4,8.13h2.42V484.3h2.8V482h-8v2.33h2.8v9.24Zm5-4.24a4.4,4.4,0,1,0,4.4-4.4,4.35,4.35,0,0,0-4.4,4.3Zm2.34,0a2.1,2.1,0,0,1,2-2.14h0a2.15,2.15,0,0,1,0,4.3,2.1,2.1,0,0,1-2.06-2.14Zm10.73,4.24V487h1.43v-2h-1.43v-2.35l-2.18.49V485h-1.42v2h1.29v6.5Zm2.88-6A4.42,4.42,0,0,1,273,487c.89,0,1.57.42,1.57,1.44v.46a3,3,0,0,0-1.86-.61,2.66,2.66,0,0,0-2.82,2.49V491a2.61,2.61,0,0,0,2.46,2.75h.33a2.46,2.46,0,0,0,1.89-.81v.63h2.31v-5.09c0-2.46-1.33-3.55-3.61-3.55a7,7,0,0,0-2.44.49v2.19Zm1.34,3.39a1.11,1.11,0,0,1,1.16-1.06h0a1.06,1.06,0,1,1-1.19,1.06ZM281,481.8h-2.33v11.74H281Zm13.77,8.57a4,4,0,0,1-2.63.94,3.56,3.56,0,0,1,0-7.11,4,4,0,0,1,2.63.95v-2.77a6.13,6.13,0,0,0-2.63-.59,6,6,0,0,0,0,11.93,6.13,6.13,0,0,0,2.63-.59v-2.76Zm2,3.17h4.11c2.23,0,3.83-1.3,3.83-3.2a2.89,2.89,0,0,0-1.71-2.76,2.65,2.65,0,0,0,1.38-2.53c0-1.84-1.49-3.08-3.6-3.08h-4v11.57Zm5.45-3.54c0,.83-.57,1.21-1.34,1.21h-1.7v-2.44h1.7a1.18,1.18,0,0,1,1.33,1A1.62,1.62,0,0,1,302.22,490Zm-.32-4.63a1,1,0,0,1-.91,1.09h-1.81V484.3h1.58a1,1,0,0,1,1.13.85A.81.81,0,0,1,301.9,485.37Zm4.71,8.17H311A5.79,5.79,0,0,0,311,482h-4.29v11.57Zm4.27-9.24a3.46,3.46,0,0,1,0,6.91H309V484.3Zm13.87,9.24V487h1.43v-2H324.8v-2.35l-2.18.49V485H321.2v2h1.29v6.5Zm2-4.24a4.41,4.41,0,1,0,4.42-4.4h0a4.36,4.36,0,0,0-4.41,4.31Zm2.35,0a2.1,2.1,0,0,1,2-2.14h0a2.15,2.15,0,0,1,0,4.3,2.1,2.1,0,0,1-2.06-2.14Zm13.31,4.24h2.42V484.3h2.8V482h-8v2.33h2.8v9.24Zm14.54,0h2.42V482H357v4.58h-5.29V482H349.3v11.57h2.41v-4.66H357v4.66Zm12.82-3.17a4,4,0,0,1-2.63.94,3.56,3.56,0,0,1,0-7.11,4,4,0,0,1,2.63.95v-2.77a6.13,6.13,0,0,0-2.63-.59,6,6,0,0,0,0,11.93,6.13,6.13,0,0,0,2.63-.59v-2.76Zm9.57-2.17H381a2,2,0,0,1,2.11,1.89v.11a2.06,2.06,0,0,1-2.11,2h-.13a3.85,3.85,0,0,1-2.42-.8v1.67a5.26,5.26,0,0,0,2.49.6,3.4,3.4,0,0,0,3.67-3.11c0-.07,0-.14,0-.21a3,3,0,0,0-1.87-2.91,2.71,2.71,0,0,0,1.55-2.62,3.13,3.13,0,0,0-3.21-3H381a4.56,4.56,0,0,0-2.29.55V484a3.73,3.73,0,0,1,2.24-.68,1.77,1.77,0,1,1,.37,3.52h-1.9v1.4Zm11.28-5a2.35,2.35,0,0,1,2.44,2.27,1.13,1.13,0,0,1,0,.26v4a2.44,2.44,0,1,1-4.87.31,1.61,1.61,0,0,1,0-.31v-4a2.35,2.35,0,0,1,2.18-2.52Zm0-1.43a3.8,3.8,0,0,0-3.9,3.7v4.28a3.91,3.91,0,0,0,7.81.4,2.67,2.67,0,0,0,0-.4v-4.07a3.8,3.8,0,0,0-3.69-3.91Zm5.93,10.83a1.05,1.05,0,0,0,1,1.08h.07a1.08,1.08,0,1,0,0-2.16h0a1.05,1.05,0,0,0-1.09,1v.07Zm12-1.59v-1.4H407V482h-1.47l-5.29,7.81V491h5.29v2.5H407V491Zm-6.73-1.4,3.7-5.51v5.51ZM412,492.7a1,1,0,1,0,1-1A1,1,0,0,0,412,492.7Zm0-6.37a1,1,0,1,0,1-1A1,1,0,0,0,412,486.33Zm5.37,7.21h6.84v-1.4h-2.47V482h-4.06v1.4h2.6v8.77h-2.91v1.37Z" transform="translate(0 0)"/><polygon class="cls-1" points="400.4 79.2 608.65 79.2 608.65 94.67 400.4 94.67 400.4 79.2 400.4 79.2"/><polygon class="cls-1" points="400.4 24.55 406.78 24.55 406.78 40.02 400.4 40.02 400.4 24.55 400.4 24.55"/><polygon class="cls-1" points="400.4 189.36 405.97 189.36 405.97 204.82 400.4 204.82 400.4 189.36 400.4 189.36"/><polygon class="cls-1" points="400.4 161.21 402.02 161.21 402.02 176.68 400.4 176.68 400.4 161.21 400.4 161.21"/><polygon class="cls-1" points="400.4 134.06 402.68 134.06 402.68 149.52 400.4 149.52 400.4 134.06 400.4 134.06"/><line class="cls-6" y1="358.72" x2="608.65" y2="358.72"/><g class="cls-7"><path class="cls-4" d="M404.15,374.77v3.05a2.66,2.66,0,1,1-5.31,0v-3.05a2.66,2.66,0,1,1,5.31,0Zm-4.61,0v3a2,2,0,1,0,3.92,0v-3a2,2,0,1,0-3.92,0Z" transform="translate(0 0)"/><path class="cls-4" d="M408.85,373.67v1.65a1.67,1.67,0,0,1-3.33,0v-1.65a1.67,1.67,0,0,1,3.33,0Zm-2.76,0v1.62a1.1,1.1,0,0,0,2.19,0v-1.62a1.1,1.1,0,0,0-2.19,0Zm5.25-1.47h.58l-3.64,8.16h-.56Zm2.77,5.05v1.65a1.67,1.67,0,0,1-3.33,0v-1.65a1.67,1.67,0,0,1,3.33,0Zm-2.77,0v1.61a1.11,1.11,0,0,0,2.21,0v-1.61a1.11,1.11,0,0,0-2.21,0Z" transform="translate(0 0)"/></g><g class="cls-7"><path class="cls-4" d="M592.09,379.72h2.15v-6.86h-2v-.65h2.67v7.51h1.81v.65h-4.65Z" transform="translate(0 0)"/><path class="cls-4" d="M598.32,379.31a.58.58,0,0,1,.59.59.58.58,0,0,1-.59.59.57.57,0,0,1-.59-.59A.58.58,0,0,1,598.32,379.31Z" transform="translate(0 0)"/><path class="cls-4" d="M601.26,380.37h-.81l3.07-7.51h-3.45v-.65h4.17v.6Z" transform="translate(0 0)"/><path class="cls-4" d="M608.34,373.67v1.65a1.67,1.67,0,0,1-3.33,0v-1.65a1.67,1.67,0,0,1,3.33,0Zm-2.76,0v1.62a1.1,1.1,0,0,0,2.19,0v-1.62a1.1,1.1,0,0,0-2.19,0Zm5.25-1.47h.58l-3.64,8.16h-.56Zm2.77,5.05v1.65a1.67,1.67,0,0,1-3.33,0v-1.65a1.67,1.67,0,0,1,3.33,0Zm-2.77,0v1.61a1.11,1.11,0,0,0,2.21,0v-1.61a1.11,1.11,0,0,0-2.21,0Z" transform="translate(0 0)"/></g><g class="cls-7"><path class="cls-4" d="M461.94,379.84a4.23,4.23,0,0,1-2.28.65,4.2,4.2,0,0,1,0-8.4,4.23,4.23,0,0,1,2.28.65v.84a3.51,3.51,0,0,0-2.28-.8,3.52,3.52,0,0,0,0,7,3.51,3.51,0,0,0,2.28-.8Z" transform="translate(0 0)"/><path class="cls-4" d="M463.56,374.91a3.41,3.41,0,0,1,1.65-.43,1.93,1.93,0,0,1,2.12,2.11v3.78h-.68v-.73a2.06,2.06,0,0,1-3.72-1.09,2,2,0,0,1,2.08-1.93,2.08,2.08,0,0,1,1.64.81v-.84a1.39,1.39,0,0,0-1.49-1.47,2.91,2.91,0,0,0-1.6.5Zm1.56,5a1.38,1.38,0,1,0,0-2.75,1.44,1.44,0,0,0-1.5,1.37A1.46,1.46,0,0,0,465.12,379.93Z" transform="translate(0 0)"/><path class="cls-4" d="M469.75,375.61a1.91,1.91,0,0,1,1.84-1.13,2.17,2.17,0,0,1,2.23,2.35v3.54h-.67V377a1.65,1.65,0,0,0-1.7-1.8,1.63,1.63,0,0,0-1.7,1.73v3.49h-.68V374.6h.68Z" transform="translate(0 0)"/><path class="cls-4" d="M476.25,375.61a1.88,1.88,0,0,1,1.83-1.13,2.17,2.17,0,0,1,2.23,2.35v3.54h-.67V377a1.64,1.64,0,0,0-1.7-1.8,1.62,1.62,0,0,0-1.69,1.73v3.49h-.69V374.6h.69Z" transform="translate(0 0)"/><path class="cls-4" d="M482.19,374.91a3.34,3.34,0,0,1,1.64-.43,1.93,1.93,0,0,1,2.12,2.11v3.78h-.68v-.73a1.91,1.91,0,0,1-1.64.85,2,2,0,0,1-2.08-1.94,2,2,0,0,1,2.09-1.93,2.06,2.06,0,0,1,1.63.81v-.84a1.39,1.39,0,0,0-1.49-1.47,2.88,2.88,0,0,0-1.59.5Zm1.56,5a1.38,1.38,0,1,0,0-2.75,1.38,1.38,0,1,0,0,2.75Z" transform="translate(0 0)"/><path class="cls-4" d="M488.38,380.37h-.69v-8.28h.69V376a2.58,2.58,0,0,1,2.4-1.49,3,3,0,0,1,0,6,2.57,2.57,0,0,1-2.4-1.48Zm2.3-.55a2.34,2.34,0,1,0-2.3-2.34A2.28,2.28,0,0,0,490.68,379.82Z" transform="translate(0 0)"/><path class="cls-4" d="M495.45,372.2a.5.5,0,0,1,.51.51.49.49,0,0,1-.51.5.5.5,0,0,1-.51-.5A.51.51,0,0,1,495.45,372.2Zm.34,8.17h-.68V374.6h.68Z" transform="translate(0 0)"/><path class="cls-4" d="M498.28,375.61a1.88,1.88,0,0,1,1.83-1.13,2.17,2.17,0,0,1,2.23,2.35v3.54h-.67V377a1.64,1.64,0,0,0-1.7-1.8,1.62,1.62,0,0,0-1.69,1.73v3.49h-.69V374.6h.69Z" transform="translate(0 0)"/><path class="cls-4" d="M506.69,374.48a3,3,0,1,1-3,3A3,3,0,0,1,506.69,374.48Zm0,5.34a2.34,2.34,0,1,0-2.29-2.34A2.28,2.28,0,0,0,506.69,379.82Z" transform="translate(0 0)"/><path class="cls-4" d="M511.43,372.2a.51.51,0,0,1,.52.51.51.51,0,1,1-.52-.51Zm.35,8.17h-.69V374.6h.69Z" transform="translate(0 0)"/><path class="cls-4" d="M518.51,379a2.59,2.59,0,0,1-2.39,1.48,3,3,0,0,1,0-6,2.6,2.6,0,0,1,2.39,1.49v-3.88h.68v8.28h-.68Zm-2.31-3.86a2.34,2.34,0,1,0,2.31,2.33A2.29,2.29,0,0,0,516.2,375.15Z" transform="translate(0 0)"/><path class="cls-4" d="M523.88,375.6a2.13,2.13,0,0,0-1.35-.49c-.72,0-1.13.37-1.13.88s.21.58.61.83l1.12.67a1.64,1.64,0,0,1,1,1.45c0,1-.78,1.55-1.92,1.55a3.16,3.16,0,0,1-1.48-.38v-.81a2.19,2.19,0,0,0,1.48.58c.77,0,1.21-.39,1.21-.92,0-.35-.18-.62-.7-.93l-1.15-.71a1.49,1.49,0,0,1-.86-1.33c0-.84.63-1.51,1.85-1.51a2.74,2.74,0,0,1,1.34.34Z" transform="translate(0 0)"/><path class="cls-4" d="M530.28,382.53l-.41.31a8.94,8.94,0,0,1,0-10.76l.41.31a8.88,8.88,0,0,0,0,10.14Z" transform="translate(0 0)"/></g><g class="cls-7"><path class="cls-4" d="M531.45,374.6l1.49,4.91,1.58-4.22-.29-.69H535l2.08,4.91,1.5-4.91h.73l-1.82,5.77h-.73l-1.83-4.29-1.61,4.29h-.74l-1.81-5.77Z" transform="translate(0 0)"/><path class="cls-4" d="M540.93,380.37V375.2h-1.17v-.6H541v-1.5l.66-.19v1.69h1.21v.6h-1.21v5.17Z" transform="translate(0 0)"/><path class="cls-4" d="M546.86,373.67v1.65a1.66,1.66,0,0,1-3.32,0v-1.65a1.66,1.66,0,0,1,3.32,0Zm-2.76,0v1.62a1.1,1.1,0,0,0,2.19,0v-1.62a1.1,1.1,0,0,0-2.19,0Zm5.25-1.47h.58l-3.64,8.16h-.56Zm2.77,5.05v1.65a1.67,1.67,0,0,1-3.33,0v-1.65a1.67,1.67,0,0,1,3.33,0Zm-2.77,0v1.61a1.11,1.11,0,0,0,2.21,0v-1.61a1.11,1.11,0,0,0-2.21,0Z" transform="translate(0 0)"/><path class="cls-4" d="M552.91,372.39l.41-.31a9,9,0,0,1,0,10.76l-.41-.31a8.88,8.88,0,0,0,0-10.14Z" transform="translate(0 0)"/></g></svg>