<svg id="Layer_1" data-name="Layer 1" xmlns="http://www.w3.org/2000/svg" viewBox="0 0 290.41 239.73"><defs><style>.cls-1,.cls-2{fill:none;stroke:#dfdbee;stroke-width:2.71px;}.cls-2{stroke-linecap:round;stroke-linejoin:round;}</style></defs><title>eye-night</title><path class="cls-1" d="M10.88,84.52s-.33.24-.3.29a352.44,352.44,0,0,1,283-.15s.79.45.83.4m-178.79.15A36.66,36.66,0,1,0,173.89,55.8c-7.15-.43-14.34-.72-21.6-.72s-14.46.29-21.61.72A36.38,36.38,0,0,0,115.63,85.21ZM100.44,59a58.18,58.18,0,1,0,103.7,0,347.5,347.5,0,0,0-103.7,0Z" transform="translate(-7.07 -8.54)"/><path class="cls-2" d="M151.91,246.92l-7.19-86.78c-4.94-.21-9.73-.6-14.28-1.16l-23.06,83.45,9-85.78c-4-.83-8.14-1.86-12.31-3.06l-33.93,65.5,19.65-70.24a175.75,175.75,0,0,1-16.48-7.28L37.81,188.85l24.63-53.32A177.61,177.61,0,0,1,9.24,86.3l-.82-1.16L9.24,84A175.12,175.12,0,0,1,295.3,84l.82,1.16-.82,1.16a177.34,177.34,0,0,1-53.78,49.56l24.48,53-35.33-47a174.4,174.4,0,0,1-16.61,7.27l19.58,70L199.8,153.77c-4.34,1.23-8.42,2.24-12.39,3l9,85.62-23-83.35c-4.53.53-9.25.89-14.32,1.08Z" transform="translate(-7.07 -8.54)"/></svg>