<svg id="Layer_1" data-name="Layer 1" xmlns="http://www.w3.org/2000/svg" viewBox="0 0 292.06 279.75"><defs><style>.cls-1,.cls-2{fill:none;stroke:#931a27;stroke-width:2.71px;}.cls-1{stroke-linecap:round;stroke-linejoin:round;}</style></defs><title>eye-night</title><path class="cls-1" d="M152.33,288.1a166.87,166.87,0,0,1-136-70.61l-.88-1.24L16.3,215a167.56,167.56,0,0,1,32.62-34.5L7.66,102l56.19,68a167.17,167.17,0,0,1,15.93-8.89L47,54.48l52,98.74c4-1.36,7.7-2.5,11.29-3.44L98.3,23.36l30.52,122.76c4.68-.66,9.37-1.13,14-1.39l9.51-133.67,9.52,133.67c4.63.26,9.33.73,14,1.39L206.37,23.36l-12,126.42c3.59.94,7.31,2.08,11.3,3.44l51.95-98.74-32.75,106.6a166,166,0,0,1,16,8.89L297,102,255.75,180.5A167.56,167.56,0,0,1,288.37,215l.88,1.25-.88,1.24A166.89,166.89,0,0,1,152.33,288.1Z" transform="translate(-6.3 -9.7)"/><path class="cls-2" d="M187.81,215.88a35.48,35.48,0,1,0-35.48,35.47A35.48,35.48,0,0,0,187.81,215.88Zm-35.48,56.31A56.32,56.32,0,1,0,96,215.88,56.32,56.32,0,0,0,152.33,272.19Z" transform="translate(-6.3 -9.7)"/></svg>