<svg id="Layer_1" data-name="Layer 1" xmlns="http://www.w3.org/2000/svg" xmlns:xlink="http://www.w3.org/1999/xlink" viewBox="0 0 217.56 263.76"><defs><style>.cls-1,.cls-4,.cls-5{fill:none;}.cls-2{fill:#941a27;}.cls-3{clip-path:url(#clip-path);}.cls-4,.cls-5{stroke:#941a27;}.cls-4{stroke-width:2px;}.cls-5{stroke-width:0.6px;}</style><clipPath id="clip-path" transform="translate(-16.37 -24.37)"><rect class="cls-1" x="16.37" y="24.37" width="217.56" height="263.76"/></clipPath></defs><title>Nutrition-day-2</title><polygon class="cls-2" points="200.11 159.97 198.26 159.97 198.26 158.13 196.38 158.13 196.38 159.97 194.54 159.97 194.54 161.85 196.39 161.85 196.39 163.7 198.27 163.7 198.27 161.85 200.11 161.85 200.11 159.97"/><g class="cls-3"><path class="cls-2" d="M202.33,285.39c-.49,0-.68-.34-.68-.79v-3.35c0-.59.26-.83.68-.83a1.05,1.05,0,0,1,.87,1.12v2.65c0,.64-.38,1.2-.87,1.2m-.32.79a1.34,1.34,0,0,0,1.22-.81h0l0,.7h.82v-8.55h-.94v2.76h0a1.17,1.17,0,0,0-1.08-.61,1.34,1.34,0,0,0-1.38,1.41v3.75a1.23,1.23,0,0,0,1.3,1.35m-4.81-3.68v-1.17c0-.44.2-.9.75-.9s.76.45.76.88v1.19Zm.85,3.69a2.91,2.91,0,0,0,1.45-.37l-.22-.67a2.86,2.86,0,0,1-1.08.25c-.73,0-1-.38-1-1.13V283.2h2.36v-1.84a1.5,1.5,0,0,0-1.57-1.69,1.65,1.65,0,0,0-1.73,1.82v2.92a1.61,1.61,0,0,0,1.79,1.78m-6.46-.12h.93v-4.45c0-.58.36-1.18.86-1.18s.66.28.66.76v4.87H195v-5.25a1.09,1.09,0,0,0-1.15-1.15,1.36,1.36,0,0,0-1.28.76h0v-2.91h-.93Zm-2.72.11a1.45,1.45,0,0,0,1.55-1.52,2.81,2.81,0,0,0-.9-1.83l-.69-.75a1.67,1.67,0,0,1-.56-1.05.6.6,0,0,1,.63-.65c.44,0,.63.27.69.92l.83,0c0-1.1-.65-1.59-1.48-1.59a1.4,1.4,0,0,0-1.53,1.46,2.45,2.45,0,0,0,.82,1.67l.55.61a2.17,2.17,0,0,1,.75,1.31c0,.48-.25.72-.65.72s-.68-.34-.74-.9h-.89a1.54,1.54,0,0,0,1.62,1.63m-3.74-7.45h.92V277.4h-.92Zm0,7.34h.92v-6.29h-.92Zm-1.7.07a1.93,1.93,0,0,0,.63-.1v-.78a1.73,1.73,0,0,1-.32,0,.35.35,0,0,1-.39-.38v-7.39h-.92v7.63a.89.89,0,0,0,1,1m-4-.73a1,1,0,0,1-.86-1.1v-2.69c0-.66.4-1.18.85-1.18s.7.34.7.77v3.42c0,.53-.25.78-.69.78m.18.77a1.36,1.36,0,0,0,1.43-1.45V281a1.22,1.22,0,0,0-1.27-1.33,1.36,1.36,0,0,0-1.18.73h0v-2.86h-.92v8.55h.82l0-.6h0a1.18,1.18,0,0,0,1.1.71m-5.14-.74c-.39,0-.65-.36-.65-1.25s.49-1.31,1-1.31h.48v1.54a1,1,0,0,1-.8,1m-.29.74a1.26,1.26,0,0,0,1.15-.79h0c0,.28,0,.59,0,.68h.84c0-.26,0-1.06,0-1.52v-3.49a1.35,1.35,0,0,0-1.53-1.39c-1,0-1.64.55-1.64,1.36v.65h.85v-.63a.7.7,0,0,1,1.4,0v1.21h-.5a1.88,1.88,0,0,0-1.89,2c0,1.31.59,1.88,1.3,1.88m-3,0A2.24,2.24,0,0,0,172,286v-.75a1.62,1.62,0,0,1-.52.08c-.26,0-.38-.12-.38-.43v-4.33h1v-.77h-1v-1.43h-.91v1.43h-.62v.77h.62v4.59a.93.93,0,0,0,1,1m-3.92,0a1.45,1.45,0,0,0,1.55-1.52,2.81,2.81,0,0,0-.9-1.83l-.69-.75a1.67,1.67,0,0,1-.56-1.05.6.6,0,0,1,.63-.65c.44,0,.63.27.69.92l.83,0c0-1.1-.65-1.59-1.48-1.59a1.4,1.4,0,0,0-1.53,1.46,2.45,2.45,0,0,0,.82,1.67l.55.61a2.17,2.17,0,0,1,.75,1.31c0,.48-.25.72-.65.72s-.68-.34-.74-.9h-.89a1.54,1.54,0,0,0,1.62,1.63m-5.82-.11h3.41v-.86h-2.43V282h1.93v-.85h-1.93v-2.82h2.41v-.84h-3.39Zm-3.78.09a2.34,2.34,0,0,0,.77-.15v-.75a1.67,1.67,0,0,1-.52.08c-.26,0-.38-.12-.38-.43v-4.33h1v-.77h-1v-1.43h-.91v1.43h-.63v.77h.63v4.59a.93.93,0,0,0,1,1m-4.4-.75c-.58,0-.81-.44-.81-.92v-3.15c0-.48.22-.91.78-.91a.8.8,0,0,1,.81.9v3.16c0,.47-.16.92-.78.92m0,.78a1.61,1.61,0,0,0,1.74-1.76v-3.09a1.57,1.57,0,0,0-1.71-1.67,1.62,1.62,0,0,0-1.74,1.72v3.05a1.58,1.58,0,0,0,1.71,1.75m-7.23-.12h.87v-6.56h0l2.33,6.56h.91v-8.55h-.87v6h0l-2.2-6h-1.06Zm-5.51-3.57v-1.17c0-.44.2-.9.75-.9s.76.45.76.88v1.19Zm.85,3.69a2.89,2.89,0,0,0,1.45-.37l-.21-.67a2.91,2.91,0,0,1-1.08.25c-.74,0-1-.38-1-1.13V283.2h2.36v-1.84a1.5,1.5,0,0,0-1.57-1.69,1.65,1.65,0,0,0-1.73,1.82v2.92a1.61,1.61,0,0,0,1.79,1.78m-5.37,0a1.47,1.47,0,0,0,1.33-.81h0v.68h.88v-6.28h-.92v4.46c0,.56-.36,1.15-.86,1.15s-.66-.26-.66-.73v-4.88h-.93V285A1.11,1.11,0,0,0,136,286.2m-2.78-.06a1.83,1.83,0,0,0,.62-.1v-.78a1.55,1.55,0,0,1-.31,0,.34.34,0,0,1-.39-.38v-7.39h-.93v7.63a.89.89,0,0,0,1,1m-4.16-.7c-.39,0-.65-.36-.65-1.25s.49-1.31,1-1.31h.48v1.54a1,1,0,0,1-.8,1m-.29.74a1.26,1.26,0,0,0,1.15-.79h0c0,.28,0,.59,0,.68h.84c0-.26-.05-1.06-.05-1.52v-3.49a1.35,1.35,0,0,0-1.53-1.39c-1,0-1.64.55-1.64,1.36v.65h.85v-.63c0-.41.26-.64.71-.64a.61.61,0,0,1,.69.65v1.21h-.5a1.88,1.88,0,0,0-1.89,2c0,1.31.59,1.88,1.3,1.88m-4.52-.05h1l1.62-8.61H126l-1.2,6.66h0l-1.18-6.66h-1Zm-6.87,2c.73,0,1.13-.52,1.36-1.56l1.48-6.79h-.85l-.84,4.48h0l-1-4.48h-1l1.48,6.15-.21.89c-.11.44-.32.54-.57.54a1.67,1.67,0,0,1-.47-.07l-.11.75a2.57,2.57,0,0,0,.67.09m-1.81-2a1.87,1.87,0,0,0,.62-.1v-.78a1.63,1.63,0,0,1-.31,0,.35.35,0,0,1-.4-.38v-7.39h-.92v7.63a.89.89,0,0,0,1,1m-3.42-7.41h.92V277.4h-.92Zm0,7.34h.92v-6.29h-.92Zm-3.18-.63c-.38,0-.65-.36-.65-1.25s.49-1.31,1-1.31h.48v1.54a1,1,0,0,1-.8,1m-.29.74a1.24,1.24,0,0,0,1.15-.79h0c0,.28,0,.59,0,.68h.84c0-.26-.05-1.06-.05-1.52v-3.49a1.36,1.36,0,0,0-1.54-1.39c-1,0-1.64.55-1.64,1.36v.65h.85v-.63c0-.41.26-.64.71-.64a.61.61,0,0,1,.69.65v1.21h-.5a1.88,1.88,0,0,0-1.88,2c0,1.31.58,1.88,1.29,1.88m-5.46-1v-6.84h.95a1,1,0,0,1,1.08,1v4.71a1,1,0,0,1-1.08,1.09Zm-1,.86h2a1.82,1.82,0,0,0,2-1.94v-4.81a1.75,1.75,0,0,0-2-1.8h-2Zm-4.61-5.37.78-1.13.78,1.13.49-.33L99,279.29l1.1-.67-.3-.49-1,.62v-1.23h-.59v1.23l-1.07-.62-.28.49,1.09.67-.72,1.08Zm-3.56,0,.78-1.13.78,1.13.49-.33-.73-1.08,1.1-.67-.3-.49-1,.62v-1.23H94.6v1.23l-1.07-.62-.29.49,1.1.67-.72,1.08Zm-7.74,5.49a1.42,1.42,0,0,0,1.6-1.47v-.61h-.82v.54a.68.68,0,0,1-.75.76c-.59,0-.78-.42-.78-.91v-3.18c0-.47.21-.89.78-.89a.67.67,0,0,1,.75.72v.58H88v-.64a1.4,1.4,0,0,0-1.58-1.42,1.6,1.6,0,0,0-1.7,1.72v3.08a1.55,1.55,0,0,0,1.68,1.72m-4-7.46h.92V277.4h-.92Zm0,7.34h.92v-6.29h-.92Zm-4.83,0h.93v-4.46c0-.58.36-1.17.86-1.17s.66.28.66.76v4.87H81v-5.25a1.09,1.09,0,0,0-1.15-1.15,1.45,1.45,0,0,0-1.32.77h0v-.65h-.89Zm-3.18-.63c-.38,0-.65-.36-.65-1.25s.5-1.31,1-1.31h.48v1.54a1,1,0,0,1-.81,1m-.29.74a1.27,1.27,0,0,0,1.16-.79h0c0,.28,0,.59,0,.68h.84c0-.26-.05-1.06-.05-1.52v-3.49a1.36,1.36,0,0,0-1.53-1.39c-1,0-1.65.55-1.65,1.36v.65h.85v-.63c0-.41.27-.64.71-.64a.61.61,0,0,1,.7.65v1.21H74.7a1.88,1.88,0,0,0-1.88,2c0,1.31.59,1.88,1.29,1.88m-4.31-1c-.53,0-.7-.39-.7-.8v-3.11c0-.54.26-.85.67-.85a1,1,0,0,1,.88,1.1v2.55a1,1,0,0,1-.85,1.11m-.13,2.95a1.71,1.71,0,0,0,1.9-1.88v-6.47h-.85v.6h0a1.2,1.2,0,0,0-1.13-.69,1.35,1.35,0,0,0-1.39,1.47v3.39a1.26,1.26,0,0,0,1.29,1.4,1.28,1.28,0,0,0,1.15-.78h0v1.14c0,.7-.34,1-1,1a2.76,2.76,0,0,1-1.14-.25l-.27.75a3.32,3.32,0,0,0,1.43.28m-4.72-2h.92V281.6a.91.91,0,0,1,1-1l.44,0v-.9a1.77,1.77,0,0,0-.33,0,1.14,1.14,0,0,0-1.09.75h0v-.7H65Zm-3.47-.76a1,1,0,0,1-1.09-1.14v-4.82a1.09,1.09,0,0,1,2.18,0v4.85a1,1,0,0,1-1.09,1.14m0,.88a1.92,1.92,0,0,0,2.09-2.08v-4.79a1.84,1.84,0,0,0-2.06-1.93,1.92,1.92,0,0,0-2.11,2v4.74a1.87,1.87,0,0,0,2.08,2m-7.1-.8c-.49,0-.68-.34-.68-.79v-3.35c0-.59.26-.83.68-.83a1.05,1.05,0,0,1,.87,1.12v2.65c0,.64-.37,1.2-.87,1.2m-.32.79a1.33,1.33,0,0,0,1.22-.81h0l0,.7h.81v-8.55h-.93v2.76h0a1.15,1.15,0,0,0-1.08-.61,1.34,1.34,0,0,0-1.38,1.41v3.75a1.23,1.23,0,0,0,1.3,1.35m-4.81-3.68v-1.17c0-.44.2-.9.75-.9s.76.45.76.88v1.19Zm.85,3.69a2.89,2.89,0,0,0,1.45-.37l-.21-.67a2.91,2.91,0,0,1-1.08.25c-.74,0-1-.38-1-1.13V283.2h2.36v-1.84A1.5,1.5,0,0,0,50,279.67a1.65,1.65,0,0,0-1.73,1.82v2.92a1.61,1.61,0,0,0,1.79,1.78m-6.46-.12h.92v-5.52h.79v-.74h-.79v-1.12a.48.48,0,0,1,.49-.54,1.85,1.85,0,0,1,.43,0v-.71a2.16,2.16,0,0,0-.61-.07,1.14,1.14,0,0,0-1.23,1.21v1.19H43v.74h.62Zm2.49-7.34H47V277.4h-.92Zm0,7.34H47v-6.28h-.92Zm-5.22-7.34h.92V277.4h-.92Zm0,7.34h.92v-6.29h-.92Zm-2,.09a2.24,2.24,0,0,0,.77-.15v-.75a1.56,1.56,0,0,1-.51.08c-.27,0-.39-.12-.39-.43v-4.33h1v-.77h-1v-1.43H37.9v1.43h-.62v.77h.62v4.59a.93.93,0,0,0,1,1m-4.78-.09h.92V281.6a.91.91,0,0,1,1-1l.44,0v-.9a1.77,1.77,0,0,0-.33,0,1.14,1.14,0,0,0-1.09.75h0v-.7h-.91Zm-3.68-3.57v-1.17c0-.44.21-.9.76-.9s.76.45.76.88v1.19Zm.86,3.69a2.91,2.91,0,0,0,1.45-.37l-.22-.67a2.86,2.86,0,0,1-1.08.25c-.73,0-1-.38-1-1.13V283.2h2.37v-1.84a1.5,1.5,0,0,0-1.57-1.69,1.65,1.65,0,0,0-1.73,1.82v2.92a1.61,1.61,0,0,0,1.79,1.78m-4.9,0a1.78,1.78,0,0,0,1.94-1.84v-.89H27.5v.84a1,1,0,0,1-1.05,1,1,1,0,0,1-1.1-1.15v-4.79a1,1,0,0,1,1.08-1.14,1,1,0,0,1,1.07,1v.83h.88v-1a1.74,1.74,0,0,0-1.94-1.73,1.9,1.9,0,0,0-2.09,1.95v4.93a1.86,1.86,0,0,0,2.09,1.92" transform="translate(-16.37 -24.37)"/><path class="cls-2" d="M77.39,251.79h-1v8.28h1Zm-3.93.6a.66.66,0,0,0,1.32,0,.66.66,0,1,0-1.32,0m1.15,1.84h-1v5.84h1ZM64.89,256A3.13,3.13,0,1,1,68,259.17,3.11,3.11,0,0,1,64.89,256m-1.08,0a4.2,4.2,0,1,0,4.2-4.2,4.11,4.11,0,0,0-4.2,4.2m-4.41-4.2h-1v8.28h1Zm-6.29,6.46a1.22,1.22,0,0,1,1.28-1.15,1.17,1.17,0,1,1-1.28,1.15Zm-.36-2.75a3,3,0,0,1,1.58-.48,1.25,1.25,0,0,1,1.36,1.32V257a2.06,2.06,0,0,0-1.53-.68,1.93,1.93,0,0,0-2,1.92,1.91,1.91,0,0,0,2,1.94,1.85,1.85,0,0,0,1.54-.75v.63h1v-3.72a2,2,0,0,0-2.25-2.24,3.78,3.78,0,0,0-1.68.41Zm-3.1-3.11a.66.66,0,0,0,1.32,0,.66.66,0,1,0-1.32,0m1.15,1.84h-1v5.84h1Zm-3.25,5.84v-5H48.7v-.86H47.55v-1.68l-.95.25v1.43H45.46v.86h1.09v5Zm-7-5.84h-1v5.84h1v-3.48a1.41,1.41,0,0,1,1.47-1.5,1.44,1.44,0,0,1,1.48,1.57v3.41h1v-3.65a2.14,2.14,0,0,0-2.19-2.31,1.87,1.87,0,0,0-1.75,1Zm-5.13.74a1.76,1.76,0,0,1,1.85,1.76H33.47A1.89,1.89,0,0,1,35.38,255m2.77,2.55a2.88,2.88,0,0,0-2.77-3.41,3,3,0,0,0,.06,6.08,4.11,4.11,0,0,0,2.17-.61v-1a3.63,3.63,0,0,1-2.1.73,2,2,0,0,1-2-1.76Zm-7-3.11a3.12,3.12,0,0,0-1.34-.3c-1.29,0-2,.69-2,1.61a1.56,1.56,0,0,0,.86,1.4l1.08.65c.44.26.6.49.6.79s-.36.76-1,.76a2.37,2.37,0,0,1-1.46-.55v1.08a3.66,3.66,0,0,0,1.51.34c1.23,0,2-.63,2-1.63a1.69,1.69,0,0,0-1-1.51l-1-.61c-.35-.22-.52-.39-.52-.7s.32-.74.95-.74a2.32,2.32,0,0,1,1.33.46Zm-4.7,0a3.13,3.13,0,0,0-1.35-.3c-1.28,0-2,.69-2,1.61a1.56,1.56,0,0,0,.87,1.4l1.08.65c.44.26.6.49.6.79s-.36.76-1,.76a2.4,2.4,0,0,1-1.47-.55v1.08a3.66,3.66,0,0,0,1.51.34c1.24,0,2-.63,2-1.63a1.69,1.69,0,0,0-1-1.51l-1-.61c-.35-.22-.51-.39-.51-.7s.32-.74.94-.74a2.38,2.38,0,0,1,1.34.46Zm-4.65,5.66v-1H18.46v-2.63h3.12v-1H18.46V252.9h3.36v-1H17.43v8.16Z" transform="translate(-16.37 -24.37)"/><path class="cls-2" d="M224.29,239.23h-1v5.84h1v-3.48a1.42,1.42,0,0,1,1.48-1.5,1.44,1.44,0,0,1,1.48,1.57v3.41h1v-3.65a2.15,2.15,0,0,0-2.2-2.31,1.88,1.88,0,0,0-1.75,1Zm-7.44,2.92a2,2,0,1,1,2,2.07,2,2,0,0,1-2-2.07m-1,0a3,3,0,1,0,3-3,3,3,0,0,0-3,3m-8.68-2.92h-1v5.84h1v-3.62a1.34,1.34,0,1,1,2.68.08v3.54h1v-3.54a1.34,1.34,0,1,1,2.67,0v3.54h1v-3.78a2,2,0,0,0-2.05-2.18,1.78,1.78,0,0,0-1.79,1.21,1.93,1.93,0,0,0-1.89-1.21,1.78,1.78,0,0,0-1.62.92ZM202,240a1.76,1.76,0,0,1,1.85,1.76h-3.76A1.88,1.88,0,0,1,202,240m2.77,2.55a2.88,2.88,0,0,0-2.77-3.41,3,3,0,0,0,.06,6.08,4.11,4.11,0,0,0,2.17-.61v-1a3.63,3.63,0,0,1-2.1.73,2,2,0,0,1-2-1.76Zm-6.23,2.55v-1H195.2v-7.18h-1v8.16Zm-9.88,1.56.6-2.88h-1.14l-.38,2.88Zm-9.47-9.84h-1v8.28h1Zm-3.93.6a.66.66,0,0,0,1.31,0,.66.66,0,1,0-1.31,0m1.15,1.84h-1v5.84h1ZM166.71,241a3.13,3.13,0,1,1,3.12,3.18,3.11,3.11,0,0,1-3.12-3.18m-1.08,0a4.2,4.2,0,1,0,4.2-4.2,4.11,4.11,0,0,0-4.2,4.2m-4.41-4.2h-1v8.28h1Zm-6.3,6.46a1.29,1.29,0,1,1,1.29,1.18,1.24,1.24,0,0,1-1.29-1.18Zm-.36-2.75a3,3,0,0,1,1.59-.48,1.24,1.24,0,0,1,1.35,1.32V242a2,2,0,0,0-1.52-.68,1.93,1.93,0,0,0-2,1.92,1.9,1.9,0,0,0,2,1.94,1.82,1.82,0,0,0,1.53-.75v.63h1v-3.72a2,2,0,0,0-2.26-2.24,3.78,3.78,0,0,0-1.68.41Zm-3.09-3.11a.66.66,0,0,0,1.32,0,.66.66,0,1,0-1.32,0m1.15,1.84h-1v5.84h1Zm-3.25,5.84v-5h1.15v-.86h-1.15v-1.68l-1,.25v1.43h-1.14v.86h1.09v5Zm-7.05-5.84h-1v5.84h1v-3.48a1.42,1.42,0,0,1,1.48-1.5,1.44,1.44,0,0,1,1.48,1.57v3.41h1v-3.65a2.15,2.15,0,0,0-2.2-2.31,1.88,1.88,0,0,0-1.75,1Zm-5.12.74a1.76,1.76,0,0,1,1.85,1.76h-3.76A1.88,1.88,0,0,1,137.2,240m2.77,2.55A3.83,3.83,0,0,0,140,242a2.76,2.76,0,0,0-2.82-2.87,3,3,0,0,0,.06,6.08,4.11,4.11,0,0,0,2.17-.61v-1a3.63,3.63,0,0,1-2.1.73,2,2,0,0,1-2-1.76Zm-7-3.11a3.13,3.13,0,0,0-1.35-.3c-1.28,0-2,.69-2,1.61a1.57,1.57,0,0,0,.87,1.4l1.08.65c.44.26.6.49.6.79s-.36.76-1,.76a2.4,2.4,0,0,1-1.47-.55v1.08a3.66,3.66,0,0,0,1.51.34c1.24,0,2-.63,2-1.63a1.69,1.69,0,0,0-1-1.51l-1-.61c-.35-.22-.51-.39-.51-.7s.32-.74.95-.74a2.32,2.32,0,0,1,1.33.46Zm-4.71,0a3.05,3.05,0,0,0-1.34-.3c-1.28,0-2,.69-2,1.61a1.56,1.56,0,0,0,.86,1.4l1.08.65c.45.26.6.49.6.79s-.36.76-1,.76a2.37,2.37,0,0,1-1.46-.55v1.08a3.66,3.66,0,0,0,1.51.34c1.24,0,2-.63,2-1.63a1.68,1.68,0,0,0-1-1.51l-1-.61c-.35-.22-.52-.39-.52-.7s.33-.74,1-.74a2.32,2.32,0,0,1,1.33.46Zm-4.64,5.66v-1h-3.36v-2.63h3.12v-1h-3.12V237.9h3.36v-1h-4.39v8.16Zm-13,2.46h1.15l3.56-8.3h-1.14l-1.71,4.14-1.67-4.14h-1.14l2.25,5.4Zm-3.45-8.3h-1v5.84h1v-3.48c0-.9.46-1.5,1.3-1.5a1.68,1.68,0,0,1,.7.15v-1.07a2,2,0,0,0-.49-.06,1.61,1.61,0,0,0-1.51.91Zm-6.29,4a1.29,1.29,0,1,1,1.29,1.18,1.24,1.24,0,0,1-1.29-1.18Zm-.36-2.75a3,3,0,0,1,1.59-.48,1.24,1.24,0,0,1,1.35,1.32V242a2,2,0,0,0-1.52-.68,1.93,1.93,0,0,0-2,1.92,1.9,1.9,0,0,0,2,1.94,1.82,1.82,0,0,0,1.53-.75v.63h1v-3.72a2,2,0,0,0-2.26-2.24,3.82,3.82,0,0,0-1.68.41Zm-9.22-1.27h-1v5.84h1v-3.62a1.34,1.34,0,1,1,2.67.08v3.54h1v-3.54a1.34,1.34,0,1,1,2.67,0v3.54h1v-3.78a2,2,0,0,0-2.05-2.18,1.78,1.78,0,0,0-1.79,1.21,1.93,1.93,0,0,0-1.88-1.21,1.76,1.76,0,0,0-1.62.92Zm-5.13.74A1.76,1.76,0,0,1,88,241.73H84.24A1.89,1.89,0,0,1,86.15,240m2.77,2.55a2.88,2.88,0,0,0-2.77-3.41,3,3,0,0,0,.06,6.08,4.11,4.11,0,0,0,2.17-.61v-1a3.63,3.63,0,0,1-2.1.73,2,2,0,0,1-2-1.76Zm-7-3.11a3.12,3.12,0,0,0-1.34-.3c-1.29,0-2,.69-2,1.61a1.56,1.56,0,0,0,.86,1.4l1.08.65c.44.26.6.49.6.79s-.36.76-1,.76a2.37,2.37,0,0,1-1.46-.55v1.08a3.66,3.66,0,0,0,1.51.34c1.23,0,2-.63,2-1.63a1.69,1.69,0,0,0-1-1.51l-1-.61c-.35-.22-.52-.39-.52-.7s.32-.74,1-.74a2.32,2.32,0,0,1,1.33.46Zm-9.48,2.74a2,2,0,1,1,2,2.07,2,2,0,0,1-2-2.07m-1,0a3,3,0,1,0,3-3,3,3,0,0,0-3,3m-2.31-2.85a1.35,1.35,0,0,1-1.5,1.38H66.24V237.9h1.38a1.37,1.37,0,0,1,1.5,1.4m-3.91,5.77h1v-3.41h.86c1.06,0,2.08,1.38,2.46,3.41h1.06c-.3-1.93-1.14-3.32-2.11-3.78a2,2,0,0,0,1.68-2.08,2.28,2.28,0,0,0-2.57-2.3H65.21Zm-5.49,1.56.6-2.88H59.18l-.38,2.88Zm-9.93-1.56v-5H51v-.86H49.79v-1.68l-.94.25v1.43H47.71v.86H48.8v5Zm-2.91-1.36a2.47,2.47,0,0,1-1.51.51,2.07,2.07,0,0,1,0-4.13,2.41,2.41,0,0,1,1.51.52v-1.1a3.2,3.2,0,0,0-1.51-.4,3,3,0,1,0,0,6.08,3.06,3.06,0,0,0,1.51-.4Zm-9.49-.46a1.22,1.22,0,0,1,1.28-1.15,1.17,1.17,0,1,1-1.28,1.15ZM37,240.5a3,3,0,0,1,1.58-.48A1.25,1.25,0,0,1,40,241.34V242a2.06,2.06,0,0,0-1.53-.68,1.93,1.93,0,0,0-2,1.92,1.91,1.91,0,0,0,2,1.94,1.85,1.85,0,0,0,1.54-.75v.63h1v-3.72a2,2,0,0,0-2.25-2.24,3.78,3.78,0,0,0-1.68.41Zm-3.18-1.27h-1v5.84h1v-3.48c0-.9.45-1.5,1.29-1.5a1.69,1.69,0,0,1,.71.15v-1.07a2.12,2.12,0,0,0-.49-.06,1.59,1.59,0,0,0-1.51.91Zm-3.26,5.84v-5h1.16v-.86H30.59v-1.68l-.94.25v1.43H28.51v.86H29.6v5Zm-5.16-2.16,1.43,2.16H28l-2-2.92,2-2.92H26.86l-1.43,2.16L24,239.23H22.83l2,2.92-2,2.92H24Zm-3.61,2.16v-1H18.46v-2.63h3.12v-1H18.46V237.9h3.36v-1H17.43v8.16Z" transform="translate(-16.37 -24.37)"/><path class="cls-2" d="M219.16,232.53h1.15l3.56-8.3h-1.14L221,228.37l-1.67-4.14h-1.14l2.26,5.4Zm-3.45-8.3h-1v5.84h1v-3.48c0-.9.46-1.5,1.3-1.5a1.73,1.73,0,0,1,.71.15v-1.07a2.12,2.12,0,0,0-.49-.06,1.61,1.61,0,0,0-1.52.91Zm-6.28,4a1.22,1.22,0,0,1,1.28-1.15,1.17,1.17,0,1,1-1.28,1.15Zm-.36-2.75a3,3,0,0,1,1.58-.48,1.25,1.25,0,0,1,1.36,1.32V227a2.06,2.06,0,0,0-1.53-.68,1.93,1.93,0,0,0-2,1.92,1.91,1.91,0,0,0,2,1.94,1.85,1.85,0,0,0,1.54-.75v.63h1v-3.72a2,2,0,0,0-2.25-2.24,3.78,3.78,0,0,0-1.68.41Zm-9.23-1.27h-1v5.84h1v-3.62a1.28,1.28,0,0,1,1.35-1.36,1.29,1.29,0,0,1,1.33,1.44v3.54h1v-3.54a1.34,1.34,0,1,1,2.68,0v3.54h1v-3.78a2,2,0,0,0-2.05-2.18,1.79,1.79,0,0,0-1.79,1.21,1.93,1.93,0,0,0-1.88-1.21,1.76,1.76,0,0,0-1.62.92Zm-5.13.74a1.76,1.76,0,0,1,1.85,1.76h-3.75a1.87,1.87,0,0,1,1.9-1.76m2.78,2.55a4,4,0,0,0,0-.54,2.76,2.76,0,0,0-2.82-2.87,3,3,0,0,0,.06,6.08,4.17,4.17,0,0,0,2.18-.61v-1a3.65,3.65,0,0,1-2.1.73,2,2,0,0,1-2-1.76Zm-7-3.11a3.05,3.05,0,0,0-1.34-.3c-1.29,0-2,.69-2,1.61a1.56,1.56,0,0,0,.86,1.4l1.08.65c.45.26.6.49.6.79s-.36.76-1,.76a2.37,2.37,0,0,1-1.46-.55v1.08a3.66,3.66,0,0,0,1.51.34c1.24,0,2-.63,2-1.63a1.68,1.68,0,0,0-1-1.51l-1-.61c-.35-.22-.52-.39-.52-.7s.33-.74.95-.74a2.32,2.32,0,0,1,1.33.46ZM181,227.15a2,2,0,1,1,2,2.07,2,2,0,0,1-2-2.07m-1,0a3,3,0,1,0,3-3,3,3,0,0,0-3,3m-2.3-2.85a1.36,1.36,0,0,1-1.5,1.38h-1.38V222.9h1.38a1.37,1.37,0,0,1,1.5,1.4m-3.91,5.77h1v-3.41h.85c1.07,0,2.09,1.38,2.46,3.41h1.07c-.3-1.93-1.14-3.32-2.11-3.78a2,2,0,0,0,1.67-2.08,2.28,2.28,0,0,0-2.56-2.3h-2.41Z" transform="translate(-16.37 -24.37)"/></g><polygon class="cls-2" points="151.91 208.26 152.5 205.38 151.37 205.38 150.99 208.26 151.91 208.26"/><g class="cls-3"><path class="cls-2" d="M158.81,221.79h-1v8.28h1Zm-3.93.6a.66.66,0,0,0,1.32,0,.66.66,0,1,0-1.32,0m1.15,1.84h-1v5.84h1ZM146.31,226a3.13,3.13,0,1,1,3.12,3.18,3.11,3.11,0,0,1-3.12-3.18m-1.08,0a4.2,4.2,0,1,0,4.2-4.2,4.11,4.11,0,0,0-4.2,4.2m-6.64,4.08h1V222.9h2.16v-1h-5.37v1h2.18Zm-3.08-1.64a3.31,3.31,0,0,1-2.15.74,3.18,3.18,0,0,1,0-6.36,3.29,3.29,0,0,1,2.15.76v-1.21a4.26,4.26,0,0,0-2.15-.57,4.2,4.2,0,0,0,0,8.4,4.25,4.25,0,0,0,2.15-.56Zm-11.7,1.64,2.63-6.2v6.2h1v-8.16h-1.21l-2.91,6.85-2.91-6.85h-1.23v8.16h1v-6.2l2.65,6.2Zm-10.87-4.68h1.2v-1.63h-1.2Zm0,4.68h1.21v-1.64h-1.21Zm-3.84.12a2,2,0,0,0,2.08-2.16,3.38,3.38,0,0,0-1.17-2.42l-.83-.86c-.42-.46-.87-.92-.87-1.41s.27-.89.76-.89.76.46.84,1.18l1.19,0c-.09-1.68-1-2.22-2-2.22a1.93,1.93,0,0,0-2.05,2.07,3.1,3.1,0,0,0,1.13,2.24l.9,1a2.15,2.15,0,0,1,.78,1.46c0,.48-.19,1-.78,1s-.86-.6-.92-1.25l-1.24,0c.08,1.45.85,2.3,2.15,2.3m-6.46-.12H104v-7.41h1.61v-1.14H101v1.14h1.63Zm-8,0h1.19v-5.84h0L98,230.07h1.23v-8.55H98.07v5.3h0l-2-5.3H94.65Zm-5.68,0h3.76v-1.15H90.3v-2.71h1.94v-1.14H90.3v-2.43h2.42v-1.12H89Zm-3.45,0h1.34v-8.55H85.52Zm-5.09-1.15v-6.26h.78a.85.85,0,0,1,.94.92V228a.88.88,0,0,1-.94,1Zm-1.33,1.15h2.23a2,2,0,0,0,2.17-2v-4.57a1.9,1.9,0,0,0-2.16-1.93H79.1Zm-5.68,0h3.76v-1.15H74.75v-2.71h1.94v-1.14H74.75v-2.43h2.42v-1.12H73.42Zm-5-4.57v-2.86h.72c.68,0,.93.6.93,1.43,0,1-.32,1.43-.91,1.43Zm-1.35,4.57h1.35v-3.56h.71l1,3.56h1.39l-1.17-3.86c.66-.28,1.08-1,1.08-2.24,0-1.63-.78-2.45-2.17-2.45H67.07Zm-4.17.12a1.92,1.92,0,0,0,2.17-2v-2.67H62.78v1h1v1.55a.79.79,0,0,1-.89.89.88.88,0,0,1-.94-1v-4.53a.89.89,0,0,1,.94-1,.85.85,0,0,1,.93.88v.79h1.23v-.91a2,2,0,0,0-2.17-1.9,2.07,2.07,0,0,0-2.28,2.1v4.64a2,2,0,0,0,2.29,2.08M54,230.07h1.19v-5.84h0l2.17,5.84H58.6v-8.55H57.41v5.3h0l-2-5.3H54Zm-3.45,0h1.34v-8.55H50.54Zm-7.65-4.57v-2.86h.72c.69,0,.94.6.94,1.43,0,1-.32,1.43-.91,1.43Zm-1.34,4.57h1.34v-3.56h.71l1,3.56H46l-1.18-3.86c.66-.28,1.08-1,1.08-2.24,0-1.63-.78-2.45-2.17-2.45H41.55Zm-5.67,0h3.75v-1.15H37.21v-2.71h1.93v-1.14H37.21v-2.43h2.41v-1.12H35.88Zm-6.6,0h1.34v-3.74h1.8v3.74h1.33v-8.55H32.42v3.59h-1.8v-3.59H29.28Zm-4.71,0h1.34v-7.41h1.61v-1.14H22.94v1.14h1.63ZM19.17,229a.89.89,0,0,1-.92-1V223.5a.93.93,0,1,1,1.85,0V228a.88.88,0,0,1-.93,1m0,1.18A2.1,2.1,0,0,0,21.45,228V223.5a2,2,0,0,0-2.28-2.11,2.08,2.08,0,0,0-2.29,2.18V228a2,2,0,0,0,2.28,2.18" transform="translate(-16.37 -24.37)"/><path class="cls-2" d="M93.07,198.23H91.6v-.67a.79.79,0,0,1,.87-.9,1.75,1.75,0,0,1,.67.13v-1a2.8,2.8,0,0,0-.7-.1,1.68,1.68,0,0,0-1.83,1.83v.73h-.92v.86h.92v5h1v-5h1.47Zm-8.22,4a1.22,1.22,0,0,1,1.28-1.15,1.17,1.17,0,1,1-1.28,1.15Zm-.36-2.75a3,3,0,0,1,1.58-.48,1.25,1.25,0,0,1,1.36,1.32V201a2.06,2.06,0,0,0-1.53-.68,1.93,1.93,0,0,0-2.05,1.92,1.91,1.91,0,0,0,2,1.94,1.85,1.85,0,0,0,1.54-.75v.63h1v-3.72a2,2,0,0,0-2.25-2.24,3.78,3.78,0,0,0-1.68.41ZM80.07,199a1.76,1.76,0,0,1,1.85,1.76H78.16A1.88,1.88,0,0,1,80.07,199m2.77,2.55a2.88,2.88,0,0,0-2.77-3.41,3,3,0,0,0,.06,6.08,4.11,4.11,0,0,0,2.17-.61v-1a3.63,3.63,0,0,1-2.1.73,2,2,0,0,1-2-1.76Zm-6.35,2.55v-1H73.13v-7.18h-1v8.16Zm-9.58-8.28h-1v8.28h1Zm-4.06.6a.66.66,0,0,0,1.32,0,.66.66,0,1,0-1.32,0M64,198.23H63v5.84h1Zm-2.78.18a3.13,3.13,0,0,0-1.35-.3c-1.28,0-2,.69-2,1.61a1.56,1.56,0,0,0,.86,1.4l1.08.65c.44.26.6.49.6.79s-.36.76-1,.76a2.35,2.35,0,0,1-1.46-.55v1.08a3.62,3.62,0,0,0,1.51.34c1.23,0,2-.63,2-1.63a1.69,1.69,0,0,0-1-1.51l-1-.61c-.34-.22-.51-.39-.51-.7s.32-.74,1-.74a2.32,2.32,0,0,1,1.33.46Zm-8.45,3.84a1.22,1.22,0,0,1,1.28-1.15,1.17,1.17,0,1,1-1.28,1.15Zm-.36-2.75A3,3,0,0,1,54,199a1.25,1.25,0,0,1,1.36,1.32V201a2.06,2.06,0,0,0-1.52-.68,1.93,1.93,0,0,0-2,1.92,1.9,1.9,0,0,0,2,1.94,1.83,1.83,0,0,0,1.54-.75v.63h1v-3.72a2,2,0,0,0-2.26-2.24,3.78,3.78,0,0,0-1.68.41Zm-3.11-1.35a1.22,1.22,0,0,1-1.38,1.24H46.54V196.9h1.38a1.22,1.22,0,0,1,1.38,1.25m.26,3.6A1.34,1.34,0,0,1,48,203.09h-1.5v-2.73H48a1.37,1.37,0,0,1,1.52,1.39m-4.05,2.32H48c1.47,0,2.59-.81,2.59-2.22a2,2,0,0,0-1.41-2A1.88,1.88,0,0,0,50.37,198a2.19,2.19,0,0,0-2.44-2.12H45.51Zm-8.89,2.46h1.15l3.56-8.3H40.19l-1.71,4.14-1.67-4.14H35.67l2.26,5.4ZM34.4,195.79h-1v8.28h1Zm-7.57,5.36a2,2,0,1,1,2,2.07,2,2,0,0,1-2-2.07m-1,0a3,3,0,1,0,3-3,3,3,0,0,0-3,3m-2.67,2.92h1v-8.16h-1v3.57H18.46v-3.57h-1v8.16h1v-3.61h4.67Z" transform="translate(-16.37 -24.37)"/><path class="cls-2" d="M218.33,191.63l.6-2.88h-1.14l-.37,2.88Zm-10.16-2.56v-5h1.15v-.86h-1.15v-1.68l-.95.25v1.43h-1.14v.86h1.09v5Zm-7.91-2.92a2,2,0,1,1,2,2.07,2,2,0,0,1-2-2.07m-1,0a3,3,0,1,0,3-3,3,3,0,0,0-3,3m-6.18,0a2,2,0,1,1,2,2.07,2,2,0,0,1-2-2.07m-1,0a3,3,0,1,0,3-3,3,3,0,0,0-3,3m-2.43-2.85a1.36,1.36,0,0,1-1.5,1.38h-1.38V181.9h1.38a1.37,1.37,0,0,1,1.5,1.4m-3.91,5.77h1v-3.41h.85c1.07,0,2.09,1.38,2.46,3.41h1.07c-.3-1.93-1.14-3.32-2.11-3.78a2,2,0,0,0,1.68-2.08,2.28,2.28,0,0,0-2.57-2.3h-2.41ZM177,187.25a1.29,1.29,0,1,1,1.29,1.18,1.24,1.24,0,0,1-1.29-1.18Zm-.36-2.75a3,3,0,0,1,1.59-.48,1.24,1.24,0,0,1,1.35,1.32V186a2.06,2.06,0,0,0-1.52-.68,1.93,1.93,0,0,0-2.05,1.92,1.9,1.9,0,0,0,2,1.94,1.82,1.82,0,0,0,1.53-.75v.63h1v-3.72a2,2,0,0,0-2.26-2.24,3.78,3.78,0,0,0-1.68.41Zm-2.09-3.71h-1v8.28h1ZM167,186.15a2,2,0,1,1,2,2.07,2,2,0,0,1-2-2.07m-1,0a3,3,0,1,0,3-3,3,3,0,0,0-3,3m-2.66-4.76a.66.66,0,0,0,1.31,0,.66.66,0,1,0-1.31,0m1.15,1.84h-1v5.84h1Zm-3.9,2.91a2,2,0,1,1-4.07,0,2,2,0,1,1,4.07,0Zm0,2.93h1v-8.28h-1v3.61a2.45,2.45,0,0,0-2.2-1.29,3,3,0,0,0,0,6.08,2.43,2.43,0,0,0,2.2-1.28Zm-11.3-2.92a2,2,0,1,1,2,2.07,2,2,0,0,1-2-2.07m-1,0a3,3,0,1,0,3-3,3,3,0,0,0-3,3m-5.4-5.36h-1v8.28h1v-3.48a1.42,1.42,0,0,1,1.48-1.5,1.44,1.44,0,0,1,1.48,1.57v3.41h1v-3.65a2.14,2.14,0,0,0-2.19-2.31,1.9,1.9,0,0,0-1.76,1Zm-3.92,2.51a1.36,1.36,0,0,1-1.5,1.38H136V181.9h1.38a1.37,1.37,0,0,1,1.5,1.4M135,189.07h1v-3.41h.85c1.07,0,2.09,1.38,2.46,3.41h1.07c-.3-1.93-1.14-3.32-2.11-3.78a2,2,0,0,0,1.68-2.08,2.28,2.28,0,0,0-2.57-2.3H135Zm-5.74,2.56.6-2.88h-1.14l-.37,2.88Zm-10.16-2.56v-5h1.15v-.86h-1.15v-1.68l-.95.25v1.43H117v.86h1.09v5Zm-7.91-2.92a2,2,0,1,1,2,2.07,2,2,0,0,1-2-2.07m-1,0a3,3,0,1,0,3-3,3,3,0,0,0-3,3m-6.18,0a2,2,0,1,1,2,2.07,2,2,0,0,1-2-2.07m-1,0a3,3,0,1,0,3-3,3,3,0,0,0-3,3m-2.43-2.85a1.35,1.35,0,0,1-1.5,1.38H97.61V181.9H99a1.37,1.37,0,0,1,1.5,1.4m-3.91,5.77h1v-3.41h.86c1.06,0,2.08,1.38,2.46,3.41H102c-.3-1.93-1.14-3.32-2.11-3.78a2,2,0,0,0,1.68-2.08,2.28,2.28,0,0,0-2.57-2.3H96.58Zm-6.24-3a2,2,0,1,1-2-2A1.93,1.93,0,0,1,90.34,186.07Zm0-2.84v1.15a2.43,2.43,0,0,0-2.2-1.27,3,3,0,0,0,0,5.91,2.46,2.46,0,0,0,2.2-1.22v.95a1.92,1.92,0,0,1-2,2,3.73,3.73,0,0,1-2.06-.64v1.08a4.39,4.39,0,0,0,2,.5,2.82,2.82,0,0,0,3-3v-5.4Zm-10.45,0h-1v5.84h1v-3.48a1.41,1.41,0,0,1,1.47-1.5,1.44,1.44,0,0,1,1.48,1.57v3.41h1v-3.65a2.14,2.14,0,0,0-2.19-2.31,1.87,1.87,0,0,0-1.75,1Zm-5.25.74a1.76,1.76,0,0,1,1.85,1.76H72.78A1.89,1.89,0,0,1,74.69,184m2.78,2.55a4,4,0,0,0,0-.54,2.76,2.76,0,0,0-2.82-2.87,3,3,0,0,0,.06,6.08,4.17,4.17,0,0,0,2.18-.61v-1a3.68,3.68,0,0,1-2.1.73,2,2,0,0,1-2-1.76Zm-7.11-3.11a3.08,3.08,0,0,0-1.34-.3c-1.29,0-2,.69-2,1.61a1.56,1.56,0,0,0,.86,1.4l1.08.65c.45.26.6.49.6.79s-.36.76-1,.76a2.37,2.37,0,0,1-1.46-.55v1.08a3.66,3.66,0,0,0,1.51.34c1.24,0,2-.63,2-1.63a1.68,1.68,0,0,0-1-1.51l-1-.61c-.35-.22-.52-.39-.52-.7s.33-.74,1-.74a2.32,2.32,0,0,1,1.33.46Zm-8.82-.18h-1v5.84h1v-3.48a1.48,1.48,0,1,1,2.95.07v3.41h1v-3.65a2.15,2.15,0,0,0-2.2-2.31,1.88,1.88,0,0,0-1.75,1Zm-4-1.84a.66.66,0,0,0,1.32,0,.66.66,0,1,0-1.32,0m1.15,1.84h-1v5.84h1Zm-4-2a4.94,4.94,0,0,0-2.22-.48,4.14,4.14,0,0,0-4.29,4.2,4,4,0,0,0,4.07,4.2,3.8,3.8,0,0,0,4-4,5.73,5.73,0,0,0-.1-1.07H52.21v.94H55.1c0,.08,0,.3,0,.39a2.68,2.68,0,0,1-2.85,2.7,3.05,3.05,0,0,1-3-3.18,3.11,3.11,0,0,1,3.21-3.18,4.44,4.44,0,0,1,2.22.6Zm-15,2h-1v5.84h1v-3.48a1.41,1.41,0,0,1,1.47-1.5,1.44,1.44,0,0,1,1.48,1.57v3.41h1v-3.65a2.14,2.14,0,0,0-2.19-2.31,1.87,1.87,0,0,0-1.75,1Zm-6.41,4a1.22,1.22,0,0,1,1.28-1.15,1.17,1.17,0,1,1-1.28,1.15Zm-.36-2.75a3,3,0,0,1,1.58-.48,1.25,1.25,0,0,1,1.36,1.32V186a2.06,2.06,0,0,0-1.53-.68,1.93,1.93,0,0,0-2.05,1.92,1.91,1.91,0,0,0,2,1.94,1.84,1.84,0,0,0,1.54-.75v.63h1v-3.72a2,2,0,0,0-2.25-2.24,3.78,3.78,0,0,0-1.68.41Zm-3.22-3.11a.64.64,0,0,0,.65.65.64.64,0,0,0,.67-.65.64.64,0,0,0-.67-.66.65.65,0,0,0-.65.66m1.15,1.84h-1v5.84h1Zm-2.78.18a3.12,3.12,0,0,0-1.34-.3c-1.29,0-2,.69-2,1.61a1.56,1.56,0,0,0,.86,1.4l1.08.65c.45.26.6.49.6.79s-.36.76-1,.76a2.37,2.37,0,0,1-1.46-.55v1.08a3.66,3.66,0,0,0,1.51.34c1.23,0,2-.63,2-1.63a1.69,1.69,0,0,0-1-1.51l-1-.61c-.35-.22-.52-.39-.52-.7s.32-.74.95-.74a2.32,2.32,0,0,1,1.33.46Zm-7.9-1.14,1.31,3.53H18.85Zm2.5,6.8h1.16l-3.07-8.16H19.58l-3.07,8.16h1.16l.83-2.28h3.3Z" transform="translate(-16.37 -24.37)"/></g><polygon class="cls-2" points="175.83 152.26 176.43 149.38 175.29 149.38 174.92 152.26 175.83 152.26"/><g class="cls-3"><path class="cls-2" d="M182.74,168.23h-1.46v-.67a.79.79,0,0,1,.86-.9,1.71,1.71,0,0,1,.67.13v-1a2.72,2.72,0,0,0-.69-.1,1.69,1.69,0,0,0-1.84,1.83v.73h-.91v.86h.91v5h1v-5h1.46Zm-8.22,4a1.29,1.29,0,1,1,1.29,1.18,1.24,1.24,0,0,1-1.29-1.18Zm-.36-2.75a3,3,0,0,1,1.59-.48,1.25,1.25,0,0,1,1.35,1.32V171a2.06,2.06,0,0,0-1.52-.68,1.93,1.93,0,0,0-2.05,1.92,1.9,1.9,0,0,0,2,1.94,1.82,1.82,0,0,0,1.53-.75v.63h1v-3.72a2,2,0,0,0-2.26-2.24,3.78,3.78,0,0,0-1.68.41Zm-4.41-.53a1.75,1.75,0,0,1,1.84,1.76h-3.75a1.88,1.88,0,0,1,1.91-1.76m2.77,2.55a4,4,0,0,0,0-.54,2.75,2.75,0,0,0-2.81-2.87,3,3,0,0,0,.06,6.08,4,4,0,0,0,2.17-.61v-1a3.65,3.65,0,0,1-2.1.73,2,2,0,0,1-2-1.76Zm-6.35,2.55v-1h-3.36v-7.18h-1v8.16Zm-13.08-1.82a1.22,1.22,0,0,1,1.28-1.15,1.17,1.17,0,1,1-1.28,1.15Zm-.36-2.75a3,3,0,0,1,1.58-.48,1.25,1.25,0,0,1,1.36,1.32V171a2.06,2.06,0,0,0-1.52-.68,1.94,1.94,0,0,0-2.06,1.92,1.91,1.91,0,0,0,2,1.94,1.83,1.83,0,0,0,1.54-.75v.63h1v-3.72a2,2,0,0,0-2.25-2.24,3.78,3.78,0,0,0-1.68.41Zm-6.81,1.65a2,2,0,1,1,4.07,0,2,2,0,1,1-4.07,0Zm0-2.92h-1v8.3h1v-3.62a2.44,2.44,0,0,0,2.21,1.28,3,3,0,0,0,0-6.08,2.43,2.43,0,0,0-2.23,1.34Zm-7.56,2.92a2,2,0,1,1,2,2.07,2,2,0,0,1-2-2.07m-1,0a3,3,0,1,0,3-3,3,3,0,0,0-3,3m-1.08,1.56a2.45,2.45,0,0,1-1.51.51,2.07,2.07,0,0,1,0-4.13,2.39,2.39,0,0,1,1.51.52v-1.1a3.17,3.17,0,0,0-1.51-.4,3,3,0,1,0,0,6.08,3,3,0,0,0,1.51-.4Zm-9.61-.46a1.29,1.29,0,1,1,1.29,1.18,1.24,1.24,0,0,1-1.29-1.18Zm-.36-2.75a3,3,0,0,1,1.59-.48,1.25,1.25,0,0,1,1.35,1.32V171a2.06,2.06,0,0,0-1.52-.68,1.93,1.93,0,0,0-2,1.92,1.9,1.9,0,0,0,2,1.94,1.82,1.82,0,0,0,1.53-.75v.63h1v-3.72a2,2,0,0,0-2.26-2.24,3.78,3.78,0,0,0-1.68.41Zm-3.11-1.35a1.22,1.22,0,0,1-1.38,1.24h-1.38V166.9h1.38a1.22,1.22,0,0,1,1.38,1.25m.26,3.6a1.34,1.34,0,0,1-1.52,1.34h-1.5v-2.73h1.5a1.37,1.37,0,0,1,1.52,1.39m-4.05,2.32h2.53c1.47,0,2.59-.81,2.59-2.22a2,2,0,0,0-1.41-2,1.88,1.88,0,0,0,1.15-1.83,2.19,2.19,0,0,0-2.43-2.12h-2.43Zm-5.73,2.56.6-2.88h-1.14l-.38,2.88Zm-14.14-.1h1.15l3.57-8.3h-1.14l-1.72,4.14-1.67-4.14H98.56l2.26,5.4ZM96,168.23H95v5.84h1v-3.48c0-.9.45-1.5,1.29-1.5a1.69,1.69,0,0,1,.71.15v-1.07a2.12,2.12,0,0,0-.49-.06A1.59,1.59,0,0,0,96,169Zm-4.26,0h-1v5.84h1v-3.48c0-.9.45-1.5,1.29-1.5a1.69,1.69,0,0,1,.71.15v-1.07a2.12,2.12,0,0,0-.49-.06,1.59,1.59,0,0,0-1.51.91Zm-5.25.74a1.76,1.76,0,0,1,1.85,1.76H84.53A1.89,1.89,0,0,1,86.44,169m2.77,2.55a2.88,2.88,0,0,0-2.77-3.41,3,3,0,0,0,.06,6.08,4,4,0,0,0,2.17-.61v-1a3.63,3.63,0,0,1-2.1.73,2,2,0,0,1-2-1.76ZM81,168.15a1.22,1.22,0,0,1-1.38,1.24H78.2V166.9h1.38A1.23,1.23,0,0,1,81,168.15m.25,3.6a1.33,1.33,0,0,1-1.51,1.34H78.2v-2.73h1.5a1.36,1.36,0,0,1,1.51,1.39m-4,2.32H79.7a2.3,2.3,0,0,0,2.59-2.22,2,2,0,0,0-1.42-2A1.88,1.88,0,0,0,82,168a2.2,2.2,0,0,0-2.44-2.12H77.17Zm-8.69-1.82a1.22,1.22,0,0,1,1.28-1.15,1.17,1.17,0,1,1-1.28,1.15Zm-.36-2.75A3,3,0,0,1,69.7,169a1.25,1.25,0,0,1,1.36,1.32V171a2.06,2.06,0,0,0-1.53-.68,1.93,1.93,0,0,0-2,1.92,1.91,1.91,0,0,0,2,1.94,1.84,1.84,0,0,0,1.54-.75v.63h1v-3.72a2,2,0,0,0-2.25-2.24,3.78,3.78,0,0,0-1.68.41Zm-3.3-1.27h-1v5.84h1v-3.48c0-.9.45-1.5,1.29-1.5a1.69,1.69,0,0,1,.71.15v-1.07a2,2,0,0,0-.49-.06,1.6,1.6,0,0,0-1.51.91Zm-3.9,2.91a2,2,0,1,1-4.07,0,2,2,0,1,1,4.07,0Zm0,2.93h1v-8.28h-1v3.61a2.45,2.45,0,0,0-2.2-1.29,3,3,0,0,0,0,6.08,2.43,2.43,0,0,0,2.2-1.28Zm-10.51-5.84h-1v5.84h1v-3.48a1.41,1.41,0,0,1,1.47-1.5,1.44,1.44,0,0,1,1.48,1.57v3.41h1v-3.65a2.14,2.14,0,0,0-2.19-2.31,1.87,1.87,0,0,0-1.75,1Zm-6.41,4a1.22,1.22,0,0,1,1.28-1.15A1.17,1.17,0,1,1,44,172.25Zm-.36-2.75a3,3,0,0,1,1.58-.48,1.25,1.25,0,0,1,1.36,1.32V171a2.06,2.06,0,0,0-1.53-.68,1.93,1.93,0,0,0-2,1.92,1.91,1.91,0,0,0,2,1.94,1.84,1.84,0,0,0,1.54-.75v.63h1v-3.72a2,2,0,0,0-2.25-2.24,3.78,3.78,0,0,0-1.68.41Zm-2-1.09a3.05,3.05,0,0,0-1.34-.3c-1.29,0-2,.7-2,1.61a1.56,1.56,0,0,0,.86,1.4l1.08.65c.45.26.6.49.6.79s-.36.76-1,.76a2.37,2.37,0,0,1-1.46-.55v1.08a3.66,3.66,0,0,0,1.51.34c1.24,0,2-.63,2-1.63a1.68,1.68,0,0,0-1-1.51l-1-.61c-.35-.22-.52-.39-.52-.7s.33-.74,1-.74a2.32,2.32,0,0,1,1.33.46Zm-6.08-2a.66.66,0,0,0,1.32,0,.66.66,0,1,0-1.32,0m1.15,1.84h-1v5.84h1ZM30,165.79H29v8.28h1v-3.48a1.48,1.48,0,1,1,3,.07v3.41h1v-3.65a2.15,2.15,0,0,0-2.2-2.31,1.88,1.88,0,0,0-1.75,1Zm-2.57,6.92a2.45,2.45,0,0,1-1.51.51,2.07,2.07,0,0,1,0-4.13,2.39,2.39,0,0,1,1.51.52v-1.1a3.17,3.17,0,0,0-1.51-.4,3,3,0,1,0,0,6.08,3,3,0,0,0,1.51-.4Zm-6.12-6.47a3.52,3.52,0,0,0-1.75-.45c-1.85,0-2.55,1.09-2.55,2.14a2.18,2.18,0,0,0,1.27,2l1.4.89c.6.37.89.77.89,1.2,0,.64-.53,1.2-1.51,1.2a3.11,3.11,0,0,1-2-.73v1.21a4.41,4.41,0,0,0,2,.49A2.28,2.28,0,0,0,21.63,172a2.35,2.35,0,0,0-1.38-2.1L18.83,169a1.3,1.3,0,0,1-.75-1.09c0-.68.54-1.14,1.43-1.14a3,3,0,0,1,1.77.64Z" transform="translate(-16.37 -24.37)"/><path class="cls-2" d="M230.55,126.47l-.21.36,1.14.66-1.14.66.22.36,1.14-.65v1.28h.42v-1.29l1.13.64.21-.36-1.14-.64,1.14-.66-.21-.38-1.13.66v-1.32h-.42v1.32Zm-4.49,0-.2.36,1.14.66-1.14.66.21.36,1.14-.65v1.28h.42v-1.29l1.13.64.21-.36-1.14-.64,1.14-.66-.21-.38-1.13.66v-1.32h-.42v1.32Zm-2.86,4.6a2,2,0,1,1-2-2,1.93,1.93,0,0,1,2,2Zm.05-2.84v1.15a2.43,2.43,0,0,0-2.2-1.27,3,3,0,0,0,0,5.92,2.47,2.47,0,0,0,2.2-1.23v.95a1.92,1.92,0,0,1-2,2,3.76,3.76,0,0,1-2.06-.64v1.08a4.39,4.39,0,0,0,2.05.5,2.82,2.82,0,0,0,3-3v-5.4Zm-13.73,0h-1v5.84h1v-3.62a1.34,1.34,0,1,1,2.68.08v3.54h1v-3.54a1.31,1.31,0,0,1,1.35-1.44,1.29,1.29,0,0,1,1.33,1.44v3.54h1v-3.78a2,2,0,0,0-2.06-2.18,1.77,1.77,0,0,0-1.78,1.21,1.94,1.94,0,0,0-1.89-1.21,1.77,1.77,0,0,0-1.62.92Zm-6.27,2.08h1.2a1.42,1.42,0,0,1,1.49,1.42,1.46,1.46,0,0,1-1.59,1.43,2.72,2.72,0,0,1-1.7-.56v1.17a3.61,3.61,0,0,0,1.75.42,2.39,2.39,0,0,0,2.6-2.34,2.1,2.1,0,0,0-1.32-2,1.9,1.9,0,0,0,1.09-1.85,2.2,2.2,0,0,0-2.41-2.16,3.32,3.32,0,0,0-1.62.39v1.13a2.7,2.7,0,0,1,1.59-.48,1.25,1.25,0,1,1,.11,2.49h-1.19Zm-4.3,3.23a.64.64,0,0,0,1.28,0,.64.64,0,1,0-1.28,0m-2.46,0a.64.64,0,0,0,1.28,0,.64.64,0,1,0-1.28,0m-2.46,0a.64.64,0,0,0,1.28,0,.64.64,0,1,0-1.28,0m-2.46,0a.64.64,0,0,0,1.28,0,.64.64,0,1,0-1.28,0m-2.46,0a.64.64,0,0,0,1.28,0,.64.64,0,1,0-1.28,0m-2.46,0a.64.64,0,0,0,1.28,0,.64.64,0,1,0-1.28,0m-2.46,0a.64.64,0,0,0,1.28,0,.64.64,0,1,0-1.28,0m-2.46,0a.64.64,0,0,0,1.28,0,.64.64,0,1,0-1.28,0m-2.46,0a.64.64,0,0,0,1.28,0,.64.64,0,1,0-1.28,0m-2.46,0a.64.64,0,0,0,1.28,0,.64.64,0,1,0-1.28,0m-2.46,0a.64.64,0,0,0,1.28,0,.64.64,0,1,0-1.28,0m-2.46,0a.64.64,0,0,0,1.28,0,.64.64,0,1,0-1.28,0m-2.46,0a.64.64,0,0,0,1.28,0,.64.64,0,1,0-1.28,0m-2.46,0a.64.64,0,0,0,1.28,0,.64.64,0,1,0-1.28,0m-2.46,0a.64.64,0,0,0,1.28,0,.64.64,0,1,0-1.28,0m-2.46,0a.64.64,0,0,0,1.28,0,.64.64,0,1,0-1.28,0m-2.46,0a.64.64,0,0,0,1.28,0,.64.64,0,1,0-1.28,0m-2.46,0a.64.64,0,0,0,1.28,0,.64.64,0,1,0-1.28,0m-2.46,0a.64.64,0,0,0,1.28,0,.64.64,0,1,0-1.28,0m-2.46,0a.64.64,0,0,0,1.28,0,.64.64,0,1,0-1.28,0m-2.29-2.38a8.24,8.24,0,0,1-1.53,5l.57.39a8.91,8.91,0,0,0,0-10.74l-.57.4a8.23,8.23,0,0,1,1.53,5m-6,1.09a1.22,1.22,0,0,1,1.28-1.15,1.17,1.17,0,1,1-1.28,1.15Zm-.36-2.75a3,3,0,0,1,1.58-.48,1.25,1.25,0,0,1,1.36,1.32V131a2.06,2.06,0,0,0-1.53-.68,1.93,1.93,0,0,0-2,1.92,1.91,1.91,0,0,0,2,1.94,1.84,1.84,0,0,0,1.54-.75v.63h1v-3.72a2,2,0,0,0-2.25-2.24,3.78,3.78,0,0,0-1.68.41ZM138,126.9a3.1,3.1,0,0,1,0,6.19h-1.84V126.9Zm-2.87,7.17H138a4.08,4.08,0,0,0,0-8.16h-2.88Zm-3-5.92a1.22,1.22,0,0,1-1.38,1.24h-1.38V126.9h1.38a1.22,1.22,0,0,1,1.38,1.25m.26,3.6a1.34,1.34,0,0,1-1.52,1.34h-1.5v-2.72h1.5a1.36,1.36,0,0,1,1.52,1.38m-4.05,2.32h2.53c1.47,0,2.59-.81,2.59-2.22a2,2,0,0,0-1.41-2,1.88,1.88,0,0,0,1.15-1.83,2.19,2.19,0,0,0-2.43-2.12h-2.43Zm-1.74-1.64a3.31,3.31,0,0,1-2.15.74,3.18,3.18,0,0,1,0-6.36,3.29,3.29,0,0,1,2.15.76v-1.21a4.26,4.26,0,0,0-2.15-.57,4.2,4.2,0,0,0,0,8.4,4.25,4.25,0,0,0,2.15-.56Zm-8.51-1.26a8.24,8.24,0,0,1,1.54-5l-.58-.4a8.91,8.91,0,0,0,0,10.74l.58-.39a8.24,8.24,0,0,1-1.54-5m-6.19,0a2,2,0,0,1-2,2.06,2.06,2.06,0,1,1,2-2.06Zm0,2.92h1v-8.28h-1v3.62a2.44,2.44,0,0,0-2.19-1.3,3,3,0,0,0,0,6.08,2.42,2.42,0,0,0,2.19-1.28Zm-7.65-7.68a.66.66,0,0,0,1.31,0,.66.66,0,1,0-1.31,0m1.15,1.84h-1v5.84h1Zm-2.45,4.48a2.47,2.47,0,0,1-1.51.51,2.07,2.07,0,0,1,0-4.13,2.41,2.41,0,0,1,1.51.52v-1.1a3.2,3.2,0,0,0-1.51-.4,3,3,0,1,0,0,6.08,3.06,3.06,0,0,0,1.51-.4Zm-8.8-5.44,1.31,3.53H92.83Zm2.5,6.8h1.16l-3.07-8.16H93.56l-3.07,8.16h1.16l.83-2.28h3.3Zm-9.49-1.36a2.5,2.5,0,0,1-1.52.51,2.07,2.07,0,0,1,0-4.13,2.44,2.44,0,0,1,1.52.52v-1.1a3.21,3.21,0,0,0-1.52-.4,3,3,0,1,0,0,6.08,3.07,3.07,0,0,0,1.52-.4ZM80,126.39a.66.66,0,0,0,1.32,0,.66.66,0,1,0-1.32,0m1.15,1.84h-1v5.84h1Zm-2.8-2.44h-1v8.28h1Zm-7.45,5.36a2,2,0,1,1,2,2.07,2,2,0,0,1-2-2.07m-1,0a3,3,0,1,0,3-3,3,3,0,0,0-3,3m-2.54-4.76a.66.66,0,0,0,1.32,0,.66.66,0,1,0-1.32,0m1.15,1.84h-1v5.84h1Zm-3.78,2.92a2,2,0,0,1-2,2.06,2.06,2.06,0,1,1,2-2.06Zm0,2.92h1v-8.28h-1v3.62a2.44,2.44,0,0,0-2.2-1.3,3,3,0,0,0,0,6.08,2.43,2.43,0,0,0,2.2-1.28Zm-7.66-7.68a.66.66,0,0,0,1.32,0,.64.64,0,0,0-.67-.66.65.65,0,0,0-.65.66m1.16,1.84h-1v5.84h1Zm-7.52,2.92a2,2,0,1,1,4.07,0,2,2,0,1,1-4.07,0Zm0,1.76a2.46,2.46,0,0,0,2.22,1.28,3,3,0,0,0,0-6.08,2.47,2.47,0,0,0-2.22,1.3v-3.62h-1v8.28h1Zm-6.28-.66a1.22,1.22,0,0,1,1.28-1.15,1.17,1.17,0,1,1-1.28,1.15Zm-.36-2.75a3,3,0,0,1,1.58-.48A1.25,1.25,0,0,1,47,130.34V131a2.06,2.06,0,0,0-1.53-.68,1.93,1.93,0,0,0-2.05,1.92,1.91,1.91,0,0,0,2,1.94,1.85,1.85,0,0,0,1.54-.75v.63h1v-3.72a2,2,0,0,0-2.25-2.24,3.78,3.78,0,0,0-1.68.41Zm-5.84-1.27h-1v5.84h1v-3.48a1.42,1.42,0,0,1,1.48-1.5,1.45,1.45,0,0,1,1.48,1.58v3.4h1v-3.64A2.15,2.15,0,0,0,40,128.11a1.88,1.88,0,0,0-1.76,1Zm-6.66,0h-1v5.84h1v-3.48a1.42,1.42,0,0,1,1.48-1.5,1.45,1.45,0,0,1,1.48,1.58v3.4h1v-3.64a2.15,2.15,0,0,0-2.19-2.32,1.88,1.88,0,0,0-1.76,1Zm-6.28,4a1.22,1.22,0,0,1,1.28-1.15,1.17,1.17,0,1,1-1.28,1.15Zm-.36-2.75a3,3,0,0,1,1.58-.48,1.25,1.25,0,0,1,1.36,1.32V131a2.06,2.06,0,0,0-1.53-.68,1.93,1.93,0,0,0-2.05,1.92,1.91,1.91,0,0,0,2,1.94,1.85,1.85,0,0,0,1.54-.75v.63h1v-3.72a2,2,0,0,0-2.25-2.24,3.78,3.78,0,0,0-1.68.41Zm-1.68,2.93a3.31,3.31,0,0,1-2.15.74,3.18,3.18,0,0,1,0-6.36,3.31,3.31,0,0,1,2.15.76v-1.21a4.28,4.28,0,0,0-2.15-.57,4.2,4.2,0,0,0,0,8.4,4.28,4.28,0,0,0,2.15-.56Z" transform="translate(-16.37 -24.37)"/><path class="cls-2" d="M230.55,111.47l-.21.36,1.14.66-1.14.66.22.36,1.14-.65v1.28h.42v-1.29l1.13.64.21-.36-1.14-.64,1.14-.66-.21-.38-1.13.66v-1.32h-.42v1.32Zm-4.49,0-.2.36,1.14.66-1.14.66.21.36,1.14-.65v1.28h.42v-1.29l1.13.64.21-.36-1.14-.64,1.14-.66-.21-.38-1.13.66v-1.32h-.42v1.32Zm-2.86,4.6a2,2,0,1,1-2-2,1.93,1.93,0,0,1,2,2Zm.05-2.84v1.15a2.43,2.43,0,0,0-2.2-1.27,3,3,0,0,0,0,5.92,2.47,2.47,0,0,0,2.2-1.23v1a1.92,1.92,0,0,1-2,2,3.76,3.76,0,0,1-2.06-.64v1.08a4.39,4.39,0,0,0,2.05.5,2.82,2.82,0,0,0,3-3v-5.4Zm-13.73,0h-1v5.84h1v-3.62a1.34,1.34,0,1,1,2.68.08v3.54h1v-3.54a1.31,1.31,0,0,1,1.35-1.44,1.29,1.29,0,0,1,1.33,1.44v3.54h1v-3.78a2,2,0,0,0-2.06-2.18,1.77,1.77,0,0,0-1.78,1.21,1.94,1.94,0,0,0-1.89-1.21,1.77,1.77,0,0,0-1.62.92Zm-5.46-2.44a2.68,2.68,0,0,0-2.74,2.76v2.87a2.75,2.75,0,1,0,5.5,0v-2.87a2.68,2.68,0,0,0-2.76-2.76m0,1a1.67,1.67,0,0,1,1.73,1.79v2.81a1.72,1.72,0,1,1-3.44,0v-2.81a1.67,1.67,0,0,1,1.71-1.79m-8.66,7.27h4.82v-1h-1.74v-7.18h-2.86v1h1.83v6.19h-2Zm-3.83-.53a.64.64,0,0,0,1.28,0,.64.64,0,1,0-1.28,0m-2.46,0a.64.64,0,0,0,1.28,0,.64.64,0,1,0-1.28,0m-2.46,0a.64.64,0,0,0,1.28,0,.64.64,0,0,0-1.28,0m-2.46,0a.64.64,0,0,0,1.28,0,.64.64,0,1,0-1.28,0m-2.46,0a.64.64,0,0,0,1.28,0,.64.64,0,1,0-1.28,0m-2.46,0a.64.64,0,0,0,1.28,0,.64.64,0,0,0-1.28,0m-2.46,0a.64.64,0,0,0,1.28,0,.64.64,0,0,0-1.28,0m-2.46,0a.64.64,0,0,0,1.28,0,.64.64,0,1,0-1.28,0m-2.46,0a.64.64,0,0,0,1.28,0,.64.64,0,1,0-1.28,0m-2.46,0a.64.64,0,0,0,1.28,0,.64.64,0,0,0-1.28,0m-2.46,0a.64.64,0,0,0,1.28,0,.64.64,0,1,0-1.28,0m-2.46,0a.64.64,0,0,0,1.28,0,.64.64,0,1,0-1.28,0m-2.46,0a.64.64,0,0,0,1.28,0,.64.64,0,0,0-1.28,0m-2.46,0a.64.64,0,0,0,1.28,0,.64.64,0,0,0-1.28,0m-2.46,0a.64.64,0,0,0,1.28,0,.64.64,0,1,0-1.28,0m-2.46,0a.64.64,0,0,0,1.28,0,.64.64,0,1,0-1.28,0m-2.46,0a.64.64,0,0,0,1.28,0,.64.64,0,0,0-1.28,0m-2.46,0a.64.64,0,0,0,1.28,0,.64.64,0,0,0-1.28,0m-2.46,0a.64.64,0,0,0,1.28,0,.64.64,0,1,0-1.28,0m-2.46,0a.64.64,0,0,0,1.28,0,.64.64,0,0,0-1.28,0m-2.46,0a.64.64,0,0,0,1.28,0,.64.64,0,0,0-1.28,0m-2.46,0a.64.64,0,0,0,1.28,0,.64.64,0,1,0-1.28,0m-2.46,0a.64.64,0,0,0,1.28,0,.64.64,0,0,0-1.28,0m-2.46,0a.64.64,0,0,0,1.28,0,.64.64,0,1,0-1.28,0m-2.46,0a.64.64,0,0,0,1.28,0,.64.64,0,1,0-1.28,0m-2.46,0a.64.64,0,0,0,1.28,0,.64.64,0,0,0-1.28,0m-2.46,0a.64.64,0,0,0,1.28,0,.64.64,0,0,0-1.28,0m-2.46,0a.64.64,0,0,0,1.28,0,.64.64,0,0,0-1.28,0m-2.46,0a.64.64,0,0,0,1.28,0,.64.64,0,0,0-1.28,0m-2.46,0a.64.64,0,0,0,1.28,0,.64.64,0,1,0-1.28,0m-2.46,0a.64.64,0,0,0,1.28,0,.64.64,0,1,0-1.28,0m-2.46,0a.64.64,0,0,0,1.28,0,.64.64,0,0,0-1.28,0m-2.46,0a.64.64,0,0,0,1.28,0,.64.64,0,0,0-1.28,0m-3.13-2.38a8.24,8.24,0,0,1-1.53,5l.57.39a8.91,8.91,0,0,0,0-10.74l-.57.4a8.23,8.23,0,0,1,1.53,5m-6.19-4.26a3.1,3.1,0,0,1,0,6.19h-1.84V111.9Zm-2.87,7.17h2.88a4.08,4.08,0,0,0,0-8.16h-2.88Zm-3-5.92a1.22,1.22,0,0,1-1.38,1.24H94.85V111.9h1.38a1.22,1.22,0,0,1,1.38,1.25m.26,3.6a1.34,1.34,0,0,1-1.52,1.34h-1.5v-2.72h1.5a1.36,1.36,0,0,1,1.52,1.38m-4.05,2.32h2.53c1.47,0,2.59-.81,2.59-2.22a2,2,0,0,0-1.41-2A1.88,1.88,0,0,0,98.68,113a2.19,2.19,0,0,0-2.43-2.12H93.82Zm-1.74-1.64a3.31,3.31,0,0,1-2.15.74,3.18,3.18,0,0,1,0-6.36,3.29,3.29,0,0,1,2.15.76v-1.21a4.26,4.26,0,0,0-2.15-.57,4.2,4.2,0,0,0,0,8.4,4.25,4.25,0,0,0,2.15-.56Zm-8.51-1.26a8.24,8.24,0,0,1,1.54-5l-.58-.4a8.91,8.91,0,0,0,0,10.74l.58-.39a8.24,8.24,0,0,1-1.54-5m-5.21-5.38h-1v8.28h1Zm-7.45,5.36a2,2,0,1,1,2,2.07,2,2,0,0,1-2-2.07m-1,0a3,3,0,1,0,3-3,3,3,0,0,0-3,3m-2.54-4.76a.66.66,0,0,0,1.32,0,.66.66,0,1,0-1.32,0m1.15,1.84h-1v5.84h1Zm-3.78,2.92a2,2,0,0,1-2,2.06,2.06,2.06,0,1,1,2-2.06Zm0,2.92h1v-8.28h-1v3.62a2.44,2.44,0,0,0-2.2-1.3,3,3,0,0,0,0,6.08,2.43,2.43,0,0,0,2.2-1.28Zm-7.66-7.68a.66.66,0,0,0,1.32,0,.64.64,0,0,0-.67-.66.65.65,0,0,0-.65.66m1.16,1.84h-1v5.84h1Zm-7.52,2.92a2,2,0,1,1,4.07,0,2,2,0,1,1-4.07,0Zm0,1.76a2.46,2.46,0,0,0,2.22,1.28,3,3,0,0,0,0-6.08,2.47,2.47,0,0,0-2.22,1.3v-3.62h-1v8.28h1Zm-6.28-.66a1.22,1.22,0,0,1,1.28-1.15,1.17,1.17,0,1,1-1.28,1.15Zm-.36-2.75a3,3,0,0,1,1.58-.48A1.25,1.25,0,0,1,47,115.34V116a2.06,2.06,0,0,0-1.53-.68,1.93,1.93,0,0,0-2.05,1.92,1.91,1.91,0,0,0,2,1.94,1.85,1.85,0,0,0,1.54-.75v.63h1v-3.72a2,2,0,0,0-2.25-2.24,3.78,3.78,0,0,0-1.68.41Zm-5.84-1.27h-1v5.84h1v-3.48a1.42,1.42,0,0,1,1.48-1.5,1.45,1.45,0,0,1,1.48,1.58v3.4h1v-3.64A2.15,2.15,0,0,0,40,113.11a1.88,1.88,0,0,0-1.76,1Zm-6.66,0h-1v5.84h1v-3.48a1.42,1.42,0,0,1,1.48-1.5,1.45,1.45,0,0,1,1.48,1.58v3.4h1v-3.64a2.15,2.15,0,0,0-2.19-2.32,1.88,1.88,0,0,0-1.76,1Zm-6.28,4a1.22,1.22,0,0,1,1.28-1.15,1.17,1.17,0,1,1-1.28,1.15Zm-.36-2.75a3,3,0,0,1,1.58-.48,1.25,1.25,0,0,1,1.36,1.32V116a2.06,2.06,0,0,0-1.53-.68,1.93,1.93,0,0,0-2.05,1.92,1.91,1.91,0,0,0,2,1.94,1.85,1.85,0,0,0,1.54-.75v.63h1v-3.72a2,2,0,0,0-2.25-2.24,3.78,3.78,0,0,0-1.68.41Zm-1.68,2.93a3.31,3.31,0,0,1-2.15.74,3.18,3.18,0,0,1,0-6.36,3.31,3.31,0,0,1,2.15.76v-1.21a4.28,4.28,0,0,0-2.15-.57,4.2,4.2,0,0,0,0,8.4,4.28,4.28,0,0,0,2.15-.56Z" transform="translate(-16.37 -24.37)"/><path class="cls-2" d="M230.55,96.47l-.21.36,1.14.66-1.14.65.22.36,1.14-.64v1.28h.42V97.85l1.13.64.21-.36-1.14-.64,1.14-.66-.21-.38-1.13.66V95.79h-.42v1.32Zm-4.49,0-.2.36,1.14.66-1.14.65.21.36,1.14-.64v1.28h.42V97.85l1.13.64.21-.36-1.14-.64,1.14-.66-.21-.38-1.13.66V95.79h-.42v1.32Zm-3.4,4.53a1.42,1.42,0,1,1-1.43-1.43A1.4,1.4,0,0,1,222.66,101Zm.1-2.9v.79a2.29,2.29,0,0,0-1.9-.91,3,3,0,0,0,0,6,2.37,2.37,0,0,0,1.89-.87v.42a1.53,1.53,0,0,1-1.68,1.55,4.06,4.06,0,0,1-2-.6v1.69a4.68,4.68,0,0,0,2,.44,3,3,0,0,0,3.32-3.3V98.1Zm-13,0h-1.63v6h1.63v-3.51a1,1,0,1,1,2,.08v3.43h1.63v-3.43a1,1,0,0,1,1-1.07,1,1,0,0,1,1,1.07v3.43H217v-3.9A2.07,2.07,0,0,0,214.92,98a1.84,1.84,0,0,0-1.76,1.08A1.93,1.93,0,0,0,211.32,98a1.74,1.74,0,0,0-1.52.83Zm-6.94.63a1.2,1.2,0,1,1,1.2,1.21,1.2,1.2,0,0,1-1.2-1.21m-.68,5.34h2l2.24-3.59a3.28,3.28,0,0,0,.53-1.75,2.93,2.93,0,1,0-3.18,2.9Zm-6.68,0h5.15v-1.64h-1.59V95.91h-3.25v1.65h1.55v4.87H195.5Zm-3.93-.53a.64.64,0,0,0,1.28,0,.64.64,0,1,0-1.28,0m-2.46,0a.64.64,0,0,0,1.28,0,.64.64,0,1,0-1.28,0m-2.46,0a.64.64,0,0,0,1.28,0,.64.64,0,0,0-1.28,0m-2.46,0a.64.64,0,0,0,1.28,0,.64.64,0,1,0-1.28,0m-2.46,0a.64.64,0,0,0,1.28,0,.64.64,0,1,0-1.28,0m-2.46,0a.64.64,0,0,0,1.28,0,.64.64,0,0,0-1.28,0m-2.46,0a.64.64,0,0,0,1.28,0,.64.64,0,0,0-1.28,0m-2.46,0a.64.64,0,0,0,1.28,0,.64.64,0,1,0-1.28,0m-2.46,0a.64.64,0,0,0,1.28,0,.64.64,0,1,0-1.28,0m-2.46,0a.64.64,0,0,0,1.28,0,.64.64,0,0,0-1.28,0m-2.46,0a.64.64,0,0,0,1.28,0,.64.64,0,1,0-1.28,0m-2.46,0a.64.64,0,0,0,1.28,0,.64.64,0,1,0-1.28,0m-1.87.53V99.49h1V98.1h-1V96.44l-1.53.35V98.1h-1v1.39H161v4.58Zm-3.38-1.88a2.23,2.23,0,0,1-1.32.42,1.52,1.52,0,0,1,0-3,2.32,2.32,0,0,1,1.32.41V98.25a3.66,3.66,0,0,0-1.32-.27,3.11,3.11,0,1,0,0,6.22,3.25,3.25,0,0,0,1.32-.28Zm-8.9.07a.79.79,0,0,1,.84-.74.75.75,0,1,1,0,1.49.8.8,0,0,1-.84-.75Zm-.94-2.39a3.13,3.13,0,0,1,1.53-.44,1,1,0,0,1,1.11,1v.32a2.16,2.16,0,0,0-1.31-.43,1.88,1.88,0,0,0-2,1.92,1.84,1.84,0,0,0,2,1.94,1.71,1.71,0,0,0,1.34-.57v.44h1.63v-3.58A2.25,2.25,0,0,0,151.14,98a4.81,4.81,0,0,0-1.72.35Zm-3-1.77h-1.63v6h1.63V100.6a1,1,0,0,1,1-1,2,2,0,0,1,.88.18V98a3.83,3.83,0,0,0-.47,0,1.61,1.61,0,0,0-1.42.77Zm-3.6,6V99.49h1V98.1h-1V96.44l-1.53.35V98.1h-1v1.39h.91v4.58ZM137,102.3l1.06,1.77h1.9l-1.95-3,1.95-3H138L137,99.86l-1.07-1.76H134l2,3-2,3h1.89Zm-3.78,1.77v-1.64h-2.94v-1.65h2.7V99.14h-2.7V97.56h2.94V95.91h-4.64v8.16Zm-13.38-3a1.49,1.49,0,1,1,1.5,1.51,1.49,1.49,0,0,1-1.5-1.51Zm0-3h-1.63v8.43h1.63v-3.22a2.18,2.18,0,0,0,1.83.89,3.12,3.12,0,0,0,0-6.22,2,2,0,0,0-1.84,1Zm-10.24,0h-1.63v6h1.63v-3.51a1,1,0,1,1,2,.08v3.43h1.63v-3.43a1,1,0,0,1,1-1.07,1,1,0,0,1,1,1.07v3.43h1.63v-3.9a2.07,2.07,0,0,0-2-2.19,1.86,1.86,0,0,0-1.77,1.08A1.91,1.91,0,0,0,111.09,98a1.77,1.77,0,0,0-1.53.83ZM104,99.33a1.13,1.13,0,0,1,1.24,1h-2.58a1.29,1.29,0,0,1,1.34-1m2.71,2.27a3.6,3.6,0,0,0,.1-.78A2.72,2.72,0,0,0,104.05,98a3.11,3.11,0,0,0,.09,6.22,4.88,4.88,0,0,0,2.16-.46v-1.57a3.92,3.92,0,0,1-2,.56,1.48,1.48,0,0,1-1.58-1.13Zm-8.62,2.47h1.7V95.91h-1.7v3.23H94.38V95.91h-1.7v8.16h1.7v-3.29h3.74Zm-17-6H79.53v6h1.63v-3.51a1,1,0,1,1,2,.08v3.43h1.63v-3.43a1,1,0,0,1,1-1.07,1,1,0,0,1,1,1.07v3.43h1.63v-3.9a2.07,2.07,0,0,0-2-2.19,1.86,1.86,0,0,0-1.77,1.08A1.91,1.91,0,0,0,82.69,98a1.76,1.76,0,0,0-1.53.83Zm-4.77,6H78v-6H76.39v3.48a1,1,0,1,1-2-.09V98.1H72.73V102a2.07,2.07,0,0,0,2.08,2.24,1.74,1.74,0,0,0,1.58-.87Zm-6.5-6H68.26v6h1.63V100.6a1,1,0,0,1,1-1,2,2,0,0,1,.88.18V98a3.83,3.83,0,0,0-.47,0,1.61,1.61,0,0,0-1.42.77Zm-3.6,6V99.49h1V98.1h-1V96.44l-1.53.35V98.1h-1v1.39h.91v4.58Zm-3.38-1.88a2.23,2.23,0,0,1-1.32.42,1.52,1.52,0,0,1,0-3,2.3,2.3,0,0,1,1.32.41V98.25A3.62,3.62,0,0,0,61.59,98a3.11,3.11,0,1,0,0,6.22,3.22,3.22,0,0,0,1.32-.28Zm-8-2.86a1.13,1.13,0,0,1,1.24,1H53.53a1.29,1.29,0,0,1,1.34-1m2.71,2.27a3.6,3.6,0,0,0,.1-.78A2.72,2.72,0,0,0,54.88,98a3.11,3.11,0,0,0,.1,6.22,4.91,4.91,0,0,0,2.16-.46v-1.57a4,4,0,0,1-2,.56,1.48,1.48,0,0,1-1.58-1.13Zm-11.17-.51a1.49,1.49,0,1,1,1.5,1.51,1.49,1.49,0,0,1-1.5-1.51Zm0-3H44.78v8.43h1.63v-3.22a2.18,2.18,0,0,0,1.82.89,3.12,3.12,0,0,0,0-6.22,2,2,0,0,0-1.84,1Zm-3.19-1.93a4.39,4.39,0,0,0-1.75-.38c-2.12,0-2.85,1.24-2.85,2.38A2.38,2.38,0,0,0,40,100.41l1.11.66c.46.26.65.51.65.79,0,.44-.36.75-1,.75a3.53,3.53,0,0,1-2-.71v1.88a5.45,5.45,0,0,0,2.07.42,2.43,2.43,0,0,0,2.74-2.44,2.51,2.51,0,0,0-1.47-2.25l-1.08-.65c-.4-.23-.61-.48-.61-.74,0-.42.32-.73,1-.73a3.37,3.37,0,0,1,1.77.59Zm-8.59-.38H33v8.28h1.65Zm-3.14,0H29.85v8.28h1.64Zm-4.78,8.28h1.63v-6H26.71v3.48a1,1,0,1,1-2-.09V98.1H23.05V102a2.07,2.07,0,0,0,2.08,2.24,1.74,1.74,0,0,0,1.58-.87Zm-5-2.94V99.49H19V97.56h2.94V95.91H17.28v8.16H19v-2.94Z" transform="translate(-16.37 -24.37)"/><path class="cls-2" d="M120.64,84.39h1.2V82.76h-1.2Zm0,4.68h1.21V87.43h-1.21Zm-4.06.12a1.92,1.92,0,0,0,2.17-2V84.56h-2.29v1h1v1.55a.79.79,0,0,1-.89.89.87.87,0,0,1-.93-1V82.52a.88.88,0,0,1,.93-1,.86.86,0,0,1,.94.88v.79h1.22v-.91a1.94,1.94,0,0,0-2.17-1.9,2.07,2.07,0,0,0-2.28,2.1v4.64a2,2,0,0,0,2.29,2.08m-8.9-.12h1.19V83.23h0l2.17,5.84h1.23V80.52h-1.19v5.3h0l-2-5.3h-1.39Zm-3.46,0h1.35V80.52h-1.35Zm-4.7.05h1.4l1.63-8.6h-1.21l-1,6.09h0l-1-6.09H97.85ZM93.42,84.5V81.64h.73c.68,0,.93.6.93,1.43,0,1-.32,1.43-.91,1.43Zm-1.34,4.57h1.34V85.51h.71l1,3.56h1.39l-1.17-3.86c.66-.28,1.07-1,1.07-2.24,0-1.63-.77-2.45-2.17-2.45H92.08Zm-5.67,0h3.75V87.92H87.74V85.21h1.93V84.07H87.74V81.64h2.41V80.52H86.41Zm-4,.12A2,2,0,0,0,84.53,87a3.38,3.38,0,0,0-1.17-2.42l-.83-.86c-.42-.46-.87-.92-.87-1.41s.27-.89.76-.89.76.46.84,1.18l1.19,0c-.09-1.68-1-2.22-2-2.22a1.93,1.93,0,0,0-2,2.07,3.1,3.1,0,0,0,1.13,2.24l.9,1a2.15,2.15,0,0,1,.78,1.46c0,.48-.19,1-.78,1s-.86-.6-.92-1.25l-1.24,0c.08,1.45.85,2.3,2.15,2.3M72.89,84.5V81.64h.72c.69,0,.94.6.94,1.43,0,1-.32,1.43-.91,1.43Zm-1.34,4.57h1.34V85.51h.71l1,3.56H76l-1.18-3.86c.66-.28,1.08-1,1.08-2.24,0-1.63-.78-2.45-2.17-2.45H71.55Zm-5.68,0h3.76V87.92H67.21V85.21h1.93V84.07H67.21V81.64h2.41V80.52H65.87ZM61,84.68v-3h.7c.67,0,.91.54.91,1.45s-.31,1.59-1,1.59Zm-1.34,4.39H61V85.78h.83c1.45,0,2.1-1,2.1-2.72s-.62-2.54-2-2.54H59.66Zm-7.35,0h1.35V81.66h1.61V80.52H50.68v1.14h1.63Zm-8,0h1.19V83.23h0l2.17,5.84h1.22V80.52H47.75v5.3h0l-2-5.3h-1.4ZM40,89.2A2.08,2.08,0,0,0,42.26,87v-6.5H41V87c0,.59-.28,1-.89,1a.89.89,0,0,1-.92-1V80.52H37.82v6.56A1.94,1.94,0,0,0,40,89.2M33.57,88a.89.89,0,0,1-.92-1V82.5a.93.93,0,1,1,1.85,0V87a.88.88,0,0,1-.93,1m0,1.18A2.1,2.1,0,0,0,35.85,87V82.5a2,2,0,0,0-2.28-2.11,2.08,2.08,0,0,0-2.29,2.18V87a2,2,0,0,0,2.28,2.18m-9.85-.12h1.18V82.68h0L26,86.26H27l1.1-3.58h0v6.39h1.18V80.52H27.67l-1.14,3.55h0l-1.12-3.55H23.71Zm-5.18-3.32L19.22,82h0l.66,3.73Zm-1.87,3.32h1.25l.41-2.23h1.81l.43,2.23h1.35l-1.68-8.58H18.4Z" transform="translate(-16.37 -24.37)"/><path class="cls-2" d="M230.56,54.79a2.68,2.68,0,0,0-2.75,2.76v2.87a2.76,2.76,0,1,0,5.51,0V57.55a2.68,2.68,0,0,0-2.76-2.76m0,1a1.67,1.67,0,0,1,1.73,1.79V60.4a1.73,1.73,0,1,1-3.45,0V57.59a1.67,1.67,0,0,1,1.72-1.79m-8,3.5h1.2a1.42,1.42,0,0,1,1.49,1.43,1.45,1.45,0,0,1-1.58,1.43A2.75,2.75,0,0,1,222,61.6v1.17a3.66,3.66,0,0,0,1.76.42,2.4,2.4,0,0,0,2.6-2.34A2.09,2.09,0,0,0,225,58.8,1.92,1.92,0,0,0,226.13,57a2.2,2.2,0,0,0-2.41-2.16,3.25,3.25,0,0,0-1.62.39V56.3a2.65,2.65,0,0,1,1.58-.48,1.25,1.25,0,1,1,.11,2.5H222.6Zm-5.09,3.24a.64.64,0,0,0,1.28,0,.64.64,0,1,0-1.28,0m-2.36,0a.64.64,0,0,0,1.28,0,.64.64,0,0,0-1.28,0m-2.36,0a.64.64,0,0,0,1.28,0,.64.64,0,1,0-1.28,0m-2.36,0a.64.64,0,0,0,1.28,0,.64.64,0,0,0-1.28,0m-2.36,0a.64.64,0,0,0,1.28,0,.64.64,0,1,0-1.28,0m-2.36,0a.64.64,0,0,0,1.28,0,.64.64,0,0,0-1.28,0m-2.36,0a.64.64,0,0,0,1.28,0,.64.64,0,1,0-1.28,0m-2.36,0a.64.64,0,0,0,1.28,0,.64.64,0,0,0-1.28,0m-2.36,0a.64.64,0,0,0,1.28,0,.64.64,0,1,0-1.28,0m-2.36,0a.64.64,0,0,0,1.28,0,.64.64,0,0,0-1.28,0m-2.36,0a.64.64,0,0,0,1.28,0,.64.64,0,1,0-1.28,0m-2.36,0a.64.64,0,0,0,1.28,0,.64.64,0,1,0-1.28,0m-2.36,0a.64.64,0,0,0,1.28,0,.64.64,0,0,0-1.28,0m-2.36,0a.64.64,0,0,0,1.28,0,.64.64,0,1,0-1.28,0m-2.36,0a.64.64,0,0,0,1.28,0,.64.64,0,0,0-1.28,0m-2.36,0a.64.64,0,0,0,1.28,0,.64.64,0,1,0-1.28,0m-2.36,0a.64.64,0,0,0,1.28,0,.64.64,0,1,0-1.28,0m-2.36,0a.64.64,0,0,0,1.28,0,.64.64,0,0,0-1.28,0m-2.36,0a.64.64,0,0,0,1.28,0,.64.64,0,1,0-1.28,0m-2.36,0a.64.64,0,0,0,1.28,0,.64.64,0,0,0-1.28,0m-2.36,0a.64.64,0,0,0,1.28,0,.64.64,0,1,0-1.28,0m-2.36,0a.64.64,0,0,0,1.28,0,.64.64,0,0,0-1.28,0m-2.36,0a.64.64,0,0,0,1.28,0,.64.64,0,1,0-1.28,0m-2.36,0a.64.64,0,0,0,1.28,0,.64.64,0,0,0-1.28,0m-2.36,0a.64.64,0,0,0,1.28,0,.64.64,0,1,0-1.28,0m-2.36,0a.64.64,0,0,0,1.28,0,.64.64,0,0,0-1.28,0m-2.36,0a.64.64,0,0,0,1.28,0,.64.64,0,1,0-1.28,0m-2.36,0a.64.64,0,0,0,1.28,0,.64.64,0,0,0-1.28,0m-2.36,0a.64.64,0,0,0,1.28,0,.64.64,0,1,0-1.28,0m-2.36,0a.64.64,0,0,0,1.28,0,.64.64,0,0,0-1.28,0m-2.36,0a.64.64,0,0,0,1.28,0,.64.64,0,1,0-1.28,0m-2.36,0a.64.64,0,0,0,1.28,0,.64.64,0,0,0-1.28,0m-2.36,0a.64.64,0,0,0,1.28,0,.64.64,0,1,0-1.28,0m-2.36,0a.64.64,0,0,0,1.28,0,.64.64,0,0,0-1.28,0m-2.36,0a.64.64,0,0,0,1.28,0,.64.64,0,1,0-1.28,0m-2.36,0a.64.64,0,0,0,1.28,0,.64.64,0,0,0-1.28,0M132,57.23h-1v5.84h1V59.59c0-.9.46-1.5,1.3-1.5a1.68,1.68,0,0,1,.7.15V57.17a2,2,0,0,0-.49-.06A1.61,1.61,0,0,0,132,58Zm-5.12.74a1.76,1.76,0,0,1,1.85,1.76H125A1.88,1.88,0,0,1,126.92,58m2.77,2.55a3.83,3.83,0,0,0,.05-.54,2.76,2.76,0,0,0-2.82-2.87,3,3,0,0,0,.06,6.08,4,4,0,0,0,2.17-.61v-1a3.65,3.65,0,0,1-2.1.73,2,2,0,0,1-2-1.76Zm-11-3.29h-1v5.84h1V59.59a1.42,1.42,0,0,1,1.48-1.5,1.43,1.43,0,0,1,1.47,1.57v3.41h1V59.42a2.15,2.15,0,0,0-2.2-2.31,1.87,1.87,0,0,0-1.75,1Zm-3.92-1.84a.63.63,0,0,0,.64.65.64.64,0,0,0,.68-.65.65.65,0,0,0-.68-.66.64.64,0,0,0-.64.66m1.15,1.84h-1v5.84h1Zm-6.29,4a1.22,1.22,0,0,1,1.28-1.15,1.17,1.17,0,1,1-1.28,1.15Zm-.36-2.75a3,3,0,0,1,1.58-.48,1.25,1.25,0,0,1,1.36,1.32V60a2.06,2.06,0,0,0-1.52-.68,1.94,1.94,0,0,0-2.06,1.92,1.91,1.91,0,0,0,2,1.94,1.83,1.83,0,0,0,1.54-.75v.63h1V59.35A2,2,0,0,0,111,57.11a3.78,3.78,0,0,0-1.68.41Zm-2.39,4.57v-5h1.15v-.86H106.9V55.55l-1,.25v1.43h-1.14v.86h1.1v5Zm-7-5.84h-1v5.84h1V59.59a1.41,1.41,0,0,1,1.47-1.5,1.44,1.44,0,0,1,1.48,1.57v3.41h1V59.42a2.15,2.15,0,0,0-2.2-2.31,1.87,1.87,0,0,0-1.75,1Zm-7.44,2.92a2,2,0,1,1,2,2.07,2,2,0,0,1-2-2.07m-1,0a3,3,0,1,0,3-3,3,3,0,0,0-3,3m-1,1.28a3.31,3.31,0,0,1-2.15.74,3.18,3.18,0,0,1,0-6.36,3.29,3.29,0,0,1,2.15.76V55.36a4.26,4.26,0,0,0-2.15-.57,4.2,4.2,0,0,0,0,8.4,4.25,4.25,0,0,0,2.15-.56Zm-11.85-4.2h-1v5.84h1V59.59c0-.9.46-1.5,1.3-1.5a1.73,1.73,0,0,1,.71.15V57.17a2.12,2.12,0,0,0-.49-.06,1.61,1.61,0,0,0-1.52.91ZM73.41,58a1.76,1.76,0,0,1,1.85,1.76H71.5A1.88,1.88,0,0,1,73.41,58m2.77,2.55a2.88,2.88,0,0,0-2.77-3.41,3,3,0,0,0,.06,6.08,4,4,0,0,0,2.17-.61v-1a3.63,3.63,0,0,1-2.1.73,2,2,0,0,1-2-1.76Zm-7.46-3.15a1.36,1.36,0,0,1-1.5,1.46H65.85V55.9h1.37a1.37,1.37,0,0,1,1.5,1.47m-3.9,5.7h1V59.81h1.37a2.45,2.45,0,1,0,0-4.9h-2.4ZM60,57.41a3.05,3.05,0,0,0-1.34-.3c-1.28,0-2,.7-2,1.61a1.56,1.56,0,0,0,.86,1.4l1.08.65c.45.26.61.49.61.79s-.37.76-1,.76a2.37,2.37,0,0,1-1.46-.55v1.08a3.66,3.66,0,0,0,1.51.34c1.24,0,2-.63,2-1.63a1.69,1.69,0,0,0-1-1.51l-1-.61c-.35-.22-.52-.39-.52-.7S58,58,58.66,58a2.32,2.32,0,0,1,1.33.46Zm-5.87,2.66a2,2,0,1,1-2-2,1.93,1.93,0,0,1,2,2Zm0-2.84v1.15A2.42,2.42,0,0,0,52,57.11,3,3,0,0,0,52,63a2.46,2.46,0,0,0,2.19-1.22v1a1.92,1.92,0,0,1-2,2,3.76,3.76,0,0,1-2.06-.64v1.08a4.39,4.39,0,0,0,2,.5,2.82,2.82,0,0,0,3-3v-5.4Zm-10.33,0h-1v5.84h1V59.59a1.48,1.48,0,1,1,3,.07v3.41h1V59.42a2.15,2.15,0,0,0-2.2-2.31,1.87,1.87,0,0,0-1.75,1Zm-3.92-1.84a.63.63,0,0,0,.64.65.64.64,0,0,0,.68-.65.65.65,0,0,0-.68-.66.64.64,0,0,0-.64.66m1.15,1.84h-1v5.84h1Zm-7.83,0,2.33,5.84h1.06L39,57.23H37.9l-1.81,4.62-1.8-4.62Zm-2.48,0h-1v5.84h1V59.59c0-.9.46-1.5,1.3-1.5a1.68,1.68,0,0,1,.7.15V57.17a2,2,0,0,0-.49-.06,1.61,1.61,0,0,0-1.51.91ZM25.63,58a1.76,1.76,0,0,1,1.85,1.76H23.72A1.88,1.88,0,0,1,25.63,58m2.77,2.55a3.83,3.83,0,0,0,.05-.54,2.76,2.76,0,0,0-2.82-2.87,3,3,0,0,0,.06,6.08,4,4,0,0,0,2.17-.61v-1a3.65,3.65,0,0,1-2.1.73,2,2,0,0,1-2-1.76Zm-7.12-5.28a3.52,3.52,0,0,0-1.75-.45c-1.85,0-2.55,1.09-2.55,2.14a2.18,2.18,0,0,0,1.27,2l1.4.89c.6.37.89.77.89,1.2,0,.64-.53,1.2-1.51,1.2a3.11,3.11,0,0,1-2-.73V62.7a4.41,4.41,0,0,0,2,.49A2.28,2.28,0,0,0,21.63,61a2.35,2.35,0,0,0-1.38-2.1L18.83,58a1.3,1.3,0,0,1-.75-1.09c0-.68.54-1.14,1.43-1.14a3,3,0,0,1,1.77.64Z" transform="translate(-16.37 -24.37)"/><path class="cls-2" d="M233.22,39.79h-1v8.28h1Zm-10.07,2.44h-1v5.84h1V44.45a1.34,1.34,0,1,1,2.68.08v3.54h1V44.53a1.34,1.34,0,1,1,2.67,0v3.54h1V44.29a2,2,0,0,0-2.05-2.18,1.78,1.78,0,0,0-1.79,1.21,1.93,1.93,0,0,0-1.88-1.21,1.79,1.79,0,0,0-1.63.92Zm-7,5.84H221v-1h-1.74V39.91h-2.86v1h1.83v6.19h-2.05Zm-3.38-.53a.64.64,0,0,0,1.28,0,.64.64,0,1,0-1.28,0m-2.36,0a.64.64,0,0,0,1.28,0,.64.64,0,0,0-1.28,0m-2.36,0a.64.64,0,0,0,1.28,0,.64.64,0,0,0-1.28,0m-2.36,0a.64.64,0,0,0,1.28,0,.64.64,0,1,0-1.28,0m-2.36,0a.64.64,0,0,0,1.28,0,.64.64,0,0,0-1.28,0m-2.36,0a.64.64,0,0,0,1.28,0,.64.64,0,1,0-1.28,0m-2.36,0a.64.64,0,0,0,1.28,0,.64.64,0,0,0-1.28,0m-2.36,0a.64.64,0,0,0,1.28,0,.64.64,0,1,0-1.28,0m-2.36,0a.64.64,0,0,0,1.28,0,.64.64,0,0,0-1.28,0m-2.36,0a.64.64,0,0,0,1.28,0,.64.64,0,1,0-1.28,0m-2.36,0a.64.64,0,0,0,1.28,0,.64.64,0,0,0-1.28,0m-2.36,0a.64.64,0,0,0,1.28,0,.64.64,0,1,0-1.28,0m-2.36,0a.64.64,0,0,0,1.28,0,.64.64,0,0,0-1.28,0m-2.36,0a.64.64,0,0,0,1.28,0,.64.64,0,1,0-1.28,0m-2.36,0a.64.64,0,0,0,1.28,0,.64.64,0,1,0-1.28,0m-2.36,0a.64.64,0,0,0,1.28,0,.64.64,0,0,0-1.28,0m-2.36,0a.64.64,0,0,0,1.28,0,.64.64,0,1,0-1.28,0m-2.36,0a.64.64,0,0,0,1.28,0,.64.64,0,0,0-1.28,0m-2.36,0a.64.64,0,0,0,1.28,0,.64.64,0,1,0-1.28,0m-2.36,0a.64.64,0,0,0,1.28,0,.64.64,0,0,0-1.28,0m-2.36,0a.64.64,0,0,0,1.28,0,.64.64,0,1,0-1.28,0m-2.36,0a.64.64,0,0,0,1.28,0,.64.64,0,0,0-1.28,0m-2.36,0a.64.64,0,0,0,1.28,0,.64.64,0,1,0-1.28,0m-2.36,0a.64.64,0,0,0,1.28,0,.64.64,0,0,0-1.28,0m-2.36,0a.64.64,0,0,0,1.28,0,.64.64,0,1,0-1.28,0m-2.36,0a.64.64,0,0,0,1.28,0,.64.64,0,0,0-1.28,0m-2.36,0a.64.64,0,0,0,1.28,0,.64.64,0,1,0-1.28,0m-2.36,0a.64.64,0,0,0,1.28,0,.64.64,0,0,0-1.28,0m-2.36,0a.64.64,0,0,0,1.28,0,.64.64,0,1,0-1.28,0m-2.36,0a.64.64,0,0,0,1.28,0,.64.64,0,0,0-1.28,0m-2.36,0a.64.64,0,0,0,1.28,0,.64.64,0,1,0-1.28,0m-2.36,0a.64.64,0,0,0,1.28,0,.64.64,0,0,0-1.28,0m-2.36,0a.64.64,0,0,0,1.28,0,.64.64,0,1,0-1.28,0m-2.36,0a.64.64,0,0,0,1.28,0,.64.64,0,0,0-1.28,0m-2.36,0a.64.64,0,0,0,1.28,0,.64.64,0,1,0-1.28,0m-2.36,0a.64.64,0,0,0,1.28,0,.64.64,0,0,0-1.28,0m-2.36,0a.64.64,0,0,0,1.28,0,.64.64,0,1,0-1.28,0m-2.36,0a.64.64,0,0,0,1.28,0,.64.64,0,0,0-1.28,0m-2.36,0a.64.64,0,0,0,1.28,0,.64.64,0,1,0-1.28,0m-2.36,0a.64.64,0,0,0,1.28,0,.64.64,0,0,0-1.28,0m-2.36,0a.64.64,0,0,0,1.28,0,.64.64,0,1,0-1.28,0m-2.36,0a.64.64,0,0,0,1.28,0,.64.64,0,0,0-1.28,0m-2.36,0a.64.64,0,0,0,1.28,0,.64.64,0,1,0-1.28,0m-2.36,0a.64.64,0,0,0,1.28,0,.64.64,0,0,0-1.28,0m-2.36,0a.64.64,0,0,0,1.28,0,.64.64,0,1,0-1.28,0m-2.36,0a.64.64,0,0,0,1.28,0,.64.64,0,0,0-1.28,0m-2.36,0a.64.64,0,0,0,1.28,0,.64.64,0,1,0-1.28,0m-2.36,0a.64.64,0,0,0,1.28,0,.64.64,0,0,0-1.28,0m-2.36,0a.64.64,0,0,0,1.28,0,.64.64,0,1,0-1.28,0m-2.36,0a.64.64,0,0,0,1.28,0,.64.64,0,0,0-1.28,0m-2.36,0a.64.64,0,0,0,1.28,0,.64.64,0,0,0-1.28,0m-2.36,0a.64.64,0,0,0,1.28,0,.64.64,0,0,0-1.28,0m-2.36,0a.64.64,0,0,0,1.28,0,.64.64,0,0,0-1.28,0m-2.36,0a.64.64,0,0,0,1.28,0,.64.64,0,1,0-1.28,0m-2.36,0a.64.64,0,0,0,1.28,0,.64.64,0,0,0-1.28,0m-2.36,0a.64.64,0,0,0,1.28,0,.64.64,0,1,0-1.28,0m-2.36,0a.64.64,0,0,0,1.28,0,.64.64,0,0,0-1.28,0M75.85,43a1.75,1.75,0,0,1,1.84,1.76H73.94A1.88,1.88,0,0,1,75.85,43m2.77,2.55a3.83,3.83,0,0,0,0-.54,2.76,2.76,0,0,0-2.82-2.87,3,3,0,0,0,.06,6.08,4,4,0,0,0,2.17-.61v-1a3.65,3.65,0,0,1-2.1.73,2,2,0,0,1-2-1.76ZM72,43.07v-.84H68.25v.86h2.52l-2.64,4.14v.84H72v-.86H69.31Zm-6.37-2.68a.66.66,0,0,0,1.32,0,.66.66,0,1,0-1.32,0m1.15,1.84h-1v5.84h1Zm-2.79-2a3.59,3.59,0,0,0-1.76-.45c-1.84,0-2.55,1.09-2.55,2.14a2.18,2.18,0,0,0,1.27,2l1.4.89c.6.37.89.77.89,1.2,0,.64-.53,1.2-1.51,1.2a3.14,3.14,0,0,1-2-.73V47.7a4.48,4.48,0,0,0,2,.49A2.28,2.28,0,0,0,64.31,46a2.35,2.35,0,0,0-1.38-2.1L61.52,43c-.52-.33-.76-.66-.76-1.09,0-.68.54-1.14,1.43-1.14A3,3,0,0,1,64,41.4Zm-9.85,4.83a2,2,0,1,1-2-2,1.93,1.93,0,0,1,2,2Zm0-2.84v1.15A2.42,2.42,0,0,0,52,42.11,3,3,0,0,0,52,48a2.46,2.46,0,0,0,2.19-1.22v1a1.92,1.92,0,0,1-2,2,3.76,3.76,0,0,1-2.06-.64v1.08a4.39,4.39,0,0,0,2,.5,2.82,2.82,0,0,0,3-3v-5.4Zm-10.33,0h-1v5.84h1V44.59a1.48,1.48,0,1,1,3,.07v3.41h1V44.42a2.15,2.15,0,0,0-2.2-2.31,1.87,1.87,0,0,0-1.75,1Zm-3.92-1.84a.63.63,0,0,0,.64.65.64.64,0,0,0,.68-.65.65.65,0,0,0-.68-.66.64.64,0,0,0-.64.66m1.15,1.84h-1v5.84h1Zm-7.83,0,2.33,5.84h1.06L39,42.23H37.9l-1.81,4.62-1.8-4.62Zm-2.48,0h-1v5.84h1V44.59c0-.9.46-1.5,1.3-1.5a1.68,1.68,0,0,1,.7.15V42.17a2,2,0,0,0-.49-.06,1.61,1.61,0,0,0-1.51.91ZM25.63,43a1.76,1.76,0,0,1,1.85,1.76H23.72A1.88,1.88,0,0,1,25.63,43m2.77,2.55a3.83,3.83,0,0,0,.05-.54,2.76,2.76,0,0,0-2.82-2.87,3,3,0,0,0,.06,6.08,4,4,0,0,0,2.17-.61v-1a3.65,3.65,0,0,1-2.1.73,2,2,0,0,1-2-1.76Zm-7.12-5.28a3.52,3.52,0,0,0-1.75-.45c-1.85,0-2.55,1.09-2.55,2.14a2.18,2.18,0,0,0,1.27,2l1.4.89c.6.37.89.77.89,1.2,0,.64-.53,1.2-1.51,1.2a3.11,3.11,0,0,1-2-.73V47.7a4.41,4.41,0,0,0,2,.49A2.28,2.28,0,0,0,21.63,46a2.35,2.35,0,0,0-1.38-2.1L18.83,43a1.3,1.3,0,0,1-.75-1.09c0-.68.54-1.14,1.43-1.14a3,3,0,0,1,1.77.64Z" transform="translate(-16.37 -24.37)"/><path class="cls-2" d="M111,28.39h1.2V26.76H111Zm0,4.68h1.21V31.43H111Zm-3.84.12A2,2,0,0,0,109.23,31a3.36,3.36,0,0,0-1.18-2.42l-.82-.86c-.42-.46-.87-.92-.87-1.41s.26-.89.76-.89.75.46.84,1.18l1.18,0c-.08-1.68-.94-2.22-2-2.22a1.93,1.93,0,0,0-2.05,2.07,3.12,3.12,0,0,0,1.12,2.24l.9,1a2.11,2.11,0,0,1,.78,1.46c0,.48-.19,1-.78,1s-.85-.6-.91-1.25l-1.25,0c.09,1.45.86,2.3,2.15,2.3m-6.45-.12H102V25.66h1.61V24.52H99.05v1.14h1.64Zm-5.18.12a1.93,1.93,0,0,0,2.11-2v-.87H96.41v.8a.83.83,0,0,1-.88.89.88.88,0,0,1-.94-1V26.51a.85.85,0,0,1,.92-1,.83.83,0,0,1,.9.9v.8h1.21v-.95a1.9,1.9,0,0,0-2.11-1.9,2.06,2.06,0,0,0-2.28,2.07v4.66a2,2,0,0,0,2.28,2.07m-7.22-3.44L89,26h0l.66,3.73Zm-1.87,3.32h1.25l.4-2.23h1.82l.43,2.23h1.34L90,24.49H88.16Zm-4.75,0H83V29.26h1.92V28.11H83V25.64h2.41V24.52H81.67Zm-7.35,0h1.34V25.66h1.61V24.52H72.69v1.14h1.63Zm-8,0h1.19V27.23h0l2.18,5.84H71V24.52H69.76v5.3h0l-2-5.3H66.34Zm-5.67,0h3.75V31.92H62V29.21h1.93V28.07H62V25.64h2.41V24.52H60.67Zm-7.68,0h1.18V26.68h0l1.1,3.58h.93l1.1-3.58h0v6.39h1.19V24.52H57l-1.14,3.55h0l-1.12-3.55H53Zm-5.68,0h3.76V31.92H48.64V29.21h1.93V28.07H48.64V25.64h2.41V24.52H47.31Zm-5.56,0h3.76V31.92H43.09v-7.4H41.75Zm-4.87-4.39v-3h.7c.67,0,.91.54.91,1.45s-.31,1.59-1,1.59Zm-1.34,4.39h1.34V29.78h.83c1.45,0,2.1-1.05,2.1-2.72s-.62-2.54-2-2.54H35.54Zm-4.87-4.39v-3h.69c.67,0,.91.54.91,1.45s-.31,1.59-1,1.59Zm-1.35,4.39h1.35V29.78h.82c1.46,0,2.1-1.05,2.1-2.72s-.62-2.54-2-2.54H29.32ZM25,33.2A2.08,2.08,0,0,0,27.25,31v-6.5H26V31a.85.85,0,0,1-.89,1,.89.89,0,0,1-.91-1V24.52H22.81v6.56A1.94,1.94,0,0,0,25,33.2m-6.1,0A2,2,0,0,0,21,31a3.38,3.38,0,0,0-1.17-2.42L19,27.75c-.42-.46-.87-.92-.87-1.41s.27-.89.76-.89.76.46.84,1.18l1.19,0c-.09-1.68-.95-2.22-2-2.22a1.93,1.93,0,0,0-2.05,2.07A3.1,3.1,0,0,0,18,28.68l.9,1a2.15,2.15,0,0,1,.78,1.46c0,.48-.19,1-.78,1s-.86-.6-.92-1.25l-1.24,0c.08,1.45.85,2.3,2.14,2.3" transform="translate(-16.37 -24.37)"/></g><polygon class="cls-2" points="95.42 144.68 93.43 144.68 93.43 142.7 91.41 142.7 91.41 144.68 89.42 144.68 89.42 146.71 91.42 146.71 91.42 148.7 93.44 148.7 93.44 146.71 95.42 146.71 95.42 144.68"/><polygon class="cls-2" points="173.99 144.97 172.14 144.97 172.14 143.13 170.26 143.13 170.26 144.97 168.42 144.97 168.42 146.85 170.27 146.85 170.27 148.7 172.15 148.7 172.15 146.85 173.99 146.85 173.99 144.97"/><polygon class="cls-2" points="111.01 159.97 109.16 159.97 109.16 158.13 107.28 158.13 107.28 159.97 105.44 159.97 105.44 161.85 107.29 161.85 107.29 163.7 109.17 163.7 109.17 161.85 111.01 161.85 111.01 159.97"/><polygon class="cls-2" points="83.87 174.97 82.02 174.97 82.02 173.13 80.14 173.13 80.14 174.97 78.3 174.97 78.3 176.85 80.15 176.85 80.15 178.7 82.03 178.7 82.03 176.85 83.87 176.85 83.87 174.97"/><polygon class="cls-2" points="150.18 200.97 148.33 200.97 148.33 199.13 146.45 199.13 146.45 200.97 144.61 200.97 144.61 202.85 146.46 202.85 146.46 204.7 148.34 204.7 148.34 202.85 150.18 202.85 150.18 200.97"/><polygon class="cls-2" points="41.61 215.97 39.77 215.97 39.77 214.13 37.89 214.13 37.89 215.97 36.05 215.97 36.05 217.85 37.9 217.85 37.9 219.7 39.77 219.7 39.77 217.85 41.61 217.85 41.61 215.97"/><polygon class="cls-2" points="170.57 215.97 168.73 215.97 168.73 214.13 166.85 214.13 166.85 215.97 165.01 215.97 165.01 217.85 166.86 217.85 166.86 219.7 168.74 219.7 168.74 217.85 170.57 217.85 170.57 215.97"/><polygon class="cls-2" points="68.76 230.97 66.91 230.97 66.91 229.13 65.03 229.13 65.03 230.97 63.19 230.97 63.19 232.85 65.04 232.85 65.04 234.7 66.92 234.7 66.92 232.85 68.76 232.85 68.76 230.97"/><g class="cls-3"><line class="cls-4" y1="47.7" x2="217.56" y2="47.7"/><line class="cls-5" y1="118.4" x2="217.56" y2="118.4"/><line class="cls-5" y1="188.4" x2="217.56" y2="188.4"/><line class="cls-5" y1="244.4" x2="217.56" y2="244.4"/></g><polygon class="cls-2" points="1.84 254.13 1.84 255.97 0 255.97 0 257.85 1.85 257.85 1.85 259.7 3.73 259.7 3.73 257.85 5.57 257.85 5.57 255.97 3.72 255.97 3.72 254.13 1.84 254.13"/><g class="cls-3"><path class="cls-2" d="M230.54,151.45l-.26.46,1.12.65-1.12.65.27.44,1.11-.64v1.27h.52V153l1.13.65.26-.46-1.14-.63,1.14-.66-.26-.46-1.13.66v-1.31h-.52v1.31Zm-4.4,0-.25.46,1.12.65-1.12.65.27.44,1.11-.64v1.27h.52V153l1.12.65.27-.46-1.14-.63,1.14-.66-.27-.46-1.12.66v-1.31h-.52v1.31Zm-1.53-.66H223v8.28h1.65Zm-10.25,2.31h-1.63v6h1.63v-3.51a1,1,0,1,1,2,.08v3.43H218v-3.43a1,1,0,0,1,1-1.07,1,1,0,0,1,1,1.07v3.43h1.63v-3.9a2.06,2.06,0,0,0-2.05-2.19,1.84,1.84,0,0,0-1.76,1.08,1.93,1.93,0,0,0-1.84-1.08,1.75,1.75,0,0,0-1.52.83Zm-6.39,0a.78.78,0,0,1,.82-.79.77.77,0,0,1,.81.79.82.82,0,0,1-1.63,0m-.27,3.54a1.09,1.09,0,1,1,2.17,0,1.09,1.09,0,0,1-2.17,0m-1.32-3.55a1.85,1.85,0,0,0,.82,1.61,2.12,2.12,0,0,0-1.11,1.95,2.7,2.7,0,0,0,5.39,0,2.09,2.09,0,0,0-1.1-1.93,1.93,1.93,0,0,0,.82-1.63,2.41,2.41,0,0,0-4.82,0m-5.35.65a1.2,1.2,0,0,1,1.2-1.23,1.22,1.22,0,0,1,0,2.44,1.19,1.19,0,0,1-1.2-1.21m-.69,5.34h2l2.25-3.59a3.28,3.28,0,0,0,.52-1.75,2.93,2.93,0,1,0-3.17,2.9Zm-3.9-1a1.12,1.12,0,0,0,2.23,0,1.12,1.12,0,1,0-2.23,0m-4.09-7.3a2.87,2.87,0,0,0-3,3v2.5a3,3,0,1,0,5.91,0v-2.5a2.86,2.86,0,0,0-3-3m0,1.67a1.21,1.21,0,0,1,1.25,1.33v2.42a1.26,1.26,0,1,1-2.51,0v-2.42a1.22,1.22,0,0,1,1.26-1.33m-5.7,6.08a.64.64,0,0,0,1.28,0,.64.64,0,1,0-1.28,0m-2.46,0a.64.64,0,0,0,1.28,0,.64.64,0,1,0-1.28,0m-2.46,0a.64.64,0,0,0,1.28,0,.64.64,0,1,0-1.28,0m-2.46,0a.64.64,0,0,0,1.28,0,.64.64,0,1,0-1.28,0m-2.46,0a.64.64,0,0,0,1.28,0,.64.64,0,1,0-1.28,0m-2.46,0a.64.64,0,0,0,1.28,0,.64.64,0,0,0-1.28,0m-2.46,0a.64.64,0,0,0,1.28,0,.64.64,0,0,0-1.28,0m-2.46,0a.64.64,0,0,0,1.28,0,.64.64,0,1,0-1.28,0m-2.46,0a.64.64,0,0,0,1.28,0,.64.64,0,0,0-1.28,0m-2.46,0a.64.64,0,0,0,1.28,0,.64.64,0,0,0-1.28,0m-2.46,0a.64.64,0,0,0,1.28,0,.64.64,0,1,0-1.28,0m-2.46,0a.64.64,0,0,0,1.28,0,.64.64,0,1,0-1.28,0m-2.46,0a.64.64,0,0,0,1.28,0,.64.64,0,0,0-1.28,0m-2.46,0a.64.64,0,0,0,1.28,0,.64.64,0,0,0-1.28,0m-2.46,0a.64.64,0,0,0,1.28,0,.64.64,0,1,0-1.28,0m-2.46,0a.64.64,0,0,0,1.28,0,.64.64,0,1,0-1.28,0m-2.46,0a.64.64,0,0,0,1.28,0,.64.64,0,0,0-1.28,0m-2.46,0a.64.64,0,0,0,1.28,0,.64.64,0,1,0-1.28,0m-2.46,0a.64.64,0,0,0,1.28,0,.64.64,0,1,0-1.28,0m-2.46,0a.64.64,0,0,0,1.28,0,.64.64,0,1,0-1.28,0m-2.46,0a.64.64,0,0,0,1.28,0,.64.64,0,1,0-1.28,0m-2.46,0a.64.64,0,0,0,1.28,0,.64.64,0,1,0-1.28,0m-2.46,0a.64.64,0,0,0,1.28,0,.64.64,0,1,0-1.28,0m-3.63-2.46a1.5,1.5,0,1,1-1.49-1.5,1.49,1.49,0,0,1,1.49,1.5Zm0,3h1.63v-8.28H128.9v3.08a2.2,2.2,0,0,0-1.83-.89,3.12,3.12,0,0,0,0,6.22,2.24,2.24,0,0,0,1.84-.89Zm-9.45-6h-1.63v6h1.63v-3.46a1,1,0,1,1,2,.07v3.39h1.65v-3.85A2.08,2.08,0,0,0,121,153a1.79,1.79,0,0,0-1.58.87Zm-5.53,1.23a1.13,1.13,0,0,1,1.24,1h-2.58a1.29,1.29,0,0,1,1.34-1m2.71,2.27a3.6,3.6,0,0,0,.1-.78,2.72,2.72,0,0,0-2.8-2.84,3.11,3.11,0,0,0,.1,6.22,4.91,4.91,0,0,0,2.16-.46v-1.57a3.92,3.92,0,0,1-2,.56,1.48,1.48,0,0,1-1.58-1.13Zm-6.84-5.81h-1.64v8.28h1.64Zm-4.87,2.52a.72.72,0,0,1-.8.76H103v-1.51h1.12a.72.72,0,0,1,.8.75m.23,3.27c0,.59-.41.85-1,.85H103v-1.72h1.2a.84.84,0,0,1,1,.87m-3.85,2.49h2.9c1.57,0,2.7-.91,2.7-2.25a2,2,0,0,0-1.2-1.95,1.87,1.87,0,0,0,1-1.78,2.27,2.27,0,0,0-2.54-2.18H101.3Zm-4.85,0v-4.58h1V153.1h-1v-1.66l-1.54.35v1.31h-1v1.39h.91v4.58Zm-3.38-1.88a2.23,2.23,0,0,1-1.32.42,1.52,1.52,0,0,1,0-3,2.32,2.32,0,0,1,1.32.41v-1.73a3.66,3.66,0,0,0-1.32-.27,3.11,3.11,0,1,0,0,6.22,3.25,3.25,0,0,0,1.32-.28Zm-8.9.07a.79.79,0,0,1,.84-.74A.75.75,0,1,1,85,158a.8.8,0,0,1-.84-.75Zm-.94-2.39a3.13,3.13,0,0,1,1.53-.44,1,1,0,0,1,1.11,1v.32a2.16,2.16,0,0,0-1.31-.43,1.88,1.88,0,0,0-2,1.92,1.84,1.84,0,0,0,2,1.94,1.71,1.71,0,0,0,1.34-.57v.44H87.5v-3.58A2.25,2.25,0,0,0,85,153a4.81,4.81,0,0,0-1.72.35Zm-3-1.77H78.63v6h1.63V155.6a1,1,0,0,1,1-1,2,2,0,0,1,.88.18V153a3.83,3.83,0,0,0-.47,0,1.61,1.61,0,0,0-1.42.77Zm-3.6,6v-4.58h1V153.1h-1v-1.66l-1.53.35v1.31h-1v1.39H75v4.58Zm-5.89-1.77,1.06,1.77h1.9l-2-3,2-3h-1.9l-1.06,1.76L69.7,153.1H67.81l2,3-2,3H69.7ZM67,159.07v-1.64H64.05v-1.65h2.7v-1.64h-2.7v-1.58H67v-1.65H62.35v8.16Zm-8.84-1.88a2.23,2.23,0,0,1-1.32.42,1.52,1.52,0,0,1,0-3,2.32,2.32,0,0,1,1.32.41v-1.73a3.66,3.66,0,0,0-1.32-.27,3.11,3.11,0,1,0,0,6.22,3.25,3.25,0,0,0,1.32-.28Zm-7.41-5.83a.94.94,0,0,0,1,1,1,1,0,0,0,0-1.93,1,1,0,0,0-1,1m1.78,1.74H50.89v6h1.63Zm-6.75,0H44.14v6h1.63v-3.46a1,1,0,0,1,1-1,1,1,0,0,1,1,1.11v3.39h1.64v-3.85A2.08,2.08,0,0,0,47.35,153a1.79,1.79,0,0,0-1.58.87Zm-6.38,4.16a.78.78,0,0,1,.84-.74.75.75,0,1,1,0,1.49.79.79,0,0,1-.84-.75Zm-1-2.39a3.19,3.19,0,0,1,1.54-.44,1,1,0,0,1,1.1,1v.32a2.14,2.14,0,0,0-1.31-.43,1.88,1.88,0,0,0-2,1.92,1.85,1.85,0,0,0,2,1.94,1.69,1.69,0,0,0,1.33-.57v.44h1.63v-3.58A2.24,2.24,0,0,0,40.17,153a4.87,4.87,0,0,0-1.73.35ZM35,156a1.42,1.42,0,1,1-1.43-1.43A1.4,1.4,0,0,1,35,156Zm.1-2.9v.79a2.29,2.29,0,0,0-1.9-.91,3,3,0,0,0,0,6,2.34,2.34,0,0,0,1.89-.87v.42a1.53,1.53,0,0,1-1.68,1.55,4.06,4.06,0,0,1-2-.6v1.69a4.63,4.63,0,0,0,2,.44,3,3,0,0,0,3.33-3.3V153.1Zm-7.11,0H26.31v6h1.63V155.6a1,1,0,0,1,1-1,2,2,0,0,1,.88.18V153a3.83,3.83,0,0,0-.47,0,1.61,1.61,0,0,0-1.42.77ZM18.52,155A2.45,2.45,0,1,1,21,157.5a2.45,2.45,0,0,1-2.45-2.5m-1.75,0a4.2,4.2,0,1,0,4.2-4.21,4.12,4.12,0,0,0-4.2,4.21" transform="translate(-16.37 -24.37)"/></g></svg>