<svg id="Layer_1" data-name="Layer 1" xmlns="http://www.w3.org/2000/svg" xmlns:xlink="http://www.w3.org/1999/xlink" viewBox="0 0 219.92 264.76"><defs><style>.cls-1,.cls-4,.cls-5{fill:none;}.cls-2{clip-path:url(#clip-path);}.cls-3{fill:#dfdbed;}.cls-4,.cls-5{stroke:#dfdbed;}.cls-4{stroke-width:2px;}.cls-5{stroke-width:0.6px;}</style><clipPath id="clip-path" transform="translate(-16.55 -24.51)"><rect class="cls-1" x="16.55" y="24.51" width="219.92" height="264.76"/></clipPath></defs><title>Nutrition-night</title><g class="cls-2"><path class="cls-3" d="M230.71,151.59l-.26.46,1.12.64-1.12.65.27.45,1.11-.64v1.27h.52v-1.28l1.13.65.26-.46-1.14-.64,1.14-.66-.26-.45-1.13.66v-1.31h-.52v1.31Zm-4.34,0-.25.46,1.12.64-1.12.65.27.45,1.11-.64v1.27H228v-1.28l1.13.65.26-.46-1.14-.64,1.14-.66-.26-.45-1.13.66v-1.31h-.52v1.31Zm-1.47-.66h-1.65v8.28h1.65Zm-10.19,2.3h-1.63v6h1.63v-3.52a1,1,0,1,1,2,.09v3.43h1.63v-3.43a1,1,0,0,1,1-1.07,1,1,0,0,1,1,1.07v3.43h1.63v-3.9a2.08,2.08,0,0,0-2.06-2.2,1.84,1.84,0,0,0-1.76,1.08,2,2,0,0,0-1.84-1.08,1.75,1.75,0,0,0-1.52.83Zm-6.32,0a.81.81,0,0,1,1.62,0,.81.81,0,0,1-1.62,0m-.28,3.53a1.09,1.09,0,1,1,1.08,1.07,1.07,1.07,0,0,1-1.08-1.07m-1.32-3.54a1.86,1.86,0,0,0,.82,1.61,2.09,2.09,0,0,0-1.11,1.94,2.7,2.7,0,0,0,5.39,0,2.09,2.09,0,0,0-1.1-1.93,1.93,1.93,0,0,0,.82-1.62,2.41,2.41,0,0,0-4.82,0m-5.29.65a1.2,1.2,0,0,1,1.2-1.24,1.21,1.21,0,0,1,1.2,1.24,1.2,1.2,0,0,1-1.2,1.21,1.19,1.19,0,0,1-1.2-1.21m-.69,5.34h2l2.25-3.59a3.31,3.31,0,0,0,.53-1.75,2.93,2.93,0,1,0-3.18,2.9Zm-3.83-1a1.07,1.07,0,0,0,1.1,1.1,1.09,1.09,0,0,0,1.13-1.1,1.1,1.1,0,0,0-1.13-1.13,1.08,1.08,0,0,0-1.1,1.13m-4-7.3a2.87,2.87,0,0,0-3,2.95v2.5a3,3,0,1,0,5.91,0v-2.5a2.86,2.86,0,0,0-2.95-2.95m0,1.67a1.21,1.21,0,0,1,1.25,1.33v2.42a1.26,1.26,0,1,1-2.51,0v-2.42a1.22,1.22,0,0,1,1.26-1.33m-6.12,6.08a.64.64,0,0,0,1.28,0,.64.64,0,0,0-1.28,0m-2.46,0a.64.64,0,0,0,1.28,0,.64.64,0,0,0-1.28,0m-2.46,0a.64.64,0,0,0,1.28,0,.64.64,0,0,0-1.28,0m-2.46,0a.64.64,0,0,0,1.28,0,.64.64,0,0,0-1.28,0m-2.46,0a.64.64,0,0,0,1.28,0,.64.64,0,0,0-1.28,0m-2.46,0a.64.64,0,0,0,1.28,0,.64.64,0,0,0-1.28,0m-2.46,0a.64.64,0,0,0,1.28,0,.64.64,0,0,0-1.28,0m-2.46,0a.64.64,0,0,0,1.28,0,.64.64,0,0,0-1.28,0m-2.46,0a.64.64,0,0,0,1.28,0,.64.64,0,0,0-1.28,0m-2.46,0a.64.64,0,0,0,1.28,0,.64.64,0,0,0-1.28,0m-2.46,0a.64.64,0,0,0,1.28,0,.64.64,0,0,0-1.28,0m-2.46,0a.64.64,0,0,0,1.28,0,.64.64,0,0,0-1.28,0m-2.46,0a.64.64,0,0,0,1.28,0,.64.64,0,0,0-1.28,0m-2.46,0a.64.64,0,0,0,1.28,0,.64.64,0,0,0-1.28,0m-2.46,0a.64.64,0,0,0,1.28,0,.64.64,0,0,0-1.28,0m-2.46,0a.64.64,0,0,0,1.28,0,.64.64,0,0,0-1.28,0m-2.46,0a.64.64,0,0,0,1.28,0,.64.64,0,0,0-1.28,0m-2.46,0a.64.64,0,0,0,1.28,0,.64.64,0,0,0-1.28,0m-2.46,0a.64.64,0,0,0,1.28,0,.64.64,0,0,0-1.28,0m-2.46,0a.64.64,0,0,0,1.28,0,.64.64,0,0,0-1.28,0m-2.46,0a.64.64,0,0,0,1.28,0,.64.64,0,0,0-1.28,0m-2.46,0a.64.64,0,0,0,1.28,0,.64.64,0,0,0-1.28,0m-2.46,0a.64.64,0,0,0,1.28,0,.64.64,0,0,0-1.28,0m-4.83-2.46a1.5,1.5,0,1,1-1.49-1.5,1.49,1.49,0,0,1,1.49,1.5Zm0,3h1.63v-8.28h-1.63V154a2.22,2.22,0,0,0-1.83-.89,3.13,3.13,0,0,0,0,6.23,2.22,2.22,0,0,0,1.84-.9Zm-9.39-6h-1.63v6h1.63v-3.47a1,1,0,0,1,1-1,1,1,0,0,1,1,1.1v3.4h1.64v-3.85a2.09,2.09,0,0,0-2.11-2.25,1.78,1.78,0,0,0-1.58.88ZM113,154.47a1.13,1.13,0,0,1,1.24,1h-2.58a1.29,1.29,0,0,1,1.34-1m2.71,2.27a3.69,3.69,0,0,0,.1-.78,2.73,2.73,0,0,0-2.79-2.85,3.12,3.12,0,0,0,.09,6.23,4.73,4.73,0,0,0,2.16-.47V157.3a3.83,3.83,0,0,1-2,.57,1.49,1.49,0,0,1-1.58-1.13Zm-6.78-5.81H107.3v8.28h1.64Zm-4.81,2.52a.71.71,0,0,1-.8.76h-1.12v-1.52h1.12a.71.71,0,0,1,.8.76m.23,3.26a.83.83,0,0,1-1,.86h-1.2v-1.72h1.2a.84.84,0,0,1,1,.86m-3.85,2.5h2.9c1.58,0,2.7-.91,2.7-2.26a2,2,0,0,0-1.2-1.94,1.88,1.88,0,0,0,1-1.79,2.27,2.27,0,0,0-2.54-2.17h-2.83Zm-4.73,0v-4.59h1v-1.39h-1v-1.65l-1.53.35v1.3h-1v1.39h.91v4.59Zm-3.32-1.88a2.3,2.3,0,0,1-1.32.42,1.49,1.49,0,0,1-1.5-1.53,1.48,1.48,0,0,1,1.5-1.51,2.32,2.32,0,0,1,1.32.41v-1.73a3.47,3.47,0,0,0-1.32-.28,3.12,3.12,0,1,0,0,6.23,3.26,3.26,0,0,0,1.32-.29Zm-8.84.07a.8.8,0,0,1,.85-.75.78.78,0,0,1,.82.75.77.77,0,0,1-.82.74.79.79,0,0,1-.85-.74ZM82.68,155a3.14,3.14,0,0,1,1.53-.45,1,1,0,0,1,1.11,1v.32a2.16,2.16,0,0,0-1.31-.43,1.88,1.88,0,0,0-2,1.92,1.84,1.84,0,0,0,2,1.94,1.75,1.75,0,0,0,1.34-.57v.44H87v-3.59a2.24,2.24,0,0,0-2.54-2.51,4.82,4.82,0,0,0-1.73.35Zm-2.91-1.78H78.14v6h1.63v-3.47a1,1,0,0,1,1-1,2,2,0,0,1,.88.18v-1.74a3.89,3.89,0,0,0-.47,0,1.63,1.63,0,0,0-1.42.77Zm-3.54,6v-4.59h1v-1.39h-1v-1.65l-1.53.35v1.3h-1v1.39h.91v4.59Zm-5.83-1.78,1.06,1.78h1.91l-2-3,2-3H71.46L70.4,155l-1.07-1.77H67.44l2,3-2,3h1.89Zm-3.72,1.78v-1.64H63.74v-1.65h2.7v-1.64h-2.7v-1.59h2.94v-1.64H62v8.16ZM58,157.33a2.3,2.3,0,0,1-1.32.42,1.49,1.49,0,0,1-1.5-1.53,1.48,1.48,0,0,1,1.5-1.51,2.32,2.32,0,0,1,1.32.41v-1.73a3.47,3.47,0,0,0-1.32-.28,3.12,3.12,0,1,0,0,6.23,3.26,3.26,0,0,0,1.32-.29Zm-7.35-5.84a.94.94,0,0,0,1,1,1,1,0,0,0,0-1.93,1,1,0,0,0-1,1m1.78,1.74H50.76v6h1.63Zm-6.69,0H44.07v6H45.7v-3.47a1,1,0,1,1,2,.07v3.4h1.64v-3.85a2.09,2.09,0,0,0-2.11-2.25,1.78,1.78,0,0,0-1.58.88Zm-6.32,4.17a.79.79,0,0,1,.84-.75.75.75,0,1,1-.84.75Zm-1-2.39a3.21,3.21,0,0,1,1.54-.45,1,1,0,0,1,1.1,1v.32a2.13,2.13,0,0,0-1.3-.43,1.89,1.89,0,0,0-2,1.92,1.85,1.85,0,0,0,2,1.94,1.72,1.72,0,0,0,1.33-.57v.44h1.64v-3.59a2.25,2.25,0,0,0-2.55-2.51,4.92,4.92,0,0,0-1.73.35ZM35,156.14a1.42,1.42,0,1,1-1.43-1.43A1.4,1.4,0,0,1,35,156.14Zm.1-2.91v.8a2.27,2.27,0,0,0-1.9-.92,3,3,0,0,0,0,6,2.37,2.37,0,0,0,1.89-.87v.42a1.52,1.52,0,0,1-1.68,1.54,4,4,0,0,1-2-.6v1.7a4.68,4.68,0,0,0,2,.44,3,3,0,0,0,3.32-3.3v-5.26Zm-7,0H26.42v6h1.63v-3.47a1,1,0,0,1,1-1,2,2,0,0,1,.88.18v-1.74a3.73,3.73,0,0,0-.47,0,1.63,1.63,0,0,0-1.42.77Zm-9.36,1.91a2.45,2.45,0,1,1,2.45,2.5,2.46,2.46,0,0,1-2.45-2.5m-1.75,0a4.2,4.2,0,1,0,4.2-4.21,4.12,4.12,0,0,0-4.2,4.21" transform="translate(-16.55 -24.51)"/><path class="cls-3" d="M202.71,286.53c-.5,0-.69-.34-.69-.8v-3.35c0-.58.27-.82.69-.82a1,1,0,0,1,.86,1.11v2.66c0,.63-.37,1.2-.86,1.2m-.33.79a1.36,1.36,0,0,0,1.23-.82h0l0,.71h.81v-8.56h-.93v2.76h0a1.17,1.17,0,0,0-1.08-.61,1.33,1.33,0,0,0-1.38,1.42V286a1.23,1.23,0,0,0,1.29,1.36m-4.81-3.69v-1.16c0-.45.2-.9.76-.9s.75.44.75.88v1.18Zm.85,3.7a3,3,0,0,0,1.45-.37l-.21-.67a3.07,3.07,0,0,1-1.08.25c-.73,0-1-.39-1-1.13v-1.07h2.36v-1.85a1.5,1.5,0,0,0-1.57-1.69,1.65,1.65,0,0,0-1.72,1.83v2.91a1.61,1.61,0,0,0,1.78,1.79m-6.45-.12h.92v-4.45c0-.58.36-1.18.87-1.18s.66.28.66.76v4.87h.92V282a1.1,1.1,0,0,0-1.15-1.15,1.38,1.38,0,0,0-1.29.77h0v-2.92H192Zm-2.73.11a1.46,1.46,0,0,0,1.55-1.53,2.77,2.77,0,0,0-.9-1.82l-.68-.76a1.63,1.63,0,0,1-.57-1,.61.61,0,0,1,.64-.65c.43,0,.62.26.68.91l.83,0c0-1.11-.65-1.6-1.47-1.6a1.41,1.41,0,0,0-1.54,1.46,2.46,2.46,0,0,0,.83,1.67l.55.62a2.18,2.18,0,0,1,.74,1.3c0,.48-.25.72-.64.72s-.69-.33-.75-.9l-.89,0a1.56,1.56,0,0,0,1.62,1.63m-3.74-7.46h.92v-1.33h-.92Zm0,7.35h.92v-6.29h-.92Zm-1.69.07a1.88,1.88,0,0,0,.62-.11v-.78a1.1,1.1,0,0,1-.31,0,.35.35,0,0,1-.4-.38v-7.4h-.92v7.64a.89.89,0,0,0,1,1m-3.95-.73a1,1,0,0,1-.87-1.1v-2.69c0-.66.4-1.18.86-1.18s.69.34.69.77v3.42c0,.53-.25.78-.68.78m.18.77a1.36,1.36,0,0,0,1.43-1.45v-3.75a1.23,1.23,0,0,0-1.27-1.33,1.34,1.34,0,0,0-1.18.73h0v-2.87h-.92v8.56h.83l0-.6h0a1.18,1.18,0,0,0,1.1.71m-5.15-.75c-.38,0-.65-.36-.65-1.24s.5-1.31,1-1.31h.48v1.53a1,1,0,0,1-.81,1m-.29.75a1.27,1.27,0,0,0,1.16-.79h0c0,.27,0,.58,0,.68h.84c0-.26,0-1.07,0-1.52v-3.5a1.37,1.37,0,0,0-1.54-1.39c-1,0-1.64.55-1.64,1.37v.65h.85v-.64c0-.41.27-.64.71-.64a.62.62,0,0,1,.7.65v1.22h-.51a1.87,1.87,0,0,0-1.88,2c0,1.31.59,1.89,1.29,1.89m-3,0a2.61,2.61,0,0,0,.77-.14v-.76a1.66,1.66,0,0,1-.52.09c-.26,0-.38-.12-.38-.43v-4.34h1V281h-1v-1.43h-.92V281H170v.76h.62v4.6a.93.93,0,0,0,1,1m-3.93,0a1.46,1.46,0,0,0,1.55-1.53,2.77,2.77,0,0,0-.9-1.82l-.68-.76a1.63,1.63,0,0,1-.57-1,.61.61,0,0,1,.64-.65c.43,0,.62.26.68.91l.83,0c-.05-1.11-.65-1.6-1.47-1.6a1.41,1.41,0,0,0-1.54,1.46,2.46,2.46,0,0,0,.83,1.67l.55.62a2.18,2.18,0,0,1,.74,1.3c0,.48-.25.72-.64.72s-.69-.33-.75-.9l-.89,0a1.56,1.56,0,0,0,1.62,1.63m-5.82-.11h3.41v-.86h-2.42v-3.19h1.93v-.85h-1.93v-2.82h2.41v-.84h-3.4Zm-3.78.08a2.5,2.5,0,0,0,.77-.14v-.76a1.55,1.55,0,0,1-.51.09c-.27,0-.39-.12-.39-.43v-4.34h1V281h-1v-1.43h-.91V281h-.62v.76h.62v4.6a.92.92,0,0,0,1,1m-4.4-.74c-.58,0-.8-.44-.8-.92v-3.15c0-.48.21-.91.78-.91a.79.79,0,0,1,.8.9v3.16c0,.46-.16.92-.78.92m0,.78a1.62,1.62,0,0,0,1.74-1.76v-3.09a1.58,1.58,0,0,0-1.72-1.68,1.63,1.63,0,0,0-1.74,1.73v3.05a1.59,1.59,0,0,0,1.72,1.75m-7.24-.12h.88v-6.57h0l2.33,6.57h.91v-8.56h-.86v6.05h0l-2.19-6.05h-1.07Zm-5.51-3.58v-1.16c0-.45.21-.9.76-.9s.76.44.76.88v1.18Zm.85,3.7a3,3,0,0,0,1.46-.37l-.22-.67a3.07,3.07,0,0,1-1.08.25c-.73,0-1-.39-1-1.13v-1.07h2.37v-1.85a1.5,1.5,0,0,0-1.58-1.69,1.66,1.66,0,0,0-1.72,1.83v2.91a1.61,1.61,0,0,0,1.78,1.79m-5.36,0a1.49,1.49,0,0,0,1.32-.81h0v.68h.89v-6.29h-.92v4.47c0,.56-.36,1.15-.87,1.15s-.66-.27-.66-.73v-4.89h-.92v5.25a1.1,1.1,0,0,0,1.15,1.17m-2.78-.06a1.88,1.88,0,0,0,.62-.11v-.78a1.1,1.1,0,0,1-.31,0,.35.35,0,0,1-.4-.38v-7.4h-.92v7.64a.89.89,0,0,0,1,1m-4.17-.71c-.38,0-.65-.36-.65-1.24s.5-1.31,1-1.31h.48v1.53a1,1,0,0,1-.81,1m-.29.75a1.27,1.27,0,0,0,1.16-.79h0c0,.27,0,.58,0,.68h.84c0-.26-.05-1.07-.05-1.52v-3.5a1.37,1.37,0,0,0-1.54-1.39c-1,0-1.64.55-1.64,1.37v.65h.85v-.64c0-.41.27-.64.71-.64a.62.62,0,0,1,.7.65v1.22h-.51a1.87,1.87,0,0,0-1.88,2c0,1.31.59,1.89,1.29,1.89m-4.52-.05h1l1.62-8.62h-.9l-1.2,6.66h0L124,278.65h-1Zm-6.86,2c.73,0,1.12-.51,1.35-1.56l1.49-6.79h-.85l-.84,4.49h0l-.94-4.49h-1l1.47,6.16-.2.89c-.11.44-.33.54-.58.54a1.78,1.78,0,0,1-.47-.08l-.1.76a2.51,2.51,0,0,0,.67.08m-1.82-2a1.94,1.94,0,0,0,.63-.11v-.78a1.15,1.15,0,0,1-.31,0,.35.35,0,0,1-.4-.38v-7.4H115v7.64a.89.89,0,0,0,1,1m-3.41-7.42h.92v-1.33h-.92Zm0,7.35h.92v-6.29h-.92Zm-3.19-.64c-.38,0-.64-.36-.64-1.24s.49-1.31,1-1.31h.48v1.53a1,1,0,0,1-.81,1m-.28.75a1.26,1.26,0,0,0,1.15-.79h0c0,.27,0,.58,0,.68h.84c0-.26,0-1.07,0-1.52v-3.5a1.36,1.36,0,0,0-1.53-1.39c-1,0-1.65.55-1.65,1.37v.65h.85v-.64c0-.41.27-.64.71-.64a.62.62,0,0,1,.7.65v1.22h-.5a1.87,1.87,0,0,0-1.89,2c0,1.31.59,1.89,1.3,1.89m-5.46-1V279.5h.94a1,1,0,0,1,1.09,1.05v4.7a1,1,0,0,1-1.09,1.1Zm-1,.86h2a1.82,1.82,0,0,0,2-1.94v-4.82a1.76,1.76,0,0,0-2-1.8h-2Zm-5.08-5.38.78-1.12.77,1.12.5-.32-.74-1.08,1.11-.67-.3-.49-1,.62v-1.24h-.58v1.24L97,279.27l-.29.49,1.09.67-.72,1.08Zm-3.81,0,.78-1.12.78,1.12.49-.32-.73-1.08,1.1-.67-.3-.49-1,.62v-1.24h-.59v1.24l-1.06-.62-.29.49,1.09.67-.72,1.08ZM87,287.33a1.44,1.44,0,0,0,1.61-1.48v-.61H87.8v.54a.69.69,0,0,1-.75.77c-.58,0-.78-.42-.78-.91v-3.18c0-.47.21-.89.78-.89a.67.67,0,0,1,.75.72v.57h.83v-.63A1.42,1.42,0,0,0,87,280.8a1.61,1.61,0,0,0-1.7,1.73v3.07A1.56,1.56,0,0,0,87,287.33m-4-7.47H84v-1.33h-.92Zm0,7.35H84v-6.29h-.92Zm-4.83,0h.93v-4.47c0-.57.36-1.16.86-1.16s.66.28.66.76v4.87h.93V282a1.1,1.1,0,0,0-1.16-1.15,1.46,1.46,0,0,0-1.32.78h0v-.66h-.89Zm-3.18-.64c-.38,0-.64-.36-.64-1.24s.49-1.31,1-1.31h.48v1.53a1,1,0,0,1-.81,1m-.28.75a1.26,1.26,0,0,0,1.15-.79h0c0,.27,0,.58,0,.68h.84c0-.26,0-1.07,0-1.52v-3.5a1.36,1.36,0,0,0-1.53-1.39c-1,0-1.65.55-1.65,1.37v.65h.85v-.64c0-.41.27-.64.71-.64a.62.62,0,0,1,.7.65v1.22h-.51a1.87,1.87,0,0,0-1.88,2c0,1.31.59,1.89,1.3,1.89m-4.32-1c-.53,0-.7-.4-.7-.81v-3.11c0-.54.26-.85.67-.85a1,1,0,0,1,.88,1.11v2.54a1,1,0,0,1-.85,1.12m-.12,2.95a1.72,1.72,0,0,0,1.89-1.89V280.9h-.85v.6h0a1.21,1.21,0,0,0-1.13-.7,1.36,1.36,0,0,0-1.39,1.48v3.38a1.25,1.25,0,0,0,1.29,1.4,1.29,1.29,0,0,0,1.15-.77h0v1.13c0,.7-.34,1.05-1,1.05a2.76,2.76,0,0,1-1.14-.25l-.27.74a3.33,3.33,0,0,0,1.44.29m-4.73-2h.92v-4.48a.91.91,0,0,1,1-1l.43,0v-.9a1.19,1.19,0,0,0-.33,0,1.15,1.15,0,0,0-1.09.76h0v-.71H65.6Zm-3.47-.77A1,1,0,0,1,61,285.3v-4.81a1.09,1.09,0,1,1,2.18,0v4.85a1,1,0,0,1-1.09,1.14m0,.89a1.94,1.94,0,0,0,2.1-2.09v-4.79a1.84,1.84,0,0,0-2.07-1.93,1.93,1.93,0,0,0-2.11,2v4.74a1.87,1.87,0,0,0,2.08,2m-7.1-.8c-.49,0-.68-.34-.68-.8v-3.35c0-.58.26-.82.68-.82a1,1,0,0,1,.87,1.11v2.66c0,.63-.37,1.2-.87,1.2m-.32.79a1.36,1.36,0,0,0,1.23-.82h0l0,.71h.81v-8.56h-.93v2.76h0a1.18,1.18,0,0,0-1.09-.61,1.33,1.33,0,0,0-1.37,1.42V286a1.23,1.23,0,0,0,1.29,1.36m-4.81-3.69v-1.16c0-.45.2-.9.75-.9s.76.44.76.88v1.18Zm.85,3.7a3,3,0,0,0,1.45-.37l-.21-.67a3.12,3.12,0,0,1-1.08.25c-.74,0-1-.39-1-1.13v-1.07h2.36v-1.85a1.5,1.5,0,0,0-1.57-1.69,1.66,1.66,0,0,0-1.73,1.83v2.91a1.62,1.62,0,0,0,1.79,1.79m-6.45-.12h.91v-5.52H46V281h-.79v-1.12a.48.48,0,0,1,.49-.54,2.72,2.72,0,0,1,.43,0v-.7a2.16,2.16,0,0,0-.61-.07,1.14,1.14,0,0,0-1.22,1.21V281h-.63v.74h.63Zm2.48-7.35h.92v-1.33h-.92Zm0,7.35h.92v-6.29h-.92Zm-5.22-7.35h.92v-1.33h-.92Zm0,7.35h.92v-6.29h-.92Zm-1.95.08a2.5,2.5,0,0,0,.77-.14v-.76a1.55,1.55,0,0,1-.51.09c-.27,0-.39-.12-.39-.43v-4.34h1V281h-1v-1.43h-.91V281h-.62v.76h.62v4.6a.93.93,0,0,0,1,1m-4.78-.08h.92v-4.48a.9.9,0,0,1,1-1l.44,0v-.9a1.19,1.19,0,0,0-.33,0,1.15,1.15,0,0,0-1.09.76h0v-.71h-.91Zm-3.68-3.58v-1.16c0-.45.21-.9.76-.9s.76.44.76.88v1.18Zm.86,3.7a3,3,0,0,0,1.45-.37l-.22-.67a3.07,3.07,0,0,1-1.08.25c-.73,0-1-.39-1-1.13v-1.07H33.5v-1.85a1.5,1.5,0,0,0-1.57-1.69,1.66,1.66,0,0,0-1.73,1.83v2.91A1.62,1.62,0,0,0,32,287.33m-4.9,0A1.78,1.78,0,0,0,29,285.48v-.89h-.88v.84a1,1,0,0,1-1,1A1,1,0,0,1,26,285.3v-4.79a1,1,0,0,1,1.08-1.14,1,1,0,0,1,1.07,1v.83H29v-1a1.74,1.74,0,0,0-1.94-1.74,1.91,1.91,0,0,0-2.09,2v4.93a1.86,1.86,0,0,0,2.09,1.92" transform="translate(-16.55 -24.51)"/><path class="cls-3" d="M176.77,252.93h-1v8.28h1Zm-3.94.6a.66.66,0,0,0,1.32,0,.66.66,0,1,0-1.32,0m1.15,1.84h-1v5.84h1Zm-9.72,1.76a3.13,3.13,0,1,1,3.12,3.18,3.11,3.11,0,0,1-3.12-3.18m-1.08,0a4.2,4.2,0,1,0,4.2-4.2,4.11,4.11,0,0,0-4.2,4.2m-4.4-4.2h-1v8.28h1Zm-6.3,6.45a1.22,1.22,0,0,1,1.28-1.15,1.24,1.24,0,0,1,1.29,1.15,1.29,1.29,0,0,1-2.57,0Zm-.36-2.74a3,3,0,0,1,1.58-.48,1.25,1.25,0,0,1,1.36,1.32v.67a2.06,2.06,0,0,0-1.53-.68,1.93,1.93,0,1,0,0,3.86,1.82,1.82,0,0,0,1.54-.76v.64h1v-3.72a2,2,0,0,0-2.25-2.24,3.92,3.92,0,0,0-1.68.4Zm-3.1-3.11a.64.64,0,0,0,.65.65.64.64,0,0,0,.67-.65.64.64,0,0,0-.67-.66.65.65,0,0,0-.65.66m1.15,1.84h-1v5.84h1Zm-3.25,5.84v-5h1.15v-.86h-1.15v-1.68l-.94.25v1.43h-1.14v.86h1.09v5Zm-7-5.84h-1v5.84h1v-3.48a1.41,1.41,0,0,1,1.47-1.5,1.44,1.44,0,0,1,1.48,1.57v3.41h1v-3.65a2.15,2.15,0,0,0-2.2-2.31,1.87,1.87,0,0,0-1.75,1Zm-5.13.74a1.76,1.76,0,0,1,1.85,1.75h-3.75a1.87,1.87,0,0,1,1.9-1.75m2.78,2.54a4,4,0,0,0,0-.54,2.75,2.75,0,0,0-2.82-2.86,3,3,0,0,0,.06,6.08,4.17,4.17,0,0,0,2.18-.61v-1a3.65,3.65,0,0,1-2.1.73,2,2,0,0,1-2-1.77Zm-7-3.1a3.05,3.05,0,0,0-1.34-.3c-1.29,0-2,.69-2,1.6a1.58,1.58,0,0,0,.86,1.41l1.08.65c.45.26.6.49.6.79s-.36.75-1,.75a2.31,2.31,0,0,1-1.46-.55V261a3.5,3.5,0,0,0,1.51.35c1.24,0,2-.64,2-1.63a1.67,1.67,0,0,0-1-1.51l-1-.62c-.35-.21-.52-.38-.52-.69s.33-.75,1-.75a2.26,2.26,0,0,1,1.33.47Zm-4.7,0a3.13,3.13,0,0,0-1.35-.3c-1.28,0-2,.69-2,1.6a1.58,1.58,0,0,0,.86,1.41l1.08.65c.44.26.6.49.6.79s-.36.75-1,.75a2.29,2.29,0,0,1-1.46-.55V261a3.47,3.47,0,0,0,1.51.35c1.23,0,2-.64,2-1.63a1.68,1.68,0,0,0-1-1.51l-1-.62c-.34-.21-.51-.38-.51-.69s.32-.75,1-.75a2.26,2.26,0,0,1,1.33.47Zm-4.65,5.66v-1h-3.36V257.6H121v-1h-3.12V254h3.36v-1H116.8v8.16Zm-10.44-5.84h-1v5.84h1v-3.48c0-.9.46-1.5,1.3-1.5a1.91,1.91,0,0,1,.71.14v-1.06a2.12,2.12,0,0,0-.49-.06,1.61,1.61,0,0,0-1.52.91Zm-5.12.74a1.76,1.76,0,0,1,1.85,1.75h-3.76a1.88,1.88,0,0,1,1.91-1.75m2.77,2.54a2.87,2.87,0,0,0-2.77-3.4,3,3,0,0,0,.06,6.08,4.11,4.11,0,0,0,2.17-.61v-1a3.63,3.63,0,0,1-2.1.73,2,2,0,0,1-2-1.77Zm-8.1-.37a2,2,0,0,1-2,2.07,2.06,2.06,0,0,1,0-4.12,2,2,0,0,1,2,2Zm0,2.93h1v-8.28h-1v3.61a2.43,2.43,0,0,0-2.19-1.29,3,3,0,0,0,0,6.08,2.42,2.42,0,0,0,2.19-1.28Zm-10.39-5.84h-1v5.84h1v-3.48a1.48,1.48,0,1,1,3,.07v3.41h1v-3.65a2.15,2.15,0,0,0-2.2-2.31,1.87,1.87,0,0,0-1.75,1Zm-5.12.74a1.76,1.76,0,0,1,1.85,1.75H82.88a1.87,1.87,0,0,1,1.91-1.75m2.77,2.54a3.83,3.83,0,0,0,0-.54,2.76,2.76,0,0,0-2.82-2.86,3,3,0,0,0,.06,6.08,4.11,4.11,0,0,0,2.17-.61v-1a3.65,3.65,0,0,1-2.1.73,2,2,0,0,1-2-1.77Zm-12-3.28,2.33,5.84h1l2.34-5.84h-1L78.46,260l-1.8-4.61Zm-4.52,4a1.29,1.29,0,1,1,1.29,1.18,1.23,1.23,0,0,1-1.29-1.18Zm-.36-2.74a3,3,0,0,1,1.59-.48,1.25,1.25,0,0,1,1.36,1.32v.67a2.06,2.06,0,0,0-1.53-.68,1.93,1.93,0,0,0-2.05,1.92,1.91,1.91,0,0,0,2,1.94,1.84,1.84,0,0,0,1.54-.76v.64h1v-3.72a2,2,0,0,0-2.25-2.24,4,4,0,0,0-1.69.4Zm-1.32,4.57v-1H66.05v-7.18H65v8.16Zm-9.64,1.56.6-2.88H59.23l-.37,2.88ZM50,261.21v-5h1.16v-.86H50v-1.68l-.94.25v1.43H47.88v.86H49v5Zm-2.91-1.37a2.48,2.48,0,0,1-1.51.52,2.07,2.07,0,0,1,0-4.13,2.41,2.41,0,0,1,1.51.51v-1.1a3.2,3.2,0,0,0-1.51-.39,3,3,0,1,0,0,6.08,3.07,3.07,0,0,0,1.51-.41Zm-9.49-.46a1.22,1.22,0,0,1,1.28-1.15,1.24,1.24,0,0,1,1.29,1.15,1.29,1.29,0,0,1-2.57,0Zm-.36-2.74a3,3,0,0,1,1.58-.48,1.25,1.25,0,0,1,1.36,1.32v.67a2.06,2.06,0,0,0-1.53-.68,1.93,1.93,0,1,0,0,3.86,1.82,1.82,0,0,0,1.54-.76v.64h1v-3.72a2,2,0,0,0-2.25-2.24,3.92,3.92,0,0,0-1.68.4ZM34,255.37H33v5.84h1v-3.48c0-.9.45-1.5,1.29-1.5a1.87,1.87,0,0,1,.71.14v-1.06a2.12,2.12,0,0,0-.49-.06,1.59,1.59,0,0,0-1.51.91Zm-3.26,5.84v-5h1.16v-.86H30.76v-1.68l-.94.25v1.43H28.68v.86h1.09v5Zm-5.15-2.16L27,261.21h1.18l-2-2.93,2-2.91H27l-1.42,2.16-1.43-2.16H23l2,2.91-2,2.93h1.18ZM22,261.21v-1H18.63V257.6h3.12v-1H18.63V254H22v-1H17.6v8.16Z" transform="translate(-16.55 -24.51)"/><path class="cls-3" d="M219,247.67h1.15l3.57-8.3h-1.14l-1.72,4.14-1.67-4.14H218l2.26,5.4Zm-3.45-8.3h-1v5.84h1v-3.48c0-.9.46-1.5,1.3-1.5a1.91,1.91,0,0,1,.71.14v-1.06a2.12,2.12,0,0,0-.49-.06,1.61,1.61,0,0,0-1.52.91Zm-6.28,4a1.22,1.22,0,0,1,1.28-1.15,1.24,1.24,0,0,1,1.29,1.15,1.29,1.29,0,0,1-2.57,0Zm-.36-2.74a3,3,0,0,1,1.58-.48,1.25,1.25,0,0,1,1.36,1.32v.67a2.06,2.06,0,0,0-1.53-.68,1.93,1.93,0,1,0,0,3.86,1.82,1.82,0,0,0,1.54-.76v.64h1v-3.72a2,2,0,0,0-2.25-2.24,3.92,3.92,0,0,0-1.68.4Zm-9.23-1.27h-1v5.84h1v-3.62a1.34,1.34,0,1,1,2.68.08v3.54h1v-3.54a1.3,1.3,0,0,1,1.35-1.44,1.28,1.28,0,0,1,1.33,1.44v3.54h1v-3.78a2,2,0,0,0-2.05-2.18,1.78,1.78,0,0,0-1.79,1.21,1.93,1.93,0,0,0-1.88-1.21,1.76,1.76,0,0,0-1.62.92Zm-5.12.74a1.75,1.75,0,0,1,1.84,1.75h-3.75a1.87,1.87,0,0,1,1.91-1.75m2.77,2.54a3.83,3.83,0,0,0,0-.54,2.76,2.76,0,0,0-2.82-2.86,3,3,0,0,0,.06,6.08,4.14,4.14,0,0,0,2.17-.61v-1a3.65,3.65,0,0,1-2.1.73,2,2,0,0,1-2-1.77Zm-7-3.1a3.05,3.05,0,0,0-1.34-.3c-1.28,0-2,.69-2,1.6a1.58,1.58,0,0,0,.86,1.41l1.08.65c.45.26.6.49.6.79s-.36.75-1,.75a2.31,2.31,0,0,1-1.46-.55V245a3.5,3.5,0,0,0,1.51.35c1.24,0,2-.64,2-1.63a1.68,1.68,0,0,0-1-1.51l-1-.62c-.35-.21-.52-.38-.52-.69s.33-.75.95-.75a2.26,2.26,0,0,1,1.33.47Zm-9.48,2.73a2,2,0,1,1,2,2.08,2,2,0,0,1-2-2.08m-1,0a3,3,0,1,0,3-3,3,3,0,0,0-3,3m-2.3-2.84a1.36,1.36,0,0,1-1.5,1.38h-1.38V238H176a1.38,1.38,0,0,1,1.5,1.41m-3.91,5.77h1V241.8h.85c1.07,0,2.09,1.38,2.46,3.41H179c-.3-1.93-1.14-3.33-2.11-3.78a2.05,2.05,0,0,0,1.68-2.09,2.28,2.28,0,0,0-2.57-2.29h-2.41Zm-5.26,2.56.6-2.88h-1.14l-.37,2.88ZM159,236.93h-1v8.28h1Zm-3.93.6a.66.66,0,0,0,1.32,0,.66.66,0,1,0-1.32,0m1.15,1.84h-1v5.84h1Zm-9.72,1.76a3.13,3.13,0,1,1,3.12,3.18,3.1,3.1,0,0,1-3.12-3.18m-1.08,0a4.2,4.2,0,1,0,4.2-4.2,4.11,4.11,0,0,0-4.2,4.2m-6.64,4.08h1V238H142v-1h-5.38v1h2.18Zm-3.08-1.64a3.37,3.37,0,0,1-2.15.74,3.18,3.18,0,0,1,0-6.36,3.34,3.34,0,0,1,2.15.75v-1.21a4.25,4.25,0,0,0-2.15-.56,4.2,4.2,0,1,0,0,8.4,4.35,4.35,0,0,0,2.15-.56ZM124,245.21l2.63-6.2v6.2h1v-8.16h-1.21l-2.91,6.85-2.91-6.85h-1.23v8.16h1V239l2.64,6.2Zm-10.87-4.68h1.2V238.9h-1.2Zm0,4.68h1.21v-1.64H113.1Zm-3.84.12a2,2,0,0,0,2.08-2.16,3.37,3.37,0,0,0-1.17-2.42l-.83-.87c-.42-.46-.86-.91-.86-1.4s.26-.89.75-.89.76.45.84,1.17l1.19,0c-.08-1.68-1-2.22-2-2.22a1.92,1.92,0,0,0-2.05,2.06,3.12,3.12,0,0,0,1.13,2.25l.9,1a2.13,2.13,0,0,1,.78,1.45c0,.48-.19,1-.78,1s-.85-.6-.91-1.25l-1.25,0c.08,1.45.85,2.3,2.15,2.3m-6.46-.12h1.34v-7.42h1.61v-1.14h-4.58v1.14h1.63Zm-8,0H96v-5.84h0l2.18,5.84h1.22v-8.56H98.24V242h0l-2-5.31H94.82Zm-5.67,0H92.9v-1.15H90.48v-2.72h1.93v-1.13H90.48v-2.43h2.41v-1.13H89.15Zm-3.46,0H87v-8.56H85.69Zm-5.09-1.15v-6.27h.78a.86.86,0,0,1,.94.93v4.38a.89.89,0,0,1-.94,1Zm-1.33,1.15H81.5a2,2,0,0,0,2.17-2.05v-4.58a1.9,1.9,0,0,0-2.16-1.93H79.27Zm-5.68,0h3.76v-1.15H74.92v-2.72h1.94v-1.13H74.92v-2.43h2.42v-1.13H73.59Zm-5-4.57v-2.86h.72c.68,0,.94.6.94,1.43s-.33,1.43-.92,1.43Zm-1.34,4.57h1.34v-3.57h.71l1,3.57h1.39l-1.17-3.87c.66-.27,1.08-1,1.08-2.24,0-1.62-.78-2.45-2.17-2.45H67.25Zm-4.18.12a1.93,1.93,0,0,0,2.17-2V240.7H63v1h1v1.55a.8.8,0,0,1-.89.89.89.89,0,0,1-.94-1v-4.52a.89.89,0,0,1,.94-1,.85.85,0,0,1,.94.87v.8h1.22v-.92a2,2,0,0,0-2.17-1.89,2.07,2.07,0,0,0-2.28,2.1v4.63a2,2,0,0,0,2.29,2.09m-8.9-.12h1.18v-5.84h0l2.17,5.84h1.22v-8.56H57.59V242h0l-2-5.31H54.17Zm-3.46,0h1.34v-8.56H50.71Zm-7.65-4.57v-2.86h.73c.68,0,.93.6.93,1.43s-.32,1.43-.91,1.43Zm-1.34,4.57h1.34v-3.57h.71l1,3.57h1.39L45,241.34c.66-.27,1.07-1,1.07-2.24,0-1.62-.77-2.45-2.17-2.45H41.72Zm-5.67,0H39.8v-1.15H37.38v-2.72h1.93v-1.13H37.38v-2.43h2.41v-1.13H36.05Zm-6.6,0h1.34v-3.75h1.8v3.75h1.33v-8.56H32.59v3.59h-1.8v-3.59H29.45Zm-4.71,0h1.34v-7.42h1.61v-1.14H23.11v1.14h1.63Zm-5.4-1.07a.88.88,0,0,1-.92-1v-4.54a.93.93,0,1,1,1.85,0v4.56a.88.88,0,0,1-.93,1m0,1.19a2.1,2.1,0,0,0,2.29-2.22v-4.48a2,2,0,0,0-2.28-2.11,2.09,2.09,0,0,0-2.29,2.18v4.45a2,2,0,0,0,2.28,2.18" transform="translate(-16.55 -24.51)"/><path class="cls-3" d="M71.79,213.55a3.05,3.05,0,0,0-1.34-.3c-1.29,0-2,.69-2,1.6a1.58,1.58,0,0,0,.86,1.41l1.08.65c.45.26.6.49.6.79s-.36.75-1,.75a2.31,2.31,0,0,1-1.46-.55V219a3.5,3.5,0,0,0,1.51.35c1.24,0,2-.64,2-1.63a1.67,1.67,0,0,0-1-1.51l-1-.62c-.35-.21-.52-.38-.52-.69s.33-.75.95-.75a2.26,2.26,0,0,1,1.33.47Zm-5.17,5.66v-5h1.15v-.86H66.62v-1.68l-1,.25v1.43H64.53v.86h1.1v5Zm-4.49-5.84h-1v5.84h1v-3.48c0-.9.46-1.5,1.3-1.5a2,2,0,0,1,.71.14v-1.06a2.14,2.14,0,0,0-.5-.06,1.61,1.61,0,0,0-1.51.91Zm-6.17,4a1.29,1.29,0,1,1,1.29,1.18A1.23,1.23,0,0,1,56,217.38Zm-.36-2.74a3,3,0,0,1,1.59-.48,1.25,1.25,0,0,1,1.36,1.32v.67a2.06,2.06,0,0,0-1.53-.68A1.93,1.93,0,0,0,55,217.39a1.91,1.91,0,0,0,2,1.94,1.84,1.84,0,0,0,1.54-.76v.64h1v-3.72a2,2,0,0,0-2.25-2.24,4,4,0,0,0-1.69.4Zm-2.25-1.13a1.35,1.35,0,0,1-1.5,1.45H50.48V212h1.37a1.38,1.38,0,0,1,1.5,1.48m-3.9,5.7h1v-3.27h1.37a2.45,2.45,0,1,0,0-4.89h-2.4Zm-4.72-8.28h-1v8.28h1Zm-6.18,6.45a1.29,1.29,0,1,1,1.29,1.18,1.23,1.23,0,0,1-1.29-1.18Zm-.36-2.74a3,3,0,0,1,1.59-.48,1.24,1.24,0,0,1,1.35,1.32v.67a2,2,0,0,0-1.52-.68,1.93,1.93,0,0,0-2,1.92,1.91,1.91,0,0,0,2,1.94,1.8,1.8,0,0,0,1.53-.76v.64h1v-3.72a2,2,0,0,0-2.26-2.24,3.92,3.92,0,0,0-1.68.4Zm-3-3.11a.66.66,0,0,0,1.32,0,.66.66,0,1,0-1.32,0m1.15,1.84h-1v5.84h1Zm-4,0h-1v5.84h1v-3.48c0-.9.46-1.5,1.3-1.5a1.85,1.85,0,0,1,.7.14v-1.06a2,2,0,0,0-.49-.06,1.6,1.6,0,0,0-1.51.91Zm-5,.74a1.75,1.75,0,0,1,1.84,1.75H25.44a1.87,1.87,0,0,1,1.91-1.75m2.77,2.54a4,4,0,0,0,0-.54,2.75,2.75,0,0,0-2.81-2.86,3,3,0,0,0,.06,6.08,4.14,4.14,0,0,0,2.17-.61v-1a3.65,3.65,0,0,1-2.1.73,2,2,0,0,1-2-1.77Zm-9.79-4.24,1.3,3.52H19Zm2.49,6.8H24l-3.08-8.16H19.75l-3.07,8.16h1.16l.83-2.28H22Z" transform="translate(-16.55 -24.51)"/><path class="cls-3" d="M208,201.28a2,2,0,1,1,2,2.07,2,2,0,0,1-2-2.07Zm0-2.91h-1v8.3h1v-3.62a2.44,2.44,0,0,0,2.21,1.28,3,3,0,0,0,0-6.08,2.41,2.41,0,0,0-2.23,1.34Zm-6.16,4a1.22,1.22,0,0,1,1.28-1.16,1.25,1.25,0,0,1,1.29,1.16,1.29,1.29,0,0,1-2.57,0Zm-.36-2.75a3,3,0,0,1,1.58-.48,1.25,1.25,0,0,1,1.36,1.32v.67a2.06,2.06,0,0,0-1.53-.68,1.93,1.93,0,0,0-2,1.92,1.91,1.91,0,0,0,2,1.94,1.82,1.82,0,0,0,1.54-.76v.64h1v-3.72a2,2,0,0,0-2.25-2.24,3.92,3.92,0,0,0-1.68.4Zm-1.47,3.2a2.45,2.45,0,0,1-1.51.52,2.07,2.07,0,0,1,0-4.13,2.34,2.34,0,0,1,1.51.52v-1.11a3.17,3.17,0,0,0-1.51-.39,3,3,0,1,0,0,6.08,3,3,0,0,0,1.51-.41Zm-5.88-6.91h-1v8.28h1Zm-2.69,0h-1v8.28h1Zm-3.69,8.28h1v-5.84h-1v3.5a1.47,1.47,0,1,1-2.93-.08v-3.42h-1V202a2.14,2.14,0,0,0,2.18,2.32,1.82,1.82,0,0,0,1.74-1Zm-9.44,0h1v-1.79l.86-1,1.56,2.8h1.18l-2-3.5,1.94-2.34h-1.2l-2.35,2.78v-5.22h-1Zm-1.66-7.84a3.53,3.53,0,0,0-1.75-.44c-1.85,0-2.56,1.09-2.56,2.14a2.21,2.21,0,0,0,1.27,2L175,201c.6.37.89.77.89,1.2,0,.63-.53,1.2-1.52,1.2a3.16,3.16,0,0,1-2-.73v1.21a4.49,4.49,0,0,0,2,.49,2.28,2.28,0,0,0,2.58-2.22,2.35,2.35,0,0,0-1.38-2.1l-1.42-.89a1.3,1.3,0,0,1-.76-1.08c0-.68.55-1.14,1.43-1.14a3,3,0,0,1,1.78.64Zm-9.11,9.4.6-2.88H167l-.37,2.88Zm-9.09-7.22a3.13,3.13,0,0,0-1.35-.3c-1.28,0-2,.69-2,1.6a1.58,1.58,0,0,0,.87,1.41l1.08.65c.44.26.6.49.6.79s-.36.75-1,.75a2.34,2.34,0,0,1-1.47-.55V204a3.51,3.51,0,0,0,1.52.35c1.23,0,2-.64,2-1.63a1.68,1.68,0,0,0-1-1.51l-1-.62c-.35-.21-.51-.38-.51-.69s.32-.75.95-.75a2.33,2.33,0,0,1,1.33.47Zm-5.18,5.66v-5h1.16v-.86h-1.16v-1.68l-.94.25v1.43h-1.14v.86h1.09v5Zm-4.48-5.84h-1v5.84h1v-3.48c0-.9.45-1.5,1.29-1.5a1.87,1.87,0,0,1,.71.14v-1.06a2,2,0,0,0-.49-.06,1.59,1.59,0,0,0-1.51.91Zm-6.17,4a1.23,1.23,0,0,1,1.28-1.16,1.25,1.25,0,0,1,1.29,1.16,1.29,1.29,0,0,1-2.57,0Zm-.36-2.75a3,3,0,0,1,1.58-.48,1.25,1.25,0,0,1,1.36,1.32v.67a2.06,2.06,0,0,0-1.52-.68,1.94,1.94,0,0,0-2.06,1.92,1.91,1.91,0,0,0,2,1.94,1.81,1.81,0,0,0,1.54-.76v.64h1v-3.72a2,2,0,0,0-2.26-2.24,3.92,3.92,0,0,0-1.68.4ZM140,198.51a1.35,1.35,0,0,1-1.5,1.45h-1.36V197h1.36a1.37,1.37,0,0,1,1.5,1.48m-3.9,5.7h1V201h1.36a2.45,2.45,0,1,0,0-4.9h-2.4Zm-4.71-8.28h-1v8.28h1Zm-6.18,6.46a1.22,1.22,0,0,1,1.28-1.16,1.25,1.25,0,0,1,1.29,1.16,1.29,1.29,0,0,1-2.57,0Zm-.36-2.75a3,3,0,0,1,1.58-.48,1.25,1.25,0,0,1,1.36,1.32v.67a2.06,2.06,0,0,0-1.53-.68,1.93,1.93,0,0,0-2,1.92,1.91,1.91,0,0,0,2,1.94,1.82,1.82,0,0,0,1.54-.76v.64h1v-3.72a2,2,0,0,0-2.25-2.24,3.92,3.92,0,0,0-1.68.4Zm-3-3.11a.64.64,0,0,0,.65.65.64.64,0,0,0,.67-.65.64.64,0,0,0-.67-.66.65.65,0,0,0-.65.66m1.15,1.84h-1v5.84h1Zm-4,0h-1v5.84h1v-3.48c0-.9.46-1.5,1.3-1.5a1.91,1.91,0,0,1,.71.14v-1.06a2.12,2.12,0,0,0-.49-.06,1.61,1.61,0,0,0-1.52.91Zm-5,.74a1.76,1.76,0,0,1,1.85,1.75h-3.76a1.88,1.88,0,0,1,1.91-1.75m2.77,2.54a2.87,2.87,0,0,0-2.77-3.4,3,3,0,0,0,.06,6.08,4.11,4.11,0,0,0,2.17-.61v-1a3.63,3.63,0,0,1-2.1.73,2,2,0,0,1-2-1.77ZM107,197.41l1.31,3.52h-2.62Zm2.5,6.8h1.16l-3.07-8.16h-1.17l-3.07,8.16h1.17l.82-2.28h3.3Zm-13.3,2.46h1.15l3.57-8.3H99.78l-1.72,4.14-1.67-4.14H95.25l2.26,5.4Zm-6.49-5.39a2,2,0,1,1,2,2.07,2,2,0,0,1-2-2.07Zm0-2.91h-1v8.3h1v-3.62a2.43,2.43,0,0,0,2.21,1.28,3,3,0,0,0,0-6.08,2.4,2.4,0,0,0-2.22,1.34Zm-7.39,2.91a2,2,0,1,1,2,2.07,2,2,0,0,1-2-2.07Zm0-2.91h-1v8.3h1v-3.62a2.43,2.43,0,0,0,2.2,1.28,3,3,0,0,0,0-6.08,2.4,2.4,0,0,0-2.22,1.34ZM75,201.28a2,2,0,1,1,4,0,2,2,0,1,1-4,0m-1,0a3,3,0,1,0,3-3,3,3,0,0,0-3,3m-1.65-2.77a1.35,1.35,0,0,1-1.5,1.45H69.45V197h1.37a1.38,1.38,0,0,1,1.5,1.48m-3.9,5.7h1V201h1.37a2.45,2.45,0,1,0,0-4.9h-2.4Zm-8.21-1.82a1.29,1.29,0,0,1,2.57,0,1.22,1.22,0,0,1-1.28,1.17A1.23,1.23,0,0,1,60.21,202.39Zm-.36-2.75a3,3,0,0,1,1.59-.48,1.24,1.24,0,0,1,1.35,1.32v.67a2,2,0,0,0-1.52-.68,1.93,1.93,0,0,0-2.05,1.92,1.91,1.91,0,0,0,2,1.94,1.8,1.8,0,0,0,1.53-.76v.64h1v-3.72a2,2,0,0,0-2.26-2.24,3.92,3.92,0,0,0-1.68.4Zm-3-3.11a.66.66,0,0,0,1.32,0,.66.66,0,1,0-1.32,0M58,198.37H57v5.84h1Zm-6.54,0h-1v5.84h1v-3.48a1.41,1.41,0,0,1,1.47-1.5,1.44,1.44,0,0,1,1.48,1.57v3.41h1v-3.65a2.15,2.15,0,0,0-2.2-2.31,1.87,1.87,0,0,0-1.75,1Zm-4,0h-1v5.84h1v-3.48c0-.9.45-1.5,1.29-1.5a1.87,1.87,0,0,1,.71.14v-1.06a2,2,0,0,0-.49-.06,1.6,1.6,0,0,0-1.51.91Zm-7.32,2.91a2,2,0,1,1,4,0,2,2,0,1,1-4,0m-1,0a3,3,0,1,0,3-3,3,3,0,0,0-3,3m-.45-2.91H37.21v-.68a.8.8,0,0,1,.86-.9,1.68,1.68,0,0,1,.67.14v-1a2.72,2.72,0,0,0-.69-.1,1.68,1.68,0,0,0-1.84,1.82v.74H35.3v.86h.91v5h1v-5h1.46ZM33,196.53a.66.66,0,0,0,1.32,0,.66.66,0,1,0-1.32,0m1.15,1.84h-1v5.84h1Zm-2.67-2.44h-1v8.28h1Zm-6.18,6.46a1.22,1.22,0,0,1,1.28-1.16,1.25,1.25,0,0,1,1.29,1.16,1.29,1.29,0,0,1-2.57,0ZM25,199.64a3,3,0,0,1,1.58-.48,1.25,1.25,0,0,1,1.36,1.32v.67a2.06,2.06,0,0,0-1.53-.68,1.93,1.93,0,0,0-2.05,1.92,1.91,1.91,0,0,0,2,1.94,1.82,1.82,0,0,0,1.54-.76v.64h1v-3.72a2,2,0,0,0-2.25-2.24,3.92,3.92,0,0,0-1.68.4Zm-1.56,2.93a3.37,3.37,0,0,1-2.15.74,3.18,3.18,0,0,1,0-6.36,3.31,3.31,0,0,1,2.15.76v-1.22a4.28,4.28,0,0,0-2.15-.56,4.2,4.2,0,1,0,0,8.4,4.28,4.28,0,0,0,2.15-.56Z" transform="translate(-16.55 -24.51)"/><path class="cls-3" d="M206.61,165.93h-1v8.28h1Zm-6.18,6.45a1.23,1.23,0,0,1,1.28-1.15,1.24,1.24,0,0,1,1.29,1.15,1.29,1.29,0,0,1-2.57,0Zm-.36-2.74a3,3,0,0,1,1.58-.48,1.25,1.25,0,0,1,1.36,1.32v.67a2.06,2.06,0,0,0-1.52-.68,1.94,1.94,0,0,0-2.06,1.92,1.91,1.91,0,0,0,2,1.94,1.81,1.81,0,0,0,1.54-.76v.64h1v-3.72a2,2,0,0,0-2.25-2.24,3.92,3.92,0,0,0-1.68.4Zm-3-3.11a.64.64,0,0,0,.65.65.64.64,0,0,0,.67-.65.64.64,0,0,0-.67-.66.65.65,0,0,0-.65.66m1.15,1.84h-1v5.84h1Zm-4,0h-1v5.84h1v-3.48c0-.9.45-1.5,1.29-1.5a1.87,1.87,0,0,1,.71.14v-1.06a2.12,2.12,0,0,0-.49-.06,1.59,1.59,0,0,0-1.51.91Zm-5,.74a1.76,1.76,0,0,1,1.85,1.75h-3.76a1.89,1.89,0,0,1,1.91-1.75m2.77,2.54a2.87,2.87,0,0,0-2.77-3.4,3,3,0,0,0,.06,6.08,4.11,4.11,0,0,0,2.17-.61v-1a3.63,3.63,0,0,1-2.1.73,2,2,0,0,1-2-1.77Zm-9.79-4.24,1.31,3.52h-2.62Zm2.5,6.8h1.16l-3.07-8.16h-1.16l-3.08,8.16h1.17l.83-2.28h3.3Zm-17.52-5.84,1.79,5.84H170l1.44-4,1.62,4h1.06l1.8-5.84h-1L173.56,173l-1.85-4.59h-1l.29.73L169.57,173l-1.35-4.59Zm-4.56,4a1.22,1.22,0,0,1,1.28-1.15,1.24,1.24,0,0,1,1.29,1.15,1.29,1.29,0,0,1-2.57,0Zm-.36-2.74a3,3,0,0,1,1.58-.48,1.25,1.25,0,0,1,1.36,1.32v.67a2.06,2.06,0,0,0-1.53-.68,1.93,1.93,0,1,0,0,3.86,1.82,1.82,0,0,0,1.54-.76v.64h1v-3.72a2,2,0,0,0-2.25-2.24,3.92,3.92,0,0,0-1.68.4Zm-3.06-1.27h-1v5.84h1v-3.48c0-.9.45-1.5,1.29-1.5a1.87,1.87,0,0,1,.71.14v-1.06a2,2,0,0,0-.49-.06,1.6,1.6,0,0,0-1.51.91Zm-3.13,5.84v-5h1.15v-.86h-1.15v-1.68l-.95.25v1.43H154v.86h1.09v5Zm-3-5.66a3.13,3.13,0,0,0-1.35-.3c-1.28,0-2,.69-2,1.6a1.59,1.59,0,0,0,.87,1.41l1.08.65c.44.26.6.49.6.79s-.36.75-1,.75a2.34,2.34,0,0,1-1.47-.55V174a3.55,3.55,0,0,0,1.52.35c1.23,0,2-.64,2-1.63a1.68,1.68,0,0,0-1-1.51l-1-.62c-.34-.21-.51-.38-.51-.69s.32-.75.95-.75a2.26,2.26,0,0,1,1.33.47Zm-5.17,5.66v-5h1.15v-.86h-1.15v-1.68l-.95.25v1.43h-1.14v.86h1.09v5Zm-6.57-1.83a1.29,1.29,0,1,1,1.29,1.18,1.23,1.23,0,0,1-1.29-1.18Zm-.36-2.74a3,3,0,0,1,1.59-.48,1.24,1.24,0,0,1,1.35,1.32v.67a2.06,2.06,0,0,0-1.52-.68,1.93,1.93,0,0,0-2.05,1.92,1.91,1.91,0,0,0,2,1.94,1.8,1.8,0,0,0,1.53-.76v.64h1v-3.72a2,2,0,0,0-2.26-2.24,3.92,3.92,0,0,0-1.68.4Zm-8.75.49a3.13,3.13,0,1,1,3.12,3.18,3.11,3.11,0,0,1-3.12-3.18m-1.07,0a4.2,4.2,0,1,0,4.19-4.2,4.11,4.11,0,0,0-4.19,4.2m-4.71,6.64.6-2.88h-1.14l-.37,2.88Zm-13.22-.1h1.15l3.56-8.3H116.8l-1.71,4.14-1.67-4.14h-1.14l2.26,5.4Zm-3-5.39a2,2,0,1,1-2-2.05,2,2,0,0,1,2,2.05Zm0,2.93h1v-8.28h-1v3.61a2.46,2.46,0,0,0-2.2-1.29,3,3,0,0,0,0,6.08,2.45,2.45,0,0,0,2.2-1.28Zm-11.06-2.93a2,2,0,1,1,2,2.08,2,2,0,0,1-2-2.08m-1,0a3,3,0,1,0,3-3,3,3,0,0,0-3,3m-2.31-3a1.23,1.23,0,0,1-1.39,1.25H93.1V167h1.38a1.23,1.23,0,0,1,1.39,1.25m.25,3.6a1.34,1.34,0,0,1-1.52,1.35H93.1V170.5h1.5a1.36,1.36,0,0,1,1.52,1.38m-4.05,2.33H94.6c1.47,0,2.6-.82,2.6-2.22a2,2,0,0,0-1.42-2,1.89,1.89,0,0,0,1.15-1.84,2.18,2.18,0,0,0-2.43-2.11H92.07Zm-5.76-3a2,2,0,1,1-2-2A1.93,1.93,0,0,1,86.31,171.21Zm0-2.84v1.15a2.43,2.43,0,0,0-2.2-1.27,3,3,0,0,0,0,5.91,2.46,2.46,0,0,0,2.2-1.22v.94a1.91,1.91,0,0,1-2,2,3.84,3.84,0,0,1-2.06-.63v1.08a4.51,4.51,0,0,0,2,.5,2.83,2.83,0,0,0,3-3v-5.4Zm-10.21,0h-1v5.84h1v-3.48a1.41,1.41,0,0,1,1.47-1.5,1.44,1.44,0,0,1,1.48,1.57v3.41h1v-3.65a2.15,2.15,0,0,0-2.2-2.31,1.87,1.87,0,0,0-1.75,1Zm-3.8-1.84a.66.66,0,0,0,1.31,0,.66.66,0,1,0-1.31,0m1.15,1.84h-1v5.84h1Zm-3.14,5.84v-5h1.16v-.86H70.36v-1.68l-.94.25v1.43H68.28v.86h1.09v5Zm-4.27-7.68a.64.64,0,0,0,.65.65.64.64,0,0,0,.67-.65.64.64,0,0,0-.67-.66.65.65,0,0,0-.65.66m1.15,1.84h-1v5.84h1Zm-3.68,5.84h1v-5.84h-1v3.5a1.4,1.4,0,0,1-1.46,1.49,1.42,1.42,0,0,1-1.47-1.57v-3.42h-1V172a2.14,2.14,0,0,0,2.18,2.32,1.82,1.82,0,0,0,1.74-1Zm-6.91-5.84h-1v5.84h1v-3.48c0-.9.46-1.5,1.29-1.5a1.87,1.87,0,0,1,.71.14v-1.06a2,2,0,0,0-.49-.06,1.6,1.6,0,0,0-1.51.91Zm-2.4,2.55v-1H51.13V167h3.36v-1H50.1v8.16h1v-3.29Zm-10-4.39a.64.64,0,0,0,.65.65.64.64,0,0,0,.67-.65.64.64,0,0,0-.67-.66.65.65,0,0,0-.65.66m1.15,1.84h-1v5.84h1Zm-6.54-2.44h-1v8.28h1v-3.48a1.42,1.42,0,0,1,1.48-1.5,1.44,1.44,0,0,1,1.48,1.57v3.41h1v-3.65a2.14,2.14,0,0,0-2.19-2.31,1.9,1.9,0,0,0-1.76,1Zm-2.54,2.62a3.08,3.08,0,0,0-1.34-.3c-1.29,0-2,.69-2,1.6a1.58,1.58,0,0,0,.86,1.41l1.08.65c.45.26.6.49.6.79s-.36.75-1,.75a2.31,2.31,0,0,1-1.46-.55V174a3.5,3.5,0,0,0,1.51.35c1.24,0,2-.64,2-1.63a1.67,1.67,0,0,0-1-1.51l-1-.62c-.35-.21-.52-.38-.52-.69s.33-.75,1-.75a2.26,2.26,0,0,1,1.33.47Zm-5.84-2a.66.66,0,0,0,1.32,0,.66.66,0,1,0-1.32,0m1.15,1.84h-1v5.84h1Zm-5,.74a1.75,1.75,0,0,1,1.84,1.75H24.72a1.87,1.87,0,0,1,1.91-1.75m2.77,2.54a4,4,0,0,0,0-.54,2.75,2.75,0,0,0-2.81-2.86,3,3,0,0,0,.06,6.08,4.14,4.14,0,0,0,2.17-.61v-1a3.65,3.65,0,0,1-2.1.73,2,2,0,0,1-2-1.77Zm-7.89-3.21a1.35,1.35,0,0,1-1.5,1.38H18.63V167H20a1.37,1.37,0,0,1,1.5,1.41m-3.91,5.77h1V170.8h.86c1.06,0,2.08,1.38,2.46,3.41H23c-.3-1.93-1.14-3.33-2.11-3.78a2,2,0,0,0,1.68-2.09A2.28,2.28,0,0,0,20,166.05H17.6Z" transform="translate(-16.55 -24.51)"/><path class="cls-3" d="M230.72,126.6l-.21.36,1.14.66-1.14.66.22.36,1.14-.65v1.29h.42V128l1.13.65.21-.36-1.14-.65,1.14-.66-.21-.37-1.13.66v-1.32h-.42v1.32Zm-4.49,0-.2.36,1.14.66-1.14.66.21.36,1.14-.65v1.29h.42V128l1.13.65.21-.36-1.14-.65,1.14-.66-.21-.37-1.13.66v-1.32h-.42v1.32Zm-2.86,4.61a2,2,0,1,1-2-2,1.92,1.92,0,0,1,2,2Zm0-2.84v1.15a2.42,2.42,0,0,0-2.19-1.27,3,3,0,0,0,0,5.91,2.46,2.46,0,0,0,2.19-1.22v.95a1.91,1.91,0,0,1-2,2,3.84,3.84,0,0,1-2.06-.63v1.08a4.39,4.39,0,0,0,2,.5,2.83,2.83,0,0,0,3-3v-5.4Zm-13.73,0h-1v5.84h1v-3.62a1.34,1.34,0,1,1,2.68.08v3.54h1v-3.54a1.31,1.31,0,0,1,1.35-1.44,1.28,1.28,0,0,1,1.33,1.44v3.54h1v-3.78a2,2,0,0,0-2-2.18,1.77,1.77,0,0,0-1.79,1.21,1.93,1.93,0,0,0-1.89-1.21,1.77,1.77,0,0,0-1.62.92Zm-6.27,2.07h1.2a1.42,1.42,0,0,1,1.49,1.43,1.47,1.47,0,0,1-1.59,1.43,2.67,2.67,0,0,1-1.7-.57v1.18a3.73,3.73,0,0,0,1.75.42,2.39,2.39,0,0,0,2.6-2.34,2.09,2.09,0,0,0-1.32-2.05,1.92,1.92,0,0,0,1.09-1.85,2.19,2.19,0,0,0-2.41-2.16,3.33,3.33,0,0,0-1.62.38v1.13a2.7,2.7,0,0,1,1.59-.48,1.25,1.25,0,1,1,.11,2.5h-1.19Zm-3.55,3.13a.74.74,0,0,0,.76.76.76.76,0,1,0,0-1.52.74.74,0,0,0-.76.76m-4.19-7.64a2.68,2.68,0,0,0-2.75,2.76v2.87a2.76,2.76,0,1,0,5.51,0v-2.87a2.69,2.69,0,0,0-2.76-2.76m0,1a1.67,1.67,0,0,1,1.73,1.79v2.8a1.73,1.73,0,1,1-3.45,0v-2.8a1.67,1.67,0,0,1,1.72-1.79m-6.4,6.74a.64.64,0,0,0,1.28,0,.64.64,0,0,0-1.28,0m-2.46,0a.64.64,0,0,0,1.28,0,.64.64,0,0,0-1.28,0m-2.46,0a.64.64,0,0,0,1.28,0,.64.64,0,0,0-1.28,0m-2.46,0a.64.64,0,0,0,1.28,0,.64.64,0,0,0-1.28,0m-2.46,0a.64.64,0,0,0,1.28,0,.64.64,0,0,0-1.28,0m-2.46,0a.64.64,0,0,0,1.28,0,.64.64,0,0,0-1.28,0m-2.46,0a.64.64,0,0,0,1.28,0,.64.64,0,0,0-1.28,0m-2.46,0a.64.64,0,0,0,1.28,0,.64.64,0,0,0-1.28,0m-2.46,0a.64.64,0,0,0,1.28,0,.64.64,0,0,0-1.28,0m-2.46,0a.64.64,0,0,0,1.28,0,.64.64,0,0,0-1.28,0m-2.46,0a.64.64,0,0,0,1.28,0,.64.64,0,0,0-1.28,0m-2.46,0a.64.64,0,0,0,1.28,0,.64.64,0,0,0-1.28,0m-2.46,0a.64.64,0,0,0,1.28,0,.64.64,0,0,0-1.28,0m-2.46,0a.64.64,0,0,0,1.28,0,.64.64,0,0,0-1.28,0m-2.46,0a.64.64,0,0,0,1.28,0,.64.64,0,0,0-1.28,0m-2.46,0a.64.64,0,0,0,1.28,0,.64.64,0,0,0-1.28,0m-2.46,0a.64.64,0,0,0,1.28,0,.64.64,0,0,0-1.28,0m-2.46,0a.64.64,0,0,0,1.28,0,.64.64,0,0,0-1.28,0m-2.46,0a.64.64,0,0,0,1.28,0,.64.64,0,0,0-1.28,0m-2.46,0a.64.64,0,0,0,1.28,0,.64.64,0,0,0-1.28,0m-2.46,0a.64.64,0,0,0,1.28,0,.64.64,0,0,0-1.28,0m-2.46,0a.64.64,0,0,0,1.28,0,.64.64,0,0,0-1.28,0m-2.46,0a.64.64,0,0,0,1.28,0,.64.64,0,0,0-1.28,0m-2.46,0a.64.64,0,0,0,1.28,0,.64.64,0,0,0-1.28,0m-2.46,0a.64.64,0,0,0,1.28,0,.64.64,0,1,0-1.28,0m-2.46,0a.64.64,0,0,0,1.28,0,.64.64,0,0,0-1.28,0m-2.46,0a.64.64,0,0,0,1.28,0,.64.64,0,1,0-1.28,0m-2.46,0a.64.64,0,0,0,1.28,0,.64.64,0,1,0-1.28,0m-2.46,0a.64.64,0,0,0,1.28,0,.64.64,0,0,0-1.28,0m-2.46,0a.64.64,0,0,0,1.28,0,.64.64,0,0,0-1.28,0m-2.46,0a.64.64,0,0,0,1.28,0,.64.64,0,0,0-1.28,0m-2.46,0a.64.64,0,0,0,1.28,0,.64.64,0,0,0-1.28,0m-2.46,0a.64.64,0,0,0,1.28,0,.64.64,0,0,0-1.28,0m-4-2.39a8.22,8.22,0,0,1-1.54,5l.58.4a8.95,8.95,0,0,0,0-10.74l-.58.4a8.2,8.2,0,0,1,1.54,5m-4,2.92h1v-8.16h-1v6.38l-4.68-6.38H96.69v.08l.57.84v7.24h1v-5.86Zm-8.46-5.93a1.23,1.23,0,0,1-1.38,1.25H91.4V127h1.38a1.23,1.23,0,0,1,1.38,1.25m.25,3.6a1.33,1.33,0,0,1-1.51,1.35H91.4V130.5h1.5a1.36,1.36,0,0,1,1.51,1.38m-4,2.33H92.9A2.3,2.3,0,0,0,95.49,132a2,2,0,0,0-1.41-2,1.89,1.89,0,0,0,1.15-1.84,2.2,2.2,0,0,0-2.44-2.11H90.37Zm-1.74-1.64a3.37,3.37,0,0,1-2.15.74,3.18,3.18,0,0,1,0-6.36,3.29,3.29,0,0,1,2.15.76v-1.22a4.25,4.25,0,0,0-2.15-.56,4.2,4.2,0,0,0,0,8.4,4.25,4.25,0,0,0,2.15-.56Zm-8.51-1.26a8.16,8.16,0,0,1,1.54-5l-.58-.4a8.91,8.91,0,0,0,0,10.74l.58-.4a8.14,8.14,0,0,1-1.54-5m-5.21-5.38h-1v8.28h1Zm-7.45,5.35a2,2,0,1,1,4,0,2,2,0,1,1-4,0m-1,0a3,3,0,1,0,3-3,3,3,0,0,0-3,3m-5.28-2.91h-1v5.84h1v-3.48a1.41,1.41,0,0,1,1.47-1.5,1.44,1.44,0,0,1,1.48,1.57v3.41h1v-3.65a2.15,2.15,0,0,0-2.2-2.31,1.87,1.87,0,0,0-1.75,1Zm-3.92-1.84a.66.66,0,0,0,1.31,0,.66.66,0,1,0-1.31,0m1.15,1.84h-1v5.84h1Zm-7.52,2.91a2,2,0,1,1,2,2.07A2,2,0,0,1,50.86,131.28Zm0,1.77a2.46,2.46,0,0,0,2.22,1.28,3,3,0,0,0,0-6.08,2.47,2.47,0,0,0-2.22,1.29v-3.61h-1v8.28h1Zm-6.28-.66a1.22,1.22,0,0,1,1.28-1.16,1.25,1.25,0,0,1,1.29,1.16,1.29,1.29,0,0,1-2.57,0Zm-.36-2.75a3,3,0,0,1,1.58-.48,1.25,1.25,0,0,1,1.36,1.32v.67a2.06,2.06,0,0,0-1.53-.68,1.93,1.93,0,0,0-2.05,1.92,1.91,1.91,0,0,0,2,1.94,1.82,1.82,0,0,0,1.54-.76v.64h1v-3.72a2,2,0,0,0-2.25-2.24,3.92,3.92,0,0,0-1.68.4Zm-5.84-1.27h-1v5.84h1v-3.48a1.42,1.42,0,0,1,1.48-1.5,1.44,1.44,0,0,1,1.48,1.57v3.41h1v-3.65a2.14,2.14,0,0,0-2.19-2.31,1.88,1.88,0,0,0-1.76,1Zm-6.66,0h-1v5.84h1v-3.48a1.42,1.42,0,0,1,1.48-1.5,1.44,1.44,0,0,1,1.48,1.57v3.41h1v-3.65a2.14,2.14,0,0,0-2.19-2.31,1.88,1.88,0,0,0-1.76,1Zm-6.28,4a1.22,1.22,0,0,1,1.28-1.16A1.25,1.25,0,0,1,28,132.39a1.29,1.29,0,0,1-2.57,0Zm-.36-2.75a3,3,0,0,1,1.58-.48A1.25,1.25,0,0,1,28,130.48v.67a2.06,2.06,0,0,0-1.53-.68,1.93,1.93,0,0,0-2,1.92,1.91,1.91,0,0,0,2,1.94,1.82,1.82,0,0,0,1.54-.76v.64h1v-3.72a2,2,0,0,0-2.25-2.24,3.92,3.92,0,0,0-1.68.4Zm-1.68,2.93a3.37,3.37,0,0,1-2.15.74,3.18,3.18,0,0,1,0-6.36,3.31,3.31,0,0,1,2.15.76v-1.22a4.28,4.28,0,0,0-2.15-.56,4.2,4.2,0,1,0,0,8.4,4.28,4.28,0,0,0,2.15-.56Z" transform="translate(-16.55 -24.51)"/><path class="cls-3" d="M230.72,111.6l-.21.36,1.14.66-1.14.66.22.36,1.14-.65v1.29h.42V113l1.13.65.21-.36-1.14-.65,1.14-.66-.21-.37-1.13.66v-1.32h-.42v1.32Zm-4.49,0-.2.36,1.14.66-1.14.66.21.36,1.14-.65v1.29h.42V113l1.13.65.21-.36-1.14-.65,1.14-.66-.21-.37-1.13.66v-1.32h-.42v1.32Zm-2.86,4.61a2,2,0,1,1-2-2,1.92,1.92,0,0,1,2,2Zm0-2.84v1.15a2.42,2.42,0,0,0-2.19-1.27,3,3,0,0,0,0,5.91,2.46,2.46,0,0,0,2.19-1.22v1a1.91,1.91,0,0,1-2,2,3.84,3.84,0,0,1-2.06-.63v1.08a4.39,4.39,0,0,0,2,.5,2.83,2.83,0,0,0,3-3v-5.4Zm-13.73,0h-1v5.84h1v-3.62a1.34,1.34,0,1,1,2.68.08v3.54h1v-3.54a1.31,1.31,0,0,1,1.35-1.44,1.28,1.28,0,0,1,1.33,1.44v3.54h1v-3.78a2,2,0,0,0-2-2.18,1.77,1.77,0,0,0-1.79,1.21,1.93,1.93,0,0,0-1.89-1.21,1.77,1.77,0,0,0-1.62.92Zm-5.46-2.44a2.68,2.68,0,0,0-2.74,2.76v2.87a2.75,2.75,0,1,0,5.5,0v-2.87a2.68,2.68,0,0,0-2.76-2.76m0,1a1.67,1.67,0,0,1,1.73,1.79v2.8a1.72,1.72,0,1,1-3.44,0v-2.8a1.67,1.67,0,0,1,1.71-1.79m-8.66,7.27h4.82v-1h-1.74v-7.18h-2.86v1h1.83v6.2h-2.05Zm-3.83-.53a.64.64,0,0,0,1.28,0,.64.64,0,0,0-1.28,0m-2.46,0a.64.64,0,0,0,1.28,0,.64.64,0,0,0-1.28,0m-2.46,0a.64.64,0,0,0,1.28,0,.64.64,0,1,0-1.28,0m-2.46,0a.64.64,0,0,0,1.28,0,.64.64,0,1,0-1.28,0m-2.46,0a.64.64,0,0,0,1.28,0,.64.64,0,0,0-1.28,0m-2.46,0a.64.64,0,0,0,1.28,0,.64.64,0,1,0-1.28,0m-2.46,0a.64.64,0,0,0,1.28,0,.64.64,0,1,0-1.28,0m-2.46,0a.64.64,0,0,0,1.28,0,.64.64,0,0,0-1.28,0m-2.46,0a.64.64,0,0,0,1.28,0,.64.64,0,0,0-1.28,0m-2.46,0a.64.64,0,0,0,1.28,0,.64.64,0,1,0-1.28,0m-2.46,0a.64.64,0,0,0,1.28,0,.64.64,0,1,0-1.28,0m-2.46,0a.64.64,0,0,0,1.28,0,.64.64,0,0,0-1.28,0m-2.46,0a.64.64,0,0,0,1.28,0,.64.64,0,1,0-1.28,0m-2.46,0a.64.64,0,0,0,1.28,0,.64.64,0,1,0-1.28,0m-2.46,0a.64.64,0,0,0,1.28,0,.64.64,0,0,0-1.28,0m-2.46,0a.64.64,0,0,0,1.28,0,.64.64,0,0,0-1.28,0m-2.46,0a.64.64,0,0,0,1.28,0,.64.64,0,1,0-1.28,0m-2.46,0a.64.64,0,0,0,1.28,0,.64.64,0,1,0-1.28,0m-2.46,0a.64.64,0,0,0,1.28,0,.64.64,0,0,0-1.28,0m-2.46,0a.64.64,0,0,0,1.28,0,.64.64,0,0,0-1.28,0m-2.46,0a.64.64,0,0,0,1.28,0,.64.64,0,1,0-1.28,0m-2.46,0a.64.64,0,0,0,1.28,0,.64.64,0,0,0-1.28,0m-2.46,0a.64.64,0,0,0,1.28,0,.64.64,0,1,0-1.28,0m-2.46,0a.64.64,0,0,0,1.28,0,.64.64,0,0,0-1.28,0m-2.46,0a.64.64,0,0,0,1.28,0,.64.64,0,0,0-1.28,0m-2.46,0a.64.64,0,0,0,1.28,0,.64.64,0,1,0-1.28,0m-2.46,0a.64.64,0,0,0,1.28,0,.64.64,0,1,0-1.28,0m-2.46,0a.64.64,0,0,0,1.28,0,.64.64,0,0,0-1.28,0m-2.46,0a.64.64,0,0,0,1.28,0,.64.64,0,0,0-1.28,0m-2.46,0a.64.64,0,0,0,1.28,0,.64.64,0,0,0-1.28,0m-2.46,0a.64.64,0,0,0,1.28,0,.64.64,0,0,0-1.28,0m-2.46,0a.64.64,0,0,0,1.28,0,.64.64,0,0,0-1.28,0m-2.46,0a.64.64,0,0,0,1.28,0,.64.64,0,0,0-1.28,0m-3.13-2.39a8.22,8.22,0,0,1-1.53,5l.57.4a8.91,8.91,0,0,0,0-10.74l-.57.4a8.2,8.2,0,0,1,1.53,5M103.7,112a3.1,3.1,0,0,1,0,6.2h-1.84V112Zm-2.87,7.18h2.88a4.08,4.08,0,0,0,0-8.16h-2.88Zm-3-5.93a1.23,1.23,0,0,1-1.39,1.25H95V112H96.4a1.23,1.23,0,0,1,1.39,1.25m.25,3.6a1.34,1.34,0,0,1-1.52,1.35H95V115.5h1.5A1.37,1.37,0,0,1,98,116.88M94,119.21h2.53c1.47,0,2.6-.82,2.6-2.22a2,2,0,0,0-1.42-2,1.89,1.89,0,0,0,1.15-1.84,2.19,2.19,0,0,0-2.43-2.11H94Zm-1.74-1.64a3.35,3.35,0,0,1-2.15.74,3.18,3.18,0,0,1,0-6.36,3.27,3.27,0,0,1,2.15.76v-1.22a4.22,4.22,0,0,0-2.15-.56,4.2,4.2,0,0,0,0,8.4,4.22,4.22,0,0,0,2.15-.56Zm-8.51-1.26a8.22,8.22,0,0,1,1.54-5l-.58-.4a8.95,8.95,0,0,0,0,10.74l.58-.4a8.2,8.2,0,0,1-1.54-5m-5.2-5.38h-1v8.28h1Zm-7.46,5.35a2,2,0,1,1,4,0,2,2,0,1,1-4,0m-1,0a3,3,0,1,0,3-3,3,3,0,0,0-3,3m-2.54-4.75a.66.66,0,0,0,1.32,0,.66.66,0,1,0-1.32,0m1.15,1.84h-1v5.84h1Zm-3.78,2.91a2,2,0,0,1-2,2.07,2.06,2.06,0,0,1,0-4.12A2,2,0,0,1,64.88,116.28Zm0,2.93h1v-8.28h-1v3.61a2.43,2.43,0,0,0-2.2-1.29,3,3,0,0,0,0,6.08,2.43,2.43,0,0,0,2.2-1.28Zm-7.65-7.68a.66.66,0,0,0,1.31,0,.66.66,0,1,0-1.31,0m1.15,1.84h-1v5.84h1Zm-7.52,2.91a2,2,0,1,1,2,2.07A2,2,0,0,1,50.86,116.28Zm0,1.77a2.46,2.46,0,0,0,2.22,1.28,3,3,0,0,0,0-6.08,2.47,2.47,0,0,0-2.22,1.29v-3.61h-1v8.28h1Zm-6.28-.66a1.22,1.22,0,0,1,1.28-1.16,1.25,1.25,0,0,1,1.29,1.16,1.29,1.29,0,0,1-2.57,0Zm-.36-2.75a3,3,0,0,1,1.58-.48,1.25,1.25,0,0,1,1.36,1.32v.67a2.06,2.06,0,0,0-1.53-.68,1.93,1.93,0,0,0-2.05,1.92,1.91,1.91,0,0,0,2,1.94,1.82,1.82,0,0,0,1.54-.76v.64h1v-3.72a2,2,0,0,0-2.25-2.24,3.92,3.92,0,0,0-1.68.4Zm-5.84-1.27h-1v5.84h1v-3.48a1.42,1.42,0,0,1,1.48-1.5,1.44,1.44,0,0,1,1.48,1.57v3.41h1v-3.65a2.14,2.14,0,0,0-2.19-2.31,1.88,1.88,0,0,0-1.76,1Zm-6.66,0h-1v5.84h1v-3.48a1.42,1.42,0,0,1,1.48-1.5,1.44,1.44,0,0,1,1.48,1.57v3.41h1v-3.65a2.14,2.14,0,0,0-2.19-2.31,1.88,1.88,0,0,0-1.76,1Zm-6.28,4a1.22,1.22,0,0,1,1.28-1.16A1.25,1.25,0,0,1,28,117.39a1.29,1.29,0,0,1-2.57,0Zm-.36-2.75a3,3,0,0,1,1.58-.48A1.25,1.25,0,0,1,28,115.48v.67a2.06,2.06,0,0,0-1.53-.68,1.93,1.93,0,0,0-2,1.92,1.91,1.91,0,0,0,2,1.94,1.82,1.82,0,0,0,1.54-.76v.64h1v-3.72a2,2,0,0,0-2.25-2.24,3.92,3.92,0,0,0-1.68.4Zm-1.68,2.93a3.37,3.37,0,0,1-2.15.74,3.18,3.18,0,0,1,0-6.36,3.31,3.31,0,0,1,2.15.76v-1.22a4.28,4.28,0,0,0-2.15-.56,4.2,4.2,0,0,0,0,8.4,4.28,4.28,0,0,0,2.15-.56Z" transform="translate(-16.55 -24.51)"/><path class="cls-3" d="M230.72,96.6l-.21.36,1.14.66-1.14.66.22.36,1.14-.65v1.29h.42V98l1.13.65.21-.36-1.14-.65,1.14-.66-.21-.37-1.13.66V95.93h-.42v1.32Zm-4.49,0L226,97l1.14.66-1.14.66.21.36,1.14-.65v1.29h.42V98l1.13.65.21-.36L228,97.62l1.14-.66-.21-.37-1.13.66V95.93h-.42v1.32Zm-3.4,4.54a1.42,1.42,0,1,1-1.42-1.43A1.4,1.4,0,0,1,222.83,101.14Zm.1-2.91V99a2.27,2.27,0,0,0-1.9-.92,3,3,0,0,0,0,6,2.36,2.36,0,0,0,1.88-.87v.41a1.52,1.52,0,0,1-1.68,1.55,4,4,0,0,1-2-.6v1.69a4.52,4.52,0,0,0,2,.45,3,3,0,0,0,3.32-3.3V98.23Zm-13,0h-1.63v6H210v-3.52a1,1,0,1,1,2,.09v3.43h1.63v-3.43a1,1,0,0,1,1-1.07.94.94,0,0,1,1,1.07v3.43h1.63v-3.9a2.07,2.07,0,0,0-2-2.2,1.84,1.84,0,0,0-1.76,1.08,2,2,0,0,0-1.84-1.08,1.75,1.75,0,0,0-1.52.83Zm-2.65-.73V96.05h-4.69v1.64h2.8l-2.62,6.52h1.94Zm-10.5,6.71H202v-1.64h-1.6V96.05h-3.25v1.64h1.55v4.88h-1.86Zm-2.62-.53a.64.64,0,0,0,1.28,0,.64.64,0,1,0-1.28,0m-2.46,0a.64.64,0,0,0,1.28,0,.64.64,0,0,0-1.28,0m-2.46,0a.64.64,0,0,0,1.28,0,.64.64,0,0,0-1.28,0m-2.46,0a.64.64,0,0,0,1.28,0,.64.64,0,1,0-1.28,0m-2.46,0a.64.64,0,0,0,1.28,0,.64.64,0,1,0-1.28,0m-2.46,0a.64.64,0,0,0,1.28,0,.64.64,0,0,0-1.28,0m-2.46,0a.64.64,0,0,0,1.28,0,.64.64,0,1,0-1.28,0m-2.46,0a.64.64,0,0,0,1.28,0,.64.64,0,1,0-1.28,0m-2.46,0a.64.64,0,0,0,1.28,0,.64.64,0,0,0-1.28,0m-2.46,0a.64.64,0,0,0,1.28,0,.64.64,0,0,0-1.28,0m-2.46,0a.64.64,0,0,0,1.28,0,.64.64,0,1,0-1.28,0m-2.46,0a.64.64,0,0,0,1.28,0,.64.64,0,1,0-1.28,0m-2.46,0a.64.64,0,0,0,1.28,0,.64.64,0,0,0-1.28,0m-3.37.53V99.62h1V98.23h-1V96.58l-1.53.35v1.3h-1v1.39h.91v4.59ZM158,102.33a2.3,2.3,0,0,1-1.32.42,1.49,1.49,0,0,1-1.5-1.53,1.48,1.48,0,0,1,1.5-1.51,2.32,2.32,0,0,1,1.32.41V98.39a3.47,3.47,0,0,0-1.32-.28,3.12,3.12,0,1,0,0,6.23,3.26,3.26,0,0,0,1.32-.29Zm-8.84.07a.8.8,0,0,1,.85-.75.78.78,0,0,1,.82.75.77.77,0,0,1-.82.74.79.79,0,0,1-.85-.74Zm-.94-2.39a3,3,0,0,1,1.53-.45,1,1,0,0,1,1.11,1v.32a2.16,2.16,0,0,0-1.31-.43,1.88,1.88,0,0,0-2,1.92,1.84,1.84,0,0,0,2,1.94,1.74,1.74,0,0,0,1.33-.57v.44h1.63v-3.59a2.24,2.24,0,0,0-2.54-2.51,4.82,4.82,0,0,0-1.73.35Zm-2.91-1.78h-1.63v6h1.63v-3.47a1,1,0,0,1,1-1,2,2,0,0,1,.88.18V98.15a3.89,3.89,0,0,0-.47,0,1.63,1.63,0,0,0-1.42.77Zm-3.54,6V99.62h1V98.23h-1V96.58l-1.53.35v1.3h-1v1.39h.91v4.59Zm-5.83-1.78,1.06,1.78h1.91l-2-3,2-3H137L135.93,100l-1.07-1.77H133l2,3-2,3h1.89Zm-3.72,1.78v-1.64h-2.94v-1.65H132V99.28h-2.7V97.69h2.94V96.05h-4.64v8.16Zm-13.26-3a1.49,1.49,0,1,1,1.5,1.51,1.49,1.49,0,0,1-1.5-1.51Zm0-3h-1.63v8.44H119v-3.23a2.21,2.21,0,0,0,1.83.9,3.13,3.13,0,0,0,0-6.23,2.05,2.05,0,0,0-1.84,1Zm-10.17,0h-1.64v6h1.64v-3.52a1,1,0,1,1,2,.09v3.43h1.63v-3.43a1,1,0,0,1,1-1.07.94.94,0,0,1,1,1.07v3.43H116v-3.9a2.08,2.08,0,0,0-2-2.2,1.83,1.83,0,0,0-1.76,1.08,2,2,0,0,0-1.84-1.08,1.74,1.74,0,0,0-1.52.83Zm-5.48,1.24a1.13,1.13,0,0,1,1.24,1H102a1.29,1.29,0,0,1,1.34-1m2.72,2.27a4.52,4.52,0,0,0,.09-.78,2.73,2.73,0,0,0-2.79-2.85,3.12,3.12,0,0,0,.09,6.23,4.73,4.73,0,0,0,2.16-.47V102.3a3.83,3.83,0,0,1-2,.57,1.49,1.49,0,0,1-1.58-1.13Zm-8.57,2.47h1.7V96.05h-1.7v3.23H93.72V96.05H92v8.16h1.71v-3.29h3.73Zm-16.84-6H79v6h1.63v-3.52a1,1,0,1,1,2,.09v3.43H84.2v-3.43a1,1,0,0,1,1-1.07,1,1,0,0,1,1,1.07v3.43h1.63v-3.9a2.08,2.08,0,0,0-2.05-2.2A1.86,1.86,0,0,0,84,99.19a1.92,1.92,0,0,0-1.83-1.08,1.76,1.76,0,0,0-1.53.83Zm-4.71,6h1.63v-6H75.9v3.48a1,1,0,1,1-2-.08v-3.4H72.24v3.87a2.07,2.07,0,0,0,2.08,2.24,1.74,1.74,0,0,0,1.58-.87Zm-6.44-6H67.83v6h1.63v-3.47a1,1,0,0,1,1-1,2,2,0,0,1,.88.18V98.15a3.73,3.73,0,0,0-.47,0,1.63,1.63,0,0,0-1.42.77Zm-3.54,6V99.62h1V98.23h-1V96.58l-1.53.35v1.3h-1v1.39h.91v4.59Zm-3.32-1.88a2.3,2.3,0,0,1-1.32.42,1.49,1.49,0,0,1-1.5-1.53,1.48,1.48,0,0,1,1.5-1.51,2.3,2.3,0,0,1,1.32.41V98.39a3.43,3.43,0,0,0-1.32-.28,3.12,3.12,0,1,0,0,6.23,3.23,3.23,0,0,0,1.32-.29Zm-8-2.86a1.13,1.13,0,0,1,1.24,1H53.28a1.29,1.29,0,0,1,1.34-1m2.71,2.27a3.69,3.69,0,0,0,.1-.78,2.73,2.73,0,0,0-2.8-2.85,3.12,3.12,0,0,0,.1,6.23,4.77,4.77,0,0,0,2.16-.47V102.3a3.83,3.83,0,0,1-2,.57,1.49,1.49,0,0,1-1.58-1.13Zm-11.11-.52a1.49,1.49,0,1,1,1.5,1.51,1.49,1.49,0,0,1-1.5-1.51Zm0-3H44.59v8.44h1.63v-3.23a2.19,2.19,0,0,0,1.83.9,3.13,3.13,0,0,0,0-6.23,2,2,0,0,0-1.84,1ZM43.09,96.3a4.35,4.35,0,0,0-1.75-.37c-2.11,0-2.85,1.23-2.85,2.37a2.36,2.36,0,0,0,1.42,2.24l1.12.66c.45.26.64.52.64.79,0,.44-.36.76-1,.76a3.53,3.53,0,0,1-2-.71v1.88a5.45,5.45,0,0,0,2.07.42,2.43,2.43,0,0,0,2.74-2.44A2.53,2.53,0,0,0,42,99.64L40.93,99c-.4-.23-.61-.48-.61-.74,0-.42.32-.74,1-.74a3.36,3.36,0,0,1,1.76.59Zm-8.47-.37H33v8.28h1.65Zm-3.08,0H29.9v8.28h1.64Zm-4.72,8.28h1.63v-6H26.82v3.48a1,1,0,1,1-2-.08v-3.4H23.16v3.87a2.08,2.08,0,0,0,2.08,2.24,1.74,1.74,0,0,0,1.58-.87Zm-5-2.94V99.63h-2.7V97.69h2.94V96.05H17.45v8.16h1.7v-2.94Z" transform="translate(-16.55 -24.51)"/><path class="cls-3" d="M120.81,84.53H122V82.9h-1.2Zm0,4.68H122V87.57H120.8Zm-4.06.12a1.93,1.93,0,0,0,2.18-2V84.7h-2.3v1h1v1.55a.8.8,0,0,1-.89.89.88.88,0,0,1-.93-1V82.66a.89.89,0,0,1,.93-1,.85.85,0,0,1,.94.87v.8h1.22V82.4a1.94,1.94,0,0,0-2.17-1.89,2.07,2.07,0,0,0-2.28,2.1v4.63a2,2,0,0,0,2.29,2.09m-8.9-.12H109V83.37h0l2.17,5.84h1.23V80.65h-1.19V86h0l-2-5.31h-1.39Zm-3.46,0h1.35V80.65h-1.35Zm-4.7.05h1.4l1.64-8.61H101.5l-1,6.1h0l-1-6.1H98ZM93.6,84.64V81.78h.72c.68,0,.93.6.93,1.43s-.32,1.43-.91,1.43Zm-1.35,4.57H93.6V85.64h.7l1,3.57h1.39l-1.17-3.87c.66-.27,1.08-1,1.08-2.24,0-1.62-.78-2.45-2.18-2.45H92.25Zm-5.67,0h3.75V88.06H87.91V85.34h1.93V84.21H87.91V81.78h2.41V80.65H86.58Zm-4,.12a2,2,0,0,0,2.08-2.16,3.37,3.37,0,0,0-1.17-2.42l-.83-.87c-.42-.46-.86-.91-.86-1.4s.26-.89.75-.89.76.45.84,1.17l1.19,0c-.08-1.68-1-2.22-2-2.22a1.92,1.92,0,0,0-2.05,2.06,3.12,3.12,0,0,0,1.13,2.25l.9,1a2.13,2.13,0,0,1,.78,1.45c0,.48-.19,1-.78,1s-.85-.6-.91-1.25l-1.25,0c.08,1.45.85,2.3,2.15,2.3m-9.56-4.69V81.78h.72c.69,0,.94.6.94,1.43s-.32,1.43-.91,1.43Zm-1.34,4.57h1.34V85.64h.71l1,3.57h1.39L75,85.34c.65-.27,1.07-1,1.07-2.24,0-1.62-.78-2.45-2.17-2.45H71.72Zm-5.67,0H69.8V88.06H67.38V85.34h1.93V84.21H67.38V81.78h2.41V80.65H66.05Zm-4.88-4.39v-3h.7c.67,0,.91.54.91,1.44,0,1.06-.31,1.6-1,1.6Zm-1.34,4.39h1.34V85.92H62c1.45,0,2.1-1,2.1-2.72s-.62-2.55-2-2.55H59.83Zm-7.34,0h1.34V81.79h1.61V80.65H50.85v1.14h1.64Zm-8,0h1.18V83.37h0l2.17,5.84h1.22V80.65H47.93V86h0l-2-5.31H44.51Zm-4.34.13a2.08,2.08,0,0,0,2.26-2.18V80.65H41.15v6.51c0,.59-.28,1-.89,1a.88.88,0,0,1-.92-1v-6.5H38v6.57a2,2,0,0,0,2.18,2.12m-6.43-1.2a.88.88,0,0,1-.92-1V82.63a.93.93,0,1,1,1.85,0v4.56a.88.88,0,0,1-.93,1m0,1.19A2.1,2.1,0,0,0,36,87.11V82.63a2,2,0,0,0-2.28-2.11,2.09,2.09,0,0,0-2.29,2.18v4.45a2,2,0,0,0,2.28,2.18m-9.85-.12h1.18v-6.4h0l1.1,3.59h.93l1.1-3.59h0v6.4h1.18V80.65H27.84L26.7,84.2h0l-1.11-3.55H23.88Zm-5.17-3.32.68-3.74h0l.66,3.74Zm-1.88,3.32h1.25L18.49,87H20.3l.43,2.23h1.35L20.4,80.63H18.57Z" transform="translate(-16.55 -24.51)"/><path class="cls-3" d="M230.73,54.93A2.68,2.68,0,0,0,228,57.69v2.87a2.76,2.76,0,1,0,5.51,0V57.69a2.67,2.67,0,0,0-2.76-2.76m0,1a1.67,1.67,0,0,1,1.73,1.79v2.8a1.73,1.73,0,1,1-3.45,0v-2.8a1.67,1.67,0,0,1,1.72-1.79m-8,3.5H224a1.41,1.41,0,0,1,1.49,1.43,1.46,1.46,0,0,1-1.58,1.43,2.7,2.7,0,0,1-1.71-.57v1.18a3.78,3.78,0,0,0,1.76.42,2.4,2.4,0,0,0,2.6-2.34,2.09,2.09,0,0,0-1.32-2.05,1.94,1.94,0,0,0,1.09-1.85,2.2,2.2,0,0,0-2.41-2.16,3.27,3.27,0,0,0-1.62.38v1.13a2.65,2.65,0,0,1,1.58-.48,1.25,1.25,0,1,1,.11,2.5h-1.19Zm-4,3.24a.64.64,0,0,0,1.28,0,.64.64,0,0,0-1.28,0m-2.46,0a.64.64,0,0,0,1.28,0,.64.64,0,0,0-1.28,0m-2.46,0a.64.64,0,0,0,1.28,0,.64.64,0,1,0-1.28,0m-2.46,0a.64.64,0,0,0,1.28,0,.64.64,0,1,0-1.28,0m-2.46,0a.64.64,0,0,0,1.28,0,.64.64,0,0,0-1.28,0m-2.46,0a.64.64,0,0,0,1.28,0,.64.64,0,0,0-1.28,0m-2.46,0a.64.64,0,0,0,1.28,0,.64.64,0,1,0-1.28,0m-2.46,0a.64.64,0,0,0,1.28,0,.64.64,0,0,0-1.28,0m-2.46,0a.64.64,0,0,0,1.28,0,.64.64,0,0,0-1.28,0m-2.46,0a.64.64,0,0,0,1.28,0,.64.64,0,1,0-1.28,0m-2.46,0a.64.64,0,0,0,1.28,0,.64.64,0,1,0-1.28,0m-2.46,0a.64.64,0,0,0,1.28,0,.64.64,0,1,0-1.28,0m-2.46,0a.64.64,0,0,0,1.28,0,.64.64,0,1,0-1.28,0m-2.46,0a.64.64,0,0,0,1.28,0,.64.64,0,0,0-1.28,0m-2.46,0a.64.64,0,0,0,1.28,0,.64.64,0,1,0-1.28,0m-2.46,0a.64.64,0,0,0,1.28,0,.64.64,0,1,0-1.28,0m-2.46,0a.64.64,0,0,0,1.28,0,.64.64,0,0,0-1.28,0m-2.46,0a.64.64,0,0,0,1.28,0,.64.64,0,0,0-1.28,0m-2.46,0a.64.64,0,0,0,1.28,0,.64.64,0,1,0-1.28,0m-2.46,0a.64.64,0,0,0,1.28,0,.64.64,0,1,0-1.28,0m-2.46,0a.64.64,0,0,0,1.28,0,.64.64,0,0,0-1.28,0m-2.46,0a.64.64,0,0,0,1.28,0,.64.64,0,0,0-1.28,0m-2.46,0a.64.64,0,0,0,1.28,0,.64.64,0,1,0-1.28,0m-2.46,0a.64.64,0,0,0,1.28,0,.64.64,0,0,0-1.28,0m-2.46,0a.64.64,0,0,0,1.28,0,.64.64,0,0,0-1.28,0m-2.46,0a.64.64,0,0,0,1.28,0,.64.64,0,1,0-1.28,0m-2.46,0a.64.64,0,0,0,1.28,0,.64.64,0,1,0-1.28,0m-2.46,0a.64.64,0,0,0,1.28,0,.64.64,0,0,0-1.28,0m-2.46,0a.64.64,0,0,0,1.28,0,.64.64,0,0,0-1.28,0m-2.46,0a.64.64,0,0,0,1.28,0,.64.64,0,1,0-1.28,0m-2.46,0a.64.64,0,0,0,1.28,0,.64.64,0,1,0-1.28,0m-2.46,0a.64.64,0,0,0,1.28,0,.64.64,0,0,0-1.28,0m-2.46,0a.64.64,0,0,0,1.28,0,.64.64,0,1,0-1.28,0m-2.46,0a.64.64,0,0,0,1.28,0,.64.64,0,1,0-1.28,0m-2.46,0a.64.64,0,0,0,1.28,0,.64.64,0,0,0-1.28,0m-2.95-5.31h-1v5.84h1V59.73c0-.9.46-1.5,1.3-1.5a2,2,0,0,1,.71.14V57.31a2.14,2.14,0,0,0-.5-.06,1.61,1.61,0,0,0-1.51.91Zm-5.12.74a1.76,1.76,0,0,1,1.85,1.75h-3.76a1.87,1.87,0,0,1,1.91-1.75m2.77,2.54a3.83,3.83,0,0,0,0-.54,2.76,2.76,0,0,0-2.82-2.86,3,3,0,0,0,.06,6.08,4.11,4.11,0,0,0,2.17-.61v-1a3.63,3.63,0,0,1-2.1.73,2,2,0,0,1-2-1.77Zm-11-3.28h-1v5.84h1V59.73a1.48,1.48,0,1,1,3,.07v3.41h1V59.56a2.15,2.15,0,0,0-2.2-2.31,1.87,1.87,0,0,0-1.75,1ZM115,55.53a.66.66,0,0,0,1.32,0,.66.66,0,1,0-1.32,0m1.15,1.84h-1v5.84h1Zm-6.29,4a1.23,1.23,0,0,1,1.28-1.15,1.24,1.24,0,0,1,1.29,1.15,1.29,1.29,0,0,1-2.57,0Zm-.36-2.74a3,3,0,0,1,1.58-.48,1.25,1.25,0,0,1,1.36,1.32v.67a2.06,2.06,0,0,0-1.52-.68,1.93,1.93,0,0,0-2,1.92,1.9,1.9,0,0,0,2,1.94,1.81,1.81,0,0,0,1.54-.76v.64h1V59.49a2,2,0,0,0-2.26-2.24,3.92,3.92,0,0,0-1.68.4Zm-2.39,4.57v-5h1.15v-.86h-1.15V55.69l-.94.25v1.43H105v.86h1.09v5Zm-7-5.84H99v5.84h1V59.73a1.41,1.41,0,0,1,1.47-1.5A1.44,1.44,0,0,1,103,59.8v3.41h1V59.56a2.15,2.15,0,0,0-2.2-2.31,1.87,1.87,0,0,0-1.75,1Zm-7.44,2.91a2,2,0,1,1,4,0,2,2,0,1,1-4,0m-1,0a3,3,0,1,0,3-3,3,3,0,0,0-3,3m-1,1.29a3.37,3.37,0,0,1-2.15.74,3.18,3.18,0,0,1,0-6.36,3.34,3.34,0,0,1,2.15.75V55.49a4.25,4.25,0,0,0-2.15-.56,4.2,4.2,0,0,0,0,8.4,4.35,4.35,0,0,0,2.15-.56ZM78.7,57.37h-1v5.84h1V59.73c0-.9.46-1.5,1.3-1.5a1.91,1.91,0,0,1,.71.14V57.31a2.12,2.12,0,0,0-.49-.06,1.61,1.61,0,0,0-1.52.91Zm-5.12.74a1.76,1.76,0,0,1,1.85,1.75H71.67a1.88,1.88,0,0,1,1.91-1.75m2.77,2.54a2.87,2.87,0,0,0-2.77-3.4,3,3,0,0,0,.06,6.08,4.11,4.11,0,0,0,2.17-.61v-1a3.63,3.63,0,0,1-2.1.73,2,2,0,0,1-2-1.77Zm-7.46-3.14A1.35,1.35,0,0,1,67.39,59H66V56h1.37a1.38,1.38,0,0,1,1.5,1.48M65,63.21h1V59.94h1.37a2.45,2.45,0,1,0,0-4.89H65Zm-4.83-5.66a3.05,3.05,0,0,0-1.34-.3c-1.28,0-2,.69-2,1.6a1.57,1.57,0,0,0,.86,1.41l1.09.65c.44.26.6.49.6.79s-.36.75-1,.75a2.32,2.32,0,0,1-1.47-.55V63a3.5,3.5,0,0,0,1.51.35c1.24,0,2-.64,2-1.63a1.68,1.68,0,0,0-1-1.51l-1-.62c-.35-.21-.52-.38-.52-.69s.33-.75.95-.75a2.26,2.26,0,0,1,1.33.47Zm-5.87,2.66a2,2,0,1,1-2-2,1.93,1.93,0,0,1,2,2Zm0-2.84v1.15a2.42,2.42,0,0,0-2.19-1.27,3,3,0,0,0,0,5.91,2.46,2.46,0,0,0,2.19-1.22v1a1.91,1.91,0,0,1-2,2,3.85,3.85,0,0,1-2.07-.63v1.08a4.39,4.39,0,0,0,2,.5,2.82,2.82,0,0,0,3-3v-5.4ZM44,57.37H43v5.84h1V59.73a1.48,1.48,0,1,1,3,.07v3.41h1V59.56a2.15,2.15,0,0,0-2.2-2.31,1.87,1.87,0,0,0-1.75,1Zm-3.92-1.84a.66.66,0,0,0,1.32,0,.66.66,0,1,0-1.32,0m1.15,1.84h-1v5.84h1Zm-7.82,0,2.32,5.84h1.06l2.34-5.84H38.07L36.26,62l-1.8-4.62Zm-2.49,0h-1v5.84h1V59.73c0-.9.46-1.5,1.3-1.5a1.85,1.85,0,0,1,.7.14V57.31a2,2,0,0,0-.49-.06,1.61,1.61,0,0,0-1.51.91Zm-5.12.74a1.76,1.76,0,0,1,1.85,1.75H23.89a1.87,1.87,0,0,1,1.91-1.75m2.77,2.54a3.83,3.83,0,0,0,.05-.54,2.76,2.76,0,0,0-2.82-2.86,3,3,0,0,0,.06,6.08A4.11,4.11,0,0,0,28,62.72v-1a3.65,3.65,0,0,1-2.1.73,2,2,0,0,1-2-1.77Zm-7.12-5.28a3.53,3.53,0,0,0-1.75-.44c-1.85,0-2.55,1.09-2.55,2.13a2.2,2.2,0,0,0,1.27,2l1.4.89c.6.37.89.77.89,1.2,0,.63-.53,1.2-1.51,1.2a3.14,3.14,0,0,1-2-.73v1.21a4.44,4.44,0,0,0,2,.49,2.28,2.28,0,0,0,2.58-2.22A2.35,2.35,0,0,0,20.42,59L19,58.12A1.28,1.28,0,0,1,18.25,57c0-.68.54-1.14,1.43-1.14a3,3,0,0,1,1.77.64Z" transform="translate(-16.55 -24.51)"/><path class="cls-3" d="M233.39,39.93h-1v8.28h1Zm-10.06,2.44h-1v5.84h1V44.59a1.34,1.34,0,1,1,2.67.08v3.54h1V44.67a1.34,1.34,0,1,1,2.67,0v3.54h1V44.43a2,2,0,0,0-2-2.18,1.77,1.77,0,0,0-1.79,1.21A1.93,1.93,0,0,0,225,42.25a1.76,1.76,0,0,0-1.62.92Zm-7,5.84h4.83v-1h-1.74V40.05h-2.87v1h1.83v6.2h-2Zm-2.46-.53a.64.64,0,0,0,1.28,0,.64.64,0,1,0-1.28,0m-2.46,0a.64.64,0,0,0,1.28,0,.64.64,0,1,0-1.28,0m-2.46,0a.64.64,0,0,0,1.28,0,.64.64,0,0,0-1.28,0m-2.46,0a.64.64,0,0,0,1.28,0,.64.64,0,1,0-1.28,0m-2.46,0a.64.64,0,0,0,1.28,0,.64.64,0,0,0-1.28,0m-2.46,0a.64.64,0,0,0,1.28,0,.64.64,0,1,0-1.28,0m-2.46,0a.64.64,0,0,0,1.28,0,.64.64,0,1,0-1.28,0m-2.46,0a.64.64,0,0,0,1.28,0,.64.64,0,0,0-1.28,0m-2.46,0a.64.64,0,0,0,1.28,0,.64.64,0,0,0-1.28,0m-2.46,0a.64.64,0,0,0,1.28,0,.64.64,0,1,0-1.28,0m-2.46,0a.64.64,0,0,0,1.28,0,.64.64,0,1,0-1.28,0m-2.46,0a.64.64,0,0,0,1.28,0,.64.64,0,0,0-1.28,0m-2.46,0a.64.64,0,0,0,1.28,0,.64.64,0,1,0-1.28,0m-2.46,0a.64.64,0,0,0,1.28,0,.64.64,0,1,0-1.28,0m-2.46,0a.64.64,0,0,0,1.28,0,.64.64,0,0,0-1.28,0m-2.46,0a.64.64,0,0,0,1.28,0,.64.64,0,0,0-1.28,0m-2.46,0a.64.64,0,0,0,1.28,0,.64.64,0,1,0-1.28,0m-2.46,0a.64.64,0,0,0,1.28,0,.64.64,0,1,0-1.28,0m-2.46,0a.64.64,0,0,0,1.28,0,.64.64,0,0,0-1.28,0m-2.46,0a.64.64,0,0,0,1.28,0,.64.64,0,0,0-1.28,0m-2.46,0a.64.64,0,0,0,1.28,0,.64.64,0,1,0-1.28,0m-2.46,0a.64.64,0,0,0,1.28,0,.64.64,0,0,0-1.28,0m-2.46,0a.64.64,0,0,0,1.28,0,.64.64,0,0,0-1.28,0m-2.46,0a.64.64,0,0,0,1.28,0,.64.64,0,1,0-1.28,0m-2.46,0a.64.64,0,0,0,1.28,0,.64.64,0,1,0-1.28,0m-2.46,0a.64.64,0,0,0,1.28,0,.64.64,0,0,0-1.28,0m-2.46,0a.64.64,0,0,0,1.28,0,.64.64,0,0,0-1.28,0m-2.46,0a.64.64,0,0,0,1.28,0,.64.64,0,1,0-1.28,0m-2.46,0a.64.64,0,0,0,1.28,0,.64.64,0,1,0-1.28,0m-2.46,0a.64.64,0,0,0,1.28,0,.64.64,0,0,0-1.28,0m-2.46,0a.64.64,0,0,0,1.28,0,.64.64,0,1,0-1.28,0m-2.46,0a.64.64,0,0,0,1.28,0,.64.64,0,1,0-1.28,0m-2.46,0a.64.64,0,0,0,1.28,0,.64.64,0,0,0-1.28,0m-2.46,0a.64.64,0,0,0,1.28,0,.64.64,0,0,0-1.28,0m-2.46,0a.64.64,0,0,0,1.28,0,.64.64,0,1,0-1.28,0m-2.46,0a.64.64,0,0,0,1.28,0,.64.64,0,1,0-1.28,0m-2.46,0a.64.64,0,0,0,1.28,0,.64.64,0,0,0-1.28,0m-2.46,0a.64.64,0,0,0,1.28,0,.64.64,0,0,0-1.28,0m-2.46,0a.64.64,0,0,0,1.28,0,.64.64,0,0,0-1.28,0m-2.46,0a.64.64,0,0,0,1.28,0,.64.64,0,0,0-1.28,0m-2.46,0a.64.64,0,0,0,1.28,0,.64.64,0,0,0-1.28,0m-2.46,0a.64.64,0,0,0,1.28,0,.64.64,0,1,0-1.28,0m-2.46,0a.64.64,0,0,0,1.28,0,.64.64,0,0,0-1.28,0m-2.46,0a.64.64,0,0,0,1.28,0,.64.64,0,0,0-1.28,0m-2.46,0a.64.64,0,0,0,1.28,0,.64.64,0,1,0-1.28,0m-2.46,0a.64.64,0,0,0,1.28,0,.64.64,0,0,0-1.28,0m-2.46,0a.64.64,0,0,0,1.28,0,.64.64,0,0,0-1.28,0m-2.46,0a.64.64,0,0,0,1.28,0,.64.64,0,1,0-1.28,0m-2.46,0a.64.64,0,0,0,1.28,0,.64.64,0,0,0-1.28,0m-2.46,0a.64.64,0,0,0,1.28,0,.64.64,0,0,0-1.28,0m-2.46,0a.64.64,0,0,0,1.28,0,.64.64,0,0,0-1.28,0m-2.46,0a.64.64,0,0,0,1.28,0,.64.64,0,0,0-1.28,0m-2.46,0a.64.64,0,0,0,1.28,0,.64.64,0,1,0-1.28,0m-2.46,0a.64.64,0,0,0,1.28,0,.64.64,0,0,0-1.28,0m-2.46,0a.64.64,0,0,0,1.28,0,.64.64,0,0,0-1.28,0m-5-4.57a1.76,1.76,0,0,1,1.85,1.75H74.11A1.87,1.87,0,0,1,76,43.11m2.77,2.54a3.83,3.83,0,0,0,0-.54A2.76,2.76,0,0,0,76,42.25a3,3,0,0,0,.06,6.08,4.11,4.11,0,0,0,2.17-.61v-1a3.65,3.65,0,0,1-2.1.73,2,2,0,0,1-2-1.77ZM72.15,43.2v-.83H68.42v.86h2.52L68.3,47.37v.84h3.85v-.86H69.48Zm-6.37-2.67a.66.66,0,0,0,1.32,0,.66.66,0,1,0-1.32,0m1.15,1.84h-1v5.84h1Zm-2.79-2a3.55,3.55,0,0,0-1.75-.44c-1.85,0-2.56,1.09-2.56,2.13a2.22,2.22,0,0,0,1.27,2l1.41.89c.6.37.88.77.88,1.2,0,.63-.52,1.2-1.51,1.2a3.14,3.14,0,0,1-2-.73v1.21a4.49,4.49,0,0,0,2,.49,2.28,2.28,0,0,0,2.57-2.22A2.36,2.36,0,0,0,63.11,44l-1.42-.89A1.28,1.28,0,0,1,60.93,42c0-.68.54-1.14,1.43-1.14a3,3,0,0,1,1.78.64Zm-9.85,4.84a2,2,0,1,1-2-2,1.93,1.93,0,0,1,2,2Zm0-2.84v1.15a2.42,2.42,0,0,0-2.19-1.27,3,3,0,0,0,0,5.91,2.46,2.46,0,0,0,2.19-1.22v1a1.91,1.91,0,0,1-2,2,3.85,3.85,0,0,1-2.07-.63v1.08a4.39,4.39,0,0,0,2,.5,2.82,2.82,0,0,0,3-3v-5.4ZM44,42.37H43v5.84h1V44.73a1.48,1.48,0,1,1,3,.07v3.41h1V44.56a2.15,2.15,0,0,0-2.2-2.31,1.87,1.87,0,0,0-1.75,1Zm-3.92-1.84a.66.66,0,0,0,1.32,0,.66.66,0,1,0-1.32,0m1.15,1.84h-1v5.84h1Zm-7.82,0,2.32,5.84h1.06l2.34-5.84H38.07L36.26,47l-1.8-4.62Zm-2.49,0h-1v5.84h1V44.73c0-.9.46-1.5,1.3-1.5a1.85,1.85,0,0,1,.7.14V42.31a2,2,0,0,0-.49-.06,1.61,1.61,0,0,0-1.51.91Zm-5.12.74a1.76,1.76,0,0,1,1.85,1.75H23.89a1.87,1.87,0,0,1,1.91-1.75m2.77,2.54a3.83,3.83,0,0,0,.05-.54,2.76,2.76,0,0,0-2.82-2.86,3,3,0,0,0,.06,6.08A4.11,4.11,0,0,0,28,47.72v-1a3.65,3.65,0,0,1-2.1.73,2,2,0,0,1-2-1.77Zm-7.12-5.28a3.53,3.53,0,0,0-1.75-.44c-1.85,0-2.55,1.09-2.55,2.13a2.2,2.2,0,0,0,1.27,2l1.4.89c.6.37.89.77.89,1.2,0,.63-.53,1.2-1.51,1.2a3.14,3.14,0,0,1-2-.73v1.21a4.44,4.44,0,0,0,2,.49,2.28,2.28,0,0,0,2.58-2.22A2.35,2.35,0,0,0,20.42,44L19,43.12A1.28,1.28,0,0,1,18.25,42c0-.68.54-1.14,1.43-1.14a3,3,0,0,1,1.77.64Z" transform="translate(-16.55 -24.51)"/><path class="cls-3" d="M111.16,28.53h1.2V26.9h-1.2Zm0,4.68h1.21V31.57h-1.21Zm-3.84.12a2,2,0,0,0,2.09-2.16,3.37,3.37,0,0,0-1.17-2.42l-.83-.87c-.42-.46-.87-.91-.87-1.4s.27-.89.76-.89.76.45.84,1.17l1.19,0c-.09-1.68-.95-2.22-2-2.22a1.92,1.92,0,0,0-2,2.06,3.14,3.14,0,0,0,1.12,2.25l.9,1a2.11,2.11,0,0,1,.79,1.45c0,.48-.2,1-.79,1s-.85-.6-.91-1.25l-1.24,0c.08,1.45.85,2.3,2.14,2.3m-6.45-.12h1.34V25.79h1.61V24.65H99.23v1.14h1.63Zm-5.18.12a2,2,0,0,0,2.12-2v-.88H96.58v.81a.82.82,0,0,1-.88.88.87.87,0,0,1-.94-1V26.64a.86.86,0,0,1,.92-1,.83.83,0,0,1,.9.9v.81H97.8v-.95a1.91,1.91,0,0,0-2.12-1.91A2.06,2.06,0,0,0,93.4,26.6v4.65a2,2,0,0,0,2.28,2.08m-7.22-3.44.68-3.74h0l.66,3.74Zm-1.87,3.32h1.25l.4-2.23h1.82l.43,2.23h1.34l-1.68-8.58H88.33Zm-4.75,0h1.33V29.39h1.92V28.24H83.17V25.78h2.41V24.65H81.84Zm-7.35,0h1.35V25.79h1.6V24.65H72.86v1.14h1.63Zm-8,0H67.7V27.37h0l2.18,5.84h1.22V24.65H69.93V30h0l-2-5.31H66.51Zm-5.67,0h3.75V32.06H62.17V29.34H64.1V28.21H62.17V25.78h2.41V24.65H60.84Zm-7.68,0h1.18v-6.4h0l1.1,3.59h.93l1.1-3.59h0v6.4h1.18V24.65H57.12L56,28.2h0l-1.12-3.55H53.16Zm-5.68,0h3.76V32.06H48.81V29.34h1.93V28.21H48.81V25.78h2.41V24.65H47.48Zm-5.55,0h3.75V32.06H43.26V24.65H41.93Zm-4.88-4.39v-3h.7c.67,0,.91.54.91,1.44,0,1.06-.31,1.6-1,1.6Zm-1.34,4.39h1.34V29.92h.83c1.45,0,2.1-1.05,2.1-2.72s-.62-2.55-2-2.55H35.71Zm-4.87-4.39v-3h.69c.68,0,.92.54.92,1.44,0,1.06-.32,1.6-1,1.6Zm-1.35,4.39h1.35V29.92h.83c1.45,0,2.09-1.05,2.09-2.72s-.62-2.55-2-2.55H29.49Zm-4.33.13a2.08,2.08,0,0,0,2.26-2.18V24.65H26.13v6.51c0,.59-.27,1-.88,1a.88.88,0,0,1-.92-1v-6.5H23v6.57a1.94,1.94,0,0,0,2.18,2.12m-6.09,0a2,2,0,0,0,2.08-2.16A3.37,3.37,0,0,0,20,28.75l-.83-.87c-.42-.46-.87-.91-.87-1.4s.27-.89.76-.89.76.45.84,1.17l1.19,0c-.09-1.68-.95-2.22-2-2.22a1.92,1.92,0,0,0-2.05,2.06,3.12,3.12,0,0,0,1.13,2.25l.9,1a2.13,2.13,0,0,1,.78,1.45c0,.48-.19,1-.78,1s-.86-.6-.92-1.25l-1.24,0c.08,1.45.85,2.3,2.15,2.3" transform="translate(-16.55 -24.51)"/></g><polygon class="cls-3" points="108.3 144.97 106.45 144.97 106.45 143.13 104.57 143.13 104.57 144.97 102.73 144.97 102.73 146.85 104.58 146.85 104.58 148.7 106.46 148.7 106.46 146.85 108.3 146.85 108.3 144.97"/><polygon class="cls-3" points="149.41 174.97 147.56 174.97 147.56 173.13 145.68 173.13 145.68 174.97 143.84 174.97 143.84 176.85 145.69 176.85 145.69 178.7 147.57 178.7 147.57 176.85 149.41 176.85 149.41 174.97"/><polygon class="cls-3" points="62.73 189.97 60.89 189.97 60.89 188.13 59.01 188.13 59.01 189.97 57.17 189.97 57.17 191.85 59.02 191.85 59.02 193.7 60.89 193.7 60.89 191.85 62.73 191.85 62.73 189.97"/><polygon class="cls-3" points="150.18 215.97 148.33 215.97 148.33 214.13 146.45 214.13 146.45 215.97 144.61 215.97 144.61 217.85 146.46 217.85 146.46 219.7 148.34 219.7 148.34 217.85 150.18 217.85 150.18 215.97"/><polygon class="cls-3" points="41.61 231.97 39.77 231.97 39.77 230.13 37.89 230.13 37.89 231.97 36.05 231.97 36.05 233.85 37.9 233.85 37.9 235.7 39.77 235.7 39.77 233.85 41.61 233.85 41.61 231.97"/><polygon class="cls-3" points="167.96 231.97 166.11 231.97 166.11 230.13 164.23 230.13 164.23 231.97 162.39 231.97 162.39 233.85 164.24 233.85 164.24 235.7 166.12 235.7 166.12 233.85 167.96 233.85 167.96 231.97"/><g class="cls-2"><line class="cls-4" y1="47.7" x2="217.81" y2="47.7"/><line class="cls-5" y1="118.4" x2="217.81" y2="118.4"/><line class="cls-5" y1="203.4" x2="217.81" y2="203.4"/><line class="cls-5" y1="245.4" x2="217.81" y2="245.4"/></g><polygon class="cls-3" points="1.84 255.13 1.84 256.97 0 256.97 0 258.85 1.85 258.85 1.85 260.7 3.73 260.7 3.73 258.85 5.57 258.85 5.57 256.97 3.72 256.97 3.72 255.13 1.84 255.13"/><g class="cls-2"><path class="cls-3" d="M235.86,191.77l.6-2.88h-1.14l-.37,2.88Zm-9.14-2.56v-5h1.15v-.86h-1.15v-1.68l-.95.25v1.43h-1.14v.86h1.09v5Zm-7.55-2.93a2,2,0,1,1,2,2.08,2,2,0,0,1-2-2.08m-1,0a3,3,0,1,0,3-3,3,3,0,0,0-3,3m-5.82,0a2,2,0,1,1,4,0,2,2,0,1,1-4,0m-1,0a3,3,0,1,0,3-3,3,3,0,0,0-3,3m-2.06-2.84a1.36,1.36,0,0,1-1.51,1.38h-1.38V182h1.38a1.38,1.38,0,0,1,1.51,1.41m-3.92,5.77h1V185.8h.86c1.06,0,2.09,1.38,2.46,3.41h1.06c-.3-1.93-1.14-3.33-2.11-3.78a2,2,0,0,0,1.68-2.09,2.28,2.28,0,0,0-2.57-2.29h-2.41ZM197,183.37h-1v5.84h1v-3.48a1.42,1.42,0,0,1,1.48-1.5,1.44,1.44,0,0,1,1.48,1.57v3.41h1v-3.65a2.15,2.15,0,0,0-2.2-2.31,1.88,1.88,0,0,0-1.75,1Zm-6.05,4a1.29,1.29,0,1,1,1.29,1.18,1.23,1.23,0,0,1-1.29-1.18Zm-.36-2.74a3,3,0,0,1,1.59-.48,1.25,1.25,0,0,1,1.36,1.32v.67a2.06,2.06,0,0,0-1.53-.68,1.93,1.93,0,0,0-2,1.92,1.91,1.91,0,0,0,2,1.94,1.84,1.84,0,0,0,1.54-.76v.64h1v-3.72a2,2,0,0,0-2.26-2.24,4,4,0,0,0-1.68.4Zm-2.85-3.11a.66.66,0,0,0,1.32,0,.66.66,0,1,0-1.32,0m1.15,1.84h-1v5.84h1Zm-3.9,0h-1v5.84h1v-3.48c0-.9.46-1.5,1.3-1.5a1.85,1.85,0,0,1,.7.14v-1.06a2,2,0,0,0-.49-.06,1.61,1.61,0,0,0-1.51.91Zm-4.88.74a1.76,1.76,0,0,1,1.85,1.75h-3.76a1.87,1.87,0,0,1,1.91-1.75m2.77,2.54a3.83,3.83,0,0,0,.05-.54,2.76,2.76,0,0,0-2.82-2.86,3,3,0,0,0,.06,6.08,4.11,4.11,0,0,0,2.17-.61v-1a3.65,3.65,0,0,1-2.1.73,2,2,0,0,1-2-1.77ZM176,180.93h-1v8.28h1Zm-6.06,6.45a1.29,1.29,0,1,1,1.29,1.18,1.23,1.23,0,0,1-1.29-1.18Zm-.36-2.74a3,3,0,0,1,1.59-.48,1.24,1.24,0,0,1,1.35,1.32v.67a2,2,0,0,0-1.52-.68,1.93,1.93,0,0,0-2.05,1.92,1.91,1.91,0,0,0,2,1.94,1.8,1.8,0,0,0,1.53-.76v.64h1v-3.72a2,2,0,0,0-2.26-2.24,3.92,3.92,0,0,0-1.68.4Zm-4.63,4.57h1.16l3.08-8.16H168L165.5,188,163,181.05h-1.16Zm-6.56,2.56.6-2.88h-1.14l-.37,2.88Zm-9.15-2.56v-5h1.16v-.86h-1.16v-1.68l-.94.25v1.43h-1.14v.86h1.09v5Zm-7.54-2.93a2,2,0,1,1,4,0,2,2,0,1,1-4,0m-1,0a3,3,0,1,0,3-3,3,3,0,0,0-3,3m-5.83,0a2,2,0,1,1,4,0,2,2,0,1,1-4,0m-1,0a3,3,0,1,0,3-3,3,3,0,0,0-3,3m-2.06-2.84a1.36,1.36,0,0,1-1.5,1.38h-1.38V182h1.38a1.38,1.38,0,0,1,1.5,1.41m-3.91,5.77h1V185.8h.85c1.07,0,2.09,1.38,2.46,3.41h1.07c-.3-1.93-1.14-3.33-2.11-3.78a2,2,0,0,0,1.68-2.09,2.28,2.28,0,0,0-2.57-2.29h-2.41ZM120,187.38a1.22,1.22,0,0,1,1.28-1.15,1.24,1.24,0,0,1,1.29,1.15,1.29,1.29,0,0,1-2.57,0Zm-.36-2.74a3,3,0,0,1,1.58-.48,1.25,1.25,0,0,1,1.36,1.32v.67a2.06,2.06,0,0,0-1.52-.68,1.93,1.93,0,1,0,0,3.86,1.81,1.81,0,0,0,1.54-.76v.64h1v-3.72a2,2,0,0,0-2.25-2.24,3.92,3.92,0,0,0-1.68.4ZM114,180.93h-1v8.28h1v-3.48a1.41,1.41,0,0,1,1.47-1.5A1.44,1.44,0,0,1,117,185.8v3.41h1v-3.65a2.14,2.14,0,0,0-2.19-2.31,1.88,1.88,0,0,0-1.75,1Zm-3.6,5.35a2,2,0,1,1-2-2.05,2,2,0,0,1,2,2.05Zm0,2.93h1v-8.28h-1v3.61a2.43,2.43,0,0,0-2.2-1.29,3,3,0,0,0,0,6.08,2.43,2.43,0,0,0,2.2-1.28Zm-10.22-5.84h-1v5.84h1v-3.48a1.42,1.42,0,0,1,1.48-1.5,1.44,1.44,0,0,1,1.48,1.57v3.41h1v-3.65a2.14,2.14,0,0,0-2.19-2.31,1.88,1.88,0,0,0-1.76,1Zm-6.1,4a1.22,1.22,0,0,1,1.28-1.15,1.24,1.24,0,0,1,1.29,1.15,1.29,1.29,0,0,1-2.57,0Zm-.36-2.74a3,3,0,0,1,1.58-.48,1.25,1.25,0,0,1,1.36,1.32v.67a2.06,2.06,0,0,0-1.53-.68,1.93,1.93,0,1,0,0,3.86,1.82,1.82,0,0,0,1.54-.76v.64h1v-3.72a2,2,0,0,0-2.25-2.24,3.92,3.92,0,0,0-1.68.4Zm-2.83,1.57a2,2,0,1,1-2-2A1.93,1.93,0,0,1,90.9,186.21Zm0-2.84v1.15a2.42,2.42,0,0,0-2.19-1.27,3,3,0,0,0,0,5.91,2.46,2.46,0,0,0,2.19-1.22v.94a1.91,1.91,0,0,1-2,2,3.85,3.85,0,0,1-2.07-.63v1.08a4.51,4.51,0,0,0,2.05.5,2.82,2.82,0,0,0,3-3v-5.4Zm-9.78,4a1.29,1.29,0,1,1,1.29,1.18,1.23,1.23,0,0,1-1.29-1.18Zm-.36-2.74a3,3,0,0,1,1.59-.48,1.24,1.24,0,0,1,1.35,1.32v.67a2,2,0,0,0-1.52-.68,1.93,1.93,0,0,0-2,1.92,1.91,1.91,0,0,0,2,1.94,1.8,1.8,0,0,0,1.53-.76v.64h1v-3.72a2,2,0,0,0-2.26-2.24,4,4,0,0,0-1.68.4ZM71,183.37l1.79,5.84h1.07l1.44-4,1.62,4h1l1.8-5.84h-1L77.34,188l-1.85-4.59h-1l.29.73L73.34,188,72,183.37Zm-4.85-2.44h-1v8.28h1v-3.48a1.42,1.42,0,0,1,1.48-1.5,1.44,1.44,0,0,1,1.48,1.57v3.41h1v-3.65a2.14,2.14,0,0,0-2.19-2.31,1.9,1.9,0,0,0-1.76,1Zm-2.48,2.62a3.12,3.12,0,0,0-1.34-.3c-1.29,0-2,.69-2,1.6a1.58,1.58,0,0,0,.86,1.41l1.08.65c.44.26.6.49.6.79s-.36.75-1,.75a2.31,2.31,0,0,1-1.46-.55V189a3.5,3.5,0,0,0,1.51.35c1.23,0,2-.64,2-1.63a1.68,1.68,0,0,0-1-1.51l-1-.62c-.35-.21-.52-.38-.52-.69s.32-.75.95-.75a2.26,2.26,0,0,1,1.33.47ZM56,182.41l1.31,3.52H54.72Zm2.5,6.8h1.16l-3.07-8.16H55.45l-3.07,8.16h1.16l.83-2.28h3.3Zm-9.9,2.56.6-2.88H48.08l-.37,2.88ZM40,183.55a3.13,3.13,0,0,0-1.35-.3c-1.28,0-2,.69-2,1.6a1.58,1.58,0,0,0,.86,1.41l1.09.65c.44.26.6.49.6.79s-.36.75-1,.75a2.32,2.32,0,0,1-1.47-.55V189a3.5,3.5,0,0,0,1.51.35c1.24,0,2-.64,2-1.63a1.68,1.68,0,0,0-1-1.51l-1-.62c-.35-.21-.52-.38-.52-.69s.33-.75,1-.75a2.32,2.32,0,0,1,1.34.47Zm-5.18,5.66v-5h1.15v-.86H34.77v-1.68l-.94.25v1.43H32.69v.86h1.09v5Zm-4.49-5.84h-1v5.84h1v-3.48c0-.9.46-1.5,1.3-1.5a1.87,1.87,0,0,1,.71.14v-1.06a2.12,2.12,0,0,0-.49-.06,1.61,1.61,0,0,0-1.52.91Zm-6.16,4a1.22,1.22,0,0,1,1.28-1.15,1.24,1.24,0,0,1,1.29,1.15,1.29,1.29,0,0,1-2.57,0Zm-.36-2.74a3,3,0,0,1,1.58-.48,1.25,1.25,0,0,1,1.36,1.32v.67a2.06,2.06,0,0,0-1.53-.68,1.93,1.93,0,1,0,0,3.86,1.82,1.82,0,0,0,1.54-.76v.64h1v-3.72a2,2,0,0,0-2.25-2.24,3.92,3.92,0,0,0-1.68.4Zm-2.26-1.13A1.35,1.35,0,0,1,20,185H18.63V182H20a1.38,1.38,0,0,1,1.5,1.48m-3.9,5.7h1v-3.27H20a2.45,2.45,0,1,0,0-4.89H17.6Z" transform="translate(-16.55 -24.51)"/></g><polygon class="cls-3" points="30.89 159.97 29.04 159.97 29.04 158.13 27.16 158.13 27.16 159.97 25.32 159.97 25.32 161.85 27.17 161.85 27.17 163.7 29.05 163.7 29.05 161.85 30.89 161.85 30.89 159.97"/><polygon class="cls-3" points="140.62 159.97 138.78 159.97 138.78 158.13 136.9 158.13 136.9 159.97 135.06 159.97 135.06 161.85 136.91 161.85 136.91 163.7 138.78 163.7 138.78 161.85 140.62 161.85 140.62 159.97"/><polygon class="cls-3" points="218.13 159.97 216.28 159.97 216.28 158.13 214.4 158.13 214.4 159.97 212.56 159.97 212.56 161.85 214.41 161.85 214.41 163.7 216.29 163.7 216.29 161.85 218.13 161.85 218.13 159.97"/></svg>