<svg id="Layer_1" data-name="Layer 1" xmlns="http://www.w3.org/2000/svg" xmlns:xlink="http://www.w3.org/1999/xlink" viewBox="0 0 217.56 263.76"><defs><style>.cls-1,.cls-4,.cls-5{fill:none;}.cls-2{fill:#941a27;}.cls-3{clip-path:url(#clip-path);}.cls-4,.cls-5{stroke:#941a27;}.cls-4{stroke-width:2px;}.cls-5{stroke-width:0.6px;}</style><clipPath id="clip-path" transform="translate(-503.38 -264.12)"><rect class="cls-1" x="503" y="264" width="218" height="264"/></clipPath></defs><title>Nutrition-day-red</title><polygon class="cls-2" points="200.11 159.97 198.26 159.97 198.26 158.13 196.38 158.13 196.38 159.97 194.54 159.97 194.54 161.85 196.39 161.85 196.39 163.7 198.27 163.7 198.27 161.85 200.11 161.85 200.11 159.97 200.11 159.97"/><path class="cls-2" d="M513.45,525.94a1.78,1.78,0,0,0,1.94-1.85v-.89h-.88V524a1,1,0,0,1-1,1,1,1,0,0,1-1.1-1.15v-4.79a1,1,0,0,1,1.08-1.14,1,1,0,0,1,1.07,1v.83h.88v-1a1.74,1.74,0,0,0-1.94-1.74,1.9,1.9,0,0,0-2.09,2V524a1.86,1.86,0,0,0,2.09,1.92Zm4.9,0a3,3,0,0,0,1.45-.37l-.22-.68a2.85,2.85,0,0,1-1.08.26c-.73,0-1-.39-1-1.13V523h2.37V521.1a1.5,1.5,0,0,0-1.57-1.69,1.66,1.66,0,0,0-1.73,1.82v2.92a1.61,1.61,0,0,0,1.79,1.79Zm-.86-3.7v-1.16c0-.45.21-.9.76-.9s.76.44.76.87v1.19Zm3.68,3.58h.92v-4.48a.9.9,0,0,1,1-1l.44,0v-.89a1.19,1.19,0,0,0-.33,0,1.15,1.15,0,0,0-1.09.76h0v-.71h-.91v6.29Zm4.78.08a2.5,2.5,0,0,0,.77-.14V525a1.55,1.55,0,0,1-.51.09c-.27,0-.39-.12-.39-.43v-4.34h1v-.77h-1v-1.42h-.91v1.42h-.62v.77h.62v4.6a.92.92,0,0,0,1,1Zm1.95-.08h.92v-6.29h-.92v6.29Zm0-7.35h.92v-1.33h-.92v1.33Zm5.22,7.35H534v-6.29h-.92v6.29Zm0-7.35H534v-1.33h-.92v1.33Zm-2.48,7.35h.91V520.3h.79v-.75h-.79v-1.11a.48.48,0,0,1,.49-.54,2.72,2.72,0,0,1,.43,0v-.7a2.16,2.16,0,0,0-.61-.07,1.13,1.13,0,0,0-1.22,1.21v1.18H530v.75h.63v5.52Zm6.45.12a3,3,0,0,0,1.45-.37l-.21-.68a2.9,2.9,0,0,1-1.08.26c-.74,0-1-.39-1-1.13V523h2.36V521.1a1.5,1.5,0,0,0-1.57-1.69,1.66,1.66,0,0,0-1.73,1.82v2.92a1.62,1.62,0,0,0,1.79,1.79Zm-.85-3.7v-1.16c0-.45.2-.9.75-.9s.76.44.76.87v1.19Zm4.81,3.69a1.36,1.36,0,0,0,1.23-.82h0l0,.71h.81v-8.56h-.93V520h0a1.18,1.18,0,0,0-1.09-.61,1.33,1.33,0,0,0-1.37,1.42v3.74a1.23,1.23,0,0,0,1.29,1.36Zm.32-.79c-.49,0-.68-.34-.68-.8V521c0-.59.26-.82.68-.82a1,1,0,0,1,.87,1.11v2.65c0,.64-.37,1.21-.87,1.21Zm7.1.8a1.94,1.94,0,0,0,2.1-2.09v-4.79a1.84,1.84,0,0,0-2.07-1.93,1.93,1.93,0,0,0-2.11,2v4.74a1.87,1.87,0,0,0,2.08,2Zm0-.89a1,1,0,0,1-1.09-1.14V519.1a1.09,1.09,0,0,1,2.18,0v4.85a1,1,0,0,1-1.09,1.14Zm3.47.77h.92v-4.48a.91.91,0,0,1,1-1l.43,0v-.89a1.19,1.19,0,0,0-.33,0,1.15,1.15,0,0,0-1.09.76h0v-.71H552v6.29Zm4.73,2a1.72,1.72,0,0,0,1.89-1.89v-6.46h-.85v.6h0a1.2,1.2,0,0,0-1.13-.7,1.36,1.36,0,0,0-1.39,1.48v3.38a1.25,1.25,0,0,0,1.29,1.4,1.28,1.28,0,0,0,1.15-.78h0V526c0,.7-.34,1.05-1,1.05a2.93,2.93,0,0,1-1.14-.25l-.27.74a3.33,3.33,0,0,0,1.44.29Zm.12-3c-.53,0-.7-.4-.7-.81V521c0-.54.26-.85.67-.85a1,1,0,0,1,.88,1.11v2.54a1,1,0,0,1-.85,1.12Zm4.32,1a1.26,1.26,0,0,0,1.15-.79h0c0,.27,0,.58,0,.68h.84c0-.27-.05-1.07-.05-1.53V520.8a1.36,1.36,0,0,0-1.53-1.39c-1,0-1.65.55-1.65,1.37v.65h.85v-.64c0-.41.27-.64.71-.64a.61.61,0,0,1,.7.65V522h-.51a1.87,1.87,0,0,0-1.88,2c0,1.31.59,1.89,1.3,1.89Zm.28-.75c-.38,0-.65-.36-.65-1.25s.5-1.31,1-1.31h.48v1.54a1,1,0,0,1-.81,1Zm3.18.64h.93v-4.47c0-.57.36-1.16.86-1.16s.66.27.66.76v4.87H568v-5.26a1.09,1.09,0,0,0-1.15-1.15,1.44,1.44,0,0,0-1.32.78h0v-.66h-.89v6.29Zm4.83,0h.92v-6.29h-.92v6.29Zm0-7.35h.92v-1.33h-.92v1.33Zm4,7.47a1.43,1.43,0,0,0,1.6-1.48v-.61h-.82v.54a.69.69,0,0,1-.75.77c-.59,0-.78-.42-.78-.91v-3.18c0-.47.21-.89.78-.89a.67.67,0,0,1,.75.72v.57H575v-.63a1.41,1.41,0,0,0-1.58-1.43,1.61,1.61,0,0,0-1.7,1.73v3.07a1.56,1.56,0,0,0,1.68,1.73Zm7.74-5.5.78-1.12.78,1.12.49-.32-.73-1.08,1.1-.67-.3-.49-1,.62v-1.24h-.59v1.24l-1.07-.62-.29.49,1.1.67-.72,1.08.49.32Zm3.56,0,.78-1.12.78,1.12.49-.32L586,519l1.1-.67-.3-.49-1,.62v-1.24h-.59v1.24l-1.06-.62-.29.49,1.09.67-.72,1.08.49.32Zm4.61,5.38h2a1.82,1.82,0,0,0,2-1.94v-4.82a1.76,1.76,0,0,0-2-1.8h-2v8.56Zm1-.87v-6.84h1a1,1,0,0,1,1.08,1v4.7a1,1,0,0,1-1.08,1.09Zm5.46,1a1.27,1.27,0,0,0,1.16-.79h0c0,.27,0,.58,0,.68h.84c0-.27,0-1.07,0-1.53V520.8a1.37,1.37,0,0,0-1.54-1.39c-1,0-1.64.55-1.64,1.37v.65h.85v-.64c0-.41.26-.64.71-.64a.61.61,0,0,1,.7.65V522h-.51a1.87,1.87,0,0,0-1.88,2c0,1.31.58,1.89,1.29,1.89Zm.29-.75c-.38,0-.65-.36-.65-1.25s.49-1.31,1-1.31h.49v1.54a1,1,0,0,1-.81,1Zm3.18.64h.92v-6.29h-.92v6.29Zm0-7.35h.92v-1.33h-.92v1.33Zm3.42,7.42a1.84,1.84,0,0,0,.62-.11V525a1.06,1.06,0,0,1-.31,0,.35.35,0,0,1-.39-.38v-7.4h-.93v7.63a.9.9,0,0,0,1,1Zm1.81,2c.73,0,1.13-.51,1.36-1.56l1.49-6.79h-.86l-.84,4.49h0l-.95-4.49h-1l1.48,6.16-.21.89c-.11.44-.32.53-.57.53a1.67,1.67,0,0,1-.47-.07l-.11.76a2.56,2.56,0,0,0,.67.08Zm6.87-2h1l1.62-8.62h-.9l-1.2,6.66h0l-1.18-6.66h-1l1.65,8.62Zm4.52,0a1.26,1.26,0,0,0,1.15-.79h0c0,.27,0,.58,0,.68h.84c0-.27,0-1.07,0-1.53V520.8a1.36,1.36,0,0,0-1.53-1.39c-1,0-1.64.55-1.64,1.37v.65h.85v-.64c0-.41.26-.64.71-.64a.61.61,0,0,1,.69.65V522h-.5a1.87,1.87,0,0,0-1.89,2c0,1.31.59,1.89,1.3,1.89Zm.29-.75c-.39,0-.65-.36-.65-1.25s.49-1.31,1-1.31h.48v1.54a1,1,0,0,1-.8,1Zm4.16.71a1.84,1.84,0,0,0,.62-.11V525a1.06,1.06,0,0,1-.31,0,.35.35,0,0,1-.39-.38v-7.4h-.93v7.63a.9.9,0,0,0,1,1Zm2.79.06a1.49,1.49,0,0,0,1.32-.81h0v.68h.88v-6.29h-.92V524c0,.57-.36,1.16-.86,1.16s-.66-.27-.66-.73v-4.89h-.93v5.24a1.12,1.12,0,0,0,1.16,1.18Zm5.36,0a3,3,0,0,0,1.45-.37l-.21-.68a2.9,2.9,0,0,1-1.08.26c-.74,0-1-.39-1-1.13V523h2.36V521.1a1.5,1.5,0,0,0-1.57-1.69,1.66,1.66,0,0,0-1.73,1.82v2.92a1.62,1.62,0,0,0,1.79,1.79Zm-.85-3.7v-1.16c0-.45.2-.9.75-.9s.76.44.76.87v1.19Zm5.51,3.58H634v-6.57h0l2.33,6.57h.91v-8.56h-.87v6h0l-2.2-6h-1.06v8.56Zm7.23.12a1.62,1.62,0,0,0,1.74-1.77v-3.08a1.57,1.57,0,0,0-1.71-1.68,1.63,1.63,0,0,0-1.74,1.73v3.05a1.58,1.58,0,0,0,1.71,1.75Zm0-.78c-.58,0-.81-.44-.81-.93v-3.14c0-.48.22-.91.78-.91a.8.8,0,0,1,.81.9v3.15c0,.47-.16.93-.78.93Zm4.4.74a2.55,2.55,0,0,0,.77-.14V525a1.66,1.66,0,0,1-.52.09c-.26,0-.38-.12-.38-.43v-4.34h1v-.77h-1v-1.42h-.91v1.42h-.63v.77h.63v4.6a.92.92,0,0,0,1,1Zm3.78-.08h3.41V525H649.5v-3.18h1.93v-.85H649.5V518.1h2.41v-.84h-3.39v8.56Zm5.82.11a1.46,1.46,0,0,0,1.55-1.53,2.77,2.77,0,0,0-.9-1.82l-.69-.76a1.65,1.65,0,0,1-.56-1,.6.6,0,0,1,.63-.65c.44,0,.63.26.69.91l.83,0c0-1.11-.65-1.6-1.48-1.6a1.4,1.4,0,0,0-1.53,1.46,2.45,2.45,0,0,0,.82,1.67l.56.61a2.2,2.2,0,0,1,.74,1.31c0,.48-.25.72-.65.72s-.68-.33-.74-.9h-.89a1.55,1.55,0,0,0,1.62,1.64Zm3.92,0a2.5,2.5,0,0,0,.77-.14V525a1.61,1.61,0,0,1-.52.09c-.26,0-.38-.12-.38-.43v-4.34h1v-.77h-1v-1.42h-.91v1.42h-.62v.77h.62v4.6a.92.92,0,0,0,1,1Zm3,0a1.26,1.26,0,0,0,1.15-.79h0c0,.27,0,.58,0,.68h.84c0-.27,0-1.07,0-1.53V520.8a1.37,1.37,0,0,0-1.54-1.39c-1,0-1.64.55-1.64,1.37v.65h.85v-.64a.7.7,0,0,1,1.4,0V522h-.5a1.87,1.87,0,0,0-1.89,2c0,1.31.59,1.89,1.3,1.89Zm.29-.75c-.39,0-.65-.36-.65-1.25s.49-1.31,1-1.31h.48v1.54a1,1,0,0,1-.8,1Zm5.15.75a1.36,1.36,0,0,0,1.42-1.45v-3.75a1.22,1.22,0,0,0-1.27-1.33,1.34,1.34,0,0,0-1.18.73h0v-2.87h-.92v8.56h.82l0-.6h0a1.2,1.2,0,0,0,1.11.71Zm-.19-.77a1,1,0,0,1-.86-1.11v-2.68c0-.66.4-1.18.85-1.18s.7.33.7.77v3.42c0,.53-.25.78-.69.78Zm4,.73a1.94,1.94,0,0,0,.63-.11V525a1.17,1.17,0,0,1-.32,0,.35.35,0,0,1-.39-.38v-7.4h-.92v7.63a.89.89,0,0,0,1,1Zm1.7-.07h.92v-6.29h-.92v6.29Zm0-7.35h.92v-1.33h-.92v1.33Zm3.74,7.46a1.46,1.46,0,0,0,1.55-1.53,2.77,2.77,0,0,0-.9-1.82l-.69-.76a1.65,1.65,0,0,1-.56-1,.6.6,0,0,1,.63-.65c.44,0,.63.26.69.91l.83,0c0-1.11-.65-1.6-1.48-1.6a1.4,1.4,0,0,0-1.53,1.46,2.45,2.45,0,0,0,.82,1.67l.55.61a2.17,2.17,0,0,1,.75,1.31c0,.48-.25.72-.65.72s-.68-.33-.74-.9h-.89a1.55,1.55,0,0,0,1.62,1.64Zm2.72-.11h.93v-4.45c0-.58.36-1.18.86-1.18s.66.27.66.76v4.87H682v-5.26a1.09,1.09,0,0,0-1.15-1.15,1.35,1.35,0,0,0-1.28.77h0v-2.92h-.93v8.56Zm6.46.12a3,3,0,0,0,1.45-.37l-.22-.68a2.85,2.85,0,0,1-1.08.26c-.73,0-1-.39-1-1.13V523h2.36V521.1a1.5,1.5,0,0,0-1.57-1.69,1.66,1.66,0,0,0-1.73,1.82v2.92a1.62,1.62,0,0,0,1.79,1.79Zm-.85-3.7v-1.16c0-.45.2-.9.75-.9s.76.44.76.87v1.19Zm4.81,3.69a1.35,1.35,0,0,0,1.22-.82h0l0,.71h.82v-8.56h-.93V520h0a1.17,1.17,0,0,0-1.08-.61,1.34,1.34,0,0,0-1.38,1.42v3.74a1.24,1.24,0,0,0,1.3,1.36Zm.32-.79c-.49,0-.68-.34-.68-.8V521c0-.59.26-.82.68-.82a1,1,0,0,1,.87,1.11v2.65c0,.64-.38,1.21-.87,1.21Z" transform="translate(-503.38 -264.12)"/><path class="cls-2" d="M508.83,499.82v-1h-3.36V496.2h3.12v-1h-3.12v-2.58h3.36v-1h-4.39v8.16Zm4.65-5.67a3.29,3.29,0,0,0-1.35-.29c-1.28,0-2,.69-2,1.6a1.59,1.59,0,0,0,.87,1.41l1.08.64c.44.27.6.5.6.8s-.36.75-1,.75a2.4,2.4,0,0,1-1.47-.55v1.08a3.5,3.5,0,0,0,1.51.35c1.24,0,2-.64,2-1.63a1.7,1.7,0,0,0-1-1.52l-1-.61c-.35-.21-.51-.38-.51-.7s.32-.74.95-.74a2.26,2.26,0,0,1,1.33.47v-1.06Zm4.7,0a3.28,3.28,0,0,0-1.34-.29c-1.29,0-2,.69-2,1.6a1.58,1.58,0,0,0,.86,1.41l1.08.64c.45.27.6.5.6.8s-.36.75-1,.75a2.37,2.37,0,0,1-1.46-.55v1.08a3.5,3.5,0,0,0,1.51.35c1.24,0,2-.64,2-1.63a1.7,1.7,0,0,0-1-1.52l-1-.61c-.35-.21-.52-.38-.52-.7s.32-.74,1-.74a2.26,2.26,0,0,1,1.33.47v-1.06Zm7,3.11a2.87,2.87,0,0,0-2.77-3.4,3,3,0,0,0,.06,6.08,4.11,4.11,0,0,0,2.17-.61v-1a3.56,3.56,0,0,1-2.1.74,2,2,0,0,1-2-1.77Zm-2.77-2.54a1.75,1.75,0,0,1,1.85,1.75h-3.76a1.89,1.89,0,0,1,1.91-1.75Zm5.13-.74h-1v5.84h1v-3.48a1.41,1.41,0,0,1,1.47-1.5,1.44,1.44,0,0,1,1.48,1.57v3.41h1v-3.65a2.14,2.14,0,0,0-2.19-2.31,1.85,1.85,0,0,0-1.75,1V494Zm7,5.84v-5h1.15V494h-1.15V492.3l-.95.25V494h-1.14v.86h1.1v5Zm3.25-5.84h-1v5.84h1V494Zm-1.15-1.84a.66.66,0,0,0,1.32,0,.66.66,0,1,0-1.32,0Zm3.1,3.11a3,3,0,0,1,1.58-.49,1.25,1.25,0,0,1,1.36,1.33v.67a2.06,2.06,0,0,0-1.53-.68,1.93,1.93,0,1,0,0,3.86,1.84,1.84,0,0,0,1.54-.76v.64h1V496.1a2,2,0,0,0-2.25-2.24,3.92,3.92,0,0,0-1.68.4v1Zm.36,2.74a1.22,1.22,0,0,1,1.28-1.15,1.25,1.25,0,0,1,1.29,1.15,1.29,1.29,0,0,1-2.57,0Zm6.3-6.45h-1v8.28h1v-8.28Zm4.4,4.2a4.2,4.2,0,1,0,4.2-4.2,4.11,4.11,0,0,0-4.2,4.2Zm1.08,0a3.13,3.13,0,1,1,3.12,3.18,3.1,3.1,0,0,1-3.12-3.18Zm9.72-1.76h-1v5.84h1V494Zm-1.15-1.84a.66.66,0,0,0,1.32,0,.66.66,0,1,0-1.32,0Zm3.93-.6h-1v8.28h1v-8.28Z" transform="translate(-503.38 -264.12)"/><path class="cls-2" d="M508.83,484.82v-1h-3.36V481.2h3.12v-1h-3.12v-2.58h3.36v-1h-4.39v8.16Zm3.61-2.16,1.43,2.16h1.18l-2-2.93,2-2.91h-1.18l-1.43,2.15L511,479h-1.18l2,2.91-2,2.93H511l1.42-2.16Zm5.16,2.16v-5h1.16V479H517.6V477.3l-.94.25V479h-1.14v.86h1.09v5Zm3.26-5.84h-1v5.84h1v-3.48c0-.9.45-1.5,1.29-1.5a1.87,1.87,0,0,1,.71.14v-1.06a2.12,2.12,0,0,0-.49-.06,1.59,1.59,0,0,0-1.51.91V479Zm3.18,1.27a3,3,0,0,1,1.58-.49,1.25,1.25,0,0,1,1.36,1.33v.67a2.06,2.06,0,0,0-1.53-.68,1.93,1.93,0,1,0,0,3.86,1.82,1.82,0,0,0,1.54-.76v.64h1V481.1a2,2,0,0,0-2.25-2.24,3.92,3.92,0,0,0-1.68.4v1Zm.36,2.74a1.22,1.22,0,0,1,1.28-1.15A1.17,1.17,0,1,1,524.4,483Zm9.49.46a2.48,2.48,0,0,1-1.51.52,2.07,2.07,0,0,1,0-4.13,2.41,2.41,0,0,1,1.51.51v-1.1a3.2,3.2,0,0,0-1.51-.39,3,3,0,1,0,0,6.08,3.07,3.07,0,0,0,1.51-.41v-1.08Zm2.91,1.37v-5H538V479H536.8V477.3l-.94.25V479h-1.14v.86h1.09v5Zm9.93,1.56.6-2.88h-1.14l-.38,2.88Zm5.49-1.56h1v-3.41h.86c1.07,0,2.09,1.38,2.46,3.41h1.06c-.3-1.94-1.13-3.33-2.11-3.78A2,2,0,0,0,557.2,479a2.28,2.28,0,0,0-2.57-2.29h-2.41v8.16Zm3.92-5.77a1.36,1.36,0,0,1-1.51,1.38h-1.38v-2.79h1.38a1.38,1.38,0,0,1,1.51,1.41Zm2.3,2.84a3,3,0,1,0,3-3,3,3,0,0,0-3,3Zm1,0a2,2,0,1,1,4,0,2,2,0,1,1-4,0Zm9.48-2.74a3.28,3.28,0,0,0-1.34-.29c-1.29,0-2,.69-2,1.6a1.58,1.58,0,0,0,.86,1.41l1.08.64c.45.27.6.5.6.8s-.36.75-1,.75a2.37,2.37,0,0,1-1.46-.55v1.08a3.5,3.5,0,0,0,1.51.35c1.23,0,2-.64,2-1.63a1.7,1.7,0,0,0-1-1.52l-1-.61c-.35-.21-.52-.38-.52-.7s.32-.74,1-.74a2.26,2.26,0,0,1,1.33.47v-1.06Zm7,3.11a2.87,2.87,0,0,0-2.77-3.4,3,3,0,0,0,.06,6.08,4.11,4.11,0,0,0,2.17-.61v-1a3.56,3.56,0,0,1-2.1.74,2,2,0,0,1-2-1.77Zm-2.77-2.54a1.75,1.75,0,0,1,1.85,1.75h-3.76a1.89,1.89,0,0,1,1.91-1.75Zm5.13-.74h-1v5.84h1v-3.63a1.34,1.34,0,1,1,2.67.09v3.54h1v-3.54a1.34,1.34,0,1,1,2.68,0v3.54h1V481a2,2,0,0,0-2-2.18,1.77,1.77,0,0,0-1.79,1.21,1.93,1.93,0,0,0-1.88-1.21,1.74,1.74,0,0,0-1.62.92V479Zm9.22,1.27a3,3,0,0,1,1.59-.49,1.25,1.25,0,0,1,1.35,1.33v.67a2,2,0,0,0-1.52-.68,1.93,1.93,0,1,0,0,3.86,1.8,1.8,0,0,0,1.53-.76v.64h1V481.1a2,2,0,0,0-2.26-2.24,4,4,0,0,0-1.68.4v1Zm.36,2.74a1.29,1.29,0,1,1,1.29,1.18,1.23,1.23,0,0,1-1.29-1.18Zm6.29-4h-1v5.84h1v-3.48c0-.9.46-1.5,1.3-1.5a2,2,0,0,1,.71.14v-1.06a2.14,2.14,0,0,0-.5-.06,1.61,1.61,0,0,0-1.51.91V479Zm3.45,8.3h1.15l3.56-8.3h-1.14l-1.71,4.13L597.8,479h-1.14l2.25,5.39-1.3,2.91Zm13-2.46v-1h-3.36V481.2h3.12v-1h-3.12v-2.58h3.36v-1h-4.39v8.16Zm4.64-5.67a3.2,3.2,0,0,0-1.34-.29c-1.28,0-2,.69-2,1.6a1.58,1.58,0,0,0,.86,1.41l1.08.64c.45.27.6.5.6.8s-.36.75-1,.75a2.37,2.37,0,0,1-1.46-.55v1.08a3.5,3.5,0,0,0,1.51.35c1.24,0,2-.64,2-1.63a1.68,1.68,0,0,0-1-1.52l-1-.61c-.35-.21-.52-.38-.52-.7s.33-.74,1-.74a2.26,2.26,0,0,1,1.33.47v-1.06Zm4.71,0a3.29,3.29,0,0,0-1.35-.29c-1.28,0-2,.69-2,1.6a1.59,1.59,0,0,0,.87,1.41l1.08.64c.44.27.6.5.6.8s-.36.75-1,.75a2.4,2.4,0,0,1-1.47-.55v1.08a3.51,3.51,0,0,0,1.52.35c1.23,0,2-.64,2-1.63a1.7,1.7,0,0,0-1-1.52l-1-.61c-.35-.21-.51-.38-.51-.7s.32-.74.95-.74a2.26,2.26,0,0,1,1.33.47v-1.06Zm7,3.11a3.83,3.83,0,0,0,0-.54,2.76,2.76,0,0,0-2.82-2.86,3,3,0,0,0,.06,6.08,4.11,4.11,0,0,0,2.17-.61v-1a3.56,3.56,0,0,1-2.1.74,2,2,0,0,1-2-1.77Zm-2.77-2.54a1.75,1.75,0,0,1,1.85,1.75H622.3a1.87,1.87,0,0,1,1.91-1.75Zm5.12-.74h-1v5.84h1v-3.48a1.42,1.42,0,0,1,1.48-1.5,1.44,1.44,0,0,1,1.48,1.57v3.41h1v-3.65a2.14,2.14,0,0,0-2.19-2.31,1.86,1.86,0,0,0-1.76,1V479Zm7,5.84v-5h1.15V479h-1.15V477.3l-1,.25V479h-1.14v.86h1.09v5Zm3.25-5.84h-1v5.84h1V479Zm-1.15-1.84a.66.66,0,0,0,1.32,0,.66.66,0,1,0-1.32,0Zm3.09,3.11a3,3,0,0,1,1.59-.49,1.25,1.25,0,0,1,1.35,1.33v.67a2,2,0,0,0-1.52-.68,1.93,1.93,0,1,0,0,3.86,1.8,1.8,0,0,0,1.53-.76v.64h1V481.1a2,2,0,0,0-2.26-2.24,3.92,3.92,0,0,0-1.68.4v1Zm.36,2.74a1.29,1.29,0,1,1,1.29,1.18,1.23,1.23,0,0,1-1.29-1.18Zm6.3-6.45h-1v8.28h1v-8.28Zm4.41,4.2a4.2,4.2,0,1,0,4.2-4.2,4.11,4.11,0,0,0-4.2,4.2Zm1.08,0a3.13,3.13,0,1,1,3.12,3.18,3.1,3.1,0,0,1-3.12-3.18Zm9.72-1.76h-1v5.84h1V479Zm-1.15-1.84a.66.66,0,0,0,1.31,0,.66.66,0,1,0-1.31,0Zm3.93-.6h-1v8.28h1v-8.28Zm9.47,9.84.6-2.88h-1.14l-.38,2.88Zm9.88-1.56v-1h-3.36v-7.18h-1v8.16Zm6.23-2.56a2.87,2.87,0,0,0-2.77-3.4,3,3,0,0,0,.06,6.08,4.11,4.11,0,0,0,2.17-.61v-1a3.56,3.56,0,0,1-2.1.74,2,2,0,0,1-2-1.77ZM689,479.72a1.75,1.75,0,0,1,1.85,1.75h-3.76a1.89,1.89,0,0,1,1.91-1.75Zm5.12-.74h-1v5.84h1v-3.63a1.34,1.34,0,1,1,2.68.09v3.54h1v-3.54a1.34,1.34,0,1,1,2.67,0v3.54h1V481a2,2,0,0,0-2-2.18,1.77,1.77,0,0,0-1.79,1.21,1.93,1.93,0,0,0-1.88-1.21,1.77,1.77,0,0,0-1.63.92V479Zm8.68,2.91a3,3,0,1,0,3-3,3,3,0,0,0-3,3Zm1,0a2,2,0,1,1,2,2.08,2,2,0,0,1-2-2.08ZM711.3,479h-1v5.84h1v-3.48a1.42,1.42,0,0,1,1.48-1.5,1.44,1.44,0,0,1,1.48,1.57v3.41h1v-3.65a2.15,2.15,0,0,0-2.2-2.31,1.86,1.86,0,0,0-1.75,1V479Z" transform="translate(-503.38 -264.12)"/><path class="cls-2" d="M660.79,469.82h1v-3.41h.85c1.07,0,2.09,1.38,2.46,3.41h1.07c-.3-1.94-1.14-3.33-2.11-3.78a2,2,0,0,0,1.67-2.09,2.27,2.27,0,0,0-2.56-2.29h-2.41v8.16Zm3.91-5.77a1.36,1.36,0,0,1-1.5,1.38h-1.38v-2.79h1.38a1.38,1.38,0,0,1,1.5,1.41Zm2.3,2.84a3,3,0,1,0,3-3,3,3,0,0,0-3,3Zm1,0a2,2,0,1,1,2,2.08,2,2,0,0,1-2-2.08Zm9.48-2.74a3.2,3.2,0,0,0-1.34-.29c-1.29,0-2,.69-2,1.6a1.58,1.58,0,0,0,.86,1.41l1.08.64c.45.27.6.5.6.8s-.36.75-1,.75a2.37,2.37,0,0,1-1.46-.55v1.08a3.5,3.5,0,0,0,1.51.35c1.24,0,2-.64,2-1.63a1.68,1.68,0,0,0-1-1.52l-1-.61c-.35-.21-.52-.38-.52-.7s.33-.74.95-.74a2.26,2.26,0,0,1,1.33.47v-1.06Zm7,3.11a4,4,0,0,0,0-.54,2.75,2.75,0,0,0-2.81-2.86,3,3,0,0,0,.06,6.08,4.14,4.14,0,0,0,2.17-.61v-1a3.59,3.59,0,0,1-2.1.74,2,2,0,0,1-2-1.77Zm-2.77-2.54a1.74,1.74,0,0,1,1.84,1.75h-3.75a1.87,1.87,0,0,1,1.91-1.75Zm5.12-.74h-1v5.84h1v-3.63a1.34,1.34,0,1,1,2.68.09v3.54h1v-3.54a1.34,1.34,0,1,1,2.68,0v3.54h1V466a2,2,0,0,0-2.05-2.18,1.78,1.78,0,0,0-1.79,1.21,1.93,1.93,0,0,0-1.88-1.21,1.74,1.74,0,0,0-1.62.92V464Zm9.23,1.27a3,3,0,0,1,1.58-.49,1.25,1.25,0,0,1,1.36,1.33v.67a2.06,2.06,0,0,0-1.53-.68,1.93,1.93,0,1,0,0,3.86,1.84,1.84,0,0,0,1.54-.76v.64h1V466.1a2,2,0,0,0-2.25-2.24,3.92,3.92,0,0,0-1.68.4v1Zm.36,2.74a1.22,1.22,0,0,1,1.28-1.15A1.25,1.25,0,0,1,699,468a1.29,1.29,0,0,1-2.57,0Zm6.28-4h-1v5.84h1v-3.48c0-.9.46-1.5,1.3-1.5a1.91,1.91,0,0,1,.71.14v-1.06a2.12,2.12,0,0,0-.49-.06,1.61,1.61,0,0,0-1.52.91V464Zm3.45,8.3h1.15l3.56-8.3h-1.14L708,468.11,706.36,464h-1.14l2.26,5.39-1.31,2.91Z" transform="translate(-503.38 -264.12)"/><polygon class="cls-2" points="151.91 208.26 152.5 205.38 151.37 205.38 150.99 208.26 151.91 208.26 151.91 208.26"/><path class="cls-2" d="M506.17,469.94a2.1,2.1,0,0,0,2.29-2.22v-4.48a2,2,0,0,0-2.28-2.11,2.09,2.09,0,0,0-2.29,2.18v4.45a2,2,0,0,0,2.28,2.18Zm0-1.19a.88.88,0,0,1-.92-1v-4.54a.93.93,0,1,1,1.85,0v4.56a.88.88,0,0,1-.93,1Zm5.4,1.07h1.34V462.4h1.61v-1.14H510v1.14h1.63v7.42Zm4.71,0h1.34v-3.75h1.8v3.75h1.33v-8.56h-1.33v3.59h-1.8v-3.59h-1.34v8.56Zm6.6,0h3.75v-1.15h-2.42V466h1.93v-1.13h-1.93v-2.43h2.41v-1.13h-3.74v8.56Zm5.67,0h1.34v-3.57h.71l1,3.57H533L531.83,466c.65-.27,1.07-1,1.07-2.24,0-1.62-.78-2.45-2.17-2.45h-2.17v8.56Zm1.34-4.57v-2.86h.72c.69,0,.94.6.94,1.43s-.32,1.43-.91,1.43Zm7.65,4.57h1.34v-8.56h-1.34v8.56Zm3.46,0h1.18V464h0l2.17,5.85h1.22v-8.56h-1.18v5.31h0l-2-5.31H541v8.56Zm8.9.12a1.93,1.93,0,0,0,2.17-2v-2.66h-2.29v1h1v1.55a.79.79,0,0,1-.89.88.88.88,0,0,1-.94-1v-4.52a.89.89,0,0,1,.94-1,.85.85,0,0,1,.94.87v.8h1.22V463a2,2,0,0,0-2.17-1.89,2.07,2.07,0,0,0-2.28,2.1v4.63a2,2,0,0,0,2.29,2.09Zm4.17-.12h1.35v-3.57h.71l1,3.57h1.39L557.35,466c.66-.27,1.08-1,1.08-2.24,0-1.62-.78-2.45-2.17-2.45h-2.18v8.56Zm1.35-4.57v-2.86h.72c.68,0,.93.6.93,1.43s-.32,1.43-.91,1.43Zm5,4.57h3.76v-1.15h-2.43V466h1.94v-1.13h-1.94v-2.43h2.42v-1.13h-3.75v8.56Zm5.68,0h2.23a2,2,0,0,0,2.17-2.05v-4.58a1.91,1.91,0,0,0-2.16-1.93h-2.24v8.56Zm1.33-1.15V462.4h.78a.86.86,0,0,1,.94.92v4.39a.89.89,0,0,1-.94,1Zm5.09,1.15h1.34v-8.56h-1.34v8.56Zm3.45,0h3.76v-1.15h-2.42V466h1.93v-1.13h-1.93v-2.43h2.41v-1.13H576v8.56Zm5.68,0h1.19V464h0l2.17,5.85h1.23v-8.56h-1.19v5.31h0l-2-5.31h-1.39v8.56Zm8,0H591V462.4h1.61v-1.14H588v1.14h1.63v7.42Zm6.46.12a2,2,0,0,0,2.08-2.16,3.39,3.39,0,0,0-1.17-2.43l-.83-.86c-.42-.46-.86-.91-.86-1.41s.26-.88.75-.88.76.45.84,1.17l1.19,0c-.08-1.68-1-2.22-2-2.22a1.92,1.92,0,0,0-2,2.06,3.12,3.12,0,0,0,1.13,2.25l.9,1a2.13,2.13,0,0,1,.78,1.45c0,.48-.19,1-.78,1s-.85-.6-.91-1.25l-1.25,0c.08,1.46.85,2.31,2.15,2.31Zm3.84-.12h1.21v-1.64h-1.21v1.64Zm0-4.68h1.2v-1.63H600v1.63Zm10.87,4.68,2.63-6.21v6.21h1v-8.16h-1.21l-2.91,6.85-2.91-6.85h-1.23v8.16h1v-6.21l2.64,6.21Zm11.7-1.64a3.37,3.37,0,0,1-2.15.74,3.18,3.18,0,0,1,0-6.36,3.34,3.34,0,0,1,2.15.75V462.1a4.25,4.25,0,0,0-2.15-.56,4.2,4.2,0,0,0,0,8.4,4.26,4.26,0,0,0,2.15-.57v-1.19Zm3.08,1.64h1v-7.18h2.16v-1h-5.37v1h2.18v7.18Zm6.64-4.08a4.2,4.2,0,1,0,4.2-4.2,4.11,4.11,0,0,0-4.2,4.2Zm1.08,0a3.13,3.13,0,1,1,3.12,3.18,3.1,3.1,0,0,1-3.12-3.18ZM643,464h-1v5.84h1V464Zm-1.15-1.84a.66.66,0,0,0,1.32,0,.66.66,0,1,0-1.32,0Zm3.93-.6h-1v8.28h1v-8.28Z" transform="translate(-503.38 -264.12)"/><path class="cls-2" d="M510.14,443.82h1v-8.16h-1v3.56h-4.67v-3.56h-1v8.16h1v-3.61h4.67v3.61Zm2.67-2.93a3,3,0,1,0,3-3,3,3,0,0,0-3,3Zm1,0a2,2,0,1,1,4,0,2,2,0,1,1-4,0Zm7.57-5.35h-1v8.28h1v-8.28Zm2.22,10.74h1.15l3.56-8.3H527.2l-1.71,4.13L523.82,438h-1.14l2.26,5.39-1.31,2.91Zm8.89-2.46h2.53a2.3,2.3,0,0,0,2.59-2.22,2,2,0,0,0-1.41-2,1.9,1.9,0,0,0,1.15-1.84,2.18,2.18,0,0,0-2.44-2.11h-2.42v8.16Zm4.05-2.33c0,.94-.7,1.34-1.52,1.34h-1.5v-2.72h1.5a1.36,1.36,0,0,1,1.52,1.38Zm-.26-3.6a1.22,1.22,0,0,1-1.38,1.25h-1.38v-2.5h1.38a1.23,1.23,0,0,1,1.38,1.25Zm3.11,1.36a3,3,0,0,1,1.58-.48,1.25,1.25,0,0,1,1.36,1.32v.67a2.06,2.06,0,0,0-1.52-.69,1.93,1.93,0,0,0-2.05,1.92,1.91,1.91,0,0,0,2,1.95,1.81,1.81,0,0,0,1.54-.76v.64h1V440.1a2,2,0,0,0-2.26-2.25,3.92,3.92,0,0,0-1.68.41v1Zm.36,2.74a1.23,1.23,0,0,1,1.28-1.15,1.17,1.17,0,1,1-1.28,1.15Zm8.45-3.84a3.28,3.28,0,0,0-1.35-.3c-1.28,0-2,.7-2,1.61a1.58,1.58,0,0,0,.86,1.41l1.08.64c.44.27.6.5.6.8s-.36.75-1,.75a2.35,2.35,0,0,1-1.46-.55v1.08a3.47,3.47,0,0,0,1.51.35c1.23,0,2-.64,2-1.63a1.7,1.7,0,0,0-1-1.52l-1-.61c-.34-.21-.51-.38-.51-.69s.32-.75.95-.75a2.26,2.26,0,0,1,1.33.47v-1.06ZM551,438h-1v5.84h1V438Zm-1.15-1.84a.66.66,0,0,0,1.32,0,.66.66,0,1,0-1.32,0Zm4.06-.6h-1v8.28h1v-8.28Zm9.58,8.28v-1h-3.36v-7.17h-1v8.16Zm6.35-2.56a2.88,2.88,0,0,0-2.77-3.41,3,3,0,0,0,.06,6.09,4.11,4.11,0,0,0,2.17-.61v-1a3.56,3.56,0,0,1-2.1.74,2,2,0,0,1-2-1.77Zm-2.77-2.54a1.75,1.75,0,0,1,1.85,1.75h-3.76a1.88,1.88,0,0,1,1.91-1.75Zm4.42.53a3,3,0,0,1,1.58-.48,1.25,1.25,0,0,1,1.36,1.32v.67a2.07,2.07,0,0,0-1.53-.69,1.93,1.93,0,0,0-2,1.92,1.91,1.91,0,0,0,2,1.95,1.84,1.84,0,0,0,1.54-.76v.64h1V440.1a2,2,0,0,0-2.25-2.25,3.92,3.92,0,0,0-1.68.41v1Zm.36,2.74a1.22,1.22,0,0,1,1.28-1.15,1.24,1.24,0,0,1,1.28,1.15,1.28,1.28,0,0,1-2.56,0Zm8.22-4h-1.47v-.68a.8.8,0,0,1,.87-.9,1.75,1.75,0,0,1,.67.13v-1a3.41,3.41,0,0,0-.7-.09,1.67,1.67,0,0,0-1.83,1.82V438h-.92v.86h.92v5h1v-5h1.47V438Z" transform="translate(-503.38 -264.12)"/><path class="cls-2" d="M509.66,428.82h1.16l-3.07-8.16h-1.16l-3.07,8.16h1.16l.83-2.28h3.3l.85,2.28Zm-2.5-6.81,1.31,3.53h-2.61l1.3-3.53Zm7.9,1.14a3.27,3.27,0,0,0-1.34-.3c-1.29,0-2,.7-2,1.61a1.58,1.58,0,0,0,.86,1.41l1.08.64c.45.27.6.5.6.8s-.36.75-1,.75a2.37,2.37,0,0,1-1.46-.55v1.08a3.5,3.5,0,0,0,1.51.35c1.24,0,2-.64,2-1.63a1.7,1.7,0,0,0-1-1.52l-1-.61c-.35-.21-.52-.38-.52-.69s.32-.75,1-.75a2.26,2.26,0,0,1,1.33.47v-1.06Zm2.78-.17h-1v5.84h1V423Zm-1.15-1.84a.64.64,0,0,0,.65.65.64.64,0,0,0,.67-.65.64.64,0,0,0-.67-.66.65.65,0,0,0-.65.66Zm3.22,3.11a3,3,0,0,1,1.58-.48,1.25,1.25,0,0,1,1.36,1.32v.67a2.07,2.07,0,0,0-1.53-.69,1.93,1.93,0,0,0-2.05,1.92,1.91,1.91,0,0,0,2,1.95,1.82,1.82,0,0,0,1.54-.76v.64h1V425.1a2,2,0,0,0-2.25-2.25,3.92,3.92,0,0,0-1.68.41v1Zm.36,2.74a1.22,1.22,0,0,1,1.28-1.15,1.17,1.17,0,1,1-1.28,1.15Zm6.41-4h-1v5.84h1v-3.48a1.41,1.41,0,0,1,1.47-1.5,1.44,1.44,0,0,1,1.48,1.57v3.41h1v-3.65a2.15,2.15,0,0,0-2.19-2.32,1.86,1.86,0,0,0-1.75,1V423Zm15-2a4.81,4.81,0,0,0-2.22-.48,4.12,4.12,0,0,0-4.28,4.2,4,4,0,0,0,4.06,4.2,3.81,3.81,0,0,0,4-4,5.54,5.54,0,0,0-.1-1.06h-3.93v.93h2.89c0,.08,0,.3,0,.4a2.69,2.69,0,0,1-2.85,2.7,3.05,3.05,0,0,1-3-3.18,3.11,3.11,0,0,1,3.21-3.18,4.34,4.34,0,0,1,2.22.6V421Zm4,2h-1v5.84h1V423Zm-1.15-1.84a.66.66,0,0,0,1.32,0,.66.66,0,1,0-1.32,0Zm4,1.84h-1v5.84h1v-3.48a1.42,1.42,0,0,1,1.48-1.5,1.44,1.44,0,0,1,1.48,1.57v3.41h1v-3.65a2.15,2.15,0,0,0-2.2-2.32,1.87,1.87,0,0,0-1.75,1V423Zm8.82.17a3.23,3.23,0,0,0-1.34-.3c-1.29,0-2,.7-2,1.61a1.58,1.58,0,0,0,.86,1.41l1.08.64c.45.27.6.5.6.8s-.36.75-1,.75a2.37,2.37,0,0,1-1.46-.55v1.08a3.5,3.5,0,0,0,1.51.35c1.24,0,2-.64,2-1.63a1.68,1.68,0,0,0-1-1.52l-1-.61c-.35-.21-.52-.38-.52-.69s.33-.75.95-.75a2.26,2.26,0,0,1,1.33.47v-1.06Zm7.11,3.11a4,4,0,0,0,0-.54,2.77,2.77,0,0,0-2.82-2.87,3,3,0,0,0,.06,6.09,4.17,4.17,0,0,0,2.18-.61v-1a3.61,3.61,0,0,1-2.1.74,2,2,0,0,1-2-1.77Zm-2.78-2.54a1.75,1.75,0,0,1,1.85,1.75H559.8a1.87,1.87,0,0,1,1.9-1.75ZM567,423h-1v5.84h1v-3.48a1.41,1.41,0,0,1,1.47-1.5,1.44,1.44,0,0,1,1.48,1.57v3.41h1v-3.65a2.16,2.16,0,0,0-2.2-2.32,1.86,1.86,0,0,0-1.75,1V423Zm10.45,0v1.15a2.43,2.43,0,0,0-2.2-1.28,3,3,0,0,0,0,5.92,2.46,2.46,0,0,0,2.2-1.22v.94a1.91,1.91,0,0,1-2,2,3.76,3.76,0,0,1-2.06-.64v1.08a4.38,4.38,0,0,0,2.05.51,2.83,2.83,0,0,0,3-3V423Zm0,2.84a2,2,0,1,1-2-2,1.93,1.93,0,0,1,2,2Zm6.24,3h1v-3.41h.86c1.06,0,2.08,1.38,2.46,3.41H589c-.3-1.93-1.14-3.33-2.11-3.78a2,2,0,0,0,1.68-2.09,2.28,2.28,0,0,0-2.57-2.29h-2.41v8.16Zm3.91-5.77a1.36,1.36,0,0,1-1.5,1.38h-1.38v-2.79H586a1.37,1.37,0,0,1,1.5,1.41Zm2.43,2.84a3,3,0,1,0,3-3,3,3,0,0,0-3,3Zm1,0a2,2,0,1,1,4,0,2,2,0,1,1-4,0Zm6.18,0a3,3,0,1,0,3-3,3,3,0,0,0-3,3Zm1,0a2,2,0,1,1,2,2.08,2,2,0,0,1-2-2.08Zm7.91,2.93v-5h1.15V423h-1.15v-1.69l-1,.26V423H604v.86h1.09v5Zm10.16,2.56.6-2.88H615.7l-.37,2.88Zm5.74-2.56h1v-3.41h.85c1.07,0,2.09,1.38,2.46,3.41h1.07c-.3-1.93-1.14-3.33-2.11-3.78A2,2,0,0,0,627,423a2.28,2.28,0,0,0-2.57-2.29H622v8.16Zm3.91-5.77a1.36,1.36,0,0,1-1.5,1.38H623v-2.79h1.38a1.38,1.38,0,0,1,1.5,1.41Zm3.92-2.51h-1v8.28h1v-3.48a1.42,1.42,0,0,1,1.48-1.5,1.44,1.44,0,0,1,1.48,1.57v3.41h1v-3.65a2.15,2.15,0,0,0-2.19-2.32,1.89,1.89,0,0,0-1.76,1v-3.36Zm5.4,5.35a3,3,0,1,0,3-3,3,3,0,0,0-3,3Zm1,0a2,2,0,1,1,4,0,2,2,0,1,1-4,0Zm11.3,2.93h1v-8.28h-1v3.61a2.44,2.44,0,0,0-2.2-1.3,3,3,0,0,0,0,6.09,2.43,2.43,0,0,0,2.2-1.29v1.17Zm0-2.93a2,2,0,1,1-2-2.05,2,2,0,0,1,2,2.05Zm3.9-2.91h-1v5.84h1V423Zm-1.15-1.84a.66.66,0,0,0,1.31,0,.66.66,0,1,0-1.31,0Zm2.66,4.75a3,3,0,1,0,3-3,3,3,0,0,0-3,3Zm1,0a2,2,0,1,1,2,2.08,2,2,0,0,1-2-2.08Zm7.57-5.35h-1v8.28h1v-8.28Zm2.09,3.71a3,3,0,0,1,1.59-.48,1.24,1.24,0,0,1,1.35,1.32v.67a2.06,2.06,0,0,0-1.52-.69,1.93,1.93,0,0,0-2,1.92,1.91,1.91,0,0,0,2,1.95,1.81,1.81,0,0,0,1.54-.76v.64h1V425.1a2,2,0,0,0-2.26-2.25,3.92,3.92,0,0,0-1.68.41v1ZM664,427a1.29,1.29,0,1,1,1.29,1.18A1.23,1.23,0,0,1,664,427Zm8.69,1.83h1v-3.41h.85c1.07,0,2.09,1.38,2.46,3.41h1.07c-.3-1.93-1.14-3.33-2.11-3.78a2,2,0,0,0,1.68-2.09,2.28,2.28,0,0,0-2.57-2.29h-2.41v8.16Zm3.91-5.77a1.36,1.36,0,0,1-1.5,1.38h-1.38v-2.79h1.38a1.38,1.38,0,0,1,1.5,1.41Zm2.43,2.84a3,3,0,1,0,3-3,3,3,0,0,0-3,3Zm1,0a2,2,0,1,1,4,0,2,2,0,1,1-4,0Zm6.18,0a3,3,0,1,0,3-3,3,3,0,0,0-3,3Zm1,0a2,2,0,1,1,4,0,2,2,0,1,1-4,0Zm7.91,2.93v-5h1.15V423h-1.15v-1.69l-.95.26V423h-1.14v.86h1.09v5Zm10.16,2.56.6-2.88H704.8l-.37,2.88Z" transform="translate(-503.38 -264.12)"/><polygon class="cls-2" points="175.83 152.26 176.43 149.38 175.29 149.38 174.92 152.26 175.83 152.26 175.83 152.26"/><path class="cls-2" d="M508.29,406a3.53,3.53,0,0,0-1.75-.44c-1.85,0-2.55,1.09-2.55,2.13a2.2,2.2,0,0,0,1.27,2l1.4.89c.6.37.89.76.89,1.2,0,.63-.53,1.2-1.51,1.2a3.06,3.06,0,0,1-2-.74v1.22a4.41,4.41,0,0,0,2,.49,2.28,2.28,0,0,0,2.58-2.22,2.34,2.34,0,0,0-1.38-2.1l-1.42-.89a1.29,1.29,0,0,1-.75-1.08c0-.69.54-1.14,1.43-1.14a3,3,0,0,1,1.77.64V406Zm6.12,6.47a2.45,2.45,0,0,1-1.51.52,2.07,2.07,0,0,1,0-4.13,2.39,2.39,0,0,1,1.51.51v-1.1a3.17,3.17,0,0,0-1.51-.4,3,3,0,1,0,0,6.09,3,3,0,0,0,1.51-.41v-1.08Zm2.57-6.91h-1v8.28h1v-3.48a1.48,1.48,0,1,1,2.95.07v3.41h1v-3.65a2.15,2.15,0,0,0-2.2-2.32,1.87,1.87,0,0,0-1.75,1v-3.36Zm6.78,2.44h-1v5.84h1V408Zm-1.15-1.84a.66.66,0,0,0,1.32,0,.66.66,0,1,0-1.32,0Zm6.08,2a3.2,3.2,0,0,0-1.34-.3c-1.29,0-2,.7-2,1.61a1.58,1.58,0,0,0,.86,1.41l1.08.64c.45.27.6.5.6.8s-.36.75-1,.75a2.37,2.37,0,0,1-1.46-.55v1.08a3.5,3.5,0,0,0,1.51.35c1.24,0,2-.64,2-1.63a1.68,1.68,0,0,0-1-1.52l-1-.61c-.35-.21-.52-.38-.52-.69s.33-.75,1-.75a2.26,2.26,0,0,1,1.33.47v-1.06Zm2,1.1a3,3,0,0,1,1.58-.48,1.25,1.25,0,0,1,1.36,1.32v.67a2.07,2.07,0,0,0-1.53-.69,1.93,1.93,0,0,0-2,1.92,1.91,1.91,0,0,0,2,1.95,1.82,1.82,0,0,0,1.54-.76v.64h1V410.1a2,2,0,0,0-2.25-2.25,3.92,3.92,0,0,0-1.68.41v1ZM531,412a1.22,1.22,0,0,1,1.28-1.15A1.17,1.17,0,1,1,531,412Zm6.41-4h-1v5.84h1v-3.48a1.41,1.41,0,0,1,1.47-1.5,1.44,1.44,0,0,1,1.48,1.57v3.41h1v-3.65a2.15,2.15,0,0,0-2.19-2.32,1.86,1.86,0,0,0-1.75,1V408Zm10.51,5.84h1v-8.28h-1v3.61a2.44,2.44,0,0,0-2.2-1.3,3,3,0,0,0,0,6.09,2.43,2.43,0,0,0,2.2-1.29v1.17Zm0-2.93a2,2,0,1,1-2-2.05,2,2,0,0,1,2,2.05Zm3.9-2.91h-1v5.84h1v-3.48c0-.9.45-1.5,1.29-1.5a1.87,1.87,0,0,1,.71.14v-1.07a2.63,2.63,0,0,0-.49-.06,1.61,1.61,0,0,0-1.51.92V408Zm3.3,1.27a3,3,0,0,1,1.58-.48,1.25,1.25,0,0,1,1.36,1.32v.67a2.07,2.07,0,0,0-1.53-.69,1.93,1.93,0,0,0-2,1.92,1.91,1.91,0,0,0,2,1.95,1.82,1.82,0,0,0,1.54-.76v.64h1V410.1a2,2,0,0,0-2.25-2.25,3.92,3.92,0,0,0-1.68.41v1Zm.36,2.74a1.22,1.22,0,0,1,1.28-1.15,1.17,1.17,0,1,1-1.28,1.15Zm8.69,1.83h2.53a2.3,2.3,0,0,0,2.59-2.22,2,2,0,0,0-1.42-2,1.89,1.89,0,0,0,1.16-1.84,2.19,2.19,0,0,0-2.44-2.11h-2.42v8.16Zm4-2.33a1.33,1.33,0,0,1-1.51,1.34h-1.5v-2.72h1.5a1.36,1.36,0,0,1,1.51,1.38Zm-.25-3.6a1.23,1.23,0,0,1-1.38,1.25h-1.38v-2.5h1.38a1.23,1.23,0,0,1,1.38,1.25Zm8.25,3.37a2.88,2.88,0,0,0-2.77-3.41,3,3,0,0,0,.06,6.09,4.11,4.11,0,0,0,2.17-.61v-1a3.56,3.56,0,0,1-2.1.74,2,2,0,0,1-2-1.77Zm-2.77-2.54a1.75,1.75,0,0,1,1.85,1.75h-3.76a1.89,1.89,0,0,1,1.91-1.75Zm5.25-.74h-1v5.84h1v-3.48c0-.9.45-1.5,1.29-1.5a1.87,1.87,0,0,1,.71.14v-1.07a2.85,2.85,0,0,0-.49-.06,1.6,1.6,0,0,0-1.51.92V408Zm4.26,0h-1v5.84h1v-3.48c0-.9.45-1.5,1.29-1.5a1.87,1.87,0,0,1,.71.14v-1.07a2.85,2.85,0,0,0-.49-.06,1.6,1.6,0,0,0-1.51.92V408Zm3.56,8.3h1.15l3.57-8.3H590.1l-1.72,4.13L586.71,408h-1.14l2.26,5.39-1.31,2.91Zm14.14.1.6-2.88h-1.14l-.38,2.88Zm5.73-2.56h2.53a2.3,2.3,0,0,0,2.59-2.22,2,2,0,0,0-1.41-2,1.9,1.9,0,0,0,1.15-1.84,2.18,2.18,0,0,0-2.43-2.11h-2.43v8.16Zm4.05-2.33c0,.94-.7,1.34-1.52,1.34h-1.5v-2.72h1.5a1.36,1.36,0,0,1,1.52,1.38Zm-.26-3.6a1.22,1.22,0,0,1-1.38,1.25h-1.38v-2.5h1.38a1.23,1.23,0,0,1,1.38,1.25Zm3.11,1.36a3,3,0,0,1,1.59-.48,1.24,1.24,0,0,1,1.35,1.32v.67a2.06,2.06,0,0,0-1.52-.69,1.93,1.93,0,0,0-2.05,1.92,1.91,1.91,0,0,0,2,1.95,1.8,1.8,0,0,0,1.53-.76v.64h1V410.1a2,2,0,0,0-2.26-2.25,3.92,3.92,0,0,0-1.68.41v1Zm.36,2.74a1.29,1.29,0,1,1,1.29,1.18,1.23,1.23,0,0,1-1.29-1.18Zm9.61.46a2.45,2.45,0,0,1-1.51.52,2.07,2.07,0,0,1,0-4.13,2.39,2.39,0,0,1,1.51.51v-1.1a3.17,3.17,0,0,0-1.51-.4,3,3,0,1,0,0,6.09,3,3,0,0,0,1.51-.41v-1.08Zm1.08-1.56a3,3,0,1,0,3-3,3,3,0,0,0-3,3Zm1,0a2,2,0,1,1,4,0,2,2,0,1,1-4,0Zm7.56-2.91h-1v8.3h1v-3.63a2.45,2.45,0,0,0,2.21,1.29,3,3,0,0,0,0-6.09,2.42,2.42,0,0,0-2.23,1.35V408Zm0,2.91A2,2,0,1,1,635,413a2,2,0,0,1-2.05-2.06Zm6.81-1.64a3,3,0,0,1,1.58-.48,1.25,1.25,0,0,1,1.36,1.32v.67a2.07,2.07,0,0,0-1.53-.69,1.93,1.93,0,0,0-2,1.92,1.91,1.91,0,0,0,2,1.95,1.81,1.81,0,0,0,1.54-.76v.64h1V410.1a2,2,0,0,0-2.25-2.25,3.92,3.92,0,0,0-1.68.41v1Zm.36,2.74a1.22,1.22,0,0,1,1.28-1.15A1.17,1.17,0,1,1,640.1,412Zm13.08,1.83v-1h-3.36v-7.17h-1v8.16Zm6.35-2.56a4,4,0,0,0,0-.54,2.76,2.76,0,0,0-2.82-2.87,3,3,0,0,0,.06,6.09,4.15,4.15,0,0,0,2.18-.61v-1a3.59,3.59,0,0,1-2.1.74,2,2,0,0,1-2-1.77Zm-2.78-2.54a1.75,1.75,0,0,1,1.85,1.75h-3.75a1.87,1.87,0,0,1,1.9-1.75Zm4.42.53a3,3,0,0,1,1.58-.48,1.25,1.25,0,0,1,1.36,1.32v.67a2.06,2.06,0,0,0-1.52-.69,1.93,1.93,0,0,0-2.05,1.92,1.91,1.91,0,0,0,2,1.95,1.81,1.81,0,0,0,1.54-.76v.64h1V410.1a2,2,0,0,0-2.26-2.25,3.92,3.92,0,0,0-1.68.41v1Zm.36,2.74a1.23,1.23,0,0,1,1.28-1.15,1.17,1.17,0,1,1-1.28,1.15Zm8.22-4h-1.46v-.68a.79.79,0,0,1,.86-.9,1.71,1.71,0,0,1,.67.13v-1a3.31,3.31,0,0,0-.69-.09,1.68,1.68,0,0,0-1.84,1.82V408h-.91v.86h.91v5h1v-5h1.46V408Z" transform="translate(-503.38 -264.12)"/><path class="cls-2" d="M510.24,372.18a3.37,3.37,0,0,1-2.15.74,3.18,3.18,0,0,1,0-6.36,3.36,3.36,0,0,1,2.15.75V366.1a4.28,4.28,0,0,0-2.15-.56,4.2,4.2,0,0,0,0,8.4,4.28,4.28,0,0,0,2.15-.57v-1.19Zm1.68-2.93a3,3,0,0,1,1.58-.49,1.25,1.25,0,0,1,1.36,1.33v.67a2.07,2.07,0,0,0-1.53-.69,1.93,1.93,0,0,0-2.05,1.92,1.91,1.91,0,0,0,2,1.95,1.82,1.82,0,0,0,1.54-.76v.64h1V370.1a2,2,0,0,0-2.25-2.25,3.92,3.92,0,0,0-1.68.41v1Zm.36,2.74a1.22,1.22,0,0,1,1.28-1.15,1.17,1.17,0,1,1-1.28,1.15Zm6.28-4h-1v5.84h1v-3.48a1.42,1.42,0,0,1,1.48-1.5,1.44,1.44,0,0,1,1.48,1.57v3.41h1v-3.65a2.15,2.15,0,0,0-2.19-2.32,1.87,1.87,0,0,0-1.76,1V368Zm6.66,0h-1v5.84h1v-3.48a1.42,1.42,0,0,1,1.48-1.5,1.44,1.44,0,0,1,1.48,1.57v3.41h1v-3.65a2.15,2.15,0,0,0-2.19-2.32,1.87,1.87,0,0,0-1.76,1V368Zm5.84,1.27a3,3,0,0,1,1.58-.49,1.25,1.25,0,0,1,1.36,1.33v.67a2.07,2.07,0,0,0-1.53-.69,1.93,1.93,0,0,0-2.05,1.92,1.91,1.91,0,0,0,2,1.95,1.82,1.82,0,0,0,1.54-.76v.64h1V370.1a2,2,0,0,0-2.25-2.25,3.92,3.92,0,0,0-1.68.41v1Zm.36,2.74a1.22,1.22,0,0,1,1.28-1.15,1.17,1.17,0,1,1-1.28,1.15Zm6.28.66a2.47,2.47,0,0,0,2.22,1.29,3,3,0,0,0,0-6.09,2.47,2.47,0,0,0-2.22,1.3v-3.61h-1v8.28h1v-1.17Zm0-1.76a2,2,0,1,1,2,2.07,2,2,0,0,1-2-2.07Zm7.52-2.91h-1v5.84h1V368Zm-1.15-1.84a.66.66,0,0,0,1.31,0,.66.66,0,1,0-1.31,0Zm7.65,7.68h1v-8.28h-1v3.61a2.44,2.44,0,0,0-2.2-1.3,3,3,0,0,0,0,6.09,2.43,2.43,0,0,0,2.2-1.29v1.17Zm0-2.93a2,2,0,0,1-2,2.07,2.06,2.06,0,0,1,0-4.12,2,2,0,0,1,2,2.05ZM555.5,368h-1v5.84h1V368Zm-1.15-1.84a.66.66,0,0,0,1.32,0,.66.66,0,1,0-1.32,0Zm2.54,4.75a3,3,0,1,0,3-3,3,3,0,0,0-3,3Zm1,0a2,2,0,1,1,4,0,2,2,0,1,1-4,0Zm7.46-5.35h-1v8.28h1v-8.28Zm2.79,2.44h-1v5.84h1V368ZM567,366.14a.66.66,0,0,0,1.32,0,.66.66,0,1,0-1.32,0Zm7.13,6.31a2.48,2.48,0,0,1-1.51.52,2.07,2.07,0,0,1,0-4.13,2.41,2.41,0,0,1,1.51.51v-1.1a3.2,3.2,0,0,0-1.51-.4,3,3,0,1,0,0,6.09,3.07,3.07,0,0,0,1.51-.41v-1.08Zm9.49,1.37h1.16l-3.07-8.16h-1.16l-3.07,8.16h1.16l.83-2.28h3.3l.85,2.28Zm-2.5-6.81,1.31,3.53h-2.61l1.3-3.53Zm8.8,5.44a2.45,2.45,0,0,1-1.51.52,2.07,2.07,0,0,1,0-4.13,2.39,2.39,0,0,1,1.51.51v-1.1a3.2,3.2,0,0,0-1.51-.4,3,3,0,1,0,0,6.09,3,3,0,0,0,1.51-.41v-1.08Zm2.45-4.47h-1v5.84h1V368Zm-1.15-1.84a.63.63,0,0,0,.64.65.64.64,0,0,0,.68-.65.65.65,0,0,0-.68-.66.64.64,0,0,0-.64.66Zm7.65,7.68h1v-8.28h-1v3.61a2.44,2.44,0,0,0-2.19-1.3,3,3,0,0,0,0,6.09,2.43,2.43,0,0,0,2.19-1.29v1.17Zm0-2.93a2,2,0,0,1-2,2.07,2.06,2.06,0,0,1,0-4.12,2,2,0,0,1,2,2.05Zm6.19,0a8.27,8.27,0,0,1,1.54-5l-.58-.39a8.91,8.91,0,0,0,0,10.74l.58-.4a8.21,8.21,0,0,1-1.54-5Zm8.51,1.27a3.37,3.37,0,0,1-2.15.74,3.18,3.18,0,0,1,0-6.36,3.34,3.34,0,0,1,2.15.75V366.1a4.25,4.25,0,0,0-2.15-.56,4.2,4.2,0,0,0,0,8.4,4.26,4.26,0,0,0,2.15-.57v-1.19Zm1.74,1.64h2.53a2.3,2.3,0,0,0,2.59-2.22,2,2,0,0,0-1.41-2,1.9,1.9,0,0,0,1.15-1.84,2.18,2.18,0,0,0-2.43-2.11h-2.43v8.16Zm4-2.33a1.34,1.34,0,0,1-1.52,1.35h-1.5v-2.73h1.5a1.36,1.36,0,0,1,1.52,1.38Zm-.26-3.6a1.22,1.22,0,0,1-1.38,1.25h-1.38v-2.5h1.38a1.23,1.23,0,0,1,1.38,1.25Zm3,5.93h2.88a4.08,4.08,0,0,0,0-8.16h-2.88v8.16Zm2.87-7.18a3.1,3.1,0,0,1,0,6.2H623.2v-6.2Zm5.57,2.61a3,3,0,0,1,1.58-.49,1.25,1.25,0,0,1,1.36,1.33v.67a2.07,2.07,0,0,0-1.53-.69,1.93,1.93,0,0,0-2,1.92,1.91,1.91,0,0,0,2,1.95,1.82,1.82,0,0,0,1.54-.76v.64h1V370.1a2,2,0,0,0-2.25-2.25,3.92,3.92,0,0,0-1.68.41v1ZM631,372a1.22,1.22,0,0,1,1.28-1.15A1.17,1.17,0,1,1,631,372Zm6-1.09a8.22,8.22,0,0,1-1.53,5l.57.4a8.91,8.91,0,0,0,0-10.74l-.57.39a8.25,8.25,0,0,1,1.53,5Zm2.29,2.39a.64.64,0,0,0,1.28,0,.64.64,0,0,0-1.28,0Zm2.46,0a.64.64,0,0,0,1.28,0,.64.64,0,0,0-1.28,0Zm2.46,0a.64.64,0,0,0,1.28,0,.64.64,0,1,0-1.28,0Zm2.46,0a.64.64,0,0,0,1.28,0,.64.64,0,1,0-1.28,0Zm2.46,0a.64.64,0,0,0,1.28,0,.64.64,0,0,0-1.28,0Zm2.46,0a.64.64,0,0,0,1.28,0,.64.64,0,1,0-1.28,0Zm2.46,0a.64.64,0,0,0,1.28,0,.64.64,0,1,0-1.28,0Zm2.46,0a.64.64,0,0,0,1.28,0,.64.64,0,1,0-1.28,0Zm2.46,0a.64.64,0,0,0,1.28,0,.64.64,0,1,0-1.28,0Zm2.46,0a.64.64,0,0,0,1.28,0,.64.64,0,1,0-1.28,0Zm2.46,0a.64.64,0,0,0,1.28,0,.64.64,0,1,0-1.28,0Zm2.46,0a.64.64,0,0,0,1.28,0,.64.64,0,1,0-1.28,0Zm2.46,0a.64.64,0,0,0,1.28,0,.64.64,0,1,0-1.28,0Zm2.46,0a.64.64,0,0,0,1.28,0,.64.64,0,1,0-1.28,0Zm2.46,0a.64.64,0,0,0,1.28,0,.64.64,0,0,0-1.28,0Zm2.46,0a.64.64,0,0,0,1.28,0,.64.64,0,1,0-1.28,0Zm2.46,0a.64.64,0,0,0,1.28,0,.64.64,0,1,0-1.28,0Zm2.46,0a.64.64,0,0,0,1.28,0,.64.64,0,0,0-1.28,0Zm2.46,0a.64.64,0,0,0,1.28,0,.64.64,0,1,0-1.28,0Zm2.46,0a.64.64,0,0,0,1.28,0,.64.64,0,1,0-1.28,0Zm4.3-3.24h1.2a1.42,1.42,0,0,1,1.49,1.43,1.47,1.47,0,0,1-1.59,1.43,2.67,2.67,0,0,1-1.7-.57v1.18a3.73,3.73,0,0,0,1.75.42,2.39,2.39,0,0,0,2.6-2.34,2.08,2.08,0,0,0-1.32-2.05,1.92,1.92,0,0,0,1.09-1.85,2.19,2.19,0,0,0-2.41-2.16,3.33,3.33,0,0,0-1.62.38v1.13a2.7,2.7,0,0,1,1.59-.48,1.25,1.25,0,1,1,.11,2.5h-1.19v1Zm6.27-2.07h-1v5.84h1v-3.63a1.34,1.34,0,1,1,2.68.09v3.54h1v-3.54a1.3,1.3,0,0,1,1.35-1.44,1.28,1.28,0,0,1,1.33,1.44v3.54h1V370a2,2,0,0,0-2.06-2.19,1.77,1.77,0,0,0-1.78,1.22,1.94,1.94,0,0,0-1.89-1.22,1.77,1.77,0,0,0-1.62.93V368Zm13.73,0v1.15a2.43,2.43,0,0,0-2.19-1.28,3,3,0,0,0,0,5.92,2.46,2.46,0,0,0,2.19-1.22v.94a1.91,1.91,0,0,1-2,2,3.76,3.76,0,0,1-2.06-.64v1.08a4.38,4.38,0,0,0,2.05.51,2.83,2.83,0,0,0,3-3V368Zm0,2.84a2,2,0,1,1-2-2,1.93,1.93,0,0,1,2,2Zm2.86-4.61-.2.36,1.14.66-1.14.66.21.36,1.14-.65v1.29h.42v-1.3l1.13.65.21-.36-1.14-.65,1.14-.66-.21-.37-1.13.66v-1.32h-.42v1.32l-1.15-.65Zm4.49,0-.21.36,1.14.66-1.14.66.22.36,1.14-.65v1.29h.42v-1.3l1.13.65.21-.36-1.14-.65,1.14-.66-.21-.37-1.13.66v-1.32h-.42v1.32l-1.15-.65Z" transform="translate(-503.38 -264.12)"/><path class="cls-2" d="M510.24,357.17a3.32,3.32,0,0,1-2.15.75,3.18,3.18,0,0,1,0-6.36,3.36,3.36,0,0,1,2.15.75V351.1a4.28,4.28,0,0,0-2.15-.56,4.2,4.2,0,0,0,0,8.4,4.28,4.28,0,0,0,2.15-.57v-1.2Zm1.68-2.92a3,3,0,0,1,1.58-.48,1.25,1.25,0,0,1,1.36,1.32v.67a2.07,2.07,0,0,0-1.53-.69,1.93,1.93,0,0,0-2.05,1.92,1.91,1.91,0,0,0,2,1.95,1.82,1.82,0,0,0,1.54-.76v.64h1V355.1a2,2,0,0,0-2.25-2.25,3.92,3.92,0,0,0-1.68.41v1Zm.36,2.74a1.22,1.22,0,0,1,1.28-1.15,1.17,1.17,0,1,1-1.28,1.15Zm6.28-4h-1v5.85h1v-3.48a1.42,1.42,0,0,1,1.48-1.5,1.44,1.44,0,0,1,1.48,1.57v3.41h1v-3.65a2.15,2.15,0,0,0-2.19-2.32,1.87,1.87,0,0,0-1.76,1V353Zm6.66,0h-1v5.85h1v-3.48a1.42,1.42,0,0,1,1.48-1.5,1.44,1.44,0,0,1,1.48,1.57v3.41h1v-3.65a2.15,2.15,0,0,0-2.19-2.32,1.87,1.87,0,0,0-1.76,1V353Zm5.84,1.28a3,3,0,0,1,1.58-.48,1.25,1.25,0,0,1,1.36,1.32v.67a2.07,2.07,0,0,0-1.53-.69,1.93,1.93,0,0,0-2.05,1.92,1.91,1.91,0,0,0,2,1.95,1.82,1.82,0,0,0,1.54-.76v.64h1V355.1a2,2,0,0,0-2.25-2.25,3.92,3.92,0,0,0-1.68.41v1Zm.36,2.74a1.22,1.22,0,0,1,1.28-1.15,1.17,1.17,0,1,1-1.28,1.15Zm6.28.66a2.47,2.47,0,0,0,2.22,1.29,3,3,0,0,0,0-6.09,2.47,2.47,0,0,0-2.22,1.3v-3.61h-1v8.28h1v-1.17Zm0-1.76a2,2,0,1,1,2,2.06,2,2,0,0,1-2-2.06Zm7.52-2.92h-1v5.85h1V353Zm-1.15-1.83a.66.66,0,0,0,1.31,0,.66.66,0,1,0-1.31,0Zm7.65,7.68h1v-8.28h-1v3.61a2.44,2.44,0,0,0-2.2-1.3,3,3,0,0,0,0,6.09,2.43,2.43,0,0,0,2.2-1.29v1.17Zm0-2.93a2,2,0,0,1-2,2.06,2.06,2.06,0,1,1,2-2.06ZM555.5,353h-1v5.85h1V353Zm-1.15-1.83a.66.66,0,0,0,1.32,0,.66.66,0,1,0-1.32,0Zm2.54,4.75a3,3,0,1,0,3-3,3,3,0,0,0-3,3Zm1,0a2,2,0,1,1,4,0,2,2,0,1,1-4,0Zm7.46-5.35h-1v8.28h1v-8.28Zm5.2,5.37a8.27,8.27,0,0,1,1.54-5l-.58-.39a8.91,8.91,0,0,0,0,10.74l.58-.4a8.21,8.21,0,0,1-1.54-5Zm8.51,1.26a3.3,3.3,0,0,1-2.15.75,3.18,3.18,0,0,1,0-6.36,3.32,3.32,0,0,1,2.15.75V351.1a4.22,4.22,0,0,0-2.15-.56,4.2,4.2,0,0,0,0,8.4,4.23,4.23,0,0,0,2.15-.57v-1.2Zm1.74,1.65h2.53c1.47,0,2.6-.82,2.6-2.22a2,2,0,0,0-1.42-2,1.9,1.9,0,0,0,1.15-1.84,2.18,2.18,0,0,0-2.43-2.11h-2.43v8.16Zm4-2.33c0,.94-.7,1.34-1.52,1.34h-1.5v-2.72h1.5a1.36,1.36,0,0,1,1.52,1.38Zm-.26-3.6a1.23,1.23,0,0,1-1.38,1.25h-1.38v-2.5h1.38a1.23,1.23,0,0,1,1.38,1.25Zm3,5.93h2.88a4.08,4.08,0,0,0,0-8.16h-2.88v8.16Zm2.87-7.18a3.1,3.1,0,0,1,0,6.19H588.7v-6.19Zm6.19,4.26a8.22,8.22,0,0,1-1.53,5l.57.4a8.91,8.91,0,0,0,0-10.74l-.57.39a8.25,8.25,0,0,1,1.53,5Zm3.13,2.39a.64.64,0,0,0,1.28,0,.64.64,0,0,0-1.28,0Zm2.46,0a.64.64,0,0,0,1.28,0,.64.64,0,0,0-1.28,0Zm2.46,0a.64.64,0,0,0,1.28,0,.64.64,0,0,0-1.28,0Zm2.46,0a.64.64,0,0,0,1.28,0,.64.64,0,0,0-1.28,0Zm2.46,0a.64.64,0,0,0,1.28,0,.64.64,0,0,0-1.28,0Zm2.46,0a.64.64,0,0,0,1.28,0,.64.64,0,1,0-1.28,0Zm2.46,0a.64.64,0,0,0,1.28,0,.64.64,0,0,0-1.28,0Zm2.46,0a.64.64,0,0,0,1.28,0,.64.64,0,1,0-1.28,0Zm2.46,0a.64.64,0,0,0,1.28,0,.64.64,0,1,0-1.28,0Zm2.46,0a.64.64,0,0,0,1.28,0,.64.64,0,0,0-1.28,0Zm2.46,0a.64.64,0,0,0,1.28,0,.64.64,0,0,0-1.28,0Zm2.46,0a.64.64,0,0,0,1.28,0,.64.64,0,1,0-1.28,0Zm2.46,0a.64.64,0,0,0,1.28,0,.64.64,0,0,0-1.28,0Zm2.46,0a.64.64,0,0,0,1.28,0,.64.64,0,1,0-1.28,0Zm2.46,0a.64.64,0,0,0,1.28,0,.64.64,0,0,0-1.28,0Zm2.46,0a.64.64,0,0,0,1.28,0,.64.64,0,0,0-1.28,0Zm2.46,0a.64.64,0,0,0,1.28,0,.64.64,0,0,0-1.28,0Zm2.46,0a.64.64,0,0,0,1.28,0,.64.64,0,0,0-1.28,0Zm2.46,0a.64.64,0,0,0,1.28,0,.64.64,0,1,0-1.28,0Zm2.46,0a.64.64,0,0,0,1.28,0,.64.64,0,1,0-1.28,0Zm2.46,0a.64.64,0,0,0,1.28,0,.64.64,0,0,0-1.28,0Zm2.46,0a.64.64,0,0,0,1.28,0,.64.64,0,0,0-1.28,0Zm2.46,0a.64.64,0,0,0,1.28,0,.64.64,0,0,0-1.28,0Zm2.46,0a.64.64,0,0,0,1.28,0,.64.64,0,0,0-1.28,0Zm2.46,0a.64.64,0,0,0,1.28,0,.64.64,0,1,0-1.28,0Zm2.46,0a.64.64,0,0,0,1.28,0,.64.64,0,0,0-1.28,0Zm2.46,0a.64.64,0,0,0,1.28,0,.64.64,0,1,0-1.28,0Zm2.46,0a.64.64,0,0,0,1.28,0,.64.64,0,1,0-1.28,0Zm2.46,0a.64.64,0,0,0,1.28,0,.64.64,0,1,0-1.28,0Zm2.46,0a.64.64,0,0,0,1.28,0,.64.64,0,1,0-1.28,0Zm2.46,0a.64.64,0,0,0,1.28,0,.64.64,0,0,0-1.28,0Zm2.46,0a.64.64,0,0,0,1.28,0,.64.64,0,1,0-1.28,0Zm2.46,0a.64.64,0,0,0,1.28,0,.64.64,0,1,0-1.28,0Zm3.83.53h4.82v-1h-1.74v-7.17h-2.86v1h1.83v6.19h-2.05v1Zm8.66-7.27a1.67,1.67,0,0,1,1.73,1.78v2.81a1.72,1.72,0,1,1-3.44,0v-2.81a1.66,1.66,0,0,1,1.71-1.78Zm0-1a2.67,2.67,0,0,0-2.74,2.76v2.87a2.75,2.75,0,1,0,5.5,0V353.3a2.67,2.67,0,0,0-2.76-2.76Zm5.46,2.43h-1v5.85h1v-3.63a1.34,1.34,0,1,1,2.68.09v3.54h1v-3.54a1.3,1.3,0,0,1,1.35-1.44,1.28,1.28,0,0,1,1.33,1.44v3.54h1V355a2,2,0,0,0-2.06-2.19,1.77,1.77,0,0,0-1.78,1.22,1.94,1.94,0,0,0-1.89-1.22,1.77,1.77,0,0,0-1.62.93V353Zm13.73,0v1.16a2.43,2.43,0,0,0-2.19-1.28,3,3,0,0,0,0,5.92,2.46,2.46,0,0,0,2.19-1.22v.94a1.91,1.91,0,0,1-2,2,3.76,3.76,0,0,1-2.06-.64v1.08a4.38,4.38,0,0,0,2.05.51,2.83,2.83,0,0,0,3-3V353Zm0,2.85a2,2,0,1,1-2-2,1.93,1.93,0,0,1,2,2Zm2.86-4.61-.2.36,1.14.66-1.14.66.21.36,1.14-.65v1.29h.42v-1.3l1.13.65.21-.36-1.14-.65,1.14-.66-.21-.37-1.13.66v-1.32h-.42v1.32l-1.15-.65Zm4.49,0-.21.36,1.14.66-1.14.66.22.36,1.14-.65v1.29h.42v-1.3l1.13.65.21-.36-1.14-.65,1.14-.66-.21-.37-1.13.66v-1.32h-.42v1.32l-1.15-.65Z" transform="translate(-503.38 -264.12)"/><path class="cls-2" d="M508.69,340.88v-1.65H506V337.3h2.94v-1.64h-4.64v8.16H506v-2.94Zm5,2.94h1.63v-6h-1.63v3.48a1,1,0,1,1-2-.08v-3.4h-1.63v3.87a2.08,2.08,0,0,0,2.08,2.24,1.73,1.73,0,0,0,1.58-.88v.75Zm4.78-8.28h-1.64v8.28h1.64v-8.28Zm3.14,0H520v8.28h1.65v-8.28Zm8.59.37a4.38,4.38,0,0,0-1.75-.37c-2.12,0-2.85,1.23-2.85,2.37a2.37,2.37,0,0,0,1.42,2.24l1.11.66c.46.26.65.51.65.79,0,.44-.36.75-1,.75a3.52,3.52,0,0,1-2-.7v1.88a5.45,5.45,0,0,0,2.07.42,2.43,2.43,0,0,0,2.74-2.45,2.52,2.52,0,0,0-1.47-2.25l-1.08-.64c-.4-.23-.61-.48-.61-.75,0-.42.32-.73,1-.73a3.36,3.36,0,0,1,1.76.59v-1.81Zm3.19,1.93h-1.63v8.44h1.63v-3.23a2.19,2.19,0,0,0,1.82.9,3.13,3.13,0,0,0,0-6.23,2,2,0,0,0-1.84,1v-.87Zm0,3a1.49,1.49,0,1,1,1.5,1.51,1.49,1.49,0,0,1-1.5-1.51Zm11.17.52a3.69,3.69,0,0,0,.1-.78,2.73,2.73,0,0,0-2.8-2.85A3.12,3.12,0,0,0,542,344a4.77,4.77,0,0,0,2.16-.47v-1.57a3.83,3.83,0,0,1-2,.56,1.48,1.48,0,0,1-1.58-1.12Zm-2.71-2.27a1.13,1.13,0,0,1,1.24,1h-2.58a1.29,1.29,0,0,1,1.34-1Zm8,2.85a2.23,2.23,0,0,1-1.32.42,1.52,1.52,0,0,1,0-3,2.3,2.3,0,0,1,1.32.41V338a3.43,3.43,0,0,0-1.32-.28,3.12,3.12,0,1,0,0,6.23,3.23,3.23,0,0,0,1.32-.29v-1.73Zm3.38,1.89v-4.59h1v-1.39h-1v-1.65l-1.53.34v1.31h-1v1.39h.91v4.59Zm3.6-6h-1.63v6h1.63v-3.47a1,1,0,0,1,1-1,2,2,0,0,1,.88.18v-1.74a2.49,2.49,0,0,0-.47,0,1.63,1.63,0,0,0-1.42.77v-.65Zm6.5,6H565v-6H563.4v3.48a1,1,0,1,1-2-.08v-3.4h-1.63v3.87a2.07,2.07,0,0,0,2.08,2.24,1.73,1.73,0,0,0,1.58-.88v.75Zm4.77-6h-1.63v6h1.63V340.3a1,1,0,1,1,2,.09v3.43h1.63v-3.43a1,1,0,0,1,1-1.07,1,1,0,0,1,1,1.07v3.43h1.63v-3.9a2.07,2.07,0,0,0-2.05-2.2,1.86,1.86,0,0,0-1.77,1.08,1.92,1.92,0,0,0-1.83-1.08,1.76,1.76,0,0,0-1.53.83v-.71Zm17,6h1.7v-8.16h-1.7v3.23H581.4v-3.23h-1.71v8.16h1.71v-3.29h3.73v3.29Zm8.63-2.47a4.52,4.52,0,0,0,.09-.78,2.73,2.73,0,0,0-2.79-2.85,3.12,3.12,0,0,0,.09,6.23,4.73,4.73,0,0,0,2.16-.47v-1.57a3.83,3.83,0,0,1-2,.56,1.48,1.48,0,0,1-1.58-1.12ZM591,339.08a1.13,1.13,0,0,1,1.24,1H589.7a1.29,1.29,0,0,1,1.34-1Zm5.53-1.24h-1.63v6h1.63V340.3a1,1,0,0,1,1-1,.94.94,0,0,1,1,1.07v3.43h1.63v-3.43a1,1,0,0,1,1-1.07.94.94,0,0,1,1,1.07v3.43h1.63v-3.9a2.07,2.07,0,0,0-2-2.2,1.83,1.83,0,0,0-1.76,1.08,2,2,0,0,0-1.84-1.08,1.77,1.77,0,0,0-1.53.83v-.71Zm10.24,0h-1.63v8.44h1.63v-3.23a2.19,2.19,0,0,0,1.83.9,3.13,3.13,0,0,0,0-6.23,2,2,0,0,0-1.84,1v-.87Zm0,3a1.49,1.49,0,1,1,1.5,1.51,1.49,1.49,0,0,1-1.5-1.51Zm13.38,3v-1.65h-2.94v-1.64H620v-1.64h-2.7V337.3h2.94v-1.64h-4.64v8.16ZM624,342l1.06,1.78h1.9l-1.95-3,1.95-3H625L624,339.61l-1.07-1.77H621l2,3-2,3h1.89L624,342Zm5.89,1.78v-4.59h1v-1.39h-1v-1.65l-1.53.34v1.31h-1v1.39h.91v4.59Zm3.6-6h-1.63v6h1.63v-3.47a1,1,0,0,1,1-1,2,2,0,0,1,.88.18v-1.74a2.56,2.56,0,0,0-.47,0,1.63,1.63,0,0,0-1.42.77v-.65Zm3,1.78a3,3,0,0,1,1.53-.45,1,1,0,0,1,1.11,1v.33a2.16,2.16,0,0,0-1.31-.43,1.88,1.88,0,0,0-2,1.92,1.84,1.84,0,0,0,2,1.94,1.72,1.72,0,0,0,1.34-.58v.45h1.63v-3.59a2.25,2.25,0,0,0-2.55-2.51,4.81,4.81,0,0,0-1.72.35v1.55Zm.94,2.39a.8.8,0,0,1,.84-.75.75.75,0,1,1-.84.75Zm8.9-.08a2.23,2.23,0,0,1-1.32.42,1.52,1.52,0,0,1,0-3,2.32,2.32,0,0,1,1.32.41V338a3.47,3.47,0,0,0-1.32-.28,3.12,3.12,0,1,0,0,6.23,3.26,3.26,0,0,0,1.32-.29v-1.73Zm3.38,1.89v-4.59h1v-1.39h-1v-1.65l-1.53.34v1.31h-1v1.39H648v4.59Zm1.87-.53a.64.64,0,0,0,1.28,0,.64.64,0,0,0-1.28,0Zm2.46,0a.64.64,0,0,0,1.28,0,.64.64,0,0,0-1.28,0Zm2.46,0a.64.64,0,0,0,1.28,0,.64.64,0,0,0-1.28,0Zm2.46,0a.64.64,0,0,0,1.28,0,.64.64,0,1,0-1.28,0Zm2.46,0a.64.64,0,0,0,1.28,0,.64.64,0,0,0-1.28,0Zm2.46,0a.64.64,0,0,0,1.28,0,.64.64,0,1,0-1.28,0Zm2.46,0a.64.64,0,0,0,1.28,0,.64.64,0,0,0-1.28,0Zm2.46,0a.64.64,0,0,0,1.28,0,.64.64,0,0,0-1.28,0Zm2.46,0a.64.64,0,0,0,1.28,0,.64.64,0,0,0-1.28,0Zm2.46,0a.64.64,0,0,0,1.28,0,.64.64,0,1,0-1.28,0Zm2.46,0a.64.64,0,0,0,1.28,0,.64.64,0,1,0-1.28,0Zm2.46,0a.64.64,0,0,0,1.28,0,.64.64,0,1,0-1.28,0Zm3.93.53h5.15v-1.65h-1.59v-6.51h-3.25v1.64h1.55v4.87h-1.86v1.65Zm6.68,0h2l2.24-3.6a3.17,3.17,0,0,0,.53-1.74,2.93,2.93,0,1,0-3.18,2.89l-1.63,2.45Zm.68-5.34a1.2,1.2,0,1,1,2.4,0,1.2,1.2,0,1,1-2.4,0Zm6.94-.64h-1.63v6h1.63V340.3a1,1,0,1,1,2,.09v3.43h1.63v-3.43a1,1,0,0,1,1-1.07.94.94,0,0,1,1,1.07v3.43H704v-3.9a2.07,2.07,0,0,0-2.05-2.2,1.84,1.84,0,0,0-1.76,1.08,2,2,0,0,0-1.84-1.08,1.74,1.74,0,0,0-1.52.83v-.71Zm13,0v.79a2.29,2.29,0,0,0-1.9-.91,3,3,0,0,0,0,6,2.35,2.35,0,0,0,1.89-.88v.42a1.52,1.52,0,0,1-1.68,1.55,4,4,0,0,1-2-.6V346a4.52,4.52,0,0,0,2,.45,3,3,0,0,0,3.32-3.3v-5.26Zm-.1,2.91a1.42,1.42,0,1,1-2.84,0,1.42,1.42,0,1,1,2.84,0Zm3.4-4.54-.2.36,1.14.66-1.14.66.21.36,1.14-.65v1.29h.42v-1.3l1.13.65.21-.36-1.14-.65,1.14-.66-.21-.37-1.13.66v-1.32h-.42v1.32l-1.15-.65Zm4.49,0-.21.36,1.14.66-1.14.66.22.36,1.14-.65v1.29h.42v-1.3l1.13.65.21-.36-1.14-.65,1.14-.66-.21-.37-1.13.66v-1.32h-.42v1.32l-1.15-.65Z" transform="translate(-503.38 -264.12)"/><path class="cls-2" d="M503.67,328.82h1.25l.41-2.23h1.81l.43,2.23h1.35l-1.68-8.58h-1.83l-1.74,8.58Zm1.88-3.33.68-3.73h0l.66,3.73Zm5.17,3.33h1.18v-6.4h0L513,326H514l1.1-3.59h0v6.4h1.18v-8.56h-1.59l-1.14,3.55h0l-1.12-3.55h-1.66v8.56Zm9.85.12a2.1,2.1,0,0,0,2.29-2.22v-4.48a2,2,0,0,0-2.28-2.11,2.09,2.09,0,0,0-2.29,2.18v4.44a2,2,0,0,0,2.28,2.19Zm0-1.19a.88.88,0,0,1-.92-1v-4.54a.93.93,0,1,1,1.85,0v4.56a.88.88,0,0,1-.93,1ZM527,329a2.08,2.08,0,0,0,2.26-2.18v-6.51H528v6.51a.86.86,0,0,1-.89,1,.89.89,0,0,1-.92-1v-6.49h-1.35v6.57A1.94,1.94,0,0,0,527,329Zm4.34-.13h1.18V323h0l2.17,5.85H536v-8.56h-1.18v5.31h0l-2-5.31h-1.39v8.56Zm8,0h1.35V321.4h1.61v-1.14h-4.59v1.14h1.63v7.42Zm7.35,0H548v-3.29h.83c1.45,0,2.1-1.06,2.1-2.72s-.62-2.55-2-2.55h-2.24v8.56Zm1.34-4.39v-3h.7c.67,0,.91.54.91,1.44,0,1.06-.31,1.6-1,1.6Zm4.87,4.39h3.76v-1.15h-2.42V325h1.93v-1.14h-1.93v-2.42h2.41v-1.13h-3.75v8.56Zm5.68,0h1.34v-3.57h.71l1,3.57H563L561.82,325c.66-.27,1.08-1,1.08-2.24,0-1.62-.78-2.45-2.17-2.45h-2.17v8.56Zm1.34-4.57v-2.86h.72c.69,0,.94.6.94,1.43s-.32,1.43-.91,1.43Zm9.56,4.69a2,2,0,0,0,2.08-2.16,3.39,3.39,0,0,0-1.17-2.43l-.83-.86c-.42-.46-.86-.91-.86-1.4s.26-.89.75-.89.76.45.84,1.17l1.19,0c-.08-1.68-1-2.22-2-2.22a1.92,1.92,0,0,0-2,2.06,3.12,3.12,0,0,0,1.13,2.25l.9,1a2.13,2.13,0,0,1,.78,1.45c0,.48-.19,1-.78,1s-.86-.6-.92-1.25l-1.24,0c.08,1.46.85,2.31,2.15,2.31Zm4-.12h3.75v-1.15h-2.42V325h1.93v-1.14h-1.93v-2.42h2.41v-1.13h-3.74v8.56Zm5.67,0h1.34v-3.57h.71l1,3.57h1.39L582.36,325c.66-.27,1.07-1,1.07-2.24,0-1.62-.77-2.45-2.17-2.45h-2.17v8.56Zm1.34-4.57v-2.86h.73c.68,0,.93.6.93,1.43s-.32,1.43-.91,1.43Zm6.09,4.62h1.4l1.63-8.61h-1.21l-1.05,6.1h0l-1-6.1h-1.34l1.66,8.61Zm4.7-.05h1.35v-8.56h-1.35v8.56Zm3.46,0h1.19V323h0l2.17,5.85h1.23v-8.56H598.1v5.31h0l-2-5.31h-1.39v8.56Zm8.9.12a1.92,1.92,0,0,0,2.17-2v-2.66h-2.29v1h1v1.55a.79.79,0,0,1-.89.88.87.87,0,0,1-.93-1v-4.52a.88.88,0,0,1,.93-1,.85.85,0,0,1,.94.87v.8h1.22V322a1.94,1.94,0,0,0-2.17-1.89,2.07,2.07,0,0,0-2.28,2.1v4.63a2,2,0,0,0,2.29,2.09Zm4.06-.12h1.21v-1.65h-1.21v1.65Zm0-4.68h1.2v-1.63h-1.2v1.63Z" transform="translate(-503.38 -264.12)"/><path class="cls-2" d="M508.29,295a3.53,3.53,0,0,0-1.75-.44c-1.85,0-2.55,1.09-2.55,2.13a2.2,2.2,0,0,0,1.27,2l1.4.89c.6.37.89.76.89,1.2,0,.63-.53,1.2-1.51,1.2a3.12,3.12,0,0,1-2-.74v1.22a4.41,4.41,0,0,0,2,.49,2.28,2.28,0,0,0,2.58-2.22,2.34,2.34,0,0,0-1.38-2.1l-1.42-.89a1.29,1.29,0,0,1-.75-1.08c0-.68.54-1.14,1.43-1.14a3,3,0,0,1,1.77.64V295Zm7.12,5.28a3.83,3.83,0,0,0,.05-.54,2.77,2.77,0,0,0-2.82-2.87,3,3,0,0,0,.06,6.09,4.11,4.11,0,0,0,2.17-.61v-1a3.59,3.59,0,0,1-2.1.74,2,2,0,0,1-2-1.77Zm-2.77-2.54a1.76,1.76,0,0,1,1.85,1.75h-3.76a1.87,1.87,0,0,1,1.91-1.75Zm5.12-.75h-1v5.85h1v-3.48c0-.9.46-1.5,1.3-1.5a1.85,1.85,0,0,1,.7.14v-1.07a2.63,2.63,0,0,0-.49-.06,1.62,1.62,0,0,0-1.51.92V297Zm2.48,0,2.33,5.85h1.06L526,297h-1.06l-1.81,4.62L521.3,297Zm7.83,0h-1v5.85h1V297Zm-1.15-1.83a.63.63,0,0,0,.64.65.64.64,0,0,0,.68-.65.65.65,0,0,0-.68-.66.64.64,0,0,0-.64.66Zm3.92,1.83h-1v5.85h1v-3.48a1.48,1.48,0,1,1,2.95.07v3.41h1v-3.65a2.15,2.15,0,0,0-2.2-2.32,1.86,1.86,0,0,0-1.75,1V297Zm10.33,0v1.16a2.43,2.43,0,0,0-2.19-1.28,3,3,0,0,0,0,5.92,2.46,2.46,0,0,0,2.19-1.22v.94a1.91,1.91,0,0,1-2,2,3.76,3.76,0,0,1-2.06-.64v1.08a4.38,4.38,0,0,0,2,.51,2.83,2.83,0,0,0,3-3V297Zm0,2.85a2,2,0,1,1-2-2,1.93,1.93,0,0,1,2,2Zm5.87-2.67a3.2,3.2,0,0,0-1.34-.3c-1.28,0-2,.7-2,1.61a1.58,1.58,0,0,0,.86,1.41l1.08.64c.45.27.61.5.61.8s-.37.75-1,.75a2.37,2.37,0,0,1-1.46-.55v1.08a3.5,3.5,0,0,0,1.51.35c1.24,0,2-.64,2-1.63a1.69,1.69,0,0,0-1-1.52l-1-.61c-.35-.21-.52-.38-.52-.69s.33-.75.95-.75a2.26,2.26,0,0,1,1.33.47v-1.06Zm4.83,5.67h1v-3.27h1.37a2.45,2.45,0,1,0,0-4.89h-2.4v8.16Zm3.9-5.7a1.36,1.36,0,0,1-1.5,1.45h-1.37v-2.93h1.37a1.38,1.38,0,0,1,1.5,1.48Zm7.46,3.14a2.88,2.88,0,0,0-2.77-3.41,3,3,0,0,0,.06,6.09,4.11,4.11,0,0,0,2.17-.61v-1a3.56,3.56,0,0,1-2.1.74,2,2,0,0,1-2-1.77Zm-2.77-2.54a1.75,1.75,0,0,1,1.85,1.75h-3.76a1.88,1.88,0,0,1,1.91-1.75Zm5.12-.75h-1v5.85h1v-3.48c0-.9.46-1.5,1.3-1.5a1.91,1.91,0,0,1,.71.14v-1.07a2.85,2.85,0,0,0-.49-.06,1.62,1.62,0,0,0-1.52.92V297Zm11.85,4.2a3.32,3.32,0,0,1-2.15.75,3.18,3.18,0,0,1,0-6.36,3.34,3.34,0,0,1,2.15.75V295.1a4.25,4.25,0,0,0-2.15-.56,4.2,4.2,0,0,0,0,8.4,4.26,4.26,0,0,0,2.15-.57v-1.2Zm1-1.28a3,3,0,1,0,3-3,3,3,0,0,0-3,3Zm1,0a2,2,0,1,1,4,0,2,2,0,1,1-4,0Zm7.44-2.92h-1v5.85h1v-3.48a1.41,1.41,0,0,1,1.47-1.5,1.44,1.44,0,0,1,1.48,1.57v3.41h1v-3.65a2.16,2.16,0,0,0-2.2-2.32,1.86,1.86,0,0,0-1.75,1V297Zm7,5.85v-5h1.15V297h-1.15v-1.68l-.95.26V297h-1.14v.87h1.1v5Zm2.39-4.57a3,3,0,0,1,1.58-.48,1.25,1.25,0,0,1,1.36,1.32v.67a2.06,2.06,0,0,0-1.52-.69,1.94,1.94,0,0,0-2.06,1.92,1.91,1.91,0,0,0,2,1.95,1.81,1.81,0,0,0,1.54-.76v.64h1V299.1a2,2,0,0,0-2.26-2.25,3.92,3.92,0,0,0-1.68.41v1Zm.36,2.74a1.23,1.23,0,0,1,1.28-1.15,1.17,1.17,0,1,1-1.28,1.15Zm6.29-4h-1v5.85h1V297Zm-1.15-1.83a.66.66,0,0,0,1.31,0,.66.66,0,1,0-1.31,0Zm3.92,1.83h-1v5.85h1v-3.48a1.41,1.41,0,0,1,1.48-1.5,1.43,1.43,0,0,1,1.47,1.57v3.41h1v-3.65a2.15,2.15,0,0,0-2.2-2.32,1.86,1.86,0,0,0-1.75,1V297Zm11,3.29a3.83,3.83,0,0,0,0-.54,2.77,2.77,0,0,0-2.82-2.87,3,3,0,0,0,.06,6.09,4.11,4.11,0,0,0,2.17-.61v-1a3.59,3.59,0,0,1-2.1.74,2,2,0,0,1-2-1.77Zm-2.77-2.54a1.76,1.76,0,0,1,1.85,1.75H612a1.87,1.87,0,0,1,1.91-1.75Zm5.12-.75h-1v5.85h1v-3.48c0-.9.46-1.5,1.3-1.5a1.85,1.85,0,0,1,.7.14v-1.07a2.63,2.63,0,0,0-.49-.06,1.62,1.62,0,0,0-1.51.92V297Zm2.87,5.32a.64.64,0,0,0,1.28,0,.64.64,0,1,0-1.28,0Zm2.36,0a.64.64,0,0,0,1.28,0,.64.64,0,0,0-1.28,0Zm2.36,0a.64.64,0,0,0,1.28,0,.64.64,0,1,0-1.28,0Zm2.36,0a.64.64,0,0,0,1.28,0,.64.64,0,0,0-1.28,0Zm2.36,0a.64.64,0,0,0,1.28,0,.64.64,0,0,0-1.28,0Zm2.36,0a.64.64,0,0,0,1.28,0,.64.64,0,0,0-1.28,0Zm2.36,0a.64.64,0,0,0,1.28,0,.64.64,0,1,0-1.28,0Zm2.36,0a.64.64,0,0,0,1.28,0,.64.64,0,0,0-1.28,0Zm2.36,0a.64.64,0,0,0,1.28,0,.64.64,0,0,0-1.28,0Zm2.36,0a.64.64,0,0,0,1.28,0,.64.64,0,1,0-1.28,0Zm2.36,0a.64.64,0,0,0,1.28,0,.64.64,0,0,0-1.28,0Zm2.36,0a.64.64,0,0,0,1.28,0,.64.64,0,1,0-1.28,0Zm2.36,0a.64.64,0,0,0,1.28,0,.64.64,0,0,0-1.28,0Zm2.36,0a.64.64,0,0,0,1.28,0,.64.64,0,1,0-1.28,0Zm2.36,0a.64.64,0,0,0,1.28,0,.64.64,0,0,0-1.28,0Zm2.36,0a.64.64,0,0,0,1.28,0,.64.64,0,0,0-1.28,0Zm2.36,0a.64.64,0,0,0,1.28,0,.64.64,0,0,0-1.28,0Zm2.36,0a.64.64,0,0,0,1.28,0,.64.64,0,1,0-1.28,0Zm2.36,0a.64.64,0,0,0,1.28,0,.64.64,0,1,0-1.28,0Zm2.36,0a.64.64,0,0,0,1.28,0,.64.64,0,0,0-1.28,0Zm2.36,0a.64.64,0,0,0,1.28,0,.64.64,0,0,0-1.28,0Zm2.36,0a.64.64,0,0,0,1.28,0,.64.64,0,0,0-1.28,0Zm2.36,0a.64.64,0,0,0,1.28,0,.64.64,0,1,0-1.28,0Zm2.36,0a.64.64,0,0,0,1.28,0,.64.64,0,0,0-1.28,0Zm2.36,0a.64.64,0,0,0,1.28,0,.64.64,0,0,0-1.28,0Zm2.36,0a.64.64,0,0,0,1.28,0,.64.64,0,1,0-1.28,0Zm2.36,0a.64.64,0,0,0,1.28,0,.64.64,0,0,0-1.28,0Zm2.36,0a.64.64,0,0,0,1.28,0,.64.64,0,1,0-1.28,0Zm2.36,0a.64.64,0,0,0,1.28,0,.64.64,0,0,0-1.28,0Zm2.36,0a.64.64,0,0,0,1.28,0,.64.64,0,0,0-1.28,0Zm2.36,0a.64.64,0,0,0,1.28,0,.64.64,0,0,0-1.28,0Zm2.36,0a.64.64,0,0,0,1.28,0,.64.64,0,1,0-1.28,0Zm2.36,0a.64.64,0,0,0,1.28,0,.64.64,0,0,0-1.28,0Zm2.36,0a.64.64,0,0,0,1.28,0,.64.64,0,0,0-1.28,0Zm2.36,0a.64.64,0,0,0,1.28,0,.64.64,0,1,0-1.28,0Zm2.36,0a.64.64,0,0,0,1.28,0,.64.64,0,0,0-1.28,0Zm5.09-3.24h1.2a1.41,1.41,0,0,1,1.49,1.43,1.46,1.46,0,0,1-1.58,1.43,2.7,2.7,0,0,1-1.71-.57v1.18a3.78,3.78,0,0,0,1.76.42,2.4,2.4,0,0,0,2.6-2.34,2.08,2.08,0,0,0-1.32-2.05,1.94,1.94,0,0,0,1.09-1.85,2.2,2.2,0,0,0-2.41-2.16,3.27,3.27,0,0,0-1.62.38v1.13a2.65,2.65,0,0,1,1.58-.48,1.25,1.25,0,1,1,.11,2.5h-1.19v1Zm8-3.5a1.67,1.67,0,0,1,1.73,1.78v2.81a1.73,1.73,0,1,1-3.45,0v-2.81a1.66,1.66,0,0,1,1.72-1.78Zm0-1a2.67,2.67,0,0,0-2.75,2.76v2.87a2.76,2.76,0,1,0,5.51,0V297.3a2.67,2.67,0,0,0-2.76-2.76Z" transform="translate(-503.38 -264.12)"/><path class="cls-2" d="M508.29,280a3.53,3.53,0,0,0-1.75-.44c-1.85,0-2.55,1.09-2.55,2.13a2.2,2.2,0,0,0,1.27,2l1.4.89c.6.37.89.76.89,1.2,0,.63-.53,1.2-1.51,1.2a3.12,3.12,0,0,1-2-.74v1.22a4.41,4.41,0,0,0,2,.49,2.28,2.28,0,0,0,2.58-2.22,2.34,2.34,0,0,0-1.38-2.1l-1.42-.89a1.29,1.29,0,0,1-.75-1.08c0-.68.54-1.14,1.43-1.14a3,3,0,0,1,1.77.64V280Zm7.12,5.28a3.83,3.83,0,0,0,.05-.54,2.77,2.77,0,0,0-2.82-2.87,3,3,0,0,0,.06,6.09,4.11,4.11,0,0,0,2.17-.61v-1a3.59,3.59,0,0,1-2.1.74,2,2,0,0,1-2-1.77Zm-2.77-2.54a1.76,1.76,0,0,1,1.85,1.75h-3.76a1.87,1.87,0,0,1,1.91-1.75Zm5.12-.75h-1v5.85h1v-3.48c0-.9.46-1.5,1.3-1.5a1.85,1.85,0,0,1,.7.14v-1.07a2.63,2.63,0,0,0-.49-.06,1.62,1.62,0,0,0-1.51.92V282Zm2.48,0,2.33,5.85h1.06L526,282h-1.06l-1.81,4.62L521.3,282Zm7.83,0h-1v5.85h1V282Zm-1.15-1.83a.63.63,0,0,0,.64.65.64.64,0,0,0,.68-.65.65.65,0,0,0-.68-.66.64.64,0,0,0-.64.66Zm3.92,1.83h-1v5.85h1v-3.48a1.48,1.48,0,1,1,2.95.07v3.41h1v-3.65a2.15,2.15,0,0,0-2.2-2.32,1.86,1.86,0,0,0-1.75,1V282Zm10.33,0v1.16a2.43,2.43,0,0,0-2.19-1.28,3,3,0,0,0,0,5.92,2.46,2.46,0,0,0,2.19-1.22v.94a1.91,1.91,0,0,1-2,2,3.76,3.76,0,0,1-2.06-.64v1.08a4.38,4.38,0,0,0,2,.51,2.83,2.83,0,0,0,3-3V282Zm0,2.85a2,2,0,1,1-2-2,1.93,1.93,0,0,1,2,2ZM551,280a3.6,3.6,0,0,0-1.76-.44c-1.84,0-2.55,1.09-2.55,2.13a2.2,2.2,0,0,0,1.27,2l1.4.89c.6.37.89.76.89,1.2,0,.63-.53,1.2-1.51,1.2a3.14,3.14,0,0,1-2-.74v1.22a4.48,4.48,0,0,0,2,.49,2.28,2.28,0,0,0,2.58-2.22,2.34,2.34,0,0,0-1.38-2.1l-1.41-.89a1.28,1.28,0,0,1-.76-1.08c0-.68.54-1.14,1.43-1.14a3,3,0,0,1,1.78.64V280Zm2.79,2h-1v5.85h1V282Zm-1.15-1.83a.66.66,0,0,0,1.32,0,.66.66,0,1,0-1.32,0Zm6.37,2.67V282h-3.73v.87h2.52L555.14,287v.84H559V287h-2.67l2.67-4.14Zm6.64,2.45a3.83,3.83,0,0,0,0-.54,2.77,2.77,0,0,0-2.82-2.87,3,3,0,0,0,.06,6.09,4.14,4.14,0,0,0,2.17-.61v-1a3.59,3.59,0,0,1-2.1.74,2,2,0,0,1-2-1.77Zm-2.77-2.54a1.74,1.74,0,0,1,1.84,1.75H561a1.87,1.87,0,0,1,1.91-1.75Zm4.78,4.57a.64.64,0,0,0,1.28,0,.64.64,0,1,0-1.28,0Zm2.36,0a.64.64,0,0,0,1.28,0,.64.64,0,0,0-1.28,0Zm2.36,0a.64.64,0,0,0,1.28,0,.64.64,0,1,0-1.28,0Zm2.36,0a.64.64,0,0,0,1.28,0,.64.64,0,0,0-1.28,0Zm2.36,0a.64.64,0,0,0,1.28,0,.64.64,0,1,0-1.28,0Zm2.36,0a.64.64,0,0,0,1.28,0,.64.64,0,0,0-1.28,0Zm2.36,0a.64.64,0,0,0,1.28,0,.64.64,0,0,0-1.28,0Zm2.36,0a.64.64,0,0,0,1.28,0,.64.64,0,1,0-1.28,0Zm2.36,0a.64.64,0,0,0,1.28,0,.64.64,0,0,0-1.28,0Zm2.36,0a.64.64,0,0,0,1.28,0,.64.64,0,1,0-1.28,0Zm2.36,0a.64.64,0,0,0,1.28,0,.64.64,0,0,0-1.28,0Zm2.36,0a.64.64,0,0,0,1.28,0,.64.64,0,1,0-1.28,0Zm2.36,0a.64.64,0,0,0,1.28,0,.64.64,0,0,0-1.28,0Zm2.36,0a.64.64,0,0,0,1.28,0,.64.64,0,0,0-1.28,0Zm2.36,0a.64.64,0,0,0,1.28,0,.64.64,0,0,0-1.28,0Zm2.36,0a.64.64,0,0,0,1.28,0,.64.64,0,1,0-1.28,0Zm2.36,0a.64.64,0,0,0,1.28,0,.64.64,0,1,0-1.28,0Zm2.36,0a.64.64,0,0,0,1.28,0,.64.64,0,0,0-1.28,0Zm2.36,0a.64.64,0,0,0,1.28,0,.64.64,0,0,0-1.28,0Zm2.36,0a.64.64,0,0,0,1.28,0,.64.64,0,0,0-1.28,0Zm2.36,0a.64.64,0,0,0,1.28,0,.64.64,0,1,0-1.28,0Zm2.36,0a.64.64,0,0,0,1.28,0,.64.64,0,0,0-1.28,0Zm2.36,0a.64.64,0,0,0,1.28,0,.64.64,0,0,0-1.28,0Zm2.36,0a.64.64,0,0,0,1.28,0,.64.64,0,1,0-1.28,0Zm2.36,0a.64.64,0,0,0,1.28,0,.64.64,0,0,0-1.28,0Zm2.36,0a.64.64,0,0,0,1.28,0,.64.64,0,1,0-1.28,0Zm2.36,0a.64.64,0,0,0,1.28,0,.64.64,0,0,0-1.28,0Zm2.36,0a.64.64,0,0,0,1.28,0,.64.64,0,0,0-1.28,0Zm2.36,0a.64.64,0,0,0,1.28,0,.64.64,0,0,0-1.28,0Zm2.36,0a.64.64,0,0,0,1.28,0,.64.64,0,1,0-1.28,0Zm2.36,0a.64.64,0,0,0,1.28,0,.64.64,0,0,0-1.28,0Zm2.36,0a.64.64,0,0,0,1.28,0,.64.64,0,0,0-1.28,0Zm2.36,0a.64.64,0,0,0,1.28,0,.64.64,0,1,0-1.28,0Zm2.36,0a.64.64,0,0,0,1.28,0,.64.64,0,0,0-1.28,0Zm2.36,0a.64.64,0,0,0,1.28,0,.64.64,0,1,0-1.28,0Zm2.36,0a.64.64,0,0,0,1.28,0,.64.64,0,0,0-1.28,0Zm2.36,0a.64.64,0,0,0,1.28,0,.64.64,0,1,0-1.28,0Zm2.36,0a.64.64,0,0,0,1.28,0,.64.64,0,0,0-1.28,0Zm2.36,0a.64.64,0,0,0,1.28,0,.64.64,0,0,0-1.28,0Zm2.36,0a.64.64,0,0,0,1.28,0,.64.64,0,0,0-1.28,0Zm2.36,0a.64.64,0,0,0,1.28,0,.64.64,0,1,0-1.28,0Zm2.36,0a.64.64,0,0,0,1.28,0,.64.64,0,1,0-1.28,0Zm2.36,0a.64.64,0,0,0,1.28,0,.64.64,0,0,0-1.28,0Zm2.36,0a.64.64,0,0,0,1.28,0,.64.64,0,0,0-1.28,0Zm2.36,0a.64.64,0,0,0,1.28,0,.64.64,0,0,0-1.28,0Zm2.36,0a.64.64,0,0,0,1.28,0,.64.64,0,1,0-1.28,0Zm2.36,0a.64.64,0,0,0,1.28,0,.64.64,0,0,0-1.28,0Zm2.36,0a.64.64,0,0,0,1.28,0,.64.64,0,0,0-1.28,0Zm2.36,0a.64.64,0,0,0,1.28,0,.64.64,0,1,0-1.28,0Zm2.36,0a.64.64,0,0,0,1.28,0,.64.64,0,0,0-1.28,0Zm2.36,0a.64.64,0,0,0,1.28,0,.64.64,0,1,0-1.28,0Zm2.36,0a.64.64,0,0,0,1.28,0,.64.64,0,0,0-1.28,0Zm2.36,0a.64.64,0,0,0,1.28,0,.64.64,0,0,0-1.28,0Zm2.36,0a.64.64,0,0,0,1.28,0,.64.64,0,0,0-1.28,0Zm2.36,0a.64.64,0,0,0,1.28,0,.64.64,0,1,0-1.28,0Zm2.36,0a.64.64,0,0,0,1.28,0,.64.64,0,0,0-1.28,0Zm2.36,0a.64.64,0,0,0,1.28,0,.64.64,0,0,0-1.28,0Zm3.38.53H708v-1h-1.74v-7.17H703.4v1h1.83v6.19h-2.05v1Zm7-5.85h-1v5.85h1v-3.63a1.34,1.34,0,1,1,2.68.09v3.54h1v-3.54a1.34,1.34,0,1,1,2.67,0v3.54h1V284a2,2,0,0,0-2-2.19,1.78,1.78,0,0,0-1.79,1.22,1.93,1.93,0,0,0-1.88-1.22,1.78,1.78,0,0,0-1.63.93V282Zm10.07-2.43h-1v8.28h1v-8.28Z" transform="translate(-503.38 -264.12)"/><path class="cls-2" d="M505.9,272.94a2,2,0,0,0,2.09-2.16,3.39,3.39,0,0,0-1.17-2.43l-.83-.86c-.42-.46-.87-.91-.87-1.4s.27-.89.76-.89.76.45.84,1.17l1.19,0c-.09-1.68-1-2.22-2-2.22a1.92,1.92,0,0,0-2.05,2.06,3.12,3.12,0,0,0,1.13,2.25l.9,1a2.13,2.13,0,0,1,.78,1.45c0,.48-.19,1-.78,1s-.86-.6-.92-1.25l-1.24,0c.08,1.46.85,2.31,2.14,2.31Zm6.1,0a2.08,2.08,0,0,0,2.26-2.18v-6.51H513v6.51a.85.85,0,0,1-.89,1,.89.89,0,0,1-.91-1v-6.49h-1.35v6.57A1.94,1.94,0,0,0,512,273Zm4.33-.13h1.35v-3.29h.82c1.46,0,2.1-1.06,2.1-2.72s-.62-2.55-2-2.55h-2.25v8.56Zm1.35-4.39v-3h.69c.68,0,.92.54.92,1.44,0,1.06-.32,1.6-1,1.6Zm4.87,4.39h1.34v-3.29h.83c1.45,0,2.1-1.06,2.1-2.72s-.62-2.55-2-2.55h-2.24v8.56Zm1.34-4.39v-3h.7c.67,0,.91.54.91,1.44,0,1.06-.31,1.6-1,1.6Zm4.88,4.39h3.75v-1.15H530.1v-7.41h-1.33v8.56Zm5.55,0h3.76v-1.15h-2.43V269h1.93v-1.14h-1.93v-2.42h2.41v-1.13h-3.74v8.56Zm5.68,0h1.18v-6.4h0l1.1,3.59h.93l1.1-3.59h0v6.4h1.19v-8.56H544l-1.14,3.55h0l-1.12-3.55H540v8.56Zm7.68,0h3.75v-1.15H549V269h1.93v-1.14H549v-2.42h2.41v-1.13h-3.74v8.56Zm5.67,0h1.19V267h0l2.18,5.85H558v-8.56h-1.19v5.31h0l-2-5.31h-1.39v8.56Zm8,0h1.35V265.4h1.6v-1.14H559.7v1.14h1.63v7.42Zm7.35,0H570V269h1.92v-1.15H570v-2.46h2.41v-1.13h-3.74v8.56Zm4.75,0h1.25l.4-2.23h1.82l.43,2.23h1.34L577,264.24h-1.82l-1.74,8.58Zm1.87-3.33.68-3.73h0l.66,3.73Zm7.22,3.45a1.94,1.94,0,0,0,2.11-2v-.88h-1.21v.8a.83.83,0,0,1-.88.89.87.87,0,0,1-.94-1v-4.53a.86.86,0,0,1,.92-1,.83.83,0,0,1,.9.9V267h1.21V266a1.9,1.9,0,0,0-2.11-1.91,2.06,2.06,0,0,0-2.28,2.08v4.65a2,2,0,0,0,2.28,2.08Zm5.18-.12H589V265.4h1.61v-1.14h-4.59v1.14h1.64v7.42Zm6.45.12a2,2,0,0,0,2.09-2.16,3.36,3.36,0,0,0-1.18-2.43l-.82-.86c-.42-.46-.87-.91-.87-1.4s.27-.89.76-.89.75.45.84,1.17l1.19,0c-.09-1.68-.95-2.22-2-2.22a1.92,1.92,0,0,0-2.05,2.06,3.14,3.14,0,0,0,1.12,2.25l.9,1a2.09,2.09,0,0,1,.78,1.45c0,.48-.19,1-.78,1s-.85-.6-.91-1.25l-1.25,0c.09,1.46.86,2.31,2.15,2.31Zm3.84-.12h1.21v-1.65H598v1.65Zm0-4.68h1.2v-1.63H598v1.63Z" transform="translate(-503.38 -264.12)"/><polygon class="cls-2" points="95.42 144.68 93.43 144.68 93.43 142.7 91.41 142.7 91.41 144.68 89.42 144.68 89.42 146.71 91.41 146.71 91.41 148.7 93.44 148.7 93.44 146.71 95.42 146.71 95.42 144.68 95.42 144.68"/><polygon class="cls-2" points="173.99 144.97 172.14 144.97 172.14 143.13 170.26 143.13 170.26 144.97 168.42 144.97 168.42 146.85 170.27 146.85 170.27 148.7 172.15 148.7 172.15 146.85 173.99 146.85 173.99 144.97 173.99 144.97"/><polygon class="cls-2" points="111.01 159.97 109.16 159.97 109.16 158.13 107.28 158.13 107.28 159.97 105.44 159.97 105.44 161.85 107.29 161.85 107.29 163.7 109.17 163.7 109.17 161.85 111.01 161.85 111.01 159.97 111.01 159.97"/><polygon class="cls-2" points="83.87 174.97 82.02 174.97 82.02 173.13 80.14 173.13 80.14 174.97 78.3 174.97 78.3 176.85 80.15 176.85 80.15 178.7 82.03 178.7 82.03 176.85 83.87 176.85 83.87 174.97 83.87 174.97"/><polygon class="cls-2" points="150.18 200.97 148.33 200.97 148.33 199.13 146.45 199.13 146.45 200.97 144.61 200.97 144.61 202.85 146.46 202.85 146.46 204.7 148.34 204.7 148.34 202.85 150.18 202.85 150.18 200.97 150.18 200.97"/><polygon class="cls-2" points="41.61 215.97 39.77 215.97 39.77 214.13 37.89 214.13 37.89 215.97 36.05 215.97 36.05 217.85 37.9 217.85 37.9 219.7 39.77 219.7 39.77 217.85 41.61 217.85 41.61 215.97 41.61 215.97"/><polygon class="cls-2" points="170.57 215.97 168.73 215.97 168.73 214.13 166.85 214.13 166.85 215.97 165.01 215.97 165.01 217.85 166.86 217.85 166.86 219.7 168.74 219.7 168.74 217.85 170.57 217.85 170.57 215.97 170.57 215.97"/><polygon class="cls-2" points="68.76 230.97 66.91 230.97 66.91 229.13 65.03 229.13 65.03 230.97 63.19 230.97 63.19 232.85 65.04 232.85 65.04 234.7 66.92 234.7 66.92 232.85 68.76 232.85 68.76 230.97 68.76 230.97"/><g class="cls-3"><line class="cls-4" y1="47.7" x2="217.56" y2="47.7"/><path class="cls-5" d="M503.38,382.52H721m-217.57,70H721m-217.57,56H721" transform="translate(-503.38 -264.12)"/></g><polygon class="cls-2" points="5.57 255.97 3.72 255.97 3.72 254.13 1.84 254.13 1.84 255.97 0 255.97 0 257.85 1.85 257.85 1.85 259.7 3.73 259.7 3.73 257.85 5.57 257.85 5.57 255.97 5.57 255.97"/><path class="cls-2" d="M503.78,394.74a4.2,4.2,0,1,0,4.2-4.2,4.12,4.12,0,0,0-4.2,4.2Zm1.75,0a2.45,2.45,0,1,1,2.45,2.51,2.46,2.46,0,0,1-2.45-2.51Zm9.42-1.9h-1.63v6H515v-3.47a1,1,0,0,1,1-1,2,2,0,0,1,.88.18v-1.74a2.56,2.56,0,0,0-.47,0,1.63,1.63,0,0,0-1.42.77v-.65Zm7.11,0v.79a2.29,2.29,0,0,0-1.9-.91,3,3,0,0,0,0,6,2.35,2.35,0,0,0,1.89-.88v.42a1.52,1.52,0,0,1-1.68,1.55,4,4,0,0,1-2-.6V401a4.47,4.47,0,0,0,2,.45,3,3,0,0,0,3.33-3.3v-5.26Zm-.1,2.91a1.42,1.42,0,1,1-2.84,0,1.42,1.42,0,1,1,2.84,0Zm3.49-1.13a3.1,3.1,0,0,1,1.54-.45,1,1,0,0,1,1.1,1v.33a2.14,2.14,0,0,0-1.31-.43,1.88,1.88,0,0,0-2,1.92,1.85,1.85,0,0,0,2,1.94,1.7,1.7,0,0,0,1.33-.58v.45h1.63v-3.59a2.24,2.24,0,0,0-2.54-2.51,4.87,4.87,0,0,0-1.73.35v1.55Zm.95,2.39a.79.79,0,0,1,.84-.75.75.75,0,1,1-.84.75Zm6.38-4.17h-1.63v6h1.63v-3.47a1,1,0,0,1,1-1,1,1,0,0,1,1,1.1v3.4h1.64V395a2.08,2.08,0,0,0-2.11-2.24,1.78,1.78,0,0,0-1.58.88v-.76Zm6.75,0H537.9v6h1.63v-6Zm-1.78-1.74a.94.94,0,0,0,1,1,1,1,0,0,0,0-1.93,1,1,0,0,0-1,1Zm7.41,5.83a2.23,2.23,0,0,1-1.32.42,1.52,1.52,0,0,1,0-3,2.32,2.32,0,0,1,1.32.41V393a3.47,3.47,0,0,0-1.32-.28,3.12,3.12,0,1,0,0,6.23,3.26,3.26,0,0,0,1.32-.29v-1.73Zm8.84,1.89v-1.65h-2.94v-1.64h2.7v-1.64h-2.7V392.3H554v-1.64h-4.64v8.16Zm3.78-1.78,1.06,1.78h1.9l-2-3,2-3h-1.9l-1.06,1.77-1.07-1.77h-1.89l2,3-2,3h1.89l1.07-1.78Zm5.89,1.78v-4.59h1v-1.39h-1v-1.65l-1.53.35v1.3h-1v1.39H562v4.59Zm3.6-6h-1.63v6h1.63v-3.47a1,1,0,0,1,1-1,2,2,0,0,1,.88.18v-1.74a2.56,2.56,0,0,0-.47,0,1.63,1.63,0,0,0-1.42.77v-.65Zm3,1.78a3,3,0,0,1,1.53-.45,1,1,0,0,1,1.11,1v.33a2.16,2.16,0,0,0-1.31-.43,1.88,1.88,0,0,0-2,1.92,1.84,1.84,0,0,0,2,1.94,1.72,1.72,0,0,0,1.34-.58v.45h1.63v-3.59a2.25,2.25,0,0,0-2.55-2.51,4.81,4.81,0,0,0-1.72.35v1.55Zm.94,2.39a.8.8,0,0,1,.84-.75.75.75,0,1,1-.84.75Zm8.9-.08a2.23,2.23,0,0,1-1.32.42,1.52,1.52,0,0,1,0-3,2.32,2.32,0,0,1,1.32.41V393a3.47,3.47,0,0,0-1.32-.28,3.12,3.12,0,1,0,0,6.23,3.26,3.26,0,0,0,1.32-.29v-1.73Zm3.38,1.89v-4.59h1v-1.39h-1v-1.65l-1.54.35v1.3h-1v1.39h.91v4.59Zm4.85,0h2.9c1.57,0,2.7-.91,2.7-2.26a2,2,0,0,0-1.2-1.94,1.88,1.88,0,0,0,1-1.79,2.26,2.26,0,0,0-2.54-2.17h-2.83v8.16Zm3.85-2.5c0,.59-.41.85-.95.85H590v-1.71h1.2a.83.83,0,0,1,.95.86Zm-.23-3.26a.72.72,0,0,1-.8.76H590V392.3h1.12a.72.72,0,0,1,.8.76Zm4.87-2.52h-1.64v8.28h1.64v-8.28Zm6.84,5.81a3.69,3.69,0,0,0,.1-.78,2.73,2.73,0,0,0-2.8-2.85A3.12,3.12,0,0,0,601,399a4.77,4.77,0,0,0,2.16-.47v-1.57a3.83,3.83,0,0,1-2,.57,1.49,1.49,0,0,1-1.58-1.13Zm-2.71-2.27a1.13,1.13,0,0,1,1.24,1h-2.58a1.29,1.29,0,0,1,1.34-1Zm5.53-1.24h-1.63v6h1.63v-3.47a1,1,0,1,1,2,.07v3.4h1.65V395a2.08,2.08,0,0,0-2.11-2.24,1.78,1.78,0,0,0-1.58.88v-.76Zm9.45,6h1.63v-8.28h-1.63v3.07a2.22,2.22,0,0,0-1.83-.89,3.13,3.13,0,0,0,0,6.23,2.25,2.25,0,0,0,1.84-.9v.77Zm0-3a1.5,1.5,0,1,1-1.49-1.5,1.49,1.49,0,0,1,1.49,1.5Zm3.63,2.46a.64.64,0,0,0,1.28,0,.64.64,0,1,0-1.28,0Zm2.46,0a.64.64,0,0,0,1.28,0,.64.64,0,0,0-1.28,0Zm2.46,0a.64.64,0,0,0,1.28,0,.64.64,0,0,0-1.28,0Zm2.46,0a.64.64,0,0,0,1.28,0,.64.64,0,0,0-1.28,0Zm2.46,0a.64.64,0,0,0,1.28,0,.64.64,0,1,0-1.28,0Zm2.46,0a.64.64,0,0,0,1.28,0,.64.64,0,1,0-1.28,0Zm2.46,0a.64.64,0,0,0,1.28,0,.64.64,0,1,0-1.28,0Zm2.46,0a.64.64,0,0,0,1.28,0,.64.64,0,1,0-1.28,0Zm2.46,0a.64.64,0,0,0,1.28,0,.64.64,0,1,0-1.28,0Zm2.46,0a.64.64,0,0,0,1.28,0,.64.64,0,1,0-1.28,0Zm2.46,0a.64.64,0,0,0,1.28,0,.64.64,0,1,0-1.28,0Zm2.46,0a.64.64,0,0,0,1.28,0,.64.64,0,1,0-1.28,0Zm2.46,0a.64.64,0,0,0,1.28,0,.64.64,0,1,0-1.28,0Zm2.46,0a.64.64,0,0,0,1.28,0,.64.64,0,1,0-1.28,0Zm2.46,0a.64.64,0,0,0,1.28,0,.64.64,0,1,0-1.28,0Zm2.46,0a.64.64,0,0,0,1.28,0,.64.64,0,1,0-1.28,0Zm2.46,0a.64.64,0,0,0,1.28,0,.64.64,0,1,0-1.28,0Zm2.46,0a.64.64,0,0,0,1.28,0,.64.64,0,1,0-1.28,0Zm2.46,0a.64.64,0,0,0,1.28,0,.64.64,0,1,0-1.28,0Zm2.46,0a.64.64,0,0,0,1.28,0,.64.64,0,1,0-1.28,0Zm2.46,0a.64.64,0,0,0,1.28,0,.64.64,0,1,0-1.28,0Zm2.46,0a.64.64,0,0,0,1.28,0,.64.64,0,1,0-1.28,0Zm2.46,0a.64.64,0,0,0,1.28,0,.64.64,0,0,0-1.28,0Zm5.7-6.08a1.21,1.21,0,0,1,1.25,1.32V396a1.26,1.26,0,1,1-2.51,0v-2.42a1.21,1.21,0,0,1,1.26-1.32Zm0-1.67a2.87,2.87,0,0,0-3,2.95V396a3,3,0,1,0,5.91,0v-2.5a2.86,2.86,0,0,0-2.95-2.95Zm4.09,7.29a1.12,1.12,0,0,0,2.23,0,1.12,1.12,0,1,0-2.23,0Zm3.9,1h2l2.25-3.6a3.24,3.24,0,0,0,.52-1.74,2.93,2.93,0,1,0-3.18,2.89l-1.63,2.45Zm.69-5.34a1.2,1.2,0,0,1,1.2-1.24,1.21,1.21,0,0,1,1.2,1.24,1.19,1.19,0,0,1-1.2,1.2,1.18,1.18,0,0,1-1.2-1.2Zm5.35-.66a1.88,1.88,0,0,0,.81,1.62,2.1,2.1,0,0,0-1.1,1.94,2.7,2.7,0,0,0,5.39,0,2.09,2.09,0,0,0-1.1-1.93,1.93,1.93,0,0,0,.82-1.63,2.41,2.41,0,0,0-4.82,0Zm1.32,3.55a1.09,1.09,0,1,1,1.08,1.07,1.07,1.07,0,0,1-1.08-1.07Zm.27-3.53a.77.77,0,0,1,.82-.79.79.79,0,1,1,0,1.58.78.78,0,0,1-.82-.79Zm6.39,0h-1.63v6h1.63V395.3a1,1,0,1,1,2,.09v3.43H705v-3.43a1,1,0,0,1,1-1.07.94.94,0,0,1,1,1.07v3.43h1.63v-3.9a2.07,2.07,0,0,0-2-2.2,1.84,1.84,0,0,0-1.76,1.08,2,2,0,0,0-1.84-1.08,1.74,1.74,0,0,0-1.52.83v-.71Zm10.25-2.3H710v8.28h1.65v-8.28Zm1.53.66-.25.45,1.12.65-1.12.65.27.44,1.11-.63V394h.52v-1.28l1.12.64.27-.45-1.14-.64,1.14-.66-.27-.45-1.12.66v-1.31h-.52v1.31l-1.13-.65Zm4.4,0-.26.45,1.12.65-1.12.65.27.44,1.11-.63V394h.52v-1.28l1.13.64.26-.45-1.14-.64,1.14-.66-.26-.45-1.13.66v-1.31h-.52v1.31l-1.12-.65Z" transform="translate(-503.38 -264.12)"/></svg>