<svg id="Layer_1" data-name="Layer 1" xmlns="http://www.w3.org/2000/svg" viewBox="0 0 288 111.16"><defs><style>.cls-1{fill:#dfdbed;}</style></defs><title>Prismatic-logo-purple</title><path class="cls-1" d="M270.79,23.33c0-2.17.9-3.26,2.42-3.26s3.33,1.5,5.5,4L290.14,39V19.65h0a28.11,28.11,0,0,0-10.4-1.94c-10.28,0-16.63,7.44-16.69,16.33C263,43.35,270,49.15,278.22,49.15c5.39,0,9.8-1.87,12.52-6l-.06-.06a5.29,5.29,0,0,1-1.81.24c-8.53,0-18.08-10.28-18.08-20ZM243.25,48.46h19.8L259.23,44V17.11l-12.09,7.34V43.88l-3.89,4.58ZM259.9,9.31c0-4-2.42-6.71-6.71-6.71s-6.72,2.72-6.72,6.71,2.42,6.77,6.72,6.77,6.71-2.72,6.71-6.77ZM243.5,43l-.06-.07a8.82,8.82,0,0,1-3.57.67c-4.47,0-6.1-2.6-6.1-9.61V19.89h8.52v-1h-8.52V6.65L217,19.83v.06h4.65V37.06c0,7.86,2.85,12.09,10,12.09A13.39,13.39,0,0,0,243.5,43Zm-24.85,5.47-4-4.66v-13c0-8.77-4-13.12-11.67-13.12-6.05,0-10.52,2.48-14.63,7.08l.3.3a10,10,0,0,1,6.65-2.3c4.59,0,7.25,3.33,7.25,10-10,1.09-16,4.77-16,10.34,0,3.81,2.66,6,6.59,6,3.33,0,6.53-1.63,9.37-4v3.36ZM202.6,44.25a6.16,6.16,0,0,1-1.39.19c-2.41,0-3.62-1.52-3.62-4.36,0-3.2,1.39-5.5,5-6.53v10.7Zm-19.08-.68c0-.46,0-2.6,0-4.78v-12c0-6.17-2.36-9.37-7.49-9.37-3.45,0-6.72,1.87-11.8,6-.78-3.93-3.08-6-7.19-6-3.39,0-6.59,1.81-11.49,5.74v-6L130,22.55l3.45,3V43.92l-3.85,4.54h19.8l-3.86-4.54v-20a8.2,8.2,0,0,1,3.57-.79c2.6,0,3.32,1.57,3.32,6.29v18.2h0v.88h16l-4-4.66v-17a19.67,19.67,0,0,0-.18-2.78,8.25,8.25,0,0,1,3.74-.91c2.6,0,3.33,1.57,3.33,6.29v18.2h0c.17,13.43,4.8,17.77,8,20.23,5.63,3.43,11.84,4,17.15,1a13.91,13.91,0,0,0,3.9-3.31,7.37,7.37,0,0,0,1.41-4.55c0-3.75-2.83-6.37-6.76-6.37s-6.76,2.71-6.73,6.55c0,3.53,1.8,5.8,4.73,6.56-2.35,1-4.88,1-6.25,0-3.27-2.7-3.43-12.07-3.4-20h0v-4Zm-55.37-5.2a9.17,9.17,0,0,0-1.74-5.64h0a14,14,0,0,0-4.35-3.46l-4.53-2.41C114,25,113,23.47,113,21.35c0-1.69.92-3.33,3.54-2.88,1.36.24,2.44.92,4.63,3l5.84,6V17H116.76l0,0c-7.67.2-12.38,4.13-12.38,10.08a9.14,9.14,0,0,0,1.75,5.63h0a14,14,0,0,0,4.35,3.46L115,38.61c3.57,1.87,4.54,3.38,4.54,5.5,0,1.69-.92,3.34-3.54,2.88-1.36-.24-2.45-.92-4.63-3l-5.85-6V48.46h10.24l0,0c7.67-.2,12.38-4.13,12.38-10.07ZM106.46,76.21v32.41l-3.84,4.53h19.79l-3.86-4.55V67.8L103,73.25l3.45,3ZM83.15,48.46h19.79L99.13,44V17.11L87,24.45V43.88l-3.89,4.58ZM99.79,9.31c0-4-2.41-6.71-6.71-6.71s-6.71,2.72-6.71,6.71,2.42,6.77,6.71,6.77,6.71-2.72,6.71-6.77ZM73.48,28.81l8.81,5.5v-16l-8.81,5.5v-6.3l-15.54,5.2,3.45,3V43.91l-3.86,4.55h19.8l-3.85-4.53V28.81ZM57,18c0-7.49-6.83-13-21.7-13H9.13L9.2,5c-4.13.11-6.46,2.78-6.46,6.69S5.16,18.5,9.45,18.5s6.71-2.72,6.71-6.77a6.56,6.56,0,0,0-2.24-5.27l.11,0c7-.15,7,3.66,7,3.66V44.64l-3.25,3.82h19.8l-3.25-3.83V32.28C48.79,32.16,57,27,57,18Zm-13.9.06c0,8.23-3.51,13.19-8.77,13.25V6h.66c4.84,0,8.11,4.17,8.11,12.09Zm5,58.34c0,4,2.42,6.78,6.71,6.78s6.71-2.73,6.71-6.78a6.53,6.53,0,0,0-2.25-5.26l.12,0c6.95-.15,6.95,3.66,6.95,3.66v34.48L63,113.15H82.78l-3.24-3.83V97c14.51-.12,22.67-5.32,22.67-14.27,0-7.5-6.83-13-21.71-13H54.38l.07,0c-4.12.11-6.45,2.79-6.45,6.69Zm31.54-5.74h.66c4.84,0,8.1,4.17,8.1,12.09C88.3,91,84.8,95.94,79.54,96V70.67Zm44.54,37c0,3.81,2.66,6.05,6.59,6.05,3.33,0,6.53-1.64,9.37-4.05v3.36h16l-4-4.67v-13c0-8.77-4.06-13.12-11.67-13.12-6.05,0-10.52,2.47-14.64,7.07l.31.3a10,10,0,0,1,6.65-2.3c4.59,0,7.25,3.33,7.25,10-10,1.09-16,4.78-16,10.34Zm10.94-3c0-3.21,1.4-5.5,5-6.53v10.7a6.69,6.69,0,0,1-1.39.18c-2.42,0-3.63-1.51-3.63-4.35Zm26.46,3.92-3.85,4.54h19.8l-3.86-4.55V97.86h0V96h0V88.6a9,9,0,0,1,3.63-.9c2.48,0,3.63,1.57,3.63,6.29v14.73h0v4.43h16l-3.94-4.66V91.39c0-6.17-2.66-9.38-7.8-9.38-4.11,0-7.62,2.36-11.55,5.75V81.71L158,87.15l3.45,3v18.49Zm33.2-24.12h4.65v17.17c0,7.86,2.84,12.1,10,12.1a13.38,13.38,0,0,0,11.79-6.17l-.06-.06a9,9,0,0,1-3.57.66c-4.47,0-6.1-2.6-6.1-9.61V84.49H220v-1h-8.52V71.25L194.68,84.43v.06Zm27.06,7.29a9.17,9.17,0,0,0,1.74,5.64h0a14,14,0,0,0,4.35,3.46l4.53,2.42c3.57,1.87,4.54,3.38,4.54,5.5,0,1.69-.92,3.34-3.54,2.88-1.36-.24-2.45-.92-4.63-3l-5.85-6v10.48h10.24l0,0c7.67-.2,12.38-4.13,12.38-10.08a9.16,9.16,0,0,0-1.74-5.63h0A14,14,0,0,0,239.39,94l-4.53-2.42c-3.57-1.87-4.54-3.38-4.54-5.5,0-1.69.92-3.34,3.54-2.88,1.36.24,2.44.92,4.63,3l5.85,6V81.69H234.1v0c-7.67.2-12.37,4.13-12.37,10.07Z" transform="translate(-2.74 -2.6)"/></svg>