<svg id="Layer_1" data-name="Layer 1" xmlns="http://www.w3.org/2000/svg" viewBox="0 0 155.45 60"><defs><style>.cls-1{fill:#fbc7b5;}</style></defs><title>Prismatic-logo-pink-small</title><path class="cls-1" d="M147.1,13.21c0-1.18.49-1.76,1.31-1.76s1.8.8,3,2.14l6.17,8.05V11.22h0a15.08,15.08,0,0,0-5.62-1.05,8.62,8.62,0,0,0-9,8.81,7.88,7.88,0,0,0,8.19,8.16c2.9,0,5.28-1,6.75-3.23l0,0a2.8,2.8,0,0,1-1,.13c-4.6,0-9.76-5.55-9.76-10.8ZM132.24,26.77h10.68l-2-2.43V9.85l-6.53,4V24.3l-2.1,2.47Zm9-21.13a3.62,3.62,0,1,0-7.24,0,3.62,3.62,0,1,0,7.24,0Zm-8.85,18.17,0,0a4.82,4.82,0,0,1-1.92.36c-2.42,0-3.3-1.4-3.3-5.19v-7.6h4.6v-.52h-4.6V4.2l-9,7.12v0h2.51v9.27c0,4.24,1.54,6.52,5.42,6.52a7.2,7.2,0,0,0,6.36-3.33Zm-13.41,3-2.13-2.52v-7c0-4.73-2.19-7.08-6.3-7.08a10,10,0,0,0-7.9,3.82l.16.16a5.46,5.46,0,0,1,3.59-1.24c2.48,0,3.92,1.8,3.92,5.39-5.42.59-8.62,2.58-8.62,5.58,0,2.06,1.44,3.26,3.56,3.26A8,8,0,0,0,110.3,25v1.81ZM110.3,24.5a3.3,3.3,0,0,1-.75.1c-1.31,0-2-.82-2-2.35a3.33,3.33,0,0,1,2.71-3.53V24.5ZM100,24.13c0-.25,0-1.4,0-2.58V15.07c0-3.33-1.27-5.06-4-5.06-1.86,0-3.62,1-6.36,3.23A3.58,3.58,0,0,0,85.71,10c-1.83,0-3.56,1-6.21,3.1V9.85l-8.38,2.93L73,14.38v9.94L70.9,26.77H81.59L79.5,24.32V13.5a4.57,4.57,0,0,1,1.93-.42c1.4,0,1.8.85,1.8,3.39v9.82h0v.48h8.65l-2.13-2.51V15.07a9.75,9.75,0,0,0-.1-1.5,4.49,4.49,0,0,1,2-.49c1.4,0,1.79.85,1.79,3.39v9.82h0c.09,7.26,2.59,9.6,4.32,10.92,3,1.85,6.4,2.14,9.26.51a7.65,7.65,0,0,0,2.11-1.78,4,4,0,0,0,.76-2.45,3.64,3.64,0,0,0-7.28.09,3.35,3.35,0,0,0,2.55,3.54,3.72,3.72,0,0,1-3.37,0c-1.77-1.46-1.85-6.52-1.84-10.81h0V24.13ZM70.11,21.32a4.93,4.93,0,0,0-.94-3h0a7.65,7.65,0,0,0-2.34-1.87l-2.45-1.3c-1.93-1-2.45-1.83-2.45-3a1.46,1.46,0,0,1,1.91-1.56,4.84,4.84,0,0,1,2.5,1.64l3.15,3.23V9.79H64c-4.14.11-6.68,2.23-6.68,5.44a4.93,4.93,0,0,0,.94,3h0a7.65,7.65,0,0,0,2.34,1.87L63,21.45c1.93,1,2.45,1.83,2.45,3A1.46,1.46,0,0,1,63.57,26a4.87,4.87,0,0,1-2.5-1.63l-3.15-3.24v5.66h5.51c4.14-.11,6.68-2.23,6.68-5.44ZM58.41,41.75V59.24l-2.08,2.45H67l-2.09-2.46v-22l-8.38,2.94,1.86,1.6Zm-12.59-15H56.51l-2.06-2.43V9.85l-6.53,4V24.3l-2.1,2.47Zm9-21.13A3.37,3.37,0,0,0,51.18,2a3.36,3.36,0,0,0-3.62,3.63,3.37,3.37,0,0,0,3.62,3.65,3.37,3.37,0,0,0,3.63-3.65ZM40.6,16.16l4.76,3V10.47l-4.76,3V10l-8.38,2.81,1.86,1.6v9.86L32,26.77H42.68L40.6,24.32V16.16Zm-8.92-5.82c0-4-3.68-7-11.71-7H5.91A3.34,3.34,0,0,0,2.42,6.94,3.37,3.37,0,0,0,6,10.6,3.37,3.37,0,0,0,9.67,6.94,3.51,3.51,0,0,0,8.45,4.1l.07,0c3.75-.09,3.75,2,3.75,2V24.71l-1.76,2.06H21.2L19.44,24.7V18c7.84-.07,12.24-2.87,12.24-7.7Zm-7.5,0c0,4.44-1.9,7.11-4.74,7.15V3.84h.36c2.61,0,4.38,2.25,4.38,6.53Zm2.67,31.49a3.36,3.36,0,0,0,3.62,3.65,3.36,3.36,0,0,0,3.62-3.65A3.52,3.52,0,0,0,32.88,39h.06c3.76-.08,3.75,2,3.75,2V59.62l-1.75,2.07H45.63l-1.76-2.07V53c7.84-.06,12.24-2.87,12.24-7.7,0-4-3.69-7-11.71-7H30.33a3.34,3.34,0,0,0-3.48,3.61Zm17-3.1h.36c2.61,0,4.38,2.25,4.38,6.52,0,4.44-1.9,7.12-4.74,7.15V38.76Zm24.05,20c0,2.06,1.43,3.26,3.55,3.26a8,8,0,0,0,5.06-2.18v1.81h8.65l-2.13-2.52v-7c0-4.74-2.19-7.09-6.3-7.09a10.06,10.06,0,0,0-7.9,3.82L69,49a5.4,5.4,0,0,1,3.59-1.25c2.48,0,3.91,1.8,3.91,5.39-5.42.59-8.61,2.58-8.61,5.58Zm5.9-1.63a3.33,3.33,0,0,1,2.71-3.53v5.78a3.3,3.3,0,0,1-.75.1c-1.3,0-2-.82-2-2.35ZM88.1,59.24,86,61.69H96.71l-2.08-2.46v-5.8h0v-1h0v-4a4.69,4.69,0,0,1,2-.49c1.33,0,2,.85,2,3.39v8h0v2.39h8.66l-2.13-2.52V49.94c0-3.33-1.43-5.06-4.21-5.06-2.22,0-4.11,1.27-6.23,3.1V44.72l-8.39,2.93,1.86,1.6v10Zm17.92-13h2.51v9.27c0,4.24,1.54,6.52,5.42,6.52a7.24,7.24,0,0,0,6.37-3.32l0,0a4.79,4.79,0,0,1-1.92.36c-2.42,0-3.3-1.4-3.3-5.19v-7.6h4.6V45.7h-4.6V39.07l-9,7.12v0Zm14.61,3.93a4.94,4.94,0,0,0,.94,3.05h0a7.48,7.48,0,0,0,2.34,1.86l2.45,1.31c1.93,1,2.45,1.83,2.45,3a1.46,1.46,0,0,1-1.91,1.55,4.8,4.8,0,0,1-2.5-1.63L121.25,56v5.66h5.51c4.14-.11,6.68-2.23,6.68-5.44a4.89,4.89,0,0,0-.94-3h0a7.5,7.5,0,0,0-2.34-1.87L127.71,50c-1.93-1-2.45-1.82-2.45-3a1.46,1.46,0,0,1,1.91-1.55,4.87,4.87,0,0,1,2.5,1.63l3.15,3.23V44.7H127.3v0c-4.14.1-6.68,2.23-6.68,5.43Z" transform="translate(-2.42 -2.01)"/></svg>