<svg id="Layer_1" data-name="Layer 1" xmlns="http://www.w3.org/2000/svg" viewBox="0 0 288 111.16"><defs><style>.cls-1{fill:#fff;}</style></defs><title>Prismatic-logo-white</title><path class="cls-1" d="M272.05,24.74c0-2.18.9-3.27,2.41-3.27s3.34,1.5,5.51,4L291.4,40.37V21.06h0A28,28,0,0,0,281,19.12c-10.27,0-16.62,7.43-16.68,16.32-.06,9.31,6.95,15.12,15.17,15.12,5.38,0,9.8-1.88,12.52-6l-.06-.06a5.35,5.35,0,0,1-1.82.24c-8.52,0-18.07-10.28-18.07-20ZM244.51,49.87h19.8l-3.82-4.5V18.51L248.4,25.85V45.28l-3.89,4.59Zm16.65-39.16c0-4-2.42-6.71-6.71-6.71s-6.72,2.72-6.72,6.71,2.42,6.77,6.72,6.77,6.71-2.72,6.71-6.77Zm-16.4,33.68-.06-.06a9,9,0,0,1-3.57.66c-4.47,0-6.11-2.6-6.11-9.61V21.29h8.53v-1H235V8.05L218.28,21.23v.06h4.65V38.46c0,7.86,2.84,12.1,10,12.1a13.38,13.38,0,0,0,11.79-6.17Zm-24.85,5.48L216,45.2v-13c0-8.77-4.05-13.12-11.67-13.12-6,0-10.52,2.47-14.64,7.07l.31.3a10,10,0,0,1,6.65-2.3c4.59,0,7.25,3.33,7.25,10-10,1.09-16,4.78-16,10.34,0,3.81,2.66,6.05,6.59,6.05,3.33,0,6.53-1.64,9.37-4.05v3.36Zm-16-4.21a6.69,6.69,0,0,1-1.39.18c-2.42,0-3.62-1.51-3.62-4.35,0-3.21,1.39-5.51,5-6.53v10.7ZM184.78,45c0-.45,0-2.59,0-4.77v-12c0-6.17-2.36-9.38-7.5-9.38-3.44,0-6.71,1.88-11.79,6-.78-3.93-3.08-6-7.19-6-3.39,0-6.59,1.82-11.49,5.75v-6L131.27,24l3.45,3V45.33l-3.85,4.54h19.79l-3.85-4.55v-20a8.34,8.34,0,0,1,3.57-.78c2.6,0,3.32,1.57,3.32,6.29V49h0v.89h16l-3.95-4.66v-17a18.35,18.35,0,0,0-.19-2.79,8.41,8.41,0,0,1,3.75-.9c2.6,0,3.33,1.57,3.33,6.29V49h0c.17,13.44,4.8,17.78,8,20.23,5.64,3.43,11.85,4,17.16,1a13.91,13.91,0,0,0,3.9-3.31,7.31,7.31,0,0,0,1.41-4.54c0-3.75-2.83-6.38-6.76-6.37s-6.76,2.7-6.73,6.55c0,3.52,1.8,5.8,4.73,6.55-2.35,1-4.88,1-6.25,0-3.27-2.71-3.43-12.07-3.4-20h0V45Zm-55.37-5.2a9.08,9.08,0,0,0-1.75-5.63h0a13.69,13.69,0,0,0-4.34-3.46l-4.54-2.42c-3.56-1.87-4.53-3.39-4.53-5.5,0-1.7.92-3.34,3.54-2.88,1.36.24,2.44.92,4.62,3l5.85,6V18.4H118l0,0c-7.67.21-12.38,4.14-12.38,10.08a9.17,9.17,0,0,0,1.75,5.64h0a13.86,13.86,0,0,0,4.35,3.45L116.29,40c3.57,1.88,4.54,3.39,4.54,5.51,0,1.69-.92,3.33-3.55,2.87-1.35-.23-2.44-.92-4.62-3l-5.85-6V49.87h10.24l0,0c7.67-.2,12.38-4.13,12.38-10.08ZM107.72,77.61V110l-3.84,4.54h19.79L119.81,110V69.21l-15.54,5.44,3.45,3ZM84.41,49.87H104.2l-3.81-4.5V18.51L88.3,25.85V45.28l-3.89,4.59Zm16.64-39.16c0-4-2.42-6.71-6.71-6.71s-6.71,2.72-6.71,6.71,2.42,6.77,6.71,6.77,6.71-2.72,6.71-6.77ZM74.74,30.22l8.8,5.49v-16l-8.8,5.5v-6.3L59.2,24.07l3.45,3V45.32l-3.86,4.55H78.58l-3.84-4.54V30.22ZM58.21,19.42c0-7.5-6.83-13-21.7-13H10.38l.07,0C6.33,6.55,4,9.22,4,13.13s2.42,6.77,6.71,6.77,6.71-2.72,6.71-6.77a6.55,6.55,0,0,0-2.25-5.27l.12,0c7-.16,7,3.66,7,3.66V46L19,49.87h19.8L35.54,46V33.69c14.51-.12,22.67-5.32,22.67-14.27Zm-13.9.06c0,8.22-3.51,13.18-8.77,13.24V7.39h.66c4.84,0,8.11,4.17,8.11,12.09Zm4.95,58.34c0,4.05,2.42,6.77,6.71,6.77s6.71-2.72,6.71-6.77a6.54,6.54,0,0,0-2.25-5.27l.12,0c7-.16,6.94,3.66,6.94,3.66v34.48l-3.24,3.83H84l-3.24-3.84V98.38c14.51-.13,22.67-5.33,22.67-14.27,0-7.5-6.83-13-21.71-13H55.64l.07,0c-4.12.11-6.45,2.78-6.45,6.69ZM80.8,72.07h.66c4.84,0,8.1,4.18,8.1,12.1,0,8.22-3.5,13.18-8.76,13.24V72.07Zm44.54,37c0,3.81,2.66,6,6.59,6,3.33,0,6.53-1.63,9.37-4v3.36h16l-3.95-4.66v-13c0-8.77-4.06-13.12-11.67-13.12-6,0-10.53,2.48-14.64,7.07l.31.31a10,10,0,0,1,6.65-2.3c4.59,0,7.25,3.32,7.25,10-10,1.08-16,4.77-16,10.33Zm10.94-3c0-3.2,1.39-5.5,5-6.53v10.7a6.77,6.77,0,0,1-1.39.18c-2.42,0-3.63-1.51-3.63-4.35ZM162.74,110l-3.85,4.54h19.79L174.83,110V99.27h0V97.4h0V90a8.84,8.84,0,0,1,3.63-.91c2.48,0,3.62,1.57,3.62,6.29v14.74h0v4.43h16l-3.94-4.66V92.79c0-6.17-2.66-9.37-7.8-9.37-4.11,0-7.62,2.36-11.55,5.74v-6l-15.54,5.44,3.45,3V110Zm33.2-24.12h4.65v17.17c0,7.86,2.84,12.09,10,12.09A13.38,13.38,0,0,0,222.42,109l-.06-.06a8.82,8.82,0,0,1-3.57.67c-4.47,0-6.11-2.6-6.11-9.62V85.9h8.53v-1h-8.53V72.66L195.94,85.84v.06ZM223,93.19a9.14,9.14,0,0,0,1.75,5.63h0a13.74,13.74,0,0,0,4.35,3.46l4.53,2.42c3.57,1.87,4.54,3.39,4.54,5.5,0,1.7-.92,3.34-3.54,2.88-1.36-.24-2.45-.92-4.63-3l-5.85-6v10.49h10.24l0,0c7.67-.21,12.38-4.14,12.38-10.08A9.11,9.11,0,0,0,245,98.82h0a13.86,13.86,0,0,0-4.35-3.45L236.12,93c-3.57-1.88-4.54-3.39-4.54-5.51,0-1.69.92-3.33,3.54-2.87,1.36.23,2.44.92,4.62,3l5.85,6V83.09H235.35l0,0c-7.67.2-12.38,4.13-12.38,10.08Z" transform="translate(-4 -4)"/></svg>