<svg id="Layer_1" data-name="Layer 1" xmlns="http://www.w3.org/2000/svg" viewBox="0 0 612 1104"><defs><style>.cls-1{fill:#fbc7b5;}.cls-2{fill:#941a27;}.cls-3{fill:#231f20;}.cls-4{fill:#fdd8cb;}.cls-5{fill:none;stroke:#fff;}</style></defs><title>Good-Day-Terpenes2</title><polygon class="cls-1" points="0 0 0 1104 612 1104 612 0 0 0 0 0"/><polygon class="cls-2" points="69.6 999.48 69.6 1024 531 1024 531 999.48 69.6 999.48 69.6 999.48"/><path class="cls-3" d="M816.14,336.34h4.3v-.65H817l2.4-3a3.84,3.84,0,0,0,1-2.45,2.1,2.1,0,0,0-2.28-2.16,2.85,2.85,0,0,0-1.86.73v.83a2.48,2.48,0,0,1,1.84-.87,1.47,1.47,0,0,1,1.59,1.54,3.29,3.29,0,0,1-.94,2l-2.64,3.37v.64Zm8.44-7.6a1.9,1.9,0,0,1,2,2v3a2,2,0,1,1-3.92,0v-3a1.9,1.9,0,0,1,2-2Zm0-.68a2.59,2.59,0,0,0-2.65,2.67v3a2.66,2.66,0,1,0,5.32,0v-3a2.6,2.6,0,0,0-2.67-2.67Zm7,.68a1.91,1.91,0,0,1,2,2v3a2,2,0,1,1-3.93,0v-3a1.91,1.91,0,0,1,2-2Zm0-.68a2.58,2.58,0,0,0-2.65,2.67v3a2.66,2.66,0,1,0,5.31,0v-3a2.59,2.59,0,0,0-2.66-2.67Zm4.11,7.81a.58.58,0,0,0,.59.59.59.59,0,0,0,0-1.18.58.58,0,0,0-.59.59Zm5.31-7.13a1.91,1.91,0,0,1,2,2v3a2,2,0,1,1-3.93,0v-3a1.91,1.91,0,0,1,2-2Zm0-.68a2.58,2.58,0,0,0-2.65,2.67v3a2.66,2.66,0,1,0,5.31,0v-3a2.59,2.59,0,0,0-2.66-2.67Zm7,.68a1.91,1.91,0,0,1,2,2v3a2,2,0,1,1-3.92,0v-3a1.9,1.9,0,0,1,2-2Zm0-.68a2.58,2.58,0,0,0-2.65,2.67v3a2.66,2.66,0,1,0,5.32,0v-3a2.6,2.6,0,0,0-2.67-2.67Z" transform="translate(-306 156)"/><path class="cls-3" d="M816.14,827.14h4.3v-.65H817l2.4-3a3.84,3.84,0,0,0,1-2.45,2.1,2.1,0,0,0-2.28-2.16,2.85,2.85,0,0,0-1.86.73v.83a2.48,2.48,0,0,1,1.84-.87,1.47,1.47,0,0,1,1.59,1.54,3.29,3.29,0,0,1-.94,2l-2.64,3.37v.64Zm8.44-7.6a1.9,1.9,0,0,1,2,2v3a2,2,0,1,1-3.92,0v-3a1.9,1.9,0,0,1,2-2Zm0-.68a2.59,2.59,0,0,0-2.65,2.67v3.05a2.66,2.66,0,1,0,5.32,0v-3.05a2.6,2.6,0,0,0-2.67-2.67Zm7,.68a1.91,1.91,0,0,1,2,2v3a2,2,0,1,1-3.93,0v-3a1.91,1.91,0,0,1,2-2Zm0-.68a2.58,2.58,0,0,0-2.65,2.67v3.05a2.66,2.66,0,1,0,5.31,0v-3.05a2.59,2.59,0,0,0-2.66-2.67Zm4.11,7.81a.58.58,0,0,0,.59.59.57.57,0,0,0,.59-.59.58.58,0,0,0-.59-.59.58.58,0,0,0-.59.59Zm5.31-7.13a1.91,1.91,0,0,1,2,2v3a2,2,0,1,1-3.93,0v-3a1.91,1.91,0,0,1,2-2Zm0-.68a2.58,2.58,0,0,0-2.65,2.67v3.05a2.66,2.66,0,1,0,5.31,0v-3.05a2.59,2.59,0,0,0-2.66-2.67Zm7,.68a1.91,1.91,0,0,1,2,2v3a2,2,0,1,1-3.92,0v-3a1.9,1.9,0,0,1,2-2Zm0-.68a2.58,2.58,0,0,0-2.65,2.67v3.05a2.66,2.66,0,1,0,5.32,0v-3.05a2.6,2.6,0,0,0-2.67-2.67Z" transform="translate(-306 156)"/><polygon class="cls-4" points="69.6 194.8 69.6 223.6 531 223.6 531 194.8 69.6 194.8 69.6 194.8"/><polygon class="cls-4" points="69.6 85.2 69.6 114 531 114 531 85.2 69.6 85.2 69.6 85.2"/><polygon class="cls-4" points="69.6 140 69.6 168.8 531 168.8 531 140 69.6 140 69.6 140"/><polygon class="cls-4" points="69.6 249.6 69.6 278.4 531 278.4 531 249.6 69.6 249.6 69.6 249.6"/><polygon class="cls-4" points="69.6 304.4 69.6 333.2 531 333.2 531 304.4 69.6 304.4 69.6 304.4"/><polygon class="cls-4" points="69.6 359.2 69.6 388 531 388 531 359.2 69.6 359.2 69.6 359.2"/><polygon class="cls-4" points="69.6 414 69.6 442.8 531 442.8 531 414 69.6 414 69.6 414"/><polygon class="cls-4" points="69.6 685.6 69.6 714.4 531 714.4 531 685.6 69.6 685.6 69.6 685.6"/><polygon class="cls-4" points="69.6 576 69.6 604.8 531 604.8 531 576 69.6 576 69.6 576"/><polygon class="cls-4" points="69.6 630.8 69.6 659.6 531 659.6 531 630.8 69.6 630.8 69.6 630.8"/><polygon class="cls-4" points="69.6 740.4 69.6 769.2 531 769.2 531 740.4 69.6 740.4 69.6 740.4"/><polygon class="cls-4" points="69.6 795.2 69.6 824 531 824 531 795.2 69.6 795.2 69.6 795.2"/><polygon class="cls-4" points="69.6 850 69.6 878.8 531 878.8 531 850 69.6 850 69.6 850"/><polygon class="cls-4" points="69.6 904.8 69.6 933.6 531 933.6 531 904.8 69.6 904.8 69.6 904.8"/><path class="cls-5" d="M375.6,316H837m-.5-.5V-70.4M574.89,315.5V-70.4M706.1,315.5V-70.4m-330.5-.5H837" transform="translate(-306 156)"/><path class="cls-3" d="M427.59,299.54a3.43,3.43,0,0,1,1.81-.55,1.3,1.3,0,0,1,1.44,1.38v.57a2.4,2.4,0,0,0-1.65-.66,2.25,2.25,0,0,0-2.37,2.26,2.2,2.2,0,0,0,2.34,2.26,2.08,2.08,0,0,0,1.68-.78v.63h1.54v-4.26a2.49,2.49,0,0,0-2.81-2.77,4.82,4.82,0,0,0-2,.44v1.48Zm.76,3a1.18,1.18,0,0,1,1.23-1.12,1.2,1.2,0,0,1,1.25,1.12,1.25,1.25,0,0,1-2.48,0Zm7.28-7.54h-1.54v9.66h1.54V295Zm3.3,2.77H437.4v9.76h1.53v-4a2.69,2.69,0,0,0,2.36,1.27,3.6,3.6,0,0,0,0-7.18,2.59,2.59,0,0,0-2.36,1.34v-1.2Zm0,3.45a2.06,2.06,0,1,1,2.06,2.08,2,2,0,0,1-2.06-2.08Zm8.58-6.22H446v9.66h1.53v-4.06a1.45,1.45,0,1,1,2.9.08v4H452v-4.37a2.46,2.46,0,0,0-2.5-2.66,2.11,2.11,0,0,0-1.94,1.12V295Zm6.39,4.55a3.4,3.4,0,0,1,1.8-.55,1.3,1.3,0,0,1,1.45,1.38v.57a2.4,2.4,0,0,0-1.66-.66,2.25,2.25,0,0,0-2.36,2.26,2.19,2.19,0,0,0,2.34,2.26,2.08,2.08,0,0,0,1.68-.78v.63h1.54v-4.26a2.5,2.5,0,0,0-2.82-2.77,4.77,4.77,0,0,0-2,.44v1.48Zm.75,3a1.25,1.25,0,1,1,1.24,1.11,1.19,1.19,0,0,1-1.24-1.11Zm10.87,2.12v-5.57h1.24v-1.32h-1.24v-1.94l-1.46.33v1.61h-1.24v1.32H464v5.57Zm8.43-2.93a3.49,3.49,0,0,0,.09-.78,3.2,3.2,0,0,0-3.27-3.32,3.59,3.59,0,0,0,.08,7.18,5.12,5.12,0,0,0,2.52-.63v-1.52a4.35,4.35,0,0,1-2.4.75,2,2,0,0,1-2.1-1.68Zm-3.19-2.81a1.69,1.69,0,0,1,1.8,1.62h-3.71a1.86,1.86,0,0,1,1.91-1.62Zm6.08-1.15h-1.53v6.89h1.53v-4.06a1.34,1.34,0,0,1,1.35-1.47,2.32,2.32,0,0,1,.92.18v-1.64a5.27,5.27,0,0,0-.57,0,1.88,1.88,0,0,0-1.7,1v-.84Zm4.9,0h-1.53v9.76h1.53v-4a2.69,2.69,0,0,0,2.36,1.27,3.6,3.6,0,0,0,0-7.18,2.59,2.59,0,0,0-2.36,1.34v-1.2Zm0,3.45a2.06,2.06,0,1,1,2.06,2.08,2,2,0,0,1-2.06-2.08Zm8.59-3.45h-1.54v6.89h1.54v-6.89Zm-1.72-2.1a.93.93,0,0,0,.95.95,1,1,0,0,0,0-1.9.94.94,0,0,0-.95,1Zm5,2.1h-1.54v6.89h1.54v-4.06a1.39,1.39,0,0,1,1.44-1.47,1.41,1.41,0,0,1,1.46,1.55v4h1.54v-4.37a2.46,2.46,0,0,0-2.51-2.66,2.09,2.09,0,0,0-1.93,1.12v-1Zm12.35,4a3.44,3.44,0,0,0,.1-.78,3.21,3.21,0,0,0-3.28-3.32,3.59,3.59,0,0,0,.08,7.18,5.12,5.12,0,0,0,2.52-.63v-1.52a4.35,4.35,0,0,1-2.4.75,2,2,0,0,1-2.1-1.68Zm-3.19-2.81a1.69,1.69,0,0,1,1.8,1.62h-3.71a1.86,1.86,0,0,1,1.91-1.62Zm6.08-1.15h-1.53v6.89h1.53v-4.06a1.45,1.45,0,1,1,2.9.08v4h1.54v-4.37a2.46,2.46,0,0,0-2.5-2.66,2.1,2.1,0,0,0-1.94,1.12v-1Zm12.35,4a3,3,0,0,0,.1-.78,3.2,3.2,0,0,0-3.27-3.32,3.59,3.59,0,0,0,.08,7.18,5.15,5.15,0,0,0,2.52-.63v-1.52a4.39,4.39,0,0,1-2.41.75,2,2,0,0,1-2.1-1.68ZM518,298.91a1.69,1.69,0,0,1,1.81,1.62h-3.71a1.86,1.86,0,0,1,1.9-1.62Z" transform="translate(-306 156)"/><path class="cls-3" d="M442.18,272.19a3.43,3.43,0,0,1,1.81-.55,1.3,1.3,0,0,1,1.44,1.38v.57a2.4,2.4,0,0,0-1.65-.66,2.25,2.25,0,0,0-2.37,2.26,2.2,2.2,0,0,0,2.34,2.26,2.08,2.08,0,0,0,1.68-.78v.63H447V273a2.5,2.5,0,0,0-2.81-2.77,4.78,4.78,0,0,0-2,.44v1.48Zm.76,3a1.17,1.17,0,0,1,1.23-1.11,1.12,1.12,0,1,1,0,2.22,1.17,1.17,0,0,1-1.23-1.1Zm7.28-7.54h-1.54v9.66h1.54v-9.66Zm3.3,2.77H452v9.76h1.54v-4a2.69,2.69,0,0,0,2.35,1.27,3.6,3.6,0,0,0,0-7.18,2.58,2.58,0,0,0-2.35,1.34v-1.2Zm0,3.45a2.05,2.05,0,1,1,2.06,2.08,2,2,0,0,1-2.06-2.08Zm8.58-6.22h-1.54v9.66h1.54v-4.06a1.45,1.45,0,1,1,2.9.08v4h1.54v-4.37a2.46,2.46,0,0,0-2.5-2.66,2.11,2.11,0,0,0-1.94,1.12v-3.75Zm6.39,4.55a3.4,3.4,0,0,1,1.8-.55,1.31,1.31,0,0,1,1.45,1.38v.57a2.4,2.4,0,0,0-1.66-.66,2.24,2.24,0,0,0-2.36,2.26,2.19,2.19,0,0,0,2.33,2.26,2.1,2.1,0,0,0,1.69-.78v.63h1.53V273a2.49,2.49,0,0,0-2.81-2.77,4.77,4.77,0,0,0-2,.44v1.48Zm.75,3a1.18,1.18,0,0,1,1.23-1.11,1.12,1.12,0,1,1,0,2.22,1.17,1.17,0,0,1-1.23-1.1Zm9.3-1.16v-1.44h-3.66V274Zm3.2-3.61h-1.53v9.76h1.53v-4a2.69,2.69,0,0,0,2.36,1.27,3.6,3.6,0,0,0,0-7.18,2.59,2.59,0,0,0-2.36,1.34v-1.2Zm0,3.45a2.06,2.06,0,1,1,2.06,2.08,2,2,0,0,1-2.06-2.08Zm8.59-3.45h-1.54v6.89h1.54v-6.89Zm-1.72-2.1a.93.93,0,0,0,.95.95,1,1,0,0,0,0-1.9.94.94,0,0,0-.95.95Zm5,2.1h-1.54v6.89h1.54v-4.06a1.39,1.39,0,0,1,1.44-1.47,1.41,1.41,0,0,1,1.46,1.55v4h1.54v-4.37a2.46,2.46,0,0,0-2.51-2.66,2.09,2.09,0,0,0-1.93,1.12v-1Zm12.35,4a3.44,3.44,0,0,0,.1-.78,3.21,3.21,0,0,0-3.28-3.32,3.59,3.59,0,0,0,.08,7.18,5.12,5.12,0,0,0,2.52-.63V275.3a4.35,4.35,0,0,1-2.4.75,2,2,0,0,1-2.1-1.68Zm-3.19-2.81a1.69,1.69,0,0,1,1.8,1.62h-3.71a1.86,1.86,0,0,1,1.91-1.62Zm6.08-1.15h-1.53v6.89h1.53v-4.06a1.45,1.45,0,1,1,2.9.08v4h1.54v-4.37a2.46,2.46,0,0,0-2.5-2.66,2.1,2.1,0,0,0-1.94,1.12v-1Zm12.35,4a3,3,0,0,0,.1-.78,3.2,3.2,0,0,0-3.27-3.32,3.59,3.59,0,0,0,.08,7.18,5.15,5.15,0,0,0,2.52-.63V275.3a4.39,4.39,0,0,1-2.41.75,2,2,0,0,1-2.1-1.68ZM518,271.56a1.69,1.69,0,0,1,1.81,1.62h-3.71a1.86,1.86,0,0,1,1.9-1.62Z" transform="translate(-306 156)"/><path class="cls-3" d="M429.15,244.84a3.4,3.4,0,0,1,1.8-.55,1.31,1.31,0,0,1,1.45,1.38v.57a2.4,2.4,0,0,0-1.66-.66,2.25,2.25,0,0,0-2.36,2.26,2.19,2.19,0,0,0,2.33,2.26,2.1,2.1,0,0,0,1.69-.78V250h1.53v-4.26a2.49,2.49,0,0,0-2.81-2.77,4.77,4.77,0,0,0-2,.44v1.48Zm.75,3a1.18,1.18,0,0,1,1.23-1.12,1.2,1.2,0,0,1,1.25,1.12,1.25,1.25,0,0,1-2.48,0Zm7.28-7.54h-1.54V250h1.54v-9.66Zm3.31,2.77H439v9.76h1.54v-4a2.66,2.66,0,0,0,2.35,1.27,3.6,3.6,0,0,0,0-7.18,2.55,2.55,0,0,0-2.35,1.35v-1.21Zm0,3.45a2.05,2.05,0,1,1,2.05,2.08,2,2,0,0,1-2.05-2.08Zm8.58-6.22h-1.54V250h1.54v-4.06a1.39,1.39,0,0,1,1.45-1.47A1.41,1.41,0,0,1,452,246v4h1.54v-4.37a2.46,2.46,0,0,0-2.51-2.66,2.11,2.11,0,0,0-1.93,1.12v-3.75Zm6.38,4.55a3.43,3.43,0,0,1,1.81-.55,1.3,1.3,0,0,1,1.44,1.38v.57a2.4,2.4,0,0,0-1.65-.66,2.25,2.25,0,0,0-2.37,2.26A2.2,2.2,0,0,0,457,250.1a2.08,2.08,0,0,0,1.68-.78V250h1.54v-4.26a2.5,2.5,0,0,0-2.81-2.77,4.82,4.82,0,0,0-2,.44v1.48Zm.76,3a1.18,1.18,0,0,1,1.23-1.12,1.2,1.2,0,0,1,1.25,1.12,1.25,1.25,0,0,1-2.48,0Zm9.3-1.16v-1.44h-3.66v1.44Zm3.2,2.16a2.72,2.72,0,0,0,2.37,1.27,3.6,3.6,0,0,0,0-7.18,2.7,2.7,0,0,0-2.35,1.26v-3.89h-1.54V250h1.54v-1.12Zm0-2.32a2.05,2.05,0,1,1,2.06,2.08,2,2,0,0,1-2.06-2.08Zm8.58-3.45h-1.54V250h1.54v-6.89Zm-1.72-2.1a.94.94,0,0,0,.95.95,1,1,0,0,0,0-1.9.94.94,0,0,0-.95,1Zm7.21,2.24a5.08,5.08,0,0,0-1.6-.28c-1.56,0-2.43.83-2.43,2a1.88,1.88,0,0,0,1,1.71l1.18.7c.43.26.59.48.59.76s-.34.71-1,.71a2.89,2.89,0,0,1-1.7-.64v1.58a4.54,4.54,0,0,0,1.79.39c1.55,0,2.46-.84,2.46-2a2,2,0,0,0-1.15-1.83l-1.1-.65c-.34-.21-.52-.37-.52-.66s.31-.67.9-.67a2.9,2.9,0,0,1,1.55.49V243.2Zm2,1.64a3.4,3.4,0,0,1,1.8-.55,1.31,1.31,0,0,1,1.45,1.38v.57a2.44,2.44,0,0,0-1.66-.66,2.25,2.25,0,0,0-2.36,2.26,2.19,2.19,0,0,0,2.33,2.26,2.12,2.12,0,0,0,1.69-.78V250h1.53v-4.26a2.49,2.49,0,0,0-2.81-2.77,4.77,4.77,0,0,0-2,.44v1.48Zm.75,3a1.18,1.18,0,0,1,1.23-1.12,1.2,1.2,0,0,1,1.25,1.12,1.25,1.25,0,0,1-2.48,0Zm7.27,1a2.69,2.69,0,0,0,2.36,1.27,3.6,3.6,0,0,0,0-7.18,2.67,2.67,0,0,0-2.35,1.26v-3.89h-1.54V250h1.54v-1.12Zm0-2.32a2.05,2.05,0,1,1,2.06,2.08,2,2,0,0,1-2.06-2.08Zm6.62,0a3.59,3.59,0,1,0,3.58-3.59,3.53,3.53,0,0,0-3.58,3.59Zm1.55,0a2.05,2.05,0,0,1,2-2.09,2.09,2.09,0,0,1,0,4.17,2,2,0,0,1-2-2.08Zm8.5-6.22h-1.54V250h1.54v-9.66Zm1.35,6.22a3.58,3.58,0,1,0,3.58-3.59,3.53,3.53,0,0,0-3.58,3.59Zm1.55,0a2,2,0,1,1,2,2.08,2,2,0,0,1-2-2.08Zm8.5-6.22h-1.54V250h1.54v-9.66Z" transform="translate(-306 156)"/><path class="cls-3" d="M454.12,222.6V217h1.25v-1.32h-1.25v-1.94l-1.45.33v1.61h-1.25V217h1.16v5.57Zm8.43-2.93a3,3,0,0,0,.1-.78,3.2,3.2,0,0,0-3.28-3.32,3.59,3.59,0,0,0,.09,7.18,5.18,5.18,0,0,0,2.52-.63V220.6a4.39,4.39,0,0,1-2.41.75,2,2,0,0,1-2.1-1.68Zm-3.19-2.81a1.69,1.69,0,0,1,1.81,1.62h-3.71a1.85,1.85,0,0,1,1.9-1.62Zm6.09-1.15h-1.54v6.89h1.54v-4.06c0-.88.5-1.47,1.34-1.47a2.41,2.41,0,0,1,.93.18v-1.64a5.46,5.46,0,0,0-.58,0,1.86,1.86,0,0,0-1.69,1v-.84Zm4.9,0h-1.54v9.76h1.54v-4a2.66,2.66,0,0,0,2.35,1.27,3.6,3.6,0,0,0,0-7.18,2.56,2.56,0,0,0-2.35,1.34v-1.2Zm0,3.45a2.05,2.05,0,1,1,2.06,2.08,2,2,0,0,1-2.06-2.08Zm8.58-3.45h-1.54v6.89h1.54v-6.89Zm-1.72-2.1a.95.95,0,1,0,1-1,.93.93,0,0,0-1,1Zm5,2.1H480.7v6.89h1.53v-4.06a1.45,1.45,0,1,1,2.9.08v4h1.54v-4.37a2.46,2.46,0,0,0-2.5-2.66,2.1,2.1,0,0,0-1.94,1.12v-1Zm5.72,3.45a3.58,3.58,0,1,0,3.58-3.59,3.53,3.53,0,0,0-3.58,3.59Zm1.55,0a2,2,0,1,1,2,2.08,2,2,0,0,1-2-2.08Zm8.5-6.22h-1.54v9.66H498v-9.66Zm8,6.73a3.44,3.44,0,0,0,.1-.78,3.21,3.21,0,0,0-3.28-3.32,3.59,3.59,0,0,0,.08,7.18,5.12,5.12,0,0,0,2.52-.63V220.6a4.35,4.35,0,0,1-2.4.75,2,2,0,0,1-2.1-1.68Zm-3.19-2.81a1.69,1.69,0,0,1,1.8,1.62h-3.71a1.86,1.86,0,0,1,1.91-1.62Zm6.08-1.15h-1.53v6.89h1.53v-4.06a1.45,1.45,0,1,1,2.9.08v4h1.54v-4.37a2.46,2.46,0,0,0-2.5-2.66,2.1,2.1,0,0,0-1.94,1.12v-1Zm12.35,4a3,3,0,0,0,.1-.78,3.2,3.2,0,0,0-3.27-3.32,3.59,3.59,0,0,0,.08,7.18,5.15,5.15,0,0,0,2.52-.63V220.6a4.39,4.39,0,0,1-2.41.75,2,2,0,0,1-2.1-1.68ZM518,216.86a1.69,1.69,0,0,1,1.81,1.62h-3.71a1.86,1.86,0,0,1,1.9-1.62Z" transform="translate(-306 156)"/><path class="cls-3" d="M477.83,188.36v1.12a2.79,2.79,0,0,0-2.4-1.26,3.49,3.49,0,0,0,0,7,2.81,2.81,0,0,0,2.39-1.23v.8a2,2,0,0,1-2.18,2.06,4.49,4.49,0,0,1-2.36-.73v1.61a5.16,5.16,0,0,0,2.36.56,3.38,3.38,0,0,0,3.71-3.68v-6.22Zm-.09,3.35a2,2,0,1,1-2-2,1.94,1.94,0,0,1,2,2Zm9.63.61a3,3,0,0,0,.1-.78,3.2,3.2,0,0,0-3.27-3.32,3.59,3.59,0,0,0,.08,7.18,5.15,5.15,0,0,0,2.52-.63v-1.52a4.39,4.39,0,0,1-2.41.76,2,2,0,0,1-2.1-1.69Zm-3.19-2.81a1.69,1.69,0,0,1,1.81,1.63h-3.71a1.86,1.86,0,0,1,1.9-1.63Zm6.09-1.15h-1.54v6.89h1.54v-4.06c0-.88.5-1.47,1.34-1.47a2.37,2.37,0,0,1,.93.18v-1.63a3.58,3.58,0,0,0-.58-.05,1.86,1.86,0,0,0-1.69,1v-.84Zm3.46,1.78a3.4,3.4,0,0,1,1.8-.55A1.31,1.31,0,0,1,497,191v.57a2.4,2.4,0,0,0-1.66-.66,2.25,2.25,0,0,0-2.36,2.26,2.19,2.19,0,0,0,2.34,2.26,2.1,2.1,0,0,0,1.68-.78v.63h1.54V191a2.5,2.5,0,0,0-2.82-2.77,4.77,4.77,0,0,0-2,.44v1.48Zm.75,3a1.25,1.25,0,1,1,1.24,1.1,1.18,1.18,0,0,1-1.24-1.1Zm7.27-4.78h-1.54v6.89h1.54v-4.06a1.39,1.39,0,0,1,1.44-1.47,1.41,1.41,0,0,1,1.46,1.55v4h1.54v-4.37a2.46,2.46,0,0,0-2.51-2.66,2.09,2.09,0,0,0-1.93,1.12v-1Zm7.67,0h-1.54v6.89h1.54v-6.89Zm-1.72-2.1a.94.94,0,0,0,.95,1,1,1,0,0,0,0-1.9.94.94,0,0,0-.95.95Zm3.07,5.55a3.58,3.58,0,1,0,3.58-3.59,3.53,3.53,0,0,0-3.58,3.59Zm1.55,0a2,2,0,1,1,2,2.08,2,2,0,0,1-2-2.08Zm8.5-6.22h-1.54v9.66h1.54v-9.66Z" transform="translate(-306 156)"/><path class="cls-3" d="M465.87,165a3.44,3.44,0,0,0,.1-.78,3.21,3.21,0,0,0-3.28-3.32,3.59,3.59,0,0,0,.09,7.18,5.11,5.11,0,0,0,2.51-.63V165.9a4.35,4.35,0,0,1-2.4.75,2,2,0,0,1-2.1-1.68Zm-3.19-2.81a1.68,1.68,0,0,1,1.8,1.62h-3.71a1.86,1.86,0,0,1,1.91-1.62Zm8.94,5.74h1.53V161h-1.53v4.06a1.45,1.45,0,1,1-2.9-.1v-4h-1.54v4.38a2.46,2.46,0,0,0,2.5,2.66,2.09,2.09,0,0,0,1.94-1.12v1ZM479.8,166a2.69,2.69,0,0,1-1.65.53,2.09,2.09,0,0,1,0-4.17,2.8,2.8,0,0,1,1.65.53v-1.65a3.71,3.71,0,0,0-1.65-.38,3.59,3.59,0,1,0,0,7.18,3.59,3.59,0,0,0,1.65-.4V166Zm1.69-3.22a3.43,3.43,0,0,1,1.81-.55,1.3,1.3,0,0,1,1.44,1.38v.57a2.4,2.4,0,0,0-1.65-.66,2.25,2.25,0,0,0-2.37,2.26,2.2,2.2,0,0,0,2.34,2.26,2.08,2.08,0,0,0,1.68-.78v.63h1.54v-4.26a2.5,2.5,0,0,0-2.81-2.77,4.82,4.82,0,0,0-2,.44v1.48Zm.76,3a1.18,1.18,0,0,1,1.23-1.12,1.2,1.2,0,0,1,1.25,1.12,1.25,1.25,0,0,1-2.48,0Zm7.28-7.54H488v9.66h1.54v-9.66Zm2,12.53h1.78l4.16-9.76h-1.74L494,165.44,492.27,161h-1.72l2.59,6.36-1.57,3.4ZM500,161h-1.54v9.76H500v-4a2.69,2.69,0,0,0,2.35,1.27,3.6,3.6,0,0,0,0-7.18,2.58,2.58,0,0,0-2.35,1.34V161Zm0,3.45a2.05,2.05,0,1,1,2.06,2.08,2,2,0,0,1-2.06-2.08Zm9,3.44v-5.57h1.25V161H509v-1.94l-1.45.33V161h-1.25v1.32h1.16v5.57Zm1.8-3.44a3.58,3.58,0,1,0,3.58-3.59,3.53,3.53,0,0,0-3.58,3.59Zm1.55,0a2,2,0,1,1,2,2.08,2,2,0,0,1-2-2.08Zm8.5-6.22h-1.54v9.66h1.54v-9.66Z" transform="translate(-306 156)"/><path class="cls-3" d="M463.56,138.28a3.58,3.58,0,0,1-2.33.83,3.32,3.32,0,0,1,0-6.63,3.57,3.57,0,0,1,2.33.84v-1.84a4.9,4.9,0,1,0-2.33,9.22,4.93,4.93,0,0,0,2.33-.58v-1.84Zm1.78-2.84a3.4,3.4,0,0,1,1.8-.55,1.31,1.31,0,0,1,1.45,1.38v.57a2.42,2.42,0,0,0-1.66-.66,2.24,2.24,0,0,0-2.36,2.26,2.19,2.19,0,0,0,2.33,2.26,2.1,2.1,0,0,0,1.69-.78v.63h1.53V136.3a2.5,2.5,0,0,0-2.81-2.78,4.77,4.77,0,0,0-2,.44v1.48Zm.75,3a1.18,1.18,0,0,1,1.23-1.12,1.2,1.2,0,0,1,1.25,1.12,1.25,1.25,0,0,1-2.48,0Zm7.27-4.77h-1.54v6.89h1.54v-4.16a1.29,1.29,0,0,1,1.36-1.37,1.31,1.31,0,0,1,1.33,1.47v4.06h1.54v-4.06A1.33,1.33,0,0,1,479,135a1.31,1.31,0,0,1,1.33,1.47v4.06h1.54v-4.48a2.39,2.39,0,0,0-2.41-2.55,2.12,2.12,0,0,0-2.07,1.33,2.23,2.23,0,0,0-2.17-1.33,2,2,0,0,0-1.82,1v-.88Zm11.69,0h-1.54v9.76h1.54v-4a2.66,2.66,0,0,0,2.35,1.27,3.6,3.6,0,0,0,0-7.18,2.56,2.56,0,0,0-2.35,1.34v-1.2Zm0,3.45a2.05,2.05,0,1,1,2.06,2.08,2,2,0,0,1-2.06-2.08Zm8.58-6.22h-1.54v9.66h1.54v-4.06a1.45,1.45,0,1,1,2.9.08v4h1.54v-4.37a2.46,2.46,0,0,0-2.51-2.66,2.11,2.11,0,0,0-1.93,1.12v-3.75ZM506,137.62a3.44,3.44,0,0,0,.1-.78,3.21,3.21,0,0,0-3.28-3.32,3.59,3.59,0,0,0,.08,7.18,5.12,5.12,0,0,0,2.52-.63v-1.52a4.35,4.35,0,0,1-2.4.75,2,2,0,0,1-2.1-1.68Zm-3.19-2.81a1.69,1.69,0,0,1,1.8,1.62h-3.71a1.86,1.86,0,0,1,1.91-1.62Zm6.08-1.15h-1.53v6.89h1.53v-4.06a1.45,1.45,0,1,1,2.9.08v4h1.54v-4.37a2.46,2.46,0,0,0-2.5-2.66,2.1,2.1,0,0,0-1.94,1.12v-1Zm12.35,4a3,3,0,0,0,.1-.78,3.2,3.2,0,0,0-3.27-3.32,3.59,3.59,0,0,0,.08,7.18,5.15,5.15,0,0,0,2.52-.63v-1.52a4.39,4.39,0,0,1-2.41.75,2,2,0,0,1-2.1-1.68ZM518,134.81a1.69,1.69,0,0,1,1.81,1.62h-3.71a1.86,1.86,0,0,1,1.9-1.62Z" transform="translate(-306 156)"/><path class="cls-3" d="M462.33,106.31h-1.54v9.76h1.54v-4a2.66,2.66,0,0,0,2.35,1.27,3.6,3.6,0,0,0,0-7.18,2.55,2.55,0,0,0-2.35,1.35v-1.21Zm0,3.45a2.05,2.05,0,1,1,2.05,2.08,2,2,0,0,1-2.05-2.08Zm10.61.16v-1.44h-3.66v1.44Zm6.52,1.39a2.69,2.69,0,0,1-1.65.53,2.09,2.09,0,0,1,0-4.17,2.77,2.77,0,0,1,1.65.53v-1.65a3.68,3.68,0,0,0-1.65-.38,3.59,3.59,0,1,0,0,7.18,3.56,3.56,0,0,0,1.65-.4v-1.64Zm1.75,4.76H483l4.16-9.76h-1.74l-1.79,4.43-1.71-4.43h-1.72l2.59,6.36-1.57,3.4Zm8.4-9.76h-1.54v6.89h1.54V109a1.35,1.35,0,1,1,2.69.1v4.06h1.54v-4.06a1.33,1.33,0,0,1,1.37-1.47,1.3,1.3,0,0,1,1.33,1.47v4.06h1.54v-4.48a2.39,2.39,0,0,0-2.41-2.55,2.13,2.13,0,0,0-2.07,1.33,2.23,2.23,0,0,0-2.17-1.33,2,2,0,0,0-1.82,1v-.88Zm16.37,4a3.44,3.44,0,0,0,.1-.78,3.21,3.21,0,0,0-3.28-3.32,3.59,3.59,0,0,0,.08,7.18,5.12,5.12,0,0,0,2.52-.63V111.2a4.35,4.35,0,0,1-2.4.75,2,2,0,0,1-2.1-1.68Zm-3.19-2.81a1.69,1.69,0,0,1,1.8,1.62h-3.71a1.86,1.86,0,0,1,1.91-1.62Zm6.08-1.15h-1.53v6.89h1.53v-4.06a1.45,1.45,0,1,1,2.9.08v4h1.54v-4.37a2.46,2.46,0,0,0-2.5-2.66,2.1,2.1,0,0,0-1.94,1.12v-1Zm12.35,4a3,3,0,0,0,.1-.78,3.2,3.2,0,0,0-3.27-3.32,3.59,3.59,0,0,0,.08,7.18,5.15,5.15,0,0,0,2.52-.63V111.2a4.39,4.39,0,0,1-2.41.75,2,2,0,0,1-2.1-1.68ZM518,107.46a1.69,1.69,0,0,1,1.81,1.62h-3.71a1.86,1.86,0,0,1,1.9-1.62Z" transform="translate(-306 156)"/><path class="cls-3" d="M474.46,76.68a4.62,4.62,0,0,0-2-.49c-2.31,0-3.15,1.37-3.15,2.64a2.62,2.62,0,0,0,1.55,2.46l1.49.91c.62.38.88.74.88,1.16,0,.63-.5,1.13-1.47,1.13a3.94,3.94,0,0,1-2.31-.82v1.79a5.5,5.5,0,0,0,2.38.54c2.1,0,3.11-1.3,3.11-2.72a2.78,2.78,0,0,0-1.68-2.53l-1.46-.91c-.52-.32-.78-.66-.78-1.06,0-.63.5-1.08,1.41-1.08a3.58,3.58,0,0,1,2.07.71V76.68Zm2.1,4.06a3.46,3.46,0,0,1,1.81-.55,1.3,1.3,0,0,1,1.44,1.38v.57a2.4,2.4,0,0,0-1.65-.66,2.24,2.24,0,0,0-2.36,2.26A2.19,2.19,0,0,0,478.13,86a2.08,2.08,0,0,0,1.68-.78v.63h1.54V81.59a2.49,2.49,0,0,0-2.81-2.77,4.86,4.86,0,0,0-2,.44v1.48Zm.76,3a1.18,1.18,0,0,1,1.23-1.12,1.2,1.2,0,0,1,1.25,1.12,1.25,1.25,0,0,1-2.48,0Zm7.27,1A2.69,2.69,0,0,0,487,86a3.6,3.6,0,0,0,0-7.18,2.67,2.67,0,0,0-2.35,1.26V76.19h-1.54v9.66h1.54V84.73Zm0-2.33a2.05,2.05,0,1,1,4.1,0,2.05,2.05,0,1,1-4.1,0ZM493.17,79h-1.54v6.89h1.54V79Zm-1.72-2.1a.95.95,0,1,0,.95-1,.93.93,0,0,0-.95,1Zm9.7,6.06a3.44,3.44,0,0,0,.1-.78A3.2,3.2,0,0,0,498,78.82a3.59,3.59,0,0,0,.09,7.18,5.11,5.11,0,0,0,2.51-.63V83.85a4.35,4.35,0,0,1-2.4.75,2,2,0,0,1-2.1-1.68ZM498,80.11a1.68,1.68,0,0,1,1.8,1.62h-3.71A1.86,1.86,0,0,1,498,80.11ZM504.05,79h-1.54v6.89h1.54V81.79a1.38,1.38,0,0,1,1.44-1.47,1.4,1.4,0,0,1,1.45,1.55v4h1.54V81.48a2.46,2.46,0,0,0-2.5-2.66,2.08,2.08,0,0,0-1.93,1.12V79Zm12.34,4a3,3,0,0,0,.1-.78,3.2,3.2,0,0,0-3.27-3.32A3.59,3.59,0,0,0,513.3,86a5.15,5.15,0,0,0,2.52-.63V83.85a4.39,4.39,0,0,1-2.41.75,2,2,0,0,1-2.1-1.68Zm-3.19-2.81A1.69,1.69,0,0,1,515,81.73H511.3a1.86,1.86,0,0,1,1.9-1.62ZM517.58,77l-.26.48,1.3.77-1.3.75.26.48,1.32-.76v1.5h.55v-1.5l1.31.76L521,79l-1.32-.74,1.32-.77-.28-.48-1.31.77V76.19h-.55v1.54L517.58,77Z" transform="translate(-306 156)"/><path class="cls-3" d="M490.1,51.61v1.12a2.76,2.76,0,0,0-2.39-1.26,3.49,3.49,0,0,0,0,7,2.78,2.78,0,0,0,2.38-1.23V58a2,2,0,0,1-2.17,2.06,4.46,4.46,0,0,1-2.36-.73V61a5.12,5.12,0,0,0,2.36.56,3.38,3.38,0,0,0,3.71-3.68V51.61ZM490,55a2,2,0,1,1-2-2,1.94,1.94,0,0,1,2,2Zm7.81,3.54h1.53V51.61h-1.53v4.06a1.45,1.45,0,1,1-2.9-.1v-4h-1.54V56a2.46,2.46,0,0,0,2.49,2.66,2.09,2.09,0,0,0,1.95-1.12v1Zm3.57-5.11a3.43,3.43,0,0,1,1.81-.55,1.3,1.3,0,0,1,1.44,1.38v.57a2.4,2.4,0,0,0-1.65-.66,2.25,2.25,0,0,0-2.37,2.26A2.2,2.2,0,0,0,503,58.65a2.08,2.08,0,0,0,1.68-.78v.63h1.54V54.24a2.5,2.5,0,0,0-2.82-2.77,4.77,4.77,0,0,0-2,.44v1.48Zm.75,3a1.25,1.25,0,1,1,1.24,1.1,1.19,1.19,0,0,1-1.24-1.1Zm7.27-4.78h-1.54V58.5h1.54V51.61Zm-1.72-2.1a.94.94,0,0,0,.95,1,1,1,0,0,0,0-1.9.94.94,0,0,0-.95.95Zm3.07,5.55a3.58,3.58,0,1,0,3.58-3.59,3.53,3.53,0,0,0-3.58,3.59Zm1.55,0a2,2,0,1,1,2,2.08,2,2,0,0,1-2-2.08Zm8.5-6.22h-1.54V58.5h1.54V48.84Z" transform="translate(-306 156)"/><path class="cls-3" d="M404.73,29.26a2.69,2.69,0,0,1-1.65.53,2.09,2.09,0,0,1,0-4.17,2.8,2.8,0,0,1,1.65.53V24.5a3.71,3.71,0,0,0-1.65-.38,3.59,3.59,0,1,0,0,7.18,3.59,3.59,0,0,0,1.65-.4V29.26Zm1.7-3.22a3.4,3.4,0,0,1,1.8-.55,1.3,1.3,0,0,1,1.44,1.38v.57a2.4,2.4,0,0,0-1.65-.66A2.24,2.24,0,0,0,405.66,29,2.19,2.19,0,0,0,408,31.3a2.08,2.08,0,0,0,1.68-.78v.63h1.54V26.9a2.5,2.5,0,0,0-2.81-2.78,4.77,4.77,0,0,0-2,.44V26Zm.75,3a1.18,1.18,0,0,1,1.23-1.12A1.2,1.2,0,0,1,409.66,29a1.25,1.25,0,0,1-2.48,0Zm7.27-4.77h-1.54v6.89h1.54V27.09a1.32,1.32,0,0,1,1.34-1.47,2.32,2.32,0,0,1,.92.18V24.16a5.1,5.1,0,0,0-.57,0,1.86,1.86,0,0,0-1.69,1v-.84ZM418.09,34h1.77L424,24.26h-1.73l-1.8,4.43-1.7-4.43h-1.73l2.59,6.36L418.09,34Zm6.21-6.31a3.59,3.59,0,1,0,3.59-3.59,3.54,3.54,0,0,0-3.59,3.59Zm1.56,0a2,2,0,0,1,2-2.09,2.09,2.09,0,1,1-2,2.09Zm8.48-3.45H432.8V34h1.54V30a2.69,2.69,0,0,0,2.35,1.27A3.4,3.4,0,0,0,440,27.71a3.38,3.38,0,0,0-3.35-3.59,2.58,2.58,0,0,0-2.35,1.34v-1.2Zm0,3.45a2.05,2.05,0,1,1,2.06,2.08,2,2,0,0,1-2.06-2.08Zm8.58-6.22h-1.54v9.66h1.54V27.09a1.45,1.45,0,1,1,2.9.08v4h1.54V26.78a2.46,2.46,0,0,0-2.5-2.66,2.11,2.11,0,0,0-1.94,1.12V21.49ZM449.14,34h1.78l4.15-9.76h-1.73l-1.79,4.43-1.71-4.43h-1.72l2.59,6.36L449.14,34Zm8.41-12.53H456v9.66h1.54V21.49Zm3.32,0h-1.54v9.66h1.54V21.49Zm8,6.73a3,3,0,0,0,.1-.78,3.2,3.2,0,0,0-3.28-3.32,3.44,3.44,0,0,0-3.45,3.59,3.44,3.44,0,0,0,3.54,3.59,5.18,5.18,0,0,0,2.52-.63V29.15a4.39,4.39,0,0,1-2.41.75,2,2,0,0,1-2.1-1.68Zm-3.19-2.81A1.69,1.69,0,0,1,467.47,27h-3.71a1.85,1.85,0,0,1,1.9-1.62Zm6.09-1.15h-1.54v6.89h1.54V27.09a1.39,1.39,0,0,1,1.44-1.47,1.41,1.41,0,0,1,1.46,1.55v4h1.54V26.78a2.46,2.46,0,0,0-2.51-2.66,2.09,2.09,0,0,0-1.93,1.12v-1Zm12.35,4a3.49,3.49,0,0,0,.09-.78,3.2,3.2,0,0,0-3.27-3.32,3.44,3.44,0,0,0-3.46,3.59A3.44,3.44,0,0,0,481,31.3a5.15,5.15,0,0,0,2.52-.63V29.15a4.35,4.35,0,0,1-2.4.75,2,2,0,0,1-2.1-1.68Zm-3.19-2.81a1.69,1.69,0,0,1,1.8,1.62H479a1.86,1.86,0,0,1,1.91-1.62Zm7.26,2.3a3.59,3.59,0,1,0,3.59-3.59,3.54,3.54,0,0,0-3.59,3.59Zm1.55,0a2.05,2.05,0,0,1,2-2.09,2.09,2.09,0,0,1,0,4.17,2.05,2.05,0,0,1-2-2.08Zm9.16,1.14,1.46,2.3h1.8l-2.31-3.44,2.31-3.45h-1.8l-1.46,2.28-1.44-2.28h-1.81L498,27.71l-2.33,3.44h1.81l1.44-2.3Zm5.78-4.59h-1.54v6.89h1.54V24.26Zm-1.72-2.1a.94.94,0,0,0,.95.95,1,1,0,0,0,0-1.9.94.94,0,0,0-.95.95Zm8.78,9h1.52V21.49h-1.52v3.89a2.73,2.73,0,0,0-2.35-1.26A3.37,3.37,0,0,0,506,27.7a3.39,3.39,0,0,0,3.34,3.6A2.77,2.77,0,0,0,511.72,30v1.12Zm0-3.45a2.06,2.06,0,1,1-2.06-2.07,2.06,2.06,0,0,1,2.06,2.07Zm9.5.52a3,3,0,0,0,.1-.78,3.2,3.2,0,0,0-3.27-3.32,3.44,3.44,0,0,0-3.46,3.59,3.44,3.44,0,0,0,3.54,3.59,5.15,5.15,0,0,0,2.52-.63V29.15a4.39,4.39,0,0,1-2.41.75,2,2,0,0,1-2.1-1.68ZM518,25.41A1.69,1.69,0,0,1,519.84,27h-3.71a1.86,1.86,0,0,1,1.9-1.62Z" transform="translate(-306 156)"/><path class="cls-3" d="M480.32-5.86h-1.54V3.8h1.54V-5.86Zm3.3,2.77h-1.54V3.8h1.54V-3.09Zm-1.72-2.1a.93.93,0,0,0,1,1,.92.92,0,0,0,.94-1,.93.93,0,0,0-.94-.95.94.94,0,0,0-1,.95Zm5,2.1h-1.54V3.8h1.54V-.26a1.4,1.4,0,0,1,1.45-1.47,1.4,1.4,0,0,1,1.45,1.55v4h1.54V-.57a2.46,2.46,0,0,0-2.5-2.66,2.1,2.1,0,0,0-1.94,1.12v-1Zm6.39,1.78a3.4,3.4,0,0,1,1.8-.55,1.31,1.31,0,0,1,1.45,1.38V.09a2.4,2.4,0,0,0-1.66-.66,2.24,2.24,0,0,0-2.36,2.26A2.19,2.19,0,0,0,494.88,4a2.1,2.1,0,0,0,1.68-.78V3.8h1.54V-.46a2.5,2.5,0,0,0-2.82-2.77,4.77,4.77,0,0,0-2,.44v1.48Zm.75,3a1.25,1.25,0,0,1,2.48,0,1.25,1.25,0,0,1-2.48,0Zm7.28-7.54H499.8V3.8h1.54V-5.86ZM502.69.36A3.53,3.53,0,0,0,506.27,4,3.54,3.54,0,0,0,509.85.36a3.52,3.52,0,0,0-3.58-3.59A3.52,3.52,0,0,0,502.69.36Zm1.55,0a2,2,0,0,1,2-2.09,2,2,0,0,1,2,2.09,2,2,0,0,1-2,2.08,2,2,0,0,1-2-2.08Zm6.53,0A3.53,3.53,0,0,0,514.35,4,3.54,3.54,0,0,0,517.93.36a3.52,3.52,0,0,0-3.58-3.59A3.52,3.52,0,0,0,510.77.36Zm1.55,0a2,2,0,0,1,2-2.09,2,2,0,0,1,2,2.09,2,2,0,0,1-2,2.08,2,2,0,0,1-2-2.08Zm8.5-6.22h-1.54V3.8h1.54V-5.86Z" transform="translate(-306 156)"/><path class="cls-3" d="M473.79-30.44h-1.54v6.89h1.54v-4.16a1.29,1.29,0,0,1,1.36-1.37,1.31,1.31,0,0,1,1.33,1.47v4.06H478v-4.06a1.33,1.33,0,0,1,1.37-1.47,1.3,1.3,0,0,1,1.33,1.47v4.06h1.54V-28a2.39,2.39,0,0,0-2.41-2.55,2.13,2.13,0,0,0-2.07,1.33,2.23,2.23,0,0,0-2.17-1.33,2,2,0,0,0-1.82,1v-.88Zm16.37,4a3.44,3.44,0,0,0,.1-.78A3.21,3.21,0,0,0,487-30.58,3.44,3.44,0,0,0,483.52-27a3.45,3.45,0,0,0,3.55,3.59,5.11,5.11,0,0,0,2.51-.63v-1.52a4.35,4.35,0,0,1-2.4.75,2,2,0,0,1-2.1-1.68ZM487-29.29a1.68,1.68,0,0,1,1.8,1.62h-3.71A1.86,1.86,0,0,1,487-29.29Zm6.09-1.15h-1.54v6.89h1.54v-4.06a1.38,1.38,0,0,1,1.44-1.47A1.4,1.4,0,0,1,496-27.53v4h1.54v-4.37a2.46,2.46,0,0,0-2.5-2.66,2.08,2.08,0,0,0-1.93,1.12v-1Zm8.13,6.89v-5.57h1.25v-1.32h-1.25v-1.94l-1.46.33v1.61h-1.24v1.32h1.16v5.57Zm3.86-9.66h-1.54v9.66h1.54v-4.06a1.4,1.4,0,0,1,1.46-1.47A1.4,1.4,0,0,1,508-27.53v4h1.54v-4.37a2.46,2.46,0,0,0-2.5-2.66,2.11,2.11,0,0,0-1.94,1.12v-3.75ZM510.77-27a3.53,3.53,0,0,0,3.58,3.59A3.54,3.54,0,0,0,517.93-27a3.52,3.52,0,0,0-3.58-3.59A3.52,3.52,0,0,0,510.77-27Zm1.55,0a2,2,0,0,1,2-2.09,2,2,0,0,1,2,2.09,2,2,0,0,1-2,2.08,2,2,0,0,1-2-2.08Zm8.5-6.22h-1.54v9.66h1.54v-9.66Z" transform="translate(-306 156)"/><path class="cls-3" d="M460.14-57.79H458.6v6.89h1.54v-6.89Zm-1.72-2.1a.94.94,0,0,0,.95,1,.92.92,0,0,0,.94-1,.93.93,0,0,0-.94-1,.94.94,0,0,0-.95,1Zm7.21,2.24a5.07,5.07,0,0,0-1.59-.28c-1.57,0-2.44.83-2.44,2a1.88,1.88,0,0,0,1,1.71l1.18.7c.43.26.59.48.59.76s-.34.71-1,.71a2.89,2.89,0,0,1-1.7-.64v1.58a4.54,4.54,0,0,0,1.79.39c1.55,0,2.46-.84,2.46-2a2,2,0,0,0-1.15-1.82l-1.1-.65c-.34-.21-.52-.37-.52-.66s.31-.67.9-.67a2.9,2.9,0,0,1,1.55.49v-1.56Zm1.27,3.31a3.54,3.54,0,0,0,3.59,3.59,3.55,3.55,0,0,0,3.58-3.59,3.53,3.53,0,0,0-3.58-3.59,3.53,3.53,0,0,0-3.59,3.59Zm1.56,0a2,2,0,0,1,2-2.09,2,2,0,0,1,2,2.09,2,2,0,0,1-2,2.08,2,2,0,0,1-2-2.08Zm8.48-3.45H475.4V-48h1.54v-4a2.69,2.69,0,0,0,2.35,1.27,3.4,3.4,0,0,0,3.35-3.59,3.39,3.39,0,0,0-3.35-3.59,2.57,2.57,0,0,0-2.35,1.35v-1.21Zm0,3.45A2,2,0,0,1,479-56.42a2,2,0,0,1,2,2.08,2,2,0,0,1-2,2.08,2,2,0,0,1-2.06-2.08Zm11.44,3.44h1.53v-6.89h-1.53v4.06a1.41,1.41,0,0,1-1.46,1.47,1.41,1.41,0,0,1-1.44-1.57v-4h-1.54v4.38a2.46,2.46,0,0,0,2.49,2.66,2.09,2.09,0,0,0,1.95-1.12v1Zm4.87-9.66h-1.54v9.66h1.54v-9.66Zm8,6.73a3,3,0,0,0,.1-.78,3.2,3.2,0,0,0-3.28-3.32,3.45,3.45,0,0,0-3.45,3.59,3.44,3.44,0,0,0,3.54,3.59,5.18,5.18,0,0,0,2.52-.63V-52.9a4.39,4.39,0,0,1-2.41.75,2,2,0,0,1-2.1-1.68ZM498-56.64A1.69,1.69,0,0,1,499.85-55h-3.71a1.85,1.85,0,0,1,1.9-1.62Zm9.81-1.15v1.12a2.76,2.76,0,0,0-2.39-1.26,3.32,3.32,0,0,0-3.28,3.5A3.29,3.29,0,0,0,505.47-51a2.78,2.78,0,0,0,2.38-1.23v.8a2,2,0,0,1-2.17,2.06,4.49,4.49,0,0,1-2.36-.73v1.61a5.16,5.16,0,0,0,2.36.56,3.38,3.38,0,0,0,3.71-3.68v-6.22Zm-.08,3.35a1.94,1.94,0,0,1-2,2,1.94,1.94,0,0,1-2-2,1.94,1.94,0,0,1,2-2,1.94,1.94,0,0,1,2,2Zm3,.1a3.53,3.53,0,0,0,3.58,3.59,3.54,3.54,0,0,0,3.58-3.59,3.53,3.53,0,0,0-3.58-3.59,3.52,3.52,0,0,0-3.58,3.59Zm1.55,0a2,2,0,0,1,2-2.09,2,2,0,0,1,2,2.09,2,2,0,0,1-2,2.08,2,2,0,0,1-2-2.08Zm8.5-6.22h-1.54v9.66h1.54v-9.66Z" transform="translate(-306 156)"/><path class="cls-3" d="M547.73,277.3h5.83v-1.53h-1.95v-8H548v1.52h2v6.47h-2.29v1.53Zm10.18-8.09a1.68,1.68,0,0,1,1.74,1.81v3.05a1.75,1.75,0,1,1-3.49,0V271a1.68,1.68,0,0,1,1.75-1.81Zm0-1.57a3.24,3.24,0,0,0-3.34,3.34v3.13a3.34,3.34,0,1,0,6.67,0V271a3.23,3.23,0,0,0-3.33-3.34Zm6,9.66h1.9l2.72-4.26a3.72,3.72,0,0,0,.63-2,3.37,3.37,0,1,0-3.38,3.35h.09l-2,2.94Zm.13-6.29a1.75,1.75,0,1,1,3.49,0,1.75,1.75,0,1,1-3.49,0Z" transform="translate(-306 156)"/><path class="cls-3" d="M557.09,250h5.82v-1.53H561v-8h-3.57V242h2v6.47h-2.28V250Zm6.55,0h5.82v-1.53h-1.94v-8H564V242h2v6.47h-2.28V250Z" transform="translate(-306 156)"/><path class="cls-3" d="M555,166v-1.52h-1.22v-6.05h-1.59l-4.2,6.2V166h4.2v2h1.59v-2Zm-5.32-1.52,2.51-3.77v3.77ZM562.73,166v-1.52h-1.22v-6.05h-1.6l-4.2,6.2V166h4.2v2h1.6v-2Zm-5.32-1.52,2.5-3.77v3.77Zm6.36,3.47H569v-1.52h-3.19l2.13-2.7a4.19,4.19,0,0,0,1.09-2.76,2.63,2.63,0,0,0-2.91-2.68A3.77,3.77,0,0,0,564,159v1.81a2.88,2.88,0,0,1,2.06-.93,1.29,1.29,0,0,1,1.38,1.37,3.06,3.06,0,0,1-.85,1.82l-2.77,3.51v1.37Z" transform="translate(-306 156)"/><path class="cls-3" d="M556.37,136.38h1.36a1.37,1.37,0,0,1,1.5,1.34,1.44,1.44,0,0,1-1.58,1.39,3.09,3.09,0,0,1-2-.69v1.82a5.25,5.25,0,0,0,2.08.46,2.88,2.88,0,0,0,3.14-2.75,2.43,2.43,0,0,0-1.48-2.34,2.26,2.26,0,0,0,1.21-2.14,2.66,2.66,0,0,0-2.94-2.58,4.47,4.47,0,0,0-1.9.43v1.74a3.07,3.07,0,0,1,1.85-.58,1.2,1.2,0,0,1,1.34,1.19,1.16,1.16,0,0,1-1.23,1.17h-1.36v1.54Zm9.23-3.92a1.67,1.67,0,0,1,1.73,1.81v3a1.74,1.74,0,1,1-3.48,0v-3a1.68,1.68,0,0,1,1.75-1.81Zm0-1.57a3.24,3.24,0,0,0-3.35,3.34v3.13a3.34,3.34,0,1,0,6.68,0v-3.13a3.23,3.23,0,0,0-3.33-3.34Z" transform="translate(-306 156)"/><path class="cls-3" d="M557.26,113.2h5.23v-1.53H559.3l2.13-2.69a4.19,4.19,0,0,0,1.09-2.76,2.63,2.63,0,0,0-2.91-2.68,3.8,3.8,0,0,0-2.17.71v1.81a2.87,2.87,0,0,1,2-.92,1.29,1.29,0,0,1,1.39,1.37,3.06,3.06,0,0,1-.85,1.81l-2.77,3.51v1.37Zm6.51,0H569v-1.53h-3.19l2.13-2.69a4.19,4.19,0,0,0,1.09-2.76,2.63,2.63,0,0,0-2.91-2.68,3.77,3.77,0,0,0-2.17.71v1.81a2.87,2.87,0,0,1,2.06-.92,1.28,1.28,0,0,1,1.38,1.37,3.06,3.06,0,0,1-.85,1.81l-2.77,3.51v1.37Z" transform="translate(-306 156)"/><path class="cls-3" d="M567.77,76.33h-1.91l-2.73,4.25a3.89,3.89,0,0,0-.61,2,3.37,3.37,0,1,0,6.73,0,3.24,3.24,0,0,0-3.36-3.28h-.12l2-3Zm-.14,6.3a1.75,1.75,0,1,1-1.74-1.77,1.75,1.75,0,0,1,1.74,1.77Z" transform="translate(-306 156)"/><path class="cls-3" d="M563.26,51.45a2.19,2.19,0,0,0,1.09,1.95,2.51,2.51,0,0,0-1.41,2.33,3.09,3.09,0,0,0,6.17,0,2.46,2.46,0,0,0-1.43-2.31,2.24,2.24,0,0,0,1.11-2,2.77,2.77,0,0,0-5.53,0Zm1.2,4.26A1.57,1.57,0,1,1,566,57.23a1.52,1.52,0,0,1-1.56-1.52Zm.31-4.26a1.26,1.26,0,0,1,2.51,0,1.26,1.26,0,0,1-2.51,0Z" transform="translate(-306 156)"/><path class="cls-3" d="M557.11,31.15h5.83V29.62h-2v-8h-3.57v1.52h2v6.47h-2.29v1.53ZM564.59,27H566a1.37,1.37,0,0,1,1.5,1.34,1.45,1.45,0,0,1-1.59,1.39,3.06,3.06,0,0,1-2-.69v1.82a5.25,5.25,0,0,0,2.08.46,2.88,2.88,0,0,0,3.14-2.75,2.43,2.43,0,0,0-1.49-2.34,2.25,2.25,0,0,0,1.22-2.14,2.66,2.66,0,0,0-2.94-2.58,4.47,4.47,0,0,0-1.9.43v1.74a3,3,0,0,1,1.85-.58,1.2,1.2,0,0,1,1.34,1.19A1.16,1.16,0,0,1,566,25.44h-1.36V27Z" transform="translate(-306 156)"/><path class="cls-3" d="M558.08-.37h1.36A1.37,1.37,0,0,1,560.94,1a1.45,1.45,0,0,1-1.59,1.39,3.06,3.06,0,0,1-2-.69V3.49a5.25,5.25,0,0,0,2.08.46,2.88,2.88,0,0,0,3.14-2.75,2.43,2.43,0,0,0-1.49-2.34,2.25,2.25,0,0,0,1.22-2.14,2.66,2.66,0,0,0-2.94-2.58,4.47,4.47,0,0,0-1.9.43v1.74a3.07,3.07,0,0,1,1.85-.58,1.2,1.2,0,0,1,1.34,1.19,1.16,1.16,0,0,1-1.23,1.17h-1.36V-.37Zm5.69,4.17H569V2.27h-3.19l2.13-2.69A4.19,4.19,0,0,0,569-3.18a2.63,2.63,0,0,0-2.91-2.68,3.77,3.77,0,0,0-2.17.71v1.81A2.88,2.88,0,0,1,566-4.27a1.29,1.29,0,0,1,1.38,1.37,3.06,3.06,0,0,1-.85,1.82l-2.77,3.51V3.8Z" transform="translate(-306 156)"/><path class="cls-2" d="M451.41-81.5a3.3,3.3,0,0,1-2.17.77,2.85,2.85,0,0,1-2.86-2.92,2.87,2.87,0,0,1,2.86-2.92,3.31,3.31,0,0,1,2.17.78v-2.28a5,5,0,0,0-2.17-.49,4.81,4.81,0,0,0-4.9,4.91,4.8,4.8,0,0,0,4.9,4.9,5,5,0,0,0,2.17-.49V-81.5Zm.93-2.15a4.8,4.8,0,0,0,4.89,4.9,4.8,4.8,0,0,0,4.9-4.9,4.81,4.81,0,0,0-4.9-4.91,4.81,4.81,0,0,0-4.89,4.91Zm2,0a2.86,2.86,0,0,1,2.85-2.92,2.86,2.86,0,0,1,2.85,2.92,2.85,2.85,0,0,1-2.85,2.92,2.85,2.85,0,0,1-2.85-2.92Zm15.2,4.75,2.22-5.94v5.94h2v-9.52h-2.42l-2.63,7-2.65-7h-2.43v9.52h2v-5.94l2.22,5.94Zm6.3,0h2v-3.49h1.26a2.88,2.88,0,0,0,3.14-3,2.88,2.88,0,0,0-3.14-3h-3.25v9.52Zm4.34-6.5a1,1,0,0,1-1.12,1.1h-1.23v-2.2h1.23a1,1,0,0,1,1.12,1.1Zm2.9,1.75a4.8,4.8,0,0,0,4.9,4.9,4.8,4.8,0,0,0,4.9-4.9,4.81,4.81,0,0,0-4.9-4.91,4.81,4.81,0,0,0-4.9,4.91Zm2,0A2.87,2.87,0,0,1,488-86.57a2.86,2.86,0,0,1,2.84,2.92A2.85,2.85,0,0,1,488-80.73a2.86,2.86,0,0,1-2.86-2.92Zm14.45-4.77v6.1A1.55,1.55,0,0,1,498-80.68a1.54,1.54,0,0,1-1.64-1.64v-6.1h-2v5.94A3.4,3.4,0,0,0,498-78.75a3.41,3.41,0,0,0,3.64-3.73v-5.94Zm9.9,9.52h2v-9.52h-2v6.06l-4.17-6.06H503v.14l.66,1v8.33h2v-5.5l3.88,5.5Zm4.09,0h3.53a4.47,4.47,0,0,0,4.7-4.76,4.47,4.47,0,0,0-4.7-4.76H513.6v9.52Zm3.51-7.6a2.58,2.58,0,0,1,2.66,2.84,2.58,2.58,0,0,1-2.66,2.84h-1.52V-86.5Z" transform="translate(-306 156)"/><path class="cls-2" d="M547.19-85.87h-1.91V-76h1.91V-79.8a2.52,2.52,0,0,0,2.13,1,3.4,3.4,0,0,0,3.33-3.64A3.39,3.39,0,0,0,549.33-86a2.36,2.36,0,0,0-2.14,1.15v-1Zm0,3.48a1.73,1.73,0,0,1,1.75-1.75,1.72,1.72,0,0,1,1.72,1.75,1.73,1.73,0,0,1-1.72,1.77,1.74,1.74,0,0,1-1.75-1.77Zm8.55-3.48h-1.9V-76h1.9V-79.8a2.55,2.55,0,0,0,2.13,1,3.4,3.4,0,0,0,3.33-3.64A3.38,3.38,0,0,0,557.88-86a2.39,2.39,0,0,0-2.14,1.15v-1Zm0,3.48a1.73,1.73,0,0,1,1.75-1.75,1.71,1.71,0,0,1,1.72,1.75,1.72,1.72,0,0,1-1.72,1.77,1.74,1.74,0,0,1-1.75-1.77Zm8.55-3.48h-1.9v7h1.9V-83a1.11,1.11,0,0,1,1.17-1.15,1.11,1.11,0,0,1,1.12,1.25v4h1.9v-4a1.13,1.13,0,0,1,1.16-1.25,1.1,1.1,0,0,1,1.12,1.25v4h1.91v-4.55a2.42,2.42,0,0,0-2.4-2.56,2.15,2.15,0,0,0-2.06,1.26A2.25,2.25,0,0,0,566.07-86a2.06,2.06,0,0,0-1.78,1v-.82Z" transform="translate(-306 156)"/><path class="cls-2" d="M649.3-83.65a4.8,4.8,0,0,0,4.9,4.9,4.91,4.91,0,0,0,2.59-.72l1,1,1.36-1.35-.92-.91a4.89,4.89,0,0,0,.91-2.88,4.82,4.82,0,0,0-4.9-4.91,4.81,4.81,0,0,0-4.9,4.91Zm2,0a2.86,2.86,0,0,1,2.86-2.92A2.86,2.86,0,0,1,657-83.65a2.5,2.5,0,0,1-.36,1.35l-1.42-1.42-1.36,1.37L655.25-81a2.16,2.16,0,0,1-1,.27,2.85,2.85,0,0,1-2.86-2.92Zm14.58-4.77v6.1a1.55,1.55,0,0,1-1.66,1.64,1.55,1.55,0,0,1-1.64-1.64v-6.1h-2v5.94a3.4,3.4,0,0,0,3.62,3.73,3.41,3.41,0,0,0,3.64-3.73v-5.94Zm9.73,9.52h2.22l-3.53-9.52h-2.22l-3.53,9.52h2.23l.71-2h3.4l.72,2Zm-2.41-6.92,1,3h-2.1l1-3ZM684.8-78.9h2v-9.52h-2v6.06l-4.17-6.06h-2.35v.14l.66,1v8.33h2v-5.5l3.88,5.5Zm5.63,0h2v-7.6h2.31v-1.92h-6.61v1.92h2.31v7.6Zm5.63,0h2v-9.52h-2v9.52Zm5.63,0h2v-7.6H706v-1.92h-6.6v1.92h2.31v7.6Zm11,0h2.23l-3.53-9.52h-2.23l-3.52,9.52h2.22l.72-2H712l.71,2Zm-2.41-6.92,1,3h-2.1l1-3Zm6.58,6.92h2v-7.6h2.31v-1.92h-6.61v1.92h2.31v7.6Zm5.63,0h2v-9.52h-2v9.52Zm6.51,0h2.23l3.53-9.52H732.5l-2.41,7.21-2.42-7.21h-2.23L729-78.9Zm12.18,0v-1.92h-3.43v-1.92h3.15v-1.91h-3.15V-86.5h3.43v-1.92h-5.42v9.52Zm4.85,0h2v-3.49h1.26a2.88,2.88,0,0,0,3.14-3,2.88,2.88,0,0,0-3.14-3H746v9.52Zm4.34-6.5a1,1,0,0,1-1.13,1.1H748v-2.2h1.23a1,1,0,0,1,1.13,1.1Zm3.48,6.5h2v-3.54h.49c1.16,0,2,1.47,2.31,3.54h2.06c-.23-2-.94-3.72-2.13-4.34a2.34,2.34,0,0,0,1.72-2.41c0-1.76-1.29-2.77-3.15-2.77h-3.29v9.52Zm4.4-6.52a1,1,0,0,1-1.11,1.06h-1.3V-86.5h1.3a1,1,0,0,1,1.11,1.08Zm3.2,1.77a4.81,4.81,0,0,0,4.9,4.9,4.8,4.8,0,0,0,4.9-4.9,4.81,4.81,0,0,0-4.9-4.91,4.82,4.82,0,0,0-4.9,4.91Zm2.05,0a2.86,2.86,0,0,1,2.85-2.92,2.86,2.86,0,0,1,2.84,2.92,2.85,2.85,0,0,1-2.84,2.92,2.85,2.85,0,0,1-2.85-2.92Zm14.4,1.32v-1.92h-3.15V-86.5h3.43v-1.92h-5.42v9.52h2v-3.43Zm1.92,3.43h2v-9.52h-2v9.52Zm9.5,0v-1.92h-3.43v-7.6h-2v9.52Zm6.73,0v-1.92h-3.44v-1.92h3.15v-1.91h-3.15V-86.5H796v-1.92H790.6v9.52Z" transform="translate(-306 156)"/><path class="cls-3" d="M523.9,330.57h-.68v8.23h.68V335a2.59,2.59,0,0,0,2.4,1.48,3,3,0,0,0,0-6,2.58,2.58,0,0,0-2.4,1.51v-1.39Zm0,2.88a2.31,2.31,0,1,1,2.31,2.34,2.28,2.28,0,0,1-2.31-2.34Zm7.42-2.88h-.68v8.23h.68V335a2.59,2.59,0,0,0,2.4,1.48,3,3,0,0,0,0-6,2.58,2.58,0,0,0-2.4,1.51v-1.39Zm0,2.88a2.31,2.31,0,1,1,2.3,2.34,2.28,2.28,0,0,1-2.3-2.34Zm7.42-2.88h-.69v5.77h.69v-3.67a1.44,1.44,0,0,1,1.52-1.55,1.46,1.46,0,0,1,1.5,1.63v3.59h.68v-3.59a1.52,1.52,0,1,1,3,0v3.59h.68v-3.72a2,2,0,0,0-2.06-2.17,1.76,1.76,0,0,0-1.8,1.27,1.92,1.92,0,0,0-1.91-1.27,1.74,1.74,0,0,0-1.65,1v-.85Zm14.66-1.83a1.91,1.91,0,0,1,2,2v3a2,2,0,1,1-3.93,0v-3a1.91,1.91,0,0,1,2-2Zm0-.68a2.58,2.58,0,0,0-2.65,2.67v3a2.66,2.66,0,1,0,5.31,0v-3a2.59,2.59,0,0,0-2.66-2.67Zm4.12,7.81a.59.59,0,1,0,.58-.59.57.57,0,0,0-.58.59Zm5.3-7.13a1.91,1.91,0,0,1,2,2v3a2,2,0,1,1-3.93,0v-3a1.91,1.91,0,0,1,2-2Zm0-.68a2.58,2.58,0,0,0-2.65,2.67v3a2.66,2.66,0,1,0,5.31,0v-3a2.59,2.59,0,0,0-2.66-2.67Zm7,.68a1.9,1.9,0,0,1,2,2v3a2,2,0,1,1-3.92,0v-3a1.9,1.9,0,0,1,1.95-2Zm0-.68a2.59,2.59,0,0,0-2.65,2.67v3a2.66,2.66,0,1,0,5.32,0v-3a2.6,2.6,0,0,0-2.67-2.67Z" transform="translate(-306 156)"/><path class="cls-3" d="M684.69,336.34h4.65v-.65h-1.81v-7.51h-2.67v.65h2v6.86h-2.15v.65Zm8.39-7.6a1.91,1.91,0,0,1,2,2v3a2,2,0,1,1-3.93,0v-3a1.91,1.91,0,0,1,2-2Zm0-.68a2.59,2.59,0,0,0-2.66,2.67v3a2.66,2.66,0,1,0,5.32,0v-3a2.59,2.59,0,0,0-2.66-2.67Zm7,.68a1.91,1.91,0,0,1,2,2v3a2,2,0,1,1-3.93,0v-3a1.91,1.91,0,0,1,2-2Zm0-.68a2.58,2.58,0,0,0-2.65,2.67v3a2.66,2.66,0,1,0,5.31,0v-3a2.59,2.59,0,0,0-2.66-2.67Zm4.12,7.81a.59.59,0,1,0,.58-.59.57.57,0,0,0-.58.59Zm5.3-7.13a1.91,1.91,0,0,1,2,2v3a2,2,0,1,1-3.93,0v-3a1.91,1.91,0,0,1,2-2Zm0-.68a2.58,2.58,0,0,0-2.65,2.67v3a2.66,2.66,0,1,0,5.31,0v-3a2.59,2.59,0,0,0-2.66-2.67Zm7,.68a1.9,1.9,0,0,1,2,2v3a2,2,0,1,1-3.92,0v-3a1.9,1.9,0,0,1,2-2Zm0-.68a2.59,2.59,0,0,0-2.65,2.67v3a2.66,2.66,0,1,0,5.32,0v-3a2.6,2.6,0,0,0-2.67-2.67Z" transform="translate(-306 156)"/><polygon class="cls-2" points="269.5 883.97 291.93 883.97 291.93 899.43 269.5 899.43 269.5 883.97 269.5 883.97"/><polygon class="cls-2" points="269.5 856.57 293.73 856.57 293.73 872.03 269.5 872.03 269.5 856.57 269.5 856.57"/><polygon class="cls-2" points="269.5 829.16 276.73 829.16 276.73 844.63 269.5 844.63 269.5 829.16 269.5 829.16"/><polygon class="cls-2" points="269.5 801.76 440.03 801.76 440.03 817.23 269.5 817.23 269.5 801.76 269.5 801.76"/><polygon class="cls-2" points="269.5 720.22 317.53 720.22 317.53 735.69 269.5 735.69 269.5 720.22 269.5 720.22"/><polygon class="cls-2" points="269.5 610.16 332.53 610.16 332.53 625.63 269.5 625.63 269.5 610.16 269.5 610.16"/><polygon class="cls-2" points="269.5 582.77 351.53 582.77 351.53 598.23 269.5 598.23 269.5 582.77 269.5 582.77"/><path class="cls-5" d="M375.6,806.8H837m-.5-.5V420.4M574.89,806.3V420.4M706.1,806.3V420.4m-330.5-.5H837" transform="translate(-306 156)"/><path class="cls-3" d="M435.91,795.45v-5.57h1.24v-1.32h-1.24v-1.94l-1.46.33v1.61h-1.24v1.32h1.16v5.57Zm3.86-6.89h-1.54v6.89h1.54v-4.06a1.34,1.34,0,0,1,1.35-1.47,2.32,2.32,0,0,1,.92.18v-1.64a5.27,5.27,0,0,0-.57,0,1.86,1.86,0,0,0-1.7,1v-.84Zm3.46,1.78a3.43,3.43,0,0,1,1.81-.55,1.3,1.3,0,0,1,1.44,1.38v.57a2.4,2.4,0,0,0-1.65-.66,2.25,2.25,0,0,0-2.37,2.26,2.2,2.2,0,0,0,2.34,2.26,2.08,2.08,0,0,0,1.68-.78v.63H448V791.2a2.5,2.5,0,0,0-2.82-2.78,4.77,4.77,0,0,0-2,.44v1.48Zm.76,3a1.18,1.18,0,0,1,1.23-1.13,1.2,1.2,0,0,1,1.25,1.13,1.25,1.25,0,0,1-2.48,0Zm7.26-4.78h-1.54v6.89h1.54v-4.06a1.45,1.45,0,1,1,2.9.08v4h1.54v-4.37a2.46,2.46,0,0,0-2.51-2.66,2.1,2.1,0,0,0-1.93,1.12v-1Zm9.86.14a5.14,5.14,0,0,0-1.6-.28c-1.57,0-2.43.83-2.43,2a1.88,1.88,0,0,0,1,1.7l1.18.7c.43.26.59.48.59.76s-.34.71-1,.71a2.87,2.87,0,0,1-1.7-.64v1.58a4.54,4.54,0,0,0,1.79.39c1.55,0,2.46-.84,2.46-2a2,2,0,0,0-1.15-1.83l-1.1-.65c-.34-.21-.52-.37-.52-.66s.31-.67.89-.67a3,3,0,0,1,1.56.48V788.7Zm5.18,3.47v-1.44h-3.66v1.44Zm3.2-3.61H468v6.89h1.53v-4.06a1.45,1.45,0,1,1,2.9.08v4h1.54v-4.37a2.46,2.46,0,0,0-2.5-2.66,2.1,2.1,0,0,0-1.94,1.12v-1Zm12.35,4a3,3,0,0,0,.1-.78,3.2,3.2,0,0,0-3.28-3.32,3.59,3.59,0,0,0,.09,7.18,5.18,5.18,0,0,0,2.52-.63v-1.52a4.39,4.39,0,0,1-2.41.76,2,2,0,0,1-2.1-1.69Zm-3.19-2.81a1.69,1.69,0,0,1,1.81,1.62h-3.71a1.85,1.85,0,0,1,1.9-1.62Zm6.09-1.15H483.2v6.89h1.54v-4.06c0-.88.5-1.47,1.34-1.47a2.37,2.37,0,0,1,.93.18v-1.64a5.28,5.28,0,0,0-.58,0,1.86,1.86,0,0,0-1.69,1v-.84Zm2.74,3.45a3.59,3.59,0,1,0,3.59-3.59,3.54,3.54,0,0,0-3.59,3.59Zm1.56,0a2,2,0,0,1,2-2.09,2.09,2.09,0,1,1-2,2.09Zm8.5-6.22H496v9.66h1.54v-9.66Zm3.3,2.77H499.3v6.89h1.54v-6.89Zm-1.72-2.1a.95.95,0,1,0,.95-1,.93.93,0,0,0-.95,1Zm8.78,9h1.52v-9.66H507.9v3.89a2.73,2.73,0,0,0-2.36-1.26,3.6,3.6,0,0,0,0,7.18,2.77,2.77,0,0,0,2.37-1.27v1.12Zm0-3.44a2.06,2.06,0,1,1-2.06-2.08A2.06,2.06,0,0,1,507.9,792Zm2.87,0a3.58,3.58,0,1,0,3.58-3.59,3.53,3.53,0,0,0-3.58,3.59Zm1.55,0a2,2,0,1,1,2,2.08,2,2,0,0,1-2-2.08Zm8.5-6.22h-1.54v9.66h1.54v-9.66Z" transform="translate(-306 156)"/><path class="cls-3" d="M452.61,766.21a2.69,2.69,0,0,1-1.65.53,2.09,2.09,0,0,1,0-4.17,2.8,2.8,0,0,1,1.65.53v-1.65a3.71,3.71,0,0,0-1.65-.38,3.59,3.59,0,1,0,0,7.18,3.59,3.59,0,0,0,1.65-.4v-1.64Zm3-5h-1.54v6.89h1.54v-6.89Zm-1.72-2.1a.95.95,0,1,0,1-1,.93.93,0,0,0-1,1Zm7.21,2.24a5.14,5.14,0,0,0-1.6-.28c-1.57,0-2.43.83-2.43,2a1.88,1.88,0,0,0,1,1.71l1.18.7c.43.26.59.48.59.76s-.34.71-1,.71a2.87,2.87,0,0,1-1.7-.64v1.58a4.54,4.54,0,0,0,1.79.39c1.55,0,2.46-.84,2.46-2a2,2,0,0,0-1.15-1.82l-1.1-.65c-.34-.21-.52-.37-.52-.66s.31-.68.89-.68a3,3,0,0,1,1.56.49v-1.55Zm5.18,3.47v-1.44h-3.66v1.44Zm3.2-3.61H468v6.89h1.53V764a1.45,1.45,0,1,1,2.9.08v4h1.54v-4.37a2.46,2.46,0,0,0-2.5-2.66,2.1,2.1,0,0,0-1.94,1.12v-1Zm12.35,4a3,3,0,0,0,.1-.78,3.2,3.2,0,0,0-3.28-3.32,3.59,3.59,0,0,0,.09,7.18,5.18,5.18,0,0,0,2.52-.63V766.1a4.39,4.39,0,0,1-2.41.75,2,2,0,0,1-2.1-1.68Zm-3.19-2.81a1.69,1.69,0,0,1,1.81,1.62h-3.71a1.85,1.85,0,0,1,1.9-1.62Zm6.09-1.15H483.2v6.89h1.54V764c0-.88.5-1.47,1.34-1.47a2.37,2.37,0,0,1,.93.18v-1.64a5.28,5.28,0,0,0-.58,0,1.86,1.86,0,0,0-1.69,1v-.84Zm2.74,3.45a3.59,3.59,0,1,0,3.59-3.59,3.54,3.54,0,0,0-3.59,3.59Zm1.56,0a2,2,0,0,1,2-2.09,2.09,2.09,0,1,1-2,2.09Zm8.5-6.22H496v9.66h1.54v-9.66Zm3.3,2.77H499.3v6.89h1.54v-6.89Zm-1.72-2.1a.95.95,0,1,0,.95-1,.93.93,0,0,0-.95,1Zm8.78,9h1.52v-9.66H507.9v3.89a2.73,2.73,0,0,0-2.36-1.26,3.6,3.6,0,0,0,0,7.18A2.77,2.77,0,0,0,507.9,767v1.12Zm0-3.44a2.06,2.06,0,1,1-2.06-2.08,2.06,2.06,0,0,1,2.06,2.08Zm2.87,0a3.58,3.58,0,1,0,3.58-3.59,3.53,3.53,0,0,0-3.58,3.59Zm1.55,0a2,2,0,1,1,2,2.08,2,2,0,0,1-2-2.08Zm8.5-6.22h-1.54v9.66h1.54v-9.66Z" transform="translate(-306 156)"/><path class="cls-3" d="M423.63,735.64a3.43,3.43,0,0,1,1.81-.55,1.3,1.3,0,0,1,1.44,1.38V737a2.4,2.4,0,0,0-1.65-.66,2.25,2.25,0,0,0-2.37,2.26,2.2,2.2,0,0,0,2.34,2.26,2.08,2.08,0,0,0,1.68-.78v.63h1.54v-4.26a2.5,2.5,0,0,0-2.81-2.77,4.78,4.78,0,0,0-2,.44v1.48Zm.76,3a1.18,1.18,0,0,1,1.23-1.12,1.2,1.2,0,0,1,1.25,1.12,1.25,1.25,0,0,1-2.48,0Zm7.28-7.54h-1.54v9.66h1.54v-9.66Zm3.3,2.77h-1.54v9.76H435v-4a2.69,2.69,0,0,0,2.35,1.27,3.6,3.6,0,0,0,0-7.18,2.57,2.57,0,0,0-2.35,1.35v-1.21Zm0,3.45a2.05,2.05,0,1,1,2.06,2.08,2,2,0,0,1-2.06-2.08Zm8.58-6.22H442v9.66h1.54v-4.06a1.45,1.45,0,1,1,2.9.08v4H448v-4.37a2.46,2.46,0,0,0-2.5-2.66,2.11,2.11,0,0,0-1.94,1.12v-3.75Zm6.39,4.55a3.4,3.4,0,0,1,1.8-.55,1.31,1.31,0,0,1,1.45,1.38V737a2.42,2.42,0,0,0-1.66-.66,2.25,2.25,0,0,0-2.36,2.26,2.19,2.19,0,0,0,2.33,2.26,2.1,2.1,0,0,0,1.69-.78v.63h1.53v-4.26a2.49,2.49,0,0,0-2.81-2.77,4.77,4.77,0,0,0-2,.44v1.48Zm.75,3a1.18,1.18,0,0,1,1.23-1.12,1.2,1.2,0,0,1,1.25,1.12,1.25,1.25,0,0,1-2.48,0Zm9.3-1.16V736h-3.66v1.44Zm3.2-6.38h-1.53v9.66h1.53v-4.06a1.45,1.45,0,1,1,2.9.08v4h1.54v-4.37a2.46,2.46,0,0,0-2.5-2.66,2.11,2.11,0,0,0-1.94,1.12v-3.75Zm10.53,9.66h1.53v-6.89h-1.53v4.06a1.45,1.45,0,1,1-2.9-.1v-4h-1.53v4.38a2.46,2.46,0,0,0,2.49,2.66,2.09,2.09,0,0,0,1.94-1.12v1Zm4.86-6.89H477v6.89h1.54v-4.16a1.29,1.29,0,0,1,1.36-1.37,1.31,1.31,0,0,1,1.33,1.47v4.06h1.54v-4.06a1.33,1.33,0,0,1,1.37-1.47,1.31,1.31,0,0,1,1.33,1.47v4.06h1.54v-4.48a2.39,2.39,0,0,0-2.41-2.55,2.13,2.13,0,0,0-2.07,1.33,2.23,2.23,0,0,0-2.17-1.33,2,2,0,0,0-1.82,1v-.88Zm14.55,6.89h1.52v-6.89h-1.52v4.06a1.45,1.45,0,1,1-2.9-.1v-4h-1.54v4.38a2.46,2.46,0,0,0,2.49,2.66,2.11,2.11,0,0,0,1.95-1.12v1Zm4.87-9.66h-1.54v9.66H498v-9.66Zm8,6.73a3.44,3.44,0,0,0,.1-.78,3.21,3.21,0,0,0-3.28-3.32,3.59,3.59,0,0,0,.08,7.18,5.12,5.12,0,0,0,2.52-.63v-1.52a4.36,4.36,0,0,1-2.4.76,2,2,0,0,1-2.1-1.69ZM502.79,735a1.69,1.69,0,0,1,1.8,1.63h-3.71a1.86,1.86,0,0,1,1.91-1.63Zm6.08-1.15h-1.53v6.89h1.53v-4.06a1.45,1.45,0,1,1,2.9.08v4h1.54v-4.37a2.46,2.46,0,0,0-2.5-2.66,2.1,2.1,0,0,0-1.94,1.12v-1Zm12.35,4a3,3,0,0,0,.1-.78,3.2,3.2,0,0,0-3.27-3.32,3.59,3.59,0,0,0,.08,7.18,5.15,5.15,0,0,0,2.52-.63v-1.52a4.39,4.39,0,0,1-2.41.76,2,2,0,0,1-2.1-1.69ZM518,735a1.69,1.69,0,0,1,1.81,1.63h-3.71A1.86,1.86,0,0,1,518,735Z" transform="translate(-306 156)"/><path class="cls-3" d="M418.06,706.51v1.12a2.78,2.78,0,0,0-2.39-1.26,3.49,3.49,0,0,0,0,7,2.79,2.79,0,0,0,2.38-1.23v.8a2,2,0,0,1-2.17,2.06,4.49,4.49,0,0,1-2.37-.73v1.61a5.17,5.17,0,0,0,2.37.56,3.38,3.38,0,0,0,3.71-3.68v-6.22Zm-.08,3.35a2,2,0,1,1-2-2,1.94,1.94,0,0,1,2,2Zm3.66-1.57a3.43,3.43,0,0,1,1.81-.55,1.3,1.3,0,0,1,1.44,1.38v.57a2.4,2.4,0,0,0-1.65-.66,2.25,2.25,0,0,0-2.37,2.26,2.2,2.2,0,0,0,2.34,2.26,2.08,2.08,0,0,0,1.68-.78v.63h1.54v-4.26a2.49,2.49,0,0,0-2.81-2.77,4.82,4.82,0,0,0-2,.44v1.48Zm.76,3a1.18,1.18,0,0,1,1.23-1.12,1.2,1.2,0,0,1,1.25,1.12,1.25,1.25,0,0,1-2.48,0Zm7.26-4.77h-1.53v6.89h1.53v-4.16a1.35,1.35,0,1,1,2.69.1v4.06h1.54v-4.06a1.33,1.33,0,0,1,1.38-1.47,1.31,1.31,0,0,1,1.33,1.47v4.06h1.53v-4.48a2.38,2.38,0,0,0-2.4-2.55,2.14,2.14,0,0,0-2.08,1.33,2.22,2.22,0,0,0-2.16-1.33,2,2,0,0,0-1.83,1v-.88Zm11.69,0h-1.53v6.89h1.53v-4.16a1.35,1.35,0,1,1,2.69.1v4.06h1.54v-4.06a1.33,1.33,0,0,1,1.38-1.47,1.31,1.31,0,0,1,1.33,1.47v4.06h1.53v-4.48a2.38,2.38,0,0,0-2.4-2.55,2.14,2.14,0,0,0-2.08,1.33,2.22,2.22,0,0,0-2.16-1.33,2,2,0,0,0-1.83,1v-.88Zm10.41,1.78a3.4,3.4,0,0,1,1.8-.55,1.31,1.31,0,0,1,1.45,1.38v.57a2.4,2.4,0,0,0-1.66-.66,2.25,2.25,0,0,0-2.36,2.26,2.19,2.19,0,0,0,2.33,2.26,2.1,2.1,0,0,0,1.69-.78v.63h1.53v-4.26a2.49,2.49,0,0,0-2.81-2.77,4.77,4.77,0,0,0-2,.44v1.48Zm.75,3a1.25,1.25,0,1,1,1.24,1.11,1.19,1.19,0,0,1-1.24-1.11Zm9.3-1.16v-1.44h-3.66v1.44Zm3.71,3.28v-5.57h1.24v-1.32h-1.24v-1.94l-1.46.33v1.61h-1.24v1.32H464v5.57Zm8.43-2.93a3.49,3.49,0,0,0,.09-.78,3.2,3.2,0,0,0-3.27-3.32,3.59,3.59,0,0,0,.08,7.18,5.12,5.12,0,0,0,2.52-.63V711.4a4.35,4.35,0,0,1-2.4.75,2,2,0,0,1-2.1-1.68Zm-3.19-2.81a1.69,1.69,0,0,1,1.8,1.62h-3.71a1.86,1.86,0,0,1,1.91-1.62Zm6.08-1.15h-1.53v6.89h1.53v-4.06a1.34,1.34,0,0,1,1.35-1.47,2.32,2.32,0,0,1,.92.18v-1.64a5.27,5.27,0,0,0-.57,0,1.88,1.88,0,0,0-1.7,1v-.84Zm4.9,0h-1.53v9.76h1.53v-4a2.69,2.69,0,0,0,2.36,1.27,3.6,3.6,0,0,0,0-7.18,2.58,2.58,0,0,0-2.36,1.35v-1.21Zm0,3.45A2.06,2.06,0,1,1,483.8,712a2,2,0,0,1-2.06-2.08Zm8.59-3.45h-1.54v6.89h1.54v-6.89Zm-1.72-2.1a.93.93,0,0,0,.95,1,1,1,0,0,0,0-1.9.94.94,0,0,0-.95.95Zm5,2.1h-1.54v6.89h1.54v-4.06a1.39,1.39,0,0,1,1.44-1.47,1.41,1.41,0,0,1,1.46,1.55v4h1.54V709a2.46,2.46,0,0,0-2.51-2.66,2.09,2.09,0,0,0-1.93,1.12v-1Zm12.35,4a3.44,3.44,0,0,0,.1-.78,3.21,3.21,0,0,0-3.28-3.32,3.59,3.59,0,0,0,.08,7.18,5.12,5.12,0,0,0,2.52-.63V711.4a4.35,4.35,0,0,1-2.4.75,2,2,0,0,1-2.1-1.68Zm-3.19-2.81a1.69,1.69,0,0,1,1.8,1.62h-3.71a1.86,1.86,0,0,1,1.91-1.62Zm6.08-1.15h-1.53v6.89h1.53v-4.06a1.45,1.45,0,1,1,2.9.08v4h1.54V709a2.46,2.46,0,0,0-2.5-2.66,2.1,2.1,0,0,0-1.94,1.12v-1Zm12.35,4a3,3,0,0,0,.1-.78,3.2,3.2,0,0,0-3.27-3.32,3.59,3.59,0,0,0,.08,7.18,5.15,5.15,0,0,0,2.52-.63V711.4a4.39,4.39,0,0,1-2.41.75,2,2,0,0,1-2.1-1.68ZM518,707.66a1.69,1.69,0,0,1,1.81,1.62h-3.71a1.86,1.86,0,0,1,1.9-1.62Z" transform="translate(-306 156)"/><path class="cls-3" d="M422.61,684.16a2.69,2.69,0,0,1-1.65.53,2.09,2.09,0,0,1,0-4.17,2.8,2.8,0,0,1,1.65.53V679.4A3.71,3.71,0,0,0,421,679a3.59,3.59,0,1,0,0,7.18,3.59,3.59,0,0,0,1.65-.4v-1.64Zm3-5h-1.54v6.89h1.54v-6.89Zm-1.72-2.1a.95.95,0,1,0,1-.95.93.93,0,0,0-1,.95Zm7.21,2.24a5.14,5.14,0,0,0-1.6-.28c-1.57,0-2.43.83-2.43,2a1.88,1.88,0,0,0,1,1.71l1.18.7c.43.26.58.48.58.76s-.33.72-.95.72a2.93,2.93,0,0,1-1.71-.65v1.58a4.63,4.63,0,0,0,1.79.39c1.56,0,2.47-.84,2.47-2a2.06,2.06,0,0,0-1.15-1.82l-1.1-.65c-.34-.21-.52-.37-.52-.66s.3-.68.89-.68a3,3,0,0,1,1.56.49V679.3Zm5.18,3.47v-1.44h-3.66v1.44Zm3.2,2.16a2.72,2.72,0,0,0,2.37,1.27,3.6,3.6,0,0,0,0-7.18,2.7,2.7,0,0,0-2.36,1.26v-3.89H438v9.66h1.54v-1.12Zm0-2.33a2.06,2.06,0,1,1,2.06,2.09,2,2,0,0,1-2.06-2.09Zm13.26.52a3,3,0,0,0,.1-.78,3.2,3.2,0,0,0-3.28-3.32,3.59,3.59,0,0,0,.09,7.18,5.18,5.18,0,0,0,2.52-.63v-1.52a4.39,4.39,0,0,1-2.41.75,2,2,0,0,1-2.1-1.68Zm-3.19-2.81a1.69,1.69,0,0,1,1.81,1.62h-3.71a1.85,1.85,0,0,1,1.9-1.62Zm6.56,5.74v-5.57h1.25v-1.32h-1.25v-1.94l-1.45.33v1.61h-1.25v1.32h1.17v5.57Zm2.52-5.11a3.46,3.46,0,0,1,1.81-.55,1.3,1.3,0,0,1,1.44,1.38v.57a2.4,2.4,0,0,0-1.65-.66,2.24,2.24,0,0,0-2.36,2.26,2.19,2.19,0,0,0,2.33,2.26,2.08,2.08,0,0,0,1.68-.78v.63h1.54v-4.26a2.49,2.49,0,0,0-2.81-2.77,4.86,4.86,0,0,0-2,.44v1.48Zm.76,3a1.18,1.18,0,0,1,1.23-1.12,1.2,1.2,0,0,1,1.25,1.12,1.25,1.25,0,0,1-2.48,0Zm9.3-1.16v-1.44H465v1.44Zm1.24-.16a3.59,3.59,0,1,0,3.59-3.59,3.54,3.54,0,0,0-3.59,3.59Zm1.56,0a2,2,0,0,1,2-2.09,2.09,2.09,0,1,1-2,2.09Zm11.8,1.55a2.69,2.69,0,0,1-1.65.53,2.09,2.09,0,0,1,0-4.17,2.8,2.8,0,0,1,1.65.53V679.4a3.71,3.71,0,0,0-1.65-.38,3.59,3.59,0,1,0,0,7.18,3.59,3.59,0,0,0,1.65-.4v-1.64Zm3-5h-1.54v6.89h1.54v-6.89Zm-1.72-2.1a.95.95,0,1,0,1-.95.93.93,0,0,0-1,.95Zm5,2.1h-1.54v6.89h1.54v-4.16a1.35,1.35,0,1,1,2.69.1v4.06h1.54V682a1.33,1.33,0,0,1,1.37-1.47,1.3,1.3,0,0,1,1.33,1.47v4.06h1.54v-4.48a2.39,2.39,0,0,0-2.41-2.55,2.13,2.13,0,0,0-2.07,1.33,2.23,2.23,0,0,0-2.17-1.33,2,2,0,0,0-1.82,1v-.88Zm16.37,4a3.44,3.44,0,0,0,.1-.78A3.21,3.21,0,0,0,502.8,679a3.59,3.59,0,0,0,.08,7.18,5.12,5.12,0,0,0,2.52-.63v-1.52a4.35,4.35,0,0,1-2.4.75,2,2,0,0,1-2.1-1.68Zm-3.19-2.81a1.69,1.69,0,0,1,1.8,1.62h-3.71a1.86,1.86,0,0,1,1.91-1.62Zm6.08-1.15h-1.53v6.89h1.53V682a1.45,1.45,0,1,1,2.9.08v4h1.54v-4.37a2.46,2.46,0,0,0-2.5-2.66,2.1,2.1,0,0,0-1.94,1.12v-1Zm12.35,4a3,3,0,0,0,.1-.78,3.2,3.2,0,0,0-3.27-3.32,3.59,3.59,0,0,0,.08,7.18,5.15,5.15,0,0,0,2.52-.63v-1.52a4.39,4.39,0,0,1-2.41.75,2,2,0,0,1-2.1-1.68ZM518,680.31a1.69,1.69,0,0,1,1.81,1.62h-3.71a1.86,1.86,0,0,1,1.9-1.62Z" transform="translate(-306 156)"/><path class="cls-3" d="M450.92,658.7h3.43a4.76,4.76,0,0,0,0-9.52h-3.43v9.52Zm3.41-8a3.24,3.24,0,0,1,0,6.47h-1.82V650.7Zm9.71,4.72V654h-3.66v1.44Zm3.21-6.38h-1.53v9.66h1.53V649Zm3.31,2.77H469v6.89h1.54v-6.89Zm-1.72-2.1a.95.95,0,1,0,1-1,.93.93,0,0,0-1,1Zm5,2.1h-1.54v6.89h1.54v-4.16a1.35,1.35,0,1,1,2.69.1v4.06h1.54v-4.06a1.33,1.33,0,0,1,1.37-1.47,1.3,1.3,0,0,1,1.33,1.47v4.06h1.54v-4.48a2.39,2.39,0,0,0-2.41-2.55,2.14,2.14,0,0,0-2.07,1.33,2.23,2.23,0,0,0-2.17-1.33,2,2,0,0,0-1.82,1v-.88Zm9.73,3.45a3.59,3.59,0,1,0,3.59-3.59,3.54,3.54,0,0,0-3.59,3.59Zm1.56,0a2,2,0,0,1,2-2.09,2.09,2.09,0,1,1-2,2.09Zm8.48-3.45h-1.54v6.89h1.54v-4.06a1.39,1.39,0,0,1,1.44-1.47,1.41,1.41,0,0,1,1.46,1.55v4h1.54v-4.37a2.46,2.46,0,0,0-2.51-2.66,2.09,2.09,0,0,0-1.93,1.12v-1Zm12.35,4a3.44,3.44,0,0,0,.1-.78,3.21,3.21,0,0,0-3.28-3.32,3.59,3.59,0,0,0,.08,7.18,5.12,5.12,0,0,0,2.52-.63V656.7a4.35,4.35,0,0,1-2.4.75,2,2,0,0,1-2.1-1.68ZM502.79,653a1.69,1.69,0,0,1,1.8,1.63h-3.71a1.86,1.86,0,0,1,1.91-1.63Zm6.08-1.15h-1.53v6.89h1.53v-4.06a1.45,1.45,0,1,1,2.9.08v4h1.54v-4.37a2.46,2.46,0,0,0-2.5-2.66,2.1,2.1,0,0,0-1.94,1.12v-1Zm12.35,4a3,3,0,0,0,.1-.78,3.2,3.2,0,0,0-3.27-3.32,3.59,3.59,0,0,0,.08,7.18,5.15,5.15,0,0,0,2.52-.63V656.7a4.39,4.39,0,0,1-2.41.75,2,2,0,0,1-2.1-1.68ZM518,653a1.69,1.69,0,0,1,1.81,1.63h-3.71A1.86,1.86,0,0,1,518,653Z" transform="translate(-306 156)"/><path class="cls-3" d="M432.34,626.24a3.41,3.41,0,0,1,1.81-.55,1.3,1.3,0,0,1,1.44,1.38v.57a2.4,2.4,0,0,0-1.66-.66,2.25,2.25,0,0,0-2.36,2.26,2.2,2.2,0,0,0,2.34,2.26,2.08,2.08,0,0,0,1.68-.78v.63h1.54v-4.26a2.5,2.5,0,0,0-2.82-2.77,4.77,4.77,0,0,0-2,.44v1.48Zm.75,3a1.25,1.25,0,1,1,1.24,1.11,1.19,1.19,0,0,1-1.24-1.11Zm7.28-7.54h-1.53v9.66h1.53v-9.66Zm3.31,2.77h-1.54v9.76h1.54v-4A2.66,2.66,0,0,0,446,631.5a3.6,3.6,0,0,0,0-7.18,2.56,2.56,0,0,0-2.35,1.34v-1.2Zm0,3.45a2.05,2.05,0,1,1,2.06,2.08,2,2,0,0,1-2.06-2.08Zm8.58-6.22h-1.54v9.66h1.54v-4.06a1.45,1.45,0,1,1,2.9.08v4h1.54V627a2.46,2.46,0,0,0-2.51-2.66,2.11,2.11,0,0,0-1.93,1.12v-3.75Zm6.38,4.55a3.46,3.46,0,0,1,1.81-.55,1.3,1.3,0,0,1,1.44,1.38v.57a2.4,2.4,0,0,0-1.65-.66,2.24,2.24,0,0,0-2.36,2.26,2.19,2.19,0,0,0,2.33,2.26,2.08,2.08,0,0,0,1.68-.78v.63h1.54v-4.26a2.49,2.49,0,0,0-2.81-2.77,4.86,4.86,0,0,0-2,.44v1.48Zm.76,3a1.18,1.18,0,0,1,1.23-1.12,1.2,1.2,0,0,1,1.25,1.12,1.25,1.25,0,0,1-2.48,0Zm9.3-1.16v-1.44H465v1.44Zm1.24-.16a3.59,3.59,0,1,0,3.59-3.59,3.54,3.54,0,0,0-3.59,3.59Zm1.56,0a2,2,0,0,1,2-2.09,2.09,2.09,0,1,1-2,2.09Zm11.8,1.55a2.69,2.69,0,0,1-1.65.53,2.09,2.09,0,0,1,0-4.17,2.8,2.8,0,0,1,1.65.53V624.7a3.71,3.71,0,0,0-1.65-.38,3.59,3.59,0,1,0,0,7.18,3.59,3.59,0,0,0,1.65-.4v-1.64Zm3-5h-1.54v6.89h1.54v-6.89Zm-1.72-2.1a.95.95,0,1,0,1-1,.93.93,0,0,0-1,1Zm5,2.1h-1.54v6.89h1.54v-4.16a1.35,1.35,0,1,1,2.69.1v4.06h1.54v-4.06a1.33,1.33,0,0,1,1.37-1.47,1.3,1.3,0,0,1,1.33,1.47v4.06h1.54v-4.48a2.39,2.39,0,0,0-2.41-2.55,2.13,2.13,0,0,0-2.07,1.33,2.23,2.23,0,0,0-2.17-1.33,2,2,0,0,0-1.82,1v-.88Zm16.37,4a3.44,3.44,0,0,0,.1-.78,3.21,3.21,0,0,0-3.28-3.32,3.59,3.59,0,0,0,.08,7.18,5.12,5.12,0,0,0,2.52-.63v-1.52a4.35,4.35,0,0,1-2.4.75,2,2,0,0,1-2.1-1.68Zm-3.19-2.81a1.69,1.69,0,0,1,1.8,1.62h-3.71a1.86,1.86,0,0,1,1.91-1.62Zm6.08-1.15h-1.53v6.89h1.53v-4.06a1.45,1.45,0,1,1,2.9.08v4h1.54V627a2.46,2.46,0,0,0-2.5-2.66,2.1,2.1,0,0,0-1.94,1.12v-1Zm12.35,4a3,3,0,0,0,.1-.78,3.2,3.2,0,0,0-3.27-3.32,3.59,3.59,0,0,0,.08,7.18,5.15,5.15,0,0,0,2.52-.63v-1.52a4.39,4.39,0,0,1-2.41.75,2,2,0,0,1-2.1-1.68ZM518,625.61a1.69,1.69,0,0,1,1.81,1.62h-3.71a1.86,1.86,0,0,1,1.9-1.62Z" transform="translate(-306 156)"/><path class="cls-3" d="M403.58,598.89a3.46,3.46,0,0,1,1.81-.55,1.3,1.3,0,0,1,1.44,1.38v.57a2.4,2.4,0,0,0-1.65-.66,2.24,2.24,0,0,0-2.36,2.26,2.19,2.19,0,0,0,2.33,2.26,2.08,2.08,0,0,0,1.68-.78V604h1.54v-4.26a2.49,2.49,0,0,0-2.81-2.77,4.86,4.86,0,0,0-2,.44v1.48Zm.76,3a1.18,1.18,0,0,1,1.23-1.11,1.12,1.12,0,1,1,0,2.22,1.17,1.17,0,0,1-1.23-1.1Zm7.28-7.54h-1.54V604h1.54v-9.66Zm3.3,2.77h-1.54v9.76h1.54v-4a2.69,2.69,0,0,0,2.36,1.27,3.6,3.6,0,0,0,0-7.18,2.59,2.59,0,0,0-2.36,1.34v-1.2Zm0,3.45a2.06,2.06,0,1,1,2.06,2.08,2,2,0,0,1-2.06-2.08Zm8.58-6.22H422V604h1.53v-4.06a1.45,1.45,0,1,1,2.9.08v4h1.54v-4.37a2.46,2.46,0,0,0-2.5-2.66,2.11,2.11,0,0,0-1.94,1.12v-3.75Zm6.39,4.55a3.43,3.43,0,0,1,1.81-.55,1.3,1.3,0,0,1,1.44,1.38v.57a2.4,2.4,0,0,0-1.65-.66,2.25,2.25,0,0,0-2.37,2.26,2.2,2.2,0,0,0,2.34,2.26,2.08,2.08,0,0,0,1.68-.78V604h1.54v-4.26a2.5,2.5,0,0,0-2.82-2.77,4.77,4.77,0,0,0-2,.44v1.48Zm.75,3a1.25,1.25,0,1,1,1.24,1.11,1.18,1.18,0,0,1-1.24-1.11Zm9.3-1.16v-1.44h-3.65v1.44Zm3.21-3.61h-1.54v9.76h1.54v-4a2.66,2.66,0,0,0,2.35,1.27,3.6,3.6,0,0,0,0-7.18,2.56,2.56,0,0,0-2.35,1.34v-1.2Zm0,3.45a2.05,2.05,0,1,1,2.06,2.08,2,2,0,0,1-2.06-2.08Zm8.58-6.22h-1.54V604h1.54v-4.06a1.39,1.39,0,0,1,1.45-1.47,1.41,1.41,0,0,1,1.45,1.55v4h1.54v-4.37a2.46,2.46,0,0,0-2.51-2.66,2.11,2.11,0,0,0-1.93,1.12v-3.75Zm12.35,6.73a3.49,3.49,0,0,0,.09-.78A3.2,3.2,0,0,0,460.9,597a3.59,3.59,0,0,0,.08,7.18,5.12,5.12,0,0,0,2.52-.63V602a4.35,4.35,0,0,1-2.4.75,2,2,0,0,1-2.1-1.68Zm-3.19-2.81a1.69,1.69,0,0,1,1.8,1.63H459a1.86,1.86,0,0,1,1.91-1.63Zm6.1-3.92h-1.54V604H467v-9.66Zm3.32,0h-1.54V604h1.54v-9.66Zm2,4.55a3.43,3.43,0,0,1,1.81-.55,1.3,1.3,0,0,1,1.44,1.38v.57a2.4,2.4,0,0,0-1.65-.66,2.25,2.25,0,0,0-2.37,2.26,2.2,2.2,0,0,0,2.34,2.26,2.08,2.08,0,0,0,1.68-.78V604h1.54v-4.26A2.49,2.49,0,0,0,474.3,597a4.82,4.82,0,0,0-2,.44v1.48Zm.76,3a1.17,1.17,0,0,1,1.23-1.11,1.12,1.12,0,1,1,0,2.22,1.17,1.17,0,0,1-1.23-1.1Zm7.26-4.77h-1.53V604h1.53v-4.06a1.45,1.45,0,1,1,2.9.08v4h1.54v-4.37a2.46,2.46,0,0,0-2.5-2.66,2.1,2.1,0,0,0-1.94,1.12v-1ZM491.77,604h1.52v-9.66h-1.52v3.89a2.73,2.73,0,0,0-2.35-1.26,3.6,3.6,0,0,0,0,7.18,2.77,2.77,0,0,0,2.37-1.27V604Zm0-3.45a2.06,2.06,0,1,1-2.06-2.07,2.06,2.06,0,0,1,2.06,2.07Zm4.83-3.44h-1.54V604h1.54v-4.06c0-.88.5-1.47,1.34-1.47a2.41,2.41,0,0,1,.93.18V597a3.68,3.68,0,0,0-.58,0,1.86,1.86,0,0,0-1.69,1v-.84Zm9.38,4a3.44,3.44,0,0,0,.1-.78A3.21,3.21,0,0,0,502.8,597a3.59,3.59,0,0,0,.08,7.18,5.12,5.12,0,0,0,2.52-.63V602a4.35,4.35,0,0,1-2.4.75,2,2,0,0,1-2.1-1.68Zm-3.19-2.81a1.69,1.69,0,0,1,1.8,1.63h-3.71a1.86,1.86,0,0,1,1.91-1.63Zm6.08-1.15h-1.53V604h1.53v-4.06a1.45,1.45,0,1,1,2.9.08v4h1.54v-4.37a2.46,2.46,0,0,0-2.5-2.66,2.1,2.1,0,0,0-1.94,1.12v-1Zm12.35,4a3,3,0,0,0,.1-.78,3.2,3.2,0,0,0-3.27-3.32,3.59,3.59,0,0,0,.08,7.18,5.15,5.15,0,0,0,2.52-.63V602a4.39,4.39,0,0,1-2.41.75,2,2,0,0,1-2.1-1.68ZM518,598.26a1.69,1.69,0,0,1,1.81,1.63h-3.71a1.86,1.86,0,0,1,1.9-1.63Z" transform="translate(-306 156)"/><path class="cls-3" d="M439.34,575.53a2.69,2.69,0,0,0,2.36,1.27,3.6,3.6,0,0,0,0-7.18,2.67,2.67,0,0,0-2.35,1.26V567H437.8v9.66h1.54v-1.12Zm0-2.33a2.05,2.05,0,1,1,2.06,2.09,2,2,0,0,1-2.06-2.09Zm13.26.52a3.49,3.49,0,0,0,.09-.78,3.2,3.2,0,0,0-3.27-3.32,3.59,3.59,0,0,0,.08,7.18,5.12,5.12,0,0,0,2.52-.63v-1.52a4.35,4.35,0,0,1-2.4.75,2,2,0,0,1-2.1-1.68Zm-3.19-2.81a1.69,1.69,0,0,1,1.8,1.62H447.5a1.86,1.86,0,0,1,1.91-1.62Zm6.56,5.74v-5.57h1.25v-1.32H456v-1.94l-1.45.33v1.61h-1.25v1.32h1.16v5.57Zm2.52-5.11a3.43,3.43,0,0,1,1.81-.55,1.3,1.3,0,0,1,1.44,1.38v.57a2.4,2.4,0,0,0-1.65-.66,2.25,2.25,0,0,0-2.37,2.26,2.2,2.2,0,0,0,2.34,2.26,2.08,2.08,0,0,0,1.68-.78v.63h1.54V572.4a2.5,2.5,0,0,0-2.82-2.78,4.77,4.77,0,0,0-2,.44v1.48Zm.76,3a1.18,1.18,0,0,1,1.23-1.12,1.2,1.2,0,0,1,1.25,1.12,1.19,1.19,0,0,1-1.25,1.11,1.17,1.17,0,0,1-1.23-1.1Zm9.29-1.16v-1.44h-3.65v1.44Zm3.21-3.61h-1.54v6.89h1.54v-4.16a1.29,1.29,0,0,1,1.36-1.37,1.31,1.31,0,0,1,1.33,1.47v4.06H476v-4.06a1.33,1.33,0,0,1,1.37-1.47,1.31,1.31,0,0,1,1.33,1.47v4.06h1.54v-4.48a2.39,2.39,0,0,0-2.41-2.55,2.12,2.12,0,0,0-2.07,1.33,2.24,2.24,0,0,0-2.17-1.33,2,2,0,0,0-1.82,1v-.88ZM482,579.52h1.78l4.16-9.76h-1.74l-1.79,4.43-1.71-4.43H481l2.59,6.36-1.57,3.4Zm8.4-9.76h-1.54v6.89h1.54v-4.06a1.34,1.34,0,0,1,1.35-1.47,2.32,2.32,0,0,1,.92.18v-1.64a5.27,5.27,0,0,0-.57,0,1.86,1.86,0,0,0-1.7,1v-.84Zm8,5a2.69,2.69,0,0,1-1.65.53,2.09,2.09,0,0,1,0-4.17,2.77,2.77,0,0,1,1.65.53V570a3.68,3.68,0,0,0-1.65-.38,3.59,3.59,0,1,0,0,7.18,3.56,3.56,0,0,0,1.65-.4v-1.64Zm7.58-1a3.44,3.44,0,0,0,.1-.78,3.21,3.21,0,0,0-3.28-3.32,3.59,3.59,0,0,0,.08,7.18,5.12,5.12,0,0,0,2.52-.63v-1.52a4.35,4.35,0,0,1-2.4.75,2,2,0,0,1-2.1-1.68Zm-3.19-2.81a1.69,1.69,0,0,1,1.8,1.62h-3.71a1.86,1.86,0,0,1,1.91-1.62Zm6.08-1.15h-1.53v6.89h1.53v-4.06a1.45,1.45,0,1,1,2.9.08v4h1.54v-4.37a2.46,2.46,0,0,0-2.5-2.66,2.1,2.1,0,0,0-1.94,1.12v-1Zm12.35,4a3,3,0,0,0,.1-.78,3.2,3.2,0,0,0-3.27-3.32,3.59,3.59,0,0,0,.08,7.18,5.15,5.15,0,0,0,2.52-.63v-1.52a4.39,4.39,0,0,1-2.41.75,2,2,0,0,1-2.1-1.68ZM518,570.91a1.69,1.69,0,0,1,1.81,1.62h-3.71a1.86,1.86,0,0,1,1.9-1.62Z" transform="translate(-306 156)"/><path class="cls-3" d="M454.77,549.3v-1.53H451.1v-8h-1.6v9.52ZM459,546v-1.44h-3.65V546Zm5.21-3.61H462.7v-.52a.82.82,0,0,1,.89-.89,1.87,1.87,0,0,1,.7.15V539.6a3.9,3.9,0,0,0-.76-.1,2.14,2.14,0,0,0-2.36,2.31v.6h-1v1.32h1v5.57h1.53v-5.57h1.53v-1.32Zm7.17,4a3.44,3.44,0,0,0,.1-.78,3.2,3.2,0,0,0-3.28-3.32,3.59,3.59,0,0,0,.09,7.18,5.11,5.11,0,0,0,2.51-.63V547.3a4.35,4.35,0,0,1-2.4.75,2,2,0,0,1-2.1-1.68Zm-3.19-2.81a1.68,1.68,0,0,1,1.8,1.62H466.3a1.86,1.86,0,0,1,1.91-1.62Zm6.09-1.15h-1.54v6.89h1.54v-4.06a1.38,1.38,0,0,1,1.44-1.47,1.41,1.41,0,0,1,1.46,1.55v4h1.53v-4.37a2.46,2.46,0,0,0-2.5-2.66,2.08,2.08,0,0,0-1.93,1.12v-1Zm11,5a2.72,2.72,0,0,1-1.66.53,2.09,2.09,0,0,1,0-4.17,2.83,2.83,0,0,1,1.66.53v-1.65a3.72,3.72,0,0,0-1.66-.38,3.59,3.59,0,1,0,0,7.18,3.6,3.6,0,0,0,1.66-.4v-1.64Zm3-7.77h-1.54v9.66h1.54v-4.06a1.39,1.39,0,0,1,1.45-1.47,1.41,1.41,0,0,1,1.45,1.55v4h1.53v-4.37a2.45,2.45,0,0,0-2.5-2.66,2.09,2.09,0,0,0-1.93,1.12v-3.75Zm5.71,6.22a3.59,3.59,0,1,0,3.58-3.59,3.53,3.53,0,0,0-3.58,3.59Zm1.55,0a2,2,0,1,1,4.05,0,2,2,0,1,1-4.05,0Zm8.49-3.45h-1.54v6.89h1.54v-4.06a1.38,1.38,0,0,1,1.44-1.47,1.4,1.4,0,0,1,1.45,1.55v4h1.54v-4.37a2.46,2.46,0,0,0-2.5-2.66,2.08,2.08,0,0,0-1.93,1.12v-1Zm12.34,4a3,3,0,0,0,.1-.78,3.2,3.2,0,0,0-3.27-3.32,3.59,3.59,0,0,0,.08,7.18,5.15,5.15,0,0,0,2.52-.63V547.3a4.39,4.39,0,0,1-2.41.75,2,2,0,0,1-2.1-1.68Zm-3.19-2.81a1.69,1.69,0,0,1,1.81,1.62H511.3a1.86,1.86,0,0,1,1.9-1.62Zm4.38-3.15-.26.48,1.3.77-1.3.75.26.48,1.32-.76v1.5h.55v-1.5l1.31.76.28-.49-1.32-.74,1.32-.77-.28-.48-1.31.77v-1.54h-.55v1.54l-1.32-.77Z" transform="translate(-306 156)"/><path class="cls-3" d="M439.87,494.6h1.53v-9.66h-1.53v3.89a2.71,2.71,0,0,0-2.35-1.26,3.6,3.6,0,0,0,0,7.18,2.74,2.74,0,0,0,2.36-1.27v1.12Zm0-3.44a2.06,2.06,0,1,1-2.06-2.08,2.05,2.05,0,0,1,2.06,2.08Zm9.51.51a3.49,3.49,0,0,0,.09-.78,3.2,3.2,0,0,0-3.27-3.32,3.59,3.59,0,0,0,.08,7.18,5.12,5.12,0,0,0,2.52-.63V492.6a4.35,4.35,0,0,1-2.4.75,2,2,0,0,1-2.1-1.68Zm-3.19-2.81a1.69,1.69,0,0,1,1.8,1.62h-3.71a1.86,1.86,0,0,1,1.91-1.62Zm6.1-3.92h-1.54v9.66h1.54v-9.66Zm3.85,9.66V489h1.24v-1.32h-1.24v-1.94l-1.46.33v1.61h-1.24V489h1.16v5.57Zm2.52-5.11a3.4,3.4,0,0,1,1.8-.55,1.3,1.3,0,0,1,1.45,1.38v.57a2.4,2.4,0,0,0-1.65-.66,2.24,2.24,0,0,0-2.37,2.26,2.19,2.19,0,0,0,2.34,2.26,2.1,2.1,0,0,0,1.68-.78v.63h1.54v-4.26a2.5,2.5,0,0,0-2.82-2.77,4.77,4.77,0,0,0-2,.44v1.48Zm.75,3a1.25,1.25,0,1,1,1.24,1.11,1.19,1.19,0,0,1-1.24-1.11Zm9.3-1.16v-1.44h-3.65v1.44Zm2.09-.89h1.36a1.36,1.36,0,0,1,1.49,1.34,1.44,1.44,0,0,1-1.58,1.39,3.11,3.11,0,0,1-2-.69v1.82a5.35,5.35,0,0,0,2.09.46A2.87,2.87,0,0,0,475.3,492a2.42,2.42,0,0,0-1.48-2.34,2.27,2.27,0,0,0,1.22-2.14,2.66,2.66,0,0,0-2.94-2.58,4.43,4.43,0,0,0-1.9.43v1.74a3,3,0,0,1,1.84-.58,1.2,1.2,0,0,1,1.35,1.19,1.16,1.16,0,0,1-1.23,1.17H470.8v1.54Zm9.56.89v-1.44H476.7v1.44Zm6.52,1.39a2.69,2.69,0,0,1-1.65.53,2.09,2.09,0,0,1,0-4.17,2.77,2.77,0,0,1,1.65.53V488a3.68,3.68,0,0,0-1.65-.38,3.59,3.59,0,1,0,0,7.18,3.56,3.56,0,0,0,1.65-.4v-1.64Zm1.7-3.22a3.4,3.4,0,0,1,1.8-.55,1.31,1.31,0,0,1,1.45,1.38v.57a2.4,2.4,0,0,0-1.66-.66,2.24,2.24,0,0,0-2.36,2.26,2.19,2.19,0,0,0,2.33,2.26,2.1,2.1,0,0,0,1.69-.78v.63h1.53v-4.26a2.49,2.49,0,0,0-2.81-2.77,4.77,4.77,0,0,0-2,.44v1.48Zm.75,3a1.18,1.18,0,0,1,1.23-1.12,1.2,1.2,0,0,1,1.25,1.12,1.25,1.25,0,0,1-2.48,0Zm7.27-4.77h-1.54v6.89h1.54v-4.06c0-.88.5-1.47,1.34-1.47a2.41,2.41,0,0,1,.93.18v-1.64a5.46,5.46,0,0,0-.58,0,1.86,1.86,0,0,0-1.69,1v-.84Zm9.38,4a3.44,3.44,0,0,0,.1-.78,3.21,3.21,0,0,0-3.28-3.32,3.59,3.59,0,0,0,.08,7.18,5.12,5.12,0,0,0,2.52-.63V492.6a4.35,4.35,0,0,1-2.4.75,2,2,0,0,1-2.1-1.68Zm-3.19-2.81a1.69,1.69,0,0,1,1.8,1.62h-3.71a1.86,1.86,0,0,1,1.91-1.62Zm6.08-1.15h-1.53v6.89h1.53v-4.06a1.45,1.45,0,1,1,2.9.08v4h1.54v-4.37a2.46,2.46,0,0,0-2.5-2.66,2.1,2.1,0,0,0-1.94,1.12v-1Zm12.35,4a3,3,0,0,0,.1-.78,3.2,3.2,0,0,0-3.27-3.32,3.59,3.59,0,0,0,.08,7.18,5.15,5.15,0,0,0,2.52-.63V492.6a4.39,4.39,0,0,1-2.41.75,2,2,0,0,1-2.1-1.68ZM518,488.86a1.69,1.69,0,0,1,1.81,1.62h-3.71a1.86,1.86,0,0,1,1.9-1.62Z" transform="translate(-306 156)"/><path class="cls-3" d="M449.33,466.13a2.72,2.72,0,0,0,2.37,1.27,3.6,3.6,0,0,0,0-7.18,2.7,2.7,0,0,0-2.36,1.26v-3.89H447.8v9.66h1.53v-1.12Zm0-2.33a2.06,2.06,0,1,1,2.06,2.09,2,2,0,0,1-2.06-2.09Zm13.26.52a3,3,0,0,0,.1-.78,3.2,3.2,0,0,0-3.27-3.32,3.59,3.59,0,0,0,.08,7.18,5.15,5.15,0,0,0,2.52-.63v-1.52a4.39,4.39,0,0,1-2.41.76,2,2,0,0,1-2.1-1.69Zm-3.19-2.81a1.69,1.69,0,0,1,1.81,1.62H457.5a1.86,1.86,0,0,1,1.9-1.62Zm6.57,5.74v-5.57h1.24v-1.32H466v-1.94l-1.46.33v1.61h-1.24v1.32h1.16v5.57Zm2.52-5.11a3.4,3.4,0,0,1,1.8-.55,1.31,1.31,0,0,1,1.45,1.38v.57a2.4,2.4,0,0,0-1.66-.66,2.25,2.25,0,0,0-2.36,2.26,2.19,2.19,0,0,0,2.33,2.26,2.1,2.1,0,0,0,1.69-.78v.63h1.53V463a2.49,2.49,0,0,0-2.81-2.77,4.77,4.77,0,0,0-2,.44v1.48Zm.75,3a1.19,1.19,0,0,1,1.23-1.13,1.2,1.2,0,0,1,1.25,1.13,1.25,1.25,0,0,1-2.48,0Zm9.3-1.17v-1.44h-3.66V464Zm3.2-3.61h-1.53v9.76h1.53v-4a2.69,2.69,0,0,0,2.36,1.27,3.6,3.6,0,0,0,0-7.18,2.58,2.58,0,0,0-2.36,1.35v-1.21Zm0,3.45a2.06,2.06,0,1,1,2.06,2.08,2,2,0,0,1-2.06-2.08Zm8.59-3.45h-1.54v6.89h1.54v-6.89Zm-1.72-2.1a.93.93,0,0,0,.95.95,1,1,0,0,0,0-1.9.94.94,0,0,0-.95.95Zm5,2.1h-1.54v6.89h1.54v-4.06a1.39,1.39,0,0,1,1.44-1.47,1.41,1.41,0,0,1,1.46,1.55v4h1.54v-4.37a2.46,2.46,0,0,0-2.51-2.66,2.09,2.09,0,0,0-1.93,1.12v-1Zm12.35,4a3.44,3.44,0,0,0,.1-.78,3.21,3.21,0,0,0-3.28-3.32,3.59,3.59,0,0,0,.08,7.18,5.12,5.12,0,0,0,2.52-.63v-1.52a4.36,4.36,0,0,1-2.4.76,2,2,0,0,1-2.1-1.69Zm-3.19-2.81a1.69,1.69,0,0,1,1.8,1.62h-3.71a1.86,1.86,0,0,1,1.91-1.62Zm6.08-1.15h-1.53v6.89h1.53v-4.06a1.45,1.45,0,1,1,2.9.08v4h1.54v-4.37a2.46,2.46,0,0,0-2.5-2.66,2.1,2.1,0,0,0-1.94,1.12v-1Zm12.35,4a3,3,0,0,0,.1-.78,3.2,3.2,0,0,0-3.27-3.32,3.59,3.59,0,0,0,.08,7.18,5.15,5.15,0,0,0,2.52-.63v-1.52a4.39,4.39,0,0,1-2.41.76,2,2,0,0,1-2.1-1.69ZM518,461.51a1.69,1.69,0,0,1,1.81,1.62h-3.71a1.86,1.86,0,0,1,1.9-1.62Z" transform="translate(-306 156)"/><path class="cls-3" d="M406.13,438.78a2.72,2.72,0,0,0,2.37,1.27,3.6,3.6,0,0,0,0-7.18,2.7,2.7,0,0,0-2.35,1.26v-3.89h-1.54v9.66h1.54v-1.12Zm0-2.32a2.05,2.05,0,1,1,2.06,2.08,2,2,0,0,1-2.06-2.08Zm13.26.51a3.44,3.44,0,0,0,.1-.78,3.2,3.2,0,0,0-3.28-3.32,3.59,3.59,0,0,0,.09,7.18,5.18,5.18,0,0,0,2.52-.63V437.9a4.42,4.42,0,0,1-2.41.76,2,2,0,0,1-2.1-1.69Zm-3.19-2.81a1.68,1.68,0,0,1,1.8,1.62h-3.71a1.86,1.86,0,0,1,1.91-1.62Zm6.56,5.74v-5.57H424V433h-1.25v-1.94l-1.45.33V433h-1.25v1.32h1.16v5.57Zm2.52-5.11a3.43,3.43,0,0,1,1.81-.55,1.3,1.3,0,0,1,1.44,1.38v.57a2.4,2.4,0,0,0-1.65-.66,2.25,2.25,0,0,0-2.37,2.26,2.2,2.2,0,0,0,2.34,2.26,2.08,2.08,0,0,0,1.68-.78v.63h1.54v-4.25a2.5,2.5,0,0,0-2.81-2.78,4.82,4.82,0,0,0-2,.44v1.48Zm.76,3a1.18,1.18,0,0,1,1.23-1.12,1.2,1.2,0,0,1,1.25,1.12,1.25,1.25,0,0,1-2.48,0Zm9.29-1.16v-1.44h-3.65v1.44Zm6.53,1.39a2.69,2.69,0,0,1-1.65.53,2.09,2.09,0,0,1,0-4.17,2.8,2.8,0,0,1,1.65.53v-1.65a3.71,3.71,0,0,0-1.65-.38,3.59,3.59,0,1,0,0,7.18,3.59,3.59,0,0,0,1.65-.4V438Zm1.69-3.22a3.43,3.43,0,0,1,1.81-.55,1.3,1.3,0,0,1,1.44,1.38v.57a2.4,2.4,0,0,0-1.65-.66,2.25,2.25,0,0,0-2.37,2.26,2.2,2.2,0,0,0,2.34,2.26,2.08,2.08,0,0,0,1.68-.78v.63h1.54v-4.25a2.5,2.5,0,0,0-2.81-2.78,4.82,4.82,0,0,0-2,.44v1.48Zm.76,3a1.18,1.18,0,0,1,1.23-1.12,1.2,1.2,0,0,1,1.25,1.12,1.25,1.25,0,0,1-2.48,0Zm7.26-4.77H450v6.89h1.53v-4.06a1.34,1.34,0,0,1,1.35-1.47,2.32,2.32,0,0,1,.92.18v-1.64a5.27,5.27,0,0,0-.57,0,1.88,1.88,0,0,0-1.7,1V433Zm3.64,9.76H457l4.16-9.76h-1.74l-1.79,4.43L455.91,433h-1.72l2.59,6.36-1.57,3.4Zm6.22-6.31a3.59,3.59,0,1,0,3.58-3.59,3.53,3.53,0,0,0-3.58,3.59Zm1.55,0a2.05,2.05,0,0,1,2-2.09,2.09,2.09,0,0,1,0,4.17,2,2,0,0,1-2-2.08Zm8.49-3.45h-1.54v9.76h1.54v-4a2.66,2.66,0,0,0,2.35,1.27,3.6,3.6,0,0,0,0-7.18,2.55,2.55,0,0,0-2.35,1.35V433Zm0,3.45a2.05,2.05,0,1,1,2.06,2.08,2,2,0,0,1-2.06-2.08Zm8.58-6.22h-1.54v9.66h1.54v-4.06a1.45,1.45,0,1,1,2.9.08v4h1.54v-4.37a2.46,2.46,0,0,0-2.51-2.66,2.11,2.11,0,0,0-1.93,1.12v-3.75Zm6.22,12.53H488L492.2,433h-1.73l-1.8,4.43L487,433h-1.73l2.59,6.36-1.56,3.4Zm8.41-12.53h-1.54v9.66h1.54v-9.66Zm3.32,0h-1.54v9.66H498v-9.66Zm8,6.73a3.44,3.44,0,0,0,.1-.78,3.21,3.21,0,0,0-3.28-3.32,3.59,3.59,0,0,0,.08,7.18,5.12,5.12,0,0,0,2.52-.63V437.9a4.36,4.36,0,0,1-2.4.76,2,2,0,0,1-2.1-1.69Zm-3.19-2.81a1.69,1.69,0,0,1,1.8,1.62h-3.71a1.86,1.86,0,0,1,1.91-1.62Zm6.08-1.15h-1.53v6.89h1.53v-4.06a1.45,1.45,0,1,1,2.9.08v4h1.54v-4.37a2.46,2.46,0,0,0-2.5-2.66,2.1,2.1,0,0,0-1.94,1.12v-1Zm12.35,4a3,3,0,0,0,.1-.78,3.2,3.2,0,0,0-3.27-3.32,3.59,3.59,0,0,0,.08,7.18,5.15,5.15,0,0,0,2.52-.63V437.9a4.39,4.39,0,0,1-2.41.76,2,2,0,0,1-2.1-1.69ZM518,434.16a1.69,1.69,0,0,1,1.81,1.62h-3.71a1.86,1.86,0,0,1,1.9-1.62Z" transform="translate(-306 156)"/><path class="cls-3" d="M562.73,738.8v-1.52h-1.22v-6h-1.6l-4.2,6.2v1.37h4.2v2h1.6v-2Zm-5.32-1.52,2.5-3.77v3.77Zm6.36,3.47H569v-1.53h-3.19l2.13-2.69a4.19,4.19,0,0,0,1.09-2.76,2.63,2.63,0,0,0-2.91-2.68,3.77,3.77,0,0,0-2.17.71v1.81a2.88,2.88,0,0,1,2.06-.93,1.29,1.29,0,0,1,1.38,1.37,3.06,3.06,0,0,1-.85,1.82l-2.77,3.51v1.37Z" transform="translate(-306 156)"/><path class="cls-3" d="M561.55,711.45v-1.52h-1.22v-6h-1.59l-4.2,6.2v1.37h4.2v1.95h1.59v-1.95Zm-5.32-1.52,2.51-3.77v3.77Zm11.54-6h-1.91l-2.73,4.26a3.83,3.83,0,0,0-.61,2,3.37,3.37,0,1,0,6.73,0,3.24,3.24,0,0,0-3.36-3.28h-.12l2-3Zm-.14,6.3a1.75,1.75,0,1,1-1.74-1.77,1.75,1.75,0,0,1,1.74,1.77Z" transform="translate(-306 156)"/><path class="cls-3" d="M557.11,686.05h5.83v-1.52h-2v-8h-3.57v1.52h2v6.48h-2.29v1.52Zm7.48-4.17H566a1.37,1.37,0,0,1,1.5,1.34,1.45,1.45,0,0,1-1.59,1.39,3.06,3.06,0,0,1-2-.69v1.82a5.25,5.25,0,0,0,2.08.46,2.88,2.88,0,0,0,3.14-2.75,2.43,2.43,0,0,0-1.49-2.34,2.25,2.25,0,0,0,1.22-2.14,2.66,2.66,0,0,0-2.94-2.58,4.47,4.47,0,0,0-1.9.43v1.74a3,3,0,0,1,1.85-.58,1.2,1.2,0,0,1,1.34,1.19,1.16,1.16,0,0,1-1.23,1.17h-1.36v1.54Z" transform="translate(-306 156)"/><path class="cls-3" d="M551.19,654.53h1.36a1.37,1.37,0,0,1,1.5,1.34,1.44,1.44,0,0,1-1.58,1.39,3,3,0,0,1-2-.69v1.82a5.25,5.25,0,0,0,2.08.46,2.88,2.88,0,0,0,3.14-2.75,2.43,2.43,0,0,0-1.48-2.34,2.26,2.26,0,0,0,1.21-2.14,2.66,2.66,0,0,0-2.94-2.58,4.47,4.47,0,0,0-1.9.43v1.74a3.07,3.07,0,0,1,1.85-.58,1.2,1.2,0,0,1,1.34,1.19,1.16,1.16,0,0,1-1.23,1.17h-1.36v1.54Zm5.69,4.17h5.23v-1.53h-3.19l2.13-2.69a4.19,4.19,0,0,0,1.09-2.76,2.63,2.63,0,0,0-2.91-2.68,3.8,3.8,0,0,0-2.17.71v1.81a2.9,2.9,0,0,1,2.06-.93A1.29,1.29,0,0,1,560.5,652a3.06,3.06,0,0,1-.85,1.81l-2.77,3.51v1.37Zm12-8v-1.52h-4.45l-.48,4.93h1.28c1.16,0,2.14.39,2.14,1.52a1.63,1.63,0,0,1-1.74,1.63,3.2,3.2,0,0,1-2.25-1v2a4.76,4.76,0,0,0,2.34.64,3.05,3.05,0,0,0,3.3-3.22c0-1.86-1.32-3-3.33-3h-.09l.26-1.94Z" transform="translate(-306 156)"/><path class="cls-3" d="M557.43,576.65h1.91l2.72-4.25a3.78,3.78,0,0,0,.62-2,3.37,3.37,0,1,0-3.37,3.35h.09l-2,2.94Zm.14-6.29a1.75,1.75,0,1,1,3.49,0,1.75,1.75,0,1,1-3.49,0Zm6.2,6.29H569v-1.53h-3.19l2.13-2.69a4.19,4.19,0,0,0,1.09-2.76,2.63,2.63,0,0,0-2.91-2.68,3.77,3.77,0,0,0-2.17.71v1.81a2.87,2.87,0,0,1,2.06-.92,1.28,1.28,0,0,1,1.38,1.37,3.06,3.06,0,0,1-.85,1.81l-2.77,3.51v1.37Z" transform="translate(-306 156)"/><path class="cls-3" d="M548.91,467.25h5.82v-1.53h-1.94v-8h-3.57v1.53h2v6.46h-2.28v1.53Zm6.64,0h5.23v-1.53h-3.19l2.13-2.69a4.19,4.19,0,0,0,1.09-2.76,2.63,2.63,0,0,0-2.91-2.68,3.8,3.8,0,0,0-2.17.71v1.81a2.9,2.9,0,0,1,2.06-.93,1.29,1.29,0,0,1,1.38,1.37,3,3,0,0,1-.85,1.82l-2.77,3.51v1.37Zm10.05-8.09a1.67,1.67,0,0,1,1.73,1.81v3a1.74,1.74,0,1,1-3.48,0v-3a1.68,1.68,0,0,1,1.75-1.81Zm0-1.57a3.24,3.24,0,0,0-3.35,3.34v3.13a3.34,3.34,0,1,0,6.68,0v-3.13a3.23,3.23,0,0,0-3.33-3.34Z" transform="translate(-306 156)"/><path class="cls-3" d="M549.06,439.9h5.83v-1.52h-1.95v-8h-3.57v1.53h2v6.47h-2.29v1.52Zm12.18-8v-1.53h-4.45l-.47,4.93h1.27c1.16,0,2.14.39,2.14,1.52a1.62,1.62,0,0,1-1.73,1.63,3.23,3.23,0,0,1-2.26-1v2a4.79,4.79,0,0,0,2.34.64,3,3,0,0,0,3.3-3.22c0-1.86-1.31-3-3.33-3H558l.25-1.93Zm6.53-1.53h-1.91l-2.73,4.25a3.89,3.89,0,0,0-.61,2.05,3.37,3.37,0,1,0,6.73,0,3.23,3.23,0,0,0-3.36-3.27h-.12l2-3Zm-.14,6.3a1.75,1.75,0,1,1-3.49,0,1.75,1.75,0,1,1,3.49,0Z" transform="translate(-306 156)"/><path class="cls-2" d="M451.41,409.3a3.3,3.3,0,0,1-2.17.77,2.92,2.92,0,0,1,0-5.84,3.31,3.31,0,0,1,2.17.78v-2.28a5,5,0,0,0-2.17-.49,4.91,4.91,0,0,0,0,9.81,5,5,0,0,0,2.17-.49V409.3Zm.93-2.15a4.9,4.9,0,1,0,4.89-4.91,4.8,4.8,0,0,0-4.89,4.91Zm2,0a2.85,2.85,0,1,1,2.85,2.92,2.86,2.86,0,0,1-2.85-2.92Zm15.2,4.75L471.8,406v5.94h2v-9.52h-2.42l-2.63,7-2.65-7h-2.43v9.52h2V406l2.22,5.94Zm6.3,0h2v-3.49h1.26a3,3,0,1,0,0-6h-3.25v9.52Zm4.34-6.5a1,1,0,0,1-1.12,1.1h-1.23v-2.2h1.23a1,1,0,0,1,1.12,1.1Zm2.9,1.75a4.9,4.9,0,1,0,4.9-4.91,4.8,4.8,0,0,0-4.9,4.91Zm2,0a2.85,2.85,0,1,1,2.86,2.92,2.87,2.87,0,0,1-2.86-2.92Zm14.45-4.77v6.1a1.65,1.65,0,0,1-3.29,0v-6.1h-2v5.94a3.63,3.63,0,1,0,7.26,0v-5.94Zm9.9,9.52h2v-9.52h-2v6.06l-4.17-6.06H503v.14l.66,1.05v8.33h2v-5.5l3.88,5.5Zm4.09,0h3.53a4.76,4.76,0,0,0,0-9.52H513.6v9.52Zm3.51-7.6a2.85,2.85,0,0,1,0,5.68h-1.52V404.3Z" transform="translate(-306 156)"/><path class="cls-2" d="M547.19,404.93h-1.91v9.84h1.91V411a2.52,2.52,0,0,0,2.13,1.05,3.64,3.64,0,0,0,0-7.26,2.36,2.36,0,0,0-2.14,1.15v-1Zm0,3.48a1.74,1.74,0,1,1,1.75,1.77,1.73,1.73,0,0,1-1.75-1.77Zm8.55-3.48h-1.9v9.84h1.9V411a2.55,2.55,0,0,0,2.13,1.05,3.64,3.64,0,0,0,0-7.26,2.39,2.39,0,0,0-2.14,1.15v-1Zm0,3.48a1.73,1.73,0,0,1,1.75-1.75,1.76,1.76,0,0,1,0,3.52,1.74,1.74,0,0,1-1.75-1.77Zm8.55-3.48h-1.9v7h1.9v-4.1a1.15,1.15,0,1,1,2.29.1v4h1.9v-4a1.13,1.13,0,0,1,1.16-1.25,1.1,1.1,0,0,1,1.12,1.25v4h1.91v-4.55a2.42,2.42,0,0,0-2.4-2.56,2.15,2.15,0,0,0-2.06,1.26,2.25,2.25,0,0,0-2.14-1.26,2.08,2.08,0,0,0-1.78,1v-.82Z" transform="translate(-306 156)"/><path class="cls-2" d="M649.3,407.15a4.8,4.8,0,0,0,4.9,4.9,4.91,4.91,0,0,0,2.59-.72l1,1,1.36-1.36-.92-.9a4.89,4.89,0,0,0,.91-2.88,4.9,4.9,0,1,0-9.8,0Zm2,0a2.85,2.85,0,1,1,5.7,0,2.5,2.5,0,0,1-.36,1.35l-1.42-1.42-1.36,1.37,1.35,1.35a2.16,2.16,0,0,1-1,.27,2.85,2.85,0,0,1-2.86-2.92Zm14.58-4.77v6.1a1.65,1.65,0,0,1-3.3,0v-6.1h-2v5.94a3.63,3.63,0,1,0,7.26,0v-5.94Zm9.73,9.52h2.22l-3.53-9.52h-2.22l-3.53,9.52h2.23l.71-2h3.4l.72,2ZM673.24,405l1,3h-2.1l1-3Zm11.56,6.92h2v-9.52h-2v6.06l-4.17-6.06h-2.35v.14l.66,1.05v8.33h2v-5.5l3.88,5.5Zm5.63,0h2v-7.6h2.31v-1.92h-6.61v1.92h2.31v7.6Zm5.63,0h2v-9.52h-2v9.52Zm5.63,0h2v-7.6H706v-1.92h-6.6v1.92h2.31v7.6Zm11,0h2.23l-3.53-9.52h-2.23l-3.52,9.52h2.22l.72-2H712l.71,2ZM710.25,405l1,3h-2.1l1-3Zm6.58,6.92h2v-7.6h2.31v-1.92h-6.61v1.92h2.31v7.6Zm5.63,0h2v-9.52h-2v9.52Zm6.51,0h2.23l3.53-9.52H732.5l-2.41,7.21-2.42-7.21h-2.23L729,411.9Zm12.18,0V410h-3.43v-1.92h3.15v-1.91h-3.15V404.3h3.43v-1.92h-5.42v9.52Zm4.85,0h2v-3.49h1.26a3,3,0,1,0,0-6H746v9.52Zm4.34-6.5a1,1,0,0,1-1.13,1.1H748v-2.2h1.23a1,1,0,0,1,1.13,1.1Zm3.48,6.5h2v-3.54h.49c1.16,0,2,1.47,2.31,3.54h2.06c-.23-2-.94-3.73-2.13-4.34a2.34,2.34,0,0,0,1.72-2.41c0-1.76-1.29-2.77-3.15-2.77h-3.29v9.52Zm4.4-6.52a1,1,0,0,1-1.11,1.06h-1.3V404.3h1.3a1,1,0,0,1,1.11,1.08Zm3.2,1.77a4.9,4.9,0,1,0,4.9-4.91,4.81,4.81,0,0,0-4.9,4.91Zm2.05,0a2.85,2.85,0,1,1,2.85,2.92,2.86,2.86,0,0,1-2.85-2.92Zm14.4,1.32v-1.92h-3.15V404.3h3.43v-1.92h-5.42v9.52h2v-3.43Zm1.92,3.43h2v-9.52h-2v9.52Zm9.5,0V410h-3.43v-7.6h-2v9.52Zm6.73,0V410h-3.44v-1.92h3.15v-1.91h-3.15V404.3H796v-1.92H790.6v9.52Z" transform="translate(-306 156)"/><path class="cls-3" d="M523.9,821.37h-.68v8.23h.68v-3.82a2.59,2.59,0,0,0,2.4,1.48,3,3,0,0,0,0-6,2.58,2.58,0,0,0-2.4,1.51v-1.39Zm0,2.88a2.31,2.31,0,1,1,2.31,2.34,2.28,2.28,0,0,1-2.31-2.34Zm7.42-2.88h-.68v8.23h.68v-3.82a2.59,2.59,0,0,0,2.4,1.48,3,3,0,0,0,0-6,2.58,2.58,0,0,0-2.4,1.51v-1.39Zm0,2.88a2.31,2.31,0,1,1,2.3,2.34,2.28,2.28,0,0,1-2.3-2.34Zm7.42-2.88h-.69v5.77h.69v-3.67a1.44,1.44,0,0,1,1.52-1.55,1.46,1.46,0,0,1,1.5,1.63v3.59h.68v-3.59a1.52,1.52,0,1,1,3,0v3.59h.68v-3.72a2,2,0,0,0-2.06-2.17,1.76,1.76,0,0,0-1.8,1.27,1.92,1.92,0,0,0-1.91-1.27,1.74,1.74,0,0,0-1.65,1v-.85Zm14.66-1.83a1.91,1.91,0,0,1,2,2v3a2,2,0,1,1-3.93,0v-3a1.91,1.91,0,0,1,2-2Zm0-.68a2.58,2.58,0,0,0-2.65,2.67v3.05a2.66,2.66,0,1,0,5.31,0v-3.05a2.59,2.59,0,0,0-2.66-2.67Zm4.12,7.81a.59.59,0,1,0,1.17,0,.59.59,0,1,0-1.17,0Zm5.3-7.13a1.91,1.91,0,0,1,2,2v3a2,2,0,1,1-3.93,0v-3a1.91,1.91,0,0,1,2-2Zm0-.68a2.58,2.58,0,0,0-2.65,2.67v3.05a2.66,2.66,0,1,0,5.31,0v-3.05a2.59,2.59,0,0,0-2.66-2.67Zm7,.68a1.9,1.9,0,0,1,2,2v3a2,2,0,1,1-3.92,0v-3a1.9,1.9,0,0,1,1.95-2Zm0-.68a2.59,2.59,0,0,0-2.65,2.67v3.05a2.66,2.66,0,1,0,5.32,0v-3.05a2.6,2.6,0,0,0-2.67-2.67Z" transform="translate(-306 156)"/><path class="cls-3" d="M684.69,827.14h4.65v-.65h-1.81V819h-2.67v.64h2v6.87h-2.15v.65Zm8.39-7.6a1.91,1.91,0,0,1,2,2v3a2,2,0,1,1-3.93,0v-3a1.91,1.91,0,0,1,2-2Zm0-.68a2.59,2.59,0,0,0-2.66,2.67v3.05a2.66,2.66,0,1,0,5.32,0v-3.05a2.59,2.59,0,0,0-2.66-2.67Zm7,.68a1.91,1.91,0,0,1,2,2v3a2,2,0,1,1-3.93,0v-3a1.91,1.91,0,0,1,2-2Zm0-.68a2.58,2.58,0,0,0-2.65,2.67v3.05a2.66,2.66,0,1,0,5.31,0v-3.05a2.59,2.59,0,0,0-2.66-2.67Zm4.12,7.81a.59.59,0,1,0,1.17,0,.59.59,0,1,0-1.17,0Zm5.3-7.13a1.91,1.91,0,0,1,2,2v3a2,2,0,1,1-3.93,0v-3a1.91,1.91,0,0,1,2-2Zm0-.68a2.58,2.58,0,0,0-2.65,2.67v3.05a2.66,2.66,0,1,0,5.31,0v-3.05a2.59,2.59,0,0,0-2.66-2.67Zm7,.68a1.9,1.9,0,0,1,2,2v3a2,2,0,1,1-3.92,0v-3a1.9,1.9,0,0,1,2-2Zm0-.68a2.59,2.59,0,0,0-2.65,2.67v3.05a2.66,2.66,0,1,0,5.32,0v-3.05a2.6,2.6,0,0,0-2.67-2.67Z" transform="translate(-306 156)"/><path class="cls-1" d="M522.59,859.87h1.94v-9.71h2.94v-1.85h-7.82v1.85h2.94v9.71Zm4.67-4.18a4.36,4.36,0,1,0,4.36-4.36,4.3,4.3,0,0,0-4.36,4.36Zm1.89,0a2.46,2.46,0,1,1,4.92,0,2.46,2.46,0,1,1-4.92,0Zm10.8,4.18V853.1h1.51v-1.6H540v-2.36l-1.77.41v2h-1.51v1.6h1.41v6.77Zm3.06-6.21a4.25,4.25,0,0,1,2.19-.66,1.57,1.57,0,0,1,1.75,1.67v.69a2.88,2.88,0,0,0-2-.79,2.73,2.73,0,0,0-2.88,2.73,2.68,2.68,0,0,0,2.84,2.76,2.49,2.49,0,0,0,2-1v.77h1.87V854.7c0-2.36-1.34-3.37-3.41-3.37a5.83,5.83,0,0,0-2.4.53v1.8Zm.92,3.64a1.43,1.43,0,0,1,1.49-1.36,1.36,1.36,0,1,1,0,2.71,1.43,1.43,0,0,1-1.49-1.35Zm8.84-9.16H550.9v11.73h1.87V848.14Zm7.7,11.73h1.94v-9.71h2.94v-1.85h-7.82v1.85h2.94v9.71Zm12.73-3.55a4,4,0,0,0-3.86-5,4.37,4.37,0,0,0,.11,8.73,6.31,6.31,0,0,0,3.06-.77v-1.85a5.34,5.34,0,0,1-2.93.92,2.44,2.44,0,0,1-2.55-2Zm-3.87-3.42a2,2,0,0,1,2.19,2H567a2.25,2.25,0,0,1,2.31-2Zm7.39-1.4h-1.87v8.37h1.87v-4.93a1.63,1.63,0,0,1,1.64-1.79,2.94,2.94,0,0,1,1.12.22v-2a4,4,0,0,0-.7-.06,2.28,2.28,0,0,0-2.06,1.19v-1Zm5.95,0H580.8v11.86h1.87v-4.85a3.26,3.26,0,0,0,2.86,1.55,4.38,4.38,0,0,0,0-8.73,3.12,3.12,0,0,0-2.86,1.64V851.5Zm0,4.19a2.5,2.5,0,1,1,2.5,2.53,2.49,2.49,0,0,1-2.5-2.53Zm16.11.63a4.45,4.45,0,0,0,.11-1,3.89,3.89,0,0,0-4-4,4.37,4.37,0,0,0,.1,8.73,6.31,6.31,0,0,0,3.06-.77v-1.85a5.34,5.34,0,0,1-2.93.92,2.45,2.45,0,0,1-2.55-2Zm-3.88-3.42a2,2,0,0,1,2.19,2h-4.5a2.25,2.25,0,0,1,2.31-2Zm7.4-1.4h-1.88v8.37h1.88v-4.93a1.69,1.69,0,0,1,1.75-1.79,1.72,1.72,0,0,1,1.77,1.89v4.83h1.87v-5.3a3,3,0,0,0-3.05-3.24,2.53,2.53,0,0,0-2.34,1.36V851.5Zm15,4.82a4,4,0,0,0-3.86-5,4.37,4.37,0,0,0,.1,8.73,6.28,6.28,0,0,0,3.06-.77v-1.85a5.3,5.3,0,0,1-2.92.92,2.44,2.44,0,0,1-2.55-2Zm-3.87-3.42a2,2,0,0,1,2.19,2H611.1a2.26,2.26,0,0,1,2.32-2Zm5.37,5.93A1.17,1.17,0,0,0,620,860a1.22,1.22,0,1,0,0-2.43,1.17,1.17,0,0,0-1.2,1.22Zm0-6a1.17,1.17,0,0,0,1.2,1.21,1.19,1.19,0,0,0,1.25-1.21,1.21,1.21,0,0,0-1.25-1.22,1.18,1.18,0,0,0-1.2,1.22Zm7.58,2.9,7.64,3v-1.53L628.22,855l5.79-2.18v-1.53l-7.64,3v1.45ZM639.8,850a2,2,0,0,1,2.11,2.21v3.7a2.12,2.12,0,1,1-4.23,0v-3.7A2,2,0,0,1,639.8,850Zm0-1.91a3.94,3.94,0,0,0-4.06,4.06V856a4.06,4.06,0,1,0,8.11,0v-3.81a3.94,3.94,0,0,0-4.05-4.06Zm5.7,10.59a1.33,1.33,0,1,0,2.65,0,1.33,1.33,0,1,0-2.65,0Zm4,1.16h7.07V858h-2.36v-9.71h-4.34v1.85h2.4V858h-2.77v1.85Zm11.06-8.37,2.54,8.37h2l1.8-5.12,2,5.12h2l2.55-8.37h-1.95l-1.69,6.07-2.29-6.07H665.6l.4,1.09-1.73,5-1.7-6.07Zm16.62,8.37V853.1h1.51v-1.6h-1.51v-2.36l-1.77.41v2h-1.52v1.6h1.41v6.77Zm5.81,0h1.41l5.15-11.56h-1.43L683,859.87Zm-.83-10.39a1.12,1.12,0,0,1,1.22,1.16v2.09a1.22,1.22,0,0,1-2.43,0v-2.09a1.12,1.12,0,0,1,1.21-1.16Zm0-1.34a2.46,2.46,0,0,0-2.59,2.46v2.16a2.6,2.6,0,0,0,5.19,0V850.6a2.46,2.46,0,0,0-2.6-2.46Zm8.14,6.15a1.12,1.12,0,0,1,1.23,1.16v2.07a1.23,1.23,0,0,1-2.45,0v-2.07a1.12,1.12,0,0,1,1.22-1.16Zm0-1.34a2.46,2.46,0,0,0-2.6,2.47v2.15a2.6,2.6,0,0,0,5.2,0v-2.15a2.46,2.46,0,0,0-2.6-2.47Z" transform="translate(-306 156)"/><polygon class="cls-2" points="269.5 393.2 275.7 393.2 275.7 408.67 269.5 408.67 269.5 393.2 269.5 393.2"/><polygon class="cls-2" points="269.5 311.2 501.1 311.2 501.1 326.67 269.5 326.67 269.5 311.2 269.5 311.2"/><polygon class="cls-2" points="269.5 284.03 285.06 284.03 285.06 299.5 269.5 299.5 269.5 284.03 269.5 284.03"/><polygon class="cls-2" points="269.5 256.4 281.3 256.4 281.3 271.87 269.5 271.87 269.5 256.4 269.5 256.4"/><polygon class="cls-2" points="269.5 229 272.9 229 272.9 244.47 269.5 244.47 269.5 229 269.5 229"/><polygon class="cls-2" points="269.5 202 273.7 202 273.7 217.47 269.5 217.47 269.5 202 269.5 202"/><polygon class="cls-2" points="269.5 175 276 175 276 190.47 269.5 190.47 269.5 175 269.5 175"/><polygon class="cls-2" points="269.5 148 286.5 148 286.5 163.47 269.5 163.47 269.5 148 269.5 148"/><polygon class="cls-2" points="269.5 420 326.5 420 326.5 435.47 269.5 435.47 269.5 420 269.5 420"/></svg>