<svg id="Layer_1" data-name="Layer 1" xmlns="http://www.w3.org/2000/svg" viewBox="0 0 614.14 502.02"><defs><style>.cls-1,.cls-9{fill:#941a27;}.cls-2{fill:#fdd8cb;}.cls-3,.cls-4{fill:none;stroke:#fff;}.cls-3{stroke-width:7px;}.cls-10,.cls-11,.cls-12,.cls-5,.cls-6,.cls-7,.cls-8,.cls-9{font-size:14px;}.cls-10,.cls-11,.cls-12,.cls-13,.cls-5,.cls-6,.cls-7,.cls-8{fill:#231f20;}.cls-10,.cls-11,.cls-12,.cls-5,.cls-6{font-family:NiveauGroteskMedium, Niveau Grotesk;}.cls-5{letter-spacing:0em;}.cls-7,.cls-8,.cls-9{font-family:NiveauGroteskBold, Niveau Grotesk;font-weight:700;}.cls-8{letter-spacing:0em;}.cls-10{letter-spacing:-0.01em;}.cls-11{letter-spacing:-0.06em;}.cls-12{letter-spacing:0em;}.cls-13{font-size:12px;font-family:NiveauGroteskLight, Niveau Grotesk;}.cls-14{fill:#fbc7b5;}</style></defs><title>Good-Day-Cann-3</title><polygon class="cls-1" points="0 477.5 0 502.02 608.65 502.02 608.65 477.5 0 477.5 0 477.5"/><polygon class="cls-2" points="0 129.46 0 158.26 608.65 158.26 608.65 129.46 0 129.46 0 129.46"/><polygon class="cls-2" points="0 19.86 0 48.66 608.65 48.66 608.65 19.86 0 19.86 0 19.86"/><polygon class="cls-2" points="0 74.66 0 103.46 608.65 103.46 608.65 74.66 0 74.66 0 74.66"/><polygon class="cls-2" points="0 184.26 0 213.06 608.65 213.06 608.65 184.26 0 184.26 0 184.26"/><polygon class="cls-2" points="0 239.06 0 267.86 608.65 267.86 608.65 239.06 0 239.06 0 239.06"/><polygon class="cls-2" points="0 293.86 0 322.66 608.65 322.66 608.65 293.86 0 293.86 0 293.86"/><line class="cls-3" y1="360.82" x2="608.65" y2="360.82"/><line class="cls-4" y1="19.76" x2="608.65" y2="19.76"/><text class="cls-5" transform="translate(171.26 39.76)">0.0</text><text class="cls-6" transform="translate(191.05 39.76)">6</text><text class="cls-6" transform="translate(180.89 67.11)">0</text><text class="cls-6" transform="translate(173.72 94.46)">1.71</text><text class="cls-6" transform="translate(180.89 121.81)">0</text><text class="cls-5" transform="translate(171.22 149.16)">0.0</text><text class="cls-6" transform="translate(191.02 149.16)">4</text><text class="cls-5" transform="translate(171.84 176.52)">0.0</text><text class="cls-6" transform="translate(191.64 176.52)">3</text><text class="cls-6" transform="translate(180.89 203.86)">0</text><text class="cls-6" transform="translate(180.89 231.21)">0</text><text class="cls-6" transform="translate(172.64 258.56)">0.31</text><text class="cls-5" transform="translate(171.22 285.91)">0.0</text><text class="cls-6" transform="translate(191.02 285.91)">4</text><text class="cls-6" transform="translate(180.89 313.27)">0</text><text class="cls-6" transform="translate(180.89 340.61)">0</text><text class="cls-7" transform="translate(157.4 392.96)">2.1</text><text class="cls-7" transform="translate(174.13 392.96)">9 </text><text class="cls-7" transform="translate(184.54 392.96)">wt%</text><text class="cls-8" transform="translate(155.7 421.96)">0.06 </text><text class="cls-7" transform="translate(186.25 421.96)">wt%</text><text class="cls-7" transform="translate(157.1 450.96)">1.</text><text class="cls-7" transform="translate(167.11 450.96)">98 </text><text class="cls-7" transform="translate(184.85 450.96)">wt%</text><text class="cls-9" transform="translate(151.22 11.76)">WEIGHT</text><text class="cls-9" transform="translate(203.36 11.76)"> </text><text class="cls-9" transform="translate(206.36 11.76)">%</text><text class="cls-6" transform="translate(301.75 39.76)">0.57</text><text class="cls-6" transform="translate(309.9 67.11)">0</text><text class="cls-6" transform="translate(298.08 94.46)">16.07</text><text class="cls-6" transform="translate(309.9 121.81)">0</text><text class="cls-6" transform="translate(301.94 149.16)">0.37</text><text class="cls-6" transform="translate(301.08 176.52)">0.26</text><text class="cls-6" transform="translate(309.9 203.86)">0</text><text class="cls-6" transform="translate(309.9 231.21)">0</text><text class="cls-6" transform="translate(305.36 258.56)">2.</text><text class="cls-6" transform="translate(314.95 258.56)">9</text><text class="cls-6" transform="translate(301.04 285.91)">0.34</text><text class="cls-6" transform="translate(309.9 313.27)">0</text><text class="cls-6" transform="translate(309.9 340.61)">0</text><text class="cls-7" transform="translate(274.07 392.96)"><tspan xml:space="preserve">20.51  mg/</tspan></text><text class="cls-7" transform="translate(338.62 392.96)">ml</text><text class="cls-7" transform="translate(277.63 421.96)"><tspan xml:space="preserve">0.57  mg/</tspan></text><text class="cls-7" transform="translate(335.06 421.96)">ml</text><text class="cls-7" transform="translate(274.05 450.96)"><tspan xml:space="preserve">18.61  mg/</tspan></text><text class="cls-7" transform="translate(338.63 450.96)">ml</text><text class="cls-9" transform="translate(258 11.76)">C</text><text class="cls-9" transform="translate(266 11.76)">ONCENTRA</text><text class="cls-9" transform="translate(336.19 11.76)">TION mg/</text><text class="cls-9" transform="translate(397.66 11.76)">ml</text><text class="cls-6" transform="translate(32.07 39.76)">D9-</text><text class="cls-6" transform="translate(54.19 39.76)">THC</text><text class="cls-6" transform="translate(38.84 67.11)">THCV</text><text class="cls-6" transform="translate(42.91 94.46)">CBD</text><text class="cls-6" transform="translate(38.76 121.81)">CBD</text><text class="cls-6" transform="translate(64.66 121.81)">V</text><text class="cls-6" transform="translate(42.69 149.16)">CBG</text><text class="cls-6" transform="translate(43.62 176.52)">CBC</text><text class="cls-6" transform="translate(42.82 203.86)">CBN</text><text class="cls-6" transform="translate(38.83 231.21)">THCA</text><text class="cls-6" transform="translate(38.75 258.56)">CBD</text><text class="cls-6" transform="translate(64.65 258.56)">A</text><text class="cls-6" transform="translate(38.46 285.91)">CBG</text><text class="cls-6" transform="translate(64.94 285.91)">A</text><text class="cls-6" transform="translate(32.24 313.27)">D8-</text><text class="cls-6" transform="translate(54.02 313.27)">THC</text><text class="cls-10" transform="translate(29.85 340.61)">ex</text><text class="cls-6" transform="translate(43.71 340.61)">o-</text><text class="cls-6" transform="translate(56.41 340.61)">THC</text><text class="cls-11" transform="translate(41.79 392.96)">To</text><text class="cls-12" transform="translate(55.81 392.96)">ta</text><text class="cls-6" transform="translate(66.89 392.96)">l</text><text class="cls-6" transform="translate(29 421.96)">Max </text><text class="cls-6" transform="translate(57.26 421.96)">THC</text><text class="cls-6" transform="translate(28.6 450.96)">Max CBD</text><text class="cls-9" transform="translate(49.08 11.76)">ID</text><path class="cls-4" d="M913.15,506.82V166.26M425.5,506.82V166.26m129,340.56V166.26m149,340.56V166.26" transform="translate(-305 -146)"/><text class="cls-13" transform="translate(398 382.47)">0%</text><text class="cls-13" transform="translate(591.61 382.47)">1.7%</text><text class="cls-13" transform="translate(454.9 382.47)">Cannabinoids (</text><text class="cls-13" transform="translate(530.42 382.47)">wt%)</text><path class="cls-14" d="M492.69,641.64h2.41v-4.3h.6c1.41,0,2.39,1.78,2.8,4.3H501c-.27-2.48-1.14-4.53-2.58-5.27a2.86,2.86,0,0,0,2.09-2.93c0-2.14-1.57-3.36-3.83-3.36h-4v11.56Zm5.33-7.93a1.23,1.23,0,0,1-1.34,1.3H495.1v-2.6h1.58a1.23,1.23,0,0,1,1.34,1.3Zm4.73,2a4.38,4.38,0,0,1,2.18-.63,1.37,1.37,0,0,1,1.56,1.44V637a3,3,0,0,0-1.85-.61,2.67,2.67,0,0,0-2.82,2.72,2.61,2.61,0,0,0,2.78,2.75,2.42,2.42,0,0,0,1.89-.81v.63h2.32v-5.09c0-2.46-1.33-3.55-3.61-3.55a7,7,0,0,0-2.45.49v2.2Zm1.35,3.38a1.11,1.11,0,0,1,1.19-1.05,1.06,1.06,0,1,1-1.19,1.05Zm9.45,2.57v-6.5H515v-2h-1.43v-2.35l-2.18.5v1.85h-1.43v2h1.3v6.5Zm4.93-8.47h-2.31v8.47h2.31v-8.47ZM516,630.7a1.36,1.36,0,1,0,1.36-1.37A1.34,1.34,0,0,0,516,630.7Zm4,6.7a4.41,4.41,0,1,0,4.41-4.4,4.36,4.36,0,0,0-4.41,4.4Zm2.35,0a2.08,2.08,0,0,1,2.06-2.14,2.15,2.15,0,0,1,0,4.3,2.09,2.09,0,0,1-2.06-2.16Zm11.07,0a4.41,4.41,0,1,0,4.4-4.4,4.35,4.35,0,0,0-4.4,4.4Zm2.35,0a2,2,0,1,1,2,2.16,2.08,2.08,0,0,1-2-2.16Zm12.41-3.89h-1.65v-.61a.83.83,0,0,1,.9-.9,2.25,2.25,0,0,1,.78.15v-2.31a4.09,4.09,0,0,0-.87-.1,2.8,2.8,0,0,0-3.12,3v.76H543v2h1.19v6.16h2.31v-6.16h1.65v-2Zm6.41,8.13h2.41v-9.23h2.81v-2.33h-8v2.33h2.81v9.23Zm5-4.24a4.41,4.41,0,1,0,4.4-4.4,4.35,4.35,0,0,0-4.4,4.4Zm2.35,0a2,2,0,1,1,2,2.16,2.08,2.08,0,0,1-2-2.16Zm10.72,4.24v-6.5H574v-2h-1.43v-2.35l-2.17.5v1.85H569v2h1.29v6.5Zm2.88-5.95a4.38,4.38,0,0,1,2.17-.63c.89,0,1.57.42,1.57,1.44V637a3,3,0,0,0-1.86-.61,2.67,2.67,0,0,0-2.82,2.72,2.61,2.61,0,0,0,2.79,2.75,2.44,2.44,0,0,0,1.89-.81v.63h2.31v-5.09c0-2.46-1.33-3.55-3.6-3.55a7,7,0,0,0-2.45.49v2.2Zm1.34,3.38A1.12,1.12,0,0,1,578,638a1.06,1.06,0,1,1,0,2.1,1.11,1.11,0,0,1-1.19-1Zm8.89-9.16h-2.33v11.73h2.33V629.91Zm13.78,8.57a4.07,4.07,0,0,1-2.64.93,3.56,3.56,0,0,1,0-7.11,4,4,0,0,1,2.64,1v-2.78a6.23,6.23,0,0,0-2.64-.59,6,6,0,0,0,0,11.93,6.23,6.23,0,0,0,2.64-.59v-2.75Zm2,3.16h4.11c2.23,0,3.83-1.29,3.83-3.2a2.87,2.87,0,0,0-1.7-2.75,2.68,2.68,0,0,0,1.37-2.54c0-1.83-1.49-3.07-3.6-3.07h-4v11.56Zm5.46-3.54c0,.83-.58,1.21-1.35,1.21h-1.7v-2.43h1.7a1.19,1.19,0,0,1,1.35,1.22Zm-.33-4.62a1,1,0,0,1-1.14,1.07h-1.58v-2.14h1.58a1,1,0,0,1,1.14,1.07Zm4.71,8.16h4.29a5.78,5.78,0,0,0,0-11.56h-4.29v11.56Zm4.27-9.23a3.46,3.46,0,0,1,0,6.9h-1.85v-6.9Zm13.87,9.23v-6.5h1.43v-2h-1.43v-2.35l-2.17.5v1.85h-1.43v2h1.29v6.5Zm2-4.24a4.41,4.41,0,1,0,4.4-4.4,4.35,4.35,0,0,0-4.4,4.4Zm2.34,0a2.09,2.09,0,0,1,2.06-2.14,2.15,2.15,0,0,1,0,4.3,2.1,2.1,0,0,1-2.06-2.16Zm13.32,4.24h2.41v-9.23h2.81v-2.33h-8v2.33h2.81v9.23Zm14.53,0h2.42V630.08h-2.42v4.57h-5.28v-4.57H654v11.56h2.42V637h5.28v4.66Zm12.82-3.16a4,4,0,0,1-2.63.93,3.56,3.56,0,0,1,0-7.11,3.94,3.94,0,0,1,2.63,1v-2.78a6.15,6.15,0,0,0-2.63-.59,6,6,0,0,0,0,11.93,6.15,6.15,0,0,0,2.63-.59v-2.75Zm9.58-2.18h1.7a2,2,0,0,1,2.11,2,2.07,2.07,0,0,1-2.25,2,3.8,3.8,0,0,1-2.41-.8v1.66a5.23,5.23,0,0,0,2.48.6,3.4,3.4,0,0,0,3.69-3.32,3,3,0,0,0-1.87-2.91,2.72,2.72,0,0,0,1.55-2.61,3.12,3.12,0,0,0-3.42-3.06,4.62,4.62,0,0,0-2.3.54v1.6a3.78,3.78,0,0,1,2.25-.68,1.77,1.77,0,1,1,.15,3.53h-1.68v1.4Zm7,5.34h6.24v-1.4h-4.39l3-3.77a5.13,5.13,0,0,0,1.4-3.4,3.06,3.06,0,0,0-3.37-3.16,4.19,4.19,0,0,0-2.63.93v1.7a3.42,3.42,0,0,1,2.55-1.17,1.81,1.81,0,0,1,2,1.92,4.25,4.25,0,0,1-1.17,2.55l-3.57,4.51v1.29Zm8.21-.9a1.05,1.05,0,0,0,1.09,1.07,1.08,1.08,0,1,0-1.09-1.07Zm12-1.6v-1.4h-1.56v-7.66h-1.47l-5.28,7.8v1.26h5.28v2.5h1.47v-2.5Zm-6.73-1.4,3.7-5.5v5.5Zm10.18,3.06a1,1,0,1,0,2,0,1,1,0,1,0-2,0Zm0-6.37a1,1,0,1,0,1-1,1,1,0,0,0-1,1Zm5.37,7.21h6.84v-1.4h-2.47V630.08H720.4v1.39H723v8.77h-2.91v1.4Z" transform="translate(-305 -146)"/><polygon class="cls-1" points="398.99 273.31 403.17 273.31 403.17 288.78 398.99 288.78 398.99 273.31 398.99 273.31"/><polygon class="cls-1" points="398.99 81.28 607.24 81.28 607.24 96.75 398.99 96.75 398.99 81.28 398.99 81.28"/><polygon class="cls-1" points="398.99 26.91 405.95 26.91 405.95 42.38 398.99 42.38 398.99 26.91 398.99 26.91"/><polygon class="cls-1" points="398.99 245.66 436.34 245.66 436.34 261.13 398.99 261.13 398.99 245.66 398.99 245.66"/><polygon class="cls-1" points="398.99 163.31 401.9 163.31 401.9 178.78 398.99 178.78 398.99 163.31 398.99 163.31"/><polygon class="cls-1" points="398.99 136.16 403.04 136.16 403.04 151.63 398.99 151.63 398.99 136.16 398.99 136.16"/></svg>