<svg id="Layer_1" data-name="Layer 1" xmlns="http://www.w3.org/2000/svg" viewBox="0 0 749.18 600"><defs><style>.cls-1,.cls-13,.cls-14,.cls-15,.cls-16,.cls-17,.cls-18{fill:#dfdbed;}.cls-2{fill:#ebe9f4;}.cls-19,.cls-3{fill:none;stroke:#fff;}.cls-10,.cls-11,.cls-4,.cls-5,.cls-6,.cls-7,.cls-8,.cls-9{font-size:14px;}.cls-10,.cls-11,.cls-20,.cls-4,.cls-5,.cls-6,.cls-7,.cls-9{fill:#231f20;}.cls-10,.cls-11,.cls-4,.cls-5,.cls-9{font-family:NiveauGroteskMedium, Niveau Grotesk;}.cls-4{letter-spacing:0em;}.cls-13,.cls-14,.cls-15,.cls-16,.cls-6,.cls-7,.cls-8{font-family:NiveauGroteskBold, Niveau Grotesk;font-weight:700;}.cls-7{letter-spacing:0em;}.cls-12,.cls-8{fill:#39325f;}.cls-9{letter-spacing:-0.01em;}.cls-10{letter-spacing:-0.06em;}.cls-11{letter-spacing:0em;}.cls-13,.cls-14,.cls-15,.cls-16,.cls-17,.cls-18{font-size:17px;}.cls-13{letter-spacing:0em;}.cls-14{letter-spacing:-0.06em;}.cls-15{letter-spacing:0em;}.cls-17,.cls-18{font-family:NiveauGroteskRegular, Niveau Grotesk;}.cls-17{letter-spacing:0.01em;}.cls-18{letter-spacing:0.1em;}.cls-19{stroke-width:7px;}.cls-20{font-size:12px;font-family:NiveauGroteskLight, Niveau Grotesk;}</style></defs><title>Good-Day-Can</title><polygon class="cls-1" points="0 0 0 600 749.18 600 749.18 0 0 0 0 0"/><polygon class="cls-2" points="70.93 178.82 70.93 207.62 678.58 207.62 678.58 178.82 70.93 178.82 70.93 178.82"/><polygon class="cls-2" points="70.93 69.22 70.93 98.02 678.58 98.02 678.58 69.22 70.93 69.22 70.93 69.22"/><polygon class="cls-2" points="70.93 124.02 70.93 152.82 678.58 152.82 678.58 124.02 70.93 124.02 70.93 124.02"/><polygon class="cls-2" points="70.93 233.62 70.93 262.42 678.58 262.42 678.58 233.62 70.93 233.62 70.93 233.62"/><polygon class="cls-2" points="70.93 288.42 70.93 317.22 678.58 317.22 678.58 288.42 70.93 288.42 70.93 288.42"/><polygon class="cls-2" points="70.93 343.22 70.93 372.02 678.58 372.02 678.58 343.22 70.93 343.22 70.93 343.22"/><line class="cls-3" x1="70.93" y1="69.12" x2="679.58" y2="69.12"/><text class="cls-4" transform="translate(242.16 89.12)">0.0</text><text class="cls-5" transform="translate(261.96 89.12)">4</text><text class="cls-5" transform="translate(251.82 116.47)">0</text><text class="cls-5" transform="translate(244.38 143.82)">1.12</text><text class="cls-5" transform="translate(251.82 171.16)">0</text><text class="cls-4" transform="translate(242.78 198.52)">0.0</text><text class="cls-5" transform="translate(262.57 198.52)">2</text><text class="cls-4" transform="translate(242.76 225.88)">0.0</text><text class="cls-5" transform="translate(262.56 225.88)">1</text><text class="cls-4" transform="translate(242.78 253.22)">0.0</text><text class="cls-5" transform="translate(262.57 253.22)">3</text><text class="cls-5" transform="translate(251.82 280.57)">0</text><text class="cls-5" transform="translate(251.82 307.92)">0</text><text class="cls-5" transform="translate(251.82 335.27)">0</text><text class="cls-5" transform="translate(251.82 362.63)">0</text><text class="cls-5" transform="translate(251.82 389.97)">0</text><text class="cls-6" transform="translate(228.79 442.32)">1.22 </text><text class="cls-6" transform="translate(255.03 442.32)">wt%</text><text class="cls-7" transform="translate(226.54 471.32)">0.04 </text><text class="cls-6" transform="translate(257.28 471.32)">wt%</text><text class="cls-6" transform="translate(228.73 500.31)">1.12 </text><text class="cls-6" transform="translate(255.09 500.31)">wt%</text><text class="cls-8" transform="translate(222.15 61.12)">WEIGHT</text><text class="cls-8" transform="translate(274.29 61.12)"> </text><text class="cls-8" transform="translate(277.29 61.12)">%</text><text class="cls-5" transform="translate(372.4 89.12)">0.35</text><text class="cls-5" transform="translate(380.82 116.47)">0</text><text class="cls-5" transform="translate(369.11 143.82)">10.51</text><text class="cls-5" transform="translate(380.82 171.16)">0</text><text class="cls-5" transform="translate(372.39 198.52)">0.15</text><text class="cls-5" transform="translate(372.56 225.88)">0.11</text><text class="cls-5" transform="translate(372.57 253.22)">0.31</text><text class="cls-5" transform="translate(380.82 280.57)">0</text><text class="cls-5" transform="translate(380.82 307.92)">0</text><text class="cls-5" transform="translate(380.82 335.27)">0</text><text class="cls-5" transform="translate(380.82 362.63)">0</text><text class="cls-5" transform="translate(380.82 389.97)">0</text><text class="cls-6" transform="translate(343.87 442.32)"><tspan xml:space="preserve">11.43  mg/</tspan></text><text class="cls-6" transform="translate(407.86 442.32)">mL</text><text class="cls-6" transform="translate(346.96 471.32)"><tspan xml:space="preserve">0.35  mg/</tspan></text><text class="cls-6" transform="translate(404.77 471.32)">mL</text><text class="cls-6" transform="translate(343.52 500.31)"><tspan xml:space="preserve">10.51  mg/</tspan></text><text class="cls-6" transform="translate(408.21 500.31)">mL</text><text class="cls-5" transform="translate(103 89.12)">D9-</text><text class="cls-5" transform="translate(125.12 89.12)">THC</text><text class="cls-5" transform="translate(109.77 116.47)">THCV</text><text class="cls-5" transform="translate(113.85 143.82)">CBD</text><text class="cls-5" transform="translate(109.69 171.16)">CBD</text><text class="cls-5" transform="translate(135.59 171.16)">V</text><text class="cls-5" transform="translate(113.61 198.52)">CBG</text><text class="cls-5" transform="translate(114.55 225.88)">CBC</text><text class="cls-5" transform="translate(113.75 253.22)">CBN</text><text class="cls-5" transform="translate(109.76 280.57)">THCA</text><text class="cls-5" transform="translate(109.68 307.92)">CBD</text><text class="cls-5" transform="translate(135.57 307.92)">A</text><text class="cls-5" transform="translate(109.39 335.27)">CBG</text><text class="cls-5" transform="translate(135.86 335.27)">A</text><text class="cls-5" transform="translate(103.17 362.63)">D8-</text><text class="cls-5" transform="translate(124.95 362.63)">THC</text><text class="cls-9" transform="translate(100.79 389.97)">ex</text><text class="cls-5" transform="translate(114.64 389.97)">o-</text><text class="cls-5" transform="translate(127.34 389.97)">THC</text><text class="cls-10" transform="translate(112.73 442.32)">To</text><text class="cls-11" transform="translate(126.74 442.32)">ta</text><text class="cls-5" transform="translate(137.83 442.32)">l</text><text class="cls-5" transform="translate(99.93 471.32)">Max </text><text class="cls-5" transform="translate(128.2 471.32)">THC</text><text class="cls-5" transform="translate(99.53 500.31)">Max CBD</text><text class="cls-8" transform="translate(120 61.12)">ID</text><path class="cls-3" d="M916.08,506.18V165.62M428.43,506.18V165.62m129,340.56V165.62m149,340.56V165.62" transform="translate(-237 -96)"/><text class="cls-8" transform="translate(328.93 61.12)">C</text><text class="cls-8" transform="translate(336.93 61.12)">ONCENTRA</text><text class="cls-8" transform="translate(407.13 61.12)">TION mg/</text><text class="cls-8" transform="translate(468.6 61.12)">ml</text><polygon class="cls-12" points="70.93 526.86 70.93 551.38 679.58 551.38 679.58 526.86 70.93 526.86 70.93 526.86"/><text class="cls-13" transform="translate(256.36 544.99)">Ratio of </text><text class="cls-14" transform="translate(316.31 544.99)">To</text><text class="cls-15" transform="translate(333.57 544.99)">tal CBD to </text><text class="cls-16" transform="translate(408.93 544.99)">THC </text><text class="cls-17" transform="translate(447.25 544.99)">30.4</text><text class="cls-18" transform="translate(480.62 544.99)">:1</text><polygon class="cls-12" points="470 130.66 678.25 130.66 678.25 146.13 470 146.13 470 130.66 470 130.66"/><polygon class="cls-12" points="470 76.02 476.38 76.02 476.38 91.48 470 91.48 470 76.02 470 76.02"/><polygon class="cls-12" points="470 240.82 475.57 240.82 475.57 256.29 470 256.29 470 240.82 470 240.82"/><polygon class="cls-12" points="470 212.66 471.62 212.66 471.62 228.13 470 228.13 470 212.66 470 212.66"/><polygon class="cls-12" points="470 185.51 472.28 185.51 472.28 200.98 470 200.98 470 185.51 470 185.51"/><line class="cls-19" x1="69.6" y1="410.18" x2="678.25" y2="410.18"/><text class="cls-20" transform="translate(467.6 431.83)">0%</text><text class="cls-20" transform="translate(661.21 431.83)">1.7%</text><text class="cls-20" transform="translate(524.5 431.83)">Cannabinoids (</text><text class="cls-20" transform="translate(600.02 431.83)">wt%)</text></svg>