<svg id="Layer_1" data-name="Layer 1" xmlns="http://www.w3.org/2000/svg" viewBox="0 0 475.04 928.56"><defs><style>.cls-1{fill:#39325f;}.cls-2{fill:#ebe9f4;}.cls-3{fill:none;stroke:#fff;}.cls-4{fill:#231f20;}.cls-5{fill:#dfdbed;}</style></defs><title>Good-Night-Terp-3</title><polygon class="cls-1" points="0 904.03 0 928.56 461.4 928.56 461.4 904.03 0 904.03 0 904.03"/><polygon class="cls-2" points="0 127.36 0 156.16 461.4 156.16 461.4 127.36 0 127.36 0 127.36"/><polygon class="cls-2" points="0 17.76 0 46.56 461.4 46.56 461.4 17.76 0 17.76 0 17.76"/><polygon class="cls-2" points="0 72.56 0 101.36 461.4 101.36 461.4 72.56 0 72.56 0 72.56"/><polygon class="cls-2" points="0 182.16 0 210.96 461.4 210.96 461.4 182.16 0 182.16 0 182.16"/><polygon class="cls-2" points="0 236.96 0 265.76 461.4 265.76 461.4 236.96 0 236.96 0 236.96"/><polygon class="cls-2" points="0 291.76 0 320.56 461.4 320.56 461.4 291.76 0 291.76 0 291.76"/><polygon class="cls-2" points="0 346.56 0 375.36 461.4 375.36 461.4 346.56 0 346.56 0 346.56"/><path class="cls-3" d="M374,336.56H835.4m-.5-.5V-49.84M573.29,336.06V-49.84M704.5,336.06V-49.84M374-50.34H835.4" transform="translate(-374 68)"/><polygon class="cls-1" points="199.8 353.32 228.42 353.32 228.42 368.79 199.8 368.79 199.8 353.32 199.8 353.32"/><polygon class="cls-1" points="199.8 325.93 203.59 325.93 203.59 341.39 199.8 341.39 199.8 325.93 199.8 325.93"/><polygon class="cls-1" points="199.8 271.02 215.35 271.02 215.35 286.49 199.8 286.49 199.8 271.02 199.8 271.02"/><polygon class="cls-1" points="199.8 243.82 232.34 243.82 232.34 259.29 199.8 259.29 199.8 243.82 199.8 243.82"/><polygon class="cls-1" points="199.8 216.28 202.29 216.28 202.29 231.74 199.8 231.74 199.8 216.28 199.8 216.28"/><polygon class="cls-1" points="199.8 188.93 203.59 188.93 203.59 204.39 199.8 204.39 199.8 188.93 199.8 188.93"/><polygon class="cls-1" points="199.8 106.63 207.51 106.63 207.51 122.09 199.8 122.09 199.8 106.63 199.8 106.63"/><polygon class="cls-1" points="199.8 79.12 385.23 79.12 385.23 94.59 199.8 94.59 199.8 79.12 199.8 79.12"/><path class="cls-4" d="M426,320.1a3.43,3.43,0,0,1,1.81-.55,1.3,1.3,0,0,1,1.44,1.38v.57a2.4,2.4,0,0,0-1.65-.66,2.24,2.24,0,0,0-2.36,2.26,2.19,2.19,0,0,0,2.33,2.26,2.08,2.08,0,0,0,1.68-.78v.63h1.54V321a2.49,2.49,0,0,0-2.81-2.77,4.82,4.82,0,0,0-2,.44v1.48Zm.76,3A1.18,1.18,0,0,1,428,322a1.2,1.2,0,0,1,1.25,1.12,1.25,1.25,0,0,1-2.48,0Zm7.28-7.54h-1.54v9.66H434v-9.66Zm3.3,2.77H435.8v9.76h1.53v-4a2.69,2.69,0,0,0,2.36,1.27,3.6,3.6,0,0,0,0-7.18,2.59,2.59,0,0,0-2.36,1.34v-1.2Zm0,3.45a2.06,2.06,0,1,1,2.06,2.08,2,2,0,0,1-2.06-2.08Zm8.58-6.22h-1.53v9.66h1.53v-4.06a1.45,1.45,0,1,1,2.9.08v4h1.54v-4.37a2.46,2.46,0,0,0-2.5-2.66,2.11,2.11,0,0,0-1.94,1.12v-3.75Zm6.39,4.55a3.4,3.4,0,0,1,1.8-.55,1.3,1.3,0,0,1,1.45,1.38v.57a2.4,2.4,0,0,0-1.65-.66,2.25,2.25,0,0,0-2.37,2.26,2.19,2.19,0,0,0,2.34,2.26,2.08,2.08,0,0,0,1.68-.78v.63h1.54V321a2.5,2.5,0,0,0-2.82-2.77,4.77,4.77,0,0,0-2,.44v1.48Zm.75,3a1.25,1.25,0,1,1,1.24,1.11,1.19,1.19,0,0,1-1.24-1.11Zm10.87,2.12v-5.57h1.24v-1.32h-1.24v-1.94l-1.46.33v1.61h-1.24v1.32h1.16v5.57Zm8.43-2.93a3.49,3.49,0,0,0,.09-.78,3.2,3.2,0,0,0-3.27-3.32,3.59,3.59,0,0,0,.08,7.18,5.12,5.12,0,0,0,2.52-.63v-1.52a4.35,4.35,0,0,1-2.4.75,2,2,0,0,1-2.1-1.68Zm-3.19-2.81a1.69,1.69,0,0,1,1.8,1.62h-3.71a1.86,1.86,0,0,1,1.91-1.62Zm6.08-1.15h-1.53v6.89h1.53v-4.06a1.34,1.34,0,0,1,1.35-1.47,2.32,2.32,0,0,1,.92.18v-1.64a5.27,5.27,0,0,0-.57,0,1.88,1.88,0,0,0-1.7,1v-.84Zm4.9,0h-1.53v9.76h1.53v-4a2.69,2.69,0,0,0,2.36,1.27,3.6,3.6,0,0,0,0-7.18,2.59,2.59,0,0,0-2.36,1.34v-1.2Zm0,3.45a2.06,2.06,0,1,1,2.06,2.08,2,2,0,0,1-2.06-2.08Zm8.59-3.45h-1.54v6.89h1.54v-6.89Zm-1.72-2.1a.93.93,0,0,0,.95.95,1,1,0,0,0,0-1.9.94.94,0,0,0-.95,1Zm5,2.1h-1.54v6.89H492v-4.06a1.39,1.39,0,0,1,1.44-1.47,1.41,1.41,0,0,1,1.46,1.55v4h1.54v-4.37a2.46,2.46,0,0,0-2.51-2.66A2.09,2.09,0,0,0,492,319.3v-1Zm12.35,4a3.44,3.44,0,0,0,.1-.78,3.2,3.2,0,0,0-3.28-3.32,3.59,3.59,0,0,0,.08,7.18,5.12,5.12,0,0,0,2.52-.63v-1.52a4.35,4.35,0,0,1-2.4.75,2,2,0,0,1-2.1-1.68Zm-3.19-2.81a1.69,1.69,0,0,1,1.8,1.62h-3.71a1.86,1.86,0,0,1,1.91-1.62Zm6.08-1.15h-1.53v6.89h1.53v-4.06a1.45,1.45,0,1,1,2.9.08v4h1.54v-4.37a2.45,2.45,0,0,0-2.5-2.66,2.1,2.1,0,0,0-1.94,1.12v-1Zm12.35,4a3,3,0,0,0,.1-.78,3.2,3.2,0,0,0-3.27-3.32,3.59,3.59,0,0,0,.08,7.18,5.15,5.15,0,0,0,2.52-.63v-1.52a4.39,4.39,0,0,1-2.41.75,2,2,0,0,1-2.1-1.68Zm-3.19-2.81a1.69,1.69,0,0,1,1.81,1.62h-3.71a1.86,1.86,0,0,1,1.9-1.62Z" transform="translate(-374 68)"/><path class="cls-4" d="M440.58,292.75a3.43,3.43,0,0,1,1.81-.55,1.3,1.3,0,0,1,1.44,1.38v.57a2.4,2.4,0,0,0-1.65-.66,2.25,2.25,0,0,0-2.37,2.26,2.2,2.2,0,0,0,2.34,2.26,2.08,2.08,0,0,0,1.68-.78v.63h1.54V293.6a2.5,2.5,0,0,0-2.81-2.77,4.78,4.78,0,0,0-2,.44v1.48Zm.76,3a1.18,1.18,0,0,1,1.23-1.12,1.2,1.2,0,0,1,1.25,1.12,1.25,1.25,0,0,1-2.48,0Zm7.28-7.54h-1.54v9.66h1.54V288.2Zm3.3,2.77h-1.54v9.76h1.54v-4a2.69,2.69,0,0,0,2.35,1.27,3.6,3.6,0,0,0,0-7.18,2.58,2.58,0,0,0-2.35,1.34V291Zm0,3.45A2.05,2.05,0,1,1,454,296.5a2,2,0,0,1-2.06-2.08Zm8.58-6.22H459v9.66h1.54V293.8a1.45,1.45,0,1,1,2.9.08v4h1.54v-4.37a2.46,2.46,0,0,0-2.5-2.66A2.11,2.11,0,0,0,460.5,292V288.2Zm6.39,4.55a3.4,3.4,0,0,1,1.8-.55,1.31,1.31,0,0,1,1.45,1.38v.57a2.4,2.4,0,0,0-1.66-.66,2.24,2.24,0,0,0-2.36,2.26,2.19,2.19,0,0,0,2.33,2.26,2.1,2.1,0,0,0,1.69-.78v.63h1.53V293.6a2.49,2.49,0,0,0-2.81-2.77,4.77,4.77,0,0,0-2,.44v1.48Zm.75,3a1.25,1.25,0,1,1,1.24,1.11,1.19,1.19,0,0,1-1.24-1.11Zm9.3-1.16v-1.44h-3.66v1.44Zm3.2-3.61h-1.53v9.76h1.53v-4A2.69,2.69,0,0,0,482.5,298a3.6,3.6,0,0,0,0-7.18,2.59,2.59,0,0,0-2.36,1.34V291Zm0,3.45a2.06,2.06,0,1,1,2.06,2.08,2,2,0,0,1-2.06-2.08Zm8.59-3.45h-1.54v6.89h1.54V291Zm-1.72-2.1a.93.93,0,0,0,.95.95,1,1,0,0,0,0-1.9.94.94,0,0,0-.95.95Zm5,2.1h-1.54v6.89H492V293.8a1.39,1.39,0,0,1,1.44-1.47,1.41,1.41,0,0,1,1.46,1.55v4h1.54v-4.37a2.46,2.46,0,0,0-2.51-2.66A2.09,2.09,0,0,0,492,292v-1Zm12.35,4a3.44,3.44,0,0,0,.1-.78,3.2,3.2,0,0,0-3.28-3.32,3.59,3.59,0,0,0,.08,7.18,5.12,5.12,0,0,0,2.52-.63v-1.52a4.35,4.35,0,0,1-2.4.75,2,2,0,0,1-2.1-1.68Zm-3.19-2.81a1.69,1.69,0,0,1,1.8,1.62h-3.71a1.86,1.86,0,0,1,1.91-1.62Zm6.08-1.15h-1.53v6.89h1.53V293.8a1.45,1.45,0,1,1,2.9.08v4h1.54v-4.37a2.45,2.45,0,0,0-2.5-2.66,2.1,2.1,0,0,0-1.94,1.12v-1Zm12.35,4a3,3,0,0,0,.1-.78,3.2,3.2,0,0,0-3.27-3.32,3.59,3.59,0,0,0,.08,7.18,5.15,5.15,0,0,0,2.52-.63v-1.52a4.39,4.39,0,0,1-2.41.75,2,2,0,0,1-2.1-1.68Zm-3.19-2.81a1.69,1.69,0,0,1,1.81,1.62h-3.71a1.86,1.86,0,0,1,1.9-1.62Z" transform="translate(-374 68)"/><path class="cls-4" d="M427.55,265.4a3.4,3.4,0,0,1,1.8-.55,1.31,1.31,0,0,1,1.45,1.38v.57a2.4,2.4,0,0,0-1.66-.66,2.24,2.24,0,0,0-2.36,2.26,2.19,2.19,0,0,0,2.33,2.26,2.1,2.1,0,0,0,1.69-.78v.63h1.54v-4.26a2.5,2.5,0,0,0-2.82-2.77,4.77,4.77,0,0,0-2,.44v1.48Zm.75,3a1.25,1.25,0,1,1,1.24,1.11,1.19,1.19,0,0,1-1.24-1.11Zm7.28-7.54H434v9.66h1.54v-9.66Zm3.31,2.77h-1.54v9.76h1.54v-4a2.66,2.66,0,0,0,2.35,1.27,3.6,3.6,0,0,0,0-7.18,2.56,2.56,0,0,0-2.35,1.34v-1.2Zm0,3.45a2.05,2.05,0,1,1,2.06,2.08,2,2,0,0,1-2.06-2.08Zm8.58-6.22h-1.54v9.66h1.54v-4.06a1.39,1.39,0,0,1,1.45-1.47,1.41,1.41,0,0,1,1.45,1.55v4h1.54v-4.37a2.46,2.46,0,0,0-2.51-2.66,2.11,2.11,0,0,0-1.93,1.12v-3.75Zm6.38,4.55a3.43,3.43,0,0,1,1.81-.55,1.3,1.3,0,0,1,1.44,1.38v.57a2.4,2.4,0,0,0-1.65-.66,2.25,2.25,0,0,0-2.37,2.26,2.2,2.2,0,0,0,2.34,2.26,2.08,2.08,0,0,0,1.68-.78v.63h1.54v-4.26a2.5,2.5,0,0,0-2.81-2.77,4.82,4.82,0,0,0-2,.44v1.48Zm.76,3a1.18,1.18,0,0,1,1.23-1.12,1.2,1.2,0,0,1,1.25,1.12,1.25,1.25,0,0,1-2.48,0Zm9.3-1.16v-1.44h-3.66v1.44Zm3.2,2.16a2.72,2.72,0,0,0,2.37,1.27,3.6,3.6,0,0,0,0-7.18,2.7,2.7,0,0,0-2.35,1.26v-3.89h-1.54v9.66h1.54v-1.12Zm0-2.33a2.05,2.05,0,1,1,2.06,2.09,2,2,0,0,1-2.06-2.09Zm8.58-3.44h-1.54v6.89h1.54v-6.89Zm-1.72-2.1a.94.94,0,0,0,.95,1,1,1,0,0,0,0-1.9.94.94,0,0,0-.95.95Zm7.21,2.24a5.08,5.08,0,0,0-1.6-.28c-1.56,0-2.43.83-2.43,2a1.88,1.88,0,0,0,1,1.71l1.18.7c.43.26.59.48.59.76s-.34.71-1,.71a2.89,2.89,0,0,1-1.7-.64v1.58a4.54,4.54,0,0,0,1.79.39c1.55,0,2.46-.84,2.46-2a2,2,0,0,0-1.15-1.82l-1.1-.65c-.34-.21-.52-.37-.52-.66s.31-.68.9-.68a3,3,0,0,1,1.55.49v-1.55Zm1.95,1.64a3.4,3.4,0,0,1,1.8-.55,1.31,1.31,0,0,1,1.45,1.38v.57a2.4,2.4,0,0,0-1.66-.66,2.24,2.24,0,0,0-2.36,2.26,2.19,2.19,0,0,0,2.33,2.26,2.1,2.1,0,0,0,1.69-.78v.63h1.53v-4.26a2.49,2.49,0,0,0-2.81-2.77,4.77,4.77,0,0,0-2,.44v1.48Zm.75,3a1.18,1.18,0,0,1,1.23-1.12,1.2,1.2,0,0,1,1.25,1.12,1.25,1.25,0,0,1-2.48,0Zm7.27,1a2.69,2.69,0,0,0,2.36,1.27,3.6,3.6,0,0,0,0-7.18,2.67,2.67,0,0,0-2.35,1.26v-3.89h-1.54v9.66h1.54v-1.12Zm0-2.33a2.05,2.05,0,1,1,2.06,2.09,2,2,0,0,1-2.06-2.09Zm6.62,0a3.59,3.59,0,1,0,3.58-3.59,3.53,3.53,0,0,0-3.58,3.59Zm1.55,0a2.05,2.05,0,0,1,2-2.09,2.09,2.09,0,0,1,0,4.17,2,2,0,0,1-2-2.08Zm8.5-6.22h-1.54v9.66h1.54v-9.66Zm1.35,6.22a3.58,3.58,0,1,0,3.58-3.59,3.53,3.53,0,0,0-3.58,3.59Zm1.55,0a2,2,0,1,1,2,2.08,2,2,0,0,1-2-2.08Zm8.5-6.22h-1.54v9.66h1.54v-9.66Z" transform="translate(-374 68)"/><path class="cls-4" d="M452.52,243.16v-5.57h1.25v-1.32h-1.25v-1.94l-1.45.33v1.61h-1.25v1.32H451v5.57Zm8.43-2.93a3,3,0,0,0,.1-.78,3.2,3.2,0,0,0-3.28-3.32,3.59,3.59,0,0,0,.09,7.18,5.18,5.18,0,0,0,2.52-.63v-1.52a4.39,4.39,0,0,1-2.41.75,2,2,0,0,1-2.1-1.68Zm-3.19-2.81a1.69,1.69,0,0,1,1.81,1.62h-3.71a1.85,1.85,0,0,1,1.9-1.62Zm6.09-1.15h-1.54v6.89h1.54V239.1c0-.88.5-1.47,1.34-1.47a2.41,2.41,0,0,1,.93.18v-1.64a5.46,5.46,0,0,0-.58,0,1.86,1.86,0,0,0-1.69,1v-.84Zm4.9,0h-1.54V246h1.54v-4a2.66,2.66,0,0,0,2.35,1.27,3.6,3.6,0,0,0,0-7.18,2.56,2.56,0,0,0-2.35,1.34v-1.2Zm0,3.45a2.05,2.05,0,1,1,2.06,2.08,2,2,0,0,1-2.06-2.08Zm8.58-3.45h-1.54v6.89h1.54v-6.89Zm-1.72-2.1a.95.95,0,1,0,.95-.95.93.93,0,0,0-.95.95Zm5,2.1H479.1v6.89h1.53V239.1a1.45,1.45,0,1,1,2.9.08v4h1.54v-4.37a2.46,2.46,0,0,0-2.5-2.66,2.1,2.1,0,0,0-1.94,1.12v-1Zm5.72,3.45a3.58,3.58,0,1,0,3.58-3.59,3.53,3.53,0,0,0-3.58,3.59Zm1.55,0a2,2,0,1,1,2,2.08,2,2,0,0,1-2-2.08Zm8.5-6.22h-1.54v9.66h1.54V233.5Zm8,6.73a3.44,3.44,0,0,0,.1-.78,3.2,3.2,0,0,0-3.28-3.32,3.59,3.59,0,0,0,.08,7.18,5.12,5.12,0,0,0,2.52-.63v-1.52a4.35,4.35,0,0,1-2.4.75,2,2,0,0,1-2.1-1.68Zm-3.19-2.81A1.69,1.69,0,0,1,503,239h-3.71a1.86,1.86,0,0,1,1.91-1.62Zm6.08-1.15h-1.53v6.89h1.53V239.1a1.45,1.45,0,1,1,2.9.08v4h1.54v-4.37a2.45,2.45,0,0,0-2.5-2.66,2.1,2.1,0,0,0-1.94,1.12v-1Zm12.35,4a3,3,0,0,0,.1-.78,3.2,3.2,0,0,0-3.27-3.32,3.59,3.59,0,0,0,.08,7.18,5.15,5.15,0,0,0,2.52-.63v-1.52a4.39,4.39,0,0,1-2.41.75,2,2,0,0,1-2.1-1.68Zm-3.19-2.81a1.69,1.69,0,0,1,1.81,1.62h-3.71a1.86,1.86,0,0,1,1.9-1.62Z" transform="translate(-374 68)"/><path class="cls-4" d="M476.23,208.92V210a2.78,2.78,0,0,0-2.4-1.26,3.49,3.49,0,0,0,0,7,2.79,2.79,0,0,0,2.38-1.23v.8a2,2,0,0,1-2.18,2.06,4.49,4.49,0,0,1-2.36-.73v1.61a5.16,5.16,0,0,0,2.36.56,3.38,3.38,0,0,0,3.71-3.68v-6.22Zm-.09,3.35a2,2,0,1,1-2-2,1.94,1.94,0,0,1,2,2Zm9.63.61a3,3,0,0,0,.1-.78,3.2,3.2,0,0,0-3.27-3.32,3.59,3.59,0,0,0,.08,7.18,5.15,5.15,0,0,0,2.52-.63v-1.52a4.39,4.39,0,0,1-2.41.75,2,2,0,0,1-2.1-1.68Zm-3.19-2.81a1.69,1.69,0,0,1,1.81,1.62h-3.71a1.86,1.86,0,0,1,1.9-1.62Zm6.09-1.15h-1.54v6.89h1.54v-4.06c0-.88.5-1.47,1.34-1.47a2.37,2.37,0,0,1,.93.18v-1.64a5.28,5.28,0,0,0-.58,0,1.86,1.86,0,0,0-1.69,1v-.84Zm3.46,1.78a3.4,3.4,0,0,1,1.8-.55,1.31,1.31,0,0,1,1.45,1.38v.57a2.4,2.4,0,0,0-1.66-.66,2.24,2.24,0,0,0-2.36,2.26A2.19,2.19,0,0,0,493.7,216a2.1,2.1,0,0,0,1.68-.78v.63h1.54v-4.26a2.5,2.5,0,0,0-2.82-2.77,4.77,4.77,0,0,0-2,.44v1.48Zm.75,3a1.25,1.25,0,1,1,1.24,1.11,1.19,1.19,0,0,1-1.24-1.11Zm7.27-4.77h-1.54v6.89h1.54v-4.06a1.39,1.39,0,0,1,1.44-1.47,1.41,1.41,0,0,1,1.46,1.55v4h1.54v-4.37a2.46,2.46,0,0,0-2.51-2.66,2.09,2.09,0,0,0-1.93,1.12v-1Zm7.67,0h-1.54v6.89h1.54v-6.89Zm-1.72-2.1a.94.94,0,0,0,.95,1,1,1,0,0,0,0-1.9.94.94,0,0,0-.95.95Zm3.07,5.55a3.58,3.58,0,1,0,3.58-3.59,3.53,3.53,0,0,0-3.58,3.59Zm1.55,0a2,2,0,1,1,2,2.08,2,2,0,0,1-2-2.08Zm8.5-6.22h-1.54v9.66h1.54v-9.66Z" transform="translate(-374 68)"/><path class="cls-4" d="M464.27,185.53a3.44,3.44,0,0,0,.1-.78,3.21,3.21,0,0,0-3.28-3.32,3.59,3.59,0,0,0,.09,7.18,5.11,5.11,0,0,0,2.51-.63v-1.52a4.35,4.35,0,0,1-2.4.75,2,2,0,0,1-2.1-1.68Zm-3.19-2.81a1.68,1.68,0,0,1,1.8,1.62h-3.71a1.86,1.86,0,0,1,1.91-1.62Zm8.94,5.74h1.53v-6.89H470v4.06a1.45,1.45,0,1,1-2.9-.1v-4h-1.54V186a2.46,2.46,0,0,0,2.5,2.66,2.09,2.09,0,0,0,1.94-1.12v1Zm8.18-1.89a2.69,2.69,0,0,1-1.65.53,2.09,2.09,0,0,1,0-4.17,2.8,2.8,0,0,1,1.65.53v-1.65a3.71,3.71,0,0,0-1.65-.38,3.59,3.59,0,1,0,0,7.18,3.59,3.59,0,0,0,1.65-.4v-1.64Zm1.69-3.22a3.43,3.43,0,0,1,1.81-.55,1.3,1.3,0,0,1,1.44,1.38v.57a2.4,2.4,0,0,0-1.65-.66,2.25,2.25,0,0,0-2.37,2.26,2.2,2.2,0,0,0,2.34,2.26,2.08,2.08,0,0,0,1.68-.78v.63h1.54V184.2a2.5,2.5,0,0,0-2.81-2.77,4.82,4.82,0,0,0-2,.44v1.48Zm.76,3a1.18,1.18,0,0,1,1.23-1.12,1.2,1.2,0,0,1,1.25,1.12,1.25,1.25,0,0,1-2.48,0Zm7.28-7.54h-1.54v9.66h1.54V178.8Zm2,12.53h1.78l4.16-9.76h-1.74L492.38,186l-1.71-4.43H489l2.59,6.36-1.57,3.4Zm8.4-9.76h-1.54v9.76h1.54v-4a2.69,2.69,0,0,0,2.35,1.27,3.6,3.6,0,0,0,0-7.18,2.58,2.58,0,0,0-2.35,1.34v-1.2Zm0,3.45a2.05,2.05,0,1,1,2.06,2.08,2,2,0,0,1-2.06-2.08Zm9,3.44v-5.57h1.25v-1.32h-1.25v-1.94l-1.45.33v1.61h-1.25v1.32h1.16v5.57Zm1.8-3.44a3.58,3.58,0,1,0,3.58-3.59,3.53,3.53,0,0,0-3.58,3.59Zm1.55,0a2,2,0,1,1,2,2.08,2,2,0,0,1-2-2.08Zm8.5-6.22h-1.54v9.66h1.54V178.8Z" transform="translate(-374 68)"/><path class="cls-4" d="M462,158.84a3.58,3.58,0,0,1-2.33.83,3.32,3.32,0,0,1,0-6.63,3.57,3.57,0,0,1,2.33.84V152a4.9,4.9,0,1,0-2.33,9.22,4.93,4.93,0,0,0,2.33-.58v-1.84Zm1.78-2.84a3.4,3.4,0,0,1,1.8-.55,1.31,1.31,0,0,1,1.45,1.38v.57a2.42,2.42,0,0,0-1.66-.66A2.24,2.24,0,0,0,463,159a2.19,2.19,0,0,0,2.33,2.26,2.1,2.1,0,0,0,1.69-.78v.63h1.53v-4.26a2.49,2.49,0,0,0-2.81-2.77,4.77,4.77,0,0,0-2,.44V156Zm.75,3a1.18,1.18,0,0,1,1.23-1.12A1.2,1.2,0,0,1,467,159a1.25,1.25,0,0,1-2.48,0Zm7.27-4.77h-1.54v6.89h1.54V157a1.29,1.29,0,0,1,1.36-1.37,1.31,1.31,0,0,1,1.33,1.47v4.06H476v-4.06a1.33,1.33,0,0,1,1.37-1.47,1.31,1.31,0,0,1,1.33,1.47v4.06h1.54v-4.48a2.39,2.39,0,0,0-2.41-2.55,2.12,2.12,0,0,0-2.07,1.33,2.23,2.23,0,0,0-2.17-1.33,2,2,0,0,0-1.82,1v-.88Zm11.69,0h-1.54V164h1.54v-4a2.66,2.66,0,0,0,2.35,1.27,3.6,3.6,0,0,0,0-7.18,2.56,2.56,0,0,0-2.35,1.34v-1.2Zm0,3.45a2.05,2.05,0,1,1,2.06,2.08,2,2,0,0,1-2.06-2.08Zm8.58-6.22h-1.54v9.66H492v-4.06a1.45,1.45,0,1,1,2.9.08v4h1.54v-4.37a2.46,2.46,0,0,0-2.51-2.66A2.11,2.11,0,0,0,492,155.2v-3.75Zm12.35,6.73a3.44,3.44,0,0,0,.1-.78,3.2,3.2,0,0,0-3.28-3.32,3.59,3.59,0,0,0,.08,7.18,5.12,5.12,0,0,0,2.52-.63v-1.52a4.35,4.35,0,0,1-2.4.75,2,2,0,0,1-2.1-1.68Zm-3.19-2.81A1.69,1.69,0,0,1,503,157h-3.71a1.86,1.86,0,0,1,1.91-1.62Zm6.08-1.15h-1.53v6.89h1.53v-4.06a1.45,1.45,0,1,1,2.9.08v4h1.54v-4.37a2.45,2.45,0,0,0-2.5-2.66,2.1,2.1,0,0,0-1.94,1.12v-1Zm12.35,4a3,3,0,0,0,.1-.78,3.2,3.2,0,0,0-3.27-3.32,3.59,3.59,0,0,0,.08,7.18,5.15,5.15,0,0,0,2.52-.63v-1.52a4.39,4.39,0,0,1-2.41.75,2,2,0,0,1-2.1-1.68Zm-3.19-2.81a1.69,1.69,0,0,1,1.81,1.62h-3.71a1.86,1.86,0,0,1,1.9-1.62Z" transform="translate(-374 68)"/><path class="cls-4" d="M460.73,126.87h-1.54v9.76h1.54v-4a2.66,2.66,0,0,0,2.35,1.27,3.6,3.6,0,0,0,0-7.18,2.56,2.56,0,0,0-2.35,1.34v-1.2Zm0,3.45a2.05,2.05,0,1,1,2,2.08,2,2,0,0,1-2-2.08Zm10.61.16V129h-3.66v1.44Zm6.52,1.39a2.69,2.69,0,0,1-1.65.53,2.09,2.09,0,0,1,0-4.17,2.77,2.77,0,0,1,1.65.53v-1.65a3.68,3.68,0,0,0-1.65-.38,3.59,3.59,0,1,0,0,7.18,3.56,3.56,0,0,0,1.65-.4v-1.64Zm1.75,4.76h1.78l4.16-9.76h-1.74L482,131.3l-1.71-4.43h-1.72l2.59,6.36-1.57,3.4Zm8.4-9.76h-1.54v6.89H488V129.6a1.35,1.35,0,1,1,2.69.1v4.06h1.54V129.7a1.33,1.33,0,0,1,1.37-1.47,1.3,1.3,0,0,1,1.33,1.47v4.06h1.54v-4.48a2.39,2.39,0,0,0-2.41-2.55,2.13,2.13,0,0,0-2.07,1.33,2.23,2.23,0,0,0-2.17-1.33,2,2,0,0,0-1.82,1v-.88Zm16.37,4a3.44,3.44,0,0,0,.1-.78,3.2,3.2,0,0,0-3.28-3.32,3.59,3.59,0,0,0,.08,7.18,5.12,5.12,0,0,0,2.52-.63v-1.52a4.35,4.35,0,0,1-2.4.75,2,2,0,0,1-2.1-1.68ZM501.19,128a1.69,1.69,0,0,1,1.8,1.62h-3.71a1.86,1.86,0,0,1,1.91-1.62Zm6.08-1.15h-1.53v6.89h1.53V129.7a1.45,1.45,0,1,1,2.9.08v4h1.54v-4.37a2.45,2.45,0,0,0-2.5-2.66,2.1,2.1,0,0,0-1.94,1.12v-1Zm12.35,4a3,3,0,0,0,.1-.78,3.2,3.2,0,0,0-3.27-3.32,3.59,3.59,0,0,0,.08,7.18,5.15,5.15,0,0,0,2.52-.63v-1.52a4.39,4.39,0,0,1-2.41.75,2,2,0,0,1-2.1-1.68ZM516.43,128a1.69,1.69,0,0,1,1.81,1.62h-3.71a1.86,1.86,0,0,1,1.9-1.62Z" transform="translate(-374 68)"/><path class="cls-4" d="M472.86,97.24a4.62,4.62,0,0,0-2-.49c-2.31,0-3.15,1.37-3.15,2.64a2.61,2.61,0,0,0,1.56,2.46l1.48.91c.62.38.88.74.88,1.16,0,.63-.5,1.13-1.47,1.13a3.94,3.94,0,0,1-2.31-.82V106a5.54,5.54,0,0,0,2.38.54c2.1,0,3.11-1.3,3.11-2.72a2.78,2.78,0,0,0-1.68-2.53l-1.46-.91c-.51-.32-.78-.66-.78-1.06,0-.63.5-1.08,1.41-1.08a3.58,3.58,0,0,1,2.07.71V97.24Zm2.1,4.06a3.46,3.46,0,0,1,1.81-.55,1.3,1.3,0,0,1,1.44,1.38v.57a2.4,2.4,0,0,0-1.65-.66,2.24,2.24,0,0,0-2.36,2.26,2.19,2.19,0,0,0,2.33,2.26,2.08,2.08,0,0,0,1.68-.78v.63h1.54v-4.26a2.49,2.49,0,0,0-2.81-2.77,4.86,4.86,0,0,0-2,.44v1.48Zm.76,3a1.18,1.18,0,0,1,1.23-1.12,1.2,1.2,0,0,1,1.25,1.12,1.25,1.25,0,0,1-2.48,0Zm7.27,1a2.69,2.69,0,0,0,2.36,1.27,3.6,3.6,0,0,0,0-7.18,2.67,2.67,0,0,0-2.35,1.26V96.75h-1.54v9.66H483v-1.12Zm0-2.33a2.05,2.05,0,1,1,4.1,0,2.05,2.05,0,1,1-4.1,0Zm8.58-3.44H490v6.89h1.54V99.52Zm-1.72-2.1a.95.95,0,1,0,.95-1,.93.93,0,0,0-.95,1Zm9.7,6.06a3.44,3.44,0,0,0,.1-.78,3.2,3.2,0,0,0-3.28-3.32,3.59,3.59,0,0,0,.09,7.18,5.11,5.11,0,0,0,2.51-.63v-1.52a4.35,4.35,0,0,1-2.4.75,2,2,0,0,1-2.1-1.68Zm-3.19-2.81a1.68,1.68,0,0,1,1.8,1.62h-3.71a1.86,1.86,0,0,1,1.91-1.62Zm6.09-1.15h-1.54v6.89h1.54v-4.06a1.38,1.38,0,0,1,1.44-1.47,1.41,1.41,0,0,1,1.46,1.55v4h1.53V102a2.46,2.46,0,0,0-2.5-2.66,2.08,2.08,0,0,0-1.93,1.12v-1Zm12.34,4a3,3,0,0,0,.1-.78,3.2,3.2,0,0,0-3.27-3.32,3.59,3.59,0,0,0,.08,7.18,5.15,5.15,0,0,0,2.52-.63v-1.52a4.39,4.39,0,0,1-2.41.75,2,2,0,0,1-2.1-1.68Zm-3.19-2.81a1.69,1.69,0,0,1,1.81,1.62H509.7a1.86,1.86,0,0,1,1.9-1.62ZM516,97.52l-.27.48,1.3.77-1.3.75.27.48,1.31-.76v1.5h.55v-1.5l1.31.76.28-.49-1.32-.74,1.32-.77-.28-.48-1.31.77V96.75h-.55v1.54L516,97.52Z" transform="translate(-374 68)"/><path class="cls-4" d="M488.5,72.17v1.12A2.76,2.76,0,0,0,486.11,72a3.49,3.49,0,0,0,0,7,2.78,2.78,0,0,0,2.38-1.23v.8a2,2,0,0,1-2.17,2.06A4.46,4.46,0,0,1,484,79.9v1.61a5.12,5.12,0,0,0,2.36.56A3.38,3.38,0,0,0,490,78.39V72.17Zm-.08,3.35a2,2,0,1,1-2-2,1.94,1.94,0,0,1,2,2Zm7.81,3.54h1.53V72.17h-1.53v4.06a1.45,1.45,0,1,1-2.9-.1v-4h-1.54v4.38a2.46,2.46,0,0,0,2.49,2.66,2.09,2.09,0,0,0,2-1.12v1ZM499.8,74a3.43,3.43,0,0,1,1.81-.55,1.3,1.3,0,0,1,1.44,1.38v.57a2.4,2.4,0,0,0-1.65-.66A2.25,2.25,0,0,0,499,77a2.2,2.2,0,0,0,2.34,2.26,2.08,2.08,0,0,0,1.68-.78v.63h1.54V74.8A2.5,2.5,0,0,0,501.77,72a4.77,4.77,0,0,0-2,.44V74Zm.75,3a1.25,1.25,0,1,1,1.24,1.11,1.19,1.19,0,0,1-1.24-1.11Zm7.27-4.77h-1.54v6.89h1.54V72.17Zm-1.72-2.1a.94.94,0,0,0,.95,1,1,1,0,0,0,0-1.9.94.94,0,0,0-.95.95Zm3.07,5.55A3.58,3.58,0,1,0,512.75,72a3.53,3.53,0,0,0-3.58,3.59Zm1.55,0a2,2,0,1,1,2,2.08,2,2,0,0,1-2-2.08Zm8.5-6.22h-1.54v9.66h1.54V69.4Z" transform="translate(-374 68)"/><path class="cls-4" d="M403.13,49.82a2.69,2.69,0,0,1-1.65.53,2.09,2.09,0,0,1,0-4.17,2.8,2.8,0,0,1,1.65.53V45.06a3.71,3.71,0,0,0-1.65-.38,3.59,3.59,0,1,0,0,7.18,3.59,3.59,0,0,0,1.65-.4V49.82Zm1.7-3.22a3.4,3.4,0,0,1,1.8-.55,1.3,1.3,0,0,1,1.44,1.38V48a2.4,2.4,0,0,0-1.65-.66,2.24,2.24,0,0,0-2.36,2.26,2.19,2.19,0,0,0,2.33,2.26,2.08,2.08,0,0,0,1.68-.78v.63h1.54V47.45a2.49,2.49,0,0,0-2.81-2.77,4.77,4.77,0,0,0-2,.44V46.6Zm.75,3a1.18,1.18,0,0,1,1.23-1.12,1.2,1.2,0,0,1,1.25,1.12,1.25,1.25,0,0,1-2.48,0Zm7.27-4.77h-1.54v6.89h1.54V47.65a1.32,1.32,0,0,1,1.34-1.47,2.41,2.41,0,0,1,.93.18V44.72a5.46,5.46,0,0,0-.58,0,1.86,1.86,0,0,0-1.69,1v-.84Zm3.64,9.76h1.77l4.16-9.76h-1.73l-1.79,4.43-1.71-4.43h-1.73l2.6,6.36-1.57,3.4Zm6.21-6.31a3.59,3.59,0,1,0,3.59-3.59,3.54,3.54,0,0,0-3.59,3.59Zm1.56,0a2,2,0,0,1,2-2.09,2.09,2.09,0,1,1-2,2.09Zm8.48-3.45H431.2v9.76h1.54v-4a2.69,2.69,0,0,0,2.35,1.27,3.6,3.6,0,0,0,0-7.18A2.58,2.58,0,0,0,432.74,46v-1.2Zm0,3.45a2.05,2.05,0,1,1,2.06,2.08,2,2,0,0,1-2.06-2.08Zm8.58-6.22h-1.54v9.66h1.54V47.65a1.45,1.45,0,1,1,2.9.08v4h1.54V47.34a2.46,2.46,0,0,0-2.5-2.66,2.11,2.11,0,0,0-1.94,1.12V42.05Zm6.22,12.53h1.78l4.15-9.76h-1.73L450,49.25l-1.71-4.43h-1.72l2.59,6.36-1.57,3.4ZM456,42.05h-1.54v9.66H456V42.05Zm3.32,0h-1.54v9.66h1.54V42.05Zm8,6.73a3,3,0,0,0,.1-.78,3.2,3.2,0,0,0-3.28-3.32,3.59,3.59,0,0,0,.09,7.18,5.18,5.18,0,0,0,2.52-.63V49.71a4.39,4.39,0,0,1-2.41.75,2,2,0,0,1-2.1-1.68ZM464.06,46a1.69,1.69,0,0,1,1.81,1.62h-3.71a1.85,1.85,0,0,1,1.9-1.62Zm6.09-1.15h-1.54v6.89h1.54V47.65a1.39,1.39,0,0,1,1.44-1.47,1.41,1.41,0,0,1,1.46,1.55v4h1.54V47.34a2.46,2.46,0,0,0-2.51-2.66,2.09,2.09,0,0,0-1.93,1.12v-1Zm12.35,4a3.49,3.49,0,0,0,.09-.78,3.2,3.2,0,0,0-3.27-3.32,3.59,3.59,0,0,0,.08,7.18,5.15,5.15,0,0,0,2.52-.63V49.71a4.35,4.35,0,0,1-2.4.75,2,2,0,0,1-2.1-1.68ZM479.31,46a1.69,1.69,0,0,1,1.8,1.62H477.4A1.86,1.86,0,0,1,479.31,46Zm7.26,2.3a3.59,3.59,0,1,0,3.59-3.59,3.54,3.54,0,0,0-3.59,3.59Zm1.55,0a2.05,2.05,0,0,1,2-2.09,2.09,2.09,0,0,1,0,4.17,2.05,2.05,0,0,1-2-2.08Zm9.16,1.14,1.46,2.3h1.8l-2.31-3.44,2.31-3.45h-1.8l-1.46,2.28-1.44-2.28H494l2.33,3.45L494,51.71h1.81l1.44-2.3Zm5.78-4.59h-1.54v6.89h1.54V44.82Zm-1.72-2.1a.94.94,0,0,0,1,1,1,1,0,0,0,0-1.9.94.94,0,0,0-1,.95Zm8.78,9h1.52V42.05h-1.52v3.89a2.73,2.73,0,0,0-2.35-1.26,3.6,3.6,0,0,0,0,7.18,2.77,2.77,0,0,0,2.37-1.27v1.12Zm0-3.45a2.06,2.06,0,1,1-2.06-2.07,2.06,2.06,0,0,1,2.06,2.07Zm9.5.52a3,3,0,0,0,.1-.78,3.2,3.2,0,0,0-3.27-3.32,3.59,3.59,0,0,0,.08,7.18,5.15,5.15,0,0,0,2.52-.63V49.71a4.39,4.39,0,0,1-2.41.75,2,2,0,0,1-2.1-1.68ZM516.43,46a1.69,1.69,0,0,1,1.81,1.62h-3.71a1.86,1.86,0,0,1,1.9-1.62Z" transform="translate(-374 68)"/><path class="cls-4" d="M478.72,14.7h-1.54v9.66h1.54V14.7Zm3.3,2.77h-1.54v6.89H482V17.47Zm-1.72-2.1a.94.94,0,0,0,.95,1,1,1,0,0,0,0-1.9.94.94,0,0,0-.95.95Zm5,2.1h-1.54v6.89h1.54V20.3a1.45,1.45,0,1,1,2.9.08v4h1.54V20a2.46,2.46,0,0,0-2.5-2.66,2.1,2.1,0,0,0-1.94,1.12v-1Zm6.39,1.78a3.4,3.4,0,0,1,1.8-.55A1.31,1.31,0,0,1,495,20.08v.57A2.4,2.4,0,0,0,493.3,20a2.24,2.24,0,0,0-2.36,2.26,2.19,2.19,0,0,0,2.34,2.26,2.1,2.1,0,0,0,1.68-.78v.63h1.54V20.1a2.5,2.5,0,0,0-2.82-2.77,4.77,4.77,0,0,0-2,.44v1.48Zm.75,3a1.25,1.25,0,1,1,1.24,1.11,1.19,1.19,0,0,1-1.24-1.11Zm7.28-7.54H498.2v9.66h1.54V14.7Zm1.35,6.22a3.58,3.58,0,1,0,3.58-3.59,3.53,3.53,0,0,0-3.58,3.59Zm1.55,0a2,2,0,1,1,2,2.08,2,2,0,0,1-2-2.08Zm6.53,0a3.58,3.58,0,1,0,3.58-3.59,3.53,3.53,0,0,0-3.58,3.59Zm1.55,0a2,2,0,1,1,2,2.08,2,2,0,0,1-2-2.08Zm8.5-6.22h-1.54v9.66h1.54V14.7Z" transform="translate(-374 68)"/><path class="cls-4" d="M472.19-9.88h-1.54V-3h1.54V-7.15a1.29,1.29,0,0,1,1.36-1.37A1.31,1.31,0,0,1,474.88-7V-3h1.54V-7a1.33,1.33,0,0,1,1.37-1.47A1.3,1.3,0,0,1,479.12-7V-3h1.54V-7.47a2.39,2.39,0,0,0-2.4-2.55,2.14,2.14,0,0,0-2.08,1.33A2.23,2.23,0,0,0,474-10a2,2,0,0,0-1.82,1v-.88Zm16.37,4a3.44,3.44,0,0,0,.1-.78A3.21,3.21,0,0,0,485.38-10a3.44,3.44,0,0,0-3.46,3.59,3.45,3.45,0,0,0,3.55,3.59A5.18,5.18,0,0,0,488-3.47V-5a4.41,4.41,0,0,1-2.41.75,2,2,0,0,1-2.1-1.68Zm-3.19-2.81a1.68,1.68,0,0,1,1.8,1.62h-3.71a1.86,1.86,0,0,1,1.91-1.62Zm6.09-1.15h-1.54V-3h1.54V-7a1.38,1.38,0,0,1,1.44-1.47A1.4,1.4,0,0,1,494.35-7v4h1.54V-7.36a2.46,2.46,0,0,0-2.5-2.66,2.08,2.08,0,0,0-1.93,1.12v-1ZM499.59-3V-8.56h1.25V-9.88h-1.25v-1.94l-1.46.33v1.61h-1.24v1.32h1.16V-3Zm3.86-9.66h-1.54V-3h1.54V-7a1.4,1.4,0,0,1,1.46-1.47A1.4,1.4,0,0,1,506.35-7v4h1.54V-7.36a2.46,2.46,0,0,0-2.5-2.66,2.11,2.11,0,0,0-1.94,1.12v-3.75Zm5.72,6.22a3.53,3.53,0,0,0,3.58,3.59,3.54,3.54,0,0,0,3.58-3.59A3.52,3.52,0,0,0,512.75-10a3.52,3.52,0,0,0-3.58,3.59Zm1.55,0a2,2,0,0,1,2-2.09,2,2,0,0,1,2,2.09,2,2,0,0,1-2,2.08,2,2,0,0,1-2-2.08Zm8.5-6.22h-1.54V-3h1.54v-9.66Z" transform="translate(-374 68)"/><path class="cls-4" d="M458.54-37.23H457v6.89h1.54v-6.89Zm-1.72-2.1a.94.94,0,0,0,.95.95.92.92,0,0,0,.94-.95.93.93,0,0,0-.94-1,.94.94,0,0,0-.95,1ZM464-37.09a5.07,5.07,0,0,0-1.59-.28c-1.57,0-2.44.83-2.44,2a1.88,1.88,0,0,0,1,1.71l1.18.7c.43.26.59.48.59.76s-.34.71-1,.71a2.89,2.89,0,0,1-1.7-.64v1.58a4.54,4.54,0,0,0,1.79.39c1.55,0,2.46-.84,2.46-2A2,2,0,0,0,463.2-34l-1.1-.65c-.34-.21-.52-.37-.52-.66s.31-.68.9-.68a3,3,0,0,1,1.55.49v-1.55Zm1.27,3.31a3.54,3.54,0,0,0,3.59,3.59,3.55,3.55,0,0,0,3.58-3.59,3.53,3.53,0,0,0-3.58-3.59,3.53,3.53,0,0,0-3.59,3.59Zm1.56,0a2,2,0,0,1,2-2.09,2,2,0,0,1,2,2.09,2,2,0,0,1-2,2.08,2,2,0,0,1-2-2.08Zm8.48-3.45H473.8v9.76h1.54v-4a2.69,2.69,0,0,0,2.35,1.27A3.4,3.4,0,0,0,481-33.78a3.38,3.38,0,0,0-3.35-3.59A2.58,2.58,0,0,0,475.34-36v-1.2Zm0,3.45a2,2,0,0,1,2.06-2.08,2,2,0,0,1,2,2.08,2,2,0,0,1-2,2.08,2,2,0,0,1-2.06-2.08Zm11.44,3.44h1.53v-6.89h-1.53v4.06a1.41,1.41,0,0,1-1.46,1.47,1.41,1.41,0,0,1-1.44-1.57v-4h-1.54v4.38a2.46,2.46,0,0,0,2.49,2.66,2.09,2.09,0,0,0,1.95-1.12v1ZM491.65-40h-1.54v9.66h1.54V-40Zm8,6.73a3,3,0,0,0,.1-.78,3.2,3.2,0,0,0-3.27-3.32A3.44,3.44,0,0,0,493-33.78a3.44,3.44,0,0,0,3.54,3.59,5.18,5.18,0,0,0,2.52-.63v-1.52a4.39,4.39,0,0,1-2.41.75,2,2,0,0,1-2.1-1.68Zm-3.19-2.81a1.69,1.69,0,0,1,1.81,1.62h-3.71a1.85,1.85,0,0,1,1.9-1.62Zm9.81-1.15v1.12a2.76,2.76,0,0,0-2.39-1.26,3.32,3.32,0,0,0-3.28,3.5,3.29,3.29,0,0,0,3.29,3.47,2.78,2.78,0,0,0,2.38-1.23v.8a2,2,0,0,1-2.17,2.06,4.49,4.49,0,0,1-2.36-.73v1.61a5.16,5.16,0,0,0,2.36.56A3.38,3.38,0,0,0,507.79-31v-6.22Zm-.08,3.35a1.94,1.94,0,0,1-2,2,1.94,1.94,0,0,1-2-2,1.94,1.94,0,0,1,2-2,1.94,1.94,0,0,1,2,2Zm3,.1a3.53,3.53,0,0,0,3.58,3.59,3.54,3.54,0,0,0,3.58-3.59,3.52,3.52,0,0,0-3.58-3.59,3.52,3.52,0,0,0-3.58,3.59Zm1.55,0a2,2,0,0,1,2-2.09,2,2,0,0,1,2,2.09,2,2,0,0,1-2,2.08,2,2,0,0,1-2-2.08Zm8.5-6.22h-1.54v9.66h1.54V-40Z" transform="translate(-374 68)"/><path class="cls-4" d="M555.66,297.86h5.23v-1.53H557.7l2.13-2.69a4.19,4.19,0,0,0,1.09-2.76A2.63,2.63,0,0,0,558,288.2a3.8,3.8,0,0,0-2.17.71v1.81a2.88,2.88,0,0,1,2.06-.93,1.29,1.29,0,0,1,1.38,1.37,3.06,3.06,0,0,1-.85,1.82l-2.77,3.51v1.37Zm6.51,0h5.23v-1.53h-3.19l2.13-2.69a4.19,4.19,0,0,0,1.09-2.76,2.63,2.63,0,0,0-2.91-2.68,3.8,3.8,0,0,0-2.17.71v1.81a2.88,2.88,0,0,1,2.06-.93,1.29,1.29,0,0,1,1.38,1.37,3.06,3.06,0,0,1-.85,1.82l-2.77,3.51v1.37Z" transform="translate(-374 68)"/><path class="cls-4" d="M563,266.34h1.36a1.37,1.37,0,0,1,1.5,1.34,1.45,1.45,0,0,1-1.59,1.39,3.06,3.06,0,0,1-2-.69v1.82a5.25,5.25,0,0,0,2.08.46,2.88,2.88,0,0,0,3.14-2.75,2.43,2.43,0,0,0-1.49-2.34,2.25,2.25,0,0,0,1.22-2.14,2.66,2.66,0,0,0-2.94-2.58,4.47,4.47,0,0,0-1.9.43V263a3.07,3.07,0,0,1,1.85-.58,1.2,1.2,0,0,1,1.34,1.19,1.16,1.16,0,0,1-1.23,1.17H563v1.54Z" transform="translate(-374 68)"/><path class="cls-4" d="M555.53,215.81h5.82v-1.53h-1.94v-8h-3.57v1.52h2v6.47h-2.28v1.53Zm6.64,0h5.23v-1.53h-3.19l2.13-2.69a4.19,4.19,0,0,0,1.09-2.76,2.63,2.63,0,0,0-2.91-2.68,3.8,3.8,0,0,0-2.17.71v1.81a2.88,2.88,0,0,1,2.06-.93,1.29,1.29,0,0,1,1.38,1.37,3.06,3.06,0,0,1-.85,1.82l-2.77,3.51v1.37Z" transform="translate(-374 68)"/><path class="cls-4" d="M555.28,188.46h5.23v-1.53h-3.19l2.13-2.69a4.19,4.19,0,0,0,1.09-2.76,2.63,2.63,0,0,0-2.91-2.68,3.8,3.8,0,0,0-2.17.71v1.81a2.9,2.9,0,0,1,2.06-.93,1.29,1.29,0,0,1,1.38,1.37,3.06,3.06,0,0,1-.85,1.82l-2.77,3.51v1.37Zm12.05-8v-1.52h-4.45l-.48,4.93h1.28c1.16,0,2.14.39,2.14,1.52a1.63,1.63,0,0,1-1.74,1.63,3.2,3.2,0,0,1-2.25-1v2a4.76,4.76,0,0,0,2.34.64,3.05,3.05,0,0,0,3.3-3.22c0-1.86-1.32-3-3.33-3h-.09l.26-1.94Z" transform="translate(-374 68)"/><path class="cls-4" d="M562.17,161.11h5.23v-1.53h-3.19l2.13-2.69a4.19,4.19,0,0,0,1.09-2.76,2.63,2.63,0,0,0-2.91-2.68,3.8,3.8,0,0,0-2.17.71V154a2.88,2.88,0,0,1,2.06-.93,1.29,1.29,0,0,1,1.38,1.37,3.06,3.06,0,0,1-.85,1.82l-2.77,3.51v1.37Z" transform="translate(-374 68)"/><path class="cls-4" d="M563,129.59h1.36a1.37,1.37,0,0,1,1.5,1.34,1.45,1.45,0,0,1-1.59,1.39,3.06,3.06,0,0,1-2-.69v1.82a5.25,5.25,0,0,0,2.08.46,2.88,2.88,0,0,0,3.14-2.75,2.43,2.43,0,0,0-1.49-2.34,2.25,2.25,0,0,0,1.22-2.14,2.66,2.66,0,0,0-2.94-2.58,4.47,4.47,0,0,0-1.9.43v1.74a3.07,3.07,0,0,1,1.85-.58,1.2,1.2,0,0,1,1.34,1.19,1.16,1.16,0,0,1-1.23,1.17H563v1.54Z" transform="translate(-374 68)"/><path class="cls-4" d="M566.17,42.19h-1.91l-2.73,4.25a3.89,3.89,0,0,0-.61,2.05,3.37,3.37,0,1,0,6.73,0,3.24,3.24,0,0,0-3.36-3.28h-.12l2-3Zm-.14,6.3a1.75,1.75,0,1,1-1.74-1.77A1.75,1.75,0,0,1,566,48.49Z" transform="translate(-374 68)"/><path class="cls-4" d="M547.84,24.36h5.82V22.83h-1.94v-8h-3.57v1.52h2v6.47h-2.28v1.53Zm13.29-1.95V20.89h-1.22V14.84h-1.59l-4.2,6.2v1.37h4.2v1.95h1.59V22.41Zm-5.32-1.52,2.51-3.77v3.77Zm6.36,3.47h5.23V22.83h-3.19l2.13-2.69a4.19,4.19,0,0,0,1.09-2.76,2.63,2.63,0,0,0-2.91-2.68,3.8,3.8,0,0,0-2.17.71v1.81a2.88,2.88,0,0,1,2.06-.93,1.29,1.29,0,0,1,1.38,1.37,3.06,3.06,0,0,1-.85,1.82L562.17,23v1.37Z" transform="translate(-374 68)"/><path class="cls-1" d="M449.81-60.94a3.35,3.35,0,0,1-2.17.77,2.85,2.85,0,0,1-2.86-2.92A2.87,2.87,0,0,1,447.64-66a3.31,3.31,0,0,1,2.17.78v-2.28a5,5,0,0,0-2.17-.49,4.81,4.81,0,0,0-4.9,4.91,4.8,4.8,0,0,0,4.9,4.9,5,5,0,0,0,2.17-.49v-2.26Zm.93-2.15a4.8,4.8,0,0,0,4.89,4.9,4.8,4.8,0,0,0,4.9-4.9,4.81,4.81,0,0,0-4.9-4.91,4.81,4.81,0,0,0-4.89,4.91Zm2,0A2.86,2.86,0,0,1,455.63-66a2.86,2.86,0,0,1,2.85,2.92,2.85,2.85,0,0,1-2.85,2.92,2.85,2.85,0,0,1-2.85-2.92ZM468-58.34l2.22-5.94v5.94h2v-9.52h-2.42l-2.63,7-2.65-7h-2.43v9.52h2v-5.94l2.22,5.94Zm6.3,0h2v-3.49h1.26a2.88,2.88,0,0,0,3.14-3,2.88,2.88,0,0,0-3.14-3h-3.25v9.52Zm4.34-6.5a1,1,0,0,1-1.12,1.1h-1.23v-2.2h1.23a1,1,0,0,1,1.12,1.1Zm2.9,1.75a4.8,4.8,0,0,0,4.9,4.9,4.8,4.8,0,0,0,4.9-4.9,4.81,4.81,0,0,0-4.9-4.91,4.81,4.81,0,0,0-4.9,4.91Zm2,0A2.87,2.87,0,0,1,486.42-66a2.86,2.86,0,0,1,2.84,2.92,2.85,2.85,0,0,1-2.84,2.92,2.86,2.86,0,0,1-2.86-2.92ZM498-67.86v6.1a1.55,1.55,0,0,1-1.65,1.64,1.54,1.54,0,0,1-1.64-1.64v-6.1h-2v5.94a3.4,3.4,0,0,0,3.62,3.73A3.41,3.41,0,0,0,500-61.92v-5.94Zm9.9,9.52h2v-9.52h-2v6.06l-4.17-6.06h-2.35v.14l.66,1v8.33h2v-5.5l3.88,5.5Zm4.09,0h3.53a4.47,4.47,0,0,0,4.7-4.76,4.47,4.47,0,0,0-4.7-4.76H512v9.52Zm3.51-7.6a2.58,2.58,0,0,1,2.66,2.84,2.57,2.57,0,0,1-2.66,2.84H514v-5.68Z" transform="translate(-374 68)"/><path class="cls-1" d="M545.59-65.31h-1.91v9.84h1.91v-3.77a2.54,2.54,0,0,0,2.13,1.05,3.4,3.4,0,0,0,3.33-3.64,3.38,3.38,0,0,0-3.32-3.62,2.39,2.39,0,0,0-2.14,1.14v-1Zm0,3.48a1.73,1.73,0,0,1,1.75-1.75,1.72,1.72,0,0,1,1.72,1.75,1.73,1.73,0,0,1-1.72,1.77,1.74,1.74,0,0,1-1.75-1.77Zm8.55-3.48h-1.9v9.84h1.9v-3.77a2.55,2.55,0,0,0,2.13,1.05,3.4,3.4,0,0,0,3.33-3.64,3.38,3.38,0,0,0-3.32-3.62,2.4,2.4,0,0,0-2.14,1.14v-1Zm0,3.48a1.73,1.73,0,0,1,1.75-1.75,1.71,1.71,0,0,1,1.72,1.75,1.72,1.72,0,0,1-1.72,1.77,1.74,1.74,0,0,1-1.75-1.77Zm8.55-3.48h-1.9v7h1.9v-4.1a1.11,1.11,0,0,1,1.17-1.15A1.1,1.1,0,0,1,565-62.35v4h1.9v-4A1.13,1.13,0,0,1,568-63.59a1.1,1.1,0,0,1,1.12,1.24v4h1.91v-4.55a2.42,2.42,0,0,0-2.4-2.56,2.15,2.15,0,0,0-2.06,1.26,2.25,2.25,0,0,0-2.14-1.26,2.06,2.06,0,0,0-1.78,1v-.82Z" transform="translate(-374 68)"/><path class="cls-1" d="M647.7-63.09a4.8,4.8,0,0,0,4.9,4.9,4.83,4.83,0,0,0,2.59-.73l1,1,1.36-1.36-.92-.9a4.89,4.89,0,0,0,.91-2.88A4.82,4.82,0,0,0,652.6-68a4.81,4.81,0,0,0-4.9,4.91Zm2,0A2.86,2.86,0,0,1,652.6-66a2.86,2.86,0,0,1,2.84,2.92,2.5,2.5,0,0,1-.36,1.35l-1.42-1.42-1.36,1.37,1.35,1.35a2.16,2.16,0,0,1-1,.27,2.85,2.85,0,0,1-2.86-2.92Zm14.58-4.77v6.1a1.55,1.55,0,0,1-1.66,1.64A1.54,1.54,0,0,1,661-61.76v-6.1h-2v5.94a3.4,3.4,0,0,0,3.62,3.73,3.41,3.41,0,0,0,3.64-3.73v-5.94Zm9.73,9.52h2.22l-3.53-9.52h-2.22L667-58.34h2.23l.71-2h3.4l.72,2Zm-2.41-6.92,1.05,3h-2.1l1-3Zm11.56,6.92h2v-9.52h-2v6.06L679-67.86h-2.35v.14l.66,1v8.33h2v-5.5l3.88,5.5Zm5.63,0h2v-7.6h2.31v-1.92h-6.61v1.92h2.31v7.6Zm5.63,0h2v-9.52h-2v9.52Zm5.63,0h2v-7.6h2.31v-1.92h-6.6v1.92h2.31v7.6Zm11,0h2.23l-3.53-9.52h-2.23L704-58.34h2.22l.72-2h3.4l.71,2Zm-2.41-6.92,1.05,3h-2.1l1-3Zm6.58,6.92h2v-7.6h2.31v-1.92h-6.61v1.92h2.31v7.6Zm5.63,0h2v-9.52h-2v9.52Zm6.51,0h2.23l3.53-9.52H730.9l-2.41,7.21-2.42-7.21h-2.23l3.53,9.52Zm12.18,0v-1.92h-3.43v-1.92h3.15v-1.91h-3.15v-1.85h3.43v-1.92h-5.42v9.52Zm4.85,0h2v-3.49h1.26a2.88,2.88,0,0,0,3.14-3,2.88,2.88,0,0,0-3.14-3H744.4v9.52Zm4.34-6.5a1,1,0,0,1-1.12,1.1h-1.24v-2.2h1.24a1,1,0,0,1,1.12,1.1Zm3.48,6.5h2v-3.54h.49c1.16,0,2,1.47,2.31,3.54h2.06c-.23-2-.94-3.73-2.13-4.34a2.34,2.34,0,0,0,1.72-2.41c0-1.76-1.29-2.77-3.15-2.77h-3.29v9.52Zm4.4-6.52a1,1,0,0,1-1.11,1.06h-1.3v-2.14h1.3a1,1,0,0,1,1.11,1.08Zm3.2,1.77a4.81,4.81,0,0,0,4.9,4.9,4.8,4.8,0,0,0,4.9-4.9,4.81,4.81,0,0,0-4.9-4.91,4.82,4.82,0,0,0-4.9,4.91Zm2,0A2.86,2.86,0,0,1,764.72-66a2.86,2.86,0,0,1,2.84,2.92,2.85,2.85,0,0,1-2.84,2.92,2.85,2.85,0,0,1-2.85-2.92Zm14.4,1.32v-1.92h-3.15v-2.25h3.43v-1.92h-5.42v9.52h2v-3.43Zm1.92,3.43h2v-9.52h-2v9.52Zm9.5,0v-1.92h-3.43v-7.6h-2v9.52Zm6.73,0v-1.92H791v-1.92h3.15v-1.91H791v-1.85h3.44v-1.92H789v9.52Z" transform="translate(-374 68)"/><path class="cls-4" d="M522.3,351.13h-.68v8.23h.68v-3.82a2.59,2.59,0,0,0,2.41,1.48,3,3,0,0,0,0-6,2.58,2.58,0,0,0-2.41,1.51v-1.39Zm0,2.88a2.31,2.31,0,1,1,2.31,2.34A2.28,2.28,0,0,1,522.3,354Zm7.42-2.88H529v8.23h.68v-3.82a2.59,2.59,0,0,0,2.4,1.48,3,3,0,0,0,0-6,2.58,2.58,0,0,0-2.4,1.51v-1.39Zm0,2.88a2.31,2.31,0,1,1,2.3,2.34,2.28,2.28,0,0,1-2.3-2.34Zm7.42-2.88h-.69v5.77h.69v-3.67a1.44,1.44,0,0,1,1.52-1.55,1.46,1.46,0,0,1,1.5,1.63v3.59h.68v-3.59a1.52,1.52,0,1,1,3,0v3.59h.68v-3.72A2,2,0,0,0,542.5,351a1.76,1.76,0,0,0-1.8,1.27,1.92,1.92,0,0,0-1.91-1.27,1.74,1.74,0,0,0-1.65,1v-.85Zm14.66-1.83a1.91,1.91,0,0,1,2,2v3a2,2,0,1,1-3.93,0v-3a1.91,1.91,0,0,1,2-2Zm0-.68a2.58,2.58,0,0,0-2.65,2.67v3a2.66,2.66,0,1,0,5.31,0v-3a2.59,2.59,0,0,0-2.66-2.67Zm4.12,7.81a.59.59,0,1,0,.58-.59.57.57,0,0,0-.58.59Zm5.3-7.13a1.91,1.91,0,0,1,2,2v3a2,2,0,1,1-3.93,0v-3a1.91,1.91,0,0,1,2-2Zm0-.68a2.58,2.58,0,0,0-2.65,2.67v3a2.66,2.66,0,1,0,5.31,0v-3a2.59,2.59,0,0,0-2.66-2.67Zm7,.68a1.9,1.9,0,0,1,2,2v3a2,2,0,1,1-3.92,0v-3a1.9,1.9,0,0,1,2-2Zm0-.68a2.59,2.59,0,0,0-2.65,2.67v3a2.66,2.66,0,1,0,5.32,0v-3a2.6,2.6,0,0,0-2.67-2.67Z" transform="translate(-374 68)"/><path class="cls-4" d="M683.09,356.9h4.65v-.65h-1.81v-7.51h-2.67v.64h2v6.87h-2.15v.65Zm8.39-7.6a1.91,1.91,0,0,1,2,2v3a2,2,0,1,1-3.93,0v-3a1.91,1.91,0,0,1,2-2Zm0-.68a2.59,2.59,0,0,0-2.66,2.67v3a2.66,2.66,0,1,0,5.32,0v-3a2.59,2.59,0,0,0-2.66-2.67Zm7,.68a1.91,1.91,0,0,1,2,2v3a2,2,0,1,1-3.93,0v-3a1.91,1.91,0,0,1,2-2Zm0-.68a2.58,2.58,0,0,0-2.65,2.67v3a2.66,2.66,0,1,0,5.31,0v-3a2.59,2.59,0,0,0-2.66-2.67Zm4.12,7.81a.59.59,0,1,0,.58-.59.57.57,0,0,0-.58.59Zm5.3-7.13a1.91,1.91,0,0,1,2,2v3a2,2,0,1,1-3.93,0v-3a1.91,1.91,0,0,1,2-2Zm0-.68a2.58,2.58,0,0,0-2.65,2.67v3a2.66,2.66,0,1,0,5.31,0v-3a2.59,2.59,0,0,0-2.66-2.67Zm7,.68a1.9,1.9,0,0,1,2,2v3a2,2,0,1,1-3.92,0v-3a1.9,1.9,0,0,1,2-2Zm0-.68a2.59,2.59,0,0,0-2.65,2.67v3a2.66,2.66,0,1,0,5.32,0v-3a2.6,2.6,0,0,0-2.67-2.67Z" transform="translate(-374 68)"/><path class="cls-4" d="M814.54,356.9h4.3v-.65h-3.46l2.4-3a3.84,3.84,0,0,0,1.05-2.45,2.1,2.1,0,0,0-2.28-2.16,2.85,2.85,0,0,0-1.86.73v.83a2.48,2.48,0,0,1,1.84-.87,1.47,1.47,0,0,1,1.59,1.54,3.29,3.29,0,0,1-.94,2l-2.64,3.37v.64Zm8.44-7.6a1.9,1.9,0,0,1,2,2v3a2,2,0,1,1-3.92,0v-3a1.9,1.9,0,0,1,2-2Zm0-.68a2.59,2.59,0,0,0-2.65,2.67v3a2.66,2.66,0,1,0,5.32,0v-3a2.6,2.6,0,0,0-2.67-2.67Zm7,.68a1.91,1.91,0,0,1,2,2v3a2,2,0,1,1-3.93,0v-3a1.91,1.91,0,0,1,2-2Zm0-.68a2.58,2.58,0,0,0-2.65,2.67v3a2.66,2.66,0,1,0,5.31,0v-3a2.59,2.59,0,0,0-2.66-2.67Zm4.12,7.81a.59.59,0,1,0,.58-.59.57.57,0,0,0-.58.59Zm5.3-7.13a1.91,1.91,0,0,1,2,2v3a2,2,0,1,1-3.93,0v-3a1.91,1.91,0,0,1,2-2Zm0-.68a2.58,2.58,0,0,0-2.65,2.67v3a2.66,2.66,0,1,0,5.31,0v-3a2.59,2.59,0,0,0-2.66-2.67Zm7,.68a1.91,1.91,0,0,1,2,2v3a2,2,0,1,1-3.92,0v-3a1.9,1.9,0,0,1,2-2Zm0-.68a2.59,2.59,0,0,0-2.65,2.67v3a2.66,2.66,0,1,0,5.32,0v-3a2.6,2.6,0,0,0-2.67-2.67Z" transform="translate(-374 68)"/><polygon class="cls-2" points="0 608.16 0 636.96 461.4 636.96 461.4 608.16 0 608.16 0 608.16"/><polygon class="cls-2" points="0 498.56 0 527.36 461.4 527.36 461.4 498.56 0 498.56 0 498.56"/><polygon class="cls-2" points="0 553.36 0 582.16 461.4 582.16 461.4 553.36 0 553.36 0 553.36"/><polygon class="cls-2" points="0 662.96 0 691.76 461.4 691.76 461.4 662.96 0 662.96 0 662.96"/><polygon class="cls-2" points="0 717.76 0 746.56 461.4 746.56 461.4 717.76 0 717.76 0 717.76"/><polygon class="cls-2" points="0 772.56 0 801.36 461.4 801.36 461.4 772.56 0 772.56 0 772.56"/><polygon class="cls-2" points="0 827.36 0 856.16 461.4 856.16 461.4 827.36 0 827.36 0 827.36"/><polygon class="cls-1" points="199.79 779.11 211.4 779.11 211.4 794.58 199.79 794.58 199.79 779.11 199.79 779.11"/><polygon class="cls-1" points="199.79 751.71 200.96 751.71 200.96 767.18 199.79 767.18 199.79 751.71 199.79 751.71"/><polygon class="cls-1" points="199.79 724.31 221.83 724.31 221.83 739.78 199.79 739.78 199.79 724.31 199.79 724.31"/><polygon class="cls-1" points="199.79 696.91 242.7 696.91 242.7 712.38 199.79 712.38 199.79 696.91 199.79 696.91"/><polygon class="cls-1" points="199.79 669.51 215.31 669.51 215.31 684.98 199.79 684.98 199.79 669.51 199.79 669.51"/><polygon class="cls-1" points="199.79 614.81 327.47 614.81 327.47 630.28 199.79 630.28 199.79 614.81 199.79 614.81"/><polygon class="cls-1" points="199.79 560.13 202.27 560.13 202.27 575.59 199.79 575.59 199.79 560.13 199.79 560.13"/><polygon class="cls-1" points="199.79 532.72 220.53 532.72 220.53 548.19 199.79 548.19 199.79 532.72 199.79 532.72"/><polygon class="cls-1" points="199.79 505.32 263.57 505.32 263.57 520.79 199.79 520.79 199.79 505.32 199.79 505.32"/><path class="cls-3" d="M374,787.36H835.4m-.5-.5V431M573.29,786.86V431M704.5,786.86V431m-330.5-.5H835.4" transform="translate(-374 68)"/><path class="cls-4" d="M434.31,778.66v-5.57h1.24v-1.32h-1.24v-1.94l-1.46.33v1.61h-1.24v1.32h1.16v5.57Zm3.86-6.89h-1.54v6.89h1.54V774.6a1.34,1.34,0,0,1,1.35-1.47,2.32,2.32,0,0,1,.92.18v-1.64a5.27,5.27,0,0,0-.57,0,1.86,1.86,0,0,0-1.7,1v-.84Zm3.46,1.78a3.43,3.43,0,0,1,1.81-.55,1.3,1.3,0,0,1,1.44,1.38V775a2.4,2.4,0,0,0-1.65-.66,2.25,2.25,0,0,0-2.37,2.26,2.2,2.2,0,0,0,2.34,2.26,2.08,2.08,0,0,0,1.68-.78v.63h1.54V774.4a2.5,2.5,0,0,0-2.82-2.77,4.77,4.77,0,0,0-2,.44v1.48Zm.76,3a1.18,1.18,0,0,1,1.23-1.12,1.2,1.2,0,0,1,1.25,1.12,1.25,1.25,0,0,1-2.48,0Zm7.26-4.77h-1.54v6.89h1.54V774.6a1.45,1.45,0,1,1,2.9.08v4h1.54v-4.37a2.46,2.46,0,0,0-2.51-2.66,2.1,2.1,0,0,0-1.93,1.12v-1Zm9.86.14a5.14,5.14,0,0,0-1.6-.28c-1.56,0-2.43.83-2.43,2a1.88,1.88,0,0,0,1,1.71l1.18.7c.43.26.59.48.59.76s-.34.71-1,.71a2.87,2.87,0,0,1-1.7-.64v1.58a4.54,4.54,0,0,0,1.79.39c1.55,0,2.46-.84,2.46-2a2,2,0,0,0-1.15-1.82l-1.1-.65c-.34-.21-.52-.37-.52-.66s.31-.68.89-.68a3,3,0,0,1,1.56.49v-1.55Zm5.18,3.47v-1.44H461v1.44Zm3.2-3.61h-1.53v6.89h1.53V774.6a1.45,1.45,0,1,1,2.9.08v4h1.54v-4.37a2.46,2.46,0,0,0-2.5-2.66,2.1,2.1,0,0,0-1.94,1.12v-1Zm12.35,4a3,3,0,0,0,.1-.78,3.2,3.2,0,0,0-3.28-3.32,3.59,3.59,0,0,0,.09,7.18,5.18,5.18,0,0,0,2.52-.63v-1.52a4.39,4.39,0,0,1-2.41.75,2,2,0,0,1-2.1-1.68Zm-3.19-2.81a1.69,1.69,0,0,1,1.81,1.62h-3.71a1.85,1.85,0,0,1,1.9-1.62Zm6.09-1.15H481.6v6.89h1.54V774.6c0-.88.5-1.47,1.34-1.47a2.37,2.37,0,0,1,.93.18v-1.64a5.28,5.28,0,0,0-.58,0,1.86,1.86,0,0,0-1.69,1v-.84Zm2.74,3.45a3.59,3.59,0,1,0,3.59-3.59,3.54,3.54,0,0,0-3.59,3.59Zm1.56,0a2,2,0,1,1,2,2.08,2,2,0,0,1-2-2.08Zm8.5-6.22H494.4v9.66h1.54V769Zm3.3,2.77H497.7v6.89h1.54v-6.89Zm-1.72-2.1a.94.94,0,0,0,1,1,1,1,0,0,0,0-1.9.94.94,0,0,0-1,.95Zm8.78,9h1.52V769H506.3v3.89a2.73,2.73,0,0,0-2.36-1.26,3.6,3.6,0,0,0,0,7.18,2.77,2.77,0,0,0,2.37-1.27v1.12Zm0-3.45a2.06,2.06,0,1,1-4.12,0,2.06,2.06,0,1,1,4.12,0Zm2.87,0a3.58,3.58,0,1,0,3.58-3.59,3.53,3.53,0,0,0-3.58,3.59Zm1.55,0a2,2,0,1,1,2,2.08,2,2,0,0,1-2-2.08Zm8.5-6.22h-1.54v9.66h1.54V769Z" transform="translate(-374 68)"/><path class="cls-4" d="M451,749.42a2.69,2.69,0,0,1-1.65.53,2.09,2.09,0,0,1,0-4.17,2.8,2.8,0,0,1,1.65.53v-1.65a3.71,3.71,0,0,0-1.65-.38,3.59,3.59,0,1,0,0,7.18,3.59,3.59,0,0,0,1.65-.4v-1.64Zm3-5h-1.54v6.89H454v-6.89Zm-1.72-2.1a.95.95,0,1,0,.95-1,.93.93,0,0,0-.95,1Zm7.21,2.24a5.14,5.14,0,0,0-1.6-.28c-1.56,0-2.43.83-2.43,2a1.88,1.88,0,0,0,1,1.71l1.18.7c.43.26.59.48.59.76s-.34.71-1,.71a2.87,2.87,0,0,1-1.7-.64v1.58a4.54,4.54,0,0,0,1.79.39c1.55,0,2.46-.84,2.46-2a2,2,0,0,0-1.15-1.82l-1.1-.65c-.34-.21-.52-.37-.52-.66s.31-.68.89-.68a3,3,0,0,1,1.56.49v-1.55Zm5.18,3.47v-1.44H461V748Zm3.2-3.61h-1.53v6.89h1.53v-4.06a1.45,1.45,0,1,1,2.9.08v4h1.54v-4.37a2.46,2.46,0,0,0-2.5-2.66,2.1,2.1,0,0,0-1.94,1.12v-1Zm12.35,4a3,3,0,0,0,.1-.78,3.2,3.2,0,0,0-3.28-3.32,3.59,3.59,0,0,0,.09,7.18,5.18,5.18,0,0,0,2.52-.63v-1.52a4.39,4.39,0,0,1-2.41.75,2,2,0,0,1-2.1-1.68Zm-3.19-2.81a1.69,1.69,0,0,1,1.81,1.62h-3.71a1.85,1.85,0,0,1,1.9-1.62Zm6.09-1.15H481.6v6.89h1.54v-4.06c0-.88.5-1.47,1.34-1.47a2.37,2.37,0,0,1,.93.18v-1.64a5.28,5.28,0,0,0-.58,0,1.86,1.86,0,0,0-1.69,1v-.84Zm2.74,3.45a3.59,3.59,0,1,0,3.59-3.59,3.54,3.54,0,0,0-3.59,3.59Zm1.56,0a2,2,0,1,1,2,2.08,2,2,0,0,1-2-2.08Zm8.5-6.22H494.4v9.66h1.54v-9.66Zm3.3,2.77H497.7v6.89h1.54v-6.89Zm-1.72-2.1a.94.94,0,0,0,1,.95,1,1,0,0,0,0-1.9.94.94,0,0,0-1,1Zm8.78,9h1.52v-9.66H506.3v3.89a2.73,2.73,0,0,0-2.36-1.26,3.6,3.6,0,0,0,0,7.18,2.77,2.77,0,0,0,2.37-1.27v1.12Zm0-3.45a2.06,2.06,0,1,1-4.12,0,2.06,2.06,0,1,1,4.12,0Zm2.87,0a3.58,3.58,0,1,0,3.58-3.59,3.53,3.53,0,0,0-3.58,3.59Zm1.55,0a2,2,0,1,1,2,2.08,2,2,0,0,1-2-2.08Zm8.5-6.22h-1.54v9.66h1.54v-9.66Z" transform="translate(-374 68)"/><path class="cls-4" d="M422,718.85a3.43,3.43,0,0,1,1.81-.55,1.3,1.3,0,0,1,1.44,1.38v.57a2.4,2.4,0,0,0-1.65-.66,2.25,2.25,0,0,0-2.37,2.26,2.2,2.2,0,0,0,2.34,2.26,2.08,2.08,0,0,0,1.68-.78V724h1.54V719.7a2.5,2.5,0,0,0-2.81-2.77,4.78,4.78,0,0,0-2,.44v1.48Zm.76,3a1.18,1.18,0,0,1,1.23-1.12,1.2,1.2,0,0,1,1.25,1.12,1.25,1.25,0,0,1-2.48,0Zm7.28-7.54h-1.54V724h1.54V714.3Zm3.3,2.77h-1.54v9.76h1.54v-4a2.69,2.69,0,0,0,2.35,1.27,3.6,3.6,0,0,0,0-7.18,2.58,2.58,0,0,0-2.35,1.34v-1.2Zm0,3.45a2.05,2.05,0,1,1,2.06,2.08,2,2,0,0,1-2.06-2.08ZM442,714.3h-1.54V724H442V719.9a1.45,1.45,0,1,1,2.9.08v4h1.54v-4.37a2.46,2.46,0,0,0-2.5-2.66,2.11,2.11,0,0,0-1.94,1.12V714.3Zm6.39,4.55a3.4,3.4,0,0,1,1.8-.55,1.31,1.31,0,0,1,1.45,1.38v.57a2.42,2.42,0,0,0-1.66-.66,2.24,2.24,0,0,0-2.36,2.26,2.19,2.19,0,0,0,2.33,2.26,2.1,2.1,0,0,0,1.69-.78V724h1.53V719.7a2.49,2.49,0,0,0-2.81-2.77,4.77,4.77,0,0,0-2,.44v1.48Zm.75,3a1.18,1.18,0,0,1,1.23-1.12,1.2,1.2,0,0,1,1.25,1.12,1.25,1.25,0,0,1-2.48,0Zm9.3-1.16v-1.44h-3.65v1.44Zm3.2-6.38h-1.53V724h1.53V719.9a1.45,1.45,0,1,1,2.9.08v4H466v-4.37a2.46,2.46,0,0,0-2.5-2.66,2.11,2.11,0,0,0-1.94,1.12V714.3ZM472.12,724h1.53v-6.89h-1.53v4.06a1.45,1.45,0,1,1-2.9-.1v-4h-1.53v4.38a2.46,2.46,0,0,0,2.49,2.66,2.09,2.09,0,0,0,1.94-1.12v1Zm4.86-6.89h-1.54V724H477V719.8a1.29,1.29,0,0,1,1.36-1.37,1.31,1.31,0,0,1,1.33,1.47V724h1.54V719.9a1.33,1.33,0,0,1,1.37-1.47,1.31,1.31,0,0,1,1.33,1.47V724h1.54v-4.48a2.39,2.39,0,0,0-2.41-2.55,2.13,2.13,0,0,0-2.07,1.33,2.23,2.23,0,0,0-2.17-1.33,2,2,0,0,0-1.82,1v-.88ZM491.53,724h1.52v-6.89h-1.52v4.06a1.45,1.45,0,1,1-2.9-.1v-4h-1.54v4.38a2.46,2.46,0,0,0,2.49,2.66,2.11,2.11,0,0,0,1.95-1.12v1Zm4.87-9.66h-1.54V724h1.54V714.3Zm8,6.73a3.44,3.44,0,0,0,.1-.78,3.2,3.2,0,0,0-3.28-3.32,3.59,3.59,0,0,0,.08,7.18,5.12,5.12,0,0,0,2.52-.63V722a4.35,4.35,0,0,1-2.4.75,2,2,0,0,1-2.1-1.68Zm-3.19-2.81a1.69,1.69,0,0,1,1.8,1.62h-3.71a1.86,1.86,0,0,1,1.91-1.62Zm6.08-1.15h-1.53V724h1.53V719.9a1.45,1.45,0,1,1,2.9.08v4h1.54v-4.37a2.45,2.45,0,0,0-2.5-2.66,2.1,2.1,0,0,0-1.94,1.12v-1Zm12.35,4a3,3,0,0,0,.1-.78,3.2,3.2,0,0,0-3.27-3.32,3.59,3.59,0,0,0,.08,7.18,5.15,5.15,0,0,0,2.52-.63V722a4.39,4.39,0,0,1-2.41.75,2,2,0,0,1-2.1-1.68Zm-3.19-2.81a1.69,1.69,0,0,1,1.81,1.62h-3.71a1.86,1.86,0,0,1,1.9-1.62Z" transform="translate(-374 68)"/><path class="cls-4" d="M416.46,689.72v1.12a2.78,2.78,0,0,0-2.39-1.26,3.49,3.49,0,0,0,0,7,2.79,2.79,0,0,0,2.38-1.23v.8a2,2,0,0,1-2.17,2.06,4.49,4.49,0,0,1-2.37-.73v1.61a5,5,0,0,0,2.37.56,3.38,3.38,0,0,0,3.71-3.68v-6.22Zm-.08,3.35a2,2,0,1,1-2-2,1.94,1.94,0,0,1,2,2ZM420,691.5a3.43,3.43,0,0,1,1.81-.55,1.3,1.3,0,0,1,1.44,1.38v.57a2.4,2.4,0,0,0-1.65-.66,2.25,2.25,0,0,0-2.37,2.26,2.2,2.2,0,0,0,2.34,2.26,2.08,2.08,0,0,0,1.68-.78v.63h1.54v-4.26a2.49,2.49,0,0,0-2.81-2.77,4.82,4.82,0,0,0-2,.44v1.48Zm.76,3a1.18,1.18,0,0,1,1.23-1.12,1.2,1.2,0,0,1,1.25,1.12,1.25,1.25,0,0,1-2.48,0Zm7.27-4.77h-1.54v6.89h1.54v-4.16a1.28,1.28,0,0,1,1.35-1.37,1.31,1.31,0,0,1,1.34,1.47v4.06h1.53v-4.06a1.33,1.33,0,0,1,1.38-1.47,1.31,1.31,0,0,1,1.33,1.47v4.06h1.53v-4.48a2.38,2.38,0,0,0-2.4-2.55,2.14,2.14,0,0,0-2.08,1.33,2.21,2.21,0,0,0-2.16-1.33,2,2,0,0,0-1.82,1v-.88Zm11.68,0h-1.53v6.89h1.53v-4.16a1.29,1.29,0,0,1,1.36-1.37,1.31,1.31,0,0,1,1.34,1.47v4.06H444v-4.06a1.33,1.33,0,0,1,1.38-1.47,1.31,1.31,0,0,1,1.33,1.47v4.06h1.53v-4.48a2.38,2.38,0,0,0-2.4-2.55,2.14,2.14,0,0,0-2.08,1.33,2.22,2.22,0,0,0-2.16-1.33,2,2,0,0,0-1.83,1v-.88Zm10.41,1.78A3.4,3.4,0,0,1,452,691a1.31,1.31,0,0,1,1.45,1.38v.57a2.4,2.4,0,0,0-1.66-.66,2.24,2.24,0,0,0-2.36,2.26,2.19,2.19,0,0,0,2.33,2.26,2.1,2.1,0,0,0,1.69-.78v.63h1.53v-4.26a2.49,2.49,0,0,0-2.81-2.77,4.77,4.77,0,0,0-2,.44v1.48Zm.75,3a1.25,1.25,0,1,1,1.24,1.11,1.19,1.19,0,0,1-1.24-1.11Zm9.3-1.16v-1.44h-3.66v1.44Zm3.71,3.28V691h1.24v-1.32h-1.24v-1.94l-1.46.33v1.61h-1.24V691h1.16v5.57Zm8.43-2.93a3.49,3.49,0,0,0,.09-.78,3.2,3.2,0,0,0-3.27-3.32,3.59,3.59,0,0,0,.08,7.18,5.12,5.12,0,0,0,2.52-.63v-1.52a4.35,4.35,0,0,1-2.4.75,2,2,0,0,1-2.1-1.68Zm-3.19-2.81a1.69,1.69,0,0,1,1.8,1.62h-3.71a1.86,1.86,0,0,1,1.91-1.62Zm6.08-1.15h-1.53v6.89h1.53v-4.06a1.34,1.34,0,0,1,1.35-1.47,2.32,2.32,0,0,1,.92.18v-1.64a5.27,5.27,0,0,0-.57,0,1.88,1.88,0,0,0-1.7,1v-.84Zm4.9,0h-1.53v9.76h1.53v-4a2.69,2.69,0,0,0,2.36,1.27,3.6,3.6,0,0,0,0-7.18,2.59,2.59,0,0,0-2.36,1.34v-1.2Zm0,3.45a2.06,2.06,0,1,1,2.06,2.08,2,2,0,0,1-2.06-2.08Zm8.59-3.45h-1.54v6.89h1.54v-6.89Zm-1.72-2.1a.93.93,0,0,0,.95,1,1,1,0,0,0,0-1.9.94.94,0,0,0-.95,1Zm5,2.1h-1.54v6.89H492v-4.06a1.39,1.39,0,0,1,1.44-1.47,1.41,1.41,0,0,1,1.46,1.55v4h1.54v-4.37a2.46,2.46,0,0,0-2.51-2.66A2.09,2.09,0,0,0,492,690.7v-1Zm12.35,4a3.44,3.44,0,0,0,.1-.78,3.2,3.2,0,0,0-3.28-3.32,3.59,3.59,0,0,0,.08,7.18,5.12,5.12,0,0,0,2.52-.63v-1.52a4.35,4.35,0,0,1-2.4.75,2,2,0,0,1-2.1-1.68Zm-3.19-2.81a1.69,1.69,0,0,1,1.8,1.62h-3.71a1.86,1.86,0,0,1,1.91-1.62Zm6.08-1.15h-1.53v6.89h1.53v-4.06a1.45,1.45,0,1,1,2.9.08v4h1.54v-4.37a2.45,2.45,0,0,0-2.5-2.66,2.1,2.1,0,0,0-1.94,1.12v-1Zm12.35,4a3,3,0,0,0,.1-.78,3.2,3.2,0,0,0-3.27-3.32,3.59,3.59,0,0,0,.08,7.18,5.15,5.15,0,0,0,2.52-.63v-1.52a4.39,4.39,0,0,1-2.41.75,2,2,0,0,1-2.1-1.68Zm-3.19-2.81a1.69,1.69,0,0,1,1.81,1.62h-3.71a1.86,1.86,0,0,1,1.9-1.62Z" transform="translate(-374 68)"/><path class="cls-4" d="M421,667.37a2.69,2.69,0,0,1-1.65.53,2.09,2.09,0,0,1,0-4.17,2.8,2.8,0,0,1,1.65.53v-1.65a3.71,3.71,0,0,0-1.65-.38,3.59,3.59,0,1,0,0,7.18A3.59,3.59,0,0,0,421,669v-1.64Zm3-5h-1.54v6.89H424v-6.89Zm-1.72-2.1a.95.95,0,1,0,.95-.95.93.93,0,0,0-.95.95Zm7.21,2.24a5.14,5.14,0,0,0-1.6-.28c-1.57,0-2.43.83-2.43,2a1.88,1.88,0,0,0,1,1.71l1.18.7c.43.26.58.48.58.76s-.33.71-1,.71a2.92,2.92,0,0,1-1.71-.64V669a4.63,4.63,0,0,0,1.79.39c1.56,0,2.47-.84,2.47-2a2,2,0,0,0-1.15-1.82l-1.1-.65c-.34-.21-.52-.37-.52-.66s.3-.68.89-.68a3,3,0,0,1,1.56.49v-1.55Zm5.18,3.47v-1.44H431V666Zm3.2,2.16a2.72,2.72,0,0,0,2.37,1.27,3.6,3.6,0,0,0,0-7.18,2.7,2.7,0,0,0-2.36,1.26V659.6h-1.54v9.66h1.54v-1.12Zm0-2.33A2.06,2.06,0,1,1,440,667.9a2,2,0,0,1-2.06-2.09Zm13.26.52a3,3,0,0,0,.1-.78,3.2,3.2,0,0,0-3.28-3.32,3.59,3.59,0,0,0,.09,7.18,5.18,5.18,0,0,0,2.52-.63v-1.52a4.39,4.39,0,0,1-2.41.75,2,2,0,0,1-2.1-1.68ZM448,663.52a1.69,1.69,0,0,1,1.81,1.62h-3.71a1.85,1.85,0,0,1,1.9-1.62Zm6.56,5.74v-5.57h1.25v-1.32h-1.25v-1.94l-1.45.33v1.61h-1.25v1.32H453v5.57Zm2.52-5.11a3.46,3.46,0,0,1,1.81-.55,1.3,1.3,0,0,1,1.44,1.38v.57a2.4,2.4,0,0,0-1.65-.66,2.24,2.24,0,0,0-2.36,2.26,2.19,2.19,0,0,0,2.33,2.26,2.08,2.08,0,0,0,1.68-.78v.63h1.54V665a2.49,2.49,0,0,0-2.81-2.77,4.86,4.86,0,0,0-2,.44v1.48Zm.76,3A1.18,1.18,0,0,1,459,666a1.2,1.2,0,0,1,1.25,1.12,1.25,1.25,0,0,1-2.48,0Zm9.3-1.16v-1.44h-3.66V666Zm1.24-.16a3.59,3.59,0,1,0,3.59-3.59,3.54,3.54,0,0,0-3.59,3.59Zm1.56,0a2,2,0,0,1,2-2.09,2.09,2.09,0,1,1-2,2.09Zm11.8,1.55a2.69,2.69,0,0,1-1.65.53,2.09,2.09,0,0,1,0-4.17,2.8,2.8,0,0,1,1.65.53v-1.65a3.71,3.71,0,0,0-1.65-.38,3.59,3.59,0,1,0,0,7.18,3.59,3.59,0,0,0,1.65-.4v-1.64Zm3-5h-1.54v6.89h1.54v-6.89Zm-1.72-2.1a.95.95,0,1,0,.95-.95.93.93,0,0,0-.95.95Zm5,2.1h-1.54v6.89H488V665.1a1.35,1.35,0,1,1,2.69.1v4.06h1.54V665.2a1.33,1.33,0,0,1,1.37-1.47,1.3,1.3,0,0,1,1.33,1.47v4.06h1.54v-4.48a2.39,2.39,0,0,0-2.41-2.55,2.13,2.13,0,0,0-2.07,1.33,2.23,2.23,0,0,0-2.17-1.33,2,2,0,0,0-1.82,1v-.88Zm16.37,4a3.44,3.44,0,0,0,.1-.78,3.2,3.2,0,0,0-3.28-3.32,3.59,3.59,0,0,0,.08,7.18,5.12,5.12,0,0,0,2.52-.63v-1.52a4.35,4.35,0,0,1-2.4.75,2,2,0,0,1-2.1-1.68Zm-3.19-2.81a1.69,1.69,0,0,1,1.8,1.62h-3.71a1.86,1.86,0,0,1,1.91-1.62Zm6.08-1.15h-1.53v6.89h1.53V665.2a1.45,1.45,0,1,1,2.9.08v4h1.54v-4.37a2.45,2.45,0,0,0-2.5-2.66,2.1,2.1,0,0,0-1.94,1.12v-1Zm12.35,4a3,3,0,0,0,.1-.78,3.2,3.2,0,0,0-3.27-3.32,3.59,3.59,0,0,0,.08,7.18,5.15,5.15,0,0,0,2.52-.63v-1.52a4.39,4.39,0,0,1-2.41.75,2,2,0,0,1-2.1-1.68Zm-3.19-2.81a1.69,1.69,0,0,1,1.81,1.62h-3.71a1.86,1.86,0,0,1,1.9-1.62Z" transform="translate(-374 68)"/><path class="cls-4" d="M449.32,641.91h3.43a4.76,4.76,0,0,0,0-9.52h-3.43v9.52Zm3.41-8a3.24,3.24,0,0,1,0,6.47h-1.82v-6.47Zm9.71,4.72v-1.44h-3.66v1.44Zm3.21-6.38h-1.53v9.66h1.53v-9.66ZM469,635h-1.54v6.89H469V635Zm-1.72-2.1a.95.95,0,1,0,.95-.95.93.93,0,0,0-.95.95Zm5,2.1h-1.54v6.89h1.54v-4.16a1.35,1.35,0,1,1,2.69.1v4.06h1.54v-4.06a1.33,1.33,0,0,1,1.37-1.47,1.3,1.3,0,0,1,1.33,1.47v4.06h1.54v-4.48a2.39,2.39,0,0,0-2.41-2.55,2.14,2.14,0,0,0-2.07,1.33,2.23,2.23,0,0,0-2.17-1.33,2,2,0,0,0-1.82,1V635Zm9.73,3.45a3.59,3.59,0,1,0,3.59-3.59,3.54,3.54,0,0,0-3.59,3.59Zm1.56,0a2,2,0,0,1,2-2.09,2.09,2.09,0,1,1-2,2.09ZM492,635h-1.54v6.89H492v-4.06a1.39,1.39,0,0,1,1.44-1.47,1.41,1.41,0,0,1,1.46,1.55v4h1.54v-4.37a2.46,2.46,0,0,0-2.51-2.66A2.09,2.09,0,0,0,492,636v-1Zm12.35,4a3.44,3.44,0,0,0,.1-.78,3.2,3.2,0,0,0-3.28-3.32,3.59,3.59,0,0,0,.08,7.18,5.12,5.12,0,0,0,2.52-.63v-1.52a4.35,4.35,0,0,1-2.4.75,2,2,0,0,1-2.1-1.68Zm-3.19-2.81a1.69,1.69,0,0,1,1.8,1.62h-3.71a1.86,1.86,0,0,1,1.91-1.62Zm6.08-1.15h-1.53v6.89h1.53v-4.06a1.45,1.45,0,1,1,2.9.08v4h1.54v-4.37a2.45,2.45,0,0,0-2.5-2.66,2.1,2.1,0,0,0-1.94,1.12v-1Zm12.35,4a3,3,0,0,0,.1-.78,3.2,3.2,0,0,0-3.27-3.32,3.59,3.59,0,0,0,.08,7.18,5.15,5.15,0,0,0,2.52-.63v-1.52a4.39,4.39,0,0,1-2.41.75,2,2,0,0,1-2.1-1.68Zm-3.19-2.81a1.69,1.69,0,0,1,1.81,1.62h-3.71a1.86,1.86,0,0,1,1.9-1.62Z" transform="translate(-374 68)"/><path class="cls-4" d="M430.74,609.45a3.43,3.43,0,0,1,1.81-.55,1.3,1.3,0,0,1,1.44,1.38v.57a2.4,2.4,0,0,0-1.65-.66,2.25,2.25,0,0,0-2.37,2.26,2.2,2.2,0,0,0,2.34,2.26,2.08,2.08,0,0,0,1.68-.78v.63h1.54V610.3a2.5,2.5,0,0,0-2.82-2.77,4.77,4.77,0,0,0-2,.44v1.48Zm.75,3a1.25,1.25,0,1,1,1.24,1.11,1.19,1.19,0,0,1-1.24-1.11Zm7.28-7.54h-1.53v9.66h1.53V604.9Zm3.31,2.77h-1.54v9.76h1.54v-4a2.67,2.67,0,0,0,2.35,1.27,3.6,3.6,0,0,0,0-7.18,2.57,2.57,0,0,0-2.35,1.34v-1.2Zm0,3.45a2.05,2.05,0,1,1,2.06,2.08,2,2,0,0,1-2.06-2.08Zm8.58-6.22h-1.54v9.66h1.54V610.5a1.45,1.45,0,1,1,2.9.08v4h1.54v-4.37a2.46,2.46,0,0,0-2.51-2.66,2.11,2.11,0,0,0-1.93,1.12V604.9Zm6.38,4.55a3.46,3.46,0,0,1,1.81-.55,1.3,1.3,0,0,1,1.44,1.38v.57a2.4,2.4,0,0,0-1.65-.66,2.24,2.24,0,0,0-2.36,2.26,2.19,2.19,0,0,0,2.33,2.26,2.08,2.08,0,0,0,1.68-.78v.63h1.54V610.3a2.49,2.49,0,0,0-2.81-2.77,4.86,4.86,0,0,0-2,.44v1.48Zm.76,3a1.18,1.18,0,0,1,1.23-1.12,1.2,1.2,0,0,1,1.25,1.12,1.25,1.25,0,0,1-2.48,0Zm9.3-1.16v-1.44h-3.66v1.44Zm1.24-.16a3.59,3.59,0,1,0,3.59-3.59,3.54,3.54,0,0,0-3.59,3.59Zm1.56,0a2,2,0,0,1,2-2.09,2.09,2.09,0,1,1-2,2.09Zm11.8,1.55a2.69,2.69,0,0,1-1.65.53,2.09,2.09,0,0,1,0-4.17,2.8,2.8,0,0,1,1.65.53v-1.65a3.71,3.71,0,0,0-1.65-.38,3.59,3.59,0,1,0,0,7.18,3.59,3.59,0,0,0,1.65-.4v-1.64Zm3-5h-1.54v6.89h1.54v-6.89Zm-1.72-2.1a.95.95,0,1,0,.95-1,.93.93,0,0,0-.95,1Zm5,2.1h-1.54v6.89H488V610.4a1.35,1.35,0,1,1,2.69.1v4.06h1.54V610.5a1.33,1.33,0,0,1,1.37-1.47,1.3,1.3,0,0,1,1.33,1.47v4.06h1.54v-4.48a2.39,2.39,0,0,0-2.41-2.55,2.13,2.13,0,0,0-2.07,1.33,2.23,2.23,0,0,0-2.17-1.33,2,2,0,0,0-1.82,1v-.88Zm16.37,4a3.44,3.44,0,0,0,.1-.78,3.2,3.2,0,0,0-3.28-3.32,3.59,3.59,0,0,0,.08,7.18,5.12,5.12,0,0,0,2.52-.63v-1.52a4.35,4.35,0,0,1-2.4.75,2,2,0,0,1-2.1-1.68Zm-3.19-2.81a1.69,1.69,0,0,1,1.8,1.62h-3.71a1.86,1.86,0,0,1,1.91-1.62Zm6.08-1.15h-1.53v6.89h1.53V610.5a1.45,1.45,0,1,1,2.9.08v4h1.54v-4.37a2.45,2.45,0,0,0-2.5-2.66,2.1,2.1,0,0,0-1.94,1.12v-1Zm12.35,4a3,3,0,0,0,.1-.78,3.2,3.2,0,0,0-3.27-3.32,3.59,3.59,0,0,0,.08,7.18,5.15,5.15,0,0,0,2.52-.63v-1.52a4.39,4.39,0,0,1-2.41.75,2,2,0,0,1-2.1-1.68Zm-3.19-2.81a1.69,1.69,0,0,1,1.81,1.62h-3.71a1.86,1.86,0,0,1,1.9-1.62Z" transform="translate(-374 68)"/><path class="cls-4" d="M402,582.1a3.46,3.46,0,0,1,1.81-.55,1.3,1.3,0,0,1,1.44,1.38v.57a2.4,2.4,0,0,0-1.65-.66,2.24,2.24,0,0,0-2.36,2.26,2.19,2.19,0,0,0,2.33,2.26,2.08,2.08,0,0,0,1.68-.78v.63h1.54V583a2.49,2.49,0,0,0-2.81-2.77,4.86,4.86,0,0,0-2,.44v1.48Zm.76,3A1.18,1.18,0,0,1,404,584a1.2,1.2,0,0,1,1.25,1.12,1.25,1.25,0,0,1-2.48,0Zm7.28-7.54h-1.54v9.66H410v-9.66Zm3.3,2.77h-1.53v9.76h1.53v-4a2.69,2.69,0,0,0,2.36,1.27,3.6,3.6,0,0,0,0-7.18,2.59,2.59,0,0,0-2.36,1.34v-1.2Zm0,3.45a2.06,2.06,0,1,1,2.06,2.08,2,2,0,0,1-2.06-2.08Zm8.58-6.22h-1.53v9.66h1.53v-4.06a1.46,1.46,0,1,1,2.91.08v4h1.53v-4.37a2.46,2.46,0,0,0-2.5-2.66,2.11,2.11,0,0,0-1.94,1.12v-3.75Zm6.39,4.55a3.43,3.43,0,0,1,1.81-.55,1.3,1.3,0,0,1,1.44,1.38v.57a2.4,2.4,0,0,0-1.65-.66,2.25,2.25,0,0,0-2.37,2.26,2.2,2.2,0,0,0,2.34,2.26,2.08,2.08,0,0,0,1.68-.78v.63h1.54V583a2.5,2.5,0,0,0-2.82-2.77,4.77,4.77,0,0,0-2,.44v1.48Zm.75,3a1.19,1.19,0,0,1,1.24-1.12,1.2,1.2,0,0,1,1.25,1.12,1.25,1.25,0,0,1-2.49,0Zm9.3-1.16v-1.44h-3.65v1.44Zm3.21-3.61H440v9.76h1.54v-4a2.66,2.66,0,0,0,2.35,1.27,3.6,3.6,0,0,0,0-7.18,2.56,2.56,0,0,0-2.35,1.34v-1.2Zm0,3.45a2.05,2.05,0,1,1,2.06,2.08,2,2,0,0,1-2.06-2.08Zm8.58-6.22h-1.54v9.66h1.54v-4.06a1.39,1.39,0,0,1,1.45-1.47,1.41,1.41,0,0,1,1.45,1.55v4h1.54v-4.37a2.46,2.46,0,0,0-2.51-2.66,2.11,2.11,0,0,0-1.93,1.12v-3.75Zm12.35,6.73a3.49,3.49,0,0,0,.09-.78,3.2,3.2,0,0,0-3.27-3.32,3.59,3.59,0,0,0,.08,7.18,5.12,5.12,0,0,0,2.52-.63v-1.52a4.35,4.35,0,0,1-2.4.75,2,2,0,0,1-2.1-1.68Zm-3.19-2.81a1.69,1.69,0,0,1,1.8,1.62h-3.71a1.86,1.86,0,0,1,1.91-1.62Zm6.1-3.92h-1.54v9.66h1.54v-9.66Zm3.32,0h-1.54v9.66h1.54v-9.66Zm2,4.55a3.43,3.43,0,0,1,1.81-.55,1.3,1.3,0,0,1,1.44,1.38v.57a2.4,2.4,0,0,0-1.65-.66A2.25,2.25,0,0,0,470,585.1a2.2,2.2,0,0,0,2.34,2.26,2.08,2.08,0,0,0,1.68-.78v.63h1.54V583a2.49,2.49,0,0,0-2.81-2.77,4.82,4.82,0,0,0-2,.44v1.48Zm.76,3a1.18,1.18,0,0,1,1.23-1.12,1.2,1.2,0,0,1,1.25,1.12,1.25,1.25,0,0,1-2.48,0Zm7.26-4.77h-1.53v6.89h1.53v-4.06a1.45,1.45,0,1,1,2.9.08v4h1.54v-4.37a2.46,2.46,0,0,0-2.5-2.66,2.1,2.1,0,0,0-1.94,1.12v-1Zm11.43,6.89h1.52v-9.66h-1.52v3.89a2.73,2.73,0,0,0-2.35-1.26,3.6,3.6,0,0,0,0,7.18,2.77,2.77,0,0,0,2.37-1.27v1.12Zm0-3.45a2.06,2.06,0,1,1-2.06-2.07,2.06,2.06,0,0,1,2.06,2.07Zm4.83-3.44h-1.54v6.89H495v-4.06c0-.88.5-1.47,1.34-1.47a2.41,2.41,0,0,1,.93.18v-1.64a5.46,5.46,0,0,0-.58,0,1.86,1.86,0,0,0-1.69,1v-.84Zm9.38,4a3.44,3.44,0,0,0,.1-.78,3.2,3.2,0,0,0-3.28-3.32,3.59,3.59,0,0,0,.08,7.18,5.12,5.12,0,0,0,2.52-.63v-1.52a4.35,4.35,0,0,1-2.4.75,2,2,0,0,1-2.1-1.68Zm-3.19-2.81a1.69,1.69,0,0,1,1.8,1.62h-3.71a1.86,1.86,0,0,1,1.91-1.62Zm6.08-1.15h-1.53v6.89h1.53v-4.06a1.45,1.45,0,1,1,2.9.08v4h1.54v-4.37a2.45,2.45,0,0,0-2.5-2.66,2.1,2.1,0,0,0-1.94,1.12v-1Zm12.35,4a3,3,0,0,0,.1-.78,3.2,3.2,0,0,0-3.27-3.32,3.59,3.59,0,0,0,.08,7.18,5.15,5.15,0,0,0,2.52-.63v-1.52a4.39,4.39,0,0,1-2.41.75,2,2,0,0,1-2.1-1.68Zm-3.19-2.81a1.69,1.69,0,0,1,1.81,1.62h-3.71a1.86,1.86,0,0,1,1.9-1.62Z" transform="translate(-374 68)"/><path class="cls-4" d="M437.74,558.74A2.7,2.7,0,0,0,440.1,560a3.6,3.6,0,0,0,0-7.18,2.69,2.69,0,0,0-2.35,1.26V550.2H436.2v9.66h1.54v-1.12Zm0-2.33a2.05,2.05,0,1,1,2.06,2.09,2,2,0,0,1-2.06-2.09Zm13.26.52a3.49,3.49,0,0,0,.09-.78,3.2,3.2,0,0,0-3.27-3.32,3.59,3.59,0,0,0,.08,7.18,5.12,5.12,0,0,0,2.52-.63v-1.52a4.35,4.35,0,0,1-2.4.75,2,2,0,0,1-2.1-1.68Zm-3.19-2.81a1.69,1.69,0,0,1,1.8,1.62H445.9a1.86,1.86,0,0,1,1.91-1.62Zm6.56,5.74v-5.57h1.25V553h-1.25V551l-1.45.33V553h-1.25v1.32h1.16v5.57Zm2.52-5.11a3.43,3.43,0,0,1,1.81-.55,1.3,1.3,0,0,1,1.44,1.38v.57a2.4,2.4,0,0,0-1.65-.66,2.25,2.25,0,0,0-2.37,2.26,2.2,2.2,0,0,0,2.34,2.26,2.08,2.08,0,0,0,1.68-.78v.63h1.54V555.6a2.5,2.5,0,0,0-2.82-2.77,4.77,4.77,0,0,0-2,.44v1.48Zm.76,3a1.18,1.18,0,0,1,1.23-1.12,1.2,1.2,0,0,1,1.25,1.12,1.19,1.19,0,0,1-1.25,1.11,1.17,1.17,0,0,1-1.23-1.1Zm9.29-1.16v-1.44h-3.65v1.44Zm3.21-3.61h-1.54v6.89h1.54V555.7a1.29,1.29,0,0,1,1.36-1.37,1.31,1.31,0,0,1,1.33,1.47v4.06h1.54V555.8a1.33,1.33,0,0,1,1.37-1.47,1.31,1.31,0,0,1,1.33,1.47v4.06h1.54v-4.48a2.39,2.39,0,0,0-2.41-2.55,2.12,2.12,0,0,0-2.07,1.33,2.24,2.24,0,0,0-2.17-1.33,2,2,0,0,0-1.82,1V553Zm10.23,9.76h1.78l4.16-9.76h-1.74l-1.79,4.43L481.08,553h-1.72l2.59,6.36-1.57,3.4Zm8.4-9.76h-1.54v6.89h1.54V555.8a1.34,1.34,0,0,1,1.35-1.47,2.32,2.32,0,0,1,.92.18v-1.64a5.27,5.27,0,0,0-.57,0,1.86,1.86,0,0,0-1.7,1V553Zm8,5a2.69,2.69,0,0,1-1.65.53,2.09,2.09,0,0,1,0-4.17,2.77,2.77,0,0,1,1.65.53v-1.65a3.68,3.68,0,0,0-1.65-.38,3.59,3.59,0,1,0,0,7.18,3.56,3.56,0,0,0,1.65-.4V558Zm7.58-1a3.44,3.44,0,0,0,.1-.78,3.2,3.2,0,0,0-3.28-3.32,3.59,3.59,0,0,0,.08,7.18,5.12,5.12,0,0,0,2.52-.63v-1.52a4.35,4.35,0,0,1-2.4.75,2,2,0,0,1-2.1-1.68Zm-3.19-2.81a1.69,1.69,0,0,1,1.8,1.62h-3.71a1.86,1.86,0,0,1,1.91-1.62Zm6.08-1.15h-1.53v6.89h1.53V555.8a1.45,1.45,0,1,1,2.9.08v4h1.54v-4.37a2.45,2.45,0,0,0-2.5-2.66,2.1,2.1,0,0,0-1.94,1.12v-1Zm12.35,4a3,3,0,0,0,.1-.78,3.2,3.2,0,0,0-3.27-3.32,3.59,3.59,0,0,0,.08,7.18,5.15,5.15,0,0,0,2.52-.63v-1.52a4.39,4.39,0,0,1-2.41.75,2,2,0,0,1-2.1-1.68Zm-3.19-2.81a1.69,1.69,0,0,1,1.81,1.62h-3.71a1.86,1.86,0,0,1,1.9-1.62Z" transform="translate(-374 68)"/><path class="cls-4" d="M453.17,532.51V531H449.5v-8h-1.6v9.52Zm4.25-3.28v-1.44h-3.65v1.44Zm5.21-3.61H461.1v-.52a.82.82,0,0,1,.89-.89,1.87,1.87,0,0,1,.7.15v-1.55a3.9,3.9,0,0,0-.76-.1,2.14,2.14,0,0,0-2.36,2.31v.6h-1v1.32h1v5.57h1.53v-5.57h1.53v-1.32Zm7.17,4a3.44,3.44,0,0,0,.1-.78,3.2,3.2,0,0,0-3.28-3.32,3.59,3.59,0,0,0,.09,7.18,5.18,5.18,0,0,0,2.52-.63v-1.52a4.41,4.41,0,0,1-2.41.75,2,2,0,0,1-2.1-1.68Zm-3.19-2.81a1.68,1.68,0,0,1,1.8,1.62H464.7a1.86,1.86,0,0,1,1.91-1.62Zm6.09-1.15h-1.54v6.89h1.54v-4.06a1.38,1.38,0,0,1,1.44-1.47,1.41,1.41,0,0,1,1.46,1.55v4h1.53v-4.37a2.46,2.46,0,0,0-2.5-2.66,2.08,2.08,0,0,0-1.93,1.12v-1Zm11,5a2.72,2.72,0,0,1-1.66.53,2.09,2.09,0,0,1,0-4.17,2.83,2.83,0,0,1,1.66.53v-1.65a3.72,3.72,0,0,0-1.66-.38,3.59,3.59,0,1,0,0,7.18,3.6,3.6,0,0,0,1.66-.4v-1.64Zm3-7.77h-1.54v9.66h1.54v-4.06a1.39,1.39,0,0,1,1.45-1.47,1.41,1.41,0,0,1,1.45,1.55v4h1.53v-4.37a2.45,2.45,0,0,0-2.5-2.66,2.09,2.09,0,0,0-1.93,1.12v-3.75Zm5.71,6.22a3.59,3.59,0,1,0,3.58-3.59,3.53,3.53,0,0,0-3.58,3.59Zm1.55,0a2,2,0,1,1,2,2.08,2,2,0,0,1-2-2.08Zm8.49-3.45h-1.54v6.89h1.54v-4.06a1.38,1.38,0,0,1,1.44-1.47,1.41,1.41,0,0,1,1.46,1.55v4h1.53v-4.37a2.46,2.46,0,0,0-2.5-2.66,2.08,2.08,0,0,0-1.93,1.12v-1Zm12.34,4a3,3,0,0,0,.1-.78,3.2,3.2,0,0,0-3.27-3.32,3.59,3.59,0,0,0,.08,7.18,5.15,5.15,0,0,0,2.52-.63v-1.52a4.39,4.39,0,0,1-2.41.75,2,2,0,0,1-2.1-1.68Zm-3.19-2.81a1.69,1.69,0,0,1,1.81,1.62H509.7a1.86,1.86,0,0,1,1.9-1.62Zm4.39-3.15-.27.48,1.3.77-1.3.75.27.48,1.31-.76v1.5h.55v-1.5l1.31.76.28-.49-1.32-.74,1.32-.77-.28-.48-1.31.77v-1.54h-.55v1.54l-1.31-.77Z" transform="translate(-374 68)"/><path class="cls-4" d="M438.27,505.16h1.53V495.5h-1.53v3.89a2.71,2.71,0,0,0-2.35-1.26,3.6,3.6,0,0,0,0,7.18,2.74,2.74,0,0,0,2.36-1.27v1.12Zm0-3.45a2.06,2.06,0,1,1-2.06-2.07,2.06,2.06,0,0,1,2.06,2.07Zm9.51.52a3.44,3.44,0,0,0,.1-.78,3.21,3.21,0,0,0-3.28-3.32,3.59,3.59,0,0,0,.08,7.18,5.12,5.12,0,0,0,2.52-.63v-1.52a4.35,4.35,0,0,1-2.4.75,2,2,0,0,1-2.1-1.68Zm-3.19-2.81a1.68,1.68,0,0,1,1.8,1.62h-3.71a1.86,1.86,0,0,1,1.91-1.62Zm6.1-3.92h-1.54v9.66h1.54V495.5Zm3.85,9.66v-5.57h1.25v-1.32h-1.25v-1.94l-1.46.33v1.61h-1.24v1.32H453v5.57Zm2.52-5.11a3.43,3.43,0,0,1,1.8-.55,1.3,1.3,0,0,1,1.45,1.38v.57a2.4,2.4,0,0,0-1.65-.66,2.25,2.25,0,0,0-2.37,2.26,2.19,2.19,0,0,0,2.34,2.26,2.1,2.1,0,0,0,1.68-.78v.63h1.54V500.9a2.5,2.5,0,0,0-2.82-2.77,4.77,4.77,0,0,0-2,.44v1.48Zm.75,3a1.25,1.25,0,1,1,1.24,1.11,1.19,1.19,0,0,1-1.24-1.11Zm9.3-1.16v-1.44h-3.65v1.44Zm2.09-.89h1.36a1.36,1.36,0,0,1,1.49,1.34,1.44,1.44,0,0,1-1.58,1.39,3.11,3.11,0,0,1-2-.69v1.82a5.35,5.35,0,0,0,2.09.46,2.87,2.87,0,0,0,3.13-2.75,2.42,2.42,0,0,0-1.48-2.34,2.27,2.27,0,0,0,1.22-2.14,2.66,2.66,0,0,0-2.94-2.58,4.43,4.43,0,0,0-1.9.43v1.74a3,3,0,0,1,1.84-.58,1.2,1.2,0,0,1,1.35,1.19,1.16,1.16,0,0,1-1.23,1.17H469.2V501Zm9.56.89v-1.44H475.1v1.44Zm6.52,1.39a2.69,2.69,0,0,1-1.65.53,2.09,2.09,0,0,1,0-4.17,2.77,2.77,0,0,1,1.65.53v-1.65a3.68,3.68,0,0,0-1.65-.38,3.59,3.59,0,1,0,0,7.18,3.56,3.56,0,0,0,1.65-.4v-1.64Zm1.7-3.22a3.4,3.4,0,0,1,1.8-.55,1.31,1.31,0,0,1,1.45,1.38v.57a2.4,2.4,0,0,0-1.66-.66,2.24,2.24,0,0,0-2.36,2.26,2.19,2.19,0,0,0,2.33,2.26,2.1,2.1,0,0,0,1.69-.78v.63h1.53V500.9a2.49,2.49,0,0,0-2.81-2.77,4.77,4.77,0,0,0-2,.44v1.48Zm.75,3a1.18,1.18,0,0,1,1.23-1.12,1.2,1.2,0,0,1,1.25,1.12,1.25,1.25,0,0,1-2.48,0Zm7.27-4.77h-1.54v6.89H495V501.1c0-.88.5-1.47,1.34-1.47a2.41,2.41,0,0,1,.93.18v-1.64a5.46,5.46,0,0,0-.58,0,1.86,1.86,0,0,0-1.69,1v-.84Zm9.38,4a3.44,3.44,0,0,0,.1-.78,3.2,3.2,0,0,0-3.28-3.32,3.59,3.59,0,0,0,.08,7.18,5.12,5.12,0,0,0,2.52-.63v-1.52a4.35,4.35,0,0,1-2.4.75,2,2,0,0,1-2.1-1.68Zm-3.19-2.81A1.69,1.69,0,0,1,503,501h-3.71a1.86,1.86,0,0,1,1.91-1.62Zm6.08-1.15h-1.53v6.89h1.53V501.1a1.45,1.45,0,1,1,2.9.08v4h1.54v-4.37a2.45,2.45,0,0,0-2.5-2.66,2.1,2.1,0,0,0-1.94,1.12v-1Zm12.35,4a3,3,0,0,0,.1-.78,3.2,3.2,0,0,0-3.27-3.32,3.59,3.59,0,0,0,.08,7.18,5.15,5.15,0,0,0,2.52-.63v-1.52a4.39,4.39,0,0,1-2.41.75,2,2,0,0,1-2.1-1.68Zm-3.19-2.81a1.69,1.69,0,0,1,1.81,1.62h-3.71a1.86,1.86,0,0,1,1.9-1.62Z" transform="translate(-374 68)"/><path class="cls-4" d="M447.74,476.69A2.69,2.69,0,0,0,450.1,478a3.6,3.6,0,0,0,0-7.18,2.67,2.67,0,0,0-2.35,1.26v-3.89H446.2v9.66h1.54v-1.12Zm0-2.33a2.05,2.05,0,1,1,4.1,0,2.05,2.05,0,1,1-4.1,0Zm13.25.52a3,3,0,0,0,.1-.78,3.2,3.2,0,0,0-3.27-3.32,3.59,3.59,0,0,0,.08,7.18,5.15,5.15,0,0,0,2.52-.63v-1.52a4.39,4.39,0,0,1-2.41.75,2,2,0,0,1-2.1-1.68Zm-3.19-2.81a1.69,1.69,0,0,1,1.81,1.62H455.9a1.86,1.86,0,0,1,1.9-1.62Zm6.57,5.74v-5.57h1.24v-1.32h-1.24V469l-1.46.33v1.61h-1.24v1.32h1.16v5.57Zm2.52-5.11a3.4,3.4,0,0,1,1.8-.55,1.31,1.31,0,0,1,1.45,1.38v.57a2.4,2.4,0,0,0-1.66-.66,2.24,2.24,0,0,0-2.36,2.26,2.19,2.19,0,0,0,2.33,2.26,2.1,2.1,0,0,0,1.69-.78v.63h1.53v-4.26a2.49,2.49,0,0,0-2.81-2.77,4.77,4.77,0,0,0-2,.44v1.48Zm.75,3a1.25,1.25,0,1,1,1.24,1.11,1.19,1.19,0,0,1-1.24-1.11Zm9.3-1.16v-1.44h-3.66v1.44Zm3.2-3.61h-1.53v9.76h1.53v-4A2.69,2.69,0,0,0,482.5,478a3.6,3.6,0,0,0,0-7.18,2.59,2.59,0,0,0-2.36,1.34v-1.2Zm0,3.45a2.06,2.06,0,1,1,2.06,2.08,2,2,0,0,1-2.06-2.08Zm8.59-3.45h-1.54v6.89h1.54v-6.89Zm-1.72-2.1a.93.93,0,0,0,.95.95,1,1,0,0,0,0-1.9.94.94,0,0,0-.95.95Zm5,2.1h-1.54v6.89H492v-4.06a1.39,1.39,0,0,1,1.44-1.47,1.41,1.41,0,0,1,1.46,1.55v4h1.54v-4.37a2.46,2.46,0,0,0-2.51-2.66A2.09,2.09,0,0,0,492,471.9v-1Zm12.35,4a3.44,3.44,0,0,0,.1-.78,3.2,3.2,0,0,0-3.28-3.32,3.59,3.59,0,0,0,.08,7.18,5.12,5.12,0,0,0,2.52-.63v-1.52a4.35,4.35,0,0,1-2.4.75,2,2,0,0,1-2.1-1.68Zm-3.19-2.81a1.69,1.69,0,0,1,1.8,1.62h-3.71a1.86,1.86,0,0,1,1.91-1.62Zm6.08-1.15h-1.53v6.89h1.53v-4.06a1.45,1.45,0,1,1,2.9.08v4h1.54v-4.37a2.45,2.45,0,0,0-2.5-2.66,2.1,2.1,0,0,0-1.94,1.12v-1Zm12.35,4a3,3,0,0,0,.1-.78,3.2,3.2,0,0,0-3.27-3.32,3.59,3.59,0,0,0,.08,7.18,5.15,5.15,0,0,0,2.52-.63v-1.52a4.39,4.39,0,0,1-2.41.75,2,2,0,0,1-2.1-1.68Zm-3.19-2.81a1.69,1.69,0,0,1,1.81,1.62h-3.71a1.86,1.86,0,0,1,1.9-1.62Z" transform="translate(-374 68)"/><path class="cls-4" d="M404.53,449.34a2.72,2.72,0,0,0,2.37,1.27,3.6,3.6,0,0,0,0-7.18,2.7,2.7,0,0,0-2.35,1.26V440.8H403v9.66h1.54v-1.12Zm0-2.33a2.05,2.05,0,1,1,2.06,2.09,2,2,0,0,1-2.06-2.09Zm13.26.52a3,3,0,0,0,.1-.78,3.2,3.2,0,0,0-3.28-3.32,3.59,3.59,0,0,0,.09,7.18,5.18,5.18,0,0,0,2.52-.63v-1.52a4.41,4.41,0,0,1-2.41.75,2,2,0,0,1-2.1-1.68Zm-3.19-2.81a1.68,1.68,0,0,1,1.8,1.62h-3.71a1.86,1.86,0,0,1,1.91-1.62Zm6.56,5.74v-5.57h1.25v-1.32h-1.25v-1.94l-1.45.33v1.61h-1.25v1.32h1.16v5.57Zm2.52-5.11a3.43,3.43,0,0,1,1.81-.55,1.3,1.3,0,0,1,1.44,1.38v.57a2.4,2.4,0,0,0-1.65-.66,2.25,2.25,0,0,0-2.37,2.26,2.2,2.2,0,0,0,2.34,2.26,2.08,2.08,0,0,0,1.68-.78v.63h1.54V446.2a2.49,2.49,0,0,0-2.81-2.77,4.82,4.82,0,0,0-2,.44v1.48Zm.76,3a1.18,1.18,0,0,1,1.23-1.12,1.2,1.2,0,0,1,1.25,1.12,1.25,1.25,0,0,1-2.48,0Zm9.3-1.16v-1.44h-3.66v1.44Zm6.52,1.39a2.69,2.69,0,0,1-1.65.53,2.09,2.09,0,0,1,0-4.17,2.8,2.8,0,0,1,1.65.53v-1.65a3.71,3.71,0,0,0-1.65-.38,3.59,3.59,0,1,0,0,7.18,3.59,3.59,0,0,0,1.65-.4v-1.64Zm1.69-3.22a3.46,3.46,0,0,1,1.81-.55,1.3,1.3,0,0,1,1.44,1.38v.57a2.4,2.4,0,0,0-1.65-.66,2.25,2.25,0,0,0-2.37,2.26,2.2,2.2,0,0,0,2.34,2.26,2.08,2.08,0,0,0,1.68-.78v.63h1.54V446.2a2.49,2.49,0,0,0-2.81-2.77,4.82,4.82,0,0,0-2,.44v1.48Zm.76,3a1.18,1.18,0,0,1,1.23-1.12,1.2,1.2,0,0,1,1.25,1.12,1.25,1.25,0,0,1-2.48,0Zm7.26-4.77h-1.53v6.89H450V446.4a1.34,1.34,0,0,1,1.35-1.47,2.32,2.32,0,0,1,.92.18v-1.64a5.27,5.27,0,0,0-.57,0,1.88,1.88,0,0,0-1.7,1v-.84Zm3.64,9.76h1.78l4.16-9.76h-1.74L456,448l-1.71-4.43h-1.72l2.59,6.36-1.57,3.4Zm6.22-6.31a3.59,3.59,0,1,0,3.59-3.59,3.54,3.54,0,0,0-3.59,3.59Zm1.55,0a2.05,2.05,0,0,1,2-2.09,2.09,2.09,0,0,1,0,4.17,2.05,2.05,0,0,1-2-2.08Zm8.49-3.45h-1.54v9.76h1.54v-4a2.66,2.66,0,0,0,2.35,1.27,3.6,3.6,0,0,0,0-7.18,2.56,2.56,0,0,0-2.35,1.34v-1.2Zm0,3.45a2.05,2.05,0,1,1,2.06,2.08,2,2,0,0,1-2.06-2.08Zm8.58-6.22h-1.54v9.66h1.54V446.4a1.45,1.45,0,1,1,2.9.08v4h1.54v-4.37a2.46,2.46,0,0,0-2.51-2.66,2.11,2.11,0,0,0-1.93,1.12V440.8Zm6.22,12.53h1.77l4.16-9.76h-1.73l-1.8,4.43-1.7-4.43h-1.72l2.59,6.36-1.57,3.4Zm8.41-12.53h-1.54v9.66h1.54V440.8Zm3.32,0h-1.54v9.66h1.54V440.8Zm8,6.73a3.44,3.44,0,0,0,.1-.78,3.2,3.2,0,0,0-3.28-3.32,3.59,3.59,0,0,0,.08,7.18,5.12,5.12,0,0,0,2.52-.63v-1.52a4.35,4.35,0,0,1-2.4.75,2,2,0,0,1-2.1-1.68Zm-3.19-2.81a1.69,1.69,0,0,1,1.8,1.62h-3.71a1.86,1.86,0,0,1,1.91-1.62Zm6.08-1.15h-1.53v6.89h1.53V446.4a1.45,1.45,0,1,1,2.9.08v4h1.54v-4.37a2.45,2.45,0,0,0-2.5-2.66,2.1,2.1,0,0,0-1.94,1.12v-1Zm12.35,4a3,3,0,0,0,.1-.78,3.2,3.2,0,0,0-3.27-3.32,3.59,3.59,0,0,0,.08,7.18,5.15,5.15,0,0,0,2.52-.63v-1.52a4.39,4.39,0,0,1-2.41.75,2,2,0,0,1-2.1-1.68Zm-3.19-2.81a1.69,1.69,0,0,1,1.81,1.62h-3.71a1.86,1.86,0,0,1,1.9-1.62Z" transform="translate(-374 68)"/><path class="cls-4" d="M562.35,724h1.9L567,719.7a3.72,3.72,0,0,0,.63-2,3.37,3.37,0,1,0-3.38,3.35h.09l-2,2.94Zm.14-6.29a1.74,1.74,0,1,1,3.48,0,1.74,1.74,0,1,1-3.48,0Z" transform="translate(-374 68)"/><path class="cls-4" d="M556.07,669.26h5.83v-1.53H560v-8h-3.57v1.52h2v6.47h-2.29v1.53Zm11.76-8.16v-1.36h-5.26v1.52h3.53l-3.25,8h1.83l3.15-8.16Z" transform="translate(-374 68)"/><path class="cls-4" d="M556.47,637.74h1.36a1.36,1.36,0,0,1,1.49,1.34,1.44,1.44,0,0,1-1.58,1.39,3.11,3.11,0,0,1-2-.69v1.82a5.31,5.31,0,0,0,2.09.46,2.88,2.88,0,0,0,3.13-2.75,2.42,2.42,0,0,0-1.48-2.34,2.27,2.27,0,0,0,1.22-2.14,2.66,2.66,0,0,0-2.94-2.58,4.48,4.48,0,0,0-1.91.43v1.74a3.07,3.07,0,0,1,1.85-.58,1.21,1.21,0,0,1,1.35,1.19,1.17,1.17,0,0,1-1.23,1.17h-1.36v1.54Zm6.52,0h1.36a1.37,1.37,0,0,1,1.5,1.34,1.45,1.45,0,0,1-1.59,1.39,3.06,3.06,0,0,1-2-.69v1.82a5.25,5.25,0,0,0,2.08.46,2.88,2.88,0,0,0,3.14-2.75A2.43,2.43,0,0,0,566,637a2.25,2.25,0,0,0,1.22-2.14,2.66,2.66,0,0,0-2.94-2.58,4.47,4.47,0,0,0-1.9.43v1.74a3.07,3.07,0,0,1,1.85-.58,1.2,1.2,0,0,1,1.34,1.19,1.16,1.16,0,0,1-1.23,1.17H563v1.54Z" transform="translate(-374 68)"/><path class="cls-4" d="M555.53,614.56h5.82V613h-1.94v-8h-3.57v1.52h2V613h-2.28v1.53Zm6.64,0h5.23V613h-3.19l2.13-2.69a4.19,4.19,0,0,0,1.09-2.76,2.63,2.63,0,0,0-2.91-2.68,3.8,3.8,0,0,0-2.17.71v1.81a2.88,2.88,0,0,1,2.06-.93,1.29,1.29,0,0,1,1.38,1.37,3.06,3.06,0,0,1-.85,1.82l-2.77,3.51v1.37Z" transform="translate(-374 68)"/><path class="cls-4" d="M555,559.86h1.91l2.72-4.26a3.72,3.72,0,0,0,.62-2,3.37,3.37,0,1,0-3.37,3.35H557l-2,2.94Zm.14-6.29a1.75,1.75,0,1,1,3.49,0,1.75,1.75,0,1,1-3.49,0Zm6.53-.76a2.19,2.19,0,0,0,1.09,2,2.51,2.51,0,0,0-1.41,2.33,3.09,3.09,0,0,0,6.17,0,2.47,2.47,0,0,0-1.42-2.31,2.25,2.25,0,0,0,1.1-2,2.77,2.77,0,0,0-5.53,0Zm1.2,4.26a1.57,1.57,0,1,1,1.56,1.52,1.52,1.52,0,0,1-1.56-1.52Zm.31-4.26a1.26,1.26,0,0,1,2.51,0,1.26,1.26,0,0,1-2.51,0Z" transform="translate(-374 68)"/><path class="cls-4" d="M562.17,505.16h5.23v-1.53h-3.19l2.13-2.69a4.19,4.19,0,0,0,1.09-2.76,2.63,2.63,0,0,0-2.91-2.68,3.8,3.8,0,0,0-2.17.71V498a2.88,2.88,0,0,1,2.06-.93,1.29,1.29,0,0,1,1.38,1.37,3.06,3.06,0,0,1-.85,1.82l-2.77,3.51v1.37Z" transform="translate(-374 68)"/><path class="cls-4" d="M554.35,477.81h5.83v-1.53h-1.95v-8h-3.57v1.52h2v6.47h-2.28v1.53Zm11.82-9.52h-1.91l-2.73,4.25a3.89,3.89,0,0,0-.61,2,3.37,3.37,0,1,0,6.73,0,3.24,3.24,0,0,0-3.36-3.28h-.12l2-3Zm-.14,6.3a1.75,1.75,0,1,1-1.74-1.77,1.75,1.75,0,0,1,1.74,1.77Z" transform="translate(-374 68)"/><path class="cls-4" d="M560,448.51V447h-1.22v-6.05h-1.59l-4.2,6.2v1.37h4.2v1.95h1.59v-1.95ZM554.63,447l2.51-3.77V447Zm7.72,3.47h1.9L567,446.2a3.72,3.72,0,0,0,.63-2,3.37,3.37,0,1,0-3.38,3.35h.09l-2,2.94Zm.14-6.29a1.74,1.74,0,1,1,3.48,0,1.74,1.74,0,1,1-3.48,0Z" transform="translate(-374 68)"/><path class="cls-1" d="M449.81,419.86a3.3,3.3,0,0,1-2.17.77,2.92,2.92,0,0,1,0-5.84,3.31,3.31,0,0,1,2.17.78v-2.28a5,5,0,0,0-2.17-.49,4.91,4.91,0,0,0,0,9.81,5,5,0,0,0,2.17-.49v-2.26Zm.93-2.15a4.9,4.9,0,1,0,4.89-4.91,4.8,4.8,0,0,0-4.89,4.91Zm2,0a2.85,2.85,0,1,1,2.85,2.92,2.86,2.86,0,0,1-2.85-2.92Zm15.2,4.75,2.22-5.94v5.94h2v-9.52h-2.42l-2.63,7-2.65-7h-2.43v9.52h2v-5.94l2.22,5.94Zm6.3,0h2V419h1.26a3,3,0,1,0,0-6h-3.25v9.52Zm4.34-6.5a1,1,0,0,1-1.12,1.1h-1.23v-2.2h1.23a1,1,0,0,1,1.12,1.1Zm2.9,1.75a4.9,4.9,0,1,0,4.9-4.91,4.8,4.8,0,0,0-4.9,4.91Zm2,0a2.85,2.85,0,1,1,2.86,2.92,2.87,2.87,0,0,1-2.86-2.92ZM498,412.94V419a1.65,1.65,0,0,1-3.29,0v-6.1h-2v5.94a3.63,3.63,0,1,0,7.26,0v-5.94Zm9.9,9.52h2v-9.52h-2V419l-4.17-6.06h-2.35v.14l.66,1.05v8.33h2V417l3.88,5.5Zm4.09,0h3.53a4.76,4.76,0,0,0,0-9.52H512v9.52Zm3.51-7.6a2.85,2.85,0,0,1,0,5.68H514v-5.68Z" transform="translate(-374 68)"/><path class="cls-1" d="M545.59,415.49h-1.91v9.84h1.91v-3.77a2.54,2.54,0,0,0,2.13,1.05,3.64,3.64,0,0,0,0-7.26,2.37,2.37,0,0,0-2.14,1.15v-1Zm0,3.48a1.74,1.74,0,1,1,1.75,1.77,1.73,1.73,0,0,1-1.75-1.77Zm8.55-3.48h-1.9v9.84h1.9v-3.77a2.55,2.55,0,0,0,2.13,1.05,3.64,3.64,0,0,0,0-7.26,2.39,2.39,0,0,0-2.14,1.15v-1Zm0,3.48a1.73,1.73,0,0,1,1.75-1.75,1.76,1.76,0,0,1,0,3.52,1.74,1.74,0,0,1-1.75-1.77Zm8.55-3.48h-1.9v7h1.9v-4.1a1.15,1.15,0,1,1,2.29.09v4h1.9v-4a1.13,1.13,0,0,1,1.16-1.24,1.1,1.1,0,0,1,1.12,1.24v4h1.91v-4.55a2.42,2.42,0,0,0-2.4-2.56,2.15,2.15,0,0,0-2.06,1.26,2.25,2.25,0,0,0-2.14-1.26,2.06,2.06,0,0,0-1.78,1v-.82Z" transform="translate(-374 68)"/><path class="cls-1" d="M647.7,417.71a4.8,4.8,0,0,0,4.9,4.9,4.91,4.91,0,0,0,2.59-.72l1,1,1.36-1.36-.92-.9a4.89,4.89,0,0,0,.91-2.88,4.9,4.9,0,1,0-9.8,0Zm2,0a2.85,2.85,0,1,1,5.7,0,2.5,2.5,0,0,1-.36,1.35l-1.42-1.42L652.3,419l1.35,1.35a2.16,2.16,0,0,1-1,.27,2.85,2.85,0,0,1-2.86-2.92Zm14.58-4.77V419a1.65,1.65,0,0,1-3.29,0v-6.1h-2v5.94a3.63,3.63,0,1,0,7.26,0v-5.94Zm9.73,9.52h2.22l-3.53-9.52h-2.22L667,422.46h2.23l.71-2h3.4l.72,2Zm-2.41-6.92,1.05,3h-2.1l1-3Zm11.56,6.92h2v-9.52h-2V419L679,412.94h-2.35v.14l.66,1.05v8.33h2V417l3.88,5.5Zm5.63,0h2v-7.6h2.31v-1.92h-6.61v1.92h2.31v7.6Zm5.63,0h2v-9.52h-2v9.52Zm5.63,0h2v-7.6h2.31v-1.92h-6.6v1.92h2.31v7.6Zm11,0h2.23l-3.53-9.52h-2.23L704,422.46h2.22l.72-2h3.4l.71,2Zm-2.41-6.92,1.05,3h-2.1l1-3Zm6.58,6.92h2v-7.6h2.31v-1.92h-6.61v1.92h2.31v7.6Zm5.63,0h2v-9.52h-2v9.52Zm6.51,0h2.23l3.53-9.52H730.9l-2.41,7.21-2.42-7.21h-2.23l3.53,9.52Zm12.18,0v-1.92h-3.43v-1.92h3.15v-1.91h-3.15v-1.85h3.43v-1.92h-5.42v9.52Zm4.85,0h2V419h1.26a3,3,0,1,0,0-6H744.4v9.52Zm4.34-6.5a1,1,0,0,1-1.12,1.1h-1.24v-2.2h1.24a1,1,0,0,1,1.12,1.1Zm3.48,6.5h2v-3.54h.49c1.16,0,2,1.47,2.31,3.54h2.06c-.23-2-.94-3.73-2.13-4.34a2.34,2.34,0,0,0,1.72-2.41c0-1.76-1.29-2.77-3.15-2.77h-3.29v9.52Zm4.4-6.52a1,1,0,0,1-1.11,1.06h-1.3v-2.14h1.3a1,1,0,0,1,1.11,1.08Zm3.2,1.77a4.9,4.9,0,1,0,4.9-4.91,4.81,4.81,0,0,0-4.9,4.91Zm2,0a2.85,2.85,0,1,1,2.85,2.92,2.86,2.86,0,0,1-2.85-2.92Zm14.4,1.32v-1.92h-3.15v-2.25h3.43v-1.92h-5.42v9.52h2V419Zm1.92,3.43h2v-9.52h-2v9.52Zm9.5,0v-1.92h-3.43v-7.6h-2v9.52Zm6.73,0v-1.92H791v-1.92h3.15v-1.91H791v-1.85h3.44v-1.92H789v9.52Z" transform="translate(-374 68)"/><path class="cls-4" d="M522.3,801.93h-.68v8.23h.68v-3.82a2.59,2.59,0,0,0,2.41,1.48,3,3,0,0,0,0-6,2.58,2.58,0,0,0-2.41,1.51v-1.39Zm0,2.88a2.31,2.31,0,1,1,2.31,2.34,2.28,2.28,0,0,1-2.31-2.34Zm7.42-2.88H529v8.23h.68v-3.82a2.59,2.59,0,0,0,2.4,1.48,3,3,0,0,0,0-6,2.58,2.58,0,0,0-2.4,1.51v-1.39Zm0,2.88a2.31,2.31,0,1,1,2.3,2.34,2.28,2.28,0,0,1-2.3-2.34Zm7.42-2.88h-.69v5.77h.69V804a1.44,1.44,0,0,1,1.52-1.55,1.46,1.46,0,0,1,1.5,1.63v3.59h.68v-3.59a1.52,1.52,0,1,1,3,0v3.59h.68V804a2,2,0,0,0-2.06-2.17,1.76,1.76,0,0,0-1.8,1.27,1.92,1.92,0,0,0-1.91-1.27,1.74,1.74,0,0,0-1.65,1v-.85Zm14.66-1.83a1.91,1.91,0,0,1,2,2v3a2,2,0,1,1-3.93,0v-3a1.91,1.91,0,0,1,2-2Zm0-.68a2.58,2.58,0,0,0-2.65,2.67v3a2.66,2.66,0,1,0,5.31,0v-3a2.59,2.59,0,0,0-2.66-2.67Zm4.12,7.81a.59.59,0,1,0,.58-.59.57.57,0,0,0-.58.59Zm5.3-7.13a1.91,1.91,0,0,1,2,2v3a2,2,0,1,1-3.93,0v-3a1.91,1.91,0,0,1,2-2Zm0-.68a2.58,2.58,0,0,0-2.65,2.67v3a2.66,2.66,0,1,0,5.31,0v-3a2.59,2.59,0,0,0-2.66-2.67Zm7,.68a1.9,1.9,0,0,1,2,2v3a2,2,0,1,1-3.92,0v-3a1.9,1.9,0,0,1,2-2Zm0-.68a2.59,2.59,0,0,0-2.65,2.67v3a2.66,2.66,0,1,0,5.32,0v-3a2.6,2.6,0,0,0-2.67-2.67Z" transform="translate(-374 68)"/><path class="cls-4" d="M683.09,807.7h4.65v-.65h-1.81v-7.51h-2.67v.64h2v6.87h-2.15v.65Zm8.39-7.6a1.91,1.91,0,0,1,2,2v3a2,2,0,1,1-3.93,0v-3a1.91,1.91,0,0,1,2-2Zm0-.68a2.59,2.59,0,0,0-2.66,2.67v3a2.66,2.66,0,1,0,5.32,0v-3a2.59,2.59,0,0,0-2.66-2.67Zm7,.68a1.91,1.91,0,0,1,2,2v3a2,2,0,1,1-3.93,0v-3a1.91,1.91,0,0,1,2-2Zm0-.68a2.58,2.58,0,0,0-2.65,2.67v3a2.66,2.66,0,1,0,5.31,0v-3a2.59,2.59,0,0,0-2.66-2.67Zm4.12,7.81a.59.59,0,1,0,.58-.59.57.57,0,0,0-.58.59Zm5.3-7.13a1.91,1.91,0,0,1,2,2v3a2,2,0,1,1-3.93,0v-3a1.91,1.91,0,0,1,2-2Zm0-.68a2.58,2.58,0,0,0-2.65,2.67v3a2.66,2.66,0,1,0,5.31,0v-3a2.59,2.59,0,0,0-2.66-2.67Zm7,.68a1.9,1.9,0,0,1,2,2v3a2,2,0,1,1-3.92,0v-3a1.9,1.9,0,0,1,2-2Zm0-.68a2.59,2.59,0,0,0-2.65,2.67v3a2.66,2.66,0,1,0,5.32,0v-3a2.6,2.6,0,0,0-2.67-2.67Z" transform="translate(-374 68)"/><path class="cls-4" d="M814.54,807.7h4.3v-.65h-3.46l2.4-3a3.84,3.84,0,0,0,1.05-2.45,2.1,2.1,0,0,0-2.28-2.16,2.85,2.85,0,0,0-1.86.73V801a2.48,2.48,0,0,1,1.84-.87,1.47,1.47,0,0,1,1.59,1.54,3.29,3.29,0,0,1-.94,2l-2.64,3.37v.64Zm8.44-7.6a1.9,1.9,0,0,1,2,2v3a2,2,0,1,1-3.92,0v-3a1.9,1.9,0,0,1,2-2Zm0-.68a2.59,2.59,0,0,0-2.65,2.67v3a2.66,2.66,0,1,0,5.32,0v-3a2.6,2.6,0,0,0-2.67-2.67Zm7,.68a1.91,1.91,0,0,1,2,2v3a2,2,0,1,1-3.93,0v-3a1.91,1.91,0,0,1,2-2Zm0-.68a2.58,2.58,0,0,0-2.65,2.67v3a2.66,2.66,0,1,0,5.31,0v-3a2.59,2.59,0,0,0-2.66-2.67Zm4.12,7.81a.59.59,0,1,0,.58-.59.57.57,0,0,0-.58.59Zm5.3-7.13a1.91,1.91,0,0,1,2,2v3a2,2,0,1,1-3.93,0v-3a1.91,1.91,0,0,1,2-2Zm0-.68a2.58,2.58,0,0,0-2.65,2.67v3a2.66,2.66,0,1,0,5.31,0v-3a2.59,2.59,0,0,0-2.66-2.67Zm7,.68a1.91,1.91,0,0,1,2,2v3a2,2,0,1,1-3.92,0v-3a1.9,1.9,0,0,1,2-2Zm0-.68a2.59,2.59,0,0,0-2.65,2.67v3a2.66,2.66,0,1,0,5.32,0v-3a2.6,2.6,0,0,0-2.67-2.67Z" transform="translate(-374 68)"/><path class="cls-5" d="M520.83,852.43h1.94v-9.71h2.94v-1.85h-7.82v1.85h2.94v9.71Zm4.67-4.18a4.36,4.36,0,1,0,4.36-4.36,4.3,4.3,0,0,0-4.36,4.36Zm1.89,0a2.48,2.48,0,0,1,2.47-2.54,2.54,2.54,0,0,1,0,5.07,2.48,2.48,0,0,1-2.47-2.53Zm10.8,4.18v-6.77h1.51v-1.6h-1.51V841.7l-1.77.41v1.95h-1.51v1.6h1.41v6.77Zm3.06-6.21a4.25,4.25,0,0,1,2.19-.66,1.57,1.57,0,0,1,1.75,1.67v.69a2.89,2.89,0,0,0-2-.8,2.74,2.74,0,0,0-2.88,2.74,2.68,2.68,0,0,0,2.84,2.76,2.49,2.49,0,0,0,2-1v.77h1.87v-5.17c0-2.36-1.34-3.37-3.41-3.37a5.83,5.83,0,0,0-2.4.53v1.8Zm.91,3.64a1.52,1.52,0,1,1,1.5,1.35,1.43,1.43,0,0,1-1.5-1.35ZM551,840.7h-1.87v11.73H551V840.7Zm7.7,11.73h1.94v-9.71h2.94v-1.85h-7.82v1.85h2.94v9.71Zm12.73-3.55a4,4,0,0,0-3.86-5,4.37,4.37,0,0,0,.11,8.73,6.34,6.34,0,0,0,3.06-.77V850a5.36,5.36,0,0,1-2.93.92,2.44,2.44,0,0,1-2.55-2Zm-3.87-3.42a2,2,0,0,1,2.19,2h-4.5a2.24,2.24,0,0,1,2.31-2Zm7.39-1.4h-1.87v8.37H575V847.5c0-1.07.61-1.79,1.64-1.79a2.94,2.94,0,0,1,1.12.22v-2a5.36,5.36,0,0,0-.7-.05,2.26,2.26,0,0,0-2.06,1.19v-1Zm5.95,0H579v11.85h1.87v-4.84a3.26,3.26,0,0,0,2.86,1.55,4.38,4.38,0,0,0,0-8.73,3.12,3.12,0,0,0-2.86,1.64v-1.47Zm0,4.19a2.5,2.5,0,1,1,2.5,2.53,2.49,2.49,0,0,1-2.5-2.53Zm16.1.63a4,4,0,0,0-3.86-5,4.37,4.37,0,0,0,.11,8.73,6.31,6.31,0,0,0,3.06-.77V850a5.34,5.34,0,0,1-2.93.92,2.44,2.44,0,0,1-2.55-2Zm-3.87-3.42a2,2,0,0,1,2.19,2h-4.5a2.25,2.25,0,0,1,2.31-2Zm7.39-1.4h-1.87v8.37h1.87V847.5a1.76,1.76,0,1,1,3.52.1v4.83h1.87v-5.31a3,3,0,0,0-3-3.23,2.56,2.56,0,0,0-2.35,1.36v-1.19Zm15,4.82a4,4,0,0,0-3.86-5,4.37,4.37,0,0,0,.1,8.73,6.28,6.28,0,0,0,3.06-.77V850a5.33,5.33,0,0,1-2.92.92,2.44,2.44,0,0,1-2.55-2Zm-3.88-3.42a2.06,2.06,0,0,1,2.2,2h-4.51a2.26,2.26,0,0,1,2.31-2Zm5.38,5.93a1.17,1.17,0,0,0,1.2,1.21,1.22,1.22,0,1,0,0-2.43,1.17,1.17,0,0,0-1.2,1.22Zm0-6a1.17,1.17,0,0,0,1.2,1.21,1.19,1.19,0,0,0,1.25-1.21,1.21,1.21,0,0,0-1.25-1.22,1.18,1.18,0,0,0-1.2,1.22Zm7.58,2.89,7.63,3v-1.53l-5.78-2.14,5.78-2.18v-1.53l-7.63,3v1.44ZM638,842.58a2.05,2.05,0,0,1,2.11,2.22v3.7a2.12,2.12,0,1,1-4.23,0v-3.7a2,2,0,0,1,2.12-2.22Zm0-1.9a3.94,3.94,0,0,0-4.06,4.06v3.81a4.06,4.06,0,1,0,8.11,0v-3.81a3.94,3.94,0,0,0-4.05-4.06Zm5.7,10.59a1.33,1.33,0,1,0,2.65,0,1.33,1.33,0,1,0-2.65,0Zm4,1.16h7.08v-1.85h-2.37v-9.71h-4.33v1.85h2.4v7.86h-2.78v1.85Zm11.07-8.37,2.54,8.37h2l1.8-5.12,2,5.12h2l2.55-8.37h-2L668,850.13l-2.3-6.07h-1.86l.4,1.09-1.73,5-1.7-6.07Zm16.61,8.37v-6.77H677v-1.6h-1.52V841.7l-1.76.41v1.95h-1.52v1.6h1.41v6.77Zm5.82,0h1.41l5.15-11.56h-1.43l-5.13,11.56ZM680.45,842a1.12,1.12,0,0,1,1.22,1.16v2.09a1.22,1.22,0,0,1-2.43,0V843.2a1.12,1.12,0,0,1,1.21-1.16Zm0-1.34a2.45,2.45,0,0,0-2.59,2.46v2.16a2.6,2.6,0,0,0,5.19,0v-2.16a2.46,2.46,0,0,0-2.6-2.46Zm8.14,6.15a1.12,1.12,0,0,1,1.22,1.16v2.07a1.22,1.22,0,0,1-2.44,0V848a1.11,1.11,0,0,1,1.22-1.16Zm0-1.34A2.46,2.46,0,0,0,686,848v2.16a2.6,2.6,0,0,0,5.2,0V848a2.46,2.46,0,0,0-2.6-2.46Z" transform="translate(-374 68)"/></svg>