<svg id="Layer_1" data-name="Layer 1" xmlns="http://www.w3.org/2000/svg" viewBox="0 0 475.04 930.66"><defs><style>.cls-1,.cls-5,.cls-6{fill:#941a27;}.cls-2{fill:#231f20;}.cls-3{fill:#fdd8cb;}.cls-4{fill:none;stroke:#fff;}.cls-5,.cls-6{font-size:14px;font-family:NiveauGroteskBold, Niveau Grotesk;font-weight:700;}.cls-6{letter-spacing:-0.04em;}.cls-7{fill:#fbc7b5;}</style></defs><title>Good-Day-Terp-3</title><polygon class="cls-1" points="0 906.13 0 930.66 461.4 930.66 461.4 906.13 0 906.13 0 906.13"/><path class="cls-2" d="M814.54,358h4.3v-.65h-3.46l2.4-3a3.79,3.79,0,0,0,1.05-2.44,2.1,2.1,0,0,0-2.28-2.16,2.85,2.85,0,0,0-1.86.73v.83a2.48,2.48,0,0,1,1.84-.87,1.47,1.47,0,0,1,1.59,1.54,3.29,3.29,0,0,1-.94,2l-2.64,3.37V358Zm8.44-7.6a1.9,1.9,0,0,1,2,2v3a2,2,0,1,1-3.92,0v-3a1.9,1.9,0,0,1,2-2Zm0-.68a2.59,2.59,0,0,0-2.65,2.67v3.05a2.66,2.66,0,1,0,5.32,0v-3.05a2.6,2.6,0,0,0-2.67-2.67Zm7,.68a1.91,1.91,0,0,1,2,2v3a2,2,0,1,1-3.93,0v-3a1.91,1.91,0,0,1,2-2Zm0-.68a2.58,2.58,0,0,0-2.65,2.67v3.05a2.66,2.66,0,1,0,5.31,0v-3.05a2.59,2.59,0,0,0-2.66-2.67Zm4.12,7.81a.59.59,0,1,0,.58-.59.57.57,0,0,0-.58.59Zm5.3-7.13a1.91,1.91,0,0,1,2,2v3a2,2,0,1,1-3.93,0v-3a1.91,1.91,0,0,1,2-2Zm0-.68a2.58,2.58,0,0,0-2.65,2.67v3.05a2.66,2.66,0,1,0,5.31,0v-3.05a2.59,2.59,0,0,0-2.66-2.67Zm7,.68a1.91,1.91,0,0,1,2,2v3a2,2,0,1,1-3.92,0v-3a1.9,1.9,0,0,1,2-2Zm0-.68a2.59,2.59,0,0,0-2.65,2.67v3.05a2.66,2.66,0,1,0,5.32,0v-3.05a2.6,2.6,0,0,0-2.67-2.67Z" transform="translate(-374 69)"/><path class="cls-2" d="M814.54,808.8h4.3v-.65h-3.46l2.4-3a3.79,3.79,0,0,0,1.05-2.44,2.1,2.1,0,0,0-2.28-2.16,2.85,2.85,0,0,0-1.86.73v.83a2.48,2.48,0,0,1,1.84-.87,1.47,1.47,0,0,1,1.59,1.54,3.29,3.29,0,0,1-.94,2l-2.64,3.37v.64Zm8.44-7.6a1.9,1.9,0,0,1,2,2v3a2,2,0,1,1-3.92,0v-3a1.9,1.9,0,0,1,2-2Zm0-.68a2.59,2.59,0,0,0-2.65,2.67v3a2.66,2.66,0,1,0,5.32,0v-3a2.6,2.6,0,0,0-2.67-2.67Zm7,.68a1.91,1.91,0,0,1,2,2v3a2,2,0,1,1-3.93,0v-3a1.91,1.91,0,0,1,2-2Zm0-.68a2.58,2.58,0,0,0-2.65,2.67v3a2.66,2.66,0,1,0,5.31,0v-3a2.59,2.59,0,0,0-2.66-2.67Zm4.12,7.81a.59.59,0,1,0,.58-.59.57.57,0,0,0-.58.59Zm5.3-7.13a1.91,1.91,0,0,1,2,2v3a2,2,0,1,1-3.93,0v-3a1.91,1.91,0,0,1,2-2Zm0-.68a2.58,2.58,0,0,0-2.65,2.67v3a2.66,2.66,0,1,0,5.31,0v-3a2.59,2.59,0,0,0-2.66-2.67Zm7,.68a1.91,1.91,0,0,1,2,2v3a2,2,0,1,1-3.92,0v-3a1.9,1.9,0,0,1,2-2Zm0-.68a2.59,2.59,0,0,0-2.65,2.67v3a2.66,2.66,0,1,0,5.32,0v-3a2.6,2.6,0,0,0-2.67-2.67Z" transform="translate(-374 69)"/><polygon class="cls-3" points="0 129.46 0 158.26 461.4 158.26 461.4 129.46 0 129.46 0 129.46"/><polygon class="cls-3" points="0 19.86 0 48.66 461.4 48.66 461.4 19.86 0 19.86 0 19.86"/><polygon class="cls-3" points="0 74.66 0 103.46 461.4 103.46 461.4 74.66 0 74.66 0 74.66"/><polygon class="cls-3" points="0 184.26 0 213.06 461.4 213.06 461.4 184.26 0 184.26 0 184.26"/><polygon class="cls-3" points="0 239.06 0 267.86 461.4 267.86 461.4 239.06 0 239.06 0 239.06"/><polygon class="cls-3" points="0 293.86 0 322.66 461.4 322.66 461.4 293.86 0 293.86 0 293.86"/><polygon class="cls-3" points="0 348.66 0 377.46 461.4 377.46 461.4 348.66 0 348.66 0 348.66"/><polygon class="cls-3" points="0 610.26 0 639.06 461.4 639.06 461.4 610.26 0 610.26 0 610.26"/><polygon class="cls-3" points="0 500.66 0 529.46 461.4 529.46 461.4 500.66 0 500.66 0 500.66"/><polygon class="cls-3" points="0 555.46 0 584.26 461.4 584.26 461.4 555.46 0 555.46 0 555.46"/><polygon class="cls-3" points="0 665.06 0 693.86 461.4 693.86 461.4 665.06 0 665.06 0 665.06"/><polygon class="cls-3" points="0 719.86 0 748.66 461.4 748.66 461.4 719.86 0 719.86 0 719.86"/><polygon class="cls-3" points="0 774.66 0 803.46 461.4 803.46 461.4 774.66 0 774.66 0 774.66"/><polygon class="cls-3" points="0 829.46 0 858.26 461.4 858.26 461.4 829.46 0 829.46 0 829.46"/><path class="cls-4" d="M374,337.66H835.4m-.5-.5V-48.74M573.29,337.16V-48.74M704.5,337.16V-48.74M374-49.24H835.4" transform="translate(-374 69)"/><path class="cls-2" d="M426,321.2a3.43,3.43,0,0,1,1.81-.55,1.3,1.3,0,0,1,1.44,1.38v.57a2.35,2.35,0,0,0-1.65-.66,2.24,2.24,0,0,0-2.36,2.25,2.19,2.19,0,0,0,2.33,2.27,2.08,2.08,0,0,0,1.68-.78v.63h1.54v-4.26a2.49,2.49,0,0,0-2.81-2.77,5,5,0,0,0-2,.43v1.49Zm.76,3a1.18,1.18,0,0,1,1.23-1.12,1.2,1.2,0,0,1,1.25,1.12,1.25,1.25,0,0,1-2.48,0Zm7.28-7.54h-1.54v9.66H434v-9.66Zm3.3,2.77H435.8v9.76h1.53v-4a2.69,2.69,0,0,0,2.36,1.27,3.6,3.6,0,0,0,0-7.18,2.59,2.59,0,0,0-2.36,1.34v-1.2Zm0,3.45a2.06,2.06,0,1,1,2.06,2.08,2,2,0,0,1-2.06-2.08Zm8.58-6.22h-1.53v9.66h1.53v-4.06a1.45,1.45,0,1,1,2.9.08v4h1.54v-4.37a2.46,2.46,0,0,0-2.5-2.66,2.11,2.11,0,0,0-1.94,1.12v-3.75Zm6.39,4.55a3.4,3.4,0,0,1,1.8-.55,1.3,1.3,0,0,1,1.45,1.38v.57a2.35,2.35,0,0,0-1.65-.66,2.25,2.25,0,0,0-2.37,2.25,2.2,2.2,0,0,0,2.34,2.27,2.08,2.08,0,0,0,1.68-.78v.63h1.54v-4.26a2.5,2.5,0,0,0-2.82-2.77,4.94,4.94,0,0,0-2,.43v1.49Zm.75,3a1.25,1.25,0,1,1,1.24,1.11,1.19,1.19,0,0,1-1.24-1.11Zm10.87,2.12v-5.57h1.24v-1.32h-1.24v-1.94l-1.46.33v1.61h-1.24v1.32h1.16v5.57Zm8.43-2.93a3.56,3.56,0,0,0,.09-.78,3.2,3.2,0,0,0-3.27-3.32,3.59,3.59,0,0,0,.08,7.18,5.12,5.12,0,0,0,2.52-.63v-1.52a4.35,4.35,0,0,1-2.4.75,2,2,0,0,1-2.1-1.68Zm-3.19-2.81a1.69,1.69,0,0,1,1.8,1.62h-3.71a1.86,1.86,0,0,1,1.91-1.62Zm6.08-1.15h-1.53v6.89h1.53v-4.06a1.34,1.34,0,0,1,1.35-1.47,2.32,2.32,0,0,1,.92.18v-1.64a5.27,5.27,0,0,0-.57,0,1.88,1.88,0,0,0-1.7,1v-.84Zm4.9,0h-1.53v9.76h1.53v-4a2.69,2.69,0,0,0,2.36,1.27,3.6,3.6,0,0,0,0-7.18,2.59,2.59,0,0,0-2.36,1.34v-1.2Zm0,3.45A2.06,2.06,0,1,1,482.2,325a2,2,0,0,1-2.06-2.08Zm8.59-3.45h-1.54v6.89h1.54v-6.89Zm-1.72-2.1a.93.93,0,0,0,.95.95,1,1,0,0,0,0-1.9.94.94,0,0,0-.95.95Zm5,2.1h-1.54v6.89H492v-4.06a1.39,1.39,0,0,1,1.44-1.47,1.41,1.41,0,0,1,1.46,1.55v4h1.54v-4.37a2.46,2.46,0,0,0-2.51-2.66A2.09,2.09,0,0,0,492,320.4v-1Zm12.35,4a3.52,3.52,0,0,0,.1-.78,3.2,3.2,0,0,0-3.28-3.32,3.59,3.59,0,0,0,.08,7.18,5.12,5.12,0,0,0,2.52-.63v-1.52a4.35,4.35,0,0,1-2.4.75,2,2,0,0,1-2.1-1.68Zm-3.19-2.81a1.69,1.69,0,0,1,1.8,1.62h-3.71a1.86,1.86,0,0,1,1.91-1.62Zm6.08-1.15h-1.53v6.89h1.53v-4.06a1.45,1.45,0,1,1,2.9.08v4h1.54v-4.37a2.45,2.45,0,0,0-2.5-2.66,2.1,2.1,0,0,0-1.94,1.12v-1Zm12.35,4a3,3,0,0,0,.1-.78,3.2,3.2,0,0,0-3.27-3.32,3.59,3.59,0,0,0,.08,7.18,5.15,5.15,0,0,0,2.52-.63v-1.52a4.39,4.39,0,0,1-2.41.75,2,2,0,0,1-2.1-1.68Zm-3.19-2.81a1.69,1.69,0,0,1,1.81,1.62h-3.71a1.86,1.86,0,0,1,1.9-1.62Z" transform="translate(-374 69)"/><path class="cls-2" d="M440.58,293.85a3.43,3.43,0,0,1,1.81-.55,1.3,1.3,0,0,1,1.44,1.38v.57a2.35,2.35,0,0,0-1.65-.66,2.25,2.25,0,0,0-2.37,2.25,2.2,2.2,0,0,0,2.34,2.27,2.08,2.08,0,0,0,1.68-.78V299h1.54V294.7a2.5,2.5,0,0,0-2.81-2.77,5,5,0,0,0-2,.43v1.49Zm.76,3a1.18,1.18,0,0,1,1.23-1.12,1.2,1.2,0,0,1,1.25,1.12,1.25,1.25,0,0,1-2.48,0Zm7.28-7.54h-1.54V299h1.54V289.3Zm3.3,2.77h-1.54v9.76h1.54v-4a2.69,2.69,0,0,0,2.35,1.27,3.6,3.6,0,0,0,0-7.18,2.58,2.58,0,0,0-2.35,1.34v-1.2Zm0,3.45A2.05,2.05,0,1,1,454,297.6a2,2,0,0,1-2.06-2.08Zm8.58-6.22H459V299h1.54V294.9a1.45,1.45,0,1,1,2.9.08v4h1.54v-4.37a2.46,2.46,0,0,0-2.5-2.66,2.11,2.11,0,0,0-1.94,1.12V289.3Zm6.39,4.55a3.4,3.4,0,0,1,1.8-.55,1.3,1.3,0,0,1,1.45,1.38v.57a2.36,2.36,0,0,0-1.66-.66,2.24,2.24,0,0,0-2.36,2.25,2.19,2.19,0,0,0,2.33,2.27,2.1,2.1,0,0,0,1.69-.78V299h1.53V294.7a2.49,2.49,0,0,0-2.81-2.77,4.94,4.94,0,0,0-2,.43v1.49Zm.75,3a1.25,1.25,0,1,1,1.24,1.11,1.19,1.19,0,0,1-1.24-1.11Zm9.3-1.16v-1.44h-3.66v1.44Zm3.2-3.61h-1.53v9.76h1.53v-4a2.69,2.69,0,0,0,2.36,1.27,3.6,3.6,0,0,0,0-7.18,2.59,2.59,0,0,0-2.36,1.34v-1.2Zm0,3.45a2.06,2.06,0,1,1,2.06,2.08,2,2,0,0,1-2.06-2.08Zm8.59-3.45h-1.54V299h1.54v-6.89ZM487,290a.93.93,0,0,0,.95.95,1,1,0,0,0,0-1.9.94.94,0,0,0-.95,1Zm5,2.1h-1.54V299H492V294.9a1.39,1.39,0,0,1,1.44-1.47,1.41,1.41,0,0,1,1.46,1.55v4h1.54v-4.37a2.46,2.46,0,0,0-2.51-2.66,2.09,2.09,0,0,0-1.93,1.12v-1Zm12.35,4a3.52,3.52,0,0,0,.1-.78,3.2,3.2,0,0,0-3.28-3.32,3.59,3.59,0,0,0,.08,7.18,5.12,5.12,0,0,0,2.52-.63V297a4.35,4.35,0,0,1-2.4.75,2,2,0,0,1-2.1-1.68Zm-3.19-2.81a1.69,1.69,0,0,1,1.8,1.62h-3.71a1.86,1.86,0,0,1,1.91-1.62Zm6.08-1.15h-1.53V299h1.53V294.9a1.45,1.45,0,1,1,2.9.08v4h1.54v-4.37a2.45,2.45,0,0,0-2.5-2.66,2.1,2.1,0,0,0-1.94,1.12v-1Zm12.35,4a3,3,0,0,0,.1-.78,3.2,3.2,0,0,0-3.27-3.32,3.59,3.59,0,0,0,.08,7.18,5.15,5.15,0,0,0,2.52-.63V297a4.39,4.39,0,0,1-2.41.75,2,2,0,0,1-2.1-1.68Zm-3.19-2.81a1.69,1.69,0,0,1,1.81,1.62h-3.71a1.86,1.86,0,0,1,1.9-1.62Z" transform="translate(-374 69)"/><path class="cls-2" d="M427.55,266.5a3.4,3.4,0,0,1,1.8-.55,1.3,1.3,0,0,1,1.45,1.38v.57a2.36,2.36,0,0,0-1.66-.66,2.24,2.24,0,0,0-2.36,2.25,2.19,2.19,0,0,0,2.33,2.27,2.1,2.1,0,0,0,1.69-.78v.63h1.54v-4.26a2.5,2.5,0,0,0-2.82-2.77,4.94,4.94,0,0,0-2,.43v1.49Zm.75,3a1.25,1.25,0,1,1,1.24,1.11,1.19,1.19,0,0,1-1.24-1.11Zm7.28-7.54H434v9.66h1.54V262Zm3.31,2.77h-1.54v9.76h1.54v-4a2.66,2.66,0,0,0,2.35,1.27,3.6,3.6,0,0,0,0-7.18,2.56,2.56,0,0,0-2.35,1.34v-1.2Zm0,3.45a2.05,2.05,0,1,1,2.06,2.08,2,2,0,0,1-2.06-2.08Zm8.58-6.22h-1.54v9.66h1.54v-4.06a1.39,1.39,0,0,1,1.45-1.47,1.41,1.41,0,0,1,1.45,1.55v4h1.54v-4.37a2.46,2.46,0,0,0-2.51-2.66,2.11,2.11,0,0,0-1.93,1.12V262Zm6.38,4.55a3.43,3.43,0,0,1,1.81-.55,1.3,1.3,0,0,1,1.44,1.38v.57a2.35,2.35,0,0,0-1.65-.66,2.25,2.25,0,0,0-2.37,2.25,2.2,2.2,0,0,0,2.34,2.27,2.08,2.08,0,0,0,1.68-.78v.63h1.54v-4.26a2.5,2.5,0,0,0-2.81-2.77,5,5,0,0,0-2,.43v1.49Zm.76,3a1.18,1.18,0,0,1,1.23-1.12,1.2,1.2,0,0,1,1.25,1.12,1.25,1.25,0,0,1-2.48,0Zm9.3-1.16v-1.44h-3.66v1.44Zm3.2,2.16a2.72,2.72,0,0,0,2.37,1.27,3.6,3.6,0,0,0,0-7.18,2.7,2.7,0,0,0-2.35,1.26V262h-1.54v9.66h1.54v-1.12Zm0-2.33a2.05,2.05,0,1,1,2.06,2.09,2,2,0,0,1-2.06-2.09Zm8.58-3.44h-1.54v6.89h1.54v-6.89Zm-1.72-2.1a.94.94,0,0,0,.95.95,1,1,0,0,0,0-1.9.94.94,0,0,0-.95.95Zm7.21,2.24a5.08,5.08,0,0,0-1.6-.28c-1.56,0-2.43.83-2.43,2a1.88,1.88,0,0,0,1,1.71l1.18.7c.43.25.59.48.59.76s-.34.71-1,.71a2.89,2.89,0,0,1-1.7-.64v1.58a4.54,4.54,0,0,0,1.79.39c1.55,0,2.46-.84,2.46-2a2,2,0,0,0-1.15-1.82l-1.1-.66c-.34-.21-.52-.36-.52-.65s.31-.68.9-.68a3,3,0,0,1,1.55.49v-1.55Zm1.95,1.64a3.4,3.4,0,0,1,1.8-.55,1.3,1.3,0,0,1,1.45,1.38v.57a2.36,2.36,0,0,0-1.66-.66,2.24,2.24,0,0,0-2.36,2.25,2.19,2.19,0,0,0,2.33,2.27,2.1,2.1,0,0,0,1.69-.78v.63h1.53v-4.26a2.49,2.49,0,0,0-2.81-2.77,4.94,4.94,0,0,0-2,.43v1.49Zm.75,3a1.18,1.18,0,0,1,1.23-1.12,1.2,1.2,0,0,1,1.25,1.12,1.25,1.25,0,0,1-2.48,0Zm7.27,1a2.69,2.69,0,0,0,2.36,1.27,3.6,3.6,0,0,0,0-7.18,2.67,2.67,0,0,0-2.35,1.26V262h-1.54v9.66h1.54v-1.12Zm0-2.33a2.05,2.05,0,1,1,2.06,2.09,2,2,0,0,1-2.06-2.09Zm6.62,0a3.59,3.59,0,1,0,3.58-3.58,3.54,3.54,0,0,0-3.58,3.58Zm1.55,0a2,2,0,0,1,2-2.08,2.09,2.09,0,0,1,0,4.17,2.05,2.05,0,0,1-2-2.09Zm8.5-6.21h-1.54v9.66h1.54V262Zm1.35,6.21a3.58,3.58,0,1,0,3.58-3.58,3.54,3.54,0,0,0-3.58,3.58Zm1.55,0a2,2,0,1,1,2,2.09,2,2,0,0,1-2-2.09Zm8.5-6.21h-1.54v9.66h1.54V262Z" transform="translate(-374 69)"/><path class="cls-2" d="M452.52,244.26v-5.57h1.25v-1.32h-1.25v-1.94l-1.45.33v1.61h-1.25v1.32H451v5.57Zm8.43-2.93a3,3,0,0,0,.1-.78,3.2,3.2,0,0,0-3.28-3.32,3.59,3.59,0,0,0,.09,7.18,5.18,5.18,0,0,0,2.52-.63v-1.52A4.39,4.39,0,0,1,458,243a2,2,0,0,1-2.1-1.68Zm-3.19-2.81a1.69,1.69,0,0,1,1.81,1.62h-3.71a1.85,1.85,0,0,1,1.9-1.62Zm6.09-1.15h-1.54v6.89h1.54V240.2c0-.88.5-1.47,1.34-1.47a2.41,2.41,0,0,1,.93.18v-1.64a5.46,5.46,0,0,0-.58,0,1.86,1.86,0,0,0-1.69,1v-.84Zm4.9,0h-1.54v9.76h1.54v-4a2.66,2.66,0,0,0,2.35,1.27,3.6,3.6,0,0,0,0-7.18,2.56,2.56,0,0,0-2.35,1.34v-1.2Zm0,3.45a2.05,2.05,0,1,1,2.06,2.08,2,2,0,0,1-2.06-2.08Zm8.58-3.45h-1.54v6.89h1.54v-6.89Zm-1.72-2.1a.95.95,0,1,0,.95-1,.93.93,0,0,0-.95,1Zm5,2.1H479.1v6.89h1.53V240.2a1.45,1.45,0,1,1,2.9.08v4h1.54v-4.37a2.46,2.46,0,0,0-2.5-2.66,2.1,2.1,0,0,0-1.94,1.12v-1Zm5.72,3.44a3.58,3.58,0,1,0,3.58-3.58,3.54,3.54,0,0,0-3.58,3.58Zm1.55,0a2,2,0,1,1,2,2.09,2,2,0,0,1-2-2.09Zm8.5-6.21h-1.54v9.66h1.54V234.6Zm8,6.73a3.52,3.52,0,0,0,.1-.78,3.2,3.2,0,0,0-3.28-3.32,3.59,3.59,0,0,0,.08,7.18,5.12,5.12,0,0,0,2.52-.63v-1.52a4.35,4.35,0,0,1-2.4.75,2,2,0,0,1-2.1-1.68Zm-3.19-2.81a1.69,1.69,0,0,1,1.8,1.62h-3.71a1.86,1.86,0,0,1,1.91-1.62Zm6.08-1.15h-1.53v6.89h1.53V240.2a1.45,1.45,0,1,1,2.9.08v4h1.54v-4.37a2.45,2.45,0,0,0-2.5-2.66,2.1,2.1,0,0,0-1.94,1.12v-1Zm12.35,4a3,3,0,0,0,.1-.78,3.2,3.2,0,0,0-3.27-3.32,3.59,3.59,0,0,0,.08,7.18,5.15,5.15,0,0,0,2.52-.63v-1.52a4.39,4.39,0,0,1-2.41.75,2,2,0,0,1-2.1-1.68Zm-3.19-2.81a1.69,1.69,0,0,1,1.81,1.62h-3.71a1.86,1.86,0,0,1,1.9-1.62Z" transform="translate(-374 69)"/><path class="cls-2" d="M476.23,210v1.12a2.76,2.76,0,0,0-2.4-1.26,3.49,3.49,0,0,0,0,7,2.79,2.79,0,0,0,2.38-1.23v.8a2,2,0,0,1-2.18,2.06,4.49,4.49,0,0,1-2.36-.73v1.61a5.16,5.16,0,0,0,2.36.56,3.38,3.38,0,0,0,3.71-3.68V210Zm-.09,3.35a2,2,0,1,1-2-2,1.94,1.94,0,0,1,2,2Zm9.63.61a3,3,0,0,0,.1-.78,3.2,3.2,0,0,0-3.27-3.32,3.59,3.59,0,0,0,.08,7.18,5.15,5.15,0,0,0,2.52-.63v-1.52a4.39,4.39,0,0,1-2.41.75,2,2,0,0,1-2.1-1.68Zm-3.19-2.81a1.69,1.69,0,0,1,1.81,1.62h-3.71a1.86,1.86,0,0,1,1.9-1.62Zm6.09-1.15h-1.54v6.89h1.54v-4.06c0-.88.5-1.47,1.34-1.47a2.37,2.37,0,0,1,.93.18v-1.64a5.28,5.28,0,0,0-.58,0,1.86,1.86,0,0,0-1.69,1V210Zm3.46,1.78a3.4,3.4,0,0,1,1.8-.55,1.3,1.3,0,0,1,1.45,1.38v.57a2.36,2.36,0,0,0-1.66-.66,2.24,2.24,0,0,0-2.36,2.25,2.2,2.2,0,0,0,2.34,2.27,2.1,2.1,0,0,0,1.68-.78v.63h1.54v-4.26a2.5,2.5,0,0,0-2.82-2.77,4.94,4.94,0,0,0-2,.43v1.49Zm.75,3a1.25,1.25,0,1,1,1.24,1.11,1.19,1.19,0,0,1-1.24-1.11Zm7.27-4.77h-1.54v6.89h1.54v-4.06a1.39,1.39,0,0,1,1.44-1.47,1.41,1.41,0,0,1,1.46,1.55v4h1.54v-4.37a2.46,2.46,0,0,0-2.51-2.66,2.09,2.09,0,0,0-1.93,1.12v-1Zm7.67,0h-1.54v6.89h1.54V210Zm-1.72-2.1a.94.94,0,0,0,.95,1,1,1,0,0,0,0-1.9.94.94,0,0,0-.95.95Zm3.07,5.54a3.58,3.58,0,1,0,3.58-3.58,3.54,3.54,0,0,0-3.58,3.58Zm1.55,0a2,2,0,1,1,2,2.09,2,2,0,0,1-2-2.09Zm8.5-6.21h-1.54v9.66h1.54v-9.66Z" transform="translate(-374 69)"/><path class="cls-2" d="M464.27,186.63a3.52,3.52,0,0,0,.1-.78,3.21,3.21,0,0,0-3.28-3.32,3.59,3.59,0,0,0,.09,7.18,5.11,5.11,0,0,0,2.51-.63v-1.52a4.35,4.35,0,0,1-2.4.75,2,2,0,0,1-2.1-1.68Zm-3.19-2.81a1.68,1.68,0,0,1,1.8,1.62h-3.71a1.86,1.86,0,0,1,1.91-1.62Zm8.94,5.74h1.53v-6.89H470v4.06a1.45,1.45,0,1,1-2.9-.1v-4h-1.54v4.38a2.46,2.46,0,0,0,2.5,2.66,2.09,2.09,0,0,0,1.94-1.12v1Zm8.18-1.89a2.69,2.69,0,0,1-1.65.53,2.09,2.09,0,0,1,0-4.17,2.8,2.8,0,0,1,1.65.53v-1.65a3.71,3.71,0,0,0-1.65-.38,3.59,3.59,0,1,0,0,7.18,3.59,3.59,0,0,0,1.65-.4v-1.64Zm1.69-3.22a3.43,3.43,0,0,1,1.81-.55,1.3,1.3,0,0,1,1.44,1.38v.57a2.35,2.35,0,0,0-1.65-.66,2.25,2.25,0,0,0-2.37,2.25,2.2,2.2,0,0,0,2.34,2.27,2.08,2.08,0,0,0,1.68-.78v.63h1.54V185.3a2.5,2.5,0,0,0-2.81-2.77,5,5,0,0,0-2,.43v1.49Zm.76,3a1.18,1.18,0,0,1,1.23-1.12,1.2,1.2,0,0,1,1.25,1.12,1.25,1.25,0,0,1-2.48,0Zm7.28-7.54h-1.54v9.66h1.54V179.9Zm2,12.53h1.78l4.16-9.76h-1.74l-1.79,4.42-1.71-4.42H489l2.59,6.36-1.57,3.4Zm8.4-9.76h-1.54v9.76h1.54v-4a2.69,2.69,0,0,0,2.35,1.27,3.6,3.6,0,0,0,0-7.18,2.58,2.58,0,0,0-2.35,1.34v-1.2Zm0,3.45a2.05,2.05,0,1,1,2.06,2.08,2,2,0,0,1-2.06-2.08Zm9,3.44V184h1.25v-1.32h-1.25v-1.94l-1.45.33v1.61h-1.25V184h1.16v5.57Zm1.8-3.45a3.58,3.58,0,1,0,3.58-3.58,3.54,3.54,0,0,0-3.58,3.58Zm1.55,0a2,2,0,1,1,2,2.09,2,2,0,0,1-2-2.09Zm8.5-6.21h-1.54v9.66h1.54V179.9Z" transform="translate(-374 69)"/><path class="cls-2" d="M462,159.94a3.58,3.58,0,0,1-2.33.83,3.32,3.32,0,0,1,0-6.63A3.57,3.57,0,0,1,462,155v-1.84a4.91,4.91,0,1,0,0,8.63v-1.83Zm1.78-2.84a3.4,3.4,0,0,1,1.8-.55,1.3,1.3,0,0,1,1.45,1.38v.57a2.38,2.38,0,0,0-1.66-.66,2.24,2.24,0,0,0-2.36,2.25,2.19,2.19,0,0,0,2.33,2.27,2.1,2.1,0,0,0,1.69-.78v.63h1.53V158a2.49,2.49,0,0,0-2.81-2.77,4.94,4.94,0,0,0-2,.43v1.49Zm.75,3a1.18,1.18,0,0,1,1.23-1.12,1.2,1.2,0,0,1,1.25,1.12,1.25,1.25,0,0,1-2.48,0Zm7.27-4.77h-1.54v6.89h1.54v-4.16a1.29,1.29,0,0,1,1.36-1.37,1.31,1.31,0,0,1,1.33,1.47v4.06H476v-4.06a1.33,1.33,0,0,1,1.37-1.47,1.31,1.31,0,0,1,1.33,1.47v4.06h1.54v-4.48a2.39,2.39,0,0,0-2.41-2.55,2.12,2.12,0,0,0-2.07,1.33,2.23,2.23,0,0,0-2.17-1.33,2,2,0,0,0-1.82,1v-.88Zm11.69,0h-1.54v9.76h1.54v-4a2.66,2.66,0,0,0,2.35,1.27,3.6,3.6,0,0,0,0-7.18,2.56,2.56,0,0,0-2.35,1.34v-1.2Zm0,3.45a2.05,2.05,0,1,1,2.06,2.08,2,2,0,0,1-2.06-2.08Zm8.58-6.22h-1.54v9.66H492v-4.06a1.45,1.45,0,1,1,2.9.08v4h1.54v-4.37a2.46,2.46,0,0,0-2.51-2.66A2.11,2.11,0,0,0,492,156.3v-3.75Zm12.35,6.73a3.52,3.52,0,0,0,.1-.78,3.2,3.2,0,0,0-3.28-3.32,3.59,3.59,0,0,0,.08,7.18,5.12,5.12,0,0,0,2.52-.63v-1.52a4.35,4.35,0,0,1-2.4.75,2,2,0,0,1-2.1-1.68Zm-3.19-2.81a1.69,1.69,0,0,1,1.8,1.62h-3.71a1.86,1.86,0,0,1,1.91-1.62Zm6.08-1.15h-1.53v6.89h1.53v-4.06a1.45,1.45,0,1,1,2.9.08v4h1.54v-4.37a2.45,2.45,0,0,0-2.5-2.66,2.1,2.1,0,0,0-1.94,1.12v-1Zm12.35,4a3,3,0,0,0,.1-.78,3.2,3.2,0,0,0-3.27-3.32,3.59,3.59,0,0,0,.08,7.18,5.15,5.15,0,0,0,2.52-.63v-1.52a4.39,4.39,0,0,1-2.41.75,2,2,0,0,1-2.1-1.68Zm-3.19-2.81a1.69,1.69,0,0,1,1.81,1.62h-3.71a1.86,1.86,0,0,1,1.9-1.62Z" transform="translate(-374 69)"/><path class="cls-2" d="M460.73,128h-1.54v9.76h1.54v-4a2.66,2.66,0,0,0,2.35,1.27,3.6,3.6,0,0,0,0-7.18,2.56,2.56,0,0,0-2.35,1.34V128Zm0,3.45a2.05,2.05,0,1,1,2,2.08,2,2,0,0,1-2-2.08Zm10.61.16v-1.44h-3.66v1.44Zm6.52,1.39a2.69,2.69,0,0,1-1.65.53,2.09,2.09,0,0,1,0-4.17,2.77,2.77,0,0,1,1.65.53v-1.65a3.68,3.68,0,0,0-1.65-.38,3.59,3.59,0,1,0,0,7.18,3.56,3.56,0,0,0,1.65-.4V133Zm1.75,4.76h1.78l4.16-9.76h-1.74L482,132.39,480.31,128h-1.72l2.59,6.36-1.57,3.4ZM488,128h-1.54v6.89H488V130.7a1.35,1.35,0,1,1,2.69.1v4.06h1.54V130.8a1.33,1.33,0,0,1,1.37-1.47,1.3,1.3,0,0,1,1.33,1.47v4.06h1.54v-4.48a2.39,2.39,0,0,0-2.41-2.55,2.13,2.13,0,0,0-2.07,1.33,2.23,2.23,0,0,0-2.17-1.33,2,2,0,0,0-1.82,1V128Zm16.37,4a3.52,3.52,0,0,0,.1-.78,3.2,3.2,0,0,0-3.28-3.32,3.59,3.59,0,0,0,.08,7.18,5.12,5.12,0,0,0,2.52-.63v-1.52a4.35,4.35,0,0,1-2.4.75,2,2,0,0,1-2.1-1.68Zm-3.19-2.81a1.69,1.69,0,0,1,1.8,1.62h-3.71a1.86,1.86,0,0,1,1.91-1.62Zm6.08-1.15h-1.53v6.89h1.53V130.8a1.45,1.45,0,1,1,2.9.08v4h1.54v-4.37a2.45,2.45,0,0,0-2.5-2.66,2.1,2.1,0,0,0-1.94,1.12v-1Zm12.35,4a3,3,0,0,0,.1-.78,3.2,3.2,0,0,0-3.27-3.32,3.59,3.59,0,0,0,.08,7.18,5.15,5.15,0,0,0,2.52-.63v-1.52a4.39,4.39,0,0,1-2.41.75,2,2,0,0,1-2.1-1.68Zm-3.19-2.81a1.69,1.69,0,0,1,1.81,1.62h-3.71a1.86,1.86,0,0,1,1.9-1.62Z" transform="translate(-374 69)"/><path class="cls-2" d="M472.86,98.34a4.62,4.62,0,0,0-2-.49c-2.31,0-3.15,1.37-3.15,2.64a2.61,2.61,0,0,0,1.56,2.46l1.48.91c.62.38.88.74.88,1.16,0,.63-.5,1.13-1.47,1.13a3.94,3.94,0,0,1-2.31-.82v1.79a5.54,5.54,0,0,0,2.38.54c2.1,0,3.11-1.3,3.11-2.72a2.78,2.78,0,0,0-1.68-2.53l-1.46-.91c-.51-.32-.78-.66-.78-1.06,0-.63.5-1.08,1.41-1.08a3.58,3.58,0,0,1,2.07.71V98.34Zm2.1,4.06a3.46,3.46,0,0,1,1.81-.55,1.3,1.3,0,0,1,1.44,1.38v.57a2.35,2.35,0,0,0-1.65-.66,2.24,2.24,0,0,0-2.36,2.25,2.19,2.19,0,0,0,2.33,2.27,2.08,2.08,0,0,0,1.68-.78v.63h1.54v-4.26a2.49,2.49,0,0,0-2.81-2.77,5,5,0,0,0-2,.43v1.49Zm.76,3a1.18,1.18,0,0,1,1.23-1.12,1.2,1.2,0,0,1,1.25,1.12,1.25,1.25,0,0,1-2.48,0Zm7.27,1a2.69,2.69,0,0,0,2.36,1.27,3.6,3.6,0,0,0,0-7.18,2.67,2.67,0,0,0-2.35,1.26V97.85h-1.54v9.66H483v-1.12Zm0-2.33a2.05,2.05,0,1,1,4.1,0,2.05,2.05,0,1,1-4.1,0Zm8.58-3.44H490v6.89h1.54v-6.89Zm-1.72-2.1a.95.95,0,1,0,.95-1,.93.93,0,0,0-.95,1Zm9.7,6.06a3.52,3.52,0,0,0,.1-.78,3.2,3.2,0,0,0-3.28-3.32,3.59,3.59,0,0,0,.09,7.18A5.11,5.11,0,0,0,499,107v-1.52a4.35,4.35,0,0,1-2.4.75,2,2,0,0,1-2.1-1.68Zm-3.19-2.81a1.68,1.68,0,0,1,1.8,1.62h-3.71a1.86,1.86,0,0,1,1.91-1.62Zm6.09-1.15h-1.54v6.89h1.54v-4.06a1.38,1.38,0,0,1,1.44-1.47,1.41,1.41,0,0,1,1.46,1.55v4h1.53v-4.37a2.46,2.46,0,0,0-2.5-2.66,2.08,2.08,0,0,0-1.93,1.12v-1Zm12.34,4a3,3,0,0,0,.1-.78,3.2,3.2,0,0,0-3.27-3.32,3.59,3.59,0,0,0,.08,7.18,5.15,5.15,0,0,0,2.52-.63v-1.52a4.39,4.39,0,0,1-2.41.75,2,2,0,0,1-2.1-1.68Zm-3.19-2.81a1.69,1.69,0,0,1,1.81,1.62H509.7a1.86,1.86,0,0,1,1.9-1.62ZM516,98.62l-.27.47,1.3.77-1.3.76.27.48,1.31-.76v1.5h.55v-1.5l1.31.76.28-.49-1.32-.75,1.32-.77-.28-.47-1.31.77V97.85h-.55v1.54L516,98.62Z" transform="translate(-374 69)"/><path class="cls-2" d="M488.5,73.27v1.12a2.74,2.74,0,0,0-2.39-1.26,3.49,3.49,0,0,0,0,7,2.78,2.78,0,0,0,2.38-1.23v.8a2,2,0,0,1-2.17,2.06A4.46,4.46,0,0,1,484,81v1.61a5.12,5.12,0,0,0,2.36.56A3.38,3.38,0,0,0,490,79.49V73.27Zm-.08,3.35a2,2,0,1,1-2-2,1.94,1.94,0,0,1,2,2Zm7.81,3.54h1.53V73.27h-1.53v4.06a1.45,1.45,0,1,1-2.9-.1v-4h-1.54v4.38a2.46,2.46,0,0,0,2.49,2.66,2.09,2.09,0,0,0,2-1.12v1Zm3.57-5.11a3.43,3.43,0,0,1,1.81-.55,1.3,1.3,0,0,1,1.44,1.38v.57a2.35,2.35,0,0,0-1.65-.66A2.25,2.25,0,0,0,499,78a2.2,2.2,0,0,0,2.34,2.27,2.08,2.08,0,0,0,1.68-.78v.63h1.54V75.9a2.5,2.5,0,0,0-2.82-2.77,4.94,4.94,0,0,0-2,.43v1.49Zm.75,3a1.25,1.25,0,1,1,1.24,1.11A1.19,1.19,0,0,1,500.55,78Zm7.27-4.77h-1.54v6.89h1.54V73.27Zm-1.72-2.1a.94.94,0,0,0,.95,1,1,1,0,0,0,0-1.9.94.94,0,0,0-.95,1Zm3.07,5.54a3.58,3.58,0,1,0,3.58-3.58,3.54,3.54,0,0,0-3.58,3.58Zm1.55,0a2,2,0,1,1,2,2.09,2,2,0,0,1-2-2.09Zm8.5-6.21h-1.54v9.66h1.54V70.5Z" transform="translate(-374 69)"/><path class="cls-2" d="M403.13,50.92a2.69,2.69,0,0,1-1.65.53,2.09,2.09,0,0,1,0-4.17,2.8,2.8,0,0,1,1.65.53V46.16a3.71,3.71,0,0,0-1.65-.38,3.59,3.59,0,1,0,0,7.18,3.59,3.59,0,0,0,1.65-.4V50.92Zm1.7-3.22a3.4,3.4,0,0,1,1.8-.55,1.3,1.3,0,0,1,1.44,1.38v.57a2.35,2.35,0,0,0-1.65-.66,2.24,2.24,0,0,0-2.36,2.25A2.19,2.19,0,0,0,406.39,53a2.08,2.08,0,0,0,1.68-.78v.63h1.54V48.55a2.49,2.49,0,0,0-2.81-2.77,4.94,4.94,0,0,0-2,.43V47.7Zm.75,3a1.18,1.18,0,0,1,1.23-1.12,1.2,1.2,0,0,1,1.25,1.12,1.25,1.25,0,0,1-2.48,0Zm7.27-4.77h-1.54v6.89h1.54V48.75a1.32,1.32,0,0,1,1.34-1.47,2.41,2.41,0,0,1,.93.18V45.82a5.46,5.46,0,0,0-.58,0,1.86,1.86,0,0,0-1.69,1v-.84Zm3.64,9.76h1.77l4.16-9.76h-1.73l-1.79,4.42-1.71-4.42h-1.73l2.6,6.36-1.57,3.4Zm6.21-6.32a3.59,3.59,0,1,0,3.59-3.58,3.55,3.55,0,0,0-3.59,3.58Zm1.56,0a2,2,0,0,1,2-2.08,2.09,2.09,0,0,1,0,4.17,2,2,0,0,1-2-2.09Zm8.48-3.44H431.2v9.76h1.54v-4A2.69,2.69,0,0,0,435.09,53a3.6,3.6,0,0,0,0-7.18,2.58,2.58,0,0,0-2.35,1.34v-1.2Zm0,3.45a2.05,2.05,0,1,1,2.06,2.08,2,2,0,0,1-2.06-2.08Zm8.58-6.22h-1.54v9.66h1.54V48.75a1.45,1.45,0,1,1,2.9.08v4h1.54V48.44a2.46,2.46,0,0,0-2.5-2.66,2.11,2.11,0,0,0-1.94,1.12V43.15Zm6.22,12.53h1.78l4.15-9.76h-1.73L450,50.34l-1.71-4.42h-1.72l2.59,6.36-1.57,3.4ZM456,43.15h-1.54v9.66H456V43.15Zm3.32,0h-1.54v9.66h1.54V43.15Zm8,6.73a3,3,0,0,0,.1-.78,3.2,3.2,0,0,0-3.28-3.32,3.59,3.59,0,0,0,.09,7.18,5.18,5.18,0,0,0,2.52-.63V50.81a4.39,4.39,0,0,1-2.41.75,2,2,0,0,1-2.1-1.68Zm-3.19-2.81a1.69,1.69,0,0,1,1.81,1.62h-3.71a1.85,1.85,0,0,1,1.9-1.62Zm6.09-1.15h-1.54v6.89h1.54V48.75a1.39,1.39,0,0,1,1.44-1.47,1.41,1.41,0,0,1,1.46,1.55v4h1.54V48.44a2.46,2.46,0,0,0-2.51-2.66,2.09,2.09,0,0,0-1.93,1.12v-1Zm12.35,4a3.56,3.56,0,0,0,.09-.78,3.2,3.2,0,0,0-3.27-3.32A3.59,3.59,0,0,0,479.4,53a5.15,5.15,0,0,0,2.52-.63V50.81a4.35,4.35,0,0,1-2.4.75,2,2,0,0,1-2.1-1.68Zm-3.19-2.81a1.69,1.69,0,0,1,1.8,1.62H477.4a1.86,1.86,0,0,1,1.91-1.62Zm7.26,2.29a3.59,3.59,0,1,0,3.59-3.58,3.54,3.54,0,0,0-3.59,3.58Zm1.55,0a2.05,2.05,0,0,1,2-2.08,2.09,2.09,0,0,1,0,4.17,2.05,2.05,0,0,1-2-2.09Zm9.16,1.15,1.46,2.3h1.8l-2.31-3.45,2.31-3.44h-1.8l-1.46,2.28-1.44-2.28H494l2.33,3.44L494,52.81h1.81l1.44-2.3Zm5.78-4.59h-1.54v6.89h1.54V45.92Zm-1.72-2.1a.94.94,0,0,0,1,1,1,1,0,0,0,0-1.9.94.94,0,0,0-1,1Zm8.78,9h1.52V43.15h-1.52V47a2.73,2.73,0,0,0-2.35-1.26,3.6,3.6,0,0,0,0,7.18,2.77,2.77,0,0,0,2.37-1.27v1.12Zm0-3.45a2.06,2.06,0,1,1-2.06-2.07,2.06,2.06,0,0,1,2.06,2.07Zm9.5.52a3,3,0,0,0,.1-.78,3.2,3.2,0,0,0-3.27-3.32,3.59,3.59,0,0,0,.08,7.18,5.15,5.15,0,0,0,2.52-.63V50.81a4.39,4.39,0,0,1-2.41.75,2,2,0,0,1-2.1-1.68Zm-3.19-2.81a1.69,1.69,0,0,1,1.81,1.62h-3.71a1.86,1.86,0,0,1,1.9-1.62Z" transform="translate(-374 69)"/><path class="cls-2" d="M478.72,15.8h-1.54v9.66h1.54V15.8Zm3.3,2.77h-1.54v6.89H482V18.57Zm-1.72-2.1a.94.94,0,0,0,.95,1,1,1,0,0,0,0-1.9.94.94,0,0,0-.95.95Zm5,2.1h-1.54v6.89h1.54V21.4a1.45,1.45,0,1,1,2.9.08v4h1.54V21.09a2.46,2.46,0,0,0-2.5-2.66,2.1,2.1,0,0,0-1.94,1.12v-1Zm6.39,1.78a3.4,3.4,0,0,1,1.8-.55A1.3,1.3,0,0,1,495,21.18v.57a2.36,2.36,0,0,0-1.66-.66,2.24,2.24,0,0,0-2.36,2.25,2.2,2.2,0,0,0,2.34,2.27,2.1,2.1,0,0,0,1.68-.78v.63h1.54V21.2a2.5,2.5,0,0,0-2.82-2.77,4.94,4.94,0,0,0-2,.43v1.49Zm.75,3a1.25,1.25,0,1,1,1.24,1.11,1.19,1.19,0,0,1-1.24-1.11Zm7.28-7.54H498.2v9.66h1.54V15.8ZM501.09,22a3.58,3.58,0,1,0,3.58-3.58A3.54,3.54,0,0,0,501.09,22Zm1.55,0a2,2,0,1,1,2,2.09,2,2,0,0,1-2-2.09Zm6.53,0a3.58,3.58,0,1,0,3.58-3.58A3.54,3.54,0,0,0,509.17,22Zm1.55,0a2,2,0,1,1,2,2.09,2,2,0,0,1-2-2.09Zm8.5-6.21h-1.54v9.66h1.54V15.8Z" transform="translate(-374 69)"/><path class="cls-2" d="M472.19-8.78h-1.54v6.89h1.54V-6a1.29,1.29,0,0,1,1.36-1.37,1.31,1.31,0,0,1,1.33,1.47v4.06h1.54V-5.95a1.33,1.33,0,0,1,1.37-1.47,1.3,1.3,0,0,1,1.33,1.47v4.06h1.54V-6.37a2.39,2.39,0,0,0-2.4-2.55,2.14,2.14,0,0,0-2.08,1.33A2.23,2.23,0,0,0,474-8.92a2,2,0,0,0-1.82,1v-.88Zm16.37,4a3.52,3.52,0,0,0,.1-.78,3.21,3.21,0,0,0-3.28-3.32,3.44,3.44,0,0,0-3.46,3.58,3.45,3.45,0,0,0,3.55,3.6A5.18,5.18,0,0,0,488-2.37V-3.89a4.41,4.41,0,0,1-2.41.75,2,2,0,0,1-2.1-1.68Zm-3.19-2.81A1.68,1.68,0,0,1,487.17-6h-3.71a1.86,1.86,0,0,1,1.91-1.62Zm6.09-1.15h-1.54v6.89h1.54V-5.95a1.38,1.38,0,0,1,1.44-1.47,1.4,1.4,0,0,1,1.45,1.55v4h1.54V-6.26a2.46,2.46,0,0,0-2.5-2.66,2.08,2.08,0,0,0-1.93,1.12v-1Zm8.13,6.89V-7.46h1.25V-8.78h-1.25v-1.94l-1.46.33v1.61h-1.24v1.32h1.16v5.57Zm3.86-9.66h-1.54v9.66h1.54V-5.95a1.4,1.4,0,0,1,1.46-1.47,1.4,1.4,0,0,1,1.44,1.55v4h1.54V-6.26a2.46,2.46,0,0,0-2.5-2.66,2.11,2.11,0,0,0-1.94,1.12v-3.75Zm5.72,6.21a3.54,3.54,0,0,0,3.58,3.6,3.54,3.54,0,0,0,3.58-3.6,3.52,3.52,0,0,0-3.58-3.58,3.51,3.51,0,0,0-3.58,3.58Zm1.55,0a2,2,0,0,1,2-2.08,2,2,0,0,1,2,2.08,2,2,0,0,1-2,2.09,2,2,0,0,1-2-2.09Zm8.5-6.21h-1.54v9.66h1.54v-9.66Z" transform="translate(-374 69)"/><path class="cls-2" d="M458.54-36.13H457v6.89h1.54v-6.89Zm-1.72-2.1a.94.94,0,0,0,.95.95.92.92,0,0,0,.94-.95.93.93,0,0,0-.94-1,.94.94,0,0,0-.95,1ZM464-36a5.07,5.07,0,0,0-1.59-.28c-1.57,0-2.44.83-2.44,2a1.88,1.88,0,0,0,1,1.71l1.18.7c.43.25.59.48.59.76s-.34.71-1,.71a2.89,2.89,0,0,1-1.7-.64v1.58a4.54,4.54,0,0,0,1.79.39c1.55,0,2.46-.84,2.46-2a2,2,0,0,0-1.15-1.82l-1.1-.66c-.34-.21-.52-.36-.52-.65s.31-.68.9-.68a3,3,0,0,1,1.55.49V-36Zm1.27,3.3a3.55,3.55,0,0,0,3.59,3.6,3.55,3.55,0,0,0,3.58-3.6,3.53,3.53,0,0,0-3.58-3.58,3.52,3.52,0,0,0-3.59,3.58Zm1.56,0a2,2,0,0,1,2-2.08,2,2,0,0,1,2,2.08,2,2,0,0,1-2,2.09,2,2,0,0,1-2-2.09Zm8.48-3.44H473.8v9.76h1.54v-4a2.69,2.69,0,0,0,2.35,1.27A3.4,3.4,0,0,0,481-32.68a3.38,3.38,0,0,0-3.35-3.59,2.58,2.58,0,0,0-2.35,1.34v-1.2Zm0,3.45a2,2,0,0,1,2.06-2.08,2,2,0,0,1,2,2.07,2,2,0,0,1-2,2.09,2.05,2.05,0,0,1-2.06-2.09Zm11.44,3.44h1.53v-6.89h-1.53v4.06a1.41,1.41,0,0,1-1.46,1.47,1.41,1.41,0,0,1-1.44-1.57v-4h-1.54v4.38a2.46,2.46,0,0,0,2.49,2.66,2.09,2.09,0,0,0,1.95-1.12v1Zm4.87-9.66h-1.54v9.66h1.54V-38.9Zm8,6.73a3,3,0,0,0,.1-.78,3.2,3.2,0,0,0-3.27-3.32A3.44,3.44,0,0,0,493-32.69a3.45,3.45,0,0,0,3.54,3.6,5.18,5.18,0,0,0,2.52-.63v-1.52a4.39,4.39,0,0,1-2.41.75,2,2,0,0,1-2.1-1.68ZM496.44-35a1.69,1.69,0,0,1,1.81,1.62h-3.71a1.85,1.85,0,0,1,1.9-1.62Zm9.81-1.15V-35a2.74,2.74,0,0,0-2.39-1.26,3.32,3.32,0,0,0-3.28,3.5,3.29,3.29,0,0,0,3.29,3.47,2.78,2.78,0,0,0,2.38-1.23v.8a2,2,0,0,1-2.17,2.06,4.49,4.49,0,0,1-2.36-.73v1.61a5.16,5.16,0,0,0,2.36.56,3.38,3.38,0,0,0,3.71-3.68v-6.22Zm-.08,3.35a1.94,1.94,0,0,1-2,2,1.94,1.94,0,0,1-2-2,1.94,1.94,0,0,1,2-2,1.94,1.94,0,0,1,2,2Zm3,.09a3.54,3.54,0,0,0,3.58,3.6,3.54,3.54,0,0,0,3.58-3.6,3.52,3.52,0,0,0-3.58-3.58,3.51,3.51,0,0,0-3.58,3.58Zm1.55,0a2,2,0,0,1,2-2.08,2,2,0,0,1,2,2.08,2,2,0,0,1-2,2.09,2,2,0,0,1-2-2.09Zm8.5-6.21h-1.54v9.66h1.54V-38.9Z" transform="translate(-374 69)"/><path class="cls-2" d="M546.13,299H552v-1.53h-2v-8h-3.57V291h2v6.47h-2.29V299Zm10.18-8.09a1.68,1.68,0,0,1,1.74,1.81v3.05a1.75,1.75,0,1,1-3.49,0v-3.05a1.68,1.68,0,0,1,1.75-1.81Zm0-1.57a3.24,3.24,0,0,0-3.34,3.34v3.13a3.34,3.34,0,1,0,6.67,0v-3.13a3.23,3.23,0,0,0-3.33-3.34Zm6,9.66h1.9L567,294.7a3.72,3.72,0,0,0,.63-2,3.37,3.37,0,1,0-3.38,3.35h.09l-2,2.94Zm.14-6.29a1.74,1.74,0,1,1,3.48,0,1.74,1.74,0,1,1-3.48,0Z" transform="translate(-374 69)"/><path class="cls-2" d="M555.49,271.61h5.82v-1.53h-1.95v-8h-3.57v1.52h2v6.47h-2.28v1.53Zm6.55,0h5.82v-1.53h-1.94v-8h-3.57v1.52h2v6.47H562v1.53Z" transform="translate(-374 69)"/><path class="cls-2" d="M553.37,187.61v-1.52h-1.22V180h-1.59l-4.2,6.2v1.37h4.2v1.95h1.59v-1.95Zm-5.32-1.52,2.51-3.77v3.77Zm13.08,1.52v-1.52h-1.22V180h-1.59l-4.2,6.2v1.37h4.2v1.95h1.59v-1.95Zm-5.32-1.52,2.51-3.77v3.77Zm6.36,3.47h5.23V188h-3.19l2.13-2.69a4.19,4.19,0,0,0,1.09-2.76,2.63,2.63,0,0,0-2.91-2.68,3.8,3.8,0,0,0-2.17.71v1.81a2.85,2.85,0,0,1,2.06-.93,1.28,1.28,0,0,1,1.38,1.37,3.09,3.09,0,0,1-.85,1.82l-2.77,3.51v1.37Z" transform="translate(-374 69)"/><path class="cls-2" d="M554.77,158h1.36a1.37,1.37,0,0,1,1.5,1.34,1.44,1.44,0,0,1-1.58,1.39,3.09,3.09,0,0,1-2-.69v1.82a5.31,5.31,0,0,0,2.09.46,2.88,2.88,0,0,0,3.13-2.76,2.43,2.43,0,0,0-1.48-2.33,2.26,2.26,0,0,0,1.21-2.14,2.66,2.66,0,0,0-2.94-2.58,4.47,4.47,0,0,0-1.9.43v1.73a3.13,3.13,0,0,1,1.85-.57,1.2,1.2,0,0,1,1.34,1.19,1.16,1.16,0,0,1-1.23,1.17h-1.36V158Zm9.23-3.92a1.68,1.68,0,0,1,1.74,1.81v3a1.75,1.75,0,1,1-3.49,0v-3a1.68,1.68,0,0,1,1.75-1.81Zm0-1.57a3.24,3.24,0,0,0-3.35,3.34V159a3.34,3.34,0,1,0,6.68,0v-3.13a3.23,3.23,0,0,0-3.33-3.34Z" transform="translate(-374 69)"/><path class="cls-2" d="M555.66,134.86h5.23v-1.53H557.7l2.13-2.69a4.19,4.19,0,0,0,1.09-2.76A2.63,2.63,0,0,0,558,125.2a3.8,3.8,0,0,0-2.17.71v1.81a2.85,2.85,0,0,1,2.06-.93,1.28,1.28,0,0,1,1.38,1.37,3.09,3.09,0,0,1-.85,1.82l-2.77,3.51v1.37Zm6.51,0h5.23v-1.53h-3.19l2.13-2.69a4.19,4.19,0,0,0,1.09-2.76,2.63,2.63,0,0,0-2.91-2.68,3.8,3.8,0,0,0-2.17.71v1.81a2.85,2.85,0,0,1,2.06-.93,1.28,1.28,0,0,1,1.38,1.37,3.09,3.09,0,0,1-.85,1.82l-2.77,3.51v1.37Z" transform="translate(-374 69)"/><path class="cls-2" d="M566.17,98h-1.91l-2.73,4.25a3.86,3.86,0,0,0-.61,2.05,3.37,3.37,0,1,0,6.73,0,3.24,3.24,0,0,0-3.36-3.28h-.12l2-3Zm-.14,6.3a1.75,1.75,0,1,1-3.49,0,1.75,1.75,0,1,1,3.49,0Z" transform="translate(-374 69)"/><path class="cls-2" d="M561.66,73.11a2.2,2.2,0,0,0,1.09,2,2.51,2.51,0,0,0-1.41,2.33,3.09,3.09,0,0,0,6.17,0,2.47,2.47,0,0,0-1.42-2.31,2.27,2.27,0,0,0,1.1-2,2.77,2.77,0,0,0-5.53,0Zm1.2,4.26a1.57,1.57,0,1,1,1.56,1.52,1.52,1.52,0,0,1-1.56-1.52Zm.31-4.26a1.26,1.26,0,0,1,2.51,0,1.26,1.26,0,0,1-2.51,0Z" transform="translate(-374 69)"/><path class="cls-2" d="M555.51,52.81h5.83V51.28h-2v-8h-3.57v1.52h2v6.47h-2.29v1.53ZM563,48.64h1.36a1.37,1.37,0,0,1,1.5,1.34,1.45,1.45,0,0,1-1.59,1.39,3.06,3.06,0,0,1-2-.69V52.5a5.25,5.25,0,0,0,2.08.46,2.88,2.88,0,0,0,3.14-2.76A2.42,2.42,0,0,0,566,47.87a2.25,2.25,0,0,0,1.22-2.14,2.66,2.66,0,0,0-2.94-2.58,4.47,4.47,0,0,0-1.9.43v1.73a3.13,3.13,0,0,1,1.85-.57,1.2,1.2,0,0,1,1.34,1.19,1.16,1.16,0,0,1-1.23,1.17H563v1.54Z" transform="translate(-374 69)"/><path class="cls-2" d="M556.48,21.29h1.36a1.37,1.37,0,0,1,1.5,1.34A1.45,1.45,0,0,1,557.75,24a3.06,3.06,0,0,1-2-.69v1.82a5.25,5.25,0,0,0,2.08.46A2.88,2.88,0,0,0,561,22.85a2.43,2.43,0,0,0-1.48-2.33,2.26,2.26,0,0,0,1.21-2.14,2.66,2.66,0,0,0-2.94-2.58,4.47,4.47,0,0,0-1.9.43V18a3.13,3.13,0,0,1,1.85-.57,1.2,1.2,0,0,1,1.34,1.19,1.16,1.16,0,0,1-1.23,1.17h-1.36v1.54Zm5.69,4.17h5.23V23.93h-3.19l2.13-2.69a4.19,4.19,0,0,0,1.09-2.76,2.63,2.63,0,0,0-2.91-2.68,3.8,3.8,0,0,0-2.17.71v1.81a2.85,2.85,0,0,1,2.06-.93,1.28,1.28,0,0,1,1.38,1.37,3.09,3.09,0,0,1-.85,1.82l-2.77,3.51v1.37Z" transform="translate(-374 69)"/><text class="cls-5" transform="translate(68.28 11.76)">C</text><text class="cls-5" transform="translate(76.28 11.76)">OMPOUND</text><text class="cls-5" transform="translate(168.88 11.76)">ppm</text><text class="cls-5" transform="translate(273.24 11.76)">QU</text><text class="cls-5" transform="translate(293.05 11.76)">ANTI</text><text class="cls-6" transform="translate(323.49 11.76)">TA</text><text class="cls-5" transform="translate(338.64 11.76)">TIVE PROFILE</text><path class="cls-2" d="M522.3,352.23h-.68v8.23h.68v-3.82a2.59,2.59,0,0,0,2.41,1.48,3,3,0,0,0,0-6,2.57,2.57,0,0,0-2.41,1.51v-1.39Zm0,2.88a2.31,2.31,0,1,1,2.31,2.34,2.28,2.28,0,0,1-2.31-2.34Zm7.42-2.88H529v8.23h.68v-3.82a2.59,2.59,0,0,0,2.4,1.48,3,3,0,0,0,0-6,2.56,2.56,0,0,0-2.4,1.51v-1.39Zm0,2.88a2.31,2.31,0,1,1,4.61,0,2.31,2.31,0,1,1-4.61,0Zm7.42-2.88h-.69V358h.69v-3.68a1.43,1.43,0,0,1,1.52-1.54,1.46,1.46,0,0,1,1.5,1.63V358h.68v-3.59a1.52,1.52,0,1,1,3,0V358h.68v-3.72a2,2,0,0,0-2.06-2.17,1.76,1.76,0,0,0-1.8,1.27,1.92,1.92,0,0,0-1.91-1.27,1.72,1.72,0,0,0-1.65,1v-.85Zm14.66-1.83a1.91,1.91,0,0,1,2,2v3a2,2,0,1,1-3.93,0v-3a1.91,1.91,0,0,1,2-2Zm0-.68a2.58,2.58,0,0,0-2.65,2.67v3.05a2.66,2.66,0,1,0,5.31,0v-3.05a2.59,2.59,0,0,0-2.66-2.67Zm4.12,7.81a.59.59,0,1,0,.58-.59.57.57,0,0,0-.58.59Zm5.3-7.13a1.91,1.91,0,0,1,2,2v3a2,2,0,1,1-3.93,0v-3a1.91,1.91,0,0,1,2-2Zm0-.68a2.58,2.58,0,0,0-2.65,2.67v3.05a2.66,2.66,0,1,0,5.31,0v-3.05a2.59,2.59,0,0,0-2.66-2.67Zm7,.68a1.9,1.9,0,0,1,2,2v3a2,2,0,1,1-3.92,0v-3a1.9,1.9,0,0,1,2-2Zm0-.68a2.59,2.59,0,0,0-2.65,2.67v3.05a2.66,2.66,0,1,0,5.32,0v-3.05a2.6,2.6,0,0,0-2.67-2.67Z" transform="translate(-374 69)"/><path class="cls-2" d="M683.09,358h4.65v-.65h-1.81v-7.51h-2.67v.64h2v6.87h-2.15V358Zm8.39-7.6a1.91,1.91,0,0,1,2,2v3a2,2,0,1,1-3.93,0v-3a1.91,1.91,0,0,1,2-2Zm0-.68a2.59,2.59,0,0,0-2.66,2.67v3.05a2.66,2.66,0,1,0,5.32,0v-3.05a2.59,2.59,0,0,0-2.66-2.67Zm7,.68a1.91,1.91,0,0,1,2,2v3a2,2,0,1,1-3.93,0v-3a1.91,1.91,0,0,1,2-2Zm0-.68a2.58,2.58,0,0,0-2.65,2.67v3.05a2.66,2.66,0,1,0,5.31,0v-3.05a2.59,2.59,0,0,0-2.66-2.67Zm4.12,7.81a.59.59,0,1,0,.58-.59.57.57,0,0,0-.58.59Zm5.3-7.13a1.91,1.91,0,0,1,2,2v3a2,2,0,1,1-3.93,0v-3a1.91,1.91,0,0,1,2-2Zm0-.68a2.58,2.58,0,0,0-2.65,2.67v3.05a2.66,2.66,0,1,0,5.31,0v-3.05a2.59,2.59,0,0,0-2.66-2.67Zm7,.68a1.9,1.9,0,0,1,2,2v3a2,2,0,1,1-3.92,0v-3a1.9,1.9,0,0,1,2-2Zm0-.68a2.59,2.59,0,0,0-2.65,2.67v3.05a2.66,2.66,0,1,0,5.32,0v-3.05a2.6,2.6,0,0,0-2.67-2.67Z" transform="translate(-374 69)"/><path class="cls-4" d="M374,788.46H835.4m-.5-.5V432.06M573.29,788V432.06M704.5,788V432.06m-330.5-.5H835.4" transform="translate(-374 69)"/><path class="cls-2" d="M434.31,779.76v-5.57h1.24v-1.32h-1.24v-1.94l-1.46.33v1.61h-1.24v1.32h1.16v5.57Zm3.86-6.89h-1.54v6.89h1.54V775.7a1.34,1.34,0,0,1,1.35-1.47,2.32,2.32,0,0,1,.92.18v-1.64a5.27,5.27,0,0,0-.57,0,1.86,1.86,0,0,0-1.7,1v-.84Zm3.46,1.78a3.43,3.43,0,0,1,1.81-.55,1.3,1.3,0,0,1,1.44,1.38v.57a2.35,2.35,0,0,0-1.65-.66,2.25,2.25,0,0,0-2.37,2.25,2.2,2.2,0,0,0,2.34,2.27,2.08,2.08,0,0,0,1.68-.78v.63h1.54V775.5a2.5,2.5,0,0,0-2.82-2.77,4.94,4.94,0,0,0-2,.43v1.49Zm.76,3a1.18,1.18,0,0,1,1.23-1.12,1.2,1.2,0,0,1,1.25,1.12,1.25,1.25,0,0,1-2.48,0Zm7.26-4.77h-1.54v6.89h1.54V775.7a1.45,1.45,0,1,1,2.9.08v4h1.54v-4.37a2.46,2.46,0,0,0-2.51-2.66,2.1,2.1,0,0,0-1.93,1.12v-1Zm9.86.14a5.14,5.14,0,0,0-1.6-.28c-1.56,0-2.43.83-2.43,2a1.88,1.88,0,0,0,1,1.71l1.18.7c.43.25.59.48.59.76s-.34.71-1,.71a2.87,2.87,0,0,1-1.7-.64v1.58a4.54,4.54,0,0,0,1.79.39c1.55,0,2.46-.84,2.46-2a2,2,0,0,0-1.15-1.82l-1.1-.66c-.34-.21-.52-.36-.52-.65s.31-.68.89-.68a3,3,0,0,1,1.56.49V773Zm5.18,3.47V775H461v1.44Zm3.2-3.61h-1.53v6.89h1.53V775.7a1.45,1.45,0,1,1,2.9.08v4h1.54v-4.37a2.46,2.46,0,0,0-2.5-2.66,2.1,2.1,0,0,0-1.94,1.12v-1Zm12.35,4a3,3,0,0,0,.1-.78,3.2,3.2,0,0,0-3.28-3.32,3.59,3.59,0,0,0,.09,7.18,5.18,5.18,0,0,0,2.52-.63v-1.52a4.39,4.39,0,0,1-2.41.75,2,2,0,0,1-2.1-1.68ZM477.05,774a1.69,1.69,0,0,1,1.81,1.62h-3.71a1.85,1.85,0,0,1,1.9-1.62Zm6.09-1.15H481.6v6.89h1.54V775.7c0-.88.5-1.47,1.34-1.47a2.37,2.37,0,0,1,.93.18v-1.64a5.28,5.28,0,0,0-.58,0,1.86,1.86,0,0,0-1.69,1v-.84Zm2.74,3.44a3.59,3.59,0,1,0,3.59-3.58,3.55,3.55,0,0,0-3.59,3.58Zm1.56,0a2,2,0,1,1,2,2.09,2,2,0,0,1-2-2.09Zm8.5-6.21H494.4v9.66h1.54V770.1Zm3.3,2.77H497.7v6.89h1.54v-6.89Zm-1.72-2.1a.94.94,0,0,0,1,1,1,1,0,0,0,0-1.9.94.94,0,0,0-1,.95Zm8.78,9h1.52V770.1H506.3V774a2.73,2.73,0,0,0-2.36-1.26,3.6,3.6,0,0,0,0,7.18,2.77,2.77,0,0,0,2.37-1.27v1.12Zm0-3.45a2.06,2.06,0,1,1-4.12,0,2.06,2.06,0,1,1,4.12,0Zm2.87,0a3.58,3.58,0,1,0,3.58-3.58,3.54,3.54,0,0,0-3.58,3.58Zm1.55,0a2,2,0,1,1,2,2.09,2,2,0,0,1-2-2.09Zm8.5-6.21h-1.54v9.66h1.54V770.1Z" transform="translate(-374 69)"/><path class="cls-2" d="M451,750.52a2.69,2.69,0,0,1-1.65.53,2.09,2.09,0,0,1,0-4.17,2.8,2.8,0,0,1,1.65.53v-1.65a3.71,3.71,0,0,0-1.65-.38,3.59,3.59,0,1,0,0,7.18,3.59,3.59,0,0,0,1.65-.4v-1.64Zm3-5h-1.54v6.89H454v-6.89Zm-1.72-2.1a.95.95,0,1,0,.95-.95.93.93,0,0,0-.95.95Zm7.21,2.24a5.14,5.14,0,0,0-1.6-.28c-1.56,0-2.43.83-2.43,2a1.88,1.88,0,0,0,1,1.71l1.18.7c.43.25.59.48.59.76s-.34.71-1,.71a2.87,2.87,0,0,1-1.7-.64v1.58a4.54,4.54,0,0,0,1.79.39c1.55,0,2.46-.84,2.46-2a2,2,0,0,0-1.15-1.82l-1.1-.66c-.34-.21-.52-.36-.52-.65s.31-.68.89-.68a3,3,0,0,1,1.56.49v-1.55Zm5.18,3.47v-1.44H461v1.44Zm3.2-3.61h-1.53v6.89h1.53v-4.06a1.45,1.45,0,1,1,2.9.08v4h1.54V748a2.46,2.46,0,0,0-2.5-2.66,2.1,2.1,0,0,0-1.94,1.12v-1Zm12.35,4a3,3,0,0,0,.1-.78,3.2,3.2,0,0,0-3.28-3.32,3.59,3.59,0,0,0,.09,7.18,5.18,5.18,0,0,0,2.52-.63v-1.52a4.39,4.39,0,0,1-2.41.75,2,2,0,0,1-2.1-1.68Zm-3.19-2.81a1.69,1.69,0,0,1,1.81,1.62h-3.71a1.85,1.85,0,0,1,1.9-1.62Zm6.09-1.15H481.6v6.89h1.54v-4.06c0-.88.5-1.47,1.34-1.47a2.37,2.37,0,0,1,.93.18v-1.64a5.28,5.28,0,0,0-.58,0,1.86,1.86,0,0,0-1.69,1v-.84Zm2.74,3.44a3.59,3.59,0,1,0,3.59-3.58,3.55,3.55,0,0,0-3.59,3.58Zm1.56,0a2,2,0,1,1,2,2.09,2,2,0,0,1-2-2.09Zm8.5-6.21H494.4v9.66h1.54v-9.66Zm3.3,2.77H497.7v6.89h1.54v-6.89Zm-1.72-2.1a.94.94,0,0,0,1,1,1,1,0,0,0,0-1.9.94.94,0,0,0-1,.95Zm8.78,9h1.52v-9.66H506.3v3.89a2.73,2.73,0,0,0-2.36-1.26,3.6,3.6,0,0,0,0,7.18,2.77,2.77,0,0,0,2.37-1.27v1.12Zm0-3.45a2.06,2.06,0,1,1-4.12,0,2.06,2.06,0,1,1,4.12,0Zm2.87,0a3.58,3.58,0,1,0,3.58-3.58,3.54,3.54,0,0,0-3.58,3.58Zm1.55,0a2,2,0,1,1,2,2.09,2,2,0,0,1-2-2.09Zm8.5-6.21h-1.54v9.66h1.54v-9.66Z" transform="translate(-374 69)"/><path class="cls-2" d="M422,720a3.43,3.43,0,0,1,1.81-.55,1.3,1.3,0,0,1,1.44,1.38v.57a2.35,2.35,0,0,0-1.65-.66,2.25,2.25,0,0,0-2.37,2.25,2.2,2.2,0,0,0,2.34,2.27,2.08,2.08,0,0,0,1.68-.78v.63h1.54V720.8A2.5,2.5,0,0,0,424,718a5,5,0,0,0-2,.43V720Zm.76,3a1.18,1.18,0,0,1,1.23-1.12,1.2,1.2,0,0,1,1.25,1.12,1.25,1.25,0,0,1-2.48,0Zm7.28-7.54h-1.54v9.66h1.54V715.4Zm3.3,2.77h-1.54v9.76h1.54v-4a2.69,2.69,0,0,0,2.35,1.27,3.6,3.6,0,0,0,0-7.18,2.58,2.58,0,0,0-2.35,1.34v-1.2Zm0,3.45a2.05,2.05,0,1,1,2.06,2.08,2,2,0,0,1-2.06-2.08ZM442,715.4h-1.54v9.66H442V721a1.45,1.45,0,1,1,2.9.08v4h1.54v-4.37a2.46,2.46,0,0,0-2.5-2.66,2.11,2.11,0,0,0-1.94,1.12V715.4Zm6.39,4.55a3.4,3.4,0,0,1,1.8-.55,1.3,1.3,0,0,1,1.45,1.38v.57a2.38,2.38,0,0,0-1.66-.66,2.24,2.24,0,0,0-2.36,2.25,2.19,2.19,0,0,0,2.33,2.27,2.1,2.1,0,0,0,1.69-.78v.63h1.53V720.8a2.49,2.49,0,0,0-2.81-2.77,4.94,4.94,0,0,0-2,.43V720Zm.75,3a1.18,1.18,0,0,1,1.23-1.12,1.2,1.2,0,0,1,1.25,1.12,1.25,1.25,0,0,1-2.48,0Zm9.3-1.16v-1.44h-3.65v1.44Zm3.2-6.38h-1.53v9.66h1.53V721a1.45,1.45,0,1,1,2.9.08v4H466v-4.37a2.46,2.46,0,0,0-2.5-2.66,2.11,2.11,0,0,0-1.94,1.12V715.4Zm10.53,9.66h1.53v-6.89h-1.53v4.06a1.45,1.45,0,1,1-2.9-.1v-4h-1.53v4.38a2.46,2.46,0,0,0,2.49,2.66,2.09,2.09,0,0,0,1.94-1.12v1Zm4.86-6.89h-1.54v6.89H477V720.9a1.29,1.29,0,0,1,1.36-1.37,1.31,1.31,0,0,1,1.33,1.47v4.06h1.54V721a1.33,1.33,0,0,1,1.37-1.47,1.31,1.31,0,0,1,1.33,1.47v4.06h1.54v-4.48A2.39,2.39,0,0,0,483,718a2.13,2.13,0,0,0-2.07,1.33A2.23,2.23,0,0,0,478.8,718a2,2,0,0,0-1.82,1v-.88Zm14.55,6.89h1.52v-6.89h-1.52v4.06a1.45,1.45,0,1,1-2.9-.1v-4h-1.54v4.38a2.46,2.46,0,0,0,2.49,2.66,2.11,2.11,0,0,0,1.95-1.12v1Zm4.87-9.66h-1.54v9.66h1.54V715.4Zm8,6.73a3.52,3.52,0,0,0,.1-.78A3.2,3.2,0,0,0,501.2,718a3.59,3.59,0,0,0,.08,7.18,5.12,5.12,0,0,0,2.52-.63v-1.52a4.35,4.35,0,0,1-2.4.75,2,2,0,0,1-2.1-1.68Zm-3.19-2.81a1.69,1.69,0,0,1,1.8,1.62h-3.71a1.86,1.86,0,0,1,1.91-1.62Zm6.08-1.15h-1.53v6.89h1.53V721a1.45,1.45,0,1,1,2.9.08v4h1.54v-4.37a2.45,2.45,0,0,0-2.5-2.66,2.1,2.1,0,0,0-1.94,1.12v-1Zm12.35,4a3,3,0,0,0,.1-.78,3.2,3.2,0,0,0-3.27-3.32,3.59,3.59,0,0,0,.08,7.18,5.15,5.15,0,0,0,2.52-.63v-1.52a4.39,4.39,0,0,1-2.41.75,2,2,0,0,1-2.1-1.68Zm-3.19-2.81a1.69,1.69,0,0,1,1.81,1.62h-3.71a1.86,1.86,0,0,1,1.9-1.62Z" transform="translate(-374 69)"/><path class="cls-2" d="M416.46,690.82v1.12a2.75,2.75,0,0,0-2.39-1.26,3.49,3.49,0,0,0,0,7,2.79,2.79,0,0,0,2.38-1.23v.8a2,2,0,0,1-2.17,2.06,4.49,4.49,0,0,1-2.37-.73v1.61a5.17,5.17,0,0,0,2.37.56A3.38,3.38,0,0,0,418,697v-6.22Zm-.08,3.35a2,2,0,1,1-2-2,1.94,1.94,0,0,1,2,2ZM420,692.6a3.43,3.43,0,0,1,1.81-.55,1.3,1.3,0,0,1,1.44,1.38V694a2.35,2.35,0,0,0-1.65-.66,2.25,2.25,0,0,0-2.37,2.25,2.2,2.2,0,0,0,2.34,2.27,2.08,2.08,0,0,0,1.68-.78v.63h1.54v-4.26a2.49,2.49,0,0,0-2.81-2.77,5,5,0,0,0-2,.43v1.49Zm.76,3a1.18,1.18,0,0,1,1.23-1.12,1.2,1.2,0,0,1,1.25,1.12,1.25,1.25,0,0,1-2.48,0Zm7.27-4.77h-1.54v6.89h1.54v-4.16a1.28,1.28,0,0,1,1.35-1.37,1.31,1.31,0,0,1,1.34,1.47v4.06h1.53v-4.06a1.33,1.33,0,0,1,1.38-1.47,1.31,1.31,0,0,1,1.33,1.47v4.06h1.53v-4.48a2.38,2.38,0,0,0-2.4-2.55,2.14,2.14,0,0,0-2.08,1.33,2.21,2.21,0,0,0-2.16-1.33,2,2,0,0,0-1.82,1v-.88Zm11.68,0h-1.53v6.89h1.53v-4.16a1.29,1.29,0,0,1,1.36-1.37,1.31,1.31,0,0,1,1.34,1.47v4.06H444v-4.06a1.33,1.33,0,0,1,1.38-1.47,1.31,1.31,0,0,1,1.33,1.47v4.06h1.53v-4.48a2.38,2.38,0,0,0-2.4-2.55,2.14,2.14,0,0,0-2.08,1.33,2.22,2.22,0,0,0-2.16-1.33,2,2,0,0,0-1.83,1v-.88Zm10.41,1.78a3.4,3.4,0,0,1,1.8-.55,1.3,1.3,0,0,1,1.45,1.38V694a2.36,2.36,0,0,0-1.66-.66,2.24,2.24,0,0,0-2.36,2.25,2.19,2.19,0,0,0,2.33,2.27,2.1,2.1,0,0,0,1.69-.78v.63h1.53v-4.26a2.49,2.49,0,0,0-2.81-2.77,4.94,4.94,0,0,0-2,.43v1.49Zm.75,3a1.25,1.25,0,1,1,1.24,1.11,1.19,1.19,0,0,1-1.24-1.11Zm9.3-1.16V693h-3.66v1.44Zm3.71,3.28v-5.57h1.24v-1.32h-1.24v-1.94l-1.46.33v1.61h-1.24v1.32h1.16v5.57Zm8.43-2.93a3.56,3.56,0,0,0,.09-.78,3.2,3.2,0,0,0-3.27-3.32,3.59,3.59,0,0,0,.08,7.18,5.12,5.12,0,0,0,2.52-.63v-1.52a4.35,4.35,0,0,1-2.4.75,2,2,0,0,1-2.1-1.68ZM469.16,692a1.69,1.69,0,0,1,1.8,1.62h-3.71a1.86,1.86,0,0,1,1.91-1.62Zm6.08-1.15h-1.53v6.89h1.53v-4.06a1.34,1.34,0,0,1,1.35-1.47,2.32,2.32,0,0,1,.92.18v-1.64a5.27,5.27,0,0,0-.57,0,1.88,1.88,0,0,0-1.7,1v-.84Zm4.9,0h-1.53v9.76h1.53v-4a2.69,2.69,0,0,0,2.36,1.27,3.6,3.6,0,0,0,0-7.18,2.59,2.59,0,0,0-2.36,1.34v-1.2Zm0,3.45a2.06,2.06,0,1,1,2.06,2.08,2,2,0,0,1-2.06-2.08Zm8.59-3.45h-1.54v6.89h1.54v-6.89Zm-1.72-2.1a.93.93,0,0,0,.95.95,1,1,0,0,0,0-1.9.94.94,0,0,0-.95,1Zm5,2.1h-1.54v6.89H492v-4.06a1.39,1.39,0,0,1,1.44-1.47,1.41,1.41,0,0,1,1.46,1.55v4h1.54v-4.37a2.46,2.46,0,0,0-2.51-2.66A2.09,2.09,0,0,0,492,691.8v-1Zm12.35,4a3.52,3.52,0,0,0,.1-.78,3.2,3.2,0,0,0-3.28-3.32,3.59,3.59,0,0,0,.08,7.18,5.12,5.12,0,0,0,2.52-.63v-1.52a4.35,4.35,0,0,1-2.4.75,2,2,0,0,1-2.1-1.68ZM501.19,692a1.69,1.69,0,0,1,1.8,1.62h-3.71a1.86,1.86,0,0,1,1.91-1.62Zm6.08-1.15h-1.53v6.89h1.53v-4.06a1.45,1.45,0,1,1,2.9.08v4h1.54v-4.37a2.45,2.45,0,0,0-2.5-2.66,2.1,2.1,0,0,0-1.94,1.12v-1Zm12.35,4a3,3,0,0,0,.1-.78,3.2,3.2,0,0,0-3.27-3.32,3.59,3.59,0,0,0,.08,7.18,5.15,5.15,0,0,0,2.52-.63v-1.52a4.39,4.39,0,0,1-2.41.75,2,2,0,0,1-2.1-1.68ZM516.43,692a1.69,1.69,0,0,1,1.81,1.62h-3.71a1.86,1.86,0,0,1,1.9-1.62Z" transform="translate(-374 69)"/><path class="cls-2" d="M421,668.47a2.69,2.69,0,0,1-1.65.53,2.09,2.09,0,0,1,0-4.17,2.8,2.8,0,0,1,1.65.53v-1.65a3.71,3.71,0,0,0-1.65-.38,3.59,3.59,0,1,0,0,7.18,3.59,3.59,0,0,0,1.65-.4v-1.64Zm3-5h-1.54v6.89H424v-6.89Zm-1.72-2.1a.95.95,0,1,0,.95-1,.93.93,0,0,0-.95,1Zm7.21,2.24a5.14,5.14,0,0,0-1.6-.28c-1.57,0-2.43.83-2.43,2a1.88,1.88,0,0,0,1,1.71l1.18.7c.43.25.58.48.58.76s-.33.71-1,.71a2.92,2.92,0,0,1-1.71-.64v1.58a4.63,4.63,0,0,0,1.79.39c1.56,0,2.47-.84,2.47-2a2,2,0,0,0-1.15-1.82l-1.1-.66c-.34-.21-.52-.36-.52-.65s.3-.68.89-.68a3,3,0,0,1,1.56.49v-1.55Zm5.18,3.47v-1.44H431v1.44Zm3.2,2.16a2.72,2.72,0,0,0,2.37,1.27,3.6,3.6,0,0,0,0-7.18,2.7,2.7,0,0,0-2.36,1.26V660.7h-1.54v9.66h1.54v-1.12Zm0-2.33A2.06,2.06,0,1,1,440,669a2,2,0,0,1-2.06-2.09Zm13.26.52a3,3,0,0,0,.1-.78,3.2,3.2,0,0,0-3.28-3.32,3.59,3.59,0,0,0,.09,7.18,5.18,5.18,0,0,0,2.52-.63v-1.52a4.39,4.39,0,0,1-2.41.75,2,2,0,0,1-2.1-1.68ZM448,664.62a1.69,1.69,0,0,1,1.81,1.62h-3.71a1.85,1.85,0,0,1,1.9-1.62Zm6.56,5.74v-5.57h1.25v-1.32h-1.25v-1.94l-1.45.33v1.61h-1.25v1.32H453v5.57Zm2.52-5.11a3.46,3.46,0,0,1,1.81-.55,1.3,1.3,0,0,1,1.44,1.38v.57a2.35,2.35,0,0,0-1.65-.66,2.24,2.24,0,0,0-2.36,2.25,2.19,2.19,0,0,0,2.33,2.27,2.08,2.08,0,0,0,1.68-.78v.63h1.54V666.1a2.49,2.49,0,0,0-2.81-2.77,5,5,0,0,0-2,.43v1.49Zm.76,3a1.18,1.18,0,0,1,1.23-1.12,1.2,1.2,0,0,1,1.25,1.12,1.25,1.25,0,0,1-2.48,0Zm9.3-1.16v-1.44h-3.66v1.44Zm1.24-.17a3.59,3.59,0,1,0,3.59-3.58,3.55,3.55,0,0,0-3.59,3.58Zm1.56,0a2,2,0,0,1,2-2.08,2.09,2.09,0,0,1,0,4.17,2,2,0,0,1-2-2.09Zm11.8,1.56a2.69,2.69,0,0,1-1.65.53,2.09,2.09,0,0,1,0-4.17,2.8,2.8,0,0,1,1.65.53v-1.65a3.71,3.71,0,0,0-1.65-.38,3.59,3.59,0,1,0,0,7.18,3.59,3.59,0,0,0,1.65-.4v-1.64Zm3-5h-1.54v6.89h1.54v-6.89Zm-1.72-2.1a.95.95,0,1,0,.95-1,.93.93,0,0,0-.95,1Zm5,2.1h-1.54v6.89H488V666.2a1.35,1.35,0,1,1,2.69.1v4.06h1.54V666.3a1.33,1.33,0,0,1,1.37-1.47,1.3,1.3,0,0,1,1.33,1.47v4.06h1.54v-4.48a2.39,2.39,0,0,0-2.41-2.55,2.13,2.13,0,0,0-2.07,1.33,2.23,2.23,0,0,0-2.17-1.33,2,2,0,0,0-1.82,1v-.88Zm16.37,4a3.52,3.52,0,0,0,.1-.78,3.2,3.2,0,0,0-3.28-3.32,3.59,3.59,0,0,0,.08,7.18,5.12,5.12,0,0,0,2.52-.63v-1.52a4.35,4.35,0,0,1-2.4.75,2,2,0,0,1-2.1-1.68Zm-3.19-2.81a1.69,1.69,0,0,1,1.8,1.62h-3.71a1.86,1.86,0,0,1,1.91-1.62Zm6.08-1.15h-1.53v6.89h1.53V666.3a1.45,1.45,0,1,1,2.9.08v4h1.54V666a2.45,2.45,0,0,0-2.5-2.66,2.1,2.1,0,0,0-1.94,1.12v-1Zm12.35,4a3,3,0,0,0,.1-.78,3.2,3.2,0,0,0-3.27-3.32,3.59,3.59,0,0,0,.08,7.18,5.15,5.15,0,0,0,2.52-.63v-1.52a4.39,4.39,0,0,1-2.41.75,2,2,0,0,1-2.1-1.68Zm-3.19-2.81a1.69,1.69,0,0,1,1.81,1.62h-3.71a1.86,1.86,0,0,1,1.9-1.62Z" transform="translate(-374 69)"/><path class="cls-2" d="M449.32,643h3.43a4.76,4.76,0,0,0,0-9.52h-3.43V643Zm3.41-8a3.24,3.24,0,0,1,0,6.47h-1.82V635Zm9.71,4.72v-1.44h-3.66v1.44Zm3.21-6.38h-1.53V643h1.53v-9.66Zm3.31,2.77h-1.54V643H469v-6.89Zm-1.72-2.1a.95.95,0,1,0,.95-.95.93.93,0,0,0-.95.95Zm5,2.1h-1.54V643h1.54v-4.16a1.35,1.35,0,1,1,2.69.1V643h1.54V639a1.33,1.33,0,0,1,1.37-1.47,1.3,1.3,0,0,1,1.33,1.47V643h1.54v-4.48a2.39,2.39,0,0,0-2.41-2.55,2.14,2.14,0,0,0-2.07,1.33,2.23,2.23,0,0,0-2.17-1.33,2,2,0,0,0-1.82,1v-.88Zm9.73,3.44a3.59,3.59,0,1,0,3.59-3.58,3.55,3.55,0,0,0-3.59,3.58Zm1.56,0a2,2,0,0,1,2-2.08,2.09,2.09,0,0,1,0,4.17,2,2,0,0,1-2-2.09Zm8.48-3.44h-1.54V643H492V639a1.39,1.39,0,0,1,1.44-1.47,1.41,1.41,0,0,1,1.46,1.55v4h1.54v-4.37A2.46,2.46,0,0,0,494,636,2.09,2.09,0,0,0,492,637.1v-1Zm12.35,4a3.52,3.52,0,0,0,.1-.78A3.2,3.2,0,0,0,501.2,636a3.59,3.59,0,0,0,.08,7.18,5.12,5.12,0,0,0,2.52-.63V641a4.35,4.35,0,0,1-2.4.75,2,2,0,0,1-2.1-1.68Zm-3.19-2.81a1.69,1.69,0,0,1,1.8,1.62h-3.71a1.86,1.86,0,0,1,1.91-1.62Zm6.08-1.15h-1.53V643h1.53V639a1.45,1.45,0,1,1,2.9.08v4h1.54v-4.37a2.45,2.45,0,0,0-2.5-2.66,2.1,2.1,0,0,0-1.94,1.12v-1Zm12.35,4a3,3,0,0,0,.1-.78,3.2,3.2,0,0,0-3.27-3.32,3.59,3.59,0,0,0,.08,7.18,5.15,5.15,0,0,0,2.52-.63V641a4.39,4.39,0,0,1-2.41.75,2,2,0,0,1-2.1-1.68Zm-3.19-2.81a1.69,1.69,0,0,1,1.81,1.62h-3.71a1.86,1.86,0,0,1,1.9-1.62Z" transform="translate(-374 69)"/><path class="cls-2" d="M430.74,610.55a3.43,3.43,0,0,1,1.81-.55,1.3,1.3,0,0,1,1.44,1.38V612a2.35,2.35,0,0,0-1.65-.66,2.25,2.25,0,0,0-2.37,2.25,2.2,2.2,0,0,0,2.34,2.27A2.08,2.08,0,0,0,434,615v.63h1.54V611.4a2.5,2.5,0,0,0-2.82-2.77,4.94,4.94,0,0,0-2,.43v1.49Zm.75,3a1.25,1.25,0,1,1,1.24,1.11,1.19,1.19,0,0,1-1.24-1.11Zm7.28-7.54h-1.53v9.66h1.53V606Zm3.31,2.77h-1.54v9.76h1.54v-4a2.67,2.67,0,0,0,2.35,1.27,3.6,3.6,0,0,0,0-7.18,2.57,2.57,0,0,0-2.35,1.34v-1.2Zm0,3.45a2.05,2.05,0,1,1,2.06,2.08,2,2,0,0,1-2.06-2.08Zm8.58-6.22h-1.54v9.66h1.54V611.6a1.45,1.45,0,1,1,2.9.08v4h1.54v-4.37a2.46,2.46,0,0,0-2.51-2.66,2.11,2.11,0,0,0-1.93,1.12V606Zm6.38,4.55a3.46,3.46,0,0,1,1.81-.55,1.3,1.3,0,0,1,1.44,1.38V612a2.35,2.35,0,0,0-1.65-.66,2.24,2.24,0,0,0-2.36,2.25,2.19,2.19,0,0,0,2.33,2.27,2.08,2.08,0,0,0,1.68-.78v.63h1.54V611.4a2.49,2.49,0,0,0-2.81-2.77,5,5,0,0,0-2,.43v1.49Zm.76,3a1.18,1.18,0,0,1,1.23-1.12,1.2,1.2,0,0,1,1.25,1.12,1.25,1.25,0,0,1-2.48,0Zm9.3-1.16v-1.44h-3.66v1.44Zm1.24-.17a3.59,3.59,0,1,0,3.59-3.58,3.55,3.55,0,0,0-3.59,3.58Zm1.56,0a2,2,0,0,1,2-2.08,2.09,2.09,0,0,1,0,4.17,2,2,0,0,1-2-2.09Zm11.8,1.56a2.69,2.69,0,0,1-1.65.53,2.09,2.09,0,0,1,0-4.17,2.8,2.8,0,0,1,1.65.53V609a3.71,3.71,0,0,0-1.65-.38,3.59,3.59,0,1,0,0,7.18,3.59,3.59,0,0,0,1.65-.4v-1.64Zm3-5h-1.54v6.89h1.54v-6.89Zm-1.72-2.1a.95.95,0,1,0,.95-.95.93.93,0,0,0-.95.95Zm5,2.1h-1.54v6.89H488V611.5a1.35,1.35,0,1,1,2.69.1v4.06h1.54V611.6a1.33,1.33,0,0,1,1.37-1.47,1.3,1.3,0,0,1,1.33,1.47v4.06h1.54v-4.48a2.39,2.39,0,0,0-2.41-2.55A2.13,2.13,0,0,0,492,610a2.23,2.23,0,0,0-2.17-1.33,2,2,0,0,0-1.82,1v-.88Zm16.37,4a3.52,3.52,0,0,0,.1-.78,3.2,3.2,0,0,0-3.28-3.32,3.59,3.59,0,0,0,.08,7.18,5.12,5.12,0,0,0,2.52-.63v-1.52a4.35,4.35,0,0,1-2.4.75,2,2,0,0,1-2.1-1.68Zm-3.19-2.81a1.69,1.69,0,0,1,1.8,1.62h-3.71a1.86,1.86,0,0,1,1.91-1.62Zm6.08-1.15h-1.53v6.89h1.53V611.6a1.45,1.45,0,1,1,2.9.08v4h1.54v-4.37a2.45,2.45,0,0,0-2.5-2.66,2.1,2.1,0,0,0-1.94,1.12v-1Zm12.35,4a3,3,0,0,0,.1-.78,3.2,3.2,0,0,0-3.27-3.32,3.59,3.59,0,0,0,.08,7.18,5.15,5.15,0,0,0,2.52-.63v-1.52a4.39,4.39,0,0,1-2.41.75,2,2,0,0,1-2.1-1.68Zm-3.19-2.81a1.69,1.69,0,0,1,1.81,1.62h-3.71a1.86,1.86,0,0,1,1.9-1.62Z" transform="translate(-374 69)"/><path class="cls-2" d="M402,583.2a3.46,3.46,0,0,1,1.81-.55,1.3,1.3,0,0,1,1.44,1.38v.57a2.35,2.35,0,0,0-1.65-.66,2.24,2.24,0,0,0-2.36,2.25,2.19,2.19,0,0,0,2.33,2.27,2.08,2.08,0,0,0,1.68-.78v.63h1.54v-4.26a2.49,2.49,0,0,0-2.81-2.77,5,5,0,0,0-2,.43v1.49Zm.76,3a1.18,1.18,0,0,1,1.23-1.12,1.2,1.2,0,0,1,1.25,1.12,1.25,1.25,0,0,1-2.48,0Zm7.28-7.54h-1.54v9.66H410v-9.66Zm3.3,2.77h-1.53v9.76h1.53v-4a2.69,2.69,0,0,0,2.36,1.27,3.6,3.6,0,0,0,0-7.18,2.59,2.59,0,0,0-2.36,1.34v-1.2Zm0,3.45a2.06,2.06,0,1,1,2.06,2.08,2,2,0,0,1-2.06-2.08Zm8.58-6.22h-1.53v9.66h1.53v-4.06a1.46,1.46,0,1,1,2.91.08v4h1.53v-4.37a2.46,2.46,0,0,0-2.5-2.66,2.11,2.11,0,0,0-1.94,1.12v-3.75Zm6.39,4.55a3.43,3.43,0,0,1,1.81-.55,1.3,1.3,0,0,1,1.44,1.38v.57a2.35,2.35,0,0,0-1.65-.66,2.25,2.25,0,0,0-2.37,2.25,2.2,2.2,0,0,0,2.34,2.27,2.08,2.08,0,0,0,1.68-.78v.63h1.54v-4.26a2.5,2.5,0,0,0-2.82-2.77,4.94,4.94,0,0,0-2,.43v1.49Zm.75,3a1.19,1.19,0,0,1,1.24-1.12,1.2,1.2,0,0,1,1.25,1.12,1.25,1.25,0,0,1-2.49,0Zm9.3-1.16v-1.44h-3.65V585Zm3.21-3.61H440v9.76h1.54v-4a2.66,2.66,0,0,0,2.35,1.27,3.6,3.6,0,0,0,0-7.18,2.56,2.56,0,0,0-2.35,1.34v-1.2Zm0,3.45a2.05,2.05,0,1,1,2.06,2.08,2,2,0,0,1-2.06-2.08Zm8.58-6.22h-1.54v9.66h1.54v-4.06a1.39,1.39,0,0,1,1.45-1.47,1.41,1.41,0,0,1,1.45,1.55v4h1.54v-4.37a2.46,2.46,0,0,0-2.51-2.66,2.11,2.11,0,0,0-1.93,1.12v-3.75Zm12.35,6.73a3.56,3.56,0,0,0,.09-.78,3.2,3.2,0,0,0-3.27-3.32,3.59,3.59,0,0,0,.08,7.18,5.12,5.12,0,0,0,2.52-.63v-1.52a4.35,4.35,0,0,1-2.4.75,2,2,0,0,1-2.1-1.68Zm-3.19-2.81a1.69,1.69,0,0,1,1.8,1.62h-3.71a1.86,1.86,0,0,1,1.91-1.62Zm6.1-3.92h-1.54v9.66h1.54v-9.66Zm3.32,0h-1.54v9.66h1.54v-9.66Zm2,4.55a3.43,3.43,0,0,1,1.81-.55A1.3,1.3,0,0,1,474,584v.57a2.35,2.35,0,0,0-1.65-.66,2.25,2.25,0,0,0-2.37,2.25,2.2,2.2,0,0,0,2.34,2.27,2.08,2.08,0,0,0,1.68-.78v.63h1.54v-4.26a2.49,2.49,0,0,0-2.81-2.77,5,5,0,0,0-2,.43v1.49Zm.76,3a1.18,1.18,0,0,1,1.23-1.12,1.2,1.2,0,0,1,1.25,1.12,1.25,1.25,0,0,1-2.48,0Zm7.26-4.77h-1.53v6.89h1.53v-4.06a1.45,1.45,0,1,1,2.9.08v4h1.54v-4.37a2.46,2.46,0,0,0-2.5-2.66,2.1,2.1,0,0,0-1.94,1.12v-1Zm11.43,6.89h1.52v-9.66h-1.52v3.89a2.73,2.73,0,0,0-2.35-1.26,3.6,3.6,0,0,0,0,7.18,2.77,2.77,0,0,0,2.37-1.27v1.12Zm0-3.45a2.06,2.06,0,1,1-2.06-2.07,2.06,2.06,0,0,1,2.06,2.07Zm4.83-3.44h-1.54v6.89H495v-4.06c0-.88.5-1.47,1.34-1.47a2.41,2.41,0,0,1,.93.18v-1.64a5.46,5.46,0,0,0-.58,0,1.86,1.86,0,0,0-1.69,1v-.84Zm9.38,4a3.52,3.52,0,0,0,.1-.78,3.2,3.2,0,0,0-3.28-3.32,3.59,3.59,0,0,0,.08,7.18,5.12,5.12,0,0,0,2.52-.63v-1.52a4.35,4.35,0,0,1-2.4.75,2,2,0,0,1-2.1-1.68Zm-3.19-2.81a1.69,1.69,0,0,1,1.8,1.62h-3.71a1.86,1.86,0,0,1,1.91-1.62Zm6.08-1.15h-1.53v6.89h1.53v-4.06a1.45,1.45,0,1,1,2.9.08v4h1.54v-4.37a2.45,2.45,0,0,0-2.5-2.66,2.1,2.1,0,0,0-1.94,1.12v-1Zm12.35,4a3,3,0,0,0,.1-.78,3.2,3.2,0,0,0-3.27-3.32,3.59,3.59,0,0,0,.08,7.18,5.15,5.15,0,0,0,2.52-.63v-1.52a4.39,4.39,0,0,1-2.41.75,2,2,0,0,1-2.1-1.68Zm-3.19-2.81a1.69,1.69,0,0,1,1.81,1.62h-3.71a1.86,1.86,0,0,1,1.9-1.62Z" transform="translate(-374 69)"/><path class="cls-2" d="M437.74,559.84a2.7,2.7,0,0,0,2.36,1.27,3.6,3.6,0,0,0,0-7.18,2.69,2.69,0,0,0-2.35,1.26V551.3H436.2V561h1.54v-1.12Zm0-2.33a2.05,2.05,0,1,1,2.06,2.09,2,2,0,0,1-2.06-2.09ZM451,558a3.56,3.56,0,0,0,.09-.78,3.2,3.2,0,0,0-3.27-3.32,3.59,3.59,0,0,0,.08,7.18,5.12,5.12,0,0,0,2.52-.63V559a4.35,4.35,0,0,1-2.4.75,2,2,0,0,1-2.1-1.68Zm-3.19-2.81a1.69,1.69,0,0,1,1.8,1.62H445.9a1.86,1.86,0,0,1,1.91-1.62Zm6.56,5.74v-5.57h1.25v-1.32h-1.25v-1.94l-1.45.33v1.61h-1.25v1.32h1.16V561Zm2.52-5.11a3.43,3.43,0,0,1,1.81-.55,1.3,1.3,0,0,1,1.44,1.38v.57a2.35,2.35,0,0,0-1.65-.66,2.25,2.25,0,0,0-2.37,2.25,2.2,2.2,0,0,0,2.34,2.27,2.08,2.08,0,0,0,1.68-.78V561h1.54V556.7a2.5,2.5,0,0,0-2.82-2.77,4.94,4.94,0,0,0-2,.43v1.49Zm.76,3a1.18,1.18,0,0,1,1.23-1.12,1.2,1.2,0,0,1,1.25,1.12,1.19,1.19,0,0,1-1.25,1.11,1.18,1.18,0,0,1-1.23-1.11Zm9.29-1.16v-1.44h-3.65v1.44Zm3.21-3.61h-1.54V561h1.54V556.8a1.29,1.29,0,0,1,1.36-1.37,1.31,1.31,0,0,1,1.33,1.47V561h1.54V556.9a1.33,1.33,0,0,1,1.37-1.47,1.31,1.31,0,0,1,1.33,1.47V561h1.54v-4.48a2.39,2.39,0,0,0-2.41-2.55,2.12,2.12,0,0,0-2.07,1.33,2.24,2.24,0,0,0-2.17-1.33,2,2,0,0,0-1.82,1v-.88Zm10.23,9.76h1.78l4.16-9.76h-1.74l-1.79,4.42-1.71-4.42h-1.72l2.59,6.36-1.57,3.4Zm8.4-9.76h-1.54V561h1.54V556.9a1.34,1.34,0,0,1,1.35-1.47,2.32,2.32,0,0,1,.92.18V554a5.27,5.27,0,0,0-.57,0,1.86,1.86,0,0,0-1.7,1v-.84Zm8,5a2.69,2.69,0,0,1-1.65.53,2.09,2.09,0,0,1,0-4.17,2.77,2.77,0,0,1,1.65.53v-1.65a3.68,3.68,0,0,0-1.65-.38,3.59,3.59,0,1,0,0,7.18,3.56,3.56,0,0,0,1.65-.4v-1.64Zm7.58-1a3.52,3.52,0,0,0,.1-.78,3.2,3.2,0,0,0-3.28-3.32,3.59,3.59,0,0,0,.08,7.18,5.12,5.12,0,0,0,2.52-.63V559a4.35,4.35,0,0,1-2.4.75,2,2,0,0,1-2.1-1.68Zm-3.19-2.81a1.69,1.69,0,0,1,1.8,1.62h-3.71a1.86,1.86,0,0,1,1.91-1.62Zm6.08-1.15h-1.53V561h1.53V556.9a1.45,1.45,0,1,1,2.9.08v4h1.54v-4.37a2.45,2.45,0,0,0-2.5-2.66,2.1,2.1,0,0,0-1.94,1.12v-1Zm12.35,4a3,3,0,0,0,.1-.78,3.2,3.2,0,0,0-3.27-3.32,3.59,3.59,0,0,0,.08,7.18,5.15,5.15,0,0,0,2.52-.63V559a4.39,4.39,0,0,1-2.41.75,2,2,0,0,1-2.1-1.68Zm-3.19-2.81a1.69,1.69,0,0,1,1.81,1.62h-3.71a1.86,1.86,0,0,1,1.9-1.62Z" transform="translate(-374 69)"/><path class="cls-2" d="M453.17,533.61v-1.53H449.5v-8h-1.6v9.52Zm4.25-3.28v-1.44h-3.65v1.44Zm5.21-3.61H461.1v-.52a.82.82,0,0,1,.89-.89,1.87,1.87,0,0,1,.7.15v-1.55a3.9,3.9,0,0,0-.76-.1,2.14,2.14,0,0,0-2.36,2.31v.6h-1V528h1v5.57h1.53V528h1.53v-1.32Zm7.17,4a3.52,3.52,0,0,0,.1-.78,3.2,3.2,0,0,0-3.28-3.32,3.59,3.59,0,0,0,.09,7.18,5.18,5.18,0,0,0,2.52-.63v-1.52a4.41,4.41,0,0,1-2.41.75,2,2,0,0,1-2.1-1.68Zm-3.19-2.81a1.68,1.68,0,0,1,1.8,1.62H464.7a1.86,1.86,0,0,1,1.91-1.62Zm6.09-1.15h-1.54v6.89h1.54v-4.06a1.38,1.38,0,0,1,1.44-1.47,1.41,1.41,0,0,1,1.46,1.55v4h1.53v-4.37a2.46,2.46,0,0,0-2.5-2.66,2.08,2.08,0,0,0-1.93,1.12v-1Zm11,5a2.72,2.72,0,0,1-1.66.53,2.09,2.09,0,0,1,0-4.17,2.83,2.83,0,0,1,1.66.53V527a3.72,3.72,0,0,0-1.66-.38,3.59,3.59,0,1,0,0,7.18,3.6,3.6,0,0,0,1.66-.4v-1.64Zm3-7.77h-1.54v9.66h1.54v-4.06a1.39,1.39,0,0,1,1.45-1.47,1.41,1.41,0,0,1,1.45,1.55v4h1.53v-4.37a2.45,2.45,0,0,0-2.5-2.66,2.09,2.09,0,0,0-1.93,1.12V524Zm5.71,6.21a3.59,3.59,0,1,0,3.58-3.58,3.54,3.54,0,0,0-3.58,3.58Zm1.55,0a2,2,0,1,1,2,2.09,2,2,0,0,1-2-2.09Zm8.49-3.44h-1.54v6.89h1.54v-4.06a1.38,1.38,0,0,1,1.44-1.47,1.41,1.41,0,0,1,1.46,1.55v4h1.53v-4.37a2.46,2.46,0,0,0-2.5-2.66,2.08,2.08,0,0,0-1.93,1.12v-1Zm12.34,4a3,3,0,0,0,.1-.78,3.2,3.2,0,0,0-3.27-3.32,3.59,3.59,0,0,0,.08,7.18,5.15,5.15,0,0,0,2.52-.63v-1.52a4.39,4.39,0,0,1-2.41.75,2,2,0,0,1-2.1-1.68Zm-3.19-2.81a1.69,1.69,0,0,1,1.81,1.62H509.7a1.86,1.86,0,0,1,1.9-1.62Zm4.39-3.15-.27.47,1.3.77-1.3.76.27.48,1.31-.76v1.5h.55v-1.5l1.31.76.28-.49-1.32-.75,1.32-.77-.28-.47-1.31.77V524h-.55v1.54l-1.31-.77Z" transform="translate(-374 69)"/><path class="cls-2" d="M438.27,506.26h1.53V496.6h-1.53v3.89a2.71,2.71,0,0,0-2.35-1.26,3.6,3.6,0,0,0,0,7.18,2.74,2.74,0,0,0,2.36-1.27v1.12Zm0-3.45a2.06,2.06,0,1,1-2.06-2.07,2.06,2.06,0,0,1,2.06,2.07Zm9.51.52a3.52,3.52,0,0,0,.1-.78,3.21,3.21,0,0,0-3.28-3.32,3.59,3.59,0,0,0,.08,7.18,5.12,5.12,0,0,0,2.52-.63v-1.52a4.35,4.35,0,0,1-2.4.75,2,2,0,0,1-2.1-1.68Zm-3.19-2.81a1.68,1.68,0,0,1,1.8,1.62h-3.71a1.86,1.86,0,0,1,1.91-1.62Zm6.1-3.92h-1.54v9.66h1.54V496.6Zm3.85,9.66v-5.57h1.25v-1.32h-1.25v-1.94l-1.46.33v1.61h-1.24v1.32H453v5.57Zm2.52-5.11a3.43,3.43,0,0,1,1.8-.55,1.3,1.3,0,0,1,1.45,1.38v.57a2.35,2.35,0,0,0-1.65-.66,2.25,2.25,0,0,0-2.37,2.25,2.2,2.2,0,0,0,2.34,2.27,2.1,2.1,0,0,0,1.68-.78v.63h1.54V502a2.5,2.5,0,0,0-2.82-2.77,4.94,4.94,0,0,0-2,.43v1.49Zm.75,3a1.25,1.25,0,1,1,1.24,1.11,1.19,1.19,0,0,1-1.24-1.11Zm9.3-1.16v-1.44h-3.65V503Zm2.09-.89h1.36a1.36,1.36,0,0,1,1.49,1.34,1.44,1.44,0,0,1-1.58,1.39,3.11,3.11,0,0,1-2-.69V506a5.35,5.35,0,0,0,2.09.46,2.87,2.87,0,0,0,3.13-2.76,2.41,2.41,0,0,0-1.48-2.33,2.27,2.27,0,0,0,1.22-2.14,2.66,2.66,0,0,0-2.94-2.58,4.43,4.43,0,0,0-1.9.43v1.73a3.07,3.07,0,0,1,1.84-.57,1.2,1.2,0,0,1,1.35,1.19,1.16,1.16,0,0,1-1.23,1.17H469.2v1.54Zm9.56.89v-1.44H475.1V503Zm6.52,1.39a2.69,2.69,0,0,1-1.65.53,2.09,2.09,0,0,1,0-4.17,2.77,2.77,0,0,1,1.65.53v-1.65a3.68,3.68,0,0,0-1.65-.38,3.59,3.59,0,1,0,0,7.18,3.56,3.56,0,0,0,1.65-.4v-1.64Zm1.7-3.22a3.4,3.4,0,0,1,1.8-.55,1.3,1.3,0,0,1,1.45,1.38v.57a2.36,2.36,0,0,0-1.66-.66,2.24,2.24,0,0,0-2.36,2.25,2.19,2.19,0,0,0,2.33,2.27,2.1,2.1,0,0,0,1.69-.78v.63h1.53V502a2.49,2.49,0,0,0-2.81-2.77,4.94,4.94,0,0,0-2,.43v1.49Zm.75,3A1.18,1.18,0,0,1,489,503a1.2,1.2,0,0,1,1.25,1.12,1.25,1.25,0,0,1-2.48,0Zm7.27-4.77h-1.54v6.89H495V502.2c0-.88.5-1.47,1.34-1.47a2.41,2.41,0,0,1,.93.18v-1.64a5.46,5.46,0,0,0-.58,0,1.86,1.86,0,0,0-1.69,1v-.84Zm9.38,4a3.52,3.52,0,0,0,.1-.78,3.2,3.2,0,0,0-3.28-3.32,3.59,3.59,0,0,0,.08,7.18,5.12,5.12,0,0,0,2.52-.63v-1.52a4.35,4.35,0,0,1-2.4.75,2,2,0,0,1-2.1-1.68Zm-3.19-2.81a1.69,1.69,0,0,1,1.8,1.62h-3.71a1.86,1.86,0,0,1,1.91-1.62Zm6.08-1.15h-1.53v6.89h1.53V502.2a1.45,1.45,0,1,1,2.9.08v4h1.54v-4.37a2.45,2.45,0,0,0-2.5-2.66,2.1,2.1,0,0,0-1.94,1.12v-1Zm12.35,4a3,3,0,0,0,.1-.78,3.2,3.2,0,0,0-3.27-3.32,3.59,3.59,0,0,0,.08,7.18,5.15,5.15,0,0,0,2.52-.63v-1.52a4.39,4.39,0,0,1-2.41.75,2,2,0,0,1-2.1-1.68Zm-3.19-2.81a1.69,1.69,0,0,1,1.81,1.62h-3.71a1.86,1.86,0,0,1,1.9-1.62Z" transform="translate(-374 69)"/><path class="cls-2" d="M447.74,477.79a2.69,2.69,0,0,0,2.36,1.27,3.6,3.6,0,0,0,0-7.18,2.67,2.67,0,0,0-2.35,1.26v-3.89H446.2v9.66h1.54v-1.12Zm0-2.33a2.05,2.05,0,1,1,4.1,0,2.05,2.05,0,1,1-4.1,0ZM461,476a3,3,0,0,0,.1-.78,3.2,3.2,0,0,0-3.27-3.32,3.59,3.59,0,0,0,.08,7.18,5.15,5.15,0,0,0,2.52-.63v-1.52a4.39,4.39,0,0,1-2.41.75,2,2,0,0,1-2.1-1.68Zm-3.19-2.81a1.69,1.69,0,0,1,1.81,1.62H455.9a1.86,1.86,0,0,1,1.9-1.62Zm6.57,5.74v-5.57h1.24V472h-1.24v-1.94l-1.46.33V472h-1.24v1.32h1.16v5.57Zm2.52-5.11a3.4,3.4,0,0,1,1.8-.55,1.3,1.3,0,0,1,1.45,1.38v.57a2.36,2.36,0,0,0-1.66-.66,2.24,2.24,0,0,0-2.36,2.25,2.19,2.19,0,0,0,2.33,2.27,2.1,2.1,0,0,0,1.69-.78v.63h1.53v-4.26a2.49,2.49,0,0,0-2.81-2.77,4.94,4.94,0,0,0-2,.43v1.49Zm.75,3a1.25,1.25,0,1,1,1.24,1.11,1.19,1.19,0,0,1-1.24-1.11Zm9.3-1.16v-1.44h-3.66v1.44Zm3.2-3.61h-1.53v9.76h1.53v-4a2.69,2.69,0,0,0,2.36,1.27,3.6,3.6,0,0,0,0-7.18,2.59,2.59,0,0,0-2.36,1.34V472Zm0,3.45a2.06,2.06,0,1,1,2.06,2.08,2,2,0,0,1-2.06-2.08Zm8.59-3.45h-1.54v6.89h1.54V472Zm-1.72-2.1a.93.93,0,0,0,.95.95,1,1,0,0,0,0-1.9.94.94,0,0,0-.95.95Zm5,2.1h-1.54v6.89H492v-4.06a1.39,1.39,0,0,1,1.44-1.47,1.41,1.41,0,0,1,1.46,1.55v4h1.54v-4.37a2.46,2.46,0,0,0-2.51-2.66A2.09,2.09,0,0,0,492,473v-1Zm12.35,4a3.52,3.52,0,0,0,.1-.78,3.2,3.2,0,0,0-3.28-3.32,3.59,3.59,0,0,0,.08,7.18,5.12,5.12,0,0,0,2.52-.63v-1.52a4.35,4.35,0,0,1-2.4.75,2,2,0,0,1-2.1-1.68Zm-3.19-2.81a1.69,1.69,0,0,1,1.8,1.62h-3.71a1.86,1.86,0,0,1,1.91-1.62Zm6.08-1.15h-1.53v6.89h1.53v-4.06a1.45,1.45,0,1,1,2.9.08v4h1.54v-4.37a2.45,2.45,0,0,0-2.5-2.66,2.1,2.1,0,0,0-1.94,1.12v-1Zm12.35,4a3,3,0,0,0,.1-.78,3.2,3.2,0,0,0-3.27-3.32,3.59,3.59,0,0,0,.08,7.18,5.15,5.15,0,0,0,2.52-.63v-1.52a4.39,4.39,0,0,1-2.41.75,2,2,0,0,1-2.1-1.68Zm-3.19-2.81a1.69,1.69,0,0,1,1.81,1.62h-3.71a1.86,1.86,0,0,1,1.9-1.62Z" transform="translate(-374 69)"/><path class="cls-2" d="M404.53,450.44a2.72,2.72,0,0,0,2.37,1.27,3.6,3.6,0,0,0,0-7.18,2.7,2.7,0,0,0-2.35,1.26V441.9H403v9.66h1.54v-1.12Zm0-2.33a2.05,2.05,0,1,1,2.06,2.09,2,2,0,0,1-2.06-2.09Zm13.26.52a3,3,0,0,0,.1-.78,3.2,3.2,0,0,0-3.28-3.32,3.59,3.59,0,0,0,.09,7.18,5.18,5.18,0,0,0,2.52-.63v-1.52a4.41,4.41,0,0,1-2.41.75,2,2,0,0,1-2.1-1.68Zm-3.19-2.81a1.68,1.68,0,0,1,1.8,1.62h-3.71a1.86,1.86,0,0,1,1.91-1.62Zm6.56,5.74V446h1.25v-1.32h-1.25v-1.94l-1.45.33v1.61h-1.25V446h1.16v5.57Zm2.52-5.11a3.43,3.43,0,0,1,1.81-.55,1.3,1.3,0,0,1,1.44,1.38v.57a2.35,2.35,0,0,0-1.65-.66,2.25,2.25,0,0,0-2.37,2.25,2.2,2.2,0,0,0,2.34,2.27,2.08,2.08,0,0,0,1.68-.78v.63h1.54V447.3a2.49,2.49,0,0,0-2.81-2.77,5,5,0,0,0-2,.43v1.49Zm.76,3a1.18,1.18,0,0,1,1.23-1.12,1.2,1.2,0,0,1,1.25,1.12,1.25,1.25,0,0,1-2.48,0Zm9.3-1.16v-1.44h-3.66v1.44Zm6.52,1.39a2.69,2.69,0,0,1-1.65.53,2.09,2.09,0,0,1,0-4.17,2.8,2.8,0,0,1,1.65.53v-1.65a3.71,3.71,0,0,0-1.65-.38,3.59,3.59,0,1,0,0,7.18,3.59,3.59,0,0,0,1.65-.4v-1.64Zm1.69-3.22a3.46,3.46,0,0,1,1.81-.55,1.3,1.3,0,0,1,1.44,1.38v.57a2.35,2.35,0,0,0-1.65-.66,2.25,2.25,0,0,0-2.37,2.25,2.2,2.2,0,0,0,2.34,2.27,2.08,2.08,0,0,0,1.68-.78v.63h1.54V447.3a2.49,2.49,0,0,0-2.81-2.77,5,5,0,0,0-2,.43v1.49Zm.76,3a1.18,1.18,0,0,1,1.23-1.12,1.2,1.2,0,0,1,1.25,1.12,1.25,1.25,0,0,1-2.48,0Zm7.26-4.77h-1.53v6.89H450V447.5a1.34,1.34,0,0,1,1.35-1.47,2.32,2.32,0,0,1,.92.18v-1.64a5.27,5.27,0,0,0-.57,0,1.88,1.88,0,0,0-1.7,1v-.84Zm3.64,9.76h1.78l4.16-9.76h-1.74L456,449.09l-1.71-4.42h-1.72l2.59,6.36-1.57,3.4Zm6.22-6.32a3.59,3.59,0,1,0,3.59-3.58,3.54,3.54,0,0,0-3.59,3.58Zm1.55,0a2.05,2.05,0,0,1,2-2.08,2.09,2.09,0,0,1,0,4.17,2.05,2.05,0,0,1-2-2.09Zm8.49-3.44h-1.54v9.76h1.54v-4a2.66,2.66,0,0,0,2.35,1.27,3.6,3.6,0,0,0,0-7.18,2.56,2.56,0,0,0-2.35,1.34v-1.2Zm0,3.45a2.05,2.05,0,1,1,2.06,2.08,2,2,0,0,1-2.06-2.08Zm8.58-6.22h-1.54v9.66h1.54V447.5a1.45,1.45,0,1,1,2.9.08v4h1.54v-4.37a2.46,2.46,0,0,0-2.51-2.66,2.11,2.11,0,0,0-1.93,1.12V441.9Zm6.22,12.53h1.77l4.16-9.76h-1.73l-1.8,4.42-1.7-4.42h-1.72l2.59,6.36-1.57,3.4Zm8.41-12.53h-1.54v9.66h1.54V441.9Zm3.32,0h-1.54v9.66h1.54V441.9Zm8,6.73a3.52,3.52,0,0,0,.1-.78,3.2,3.2,0,0,0-3.28-3.32,3.59,3.59,0,0,0,.08,7.18,5.12,5.12,0,0,0,2.52-.63v-1.52a4.35,4.35,0,0,1-2.4.75,2,2,0,0,1-2.1-1.68Zm-3.19-2.81a1.69,1.69,0,0,1,1.8,1.62h-3.71a1.86,1.86,0,0,1,1.91-1.62Zm6.08-1.15h-1.53v6.89h1.53V447.5a1.45,1.45,0,1,1,2.9.08v4h1.54v-4.37a2.45,2.45,0,0,0-2.5-2.66,2.1,2.1,0,0,0-1.94,1.12v-1Zm12.35,4a3,3,0,0,0,.1-.78,3.2,3.2,0,0,0-3.27-3.32,3.59,3.59,0,0,0,.08,7.18,5.15,5.15,0,0,0,2.52-.63v-1.52a4.39,4.39,0,0,1-2.41.75,2,2,0,0,1-2.1-1.68Zm-3.19-2.81a1.69,1.69,0,0,1,1.81,1.62h-3.71a1.86,1.86,0,0,1,1.9-1.62Z" transform="translate(-374 69)"/><path class="cls-2" d="M561.13,723.11v-1.52h-1.22v-6.05h-1.59l-4.2,6.2v1.37h4.2v1.95h1.59v-1.95Zm-5.32-1.52,2.51-3.77v3.77Zm6.36,3.47h5.23v-1.53h-3.19l2.13-2.69a4.19,4.19,0,0,0,1.09-2.76,2.63,2.63,0,0,0-2.91-2.68,3.8,3.8,0,0,0-2.17.71v1.81a2.85,2.85,0,0,1,2.06-.93,1.28,1.28,0,0,1,1.38,1.37,3.09,3.09,0,0,1-.85,1.82l-2.77,3.51v1.37Z" transform="translate(-374 69)"/><path class="cls-2" d="M560,695.76v-1.52h-1.22v-6h-1.59l-4.2,6.2v1.37h4.2v2h1.59v-2Zm-5.32-1.52,2.51-3.77v3.77Zm11.54-6h-1.91l-2.73,4.25a3.86,3.86,0,0,0-.61,2,3.37,3.37,0,1,0,6.73,0,3.24,3.24,0,0,0-3.36-3.28h-.12l2-3Zm-.14,6.3a1.75,1.75,0,1,1-3.49,0,1.75,1.75,0,1,1,3.49,0Z" transform="translate(-374 69)"/><path class="cls-2" d="M555.51,670.36h5.83v-1.53h-2v-8h-3.57v1.52h2v6.47h-2.29v1.53Zm7.48-4.17h1.36a1.37,1.37,0,0,1,1.5,1.34,1.45,1.45,0,0,1-1.59,1.39,3.06,3.06,0,0,1-2-.69v1.82a5.25,5.25,0,0,0,2.08.46,2.88,2.88,0,0,0,3.14-2.76,2.42,2.42,0,0,0-1.49-2.33,2.25,2.25,0,0,0,1.22-2.14,2.66,2.66,0,0,0-2.94-2.58,4.47,4.47,0,0,0-1.9.43v1.73a3.13,3.13,0,0,1,1.85-.57,1.2,1.2,0,0,1,1.34,1.19,1.16,1.16,0,0,1-1.23,1.17H563v1.54Z" transform="translate(-374 69)"/><path class="cls-2" d="M549.59,638.84H551a1.37,1.37,0,0,1,1.5,1.34,1.44,1.44,0,0,1-1.58,1.39,3.09,3.09,0,0,1-2-.69v1.82a5.25,5.25,0,0,0,2.08.46,2.88,2.88,0,0,0,3.14-2.76,2.43,2.43,0,0,0-1.48-2.33,2.26,2.26,0,0,0,1.21-2.14,2.65,2.65,0,0,0-2.93-2.58,4.48,4.48,0,0,0-1.91.43v1.73a3.13,3.13,0,0,1,1.85-.57,1.2,1.2,0,0,1,1.34,1.19A1.16,1.16,0,0,1,551,637.3h-1.36v1.54Zm5.69,4.17h5.23v-1.53h-3.19l2.13-2.69a4.19,4.19,0,0,0,1.09-2.76,2.63,2.63,0,0,0-2.91-2.68,3.8,3.8,0,0,0-2.17.71v1.81a2.86,2.86,0,0,1,2.06-.93,1.28,1.28,0,0,1,1.38,1.37,3.09,3.09,0,0,1-.85,1.82l-2.77,3.51V643Zm12.05-8v-1.52h-4.45l-.48,4.93h1.28c1.16,0,2.14.39,2.14,1.52a1.63,1.63,0,0,1-1.74,1.63,3.2,3.2,0,0,1-2.25-1v2a4.76,4.76,0,0,0,2.34.64,3.05,3.05,0,0,0,3.3-3.22c0-1.86-1.32-3-3.33-3h-.09l.26-1.94Z" transform="translate(-374 69)"/><path class="cls-2" d="M555.83,561h1.91l2.72-4.26a3.72,3.72,0,0,0,.62-2,3.37,3.37,0,1,0-3.37,3.35h.09l-2,2.94Zm.14-6.29a1.75,1.75,0,1,1,3.49,0,1.75,1.75,0,1,1-3.49,0Zm6.2,6.29h5.23v-1.53h-3.19l2.13-2.69a4.19,4.19,0,0,0,1.09-2.76,2.63,2.63,0,0,0-2.91-2.68,3.8,3.8,0,0,0-2.17.71v1.81a2.85,2.85,0,0,1,2.06-.93,1.28,1.28,0,0,1,1.38,1.37,3.09,3.09,0,0,1-.85,1.82l-2.77,3.51V561Z" transform="translate(-374 69)"/><path class="cls-2" d="M547.31,478.91h5.82v-1.53h-1.94v-8h-3.57v1.52h2v6.47h-2.28v1.53Zm6.64,0h5.23v-1.53H556l2.13-2.69a4.19,4.19,0,0,0,1.09-2.76,2.63,2.63,0,0,0-2.91-2.68,3.8,3.8,0,0,0-2.17.71v1.81a2.86,2.86,0,0,1,2.06-.93,1.28,1.28,0,0,1,1.38,1.37,3.09,3.09,0,0,1-.85,1.82L554,477.54v1.37Zm10-8.09a1.68,1.68,0,0,1,1.74,1.81v3.05a1.75,1.75,0,1,1-3.49,0v-3.05a1.68,1.68,0,0,1,1.75-1.81Zm0-1.57a3.24,3.24,0,0,0-3.35,3.34v3.13a3.34,3.34,0,1,0,6.68,0v-3.13a3.23,3.23,0,0,0-3.33-3.34Z" transform="translate(-374 69)"/><path class="cls-2" d="M547.46,451.56h5.83V450h-1.95v-8h-3.57v1.52h2V450h-2.29v1.53Zm12.18-8V442h-4.45l-.47,4.93H556c1.16,0,2.14.39,2.14,1.52a1.62,1.62,0,0,1-1.73,1.63,3.23,3.23,0,0,1-2.26-1v2a4.79,4.79,0,0,0,2.34.64,3,3,0,0,0,3.3-3.22c0-1.86-1.31-3-3.33-3h-.08l.25-1.94Zm6.53-1.52h-1.91l-2.73,4.25a3.86,3.86,0,0,0-.61,2,3.37,3.37,0,1,0,6.73,0,3.24,3.24,0,0,0-3.36-3.28h-.12l2-3Zm-.14,6.3a1.75,1.75,0,1,1-3.49,0,1.75,1.75,0,1,1,3.49,0Z" transform="translate(-374 69)"/><text class="cls-5" transform="translate(68.28 492.56)">C</text><text class="cls-5" transform="translate(76.28 492.56)">OMPOUND</text><text class="cls-5" transform="translate(168.88 492.56)">ppm</text><text class="cls-5" transform="translate(273.24 492.56)">QU</text><text class="cls-5" transform="translate(293.05 492.56)">ANTI</text><text class="cls-6" transform="translate(323.49 492.56)">TA</text><text class="cls-5" transform="translate(338.64 492.56)">TIVE PROFILE</text><path class="cls-2" d="M522.3,803h-.68v8.23h.68v-3.82a2.59,2.59,0,0,0,2.41,1.48,3,3,0,0,0,0-6,2.57,2.57,0,0,0-2.41,1.51V803Zm0,2.88a2.31,2.31,0,1,1,2.31,2.34,2.28,2.28,0,0,1-2.31-2.34Zm7.42-2.88H529v8.23h.68v-3.82a2.59,2.59,0,0,0,2.4,1.48,3,3,0,0,0,0-6,2.56,2.56,0,0,0-2.4,1.51V803Zm0,2.88a2.31,2.31,0,1,1,4.61,0,2.31,2.31,0,1,1-4.61,0Zm7.42-2.88h-.69v5.77h.69v-3.68a1.43,1.43,0,0,1,1.52-1.54,1.46,1.46,0,0,1,1.5,1.63v3.59h.68v-3.59a1.52,1.52,0,1,1,3,0v3.59h.68v-3.72a2,2,0,0,0-2.06-2.17,1.76,1.76,0,0,0-1.8,1.27,1.92,1.92,0,0,0-1.91-1.27,1.72,1.72,0,0,0-1.65,1V803Zm14.66-1.83a1.91,1.91,0,0,1,2,2v3a2,2,0,1,1-3.93,0v-3a1.91,1.91,0,0,1,2-2Zm0-.68a2.58,2.58,0,0,0-2.65,2.67v3a2.66,2.66,0,1,0,5.31,0v-3a2.59,2.59,0,0,0-2.66-2.67Zm4.12,7.81a.59.59,0,1,0,.58-.59.57.57,0,0,0-.58.59Zm5.3-7.13a1.91,1.91,0,0,1,2,2v3a2,2,0,1,1-3.93,0v-3a1.91,1.91,0,0,1,2-2Zm0-.68a2.58,2.58,0,0,0-2.65,2.67v3a2.66,2.66,0,1,0,5.31,0v-3a2.59,2.59,0,0,0-2.66-2.67Zm7,.68a1.9,1.9,0,0,1,2,2v3a2,2,0,1,1-3.92,0v-3a1.9,1.9,0,0,1,2-2Zm0-.68a2.59,2.59,0,0,0-2.65,2.67v3a2.66,2.66,0,1,0,5.32,0v-3a2.6,2.6,0,0,0-2.67-2.67Z" transform="translate(-374 69)"/><path class="cls-2" d="M683.09,808.8h4.65v-.65h-1.81v-7.51h-2.67v.64h2v6.87h-2.15v.65Zm8.39-7.6a1.91,1.91,0,0,1,2,2v3a2,2,0,1,1-3.93,0v-3a1.91,1.91,0,0,1,2-2Zm0-.68a2.59,2.59,0,0,0-2.66,2.67v3a2.66,2.66,0,1,0,5.32,0v-3a2.59,2.59,0,0,0-2.66-2.67Zm7,.68a1.91,1.91,0,0,1,2,2v3a2,2,0,1,1-3.93,0v-3a1.91,1.91,0,0,1,2-2Zm0-.68a2.58,2.58,0,0,0-2.65,2.67v3a2.66,2.66,0,1,0,5.31,0v-3a2.59,2.59,0,0,0-2.66-2.67Zm4.12,7.81a.59.59,0,1,0,.58-.59.57.57,0,0,0-.58.59Zm5.3-7.13a1.91,1.91,0,0,1,2,2v3a2,2,0,1,1-3.93,0v-3a1.91,1.91,0,0,1,2-2Zm0-.68a2.58,2.58,0,0,0-2.65,2.67v3a2.66,2.66,0,1,0,5.31,0v-3a2.59,2.59,0,0,0-2.66-2.67Zm7,.68a1.9,1.9,0,0,1,2,2v3a2,2,0,1,1-3.92,0v-3a1.9,1.9,0,0,1,2-2Zm0-.68a2.59,2.59,0,0,0-2.65,2.67v3a2.66,2.66,0,1,0,5.32,0v-3a2.6,2.6,0,0,0-2.67-2.67Z" transform="translate(-374 69)"/><path class="cls-7" d="M520.83,853.53h1.94v-9.71h2.94V842h-7.82v1.85h2.94v9.71Zm4.67-4.18a4.36,4.36,0,1,0,4.36-4.36,4.31,4.31,0,0,0-4.36,4.36Zm1.89,0a2.48,2.48,0,0,1,2.47-2.54,2.54,2.54,0,0,1,0,5.07,2.48,2.48,0,0,1-2.47-2.53Zm10.8,4.18v-6.77h1.51v-1.6h-1.51V842.8l-1.77.41v1.95h-1.51v1.6h1.41v6.77Zm3.06-6.21a4.16,4.16,0,0,1,2.19-.66,1.57,1.57,0,0,1,1.75,1.67V849a2.89,2.89,0,0,0-2-.8,2.74,2.74,0,0,0-2.88,2.74,2.68,2.68,0,0,0,2.84,2.76,2.52,2.52,0,0,0,2-1v.77h1.87v-5.17c0-2.36-1.34-3.37-3.41-3.37a5.83,5.83,0,0,0-2.4.53v1.8Zm.91,3.64a1.52,1.52,0,1,1,1.5,1.34,1.43,1.43,0,0,1-1.5-1.34ZM551,841.8h-1.87v11.73H551V841.8Zm7.7,11.73h1.94v-9.71h2.94V842h-7.82v1.85h2.94v9.71ZM571.44,850a3.72,3.72,0,0,0,.12-1,3.89,3.89,0,0,0-4-4,4.37,4.37,0,0,0,.11,8.73,6.34,6.34,0,0,0,3.06-.77V851.1a5.36,5.36,0,0,1-2.93.92,2.44,2.44,0,0,1-2.55-2Zm-3.87-3.41a2,2,0,0,1,2.19,2h-4.5a2.24,2.24,0,0,1,2.31-2Zm7.39-1.4h-1.87v8.37H575V848.6c0-1.07.61-1.79,1.64-1.79a2.94,2.94,0,0,1,1.12.22v-2a5.36,5.36,0,0,0-.7,0,2.26,2.26,0,0,0-2.06,1.19v-1Zm5.95,0H579V857h1.87v-4.84a3.26,3.26,0,0,0,2.86,1.55,4.38,4.38,0,0,0,0-8.73,3.12,3.12,0,0,0-2.86,1.64v-1.47Zm0,4.19a2.5,2.5,0,1,1,2.5,2.53,2.49,2.49,0,0,1-2.5-2.53ZM597,850a3.72,3.72,0,0,0,.12-1,3.89,3.89,0,0,0-4-4,4.37,4.37,0,0,0,.11,8.73,6.31,6.31,0,0,0,3.06-.77V851.1a5.34,5.34,0,0,1-2.93.92,2.44,2.44,0,0,1-2.55-2Zm-3.87-3.41a2,2,0,0,1,2.19,2h-4.5a2.25,2.25,0,0,1,2.31-2Zm7.39-1.4h-1.87v8.37h1.87V848.6a1.76,1.76,0,1,1,3.52.1v4.83h1.87v-5.31a3,3,0,0,0-3-3.23,2.56,2.56,0,0,0-2.35,1.36v-1.19Zm15,4.81a3.72,3.72,0,0,0,.12-1,3.89,3.89,0,0,0-4-4,4.37,4.37,0,0,0,.1,8.73,6.28,6.28,0,0,0,3.06-.77V851.1a5.33,5.33,0,0,1-2.92.92,2.44,2.44,0,0,1-2.55-2Zm-3.88-3.41a2.06,2.06,0,0,1,2.2,2h-4.51a2.26,2.26,0,0,1,2.31-2Zm5.38,5.93a1.17,1.17,0,0,0,1.2,1.21,1.22,1.22,0,1,0,0-2.43,1.17,1.17,0,0,0-1.2,1.22Zm0-6a1.17,1.17,0,0,0,1.2,1.21,1.19,1.19,0,0,0,1.25-1.21,1.21,1.21,0,0,0-1.25-1.22,1.18,1.18,0,0,0-1.2,1.22Zm7.58,2.89,7.63,3v-1.53l-5.78-2.14,5.78-2.18V845l-7.63,3v1.44ZM638,843.68a2,2,0,0,1,2.11,2.21v3.71a2.12,2.12,0,1,1-4.23,0v-3.71a2,2,0,0,1,2.12-2.21Zm0-1.9a3.94,3.94,0,0,0-4.06,4.06v3.81a4.06,4.06,0,1,0,8.11,0v-3.81a3.94,3.94,0,0,0-4.05-4.06Zm5.7,10.59a1.33,1.33,0,1,0,2.65,0,1.33,1.33,0,1,0-2.65,0Zm4,1.16h7.08v-1.85h-2.37V842h-4.33v1.85h2.4v7.86h-2.78v1.85Zm11.07-8.37,2.54,8.37h2l1.8-5.12,2,5.12h2l2.55-8.37h-2L668,851.23l-2.3-6.07h-1.86l.4,1.09-1.73,5-1.7-6.07Zm16.61,8.37v-6.77H677v-1.6h-1.52V842.8l-1.76.41v1.95h-1.52v1.6h1.41v6.77Zm5.82,0h1.41L687.84,842h-1.43l-5.13,11.56Zm-.83-10.39a1.12,1.12,0,0,1,1.22,1.16v2.09a1.22,1.22,0,0,1-2.43,0V844.3a1.12,1.12,0,0,1,1.21-1.16Zm0-1.34a2.45,2.45,0,0,0-2.59,2.46v2.16a2.6,2.6,0,0,0,5.19,0v-2.16a2.46,2.46,0,0,0-2.6-2.46Zm8.14,6.15a1.12,1.12,0,0,1,1.22,1.16v2.07a1.22,1.22,0,0,1-2.44,0v-2.07a1.11,1.11,0,0,1,1.22-1.16Zm0-1.34a2.46,2.46,0,0,0-2.6,2.46v2.16a2.6,2.6,0,0,0,5.2,0v-2.16a2.46,2.46,0,0,0-2.6-2.46Z" transform="translate(-374 69)"/><polygon class="cls-1" points="199.9 327.86 206.1 327.86 206.1 343.33 199.9 343.33 199.9 327.86 199.9 327.86"/><polygon class="cls-1" points="199.9 245.86 431.5 245.86 431.5 261.33 199.9 261.33 199.9 245.86 199.9 245.86"/><polygon class="cls-1" points="199.9 218.69 215.46 218.69 215.46 234.16 199.9 234.16 199.9 218.69 199.9 218.69"/><polygon class="cls-1" points="199.9 191.06 211.7 191.06 211.7 206.53 199.9 206.53 199.9 191.06 199.9 191.06"/><polygon class="cls-1" points="199.9 163.66 203.3 163.66 203.3 179.13 199.9 179.13 199.9 163.66 199.9 163.66"/><polygon class="cls-1" points="199.9 136.66 204.1 136.66 204.1 152.13 199.9 152.13 199.9 136.66 199.9 136.66"/><polygon class="cls-1" points="199.9 109.66 206.4 109.66 206.4 125.13 199.9 125.13 199.9 109.66 199.9 109.66"/><polygon class="cls-1" points="199.9 82.66 216.9 82.66 216.9 98.13 199.9 98.13 199.9 82.66 199.9 82.66"/><polygon class="cls-1" points="199.9 354.66 256.9 354.66 256.9 370.13 199.9 370.13 199.9 354.66 199.9 354.66"/><polygon class="cls-1" points="199.9 780.69 222.33 780.69 222.33 796.16 199.9 796.16 199.9 780.69 199.9 780.69"/><polygon class="cls-1" points="199.9 753.29 224.13 753.29 224.13 768.76 199.9 768.76 199.9 753.29 199.9 753.29"/><polygon class="cls-1" points="199.9 725.89 207.13 725.89 207.13 741.36 199.9 741.36 199.9 725.89 199.9 725.89"/><polygon class="cls-1" points="199.9 698.49 370.43 698.49 370.43 713.96 199.9 713.96 199.9 698.49 199.9 698.49"/><polygon class="cls-1" points="199.9 616.95 247.93 616.95 247.93 632.41 199.9 632.41 199.9 616.95 199.9 616.95"/><polygon class="cls-1" points="199.9 534.82 262.93 534.82 262.93 550.29 199.9 550.29 199.9 534.82 199.9 534.82"/><polygon class="cls-1" points="199.9 507.42 281.93 507.42 281.93 522.89 199.9 522.89 199.9 507.42 199.9 507.42"/></svg>