<svg id="Layer_1" data-name="Layer 1" xmlns="http://www.w3.org/2000/svg" viewBox="0 0 749.18 600"><defs><style>.cls-1{fill:#fbc7b5;}.cls-2{fill:#941a27;}.cls-3{fill:#fdd8cb;}.cls-4,.cls-5{fill:none;stroke:#fff;}.cls-4{stroke-width:7px;}.cls-6{fill:#231f20;}</style></defs><title>Good-Day-Can2</title><polygon class="cls-1" points="0 0 0 600 749.18 600 749.18 0 0 0 0 0"/><polygon class="cls-2" points="69.6 526.86 69.6 551.38 678.25 551.38 678.25 526.86 69.6 526.86 69.6 526.86"/><polygon class="cls-3" points="69.6 178.82 69.6 207.62 678.25 207.62 678.25 178.82 69.6 178.82 69.6 178.82"/><polygon class="cls-3" points="69.6 69.22 69.6 98.02 678.25 98.02 678.25 69.22 69.6 69.22 69.6 69.22"/><polygon class="cls-3" points="69.6 124.02 69.6 152.82 678.25 152.82 678.25 124.02 69.6 124.02 69.6 124.02"/><polygon class="cls-3" points="69.6 233.62 69.6 262.42 678.25 262.42 678.25 233.62 69.6 233.62 69.6 233.62"/><polygon class="cls-3" points="69.6 288.42 69.6 317.22 678.25 317.22 678.25 288.42 69.6 288.42 69.6 288.42"/><polygon class="cls-3" points="69.6 343.22 69.6 372.02 678.25 372.02 678.25 343.22 69.6 343.22 69.6 343.22"/><line class="cls-4" x1="69.6" y1="410.18" x2="678.25" y2="410.18"/><line class="cls-5" x1="69.6" y1="69.12" x2="678.25" y2="69.12"/><path class="cls-6" d="M464.16,596.32h6V594.4h-1.86v-7.6h-3.8v1.92h1.81v5.68h-2.17v1.92Zm6.78-1.15a1.25,1.25,0,0,0,1.28,1.29,1.3,1.3,0,1,0-1.28-1.29Zm4.41,1.15h2.38l2.61-4.19a3.78,3.78,0,0,0,.62-2,3.42,3.42,0,1,0-3.71,3.38l-1.9,2.85Zm.79-6.23a1.41,1.41,0,1,1,1.4,1.41,1.41,1.41,0,0,1-1.4-1.41Zm6.11-.76a2.17,2.17,0,0,0,.95,1.88,2.45,2.45,0,0,0-1.29,2.27,3.15,3.15,0,0,0,6.29,0,2.46,2.46,0,0,0-1.29-2.26,2.25,2.25,0,0,0,1-1.89,2.82,2.82,0,0,0-5.63,0Zm1.54,4.13a1.27,1.27,0,1,1,2.53,0,1.27,1.27,0,0,1-2.53,0Zm.32-4.12a.95.95,0,1,1,.95.93.9.9,0,0,1-.95-.93Zm7.46,0,2.06,7h2l1.29-3.82,1.39,3.82h2l2.08-7h-2l-1.2,4.63-1.63-4.63h-1.89l.34.95L494.78,594l-1.23-4.63Zm14.16,7V591h1.17v-1.62h-1.17v-1.93l-1.8.4v1.53h-1.17V591h1.06v5.35Zm4.77,0h1.41l4.24-9.52h-1.42l-4.23,9.52Zm-.7-8.33a.8.8,0,0,1,.87.84v1.62a.87.87,0,0,1-1.74,0v-1.62a.8.8,0,0,1,.87-.84Zm0-1.33a2.11,2.11,0,0,0-2.24,2.13v1.69a2.24,2.24,0,0,0,4.48,0v-1.69a2.11,2.11,0,0,0-2.24-2.13Zm7,5.18a.79.79,0,0,1,.87.83v1.62a.86.86,0,0,1-1.72,0v-1.62a.78.78,0,0,1,.85-.83Zm0-1.34a2.11,2.11,0,0,0-2.22,2.12v1.71a2.23,2.23,0,0,0,4.46,0v-1.71a2.11,2.11,0,0,0-2.24-2.12Z" transform="translate(-237 -96)"/><path class="cls-6" d="M466.43,559.6a1.42,1.42,0,0,1,1.45,1.56V564a1.46,1.46,0,1,1-2.92,0v-2.82a1.42,1.42,0,0,1,1.47-1.56Zm0-1.94A3.35,3.35,0,0,0,463,561.1V564a3.45,3.45,0,1,0,6.9,0V561.1a3.34,3.34,0,0,0-3.44-3.44Zm4.63,8.51a1.3,1.3,0,0,0,2.6,0,1.3,1.3,0,1,0-2.6,0Zm7.23-6.57a1.42,1.42,0,0,1,1.45,1.56V564a1.46,1.46,0,1,1-2.92,0v-2.82a1.42,1.42,0,0,1,1.47-1.56Zm0-1.94a3.35,3.35,0,0,0-3.46,3.44V564a3.45,3.45,0,1,0,6.9,0V561.1a3.34,3.34,0,0,0-3.44-3.44Zm10.19.14h-2.4l-2.61,4.2a3.78,3.78,0,0,0-.62,2,3.42,3.42,0,1,0,6.83,0,3.21,3.21,0,0,0-3.15-3.26l2-3Zm-.81,6.24a1.4,1.4,0,0,1-1.39,1.45,1.42,1.42,0,0,1-1.41-1.45,1.4,1.4,0,0,1,1.41-1.41,1.38,1.38,0,0,1,1.39,1.41Zm5.3-3.69,2.06,7h2l1.29-3.82,1.39,3.82h2l2.08-7h-2l-1.2,4.63L499,560.35h-1.89l.34.95L496.18,565,495,560.35Zm14.15,7V562h1.18v-1.62h-1.18v-1.93l-1.79.4v1.53h-1.17V562h1.06v5.35Zm4.78,0h1.41l4.24-9.52h-1.42l-4.23,9.52Zm-.7-8.33a.8.8,0,0,1,.87.84v1.62a.87.87,0,0,1-1.74,0v-1.62a.8.8,0,0,1,.87-.84Zm0-1.33a2.11,2.11,0,0,0-2.24,2.13v1.69a2.24,2.24,0,0,0,4.48,0v-1.69a2.11,2.11,0,0,0-2.24-2.13Zm7,5.18a.79.79,0,0,1,.87.83v1.62a.86.86,0,0,1-1.72,0v-1.62a.78.78,0,0,1,.85-.83Zm0-1.34a2.11,2.11,0,0,0-2.22,2.12v1.71a2.23,2.23,0,0,0,4.46,0v-1.71a2.11,2.11,0,0,0-2.24-2.12Z" transform="translate(-237 -96)"/><path class="cls-6" d="M464.55,538.32h5.34V536.4h-2.75l1.79-2.27a4,4,0,0,0,1-2.7,2.7,2.7,0,0,0-3-2.77,4.08,4.08,0,0,0-2.17.63v2.24a2.83,2.83,0,0,1,2-.88,1.05,1.05,0,0,1,1.13,1.16,2.7,2.7,0,0,1-.71,1.53l-2.63,3.29v1.69Zm6.56-1.15a1.3,1.3,0,0,0,2.6,0,1.3,1.3,0,1,0-2.6,0Zm3.6,1.15h6V536.4h-1.86v-7.6h-3.8v1.92h1.81v5.68h-2.17v1.92Zm7.66,0h2.38l2.62-4.19a3.86,3.86,0,0,0,.61-2,3.42,3.42,0,1,0-3.71,3.38l-1.9,2.85Zm.79-6.23a1.41,1.41,0,1,1,1.4,1.41,1.41,1.41,0,0,1-1.4-1.41Zm8.11-.74,2.06,7h2l1.29-3.82,1.39,3.82h2l2.08-7h-2l-1.2,4.63-1.63-4.63h-1.89l.34.95L494.48,536l-1.24-4.63Zm14.15,7V533h1.18v-1.62h-1.18v-1.93l-1.79.4v1.53h-1.17V533h1.06v5.35Zm4.78,0h1.41l4.24-9.52h-1.42l-4.23,9.52Zm-.7-8.33a.8.8,0,0,1,.87.84v1.62a.87.87,0,0,1-1.74,0v-1.62a.8.8,0,0,1,.87-.84Zm0-1.33a2.11,2.11,0,0,0-2.24,2.13v1.69a2.24,2.24,0,0,0,4.48,0v-1.69a2.11,2.11,0,0,0-2.24-2.13Zm7,5.18a.79.79,0,0,1,.87.83v1.62a.86.86,0,0,1-1.72,0v-1.62a.78.78,0,0,1,.85-.83Zm0-1.34a2.11,2.11,0,0,0-2.22,2.12v1.71a2.23,2.23,0,0,0,4.46,0v-1.71a2.11,2.11,0,0,0-2.24-2.12Z" transform="translate(-237 -96)"/><path class="cls-6" d="M491.61,477.88a1.67,1.67,0,0,1,1.73,1.81v3.05a1.74,1.74,0,1,1-3.48,0v-3.05a1.68,1.68,0,0,1,1.75-1.81Zm0-1.57a3.24,3.24,0,0,0-3.35,3.34v3.13a3.34,3.34,0,1,0,6.68,0v-3.13a3.23,3.23,0,0,0-3.33-3.34Z" transform="translate(-237 -96)"/><path class="cls-6" d="M491.61,450.53a1.67,1.67,0,0,1,1.73,1.81v3.05a1.74,1.74,0,1,1-3.48,0v-3.05a1.68,1.68,0,0,1,1.75-1.81Zm0-1.57a3.24,3.24,0,0,0-3.35,3.34v3.13a3.34,3.34,0,1,0,6.68,0V452.3a3.23,3.23,0,0,0-3.33-3.34Z" transform="translate(-237 -96)"/><path class="cls-6" d="M481.94,423.18a1.68,1.68,0,0,1,1.74,1.81V428a1.75,1.75,0,1,1-3.49,0V425a1.68,1.68,0,0,1,1.75-1.81Zm0-1.57A3.24,3.24,0,0,0,478.6,425v3.13a3.34,3.34,0,1,0,6.67,0V425a3.23,3.23,0,0,0-3.33-3.34Zm4.69,8.71a1.09,1.09,0,1,0,2.18,0,1.09,1.09,0,1,0-2.18,0Zm6.89-7.14a1.68,1.68,0,0,1,1.74,1.81V428a1.75,1.75,0,1,1-3.49,0V425a1.68,1.68,0,0,1,1.75-1.81Zm0-1.57a3.24,3.24,0,0,0-3.35,3.34v3.13a3.34,3.34,0,1,0,6.68,0V425a3.23,3.23,0,0,0-3.33-3.34Zm11.39,7.71V427.8H503.7v-6.05h-1.6l-4.2,6.2v1.37h4.2v1.95h1.6v-1.95Zm-5.31-1.52,2.5-3.77v3.77Z" transform="translate(-237 -96)"/><path class="cls-6" d="M483.35,395.83a1.68,1.68,0,0,1,1.74,1.81v3.05a1.75,1.75,0,1,1-3.49,0v-3.05a1.68,1.68,0,0,1,1.75-1.81Zm0-1.57A3.24,3.24,0,0,0,480,397.6v3.13a3.34,3.34,0,1,0,6.67,0V397.6a3.23,3.23,0,0,0-3.33-3.34ZM488,403a1.1,1.1,0,0,0,2.19,0,1.1,1.1,0,1,0-2.19,0Zm4.26-3.22h1.36a1.37,1.37,0,0,1,1.5,1.34,1.44,1.44,0,0,1-1.58,1.39,3.09,3.09,0,0,1-2-.69v1.82a5.25,5.25,0,0,0,2.08.46,2.88,2.88,0,0,0,3.14-2.75,2.43,2.43,0,0,0-1.48-2.34,2.26,2.26,0,0,0,1.21-2.14,2.66,2.66,0,0,0-2.94-2.58,4.47,4.47,0,0,0-1.9.43v1.74a3.07,3.07,0,0,1,1.85-.58,1.2,1.2,0,0,1,1.34,1.19,1.16,1.16,0,0,1-1.23,1.17H492.3v1.54Zm5.6,4.17h5.82v-1.53h-1.94v-8h-3.57v1.52h2v6.47H497.9v1.53Z" transform="translate(-237 -96)"/><path class="cls-6" d="M491.61,368.48a1.67,1.67,0,0,1,1.73,1.81v3a1.74,1.74,0,1,1-3.48,0v-3a1.68,1.68,0,0,1,1.75-1.81Zm0-1.57a3.24,3.24,0,0,0-3.35,3.34v3.13a3.34,3.34,0,1,0,6.68,0v-3.13a3.23,3.23,0,0,0-3.33-3.34Z" transform="translate(-237 -96)"/><path class="cls-6" d="M491.61,341.13a1.67,1.67,0,0,1,1.73,1.81V346a1.74,1.74,0,1,1-3.48,0v-3.05a1.68,1.68,0,0,1,1.75-1.81Zm0-1.57a3.24,3.24,0,0,0-3.35,3.34V346a3.34,3.34,0,1,0,6.68,0V342.9a3.23,3.23,0,0,0-3.33-3.34Z" transform="translate(-237 -96)"/><path class="cls-6" d="M482.56,313.78a1.68,1.68,0,0,1,1.73,1.81v3.05a1.75,1.75,0,1,1-3.49,0v-3.05a1.69,1.69,0,0,1,1.76-1.81Zm0-1.57a3.24,3.24,0,0,0-3.35,3.34v3.13a3.34,3.34,0,1,0,6.68,0v-3.13a3.23,3.23,0,0,0-3.33-3.34Zm4.69,8.71a1.09,1.09,0,1,0,2.18,0,1.09,1.09,0,1,0-2.18,0Zm6.88-7.14a1.68,1.68,0,0,1,1.74,1.81v3.05a1.75,1.75,0,1,1-3.49,0v-3.05a1.68,1.68,0,0,1,1.75-1.81Zm0-1.57a3.24,3.24,0,0,0-3.34,3.34v3.13a3.34,3.34,0,1,0,6.67,0v-3.13a3.23,3.23,0,0,0-3.33-3.34Zm5.52,5.49H501a1.37,1.37,0,0,1,1.5,1.34,1.45,1.45,0,0,1-1.59,1.39,3.06,3.06,0,0,1-2-.69v1.82A5.25,5.25,0,0,0,501,322a2.88,2.88,0,0,0,3.14-2.75,2.43,2.43,0,0,0-1.49-2.34,2.25,2.25,0,0,0,1.22-2.14,2.66,2.66,0,0,0-2.94-2.58,4.47,4.47,0,0,0-1.9.43v1.74a3,3,0,0,1,1.85-.58,1.2,1.2,0,0,1,1.34,1.19,1.16,1.16,0,0,1-1.23,1.17h-1.36v1.54Z" transform="translate(-237 -96)"/><path class="cls-6" d="M481.94,286.43a1.68,1.68,0,0,1,1.74,1.81v3.05a1.75,1.75,0,1,1-3.49,0v-3.05a1.68,1.68,0,0,1,1.75-1.81Zm0-1.57a3.24,3.24,0,0,0-3.34,3.34v3.13a3.34,3.34,0,1,0,6.67,0V288.2a3.23,3.23,0,0,0-3.33-3.34Zm4.69,8.71a1.09,1.09,0,1,0,2.18,0,1.09,1.09,0,1,0-2.18,0Zm6.89-7.14a1.68,1.68,0,0,1,1.74,1.81v3.05a1.75,1.75,0,1,1-3.49,0v-3.05a1.68,1.68,0,0,1,1.75-1.81Zm0-1.57a3.24,3.24,0,0,0-3.35,3.34v3.13a3.34,3.34,0,1,0,6.68,0V288.2a3.23,3.23,0,0,0-3.33-3.34Zm11.39,7.71v-1.52H503.7V285h-1.6l-4.2,6.2v1.37h4.2v1.95h1.6v-1.95Zm-5.31-1.52,2.5-3.77v3.77Z" transform="translate(-237 -96)"/><path class="cls-6" d="M491.61,259.08a1.67,1.67,0,0,1,1.73,1.81v3.05a1.74,1.74,0,1,1-3.48,0v-3.05a1.68,1.68,0,0,1,1.75-1.81Zm0-1.57a3.24,3.24,0,0,0-3.35,3.34V264a3.34,3.34,0,1,0,6.68,0v-3.13a3.23,3.23,0,0,0-3.33-3.34Z" transform="translate(-237 -96)"/><path class="cls-6" d="M480.81,239.82h5.82v-1.53h-1.95v-8h-3.56v1.52h2v6.47h-2.28v1.53Zm6.72-.95a1.09,1.09,0,1,0,2.18,0,1.09,1.09,0,1,0-2.18,0Zm8.54-7.21V230.3H490.8v1.52h3.53l-3.25,8h1.84l3.15-8.16Zm.75,8.16h5.83v-1.53H500.7v-8h-3.57v1.52h2v6.47h-2.29v1.53Z" transform="translate(-237 -96)"/><path class="cls-6" d="M491.61,204.38a1.67,1.67,0,0,1,1.73,1.81v3.05a1.74,1.74,0,1,1-3.48,0v-3.05a1.68,1.68,0,0,1,1.75-1.81Zm0-1.57a3.24,3.24,0,0,0-3.35,3.34v3.13a3.34,3.34,0,1,0,6.68,0v-3.13a3.23,3.23,0,0,0-3.33-3.34Z" transform="translate(-237 -96)"/><path class="cls-6" d="M482,177a1.68,1.68,0,0,1,1.73,1.81v3a1.75,1.75,0,1,1-3.49,0v-3A1.68,1.68,0,0,1,482,177Zm0-1.57a3.24,3.24,0,0,0-3.35,3.34v3.13a3.34,3.34,0,1,0,6.68,0V178.8a3.24,3.24,0,0,0-3.33-3.34Zm4.69,8.71a1.09,1.09,0,1,0,2.18,0,1.09,1.09,0,1,0-2.18,0Zm6.88-7.14a1.68,1.68,0,0,1,1.74,1.81v3a1.75,1.75,0,1,1-3.49,0v-3a1.68,1.68,0,0,1,1.75-1.81Zm0-1.57a3.24,3.24,0,0,0-3.34,3.34v3.13a3.34,3.34,0,1,0,6.67,0V178.8a3.23,3.23,0,0,0-3.33-3.34Zm9.86.14h-1.9l-2.74,4.25a3.86,3.86,0,0,0-.61,2.05,3.37,3.37,0,1,0,6.73,0,3.24,3.24,0,0,0-3.36-3.28h-.12l2-3Zm-.14,6.3a1.75,1.75,0,1,1-3.49,0,1.75,1.75,0,1,1,3.49,0Z" transform="translate(-237 -96)"/><path class="cls-2" d="M460.48,157.12h2.22l2-5.67,1.68,5.67h2.22l2.55-9.52h-2.21l-1.6,7-1.94-7h-2l.32,1.16-1.95,5.87-1.61-7h-2.21l2.55,9.52Zm17.23,0V155.2h-3.43v-1.92h3.15v-1.91h-3.15v-1.85h3.43V147.6h-5.42v9.52Zm1.84,0h2V147.6h-2v9.52Zm11-9.21a6.82,6.82,0,0,0-2.58-.45,4.79,4.79,0,0,0-4.92,4.9,4.7,4.7,0,0,0,4.74,4.91,4.44,4.44,0,0,0,4.65-4.7,8.12,8.12,0,0,0-.13-1.39h-4.5V153h2.46s0,.15,0,.21a2.24,2.24,0,0,1-2.44,2.09,2.92,2.92,0,0,1,.12-5.84,5.55,5.55,0,0,1,2.58.61v-2.15Zm9.56,9.21h2V147.6h-2v3.77h-4.35V147.6h-2v9.52h2v-3.84h4.35v3.84Zm5.62,0h2v-7.6H510V147.6h-6.6v1.92h2.31v7.6Zm10.65,0h1.41L522,147.6h-1.42l-4.23,9.52Zm-.7-8.33a.8.8,0,0,1,.87.84v1.62a.87.87,0,0,1-1.74,0v-1.62a.8.8,0,0,1,.87-.84Zm0-1.33a2.11,2.11,0,0,0-2.24,2.13v1.69a2.24,2.24,0,0,0,4.48,0v-1.69a2.11,2.11,0,0,0-2.24-2.13Zm7,5.18a.79.79,0,0,1,.87.82v1.63a.86.86,0,0,1-1.72,0v-1.63a.78.78,0,0,1,.85-.82Zm0-1.34a2.11,2.11,0,0,0-2.22,2.12v1.71a2.23,2.23,0,0,0,4.46,0v-1.71a2.11,2.11,0,0,0-2.24-2.12Z" transform="translate(-237 -96)"/><path class="cls-6" d="M579.7,596.32h6V594.4h-1.86v-7.6h-3.8v1.92h1.81v5.68H579.7v1.92Zm7.08-7a2.2,2.2,0,0,0,1,1.88,2.46,2.46,0,0,0-1.28,2.27,3.14,3.14,0,0,0,6.28,0,2.45,2.45,0,0,0-1.28-2.26,2.25,2.25,0,0,0,1-1.89,2.82,2.82,0,0,0-5.63,0Zm1.54,4.13a1.27,1.27,0,1,1,2.54,0,1.27,1.27,0,0,1-2.54,0Zm.32-4.12a.91.91,0,0,1,1-.92.93.93,0,1,1,0,1.85.91.91,0,0,1-1-.93Zm5.16,5.83a1.25,1.25,0,0,0,1.28,1.29,1.3,1.3,0,1,0-1.28-1.29ZM603,586.8H600.6L598,591a3.86,3.86,0,0,0-.61,2,3.42,3.42,0,1,0,6.83,0,3.21,3.21,0,0,0-3.15-3.26l1.94-3Zm-.81,6.24a1.39,1.39,0,0,1-1.38,1.45,1.43,1.43,0,0,1-1.42-1.45,1.4,1.4,0,0,1,1.42-1.41,1.37,1.37,0,0,1,1.38,1.41Zm2.92,3.28h6V594.4h-1.86v-7.6h-3.79v1.92h1.81v5.68H605.1v1.92Zm14.95-7h-1.91v7h1.91v-4.1a1.14,1.14,0,1,1,2.28.09v4h1.9v-4a1.13,1.13,0,0,1,1.16-1.24,1.1,1.1,0,0,1,1.13,1.24v4h1.9v-4.55a2.42,2.42,0,0,0-2.4-2.56,2.14,2.14,0,0,0-2,1.26,2.26,2.26,0,0,0-2.14-1.26,2,2,0,0,0-1.78,1v-.82Zm15,0v.92a2.67,2.67,0,0,0-2.22-1.06,3.53,3.53,0,0,0,0,7,2.74,2.74,0,0,0,2.2-1v.49a1.78,1.78,0,0,1-2,1.81,4.71,4.71,0,0,1-2.36-.7v2a5.37,5.37,0,0,0,2.34.52c2.43,0,3.88-1.29,3.88-3.85v-6.13Zm-.11,3.39a1.66,1.66,0,1,1-1.67-1.67,1.64,1.64,0,0,1,1.67,1.67Zm3.15,3.58h1.41l4.24-9.52h-1.43l-4.22,9.52Zm8.45-7h-1.9v7h1.9v-4.1a1.14,1.14,0,1,1,2.28.09v4h1.91v-4a1.12,1.12,0,0,1,1.16-1.24,1.1,1.1,0,0,1,1.12,1.24v4h1.9v-4.55a2.41,2.41,0,0,0-2.39-2.56,2.15,2.15,0,0,0-2.06,1.26,2.25,2.25,0,0,0-2.14-1.26,2,2,0,0,0-1.78,1v-.82Zm15.57,7V594.4h-3.43v-7.6h-2v9.52Z" transform="translate(-237 -96)"/><path class="cls-6" d="M586.94,559.6a1.42,1.42,0,0,1,1.46,1.56V564a1.47,1.47,0,1,1-2.93,0v-2.82a1.43,1.43,0,0,1,1.47-1.56Zm0-1.94a3.35,3.35,0,0,0-3.45,3.44V564a3.45,3.45,0,1,0,6.9,0V561.1a3.34,3.34,0,0,0-3.45-3.44Zm4.64,8.51a1.25,1.25,0,0,0,1.29,1.29,1.3,1.3,0,1,0-1.29-1.29Zm9.28-6.45V557.8h-4.62l-.45,5.16h1.28c1,0,1.91.21,1.91,1.21a1.35,1.35,0,0,1-1.45,1.32,3.19,3.19,0,0,1-2.2-1v2.39a5.14,5.14,0,0,0,2.31.56,3.1,3.1,0,0,0,3.39-3.3,3,3,0,0,0-3.18-3l.18-1.4Zm6.64-.23V557.8H602v1.92h3.28l-3.07,7.6h2.27l3-7.83Zm9,.86h-1.9v7h1.9v-4.1a1.14,1.14,0,1,1,2.28.09v4h1.9v-4a1.13,1.13,0,0,1,1.17-1.24,1.1,1.1,0,0,1,1.12,1.24v4h1.9v-4.55a2.41,2.41,0,0,0-2.39-2.56,2.15,2.15,0,0,0-2.06,1.26,2.25,2.25,0,0,0-2.14-1.26,2,2,0,0,0-1.78,1v-.82Zm15,0v.92a2.67,2.67,0,0,0-2.21-1.06,3.54,3.54,0,0,0,0,7,2.74,2.74,0,0,0,2.2-1v.49a1.78,1.78,0,0,1-2,1.81,4.64,4.64,0,0,1-2.35-.7v2a5.29,5.29,0,0,0,2.34.52c2.42,0,3.87-1.29,3.87-3.85v-6.13Zm-.11,3.39a1.66,1.66,0,1,1-1.67-1.67,1.63,1.63,0,0,1,1.67,1.67Zm3.15,3.58h1.41l4.24-9.52h-1.42l-4.23,9.52Zm8.45-7H641v7h1.9v-4.1a1.15,1.15,0,1,1,2.29.09v4h1.9v-4a1.13,1.13,0,0,1,1.16-1.24,1.1,1.1,0,0,1,1.12,1.24v4h1.91v-4.55a2.42,2.42,0,0,0-2.4-2.56,2.15,2.15,0,0,0-2.06,1.26,2.25,2.25,0,0,0-2.14-1.26,2.06,2.06,0,0,0-1.78,1v-.82Zm15.57,7V565.4h-3.43v-7.6h-2v9.52Z" transform="translate(-237 -96)"/><path class="cls-6" d="M579.8,538.32h5.35V536.4h-2.76l1.79-2.27a4,4,0,0,0,1-2.7,2.71,2.71,0,0,0-3-2.77,4.11,4.11,0,0,0-2.17.63v2.24a2.83,2.83,0,0,1,2-.88,1.05,1.05,0,0,1,1.13,1.16,2.7,2.7,0,0,1-.71,1.53l-2.63,3.29v1.69ZM590,530.6a1.42,1.42,0,0,1,1.45,1.56V535a1.46,1.46,0,1,1-2.92,0v-2.82A1.42,1.42,0,0,1,590,530.6Zm0-1.94a3.35,3.35,0,0,0-3.46,3.44V535a3.45,3.45,0,1,0,6.9,0V532.1a3.34,3.34,0,0,0-3.44-3.44Zm4.63,8.51a1.3,1.3,0,0,0,2.6,0,1.3,1.3,0,1,0-2.6,0Zm9.28-6.45V528.8h-4.62L598.8,534h1.27c1,0,1.92.21,1.92,1.21a1.36,1.36,0,0,1-1.46,1.32,3.19,3.19,0,0,1-2.2-1v2.39a5.14,5.14,0,0,0,2.31.56,3.1,3.1,0,0,0,3.39-3.3,3,3,0,0,0-3.18-3l.19-1.4Zm1.22,7.6h6V536.4h-1.86v-7.6h-3.79v1.92h1.8v5.68h-2.17v1.92Zm14.95-7h-1.9v7H620v-4.1a1.15,1.15,0,1,1,2.29.09v4h1.9v-4a1.12,1.12,0,0,1,1.16-1.24,1.1,1.1,0,0,1,1.12,1.24v4h1.9v-4.55a2.41,2.41,0,0,0-2.39-2.56,2.15,2.15,0,0,0-2.06,1.26,2.25,2.25,0,0,0-2.14-1.26,2,2,0,0,0-1.78,1v-.82Zm15,0v.92a2.65,2.65,0,0,0-2.21-1.06,3.53,3.53,0,0,0,0,7,2.72,2.72,0,0,0,2.19-1v.49a1.77,1.77,0,0,1-2,1.81,4.67,4.67,0,0,1-2.35-.7v2a5.33,5.33,0,0,0,2.34.52c2.42,0,3.88-1.29,3.88-3.85v-6.13Zm-.11,3.39a1.66,1.66,0,1,1-3.32,0,1.66,1.66,0,1,1,3.32,0Zm3.15,3.58h1.41l4.25-9.52h-1.43l-4.23,9.52Zm8.46-7H644.6v7h1.91v-4.1a1.14,1.14,0,1,1,2.28.09v4h1.9v-4a1.13,1.13,0,0,1,1.17-1.24,1.1,1.1,0,0,1,1.12,1.24v4h1.9v-4.55a2.42,2.42,0,0,0-2.4-2.56,2.13,2.13,0,0,0-2.05,1.26,2.26,2.26,0,0,0-2.14-1.26,2,2,0,0,0-1.78,1v-.82Zm15.56,7V536.4h-3.43v-7.6h-2v9.52Z" transform="translate(-237 -96)"/><path class="cls-6" d="M620.61,477.88a1.67,1.67,0,0,1,1.73,1.81v3.05a1.74,1.74,0,1,1-3.48,0v-3.05a1.68,1.68,0,0,1,1.75-1.81Zm0-1.57a3.24,3.24,0,0,0-3.35,3.34v3.13a3.34,3.34,0,1,0,6.68,0v-3.13a3.23,3.23,0,0,0-3.33-3.34Z" transform="translate(-237 -96)"/><path class="cls-6" d="M620.61,450.53a1.67,1.67,0,0,1,1.73,1.81v3.05a1.74,1.74,0,1,1-3.48,0v-3.05a1.68,1.68,0,0,1,1.75-1.81Zm0-1.57a3.24,3.24,0,0,0-3.35,3.34v3.13a3.34,3.34,0,1,0,6.68,0V452.3a3.23,3.23,0,0,0-3.33-3.34Z" transform="translate(-237 -96)"/><path class="cls-6" d="M611.75,423.18a1.68,1.68,0,0,1,1.74,1.81V428a1.75,1.75,0,1,1-3.49,0V425a1.68,1.68,0,0,1,1.75-1.81Zm0-1.57a3.24,3.24,0,0,0-3.34,3.34v3.13a3.34,3.34,0,1,0,6.67,0V425a3.23,3.23,0,0,0-3.33-3.34Zm4.69,8.71a1.09,1.09,0,1,0,2.18,0,1.09,1.09,0,1,0-2.18,0Zm4.26-3.22h1.36a1.36,1.36,0,0,1,1.49,1.34,1.44,1.44,0,0,1-1.58,1.39,3.11,3.11,0,0,1-2-.69V431a5.35,5.35,0,0,0,2.09.46,2.87,2.87,0,0,0,3.13-2.75,2.42,2.42,0,0,0-1.48-2.34,2.25,2.25,0,0,0,1.22-2.14,2.66,2.66,0,0,0-2.94-2.58,4.47,4.47,0,0,0-1.9.43v1.74a3,3,0,0,1,1.85-.58,1.2,1.2,0,0,1,1.34,1.19,1.16,1.16,0,0,1-1.23,1.17H620.7v1.54Zm12.4,2.22V427.8h-1.22v-6.05h-1.59l-4.2,6.2v1.37h4.2v1.95h1.59v-1.95Zm-5.32-1.52,2.51-3.77v3.77Z" transform="translate(-237 -96)"/><path class="cls-6" d="M612.54,403.92h5.23v-1.53h-3.19l2.13-2.69a4.19,4.19,0,0,0,1.09-2.76,2.63,2.63,0,0,0-2.91-2.68,3.8,3.8,0,0,0-2.17.71v1.81a2.9,2.9,0,0,1,2.06-.93,1.29,1.29,0,0,1,1.38,1.37,3,3,0,0,1-.85,1.82l-2.77,3.51v1.37Zm6.59-.95a1.09,1.09,0,1,0,2.18,0,1.09,1.09,0,1,0-2.18,0Zm4.35.95h1.91l2.71-4.26a3.64,3.64,0,0,0,.63-2,3.37,3.37,0,1,0-3.37,3.35h.08l-2,2.94Zm.14-6.29a1.75,1.75,0,1,1,3.49,0,1.75,1.75,0,1,1-3.49,0Z" transform="translate(-237 -96)"/><path class="cls-6" d="M620.61,368.48a1.67,1.67,0,0,1,1.73,1.81v3a1.74,1.74,0,1,1-3.48,0v-3a1.67,1.67,0,0,1,1.75-1.81Zm0-1.57a3.24,3.24,0,0,0-3.35,3.34v3.13a3.34,3.34,0,1,0,6.68,0v-3.13a3.23,3.23,0,0,0-3.33-3.34Z" transform="translate(-237 -96)"/><path class="cls-6" d="M620.61,341.13a1.67,1.67,0,0,1,1.73,1.81V346a1.74,1.74,0,1,1-3.48,0v-3.05a1.68,1.68,0,0,1,1.75-1.81Zm0-1.57a3.24,3.24,0,0,0-3.35,3.34V346a3.34,3.34,0,1,0,6.68,0V342.9a3.23,3.23,0,0,0-3.33-3.34Z" transform="translate(-237 -96)"/><path class="cls-6" d="M611.79,313.78a1.68,1.68,0,0,1,1.74,1.81v3.05a1.75,1.75,0,1,1-3.49,0v-3.05a1.68,1.68,0,0,1,1.75-1.81Zm0-1.57a3.24,3.24,0,0,0-3.34,3.34v3.13a3.34,3.34,0,1,0,6.67,0v-3.13a3.23,3.23,0,0,0-3.33-3.34Zm4.69,8.71a1.1,1.1,0,0,0,2.19,0,1.1,1.1,0,1,0-2.19,0Zm3.42.95h5.24v-1.53H622l2.12-2.69a4.14,4.14,0,0,0,1.09-2.76,2.63,2.63,0,0,0-2.91-2.68,3.8,3.8,0,0,0-2.17.71v1.81a2.9,2.9,0,0,1,2.06-.93,1.3,1.3,0,0,1,1.39,1.37,3,3,0,0,1-.86,1.82l-2.77,3.51v1.37Zm11.69-9.52h-1.9L627,316.61a3.75,3.75,0,0,0-.62,2,3.37,3.37,0,1,0,6.73,0,3.24,3.24,0,0,0-3.36-3.28h-.12l2-3Zm-.14,6.3a1.75,1.75,0,1,1-1.74-1.77,1.75,1.75,0,0,1,1.74,1.77Z" transform="translate(-237 -96)"/><path class="cls-6" d="M612.65,286.43a1.68,1.68,0,0,1,1.74,1.81v3.05a1.75,1.75,0,1,1-3.49,0v-3.05a1.68,1.68,0,0,1,1.75-1.81Zm0-1.57a3.24,3.24,0,0,0-3.35,3.34v3.13a3.34,3.34,0,1,0,6.68,0V288.2a3.23,3.23,0,0,0-3.33-3.34Zm4.69,8.71a1.09,1.09,0,1,0,2.18,0,1.09,1.09,0,1,0-2.18,0Zm4.26-3.22H623a1.37,1.37,0,0,1,1.5,1.34,1.44,1.44,0,0,1-1.58,1.39,3.11,3.11,0,0,1-2-.69v1.82a5.31,5.31,0,0,0,2.09.46,2.88,2.88,0,0,0,3.13-2.75,2.42,2.42,0,0,0-1.48-2.34,2.26,2.26,0,0,0,1.21-2.14,2.65,2.65,0,0,0-2.93-2.58,4.48,4.48,0,0,0-1.91.43V287a3.07,3.07,0,0,1,1.85-.58,1.2,1.2,0,0,1,1.34,1.19,1.16,1.16,0,0,1-1.23,1.17H621.6v1.54Zm10.8-4V285h-5.26v1.52h3.53l-3.25,8h1.83l3.15-8.16Z" transform="translate(-237 -96)"/><path class="cls-6" d="M620.61,259.08a1.67,1.67,0,0,1,1.73,1.81v3.05a1.74,1.74,0,1,1-3.48,0v-3.05a1.68,1.68,0,0,1,1.75-1.81Zm0-1.57a3.24,3.24,0,0,0-3.35,3.34V264a3.34,3.34,0,1,0,6.68,0v-3.13a3.23,3.23,0,0,0-3.33-3.34Z" transform="translate(-237 -96)"/><path class="cls-6" d="M605.17,239.82H611v-1.53h-2v-8h-3.57v1.52h2v6.47h-2.28v1.53ZM617,230.3h-1.9l-2.73,4.26a3.75,3.75,0,0,0-.62,2,3.37,3.37,0,1,0,6.73,0,3.23,3.23,0,0,0-3.35-3.28H615l2-3Zm-.14,6.3a1.75,1.75,0,1,1-1.73-1.77,1.75,1.75,0,0,1,1.73,1.77Zm2.73,2.27a1.09,1.09,0,1,0,2.18,0,1.09,1.09,0,1,0-2.18,0Zm6.89-7.14a1.68,1.68,0,0,1,1.74,1.81v3.05a1.75,1.75,0,1,1-3.49,0v-3.05a1.68,1.68,0,0,1,1.75-1.81Zm0-1.57a3.24,3.24,0,0,0-3.35,3.34v3.13a3.34,3.34,0,1,0,6.68,0V233.5a3.23,3.23,0,0,0-3.33-3.34Zm9.8,1.5V230.3H631v1.52h3.53l-3.25,8h1.84l3.15-8.16Z" transform="translate(-237 -96)"/><path class="cls-6" d="M620.61,204.38a1.67,1.67,0,0,1,1.73,1.81v3.05a1.74,1.74,0,1,1-3.48,0v-3.05a1.68,1.68,0,0,1,1.75-1.81Zm0-1.57a3.24,3.24,0,0,0-3.35,3.34v3.13a3.34,3.34,0,1,0,6.68,0v-3.13a3.23,3.23,0,0,0-3.33-3.34Z" transform="translate(-237 -96)"/><path class="cls-6" d="M612.47,177a1.67,1.67,0,0,1,1.73,1.81v3a1.75,1.75,0,1,1-3.49,0v-3a1.68,1.68,0,0,1,1.76-1.81Zm0-1.57a3.24,3.24,0,0,0-3.35,3.34v3.13a3.34,3.34,0,1,0,6.68,0V178.8a3.23,3.23,0,0,0-3.33-3.34Zm4.69,8.71a1.09,1.09,0,1,0,2.18,0,1.09,1.09,0,1,0-2.18,0Zm9-7V175.6h-4.44l-.48,4.93h1.27c1.16,0,2.15.39,2.15,1.52a1.63,1.63,0,0,1-1.74,1.63,3.25,3.25,0,0,1-2.26-1v2a4.79,4.79,0,0,0,2.34.64,3.06,3.06,0,0,0,3.31-3.22c0-1.86-1.32-3-3.34-3h-.08l.25-1.94Zm6.47-.16V175.6h-5.26v1.52h3.53l-3.25,8h1.83l3.15-8.16Z" transform="translate(-237 -96)"/><path class="cls-2" d="M572.13,154.52a3.35,3.35,0,0,1-2.17.77,2.92,2.92,0,0,1,0-5.84,3.31,3.31,0,0,1,2.17.78V148a5,5,0,0,0-2.17-.49,4.91,4.91,0,0,0,0,9.81,5,5,0,0,0,2.17-.49v-2.26Zm.93-2.15a4.9,4.9,0,1,0,4.9-4.91,4.8,4.8,0,0,0-4.9,4.91Zm2,0a2.85,2.85,0,1,1,2.86,2.92,2.86,2.86,0,0,1-2.86-2.92Zm15.19,4.75h2V147.6h-2v6.06l-4.17-6.06h-2.35v.14l.65,1v8.33h2v-5.5l3.88,5.5Zm10.57-2.6a3.35,3.35,0,0,1-2.17.77,2.92,2.92,0,0,1,0-5.84,3.31,3.31,0,0,1,2.17.78V148a5,5,0,0,0-2.17-.49,4.91,4.91,0,0,0,0,9.81,5,5,0,0,0,2.17-.49v-2.26Zm7.08,2.6V155.2h-3.43v-1.92h3.15v-1.91h-3.15v-1.85h3.43V147.6h-5.41v9.52Zm7.76,0h2V147.6h-2v6.06l-4.17-6.06h-2.35v.14l.65,1v8.33h2v-5.5l3.88,5.5Zm5.63,0h2v-7.6h2.3V147.6H619v1.92h2.31v7.6Zm5.63,0h2v-3.54h.49c1.17,0,2,1.47,2.31,3.54h2.06c-.22-2.05-.94-3.73-2.13-4.34a2.34,2.34,0,0,0,1.72-2.41c0-1.76-1.28-2.77-3.15-2.77H627v9.52Zm4.39-6.52a1,1,0,0,1-1.11,1.06h-1.3v-2.14h1.3a1,1,0,0,1,1.11,1.08Zm9.86,6.52h2.22l-3.53-9.52h-2.22l-3.53,9.52h2.23l.71-2h3.4l.72,2Zm-2.41-6.92,1.05,3h-2.1l1-3Zm6.58,6.92h2v-7.6h2.31V147.6h-6.61v1.92h2.31v7.6Zm5.63,0h2V147.6h-2v9.52Zm3.5-4.75a4.9,4.9,0,1,0,4.9-4.91,4.8,4.8,0,0,0-4.9,4.91Zm2,0a2.85,2.85,0,1,1,2.86,2.92,2.86,2.86,0,0,1-2.86-2.92Zm15.19,4.75h2V147.6h-2v6.06l-4.17-6.06h-2.35v.14l.66,1v8.33h2v-5.5l3.88,5.5Zm8.75-7h-1.9v7h1.9V153a1.14,1.14,0,1,1,2.28.09v4h1.91v-4a1.12,1.12,0,0,1,1.16-1.24,1.1,1.1,0,0,1,1.12,1.24v4h1.9v-4.55a2.41,2.41,0,0,0-2.39-2.56,2.15,2.15,0,0,0-2.06,1.26,2.25,2.25,0,0,0-2.14-1.26,2,2,0,0,0-1.78,1v-.82Zm15,0v.92a2.67,2.67,0,0,0-2.21-1.06,3.54,3.54,0,0,0,0,7.05,2.74,2.74,0,0,0,2.2-1v.49a1.78,1.78,0,0,1-2,1.81,4.64,4.64,0,0,1-2.35-.7v2a5.33,5.33,0,0,0,2.34.52c2.42,0,3.87-1.29,3.87-3.85v-6.13Zm-.11,3.39a1.66,1.66,0,1,1-1.67-1.67,1.63,1.63,0,0,1,1.67,1.67Zm3.15,3.58h1.41l4.24-9.52h-1.42l-4.23,9.52Zm8.45-7h-1.9v7H707V153a1.15,1.15,0,1,1,2.29.09v4h1.9v-4a1.13,1.13,0,0,1,1.16-1.24,1.1,1.1,0,0,1,1.12,1.24v4h1.9v-4.55a2.41,2.41,0,0,0-2.39-2.56,2.15,2.15,0,0,0-2.06,1.26,2.25,2.25,0,0,0-2.14-1.26,2.06,2.06,0,0,0-1.78,1v-.82Zm11.82-2.69h-1.92v9.66h1.92v-9.66Z" transform="translate(-237 -96)"/><path class="cls-6" d="M342,596.32l2.64-6.59v6.59h1.6V586.8h-1.92l-3,7.49-3-7.49h-1.93v9.52h1.6v-6.59l2.64,6.59Zm6.39-5.11a3.46,3.46,0,0,1,1.81-.55,1.3,1.3,0,0,1,1.44,1.38v.57A2.4,2.4,0,0,0,350,592a2.25,2.25,0,0,0-2.37,2.26,2.2,2.2,0,0,0,2.34,2.26,2.08,2.08,0,0,0,1.68-.78v.63h1.54v-4.26a2.49,2.49,0,0,0-2.81-2.77,4.82,4.82,0,0,0-2,.44v1.48Zm.76,3a1.18,1.18,0,0,1,1.23-1.12,1.2,1.2,0,0,1,1.25,1.12,1.25,1.25,0,0,1-2.48,0Zm8.19-.18,1.46,2.3h1.8l-2.31-3.44,2.31-3.45h-1.8l-1.46,2.28-1.44-2.28h-1.81l2.32,3.45-2.32,3.44h1.81l1.44-2.3Zm14.25,0a3.57,3.57,0,0,1-2.32.83,3.32,3.32,0,0,1,0-6.63,3.55,3.55,0,0,1,2.32.84v-1.84a4.9,4.9,0,1,0-2.32,9.22,4.92,4.92,0,0,0,2.32-.58v-1.84Zm1.79,2.27h3.17c1.78,0,3.08-1,3.08-2.6a2.35,2.35,0,0,0-1.53-2.3,2.18,2.18,0,0,0,1.25-2.11c0-1.53-1.23-2.51-2.91-2.51h-3.06v9.52Zm4.61-2.81c0,.88-.64,1.28-1.44,1.28H375V592.2h1.57a1.27,1.27,0,0,1,1.44,1.31Zm-.28-4a1.13,1.13,0,0,1-1.27,1.16H375v-2.34h1.46a1.15,1.15,0,0,1,1.27,1.18Zm3.64,6.82h3.43a4.76,4.76,0,0,0,0-9.52h-3.43v9.52Zm3.41-8a3.24,3.24,0,0,1,0,6.47h-1.82v-6.47Z" transform="translate(-237 -96)"/><path class="cls-6" d="M342.38,567.32l2.65-6.59v6.59h1.59V557.8h-1.91l-3,7.49-3-7.49h-1.93v9.52h1.6v-6.59l2.64,6.59Zm6.4-5.11a3.43,3.43,0,0,1,1.81-.55A1.3,1.3,0,0,1,352,563v.57a2.4,2.4,0,0,0-1.65-.66,2.25,2.25,0,0,0-2.37,2.26,2.2,2.2,0,0,0,2.34,2.26,2.08,2.08,0,0,0,1.68-.78v.63h1.54v-4.26a2.5,2.5,0,0,0-2.81-2.77,4.82,4.82,0,0,0-2,.44v1.48Zm.76,3a1.18,1.18,0,0,1,1.23-1.12A1.2,1.2,0,0,1,352,565.2a1.25,1.25,0,0,1-2.48,0Zm8.19-.18,1.45,2.3H361l-2.31-3.44,2.31-3.45h-1.81l-1.45,2.28-1.44-2.28h-1.81l2.32,3.45-2.32,3.44h1.81l1.44-2.3Zm8.82,2.3h1.59v-8h2.43V557.8h-6.44v1.52h2.42v8Zm11.91,0h1.6V557.8h-1.6v4h-4.89v-4H372v9.52h1.59v-4h4.89v4Zm10.5-2.27a3.57,3.57,0,0,1-2.32.83,3.32,3.32,0,0,1,0-6.63,3.55,3.55,0,0,1,2.32.84v-1.84a4.9,4.9,0,1,0-2.32,9.22,4.92,4.92,0,0,0,2.32-.58v-1.84Z" transform="translate(-237 -96)"/><path class="cls-6" d="M351.08,538.32h1.59v-8h2.43V528.8h-6.44v1.52h2.42v8Zm3.85-3.44a3.59,3.59,0,1,0,3.58-3.59,3.53,3.53,0,0,0-3.58,3.59Zm1.55,0a2,2,0,1,1,2,2.08,2,2,0,0,1-2-2.08Zm8.89,3.44v-5.57h1.25v-1.32h-1.25v-1.94l-1.45.33v1.61h-1.25v1.32h1.16v5.57Zm2.52-5.11a3.43,3.43,0,0,1,1.81-.55,1.3,1.3,0,0,1,1.44,1.38v.57a2.4,2.4,0,0,0-1.65-.66,2.25,2.25,0,0,0-2.37,2.26,2.2,2.2,0,0,0,2.34,2.26,2.08,2.08,0,0,0,1.68-.78v.63h1.54v-4.26a2.5,2.5,0,0,0-2.81-2.77,4.82,4.82,0,0,0-2,.44v1.48Zm.76,3a1.18,1.18,0,0,1,1.23-1.12,1.2,1.2,0,0,1,1.25,1.12,1.25,1.25,0,0,1-2.48,0Zm7.28-7.54h-1.54v9.66h1.54v-9.66Z" transform="translate(-237 -96)"/><path class="cls-6" d="M343.55,483a3.49,3.49,0,0,0,.09-.78,3.2,3.2,0,0,0-3.27-3.32,3.59,3.59,0,0,0,.08,7.18,5.15,5.15,0,0,0,2.52-.63V484a4.36,4.36,0,0,1-2.41.75,2,2,0,0,1-2.1-1.68Zm-3.19-2.81a1.69,1.69,0,0,1,1.8,1.62h-3.71a1.86,1.86,0,0,1,1.91-1.62Zm6.84,3.44,1.46,2.3h1.8l-2.31-3.44,2.31-3.45h-1.8l-1.46,2.28-1.44-2.28H344l2.33,3.45L344,486h1.81l1.44-2.3Zm3.57-1.14a3.59,3.59,0,1,0,3.58-3.59,3.53,3.53,0,0,0-3.58,3.59Zm1.55,0a2.05,2.05,0,0,1,2-2.09,2.09,2.09,0,0,1,0,4.17,2,2,0,0,1-2-2.08Zm10.52.16v-1.44h-3.66v1.44ZM365.7,486h1.59v-8h2.42v-1.52h-6.44V478h2.43v8Zm11.91,0h1.59v-9.52h-1.59v4h-4.89v-4h-1.59V486h1.59v-4h4.89v4Zm10.5-2.27a3.58,3.58,0,0,1-2.33.83,3.32,3.32,0,0,1,0-6.63,3.57,3.57,0,0,1,2.33.84V476.9a4.9,4.9,0,1,0-2.33,9.22,5,5,0,0,0,2.33-.58V483.7Z" transform="translate(-237 -96)"/><path class="cls-6" d="M340,458.62h3.43a4.76,4.76,0,0,0,0-9.52H340v9.52Zm3.42-8a3.24,3.24,0,0,1,0,6.47h-1.82v-6.47Zm6.16.95a2.19,2.19,0,0,0,1.09,1.95,2.51,2.51,0,0,0-1.41,2.33,3.09,3.09,0,0,0,6.17,0,2.46,2.46,0,0,0-1.43-2.31,2.24,2.24,0,0,0,1.11-2,2.77,2.77,0,0,0-5.53,0Zm1.2,4.26a1.57,1.57,0,1,1,1.56,1.52,1.52,1.52,0,0,1-1.56-1.52Zm.31-4.26a1.26,1.26,0,0,1,2.51,0,1.21,1.21,0,0,1-1.26,1.21,1.19,1.19,0,0,1-1.25-1.21Zm9.38,3.77V453.9H356.8v1.44Zm2.86,3.28h1.59v-8h2.42V449.1h-6.43v1.52h2.42v8Zm11.91,0h1.6V449.1h-1.6v4h-4.89v-4h-1.59v9.52h1.59v-4h4.89v4Zm10.5-2.27a3.57,3.57,0,0,1-2.32.83,3.32,3.32,0,0,1,0-6.63,3.55,3.55,0,0,1,2.32.84v-1.84a4.9,4.9,0,1,0-2.32,9.22,4.92,4.92,0,0,0,2.32-.58v-1.84Z" transform="translate(-237 -96)"/><path class="cls-6" d="M352.81,429a3.57,3.57,0,0,1-2.32.83,3.32,3.32,0,0,1,0-6.63,3.55,3.55,0,0,1,2.32.84V422.2a4.9,4.9,0,1,0-2.32,9.22,4.92,4.92,0,0,0,2.32-.58V429Zm1.8,2.27h3.16c1.78,0,3.08-1,3.08-2.6a2.35,2.35,0,0,0-1.52-2.3,2.18,2.18,0,0,0,1.24-2.11c0-1.53-1.23-2.51-2.91-2.51h-3.05v9.52Zm4.6-2.81c0,.88-.64,1.28-1.44,1.28H356.2v-2.59h1.57a1.27,1.27,0,0,1,1.44,1.31Zm-.28-4a1.12,1.12,0,0,1-1.27,1.16H356.2v-2.34h1.46a1.14,1.14,0,0,1,1.27,1.18Zm10.57-2.34a6.52,6.52,0,0,0-2.59-.5,4.79,4.79,0,0,0-5,4.9,4.71,4.71,0,0,0,4.74,4.91,4.44,4.44,0,0,0,4.65-4.67,7.32,7.32,0,0,0-.11-1.32h-4.57v1.44h2.93a1.94,1.94,0,0,1,0,.34,2.68,2.68,0,0,1-2.88,2.62,3.32,3.32,0,0,1,.17-6.63,5.24,5.24,0,0,1,2.59.66v-1.75Zm9.2,9.16h1.78l-3.56-9.52h-1.78l-3.55,9.52h1.78l.85-2.35h3.63l.85,2.35ZM376,423.84l1.29,3.55h-2.59l1.3-3.55Z" transform="translate(-237 -96)"/><path class="cls-6" d="M353.1,401.65a3.57,3.57,0,0,1-2.32.83,3.32,3.32,0,0,1,0-6.63,3.55,3.55,0,0,1,2.32.84v-1.84a4.9,4.9,0,1,0-2.32,9.22,4.92,4.92,0,0,0,2.32-.58v-1.84Zm1.79,2.27h3.17c1.78,0,3.08-1,3.08-2.6a2.35,2.35,0,0,0-1.53-2.3,2.18,2.18,0,0,0,1.25-2.11c0-1.53-1.23-2.51-2.91-2.51h-3.06v9.52Zm4.61-2.81c0,.88-.64,1.28-1.44,1.28h-1.57V399.8h1.57a1.27,1.27,0,0,1,1.44,1.31Zm-.28-4a1.12,1.12,0,0,1-1.27,1.16h-1.46v-2.34H358a1.14,1.14,0,0,1,1.27,1.18Zm3.64,6.82h3.43a4.76,4.76,0,0,0,0-9.52h-3.43v9.52Zm3.41-8a3.24,3.24,0,0,1,0,6.47h-1.82v-6.47Zm12.14,8h1.78l-3.56-9.52h-1.77l-3.56,9.52h1.78l.85-2.35h3.63l.85,2.35Zm-2.66-7.43L377,400h-2.59l1.3-3.55Z" transform="translate(-237 -96)"/><path class="cls-6" d="M348.11,376.57h1.59v-8h2.43v-1.52h-6.44v1.52h2.42v8Zm11.91,0h1.6v-9.52H360v4h-4.88v-4h-1.6v9.52h1.6v-4H360v4Zm10.5-2.27a3.57,3.57,0,0,1-2.32.83,3.32,3.32,0,0,1,0-6.63,3.55,3.55,0,0,1,2.32.84V367.5a4.9,4.9,0,1,0-2.32,9.22,4.92,4.92,0,0,0,2.32-.58V374.3Zm7.82,2.27h1.77l-3.55-9.52h-1.78l-3.56,9.52H373l.86-2.35h3.62l.86,2.35Zm-2.66-7.43,1.28,3.55h-2.59l1.31-3.55Z" transform="translate(-237 -96)"/><path class="cls-6" d="M357.17,347a3.57,3.57,0,0,1-2.32.83,3.32,3.32,0,0,1,0-6.63,3.55,3.55,0,0,1,2.32.84v-1.84a4.9,4.9,0,1,0-2.32,9.22,4.92,4.92,0,0,0,2.32-.58V347Zm1.8,2.27h3.16c1.78,0,3.08-1,3.08-2.6a2.35,2.35,0,0,0-1.52-2.3,2.18,2.18,0,0,0,1.24-2.11c0-1.53-1.23-2.51-2.91-2.51h-3v9.52Zm4.6-2.81c0,.88-.64,1.28-1.44,1.28h-1.57V345.1h1.57a1.27,1.27,0,0,1,1.44,1.31Zm-.28-4a1.12,1.12,0,0,1-1.27,1.16h-1.46v-2.34H362a1.14,1.14,0,0,1,1.27,1.18Zm9.76,6.82h1.6V339.7h-1.6v6.76l-4.82-6.76h-1.9v.13l.65,1v8.39h1.59v-6.16l4.48,6.16Z" transform="translate(-237 -96)"/><path class="cls-6" d="M358,319.6a3.57,3.57,0,0,1-2.32.83,3.32,3.32,0,0,1,0-6.63,3.55,3.55,0,0,1,2.32.84V312.8a4.9,4.9,0,1,0-2.32,9.22,4.92,4.92,0,0,0,2.32-.58V319.6Zm1.8,2.27h3.16c1.78,0,3.08-1,3.08-2.6a2.35,2.35,0,0,0-1.53-2.3,2.18,2.18,0,0,0,1.25-2.11c0-1.53-1.23-2.51-2.91-2.51h-3.05v9.52Zm4.6-2.81c0,.88-.64,1.28-1.44,1.28h-1.57v-2.59h1.57a1.27,1.27,0,0,1,1.44,1.31Zm-.28-4a1.12,1.12,0,0,1-1.27,1.16h-1.46v-2.34h1.46a1.14,1.14,0,0,1,1.27,1.18Zm10.25,4.55a3.58,3.58,0,0,1-2.33.83,3.32,3.32,0,0,1,0-6.63,3.57,3.57,0,0,1,2.33.84V312.8A4.9,4.9,0,1,0,372,322a4.93,4.93,0,0,0,2.33-.58V319.6Z" transform="translate(-237 -96)"/><path class="cls-6" d="M357,292.25a3.57,3.57,0,0,1-2.32.83,3.32,3.32,0,0,1,0-6.63,3.55,3.55,0,0,1,2.32.84v-1.84a4.9,4.9,0,1,0-2.32,9.22,4.92,4.92,0,0,0,2.32-.58v-1.84Zm1.8,2.27H362c1.78,0,3.08-1,3.08-2.6a2.34,2.34,0,0,0-1.52-2.3,2.18,2.18,0,0,0,1.24-2.11c0-1.53-1.23-2.51-2.91-2.51h-3.05v9.52Zm4.6-2.81c0,.88-.64,1.28-1.44,1.28h-1.57V290.4H362a1.27,1.27,0,0,1,1.44,1.31Zm-.28-4a1.12,1.12,0,0,1-1.27,1.16h-1.46v-2.34h1.46a1.14,1.14,0,0,1,1.27,1.18Zm10.57-2.34a6.52,6.52,0,0,0-2.59-.5,4.79,4.79,0,0,0-4.95,4.9,4.71,4.71,0,0,0,4.74,4.91,4.44,4.44,0,0,0,4.65-4.67,7.32,7.32,0,0,0-.11-1.32H370.9v1.44h2.92a1.94,1.94,0,0,1,0,.34,2.68,2.68,0,0,1-2.88,2.62,3.32,3.32,0,0,1,.17-6.63,5.24,5.24,0,0,1,2.59.66v-1.75Z" transform="translate(-237 -96)"/><path class="cls-6" d="M353.11,264.9a3.57,3.57,0,0,1-2.32.83,3.32,3.32,0,0,1,0-6.63,3.55,3.55,0,0,1,2.32.84V258.1a4.9,4.9,0,1,0-2.32,9.22,4.92,4.92,0,0,0,2.32-.58V264.9Zm1.8,2.27h3.16c1.78,0,3.08-1,3.08-2.6a2.34,2.34,0,0,0-1.52-2.3,2.18,2.18,0,0,0,1.24-2.11c0-1.53-1.23-2.51-2.91-2.51h-3v9.52Zm4.6-2.81c0,.88-.64,1.28-1.44,1.28H356.5v-2.59h1.57a1.27,1.27,0,0,1,1.44,1.31Zm-.28-4a1.12,1.12,0,0,1-1.27,1.16H356.5v-2.34H358a1.14,1.14,0,0,1,1.27,1.18Zm3.64,6.82h3.43a4.76,4.76,0,0,0,0-9.52h-3.43v9.52Zm3.42-8a3.24,3.24,0,0,1,0,6.47h-1.82v-6.47Zm8.58,8h1.78l3.56-9.52h-1.78l-2.66,7.66-2.68-7.66h-1.77l3.55,9.52Z" transform="translate(-237 -96)"/><path class="cls-6" d="M357.26,237.55a3.57,3.57,0,0,1-2.32.83,3.32,3.32,0,0,1,0-6.63,3.55,3.55,0,0,1,2.32.84v-1.84a4.9,4.9,0,1,0-2.32,9.22,4.92,4.92,0,0,0,2.32-.58v-1.84Zm1.8,2.27h3.16c1.78,0,3.08-1,3.08-2.6a2.34,2.34,0,0,0-1.52-2.3A2.19,2.19,0,0,0,365,232.8c0-1.52-1.23-2.5-2.91-2.5h-3.05v9.52Zm4.6-2.81c0,.88-.64,1.28-1.44,1.28h-1.57V235.7h1.57a1.27,1.27,0,0,1,1.44,1.31Zm-.28-4a1.12,1.12,0,0,1-1.27,1.16h-1.46v-2.34h1.46a1.14,1.14,0,0,1,1.27,1.18Zm3.64,6.82h3.43a4.76,4.76,0,0,0,0-9.52H367v9.52Zm3.42-8a3.24,3.24,0,0,1,0,6.47h-1.82v-6.47Z" transform="translate(-237 -96)"/><path class="cls-6" d="M348.12,212.47h1.6v-8h2.42V203H345.7v1.52h2.42v8Zm11.92,0h1.59V203H360v4h-4.89v-4h-1.59v9.52h1.59v-4H360v4Zm10.5-2.27a3.58,3.58,0,0,1-2.33.83,3.32,3.32,0,0,1,0-6.63,3.57,3.57,0,0,1,2.33.84V203.4a4.9,4.9,0,1,0-2.33,9.22,4.93,4.93,0,0,0,2.33-.58V210.2Zm4.25,2.27h1.78l3.56-9.52h-1.78l-2.66,7.66L373,203h-1.78l3.55,9.52Z" transform="translate(-237 -96)"/><path class="cls-6" d="M339.82,185.12h3.42a4.76,4.76,0,0,0,0-9.52h-3.42v9.52Zm3.41-8a3.24,3.24,0,0,1,0,6.47h-1.82v-6.47Zm7.18,8h1.91l2.71-4.26a3.64,3.64,0,0,0,.63-2,3.37,3.37,0,1,0-3.37,3.35h.08l-2,2.94Zm.14-6.29a1.75,1.75,0,1,1,3.49,0,1.75,1.75,0,1,1-3.49,0Zm10.07,3V180.4H357v1.44Zm2.86,3.28h1.59v-8h2.42V175.6h-6.44v1.52h2.43v8Zm11.91,0H377V175.6h-1.59v4H370.5v-4h-1.59v9.52h1.59v-4h4.89v4Zm10.5-2.27a3.58,3.58,0,0,1-2.33.83,3.32,3.32,0,0,1,0-6.63,3.57,3.57,0,0,1,2.33.84v-1.84a4.91,4.91,0,1,0,0,8.63v-1.83Z" transform="translate(-237 -96)"/><path class="cls-2" d="M356.72,157.12h2V147.6h-2v9.52Zm4.09,0h3.53a4.76,4.76,0,0,0,0-9.52h-3.53v9.52Zm3.51-7.6a2.85,2.85,0,0,1,0,5.68h-1.53v-5.68Z" transform="translate(-237 -96)"/><path class="cls-5" d="M914.75,506.18V165.62M427.1,506.18V165.62m129,340.56V165.62m149,340.56V165.62" transform="translate(-237 -96)"/><path class="cls-6" d="M708.09,520.23a1.91,1.91,0,0,1,2,2v3a2,2,0,1,1-3.92,0v-3a1.9,1.9,0,0,1,2-2Zm0-.68a2.58,2.58,0,0,0-2.65,2.67v3a2.66,2.66,0,1,0,5.32,0v-3a2.6,2.6,0,0,0-2.67-2.67Zm6.23,8.28h.57l3.63-8.16h-.58l-3.62,8.16Zm-.54-7.73a1,1,0,0,1,1.11,1v1.62a1,1,0,0,1-1.11,1,1,1,0,0,1-1.09-1v-1.62a1,1,0,0,1,1.09-1Zm0-.55a1.58,1.58,0,0,0-1.66,1.57v1.66a1.67,1.67,0,0,0,3.33,0v-1.66a1.58,1.58,0,0,0-1.67-1.57Zm5.27,4.14a1,1,0,0,1,1.1,1v1.63a1.11,1.11,0,0,1-2.21,0v-1.63a1,1,0,0,1,1.11-1Zm0-.54a1.57,1.57,0,0,0-1.67,1.56v1.65a1.67,1.67,0,0,0,3.34,0v-1.65a1.57,1.57,0,0,0-1.67-1.56Z" transform="translate(-237 -96)"/><path class="cls-6" d="M898.7,527.83h4.65v-.65h-1.81v-7.51h-2.68v.65h2v6.86H898.7v.65Zm5.64-.47a.59.59,0,1,0,1.17,0,.59.59,0,1,0-1.17,0Zm6.51-7.09v-.6h-4.17v.65h3.45l-3.07,7.51h.8l3-7.56Zm3,7.56h.56l3.64-8.16h-.58l-3.62,8.16Zm-.54-7.73a1,1,0,0,1,1.1,1v1.62a1.1,1.1,0,0,1-2.2,0v-1.62a1,1,0,0,1,1.1-1Zm0-.55a1.58,1.58,0,0,0-1.66,1.57v1.66a1.66,1.66,0,0,0,3.32,0v-1.66a1.57,1.57,0,0,0-1.66-1.57Zm5.26,4.14a1,1,0,0,1,1.11,1v1.63a1.11,1.11,0,0,1-2.21,0v-1.63a1,1,0,0,1,1.1-1Zm0-.54a1.56,1.56,0,0,0-1.66,1.56v1.65a1.67,1.67,0,0,0,3.33,0v-1.65a1.56,1.56,0,0,0-1.67-1.56Z" transform="translate(-237 -96)"/><path class="cls-6" d="M768.54,526.47a3.49,3.49,0,0,1-2.28.8,3.52,3.52,0,1,1,2.28-6.23v-.84a4.2,4.2,0,0,0-2.28-.65,4.2,4.2,0,0,0,0,8.4,4.2,4.2,0,0,0,2.28-.65v-.83Zm1.62-3.39a2.84,2.84,0,0,1,1.6-.51,1.39,1.39,0,0,1,1.49,1.48v.84a2.08,2.08,0,0,0-1.63-.82,2,2,0,0,0-2.09,1.94,2.06,2.06,0,0,0,3.72,1.09v.73h.68v-3.78a1.93,1.93,0,0,0-2.12-2.11,3.38,3.38,0,0,0-1.65.43v.71Zm.06,2.92a1.45,1.45,0,0,1,1.5-1.36,1.38,1.38,0,1,1,0,2.75,1.46,1.46,0,0,1-1.5-1.38Zm6.13-3.94h-.68v5.77h.68v-3.49a1.7,1.7,0,1,1,3.4.07v3.42h.67v-3.54a2.17,2.17,0,0,0-2.23-2.35,1.91,1.91,0,0,0-1.84,1.12v-1Zm6.5,0h-.69v5.77h.69v-3.49a1.62,1.62,0,0,1,1.69-1.73,1.64,1.64,0,0,1,1.7,1.8v3.42h.67v-3.54a2.17,2.17,0,0,0-2.23-2.35,1.89,1.89,0,0,0-1.83,1.12v-1Zm5.94,1a2.81,2.81,0,0,1,1.59-.51,1.39,1.39,0,0,1,1.49,1.48v.84a2.06,2.06,0,0,0-1.63-.82,2,2,0,0,0-2.09,1.94,2,2,0,0,0,2.08,1.94,1.91,1.91,0,0,0,1.64-.85v.73h.69v-3.78a1.93,1.93,0,0,0-2.13-2.11,3.34,3.34,0,0,0-1.64.43v.71Zm.06,2.92a1.44,1.44,0,0,1,1.5-1.36,1.48,1.48,0,0,1,1.52,1.36,1.52,1.52,0,0,1-3,0Zm6.13.47a2.59,2.59,0,0,0,2.4,1.48,3,3,0,0,0,0-6,2.6,2.6,0,0,0-2.4,1.48v-3.87h-.68v8.28H795v-1.36Zm0-1.53a2.31,2.31,0,1,1,2.3,2.34,2.28,2.28,0,0,1-2.3-2.34Zm7.41-2.88h-.68v5.77h.68v-5.77Zm-.85-1.89a.51.51,0,0,0,.51.51.51.51,0,1,0,0-1,.51.51,0,0,0-.51.5Zm3.34,1.89h-.68v5.77h.68v-3.49a1.62,1.62,0,0,1,1.69-1.73,1.65,1.65,0,0,1,1.71,1.8v3.42H809v-3.54a2.17,2.17,0,0,0-2.23-2.35,1.9,1.9,0,0,0-1.84,1.12v-1Zm5.41,2.88a3,3,0,1,0,3-3,3,3,0,0,0-3,3Zm.71,0a2.3,2.3,0,1,1,2.29,2.34,2.28,2.28,0,0,1-2.29-2.34Zm7.38-2.88h-.68v5.77h.68v-5.77Zm-.85-1.89a.51.51,0,1,0,.5-.5.5.5,0,0,0-.5.5Zm7.58,7.66h.68v-8.28h-.68v3.87a2.6,2.6,0,0,0-2.39-1.48,3,3,0,0,0,0,6,2.58,2.58,0,0,0,2.39-1.48v1.36Zm0-2.89a2.31,2.31,0,1,1-2.3-2.33,2.29,2.29,0,0,1,2.3,2.33Zm5.38-2.67a2.79,2.79,0,0,0-1.35-.33c-1.22,0-1.85.67-1.85,1.51a1.49,1.49,0,0,0,.86,1.33l1.15.71c.53.31.71.58.71.92,0,.54-.45.93-1.22.93a2.19,2.19,0,0,1-1.48-.58v.81a3.29,3.29,0,0,0,1.48.38c1.15,0,1.92-.56,1.92-1.55a1.64,1.64,0,0,0-1-1.45l-1.12-.67c-.4-.26-.61-.46-.61-.83,0-.52.41-.89,1.13-.89a2.17,2.17,0,0,1,1.36.49v-.78Zm4.8,2.66a8.39,8.39,0,0,1,1.59-5.07l-.41-.31a8.91,8.91,0,0,0,0,10.74l.41-.31a8.38,8.38,0,0,1-1.59-5.05Zm2-2.87,1.82,5.77h.74l1.61-4.3,1.82,4.3H844l1.83-5.77h-.73l-1.5,4.9-2.08-4.9h-.72l.29.68L839.53,527l-1.48-4.9Zm10.9,5.77v-5.17h1.21v-.6h-1.21v-1.69l-.66.19v1.5h-1.2v.6h1.18v5.17Zm4.12,0h.56l3.64-8.16H856l-3.62,8.16Zm-.54-7.73a1,1,0,0,1,1.1,1v1.62a1.1,1.1,0,0,1-2.2,0v-1.62a1,1,0,0,1,1.1-1Zm0-.55a1.58,1.58,0,0,0-1.66,1.57v1.66a1.66,1.66,0,0,0,3.32,0v-1.66a1.57,1.57,0,0,0-1.66-1.57Zm5.26,4.14a1,1,0,0,1,1.11,1v1.63a1.11,1.11,0,0,1-2.21,0v-1.63a1,1,0,0,1,1.1-1Zm0-.54a1.56,1.56,0,0,0-1.66,1.56v1.65a1.67,1.67,0,0,0,3.33,0v-1.65a1.56,1.56,0,0,0-1.67-1.56Zm4.05,1.76a8.33,8.33,0,0,1-1.6,5.07l.41.31a8.91,8.91,0,0,0,0-10.74l-.41.31a8.32,8.32,0,0,1,1.6,5Z" transform="translate(-237 -96)"/><path class="cls-1" d="M494.29,641h2.41v-4.31h.6c1.41,0,2.39,1.79,2.8,4.31h2.5c-.27-2.49-1.14-4.53-2.58-5.28a2.84,2.84,0,0,0,2.09-2.92c0-2.14-1.57-3.37-3.83-3.37h-4V641Zm5.33-7.93a1.23,1.23,0,0,1-1.34,1.29H496.7v-2.6h1.58a1.24,1.24,0,0,1,1.34,1.31Zm4.73,2a4.48,4.48,0,0,1,2.18-.62,1.37,1.37,0,0,1,1.56,1.44v.46a3,3,0,0,0-1.85-.61,2.66,2.66,0,0,0-2.82,2.72,2.61,2.61,0,0,0,2.78,2.75,2.42,2.42,0,0,0,1.89-.81V641h2.32v-5.09c0-2.46-1.33-3.55-3.61-3.55a7,7,0,0,0-2.45.49V635Zm1.35,3.39a1.11,1.11,0,0,1,1.19-1.06,1.06,1.06,0,1,1-1.19,1.06Zm9.45,2.57v-6.5h1.43v-2h-1.43v-2.35l-2.18.49v1.86h-1.43v2h1.3V641Zm4.93-8.47h-2.31V641h2.31v-8.47Zm-2.52-2.47a1.36,1.36,0,1,0,1.36-1.37,1.34,1.34,0,0,0-1.36,1.37Zm4,6.7a4.41,4.41,0,1,0,4.41-4.4,4.36,4.36,0,0,0-4.41,4.4Zm2.35,0a2.09,2.09,0,0,1,2.06-2.14,2.15,2.15,0,0,1,0,4.3,2.1,2.1,0,0,1-2.06-2.16Zm11.07,0a4.41,4.41,0,1,0,4.4-4.4,4.35,4.35,0,0,0-4.4,4.4Zm2.35,0a2,2,0,1,1,2.05,2.16,2.08,2.08,0,0,1-2.05-2.16Zm12.41-3.89h-1.65v-.61a.83.83,0,0,1,.9-.9,2,2,0,0,1,.78.15V629.2a3.48,3.48,0,0,0-.87-.11,2.8,2.8,0,0,0-3.12,3v.77h-1.19v2h1.19V641h2.31v-6.16h1.65v-2Zm6.41,8.13h2.41v-9.24h2.81v-2.33h-8v2.33h2.81V641Zm5-4.24a4.41,4.41,0,1,0,4.4-4.4,4.35,4.35,0,0,0-4.4,4.4Zm2.35,0a2,2,0,1,1,2,2.16,2.08,2.08,0,0,1-2-2.16ZM574.16,641v-6.5h1.43v-2h-1.43v-2.35l-2.17.49v1.86h-1.43v2h1.29V641Zm2.88-6a4.47,4.47,0,0,1,2.17-.62c.89,0,1.57.42,1.57,1.44v.46a3,3,0,0,0-1.86-.61,2.67,2.67,0,0,0-2.82,2.72,2.61,2.61,0,0,0,2.79,2.75,2.44,2.44,0,0,0,1.89-.81V641h2.31v-5.09c0-2.46-1.33-3.55-3.6-3.55a7,7,0,0,0-2.45.49V635Zm1.34,3.39a1.12,1.12,0,0,1,1.19-1.06,1.06,1.06,0,1,1,0,2.11,1.12,1.12,0,0,1-1.19-1.05Zm8.89-9.17h-2.33V641h2.33V629.26Zm13.78,8.57a4,4,0,0,1-2.64.94,3.56,3.56,0,0,1,0-7.11,4,4,0,0,1,2.64,1v-2.77a6.23,6.23,0,0,0-2.64-.59,6,6,0,0,0,0,11.93,6.23,6.23,0,0,0,2.64-.59v-2.76Zm2,3.17h4.11c2.23,0,3.83-1.3,3.83-3.2a2.9,2.9,0,0,0-1.7-2.76,2.66,2.66,0,0,0,1.37-2.53c0-1.84-1.49-3.08-3.6-3.08h-4V641Zm5.46-3.54c0,.83-.58,1.21-1.35,1.21h-1.7v-2.44h1.7a1.19,1.19,0,0,1,1.35,1.23Zm-.33-4.63a1,1,0,0,1-1.14,1.08h-1.58v-2.15h1.58a1,1,0,0,1,1.14,1.07Zm4.71,8.17h4.29a5.79,5.79,0,0,0,0-11.57h-4.29V641Zm4.27-9.24a3.46,3.46,0,0,1,0,6.91h-1.85v-6.91ZM631.05,641v-6.5h1.43v-2h-1.43v-2.35l-2.17.49v1.86h-1.43v2h1.29V641Zm2-4.24a4.41,4.41,0,1,0,4.4-4.4,4.35,4.35,0,0,0-4.4,4.4Zm2.34,0a2.09,2.09,0,0,1,2.06-2.14,2.15,2.15,0,0,1,0,4.3,2.1,2.1,0,0,1-2.06-2.16ZM648.74,641h2.41v-9.24H654v-2.33h-8v2.33h2.81V641Zm14.53,0h2.42V629.43h-2.42V634H658v-4.58h-2.42V641H658v-4.66h5.28V641Zm12.82-3.17a4,4,0,0,1-2.63.94,3.56,3.56,0,0,1,0-7.11,4,4,0,0,1,2.63,1v-2.77a6.15,6.15,0,0,0-2.63-.59,6,6,0,0,0,0,11.93,6.15,6.15,0,0,0,2.63-.59v-2.76Zm9.58-2.17h1.7a2,2,0,0,1,2.11,2,2.07,2.07,0,0,1-2.25,2,3.8,3.8,0,0,1-2.41-.8v1.67a5.23,5.23,0,0,0,2.48.6,3.4,3.4,0,0,0,3.69-3.32,3,3,0,0,0-1.87-2.91,2.72,2.72,0,0,0,1.55-2.62,3.12,3.12,0,0,0-3.42-3.06,4.6,4.6,0,0,0-2.3.55v1.6a3.78,3.78,0,0,1,2.25-.68,1.77,1.77,0,1,1,.15,3.53h-1.68v1.4Zm7,5.34h6.24v-1.4h-4.39l3-3.77a5.15,5.15,0,0,0,1.4-3.4,3.07,3.07,0,0,0-3.37-3.17,4.14,4.14,0,0,0-2.63.94v1.7a3.42,3.42,0,0,1,2.55-1.17,1.81,1.81,0,0,1,1.95,1.92,4.25,4.25,0,0,1-1.17,2.55l-3.57,4.5V641Zm8.21-.91a1.05,1.05,0,0,0,1.09,1.08,1.08,1.08,0,1,0,0-2.16,1.05,1.05,0,0,0-1.09,1.08Zm12-1.59v-1.4h-1.56v-7.67h-1.47l-5.28,7.81v1.26h5.28V641h1.47v-2.5Zm-6.73-1.4,3.7-5.51v5.51Zm10.18,3.06a1,1,0,1,0,1-1,1,1,0,0,0-1,1Zm0-6.37a1,1,0,1,0,1-1,1,1,0,0,0-1,1Zm5.37,7.21h6.84v-1.4h-2.47V629.43H722v1.4h2.6v8.77h-2.91V641Z" transform="translate(-237 -96)"/><polygon class="cls-2" points="468.59 322.67 472.77 322.67 472.77 338.13 468.59 338.13 468.59 322.67 468.59 322.67"/><polygon class="cls-2" points="468.59 130.64 676.84 130.64 676.84 146.11 468.59 146.11 468.59 130.64 468.59 130.64"/><polygon class="cls-2" points="468.59 76.27 475.55 76.27 475.55 91.73 468.59 91.73 468.59 76.27 468.59 76.27"/><polygon class="cls-2" points="468.59 295.01 505.94 295.01 505.94 310.48 468.59 310.48 468.59 295.01 468.59 295.01"/><polygon class="cls-2" points="468.59 212.66 471.5 212.66 471.5 228.13 468.59 228.13 468.59 212.66 468.59 212.66"/><polygon class="cls-2" points="468.59 185.51 472.64 185.51 472.64 200.98 468.59 200.98 468.59 185.51 468.59 185.51"/></svg>