<svg id="Layer_1" data-name="Layer 1" xmlns="http://www.w3.org/2000/svg" viewBox="0 0 749.18 600"><defs><style>.cls-1,.cls-15,.cls-16,.cls-17,.cls-18,.cls-19,.cls-20{fill:#fbc7b5;}.cls-2{fill:#fdd8cb;}.cls-3,.cls-4{fill:none;stroke:#fff;}.cls-3{stroke-width:7px;}.cls-10,.cls-11,.cls-12,.cls-5,.cls-6,.cls-7,.cls-8,.cls-9{font-size:14px;}.cls-10,.cls-11,.cls-12,.cls-13,.cls-5,.cls-6,.cls-7,.cls-8{fill:#231f20;}.cls-10,.cls-11,.cls-12,.cls-5,.cls-6{font-family:NiveauGroteskMedium, Niveau Grotesk;}.cls-5{letter-spacing:0em;}.cls-15,.cls-16,.cls-17,.cls-18,.cls-7,.cls-8,.cls-9{font-family:NiveauGroteskBold, Niveau Grotesk;font-weight:700;}.cls-8{letter-spacing:0em;}.cls-14,.cls-9{fill:#941a27;}.cls-10{letter-spacing:-0.01em;}.cls-11{letter-spacing:-0.06em;}.cls-12{letter-spacing:0em;}.cls-13{font-size:12px;font-family:NiveauGroteskLight, Niveau Grotesk;}.cls-15,.cls-16,.cls-17,.cls-18,.cls-19,.cls-20{font-size:17px;}.cls-15{letter-spacing:0em;}.cls-16{letter-spacing:-0.06em;}.cls-17{letter-spacing:0em;}.cls-19,.cls-20{font-family:NiveauGroteskRegular, Niveau Grotesk;}.cls-19{letter-spacing:0.01em;}.cls-20{letter-spacing:0.1em;}</style></defs><title>Good-Night-Can</title><polygon class="cls-1" points="0 0 0 600 749.18 600 749.18 0 0 0 0 0"/><polygon class="cls-2" points="69.6 178.82 69.6 207.62 678.25 207.62 678.25 178.82 69.6 178.82 69.6 178.82"/><polygon class="cls-2" points="69.6 69.22 69.6 98.02 678.25 98.02 678.25 69.22 69.6 69.22 69.6 69.22"/><polygon class="cls-2" points="69.6 124.02 69.6 152.82 678.25 152.82 678.25 124.02 69.6 124.02 69.6 124.02"/><polygon class="cls-2" points="69.6 233.62 69.6 262.42 678.25 262.42 678.25 233.62 69.6 233.62 69.6 233.62"/><polygon class="cls-2" points="69.6 288.42 69.6 317.22 678.25 317.22 678.25 288.42 69.6 288.42 69.6 288.42"/><polygon class="cls-2" points="69.6 343.22 69.6 372.02 678.25 372.02 678.25 343.22 69.6 343.22 69.6 343.22"/><line class="cls-3" x1="69.6" y1="410.18" x2="678.25" y2="410.18"/><line class="cls-4" x1="69.6" y1="69.12" x2="678.25" y2="69.12"/><text class="cls-5" transform="translate(240.86 89.12)">0.0</text><text class="cls-6" transform="translate(260.65 89.12)">6</text><text class="cls-6" transform="translate(250.49 116.47)">0</text><text class="cls-6" transform="translate(243.32 143.82)">1.71</text><text class="cls-6" transform="translate(250.49 171.16)">0</text><text class="cls-5" transform="translate(240.82 198.52)">0.0</text><text class="cls-6" transform="translate(260.62 198.52)">4</text><text class="cls-5" transform="translate(241.44 225.88)">0.0</text><text class="cls-6" transform="translate(261.24 225.88)">3</text><text class="cls-6" transform="translate(250.49 253.22)">0</text><text class="cls-6" transform="translate(250.49 280.57)">0</text><text class="cls-6" transform="translate(242.24 307.92)">0.31</text><text class="cls-5" transform="translate(240.82 335.27)">0.0</text><text class="cls-6" transform="translate(260.62 335.27)">4</text><text class="cls-6" transform="translate(250.49 362.63)">0</text><text class="cls-6" transform="translate(250.49 389.97)">0</text><text class="cls-7" transform="translate(227 442.32)">2.1</text><text class="cls-7" transform="translate(243.73 442.32)">9 </text><text class="cls-7" transform="translate(254.14 442.32)">wt%</text><text class="cls-8" transform="translate(225.3 471.32)">0.06 </text><text class="cls-7" transform="translate(255.85 471.32)">wt%</text><text class="cls-7" transform="translate(226.7 500.31)">1.</text><text class="cls-7" transform="translate(236.71 500.31)">98 </text><text class="cls-7" transform="translate(254.45 500.31)">wt%</text><text class="cls-9" transform="translate(220.82 61.12)">WEIGHT</text><text class="cls-9" transform="translate(272.96 61.12)"> </text><text class="cls-9" transform="translate(275.96 61.12)">%</text><text class="cls-6" transform="translate(371.35 89.12)">0.57</text><text class="cls-6" transform="translate(379.5 116.47)">0</text><text class="cls-6" transform="translate(367.68 143.82)">16.07</text><text class="cls-6" transform="translate(379.5 171.16)">0</text><text class="cls-6" transform="translate(371.54 198.52)">0.37</text><text class="cls-6" transform="translate(370.68 225.88)">0.26</text><text class="cls-6" transform="translate(379.5 253.22)">0</text><text class="cls-6" transform="translate(379.5 280.57)">0</text><text class="cls-6" transform="translate(374.96 307.92)">2.</text><text class="cls-6" transform="translate(384.55 307.92)">9</text><text class="cls-6" transform="translate(370.64 335.27)">0.34</text><text class="cls-6" transform="translate(379.5 362.63)">0</text><text class="cls-6" transform="translate(379.5 389.97)">0</text><text class="cls-7" transform="translate(342.25 442.32)"><tspan xml:space="preserve">20.51  mg/</tspan></text><text class="cls-7" transform="translate(406.8 442.32)">mL</text><text class="cls-7" transform="translate(345.82 471.32)"><tspan xml:space="preserve">0.57  mg/</tspan></text><text class="cls-7" transform="translate(403.25 471.32)">mL</text><text class="cls-7" transform="translate(342.24 500.31)"><tspan xml:space="preserve">18.61  mg/</tspan></text><text class="cls-7" transform="translate(406.82 500.31)">mL</text><text class="cls-9" transform="translate(327.6 61.12)">C</text><text class="cls-9" transform="translate(335.6 61.12)">ONCENTRA</text><text class="cls-9" transform="translate(405.79 61.12)">TION mg/</text><text class="cls-9" transform="translate(467.26 61.12)">ml</text><text class="cls-6" transform="translate(101.67 89.12)">D9-</text><text class="cls-6" transform="translate(123.79 89.12)">THC</text><text class="cls-6" transform="translate(108.44 116.47)">THCV</text><text class="cls-6" transform="translate(112.51 143.82)">CBD</text><text class="cls-6" transform="translate(108.36 171.16)">CBD</text><text class="cls-6" transform="translate(134.26 171.16)">V</text><text class="cls-6" transform="translate(112.29 198.52)">CBG</text><text class="cls-6" transform="translate(113.22 225.88)">CBC</text><text class="cls-6" transform="translate(112.42 253.22)">CBN</text><text class="cls-6" transform="translate(108.43 280.57)">THCA</text><text class="cls-6" transform="translate(108.35 307.92)">CBD</text><text class="cls-6" transform="translate(134.25 307.92)">A</text><text class="cls-6" transform="translate(108.06 335.27)">CBG</text><text class="cls-6" transform="translate(134.54 335.27)">A</text><text class="cls-6" transform="translate(101.84 362.63)">D8-</text><text class="cls-6" transform="translate(123.62 362.63)">THC</text><text class="cls-10" transform="translate(99.45 389.97)">ex</text><text class="cls-6" transform="translate(113.31 389.97)">o-</text><text class="cls-6" transform="translate(126.01 389.97)">THC</text><text class="cls-11" transform="translate(111.39 442.32)">To</text><text class="cls-12" transform="translate(125.41 442.32)">ta</text><text class="cls-6" transform="translate(136.49 442.32)">l</text><text class="cls-6" transform="translate(98.6 471.32)">Max </text><text class="cls-6" transform="translate(126.86 471.32)">THC</text><text class="cls-6" transform="translate(98.2 500.31)">Max CBD</text><text class="cls-9" transform="translate(118.68 61.12)">ID</text><path class="cls-4" d="M914.75,506.18V165.62M427.1,506.18V165.62m129,340.56V165.62m149,340.56V165.62" transform="translate(-237 -96)"/><text class="cls-13" transform="translate(467.6 431.83)">0%</text><text class="cls-13" transform="translate(661.21 431.83)">1.7%</text><text class="cls-13" transform="translate(524.5 431.83)">Cannabinoids (</text><text class="cls-13" transform="translate(600.02 431.83)">wt%)</text><polygon class="cls-14" points="69.6 526.86 69.6 551.38 678.25 551.38 678.25 526.86 69.6 526.86 69.6 526.86"/><text class="cls-15" transform="translate(256.01 544.99)">Ratio of </text><text class="cls-16" transform="translate(315.96 544.99)">To</text><text class="cls-17" transform="translate(333.22 544.99)">tal CBD to </text><text class="cls-18" transform="translate(408.59 544.99)">THC </text><text class="cls-19" transform="translate(446.89 544.99)">32.4</text><text class="cls-20" transform="translate(478.3 544.99)">:1</text><polygon class="cls-14" points="468.59 322.67 472.77 322.67 472.77 338.13 468.59 338.13 468.59 322.67 468.59 322.67"/><polygon class="cls-14" points="468.59 130.64 676.84 130.64 676.84 146.11 468.59 146.11 468.59 130.64 468.59 130.64"/><polygon class="cls-14" points="468.59 76.27 475.55 76.27 475.55 91.73 468.59 91.73 468.59 76.27 468.59 76.27"/><polygon class="cls-14" points="468.59 295.01 505.94 295.01 505.94 310.48 468.59 310.48 468.59 295.01 468.59 295.01"/><polygon class="cls-14" points="468.59 212.66 471.5 212.66 471.5 228.13 468.59 228.13 468.59 212.66 468.59 212.66"/><polygon class="cls-14" points="468.59 185.51 472.64 185.51 472.64 200.98 468.59 200.98 468.59 185.51 468.59 185.51"/></svg>