<svg id="Layer_1" data-name="Layer 1" xmlns="http://www.w3.org/2000/svg" viewBox="0 0 612 1104"><defs><style>.cls-1,.cls-16,.cls-17{fill:#dfdbed;}.cls-2{fill:#ebe9f4;}.cls-3{fill:none;stroke:#fff;}.cls-10,.cls-4,.cls-9{fill:#39325f;}.cls-10,.cls-15,.cls-5,.cls-6,.cls-7,.cls-8,.cls-9{font-size:14px;}.cls-11,.cls-12,.cls-13,.cls-14,.cls-15,.cls-5,.cls-6,.cls-7,.cls-8{fill:#231f20;}.cls-15,.cls-16,.cls-17,.cls-5,.cls-6,.cls-7,.cls-8{font-family:NiveauGroteskMedium, Niveau Grotesk;}.cls-6{letter-spacing:-0.22em;}.cls-7{letter-spacing:0em;}.cls-8{letter-spacing:0em;}.cls-10,.cls-9{font-family:NiveauGroteskBold, Niveau Grotesk;font-weight:700;}.cls-10{letter-spacing:-0.04em;}.cls-11,.cls-12,.cls-13,.cls-14{font-size:12px;font-family:NiveauGroteskLight, Niveau Grotesk;}.cls-11{letter-spacing:0em;}.cls-12{letter-spacing:0em;}.cls-13{letter-spacing:0em;}.cls-15{letter-spacing:-0.03em;}.cls-16,.cls-17{font-size:17px;}.cls-16{letter-spacing:-0.06em;}</style></defs><title>Good-Night-Terpenes</title><polygon class="cls-1" points="0 0 0 1104 612 1104 612 0 0 0 0 0"/><polygon class="cls-2" points="69.6 194.8 69.6 223.6 531 223.6 531 194.8 69.6 194.8 69.6 194.8"/><polygon class="cls-2" points="69.6 85.2 69.6 114 531 114 531 85.2 69.6 85.2 69.6 85.2"/><polygon class="cls-2" points="69.6 140 69.6 168.8 531 168.8 531 140 69.6 140 69.6 140"/><polygon class="cls-2" points="69.6 249.6 69.6 278.4 531 278.4 531 249.6 69.6 249.6 69.6 249.6"/><polygon class="cls-2" points="69.6 304.4 69.6 333.2 531 333.2 531 304.4 69.6 304.4 69.6 304.4"/><polygon class="cls-2" points="69.6 359.2 69.6 388 531 388 531 359.2 69.6 359.2 69.6 359.2"/><polygon class="cls-2" points="69.6 414 69.6 442.8 531 442.8 531 414 69.6 414 69.6 414"/><path class="cls-3" d="M375.6,316H837m-.5-.5V-70.4M574.89,315.5V-70.4M706.1,315.5V-70.4m-330.5-.5H837" transform="translate(-306 156)"/><polygon class="cls-4" points="269.4 420.76 298.02 420.76 298.02 436.23 269.4 436.23 269.4 420.76 269.4 420.76"/><polygon class="cls-4" points="269.4 393.37 273.19 393.37 273.19 408.83 269.4 408.83 269.4 393.37 269.4 393.37"/><polygon class="cls-4" points="269.4 338.46 284.95 338.46 284.95 353.93 269.4 353.93 269.4 338.46 269.4 338.46"/><polygon class="cls-4" points="269.4 311.27 301.94 311.27 301.94 326.73 269.4 326.73 269.4 311.27 269.4 311.27"/><polygon class="cls-4" points="269.4 283.72 271.89 283.72 271.89 299.18 269.4 299.18 269.4 283.72 269.4 283.72"/><polygon class="cls-4" points="269.4 256.37 273.19 256.37 273.19 271.83 269.4 271.83 269.4 256.37 269.4 256.37"/><polygon class="cls-4" points="269.4 174.07 277.12 174.07 277.12 189.53 269.4 189.53 269.4 174.07 269.4 174.07"/><polygon class="cls-4" points="269.4 146.56 454.83 146.56 454.83 162.03 269.4 162.03 269.4 146.56 269.4 146.56"/><text class="cls-5" transform="translate(151.73 105.1)"> </text><text class="cls-5" transform="translate(151.73 105.1)">isopulegol</text><text class="cls-5" transform="translate(165.38 132.45)"> </text><text class="cls-5" transform="translate(165.38 132.45)">menthol</text><text class="cls-5" transform="translate(171.88 159.8)"> </text><text class="cls-5" transform="translate(171.88 159.8)">linalool</text><text class="cls-6" transform="translate(92.99 187.15)"><tspan xml:space="preserve"> c</tspan></text><text class="cls-5" transform="translate(99.3 187.15)">ary</text><text class="cls-5" transform="translate(117.84 187.15)">oph</text><text class="cls-5" transform="translate(141.98 187.15)">yllene o</text><text class="cls-5" transform="translate(189.54 187.15)">xide</text><text class="cls-5" transform="translate(177.96 214.5)"> </text><text class="cls-5" transform="translate(177.96 214.5)">guaiol</text><text class="cls-5" transform="translate(162.63 241.84)"> </text><text class="cls-5" transform="translate(162.63 241.84)">Sabiene</text><text class="cls-5" transform="translate(210.66 241.84)">*</text><text class="cls-5" transform="translate(153.91 269.2)">p-cymene</text><text class="cls-5" transform="translate(149.8 296.55)">Camphene</text><text class="cls-7" transform="translate(152.77 323.9)">eucalypto</text><text class="cls-5" transform="translate(212.38 323.9)">l</text><text class="cls-5" transform="translate(165.68 351.25)">ger</text><text class="cls-5" transform="translate(186.59 351.25)">aniol</text><text class="cls-5" transform="translate(145.16 378.59)">terpinolene</text><text class="cls-5" transform="translate(122.02 405.95)">alpha-bisabolol</text><text class="cls-5" transform="translate(135.05 433.3)">alpha-pinene</text><text class="cls-5" transform="translate(120.46 460.65)">alpha terpinene</text><text class="cls-8" transform="translate(242.95 159.8)">14</text><text class="cls-5" transform="translate(257.2 159.8)">2</text><text class="cls-5" transform="translate(256.02 187.15)"> </text><text class="cls-5" transform="translate(256.02 187.15)">6</text><text class="cls-5" transform="translate(257.18 269.2)">3</text><text class="cls-5" transform="translate(257.2 296.55)">2</text><text class="cls-5" transform="translate(250.3 323.9)">25</text><text class="cls-5" transform="translate(250.64 351.25)">12</text><text class="cls-5" transform="translate(257.18 405.95)">3</text><text class="cls-5" transform="translate(250.68 433.3)">22</text><text class="cls-9" transform="translate(137.88 77.1)">C</text><text class="cls-9" transform="translate(145.88 77.1)">OMPOUND</text><text class="cls-9" transform="translate(238.48 77.1)">ppm</text><text class="cls-9" transform="translate(342.84 77.1)">QU</text><text class="cls-9" transform="translate(362.65 77.1)">ANTI</text><text class="cls-10" transform="translate(393.09 77.1)">TA</text><text class="cls-9" transform="translate(408.24 77.1)">TIVE PROFILE</text><text class="cls-11" transform="translate(216.33 492.34)">ppm 0.00</text><text class="cls-12" transform="translate(378.21 492.34)">100.00</text><text class="cls-13" transform="translate(509.61 492.34)">200.0</text><text class="cls-14" transform="translate(538.48 492.34)">0</text><polygon class="cls-2" points="69.6 685.6 69.6 714.4 531 714.4 531 685.6 69.6 685.6 69.6 685.6"/><polygon class="cls-2" points="69.6 576 69.6 604.8 531 604.8 531 576 69.6 576 69.6 576"/><polygon class="cls-2" points="69.6 630.8 69.6 659.6 531 659.6 531 630.8 69.6 630.8 69.6 630.8"/><polygon class="cls-2" points="69.6 740.4 69.6 769.2 531 769.2 531 740.4 69.6 740.4 69.6 740.4"/><polygon class="cls-2" points="69.6 795.2 69.6 824 531 824 531 795.2 69.6 795.2 69.6 795.2"/><polygon class="cls-2" points="69.6 850 69.6 878.8 531 878.8 531 850 69.6 850 69.6 850"/><polygon class="cls-2" points="69.6 904.8 69.6 933.6 531 933.6 531 904.8 69.6 904.8 69.6 904.8"/><polygon class="cls-4" points="269.39 883.97 281 883.97 281 899.43 269.39 899.43 269.39 883.97 269.39 883.97"/><polygon class="cls-4" points="269.39 856.57 270.56 856.57 270.56 872.03 269.39 872.03 269.39 856.57 269.39 856.57"/><polygon class="cls-4" points="269.39 829.16 291.43 829.16 291.43 844.63 269.39 844.63 269.39 829.16 269.39 829.16"/><polygon class="cls-4" points="269.39 801.76 312.3 801.76 312.3 817.23 269.39 817.23 269.39 801.76 269.39 801.76"/><polygon class="cls-4" points="269.39 774.37 284.91 774.37 284.91 789.83 269.39 789.83 269.39 774.37 269.39 774.37"/><polygon class="cls-4" points="269.39 719.66 397.07 719.66 397.07 735.13 269.39 735.13 269.39 719.66 269.39 719.66"/><polygon class="cls-4" points="269.39 637.57 271.87 637.57 271.87 653.03 269.39 653.03 269.39 637.57 269.39 637.57"/><polygon class="cls-4" points="269.39 610.16 290.13 610.16 290.13 625.63 269.39 625.63 269.39 610.16 269.39 610.16"/><polygon class="cls-4" points="269.39 582.77 333.17 582.77 333.17 598.23 269.39 598.23 269.39 582.77 269.39 582.77"/><path class="cls-3" d="M375.6,806.8H837m-.5-.5V420.4M574.89,806.3V420.4M706.1,806.3V420.4m-330.5-.5H837" transform="translate(-306 156)"/><text class="cls-5" transform="translate(97.71 595.9)">beta-cary</text><text class="cls-5" transform="translate(154.97 595.9)">oph</text><text class="cls-5" transform="translate(179.11 595.9)">yllene</text><text class="cls-5" transform="translate(140.91 623.25)">beta-pinene</text><text class="cls-5" transform="translate(127.7 650.59)">delta-3-car</text><text class="cls-5" transform="translate(192.88 650.59)">ene</text><text class="cls-15" transform="translate(142.35 705.3)">L-</text><text class="cls-5" transform="translate(153.81 705.3)">fenchone</text><text class="cls-5" transform="translate(210.66 705.3)">*</text><text class="cls-5" transform="translate(130.92 732.65)">beta-m</text><text class="cls-5" transform="translate(174.82 732.65)">yr</text><text class="cls-5" transform="translate(186.66 732.65)">cene</text><text class="cls-5" transform="translate(96.45 760)">alpha-phellandr</text><text class="cls-5" transform="translate(192.88 760)">ene</text><text class="cls-5" transform="translate(125.2 787.34)">alpha-ocimene</text><text class="cls-5" transform="translate(143.77 814.7)">D-limonene</text><text class="cls-5" transform="translate(110.87 842.05)">cis-beta-ocimene</text><text class="cls-5" transform="translate(105.91 869.4)">gamma-terpinene</text><text class="cls-5" transform="translate(116.5 896.75)">alpha-humulene</text><text class="cls-5" transform="translate(140.88 924.1)">cis-ner</text><text class="cls-5" transform="translate(181.02 924.1)">olidol</text><text class="cls-5" transform="translate(126.95 951.45)">tr</text><text class="cls-5" transform="translate(136.1 951.45)">ans-ner</text><text class="cls-5" transform="translate(181.02 951.45)">olidol</text><text class="cls-5" transform="translate(248.26 595.9)">49</text><text class="cls-5" transform="translate(249.46 623.25)">16</text><text class="cls-5" transform="translate(257.2 650.59)">2</text><text class="cls-5" transform="translate(260.57 677.95)"> </text><text class="cls-5" transform="translate(248.67 732.65)">98</text><text class="cls-5" transform="translate(250.64 787.34)">12</text><text class="cls-5" transform="translate(250.66 814.7)">33</text><text class="cls-5" transform="translate(251.19 842.05)">17</text><text class="cls-5" transform="translate(256.02 896.75)">9</text><text class="cls-9" transform="translate(137.88 567.91)">C</text><text class="cls-9" transform="translate(145.88 567.91)">OMPOUND</text><text class="cls-9" transform="translate(238.48 567.91)">ppm</text><text class="cls-9" transform="translate(342.84 567.91)">QU</text><text class="cls-9" transform="translate(362.65 567.91)">ANTI</text><text class="cls-10" transform="translate(393.09 567.91)">TA</text><text class="cls-9" transform="translate(408.24 567.91)">TIVE PROFILE</text><text class="cls-11" transform="translate(216.33 983.14)">ppm 0.00</text><text class="cls-12" transform="translate(378.21 983.14)">100.00</text><text class="cls-13" transform="translate(509.61 983.14)">200.0</text><text class="cls-14" transform="translate(538.48 983.14)">0</text><polygon class="cls-4" points="69.6 999.48 69.6 1024 531 1024 531 999.48 69.6 999.48 69.6 999.48"/><text class="cls-16" transform="translate(213.16 1018.11)">To</text><text class="cls-17" transform="translate(230.18 1018.11)">tal </text><text class="cls-17" transform="translate(251.05 1018.11)">T</text><text class="cls-17" transform="translate(258.42 1018.11)">erpene: &lt;0.1 </text><text class="cls-17" transform="translate(354.22 1018.11)">wt%</text></svg>