<svg id="Layer_1" data-name="Layer 1" xmlns="http://www.w3.org/2000/svg" viewBox="0 0 614.14 499.92"><defs><style>.cls-1{fill:#39325f;}.cls-2{fill:#ebe9f4;}.cls-3,.cls-6{fill:none;stroke:#fff;}.cls-4,.cls-7{fill:#231f20;}.cls-5{fill:#dfdbed;}.cls-6{stroke-width:7px;}.cls-7{font-size:12px;font-family:NiveauGroteskLight, Niveau Grotesk;}</style></defs><title>Good-Night-Cann-3</title><polygon class="cls-1" points="1.33 475.4 1.33 499.92 609.98 499.92 609.98 475.4 1.33 475.4 1.33 475.4"/><polygon class="cls-2" points="1.33 127.36 1.33 156.16 608.98 156.16 608.98 127.36 1.33 127.36 1.33 127.36"/><polygon class="cls-2" points="1.33 17.76 1.33 46.56 608.98 46.56 608.98 17.76 1.33 17.76 1.33 17.76"/><polygon class="cls-2" points="1.33 72.56 1.33 101.36 608.98 101.36 608.98 72.56 1.33 72.56 1.33 72.56"/><polygon class="cls-2" points="1.33 182.16 1.33 210.96 608.98 210.96 608.98 182.16 1.33 182.16 1.33 182.16"/><polygon class="cls-2" points="1.33 236.96 1.33 265.76 608.98 265.76 608.98 236.96 1.33 236.96 1.33 236.96"/><polygon class="cls-2" points="1.33 291.76 1.33 320.56 608.98 320.56 608.98 291.76 1.33 291.76 1.33 291.76"/><line class="cls-3" x1="1.33" y1="17.66" x2="609.98" y2="17.66"/><path class="cls-4" d="M464.59,595.86h6v-1.92h-1.87v-7.6H465v1.92h1.81v5.68h-2.17v1.92Zm6.77-1.15a1.26,1.26,0,0,0,1.29,1.29,1.3,1.3,0,1,0-1.29-1.29Zm3.6,1.15h6v-1.92h-1.86v-7.6h-3.8v1.92h1.81v5.68H475v1.92Zm6.78,0h5.34v-1.92h-2.75l1.79-2.27a4,4,0,0,0,1-2.7,2.71,2.71,0,0,0-3-2.77,4.08,4.08,0,0,0-2.17.63v2.24a2.83,2.83,0,0,1,2-.88,1.05,1.05,0,0,1,1.13,1.16,2.7,2.7,0,0,1-.71,1.53l-2.63,3.29v1.69Zm8.87-7,2.06,7h2L496,592l1.39,3.82h2l2.08-7h-2l-1.2,4.63-1.63-4.63h-1.89l.34,1-1.23,3.68-1.23-4.63Zm14.15,7v-5.35h1.18v-1.62h-1.18V587l-1.78.4v1.53H501.8v1.62h1.06v5.35Zm4.78,0H511l4.25-9.52h-1.43l-4.23,9.52Zm-.7-8.33a.8.8,0,0,1,.87.84V590a.87.87,0,0,1-1.74,0v-1.62a.8.8,0,0,1,.87-.84Zm0-1.33a2.11,2.11,0,0,0-2.24,2.13V590a2.24,2.24,0,0,0,4.48,0v-1.69a2.11,2.11,0,0,0-2.24-2.13Zm7,5.18a.79.79,0,0,1,.87.83v1.62a.86.86,0,0,1-1.72,0v-1.62a.78.78,0,0,1,.85-.83Zm0-1.34a2.11,2.11,0,0,0-2.22,2.12v1.71a2.23,2.23,0,0,0,4.46,0v-1.71a2.11,2.11,0,0,0-2.24-2.12Z" transform="translate(-305 -147)"/><path class="cls-4" d="M466.06,559.14a1.42,1.42,0,0,1,1.46,1.56v2.82a1.47,1.47,0,1,1-2.93,0V560.7a1.43,1.43,0,0,1,1.47-1.56Zm0-1.94a3.34,3.34,0,0,0-3.45,3.44v2.92a3.45,3.45,0,0,0,6.9,0v-2.92a3.34,3.34,0,0,0-3.45-3.44Zm4.64,8.51A1.25,1.25,0,0,0,472,567a1.3,1.3,0,1,0-1.29-1.29Zm7.22-6.57a1.42,1.42,0,0,1,1.46,1.56v2.82a1.47,1.47,0,1,1-2.93,0V560.7a1.43,1.43,0,0,1,1.47-1.56Zm0-1.94a3.35,3.35,0,0,0-3.46,3.44v2.92a3.45,3.45,0,1,0,6.9,0v-2.92a3.33,3.33,0,0,0-3.44-3.44ZM489.49,565v-1.91h-1.15v-5.77h-2l-4.05,6V565h4.05v1.84h2V565Zm-5.1-1.91,2-3v3Zm8.41-3.22,2.06,7h2l1.29-3.82,1.39,3.82h2l2.07-7h-2l-1.2,4.63-1.62-4.63h-1.89l.33,1L496,564.52l-1.23-4.63Zm14.16,7v-5.35h1.17v-1.62H507V558l-1.79.4v1.53H504v1.62h1.06v5.35Zm4.77,0h1.41l4.25-9.52H516l-4.23,9.52Zm-.7-8.33a.8.8,0,0,1,.87.84V561a.87.87,0,0,1-1.74,0v-1.62a.8.8,0,0,1,.87-.84Zm0-1.33a2.11,2.11,0,0,0-2.24,2.13V561a2.24,2.24,0,0,0,4.48,0v-1.69A2.11,2.11,0,0,0,511,557.2Zm7,5.18a.79.79,0,0,1,.87.83v1.62a.86.86,0,0,1-1.72,0v-1.62a.78.78,0,0,1,.85-.83Zm0-1.34a2.11,2.11,0,0,0-2.22,2.12v1.71a2.23,2.23,0,0,0,4.46,0v-1.71A2.11,2.11,0,0,0,518,561Z" transform="translate(-305 -147)"/><path class="cls-4" d="M464.65,537.86h6v-1.92h-1.86v-7.6H465v1.92h1.81v5.68h-2.17v1.92Zm6.78-1.15a1.25,1.25,0,0,0,1.28,1.29,1.3,1.3,0,1,0-1.28-1.29Zm3.68,1.15h5.34v-1.92H477.7l1.79-2.28a4,4,0,0,0,1-2.69,2.71,2.71,0,0,0-3-2.77,4.11,4.11,0,0,0-2.17.63v2.24a2.83,2.83,0,0,1,2-.88,1.05,1.05,0,0,1,1.13,1.16,2.7,2.7,0,0,1-.71,1.53l-2.63,3.29v1.69Zm6.56,0H487v-1.92h-2.76l1.79-2.28a4,4,0,0,0,1-2.69,2.7,2.7,0,0,0-3-2.77,4.08,4.08,0,0,0-2.17.63v2.24a2.81,2.81,0,0,1,2-.88,1.05,1.05,0,0,1,1.13,1.16,2.77,2.77,0,0,1-.71,1.53l-2.64,3.29v1.69Zm8.88-7,2.06,7h2L495.9,534l1.38,3.82h2l2.07-7h-2l-1.2,4.63-1.63-4.63h-1.89l.34,1-1.23,3.68-1.24-4.63Zm14.15,7v-5.35h1.18v-1.62H504.7V529l-1.79.4v1.53h-1.17v1.62h1.06v5.35Zm4.78,0h1.41l4.24-9.52h-1.42l-4.23,9.52Zm-.7-8.33a.81.81,0,0,1,.87.84V532a.87.87,0,0,1-1.74,0v-1.62a.8.8,0,0,1,.87-.84Zm0-1.33a2.11,2.11,0,0,0-2.24,2.13V532a2.24,2.24,0,0,0,4.48,0v-1.69a2.11,2.11,0,0,0-2.24-2.13Zm7,5.18a.79.79,0,0,1,.87.83v1.62a.87.87,0,0,1-1.73,0v-1.62a.79.79,0,0,1,.86-.83Zm0-1.34a2.12,2.12,0,0,0-2.23,2.12v1.71a2.24,2.24,0,0,0,4.47,0v-1.71a2.11,2.11,0,0,0-2.24-2.12Z" transform="translate(-305 -147)"/><path class="cls-4" d="M491.34,477.42a1.68,1.68,0,0,1,1.74,1.81v3a1.75,1.75,0,1,1-3.49,0v-3a1.68,1.68,0,0,1,1.75-1.81Zm0-1.57a3.24,3.24,0,0,0-3.35,3.34v3.13a3.34,3.34,0,1,0,6.68,0v-3.13a3.23,3.23,0,0,0-3.33-3.34Z" transform="translate(-305 -147)"/><path class="cls-4" d="M491.34,450.07a1.68,1.68,0,0,1,1.74,1.81v3.05a1.75,1.75,0,1,1-3.49,0v-3.05a1.68,1.68,0,0,1,1.75-1.81Zm0-1.57a3.24,3.24,0,0,0-3.35,3.34V455a3.34,3.34,0,1,0,6.68,0v-3.13a3.23,3.23,0,0,0-3.33-3.34Z" transform="translate(-305 -147)"/><path class="cls-4" d="M491.34,422.72a1.68,1.68,0,0,1,1.74,1.81v3.05a1.75,1.75,0,1,1-3.49,0v-3.05a1.68,1.68,0,0,1,1.75-1.81Zm0-1.57a3.24,3.24,0,0,0-3.35,3.34v3.13a3.34,3.34,0,1,0,6.68,0v-3.13a3.23,3.23,0,0,0-3.33-3.34Z" transform="translate(-305 -147)"/><path class="cls-4" d="M491.34,395.37a1.68,1.68,0,0,1,1.74,1.81v3.05a1.75,1.75,0,1,1-3.49,0v-3.05a1.68,1.68,0,0,1,1.75-1.81Zm0-1.57a3.24,3.24,0,0,0-3.35,3.34v3.13a3.34,3.34,0,1,0,6.68,0v-3.13a3.23,3.23,0,0,0-3.33-3.34Z" transform="translate(-305 -147)"/><path class="cls-4" d="M491.34,368a1.68,1.68,0,0,1,1.74,1.81v3.05a1.75,1.75,0,1,1-3.49,0v-3.05a1.68,1.68,0,0,1,1.75-1.81Zm0-1.57a3.24,3.24,0,0,0-3.35,3.34v3.13a3.34,3.34,0,1,0,6.68,0v-3.13a3.23,3.23,0,0,0-3.33-3.34Z" transform="translate(-305 -147)"/><path class="cls-4" d="M482.29,340.67a1.68,1.68,0,0,1,1.74,1.81v3a1.75,1.75,0,1,1-3.49,0v-3a1.68,1.68,0,0,1,1.75-1.81Zm0-1.57a3.24,3.24,0,0,0-3.35,3.34v3.13a3.34,3.34,0,1,0,6.68,0v-3.13a3.23,3.23,0,0,0-3.33-3.34Zm4.69,8.71a1.09,1.09,0,1,0,2.18,0,1.09,1.09,0,1,0-2.18,0Zm6.89-7.14a1.67,1.67,0,0,1,1.73,1.81v3a1.74,1.74,0,1,1-3.48,0v-3a1.67,1.67,0,0,1,1.75-1.81Zm0-1.57a3.24,3.24,0,0,0-3.35,3.34v3.13a3.34,3.34,0,1,0,6.68,0v-3.13a3.23,3.23,0,0,0-3.33-3.34Zm5.51,5.49h1.36a1.37,1.37,0,0,1,1.5,1.34,1.44,1.44,0,0,1-1.58,1.39,3.11,3.11,0,0,1-2-.69v1.82a5.31,5.31,0,0,0,2.09.46,2.88,2.88,0,0,0,3.13-2.76,2.43,2.43,0,0,0-1.48-2.33,2.26,2.26,0,0,0,1.21-2.14,2.65,2.65,0,0,0-2.93-2.58,4.48,4.48,0,0,0-1.91.43v1.74a3.07,3.07,0,0,1,1.85-.58,1.2,1.2,0,0,1,1.34,1.19,1.16,1.16,0,0,1-1.23,1.17h-1.36v1.54Z" transform="translate(-305 -147)"/><path class="cls-4" d="M482.28,313.32a1.68,1.68,0,0,1,1.73,1.81v3.05a1.75,1.75,0,1,1-3.49,0v-3.05a1.68,1.68,0,0,1,1.76-1.81Zm0-1.57a3.24,3.24,0,0,0-3.35,3.34v3.13a3.34,3.34,0,1,0,6.68,0v-3.13a3.24,3.24,0,0,0-3.33-3.34Zm4.69,8.71a1.09,1.09,0,1,0,2.18,0,1.09,1.09,0,1,0-2.18,0Zm6.88-7.14a1.68,1.68,0,0,1,1.74,1.81v3.05a1.75,1.75,0,1,1-3.49,0v-3.05a1.68,1.68,0,0,1,1.75-1.81Zm0-1.57a3.24,3.24,0,0,0-3.34,3.34v3.13a3.34,3.34,0,1,0,6.67,0v-3.13a3.23,3.23,0,0,0-3.33-3.34Zm4.6,9.66h5.82v-1.53h-1.95v-8h-3.57v1.52h2v6.47h-2.28v1.53Z" transform="translate(-305 -147)"/><path class="cls-4" d="M482.3,286a1.67,1.67,0,0,1,1.73,1.81v3.05a1.74,1.74,0,1,1-3.48,0v-3.05A1.68,1.68,0,0,1,482.3,286Zm0-1.57a3.24,3.24,0,0,0-3.35,3.34v3.13a3.34,3.34,0,1,0,6.68,0v-3.13a3.24,3.24,0,0,0-3.33-3.34Zm4.69,8.71a1.09,1.09,0,1,0,2.18,0,1.09,1.09,0,1,0-2.18,0Zm6.89-7.14a1.68,1.68,0,0,1,1.73,1.81v3.05a1.75,1.75,0,1,1-3.49,0v-3.05a1.69,1.69,0,0,1,1.76-1.81Zm0-1.57a3.24,3.24,0,0,0-3.35,3.34v3.13a3.34,3.34,0,1,0,6.68,0v-3.13a3.24,3.24,0,0,0-3.33-3.34Zm4.67,9.66h5.24v-1.53H500.6l2.12-2.69a4.14,4.14,0,0,0,1.09-2.76,2.63,2.63,0,0,0-2.91-2.68,3.8,3.8,0,0,0-2.17.71v1.81a2.9,2.9,0,0,1,2.06-.93,1.29,1.29,0,0,1,1.39,1.37,3,3,0,0,1-.86,1.82l-2.77,3.51v1.37Z" transform="translate(-305 -147)"/><path class="cls-4" d="M491.34,258.62a1.68,1.68,0,0,1,1.74,1.81v3.05a1.75,1.75,0,1,1-3.49,0v-3.05a1.68,1.68,0,0,1,1.75-1.81Zm0-1.57a3.24,3.24,0,0,0-3.35,3.34v3.13a3.34,3.34,0,1,0,6.68,0v-3.13a3.23,3.23,0,0,0-3.33-3.34Z" transform="translate(-305 -147)"/><path class="cls-4" d="M480.27,239.36h5.82v-1.53h-1.95v-8h-3.56v1.52h2v6.47h-2.28v1.53Zm6.72-1a1.09,1.09,0,1,0,2.18,0,1.09,1.09,0,1,0-2.18,0Zm3.33,1h5.82v-1.53H494.2v-8h-3.57v1.52h2v6.47h-2.28v1.53Zm6.63,0h5.24v-1.53H499l2.13-2.69a4.19,4.19,0,0,0,1.09-2.76,2.63,2.63,0,0,0-2.91-2.68,3.77,3.77,0,0,0-2.17.71v1.81a2.88,2.88,0,0,1,2.06-.93,1.29,1.29,0,0,1,1.38,1.37,3.06,3.06,0,0,1-.85,1.82L497,238v1.37Z" transform="translate(-305 -147)"/><path class="cls-4" d="M491.34,203.92a1.68,1.68,0,0,1,1.74,1.81v3.05a1.75,1.75,0,1,1-3.49,0v-3.05a1.68,1.68,0,0,1,1.75-1.81Zm0-1.57a3.24,3.24,0,0,0-3.35,3.34v3.13a3.34,3.34,0,1,0,6.68,0v-3.13a3.23,3.23,0,0,0-3.33-3.34Z" transform="translate(-305 -147)"/><path class="cls-4" d="M481.67,176.57a1.68,1.68,0,0,1,1.74,1.81v3.05a1.75,1.75,0,1,1-3.49,0v-3.05a1.68,1.68,0,0,1,1.75-1.81Zm0-1.57a3.24,3.24,0,0,0-3.34,3.34v3.13a3.34,3.34,0,1,0,6.67,0v-3.13a3.23,3.23,0,0,0-3.33-3.34Zm4.69,8.71a1.1,1.1,0,0,0,2.19,0,1.1,1.1,0,1,0-2.19,0Zm6.89-7.14a1.68,1.68,0,0,1,1.74,1.81v3.05a1.75,1.75,0,1,1-3.49,0v-3.05a1.68,1.68,0,0,1,1.75-1.81Zm0-1.57a3.24,3.24,0,0,0-3.34,3.34v3.13a3.34,3.34,0,1,0,6.67,0v-3.13a3.23,3.23,0,0,0-3.33-3.34Zm11.4,7.71v-1.52h-1.22v-6.05h-1.6l-4.2,6.2v1.37h4.2v1.95h1.6v-1.95Zm-5.32-1.52,2.5-3.77v3.77Z" transform="translate(-305 -147)"/><path class="cls-1" d="M460.21,156.66h2.23l2-5.67,1.68,5.67h2.23l2.55-9.52h-2.22l-1.59,7-1.95-7h-2l.32,1.16-1.94,5.87-1.61-7h-2.22l2.55,9.52Zm17.23,0v-1.92H474v-1.92h3.15v-1.91H474v-1.85h3.43v-1.92H472v9.52Zm1.84,0h2v-9.52h-2v9.52Zm11-9.21a6.76,6.76,0,0,0-2.57-.45,4.79,4.79,0,0,0-4.93,4.9,4.71,4.71,0,0,0,4.75,4.91,4.43,4.43,0,0,0,4.64-4.7,8.18,8.18,0,0,0-.12-1.39h-4.51v1.81H490c0,.05,0,.15,0,.21a2.24,2.24,0,0,1-2.44,2.09,2.92,2.92,0,0,1,.13-5.84,5.51,5.51,0,0,1,2.57.61v-2.15Zm9.57,9.21h2v-9.52h-2v3.77h-4.36v-3.77h-2v9.52h2v-3.84h4.36v3.84Zm5.61,0h2v-7.6h2.31v-1.92h-6.61v1.92h2.31v7.6Zm10.65,0h1.42l4.24-9.52h-1.43l-4.23,9.52Zm-.7-8.33a.8.8,0,0,1,.87.84v1.62a.87.87,0,0,1-1.74,0v-1.62a.81.81,0,0,1,.87-.84Zm0-1.33a2.11,2.11,0,0,0-2.24,2.13v1.69a2.24,2.24,0,0,0,4.48,0v-1.69a2.11,2.11,0,0,0-2.24-2.13Zm7,5.18a.79.79,0,0,1,.87.82v1.63a.86.86,0,0,1-1.72,0V153a.78.78,0,0,1,.85-.82Zm0-1.34a2.11,2.11,0,0,0-2.22,2.12v1.71a2.23,2.23,0,0,0,4.46,0V153a2.11,2.11,0,0,0-2.24-2.12Z" transform="translate(-305 -147)"/><path class="cls-4" d="M580.8,595.86h6v-1.92H585v-7.6h-3.79v1.92H583v5.68H580.8v1.92Zm10.36-7.72a1.41,1.41,0,0,1,1.45,1.55v2.83a1.46,1.46,0,1,1-2.92,0v-2.83a1.42,1.42,0,0,1,1.47-1.55Zm0-1.94a3.35,3.35,0,0,0-3.46,3.44v2.92a3.45,3.45,0,1,0,6.9,0v-2.92a3.33,3.33,0,0,0-3.44-3.44Zm4.63,8.51a1.3,1.3,0,0,0,2.6,0,1.3,1.3,0,1,0-2.6,0Zm9.28-6.45v-1.92h-4.62L600,591.5h1.27c1,0,1.92.21,1.92,1.21a1.36,1.36,0,0,1-1.46,1.32,3.19,3.19,0,0,1-2.2-1v2.39a5.14,5.14,0,0,0,2.31.56,3.1,3.1,0,0,0,3.39-3.3,3,3,0,0,0-3.17-3.05l.18-1.4Zm1.22,7.6h6v-1.92h-1.86v-7.6h-3.79v1.92h1.8v5.68h-2.17v1.92Zm15-7h-1.9v7h1.9v-4.1a1.15,1.15,0,1,1,2.29.09v4h1.9v-4a1.12,1.12,0,0,1,1.16-1.24,1.1,1.1,0,0,1,1.12,1.24v4h1.9v-4.55a2.41,2.41,0,0,0-2.39-2.56,2.15,2.15,0,0,0-2.06,1.26,2.25,2.25,0,0,0-2.14-1.26,2.06,2.06,0,0,0-1.78,1v-.82Zm15,0v.92a2.65,2.65,0,0,0-2.21-1.06,3.54,3.54,0,0,0,0,7,2.73,2.73,0,0,0,2.2-1v.49a1.77,1.77,0,0,1-2,1.81,4.67,4.67,0,0,1-2.35-.7v2a5.33,5.33,0,0,0,2.34.52c2.42,0,3.88-1.29,3.88-3.85v-6.13Zm-.11,3.39a1.66,1.66,0,0,1-3.32,0,1.66,1.66,0,1,1,3.32,0Zm3.15,3.58h1.41l4.25-9.52h-1.43l-4.23,9.52Zm8.46-7h-1.91v7h1.91v-4.1a1.14,1.14,0,1,1,2.28.09v4h1.9v-4a1.13,1.13,0,0,1,1.17-1.24,1.1,1.1,0,0,1,1.12,1.24v4h1.9v-4.55a2.41,2.41,0,0,0-2.39-2.56,2.13,2.13,0,0,0-2.06,1.26,2.25,2.25,0,0,0-2.14-1.26,2,2,0,0,0-1.78,1v-.82Zm11.81-2.69h-1.91v9.66h1.91V586.2Z" transform="translate(-305 -147)"/><path class="cls-4" d="M587.9,559.14a1.42,1.42,0,0,1,1.45,1.56v2.82a1.47,1.47,0,1,1-2.93,0V560.7a1.43,1.43,0,0,1,1.48-1.56Zm0-1.94a3.35,3.35,0,0,0-3.46,3.44v2.92a3.45,3.45,0,1,0,6.9,0v-2.92a3.34,3.34,0,0,0-3.44-3.44Zm4.63,8.51a1.3,1.3,0,0,0,2.6,0,1.3,1.3,0,1,0-2.6,0Zm4.49-2.8h1.35c.73,0,1.23.39,1.23,1a1.16,1.16,0,0,1-1.29,1.08,3,3,0,0,1-2-.69v2.24a5.86,5.86,0,0,0,2.1.43,3,3,0,0,0,3.24-2.78,2.42,2.42,0,0,0-1.4-2.28,2.27,2.27,0,0,0,1.13-2.11c0-1.48-1.17-2.64-3-2.64a4.67,4.67,0,0,0-1.9.41v2.13a3.19,3.19,0,0,1,1.82-.55c.67,0,1.09.37,1.09.91a.9.9,0,0,1-1,.89H597v1.92Zm11.31-3.65v-1.92h-4.61l-.45,5.16h1.27c1,0,1.92.21,1.92,1.21A1.35,1.35,0,0,1,605,565a3.19,3.19,0,0,1-2.2-1v2.39a5.11,5.11,0,0,0,2.31.56,3.09,3.09,0,0,0,3.38-3.3,3,3,0,0,0-3.17-3.05l.18-1.4Zm9.48.63h-1.9v7h1.9v-4.1a1.15,1.15,0,1,1,2.29.09v4H622v-4a1.13,1.13,0,0,1,1.16-1.24,1.1,1.1,0,0,1,1.12,1.24v4h1.9v-4.55a2.41,2.41,0,0,0-2.39-2.56,2.15,2.15,0,0,0-2.06,1.26,2.25,2.25,0,0,0-2.14-1.26,2,2,0,0,0-1.78,1v-.82Zm15,0v.92a2.65,2.65,0,0,0-2.21-1.06,3.53,3.53,0,0,0,0,7,2.72,2.72,0,0,0,2.19-1v.49a1.78,1.78,0,0,1-2,1.81,4.67,4.67,0,0,1-2.35-.7v2a5.33,5.33,0,0,0,2.34.52c2.42,0,3.88-1.29,3.88-3.85v-6.13Zm-.11,3.39a1.66,1.66,0,1,1-3.32,0,1.66,1.66,0,1,1,3.32,0Zm3.15,3.58h1.41l4.25-9.52h-1.43l-4.23,9.52Zm8.46-7h-1.91v7h1.91v-4.1a1.14,1.14,0,1,1,2.28.09v4h1.9v-4a1.13,1.13,0,0,1,1.16-1.24,1.1,1.1,0,0,1,1.13,1.24v4h1.9v-4.55a2.41,2.41,0,0,0-2.39-2.56,2.13,2.13,0,0,0-2.06,1.26,2.25,2.25,0,0,0-2.14-1.26,2,2,0,0,0-1.78,1v-.82Zm11.81-2.69h-1.91v9.66h1.91V557.2Z" transform="translate(-305 -147)"/><path class="cls-4" d="M581.15,537.86h6v-1.92h-1.86v-7.6h-3.8v1.92h1.81v5.68h-2.17v1.92Zm6.69,0h6v-1.92H592v-7.6h-3.8v1.92H590v5.68h-2.17v1.92Zm6.78-1.15A1.25,1.25,0,0,0,595.9,538a1.3,1.3,0,1,0-1.28-1.29Zm10.56-.69v-1.91H604v-5.77h-2l-4,6V536h4v1.84h2V536Zm-5.09-1.91,2-3v3Zm6.92-.2h1.34c.73,0,1.23.39,1.23,1a1.16,1.16,0,0,1-1.29,1.08,2.94,2.94,0,0,1-2-.69v2.24a5.77,5.77,0,0,0,2.1.43,3,3,0,0,0,3.23-2.78,2.42,2.42,0,0,0-1.4-2.29,2.25,2.25,0,0,0,1.13-2.1c0-1.48-1.17-2.64-3-2.64a4.71,4.71,0,0,0-1.9.41v2.13a3.21,3.21,0,0,1,1.82-.55c.67,0,1.09.37,1.09.91a.9.9,0,0,1-1,.89H607v1.92Zm13.88-3H619v7h1.9v-4.1a1.15,1.15,0,1,1,2.29.09v4h1.9v-4a1.12,1.12,0,0,1,1.16-1.24,1.1,1.1,0,0,1,1.12,1.24v4h1.9v-4.55a2.41,2.41,0,0,0-2.39-2.56,2.15,2.15,0,0,0-2.06,1.26,2.25,2.25,0,0,0-2.14-1.26,2.06,2.06,0,0,0-1.78,1v-.82Zm15,0v.92a2.65,2.65,0,0,0-2.21-1.06,3.54,3.54,0,0,0,0,7,2.73,2.73,0,0,0,2.2-1v.49a1.78,1.78,0,0,1-2,1.81,4.67,4.67,0,0,1-2.35-.7v2a5.33,5.33,0,0,0,2.34.52c2.42,0,3.88-1.29,3.88-3.85v-6.13Zm-.11,3.39a1.66,1.66,0,0,1-3.32,0,1.66,1.66,0,1,1,3.32,0Zm3.15,3.58h1.41l4.25-9.52h-1.43l-4.23,9.52Zm8.46-7h-1.91v7h1.91v-4.1a1.14,1.14,0,1,1,2.28.09v4h1.9v-4a1.13,1.13,0,0,1,1.16-1.24,1.1,1.1,0,0,1,1.13,1.24v4h1.9v-4.55a2.41,2.41,0,0,0-2.39-2.56,2.13,2.13,0,0,0-2.06,1.26,2.26,2.26,0,0,0-2.14-1.26,2,2,0,0,0-1.78,1v-.82Zm11.81-2.69h-1.91v9.66h1.91V528.2Z" transform="translate(-305 -147)"/><path class="cls-4" d="M620.34,477.42a1.68,1.68,0,0,1,1.74,1.81v3a1.75,1.75,0,1,1-3.49,0v-3a1.68,1.68,0,0,1,1.75-1.81Zm0-1.57a3.24,3.24,0,0,0-3.35,3.34v3.13a3.34,3.34,0,1,0,6.68,0v-3.13a3.23,3.23,0,0,0-3.33-3.34Z" transform="translate(-305 -147)"/><path class="cls-4" d="M620.34,450.07a1.68,1.68,0,0,1,1.74,1.81v3.05a1.75,1.75,0,1,1-3.49,0v-3.05a1.68,1.68,0,0,1,1.75-1.81Zm0-1.57a3.24,3.24,0,0,0-3.35,3.34V455a3.34,3.34,0,1,0,6.68,0v-3.13a3.23,3.23,0,0,0-3.33-3.34Z" transform="translate(-305 -147)"/><path class="cls-4" d="M620.34,422.72a1.68,1.68,0,0,1,1.74,1.81v3.05a1.75,1.75,0,1,1-3.49,0v-3.05a1.68,1.68,0,0,1,1.75-1.81Zm0-1.57a3.24,3.24,0,0,0-3.35,3.34v3.13a3.34,3.34,0,1,0,6.68,0v-3.13a3.23,3.23,0,0,0-3.33-3.34Z" transform="translate(-305 -147)"/><path class="cls-4" d="M620.34,395.37a1.68,1.68,0,0,1,1.74,1.81v3.05a1.75,1.75,0,1,1-3.49,0v-3.05a1.68,1.68,0,0,1,1.75-1.81Zm0-1.57a3.24,3.24,0,0,0-3.35,3.34v3.13a3.34,3.34,0,1,0,6.68,0v-3.13a3.23,3.23,0,0,0-3.33-3.34Z" transform="translate(-305 -147)"/><path class="cls-4" d="M620.34,368a1.68,1.68,0,0,1,1.74,1.81v3.05a1.75,1.75,0,1,1-3.49,0v-3.05a1.68,1.68,0,0,1,1.75-1.81Zm0-1.57a3.24,3.24,0,0,0-3.35,3.34v3.13a3.34,3.34,0,1,0,6.68,0v-3.13a3.23,3.23,0,0,0-3.33-3.34Z" transform="translate(-305 -147)"/><path class="cls-4" d="M612.09,340.67a1.67,1.67,0,0,1,1.73,1.81v3a1.74,1.74,0,1,1-3.48,0v-3a1.67,1.67,0,0,1,1.75-1.81Zm0-1.57a3.24,3.24,0,0,0-3.35,3.34v3.13a3.34,3.34,0,1,0,6.68,0v-3.13a3.23,3.23,0,0,0-3.33-3.34Zm4.69,8.71a1.09,1.09,0,1,0,2.18,0,1.09,1.09,0,1,0-2.18,0Zm4.25-3.22h1.36a1.37,1.37,0,0,1,1.5,1.34,1.44,1.44,0,0,1-1.58,1.39,3.11,3.11,0,0,1-2-.69v1.82a5.31,5.31,0,0,0,2.09.46,2.88,2.88,0,0,0,3.13-2.76,2.43,2.43,0,0,0-1.48-2.33,2.26,2.26,0,0,0,1.21-2.14,2.65,2.65,0,0,0-2.93-2.58,4.48,4.48,0,0,0-1.91.43v1.74a3.07,3.07,0,0,1,1.85-.58,1.2,1.2,0,0,1,1.34,1.19,1.16,1.16,0,0,1-1.23,1.17H621v1.54Zm5.6,4.17h5.83v-1.53h-2v-8h-3.57v1.52h2v6.47h-2.29v1.53Z" transform="translate(-305 -147)"/><path class="cls-4" d="M612.07,313.32a1.68,1.68,0,0,1,1.74,1.81v3.05a1.75,1.75,0,1,1-3.49,0v-3.05a1.68,1.68,0,0,1,1.75-1.81Zm0-1.57a3.24,3.24,0,0,0-3.34,3.34v3.13a3.34,3.34,0,1,0,6.67,0v-3.13a3.23,3.23,0,0,0-3.33-3.34Zm4.69,8.71a1.1,1.1,0,0,0,2.19,0,1.1,1.1,0,1,0-2.19,0Zm3.34,1h5.82v-1.53H624v-8H620.4v1.52h2v6.47H620.1v1.53Zm6.55,0h5.82v-1.53h-2v-8H627v1.52h2v6.47h-2.28v1.53Z" transform="translate(-305 -147)"/><path class="cls-4" d="M611.91,286a1.68,1.68,0,0,1,1.73,1.81v3.05a1.75,1.75,0,1,1-3.49,0v-3.05a1.69,1.69,0,0,1,1.76-1.81Zm0-1.57a3.24,3.24,0,0,0-3.35,3.34v3.13a3.34,3.34,0,1,0,6.68,0v-3.13a3.24,3.24,0,0,0-3.33-3.34Zm4.69,8.71a1.09,1.09,0,1,0,2.18,0,1.09,1.09,0,1,0-2.18,0Zm3.33.95h5.82v-1.53h-2v-8h-3.56v1.52h2v6.47h-2.28v1.53Zm12.18-8v-1.52h-4.45l-.48,4.93h1.27c1.17,0,2.15.39,2.15,1.52a1.63,1.63,0,0,1-1.74,1.63,3.2,3.2,0,0,1-2.25-1v2a4.75,4.75,0,0,0,2.33.64,3.06,3.06,0,0,0,3.31-3.22c0-1.86-1.32-3-3.33-3h-.09l.25-1.94Z" transform="translate(-305 -147)"/><path class="cls-4" d="M620.34,258.62a1.68,1.68,0,0,1,1.74,1.81v3.05a1.75,1.75,0,1,1-3.49,0v-3.05a1.68,1.68,0,0,1,1.75-1.81Zm0-1.57a3.24,3.24,0,0,0-3.35,3.34v3.13a3.34,3.34,0,1,0,6.68,0v-3.13a3.23,3.23,0,0,0-3.33-3.34Z" transform="translate(-305 -147)"/><path class="cls-4" d="M605,239.36h5.82v-1.53h-2v-8h-3.57v1.52h2v6.47H605v1.53Zm10.17-8.09a1.68,1.68,0,0,1,1.74,1.81v3a1.75,1.75,0,1,1-3.49,0v-3a1.68,1.68,0,0,1,1.75-1.81Zm0-1.57a3.24,3.24,0,0,0-3.34,3.34v3.13a3.34,3.34,0,1,0,6.67,0V233a3.23,3.23,0,0,0-3.33-3.34Zm4.69,8.71a1.09,1.09,0,1,0,2.18,0,1.09,1.09,0,1,0-2.18,0Zm9-7v-1.52h-4.45l-.48,4.93h1.28c1.16,0,2.14.39,2.14,1.52a1.63,1.63,0,0,1-1.74,1.63,3.2,3.2,0,0,1-2.25-1v2a4.76,4.76,0,0,0,2.34.64,3,3,0,0,0,3.3-3.22c0-1.86-1.31-3-3.33-3h-.08l.25-1.94Zm1.26,8h5.82v-1.53H634v-8H630.4v1.52h2v6.47h-2.28v1.53Z" transform="translate(-305 -147)"/><path class="cls-4" d="M620.34,203.92a1.68,1.68,0,0,1,1.74,1.81v3.05a1.75,1.75,0,1,1-3.49,0v-3.05a1.68,1.68,0,0,1,1.75-1.81Zm0-1.57a3.24,3.24,0,0,0-3.35,3.34v3.13a3.34,3.34,0,1,0,6.68,0v-3.13a3.23,3.23,0,0,0-3.33-3.34Z" transform="translate(-305 -147)"/><path class="cls-4" d="M611.92,176.57a1.68,1.68,0,0,1,1.74,1.81v3.05a1.75,1.75,0,1,1-3.49,0v-3.05a1.68,1.68,0,0,1,1.75-1.81Zm0-1.57a3.24,3.24,0,0,0-3.35,3.34v3.13a3.34,3.34,0,1,0,6.68,0v-3.13a3.23,3.23,0,0,0-3.33-3.34Zm4.69,8.71a1.09,1.09,0,1,0,2.18,0,1.09,1.09,0,1,0-2.18,0Zm4.26-3.22h1.35a1.37,1.37,0,0,1,1.5,1.34,1.44,1.44,0,0,1-1.58,1.39,3.11,3.11,0,0,1-2-.69v1.82a5.31,5.31,0,0,0,2.09.46,2.88,2.88,0,0,0,3.13-2.75,2.42,2.42,0,0,0-1.48-2.34,2.27,2.27,0,0,0,1.22-2.14,2.66,2.66,0,0,0-2.94-2.58,4.48,4.48,0,0,0-1.91.43v1.74a3.07,3.07,0,0,1,1.85-.58,1.21,1.21,0,0,1,1.35,1.19,1.17,1.17,0,0,1-1.24,1.17h-1.35v1.54Zm11.22-3.83v-1.52h-4.45l-.47,4.93h1.27c1.16,0,2.14.39,2.14,1.52a1.62,1.62,0,0,1-1.73,1.63,3.23,3.23,0,0,1-2.26-1v2a4.79,4.79,0,0,0,2.34.64,3,3,0,0,0,3.3-3.22c0-1.86-1.31-3-3.33-3h-.08l.25-1.94Z" transform="translate(-305 -147)"/><path class="cls-4" d="M341.72,595.86l2.65-6.59v6.59H346v-9.52H344l-3,7.49-3-7.49h-1.93v9.52h1.59v-6.59l2.65,6.59Zm6.4-5.11a3.4,3.4,0,0,1,1.8-.55,1.3,1.3,0,0,1,1.45,1.38v.57a2.44,2.44,0,0,0-1.66-.66,2.24,2.24,0,0,0-2.36,2.25,2.19,2.19,0,0,0,2.33,2.27,2.12,2.12,0,0,0,1.69-.78v.63h1.53V591.6a2.49,2.49,0,0,0-2.81-2.77,4.77,4.77,0,0,0-2,.44v1.48Zm.75,3a1.25,1.25,0,1,1,1.24,1.11,1.19,1.19,0,0,1-1.24-1.11Zm8.19-.18,1.46,2.3h1.8L358,592.42l2.31-3.45h-1.8l-1.46,2.28L355.62,589h-1.81l2.33,3.45-2.33,3.44h1.81l1.44-2.3Zm14.25,0a3.57,3.57,0,0,1-2.32.83,3.32,3.32,0,0,1,0-6.63,3.55,3.55,0,0,1,2.32.84v-1.84A4.9,4.9,0,1,0,369,596a4.92,4.92,0,0,0,2.32-.58v-1.84Zm1.8,2.27h3.16c1.78,0,3.08-1,3.08-2.6a2.35,2.35,0,0,0-1.53-2.3,2.18,2.18,0,0,0,1.25-2.11c0-1.53-1.23-2.51-2.91-2.51h-3.05v9.52Zm4.6-2.81c0,.88-.64,1.28-1.44,1.28H374.7v-2.59h1.57a1.27,1.27,0,0,1,1.44,1.31Zm-.28-4a1.12,1.12,0,0,1-1.27,1.16H374.7v-2.34h1.46a1.14,1.14,0,0,1,1.27,1.18Zm3.64,6.82h3.43a4.76,4.76,0,0,0,0-9.52h-3.43v9.52Zm3.42-8a3.24,3.24,0,0,1,0,6.47h-1.82v-6.47Z" transform="translate(-305 -147)"/><path class="cls-4" d="M342.12,566.86l2.64-6.59v6.59h1.6v-9.52h-1.92l-3,7.49-3-7.49h-1.93v9.52h1.59v-6.59l2.65,6.59Zm6.4-5.11a3.4,3.4,0,0,1,1.8-.55,1.3,1.3,0,0,1,1.44,1.38v.57a2.4,2.4,0,0,0-1.65-.66,2.24,2.24,0,0,0-2.36,2.25,2.19,2.19,0,0,0,2.33,2.27,2.08,2.08,0,0,0,1.68-.78v.63h1.54V562.6a2.49,2.49,0,0,0-2.81-2.77,4.77,4.77,0,0,0-2,.44v1.48Zm.75,3a1.18,1.18,0,0,1,1.23-1.12,1.2,1.2,0,0,1,1.25,1.12,1.25,1.25,0,0,1-2.48,0Zm8.19-.18,1.46,2.3h1.8l-2.31-3.44,2.31-3.45h-1.8l-1.46,2.28L356,560h-1.81l2.33,3.45-2.33,3.44H356l1.44-2.3Zm8.82,2.3h1.6v-8h2.42v-1.52h-6.44v1.52h2.42v8Zm11.92,0h1.59v-9.52H378.2v4h-4.89v-4h-1.6v9.52h1.6v-4h4.89v4Zm10.49-2.27a3.57,3.57,0,0,1-2.32.83,3.32,3.32,0,0,1,0-6.63,3.55,3.55,0,0,1,2.32.84v-1.84a4.91,4.91,0,1,0,0,8.63v-1.83Z" transform="translate(-305 -147)"/><path class="cls-4" d="M350.81,537.86h1.6v-8h2.42v-1.52h-6.44v1.52h2.42v8Zm3.85-3.45a3.59,3.59,0,1,0,3.59-3.58,3.54,3.54,0,0,0-3.59,3.58Zm1.55,0a2.05,2.05,0,0,1,2-2.08,2.09,2.09,0,0,1,0,4.17,2.05,2.05,0,0,1-2-2.09Zm8.89,3.45v-5.57h1.25V531H365.1V529l-1.45.33V531H362.4v1.32h1.17v5.57Zm2.52-5.11a3.46,3.46,0,0,1,1.81-.55,1.3,1.3,0,0,1,1.44,1.38v.57a2.4,2.4,0,0,0-1.65-.66,2.24,2.24,0,0,0-2.36,2.25,2.19,2.19,0,0,0,2.33,2.27,2.08,2.08,0,0,0,1.68-.78v.63h1.54V533.6a2.49,2.49,0,0,0-2.81-2.77,5,5,0,0,0-2,.43v1.49Zm.76,3a1.18,1.18,0,0,1,1.23-1.12,1.2,1.2,0,0,1,1.25,1.12,1.25,1.25,0,0,1-2.48,0Zm7.28-7.54h-1.54v9.66h1.54V528.2Z" transform="translate(-305 -147)"/><path class="cls-4" d="M343.28,482.58a3.44,3.44,0,0,0,.1-.78,3.2,3.2,0,0,0-3.28-3.32,3.59,3.59,0,0,0,.09,7.18,5.18,5.18,0,0,0,2.52-.63v-1.52a4.41,4.41,0,0,1-2.41.75,2,2,0,0,1-2.1-1.68Zm-3.19-2.81a1.68,1.68,0,0,1,1.8,1.62h-3.71a1.86,1.86,0,0,1,1.91-1.62Zm6.84,3.44,1.46,2.3h1.81l-2.31-3.44,2.31-3.45h-1.81l-1.46,2.28-1.44-2.28h-1.8l2.32,3.45-2.32,3.44h1.8l1.44-2.3Zm3.57-1.14a3.59,3.59,0,1,0,3.59-3.59,3.54,3.54,0,0,0-3.59,3.59Zm1.56,0a2,2,0,0,1,2-2.09,2.09,2.09,0,1,1-2,2.09Zm10.51.16v-1.44h-3.65v1.44Zm2.86,3.28H367v-8h2.42V476H363v1.52h2.42v8Zm11.91,0h1.6V476h-1.6v4h-4.89v-4h-1.59v9.52h1.59v-4h4.89v4Zm10.5-2.27a3.57,3.57,0,0,1-2.32.83,3.32,3.32,0,0,1,0-6.63,3.55,3.55,0,0,1,2.32.84v-1.84a4.9,4.9,0,1,0-2.32,9.22,4.92,4.92,0,0,0,2.32-.58v-1.84Z" transform="translate(-305 -147)"/><path class="cls-4" d="M339.72,458.16h3.43a4.76,4.76,0,0,0,0-9.52h-3.43v9.52Zm3.41-8a3.24,3.24,0,0,1,0,6.47h-1.82v-6.47Zm6.16.95a2.21,2.21,0,0,0,1.09,1.95,2.51,2.51,0,0,0-1.41,2.33,3.09,3.09,0,0,0,6.17,0,2.47,2.47,0,0,0-1.42-2.31,2.25,2.25,0,0,0,1.1-2,2.77,2.77,0,0,0-5.53,0Zm1.21,4.26a1.56,1.56,0,1,1,1.55,1.52,1.51,1.51,0,0,1-1.55-1.52Zm.3-4.26a1.26,1.26,0,0,1,2.51,0,1.26,1.26,0,0,1-2.51,0Zm9.38,3.77v-1.44h-3.65v1.44Zm2.86,3.28h1.6v-8h2.42v-1.52h-6.44v1.52H363v8Zm11.91,0h1.6v-9.52H375v4h-4.88v-4h-1.6v9.52h1.6v-4H375v4Zm10.5-2.27a3.57,3.57,0,0,1-2.32.83,3.32,3.32,0,0,1,0-6.63,3.55,3.55,0,0,1,2.32.84v-1.84a4.9,4.9,0,1,0-2.32,9.22,4.92,4.92,0,0,0,2.32-.58v-1.84Z" transform="translate(-305 -147)"/><path class="cls-4" d="M352.55,428.54a3.58,3.58,0,0,1-2.33.83,3.32,3.32,0,0,1,0-6.63,3.57,3.57,0,0,1,2.33.84v-1.84a4.9,4.9,0,1,0-2.33,9.22,4.93,4.93,0,0,0,2.33-.58v-1.84Zm1.79,2.27h3.16c1.78,0,3.08-1,3.08-2.6a2.34,2.34,0,0,0-1.52-2.3,2.18,2.18,0,0,0,1.24-2.11c0-1.53-1.23-2.51-2.91-2.51h-3.05v9.52ZM359,428a1.27,1.27,0,0,1-1.45,1.29h-1.57v-2.59h1.57A1.28,1.28,0,0,1,359,428Zm-.28-4a1.13,1.13,0,0,1-1.28,1.16h-1.46v-2.34h1.46a1.15,1.15,0,0,1,1.28,1.18Zm10.57-2.34a6.57,6.57,0,0,0-2.6-.5,4.79,4.79,0,0,0-4.95,4.9,4.72,4.72,0,0,0,4.74,4.91,4.44,4.44,0,0,0,4.65-4.67A7.32,7.32,0,0,0,371,425h-4.56v1.44h2.92a1.94,1.94,0,0,1,0,.34,2.67,2.67,0,0,1-2.87,2.62,3.32,3.32,0,0,1,.16-6.63,5.28,5.28,0,0,1,2.6.66v-1.75Zm9.19,9.16h1.78l-3.56-9.52h-1.77l-3.56,9.52h1.78l.85-2.35h3.63l.85,2.35Zm-2.66-7.43,1.29,3.55h-2.59l1.3-3.55Z" transform="translate(-305 -147)"/><path class="cls-4" d="M352.83,401.19a3.57,3.57,0,0,1-2.32.83,3.32,3.32,0,0,1,0-6.63,3.55,3.55,0,0,1,2.32.84v-1.84a4.91,4.91,0,1,0,0,8.63v-1.83Zm1.8,2.27h3.16c1.78,0,3.08-1,3.08-2.61a2.35,2.35,0,0,0-1.52-2.29,2.18,2.18,0,0,0,1.24-2.11c0-1.53-1.23-2.51-2.91-2.51h-3.05v9.52Zm4.6-2.81c0,.88-.64,1.28-1.44,1.28h-1.57v-2.59h1.57a1.27,1.27,0,0,1,1.44,1.31Zm-.28-4a1.12,1.12,0,0,1-1.27,1.16h-1.46v-2.34h1.46a1.14,1.14,0,0,1,1.27,1.18Zm3.64,6.82H366a4.76,4.76,0,0,0,0-9.52h-3.43v9.52Zm3.42-8a3.24,3.24,0,0,1,0,6.47h-1.82v-6.47Zm12.14,8h1.77l-3.55-9.52h-1.78L371,403.46h1.78l.86-2.35h3.62l.86,2.35ZM375.49,396l1.28,3.55h-2.59l1.31-3.55Z" transform="translate(-305 -147)"/><path class="cls-4" d="M347.84,376.11h1.6v-8h2.42v-1.52h-6.44v1.52h2.42v8Zm11.92,0h1.59v-9.52h-1.59v4h-4.89v-4h-1.59v9.52h1.59v-4h4.89v4Zm10.5-2.27a3.58,3.58,0,0,1-2.33.83,3.32,3.32,0,0,1,0-6.63,3.57,3.57,0,0,1,2.33.84V367a4.91,4.91,0,1,0,0,8.63v-1.83Zm7.81,2.27h1.78l-3.56-9.52h-1.78L371,376.11h1.78l.85-2.35h3.62l.86,2.35Zm-2.66-7.43,1.29,3.55h-2.59l1.3-3.55Z" transform="translate(-305 -147)"/><path class="cls-4" d="M356.91,346.49a3.58,3.58,0,0,1-2.33.83,3.32,3.32,0,0,1,0-6.63,3.57,3.57,0,0,1,2.33.84v-1.84a4.91,4.91,0,1,0,0,8.63v-1.83Zm1.79,2.27h3.17c1.77,0,3.07-1,3.07-2.61a2.34,2.34,0,0,0-1.52-2.29,2.19,2.19,0,0,0,1.24-2.12c0-1.52-1.23-2.5-2.91-2.5H358.7v9.52Zm4.61-2.81a1.27,1.27,0,0,1-1.44,1.28H360.3v-2.59h1.57a1.28,1.28,0,0,1,1.44,1.31Zm-.28-4a1.13,1.13,0,0,1-1.28,1.16H360.3v-2.34h1.45a1.15,1.15,0,0,1,1.28,1.18Zm9.75,6.82h1.6v-9.52h-1.6V346L368,339.24h-1.91v.13l.65,1v8.39h1.59V342.6l4.48,6.16Z" transform="translate(-305 -147)"/><path class="cls-4" d="M357.71,319.14a3.58,3.58,0,0,1-2.33.83,3.32,3.32,0,0,1,0-6.63,3.57,3.57,0,0,1,2.33.84v-1.84a4.9,4.9,0,1,0-2.33,9.22,5,5,0,0,0,2.33-.58v-1.84Zm1.79,2.27h3.16c1.78,0,3.08-1,3.08-2.61a2.34,2.34,0,0,0-1.52-2.29,2.19,2.19,0,0,0,1.24-2.12c0-1.52-1.23-2.5-2.91-2.5H359.5v9.52Zm4.6-2.81c0,.88-.64,1.28-1.44,1.28h-1.57v-2.59h1.57a1.27,1.27,0,0,1,1.44,1.31Zm-.27-4a1.13,1.13,0,0,1-1.28,1.16h-1.46v-2.34h1.46a1.15,1.15,0,0,1,1.28,1.18Zm10.24,4.55a3.57,3.57,0,0,1-2.32.83,3.32,3.32,0,0,1,0-6.63,3.55,3.55,0,0,1,2.32.84v-1.84a4.9,4.9,0,1,0-2.32,9.22,4.92,4.92,0,0,0,2.32-.58v-1.84Z" transform="translate(-305 -147)"/><path class="cls-4" d="M356.77,291.79a3.58,3.58,0,0,1-2.33.83,3.32,3.32,0,0,1,0-6.63,3.57,3.57,0,0,1,2.33.84V285a4.91,4.91,0,1,0,0,8.63v-1.83Zm1.79,2.27h3.16c1.78,0,3.08-1,3.08-2.61a2.34,2.34,0,0,0-1.52-2.29,2.18,2.18,0,0,0,1.24-2.11c0-1.53-1.23-2.51-2.91-2.51h-3.05v9.52Zm4.61-2.82a1.27,1.27,0,0,1-1.45,1.29h-1.56v-2.59h1.56a1.28,1.28,0,0,1,1.45,1.3Zm-.28-4a1.13,1.13,0,0,1-1.28,1.16h-1.45v-2.34h1.45a1.15,1.15,0,0,1,1.28,1.18Zm10.57-2.34a6.55,6.55,0,0,0-2.59-.5,4.79,4.79,0,0,0-5,4.9,4.72,4.72,0,0,0,4.75,4.91,4.43,4.43,0,0,0,4.64-4.67,7.32,7.32,0,0,0-.11-1.32h-4.56v1.44h2.92a1.94,1.94,0,0,1,0,.34,2.67,2.67,0,0,1-2.87,2.62,3.32,3.32,0,0,1,.17-6.63,5.27,5.27,0,0,1,2.59.66V284.9Z" transform="translate(-305 -147)"/><path class="cls-4" d="M352.85,264.44a3.58,3.58,0,0,1-2.33.83,3.32,3.32,0,0,1,0-6.63,3.57,3.57,0,0,1,2.33.84v-1.84a4.91,4.91,0,1,0,0,8.63v-1.83Zm1.79,2.27h3.16c1.78,0,3.08-1,3.08-2.61a2.34,2.34,0,0,0-1.52-2.29,2.18,2.18,0,0,0,1.24-2.11c0-1.53-1.23-2.51-2.91-2.51h-3.05v9.52Zm4.61-2.82a1.27,1.27,0,0,1-1.45,1.29h-1.56v-2.59h1.56a1.28,1.28,0,0,1,1.45,1.3Zm-.28-4a1.13,1.13,0,0,1-1.28,1.16h-1.45v-2.34h1.45a1.15,1.15,0,0,1,1.28,1.18Zm3.64,6.82H366a4.76,4.76,0,0,0,0-9.52h-3.43v9.52Zm3.41-8a3.24,3.24,0,0,1,0,6.47H364.2v-6.47Zm8.58,8h1.78l3.56-9.52h-1.78l-2.66,7.66-2.67-7.66h-1.78l3.55,9.52Z" transform="translate(-305 -147)"/><path class="cls-4" d="M357,237.09a3.58,3.58,0,0,1-2.33.83,3.32,3.32,0,0,1,0-6.63,3.57,3.57,0,0,1,2.33.84v-1.84a4.91,4.91,0,1,0,0,8.63v-1.83Zm1.79,2.27H362c1.77,0,3.07-1,3.07-2.6a2.34,2.34,0,0,0-1.52-2.3,2.19,2.19,0,0,0,1.24-2.12c0-1.52-1.23-2.5-2.91-2.5h-3v9.52Zm4.61-2.81a1.27,1.27,0,0,1-1.44,1.28h-1.57v-2.59H362a1.28,1.28,0,0,1,1.44,1.31Zm-.28-4a1.13,1.13,0,0,1-1.28,1.16h-1.45v-2.34h1.45a1.15,1.15,0,0,1,1.28,1.18Zm3.64,6.82h3.43a4.76,4.76,0,0,0,0-9.52h-3.43v9.52Zm3.41-8a3.24,3.24,0,0,1,0,6.47h-1.82v-6.47Z" transform="translate(-305 -147)"/><path class="cls-4" d="M347.86,212h1.59v-8h2.43v-1.52h-6.44V204h2.42v8Zm11.91,0h1.6v-9.52h-1.6v4h-4.89v-4h-1.59V212h1.59v-4h4.89v4Zm10.5-2.27a3.57,3.57,0,0,1-2.32.83,3.32,3.32,0,0,1,0-6.63,3.55,3.55,0,0,1,2.32.84v-1.84a4.9,4.9,0,1,0-2.32,9.22,4.92,4.92,0,0,0,2.32-.58v-1.84Zm4.26,2.27h1.77l3.56-9.52h-1.78l-2.66,7.66-2.67-7.66H371l3.56,9.52Z" transform="translate(-305 -147)"/><path class="cls-4" d="M339.55,184.66H343a4.76,4.76,0,0,0,0-9.52h-3.43v9.52Zm3.41-8a3.24,3.24,0,0,1,0,6.47h-1.82v-6.47Zm7.19,8h1.9l2.72-4.26a3.72,3.72,0,0,0,.63-2,3.37,3.37,0,1,0-3.38,3.35h.09l-2,2.94Zm.14-6.29a1.74,1.74,0,1,1,3.48,0,1.74,1.74,0,1,1-3.48,0Zm10.06,3v-1.44H356.7v1.44Zm2.86,3.28h1.59v-8h2.43v-1.52h-6.44v1.52h2.42v8Zm11.91,0h1.6v-9.52h-1.6v4h-4.88v-4h-1.6v9.52h1.6v-4h4.88v4Zm10.5-2.27a3.57,3.57,0,0,1-2.32.83,3.32,3.32,0,0,1,0-6.63,3.55,3.55,0,0,1,2.32.84v-1.84a4.91,4.91,0,1,0,0,8.63v-1.83Z" transform="translate(-305 -147)"/><path class="cls-1" d="M356.45,156.66h2v-9.52h-2v9.52Zm4.09,0h3.53a4.76,4.76,0,0,0,0-9.52h-3.53v9.52Zm3.51-7.6a2.85,2.85,0,0,1,0,5.68h-1.52v-5.68Z" transform="translate(-305 -147)"/><path class="cls-3" d="M914.48,505.72V165.16M426.83,505.72V165.16m129,340.56V165.16m149,340.56V165.16" transform="translate(-305 -147)"/><path class="cls-1" d="M571.86,154.06a3.32,3.32,0,0,1-2.16.77,2.92,2.92,0,0,1,0-5.84,3.28,3.28,0,0,1,2.16.78v-2.28a5,5,0,0,0-2.16-.49,4.91,4.91,0,0,0,0,9.81,5,5,0,0,0,2.16-.49v-2.26Zm.93-2.15a4.9,4.9,0,1,0,4.9-4.91,4.8,4.8,0,0,0-4.9,4.91Zm2,0a2.85,2.85,0,1,1,2.86,2.92,2.87,2.87,0,0,1-2.86-2.92ZM590,156.66h2v-9.52h-2v6.06l-4.17-6.06H583.5v.14l.66,1.05v8.33h2v-5.5l3.88,5.5Zm10.57-2.6a3.35,3.35,0,0,1-2.17.77,2.92,2.92,0,0,1,0-5.84,3.31,3.31,0,0,1,2.17.78v-2.28a5,5,0,0,0-2.17-.49,4.91,4.91,0,0,0,0,9.81,5,5,0,0,0,2.17-.49v-2.26Zm7.09,2.6v-1.92h-3.43v-1.92h3.15v-1.91h-3.15v-1.85h3.43v-1.92h-5.42v9.52Zm7.75,0h2v-9.52h-2v6.06l-4.17-6.06h-2.35v.14l.66,1.05v8.33h2v-5.5l3.88,5.5Zm5.63,0h2v-7.6h2.31v-1.92h-6.61v1.92h2.31v7.6Zm5.63,0h2v-3.54h.49c1.16,0,2,1.47,2.31,3.54h2c-.22-2-.93-3.73-2.12-4.34a2.34,2.34,0,0,0,1.72-2.41c0-1.76-1.29-2.77-3.15-2.77h-3.29v9.52Zm4.4-6.52A1,1,0,0,1,630,151.2h-1.3v-2.14H630a1,1,0,0,1,1.11,1.08Zm9.85,6.52h2.23l-3.53-9.52h-2.23l-3.53,9.52h2.23l.71-2h3.41l.71,2Zm-2.41-6.92,1.05,3h-2.1l1-3Zm6.58,6.92h2v-7.6h2.31v-1.92H642.8v1.92h2.31v7.6Zm5.63,0h2v-9.52h-2v9.52Zm3.5-4.75a4.9,4.9,0,1,0,4.9-4.91,4.8,4.8,0,0,0-4.9,4.91Zm2,0a2.85,2.85,0,1,1,2.86,2.92,2.87,2.87,0,0,1-2.86-2.92Zm15.2,4.75h2v-9.52h-2v6.06l-4.18-6.06H665v.14l.66,1.05v8.33h2v-5.5l3.88,5.5Zm8.74-7h-1.9v7h1.9v-4.1a1.15,1.15,0,1,1,2.29.09v4h1.9v-4a1.13,1.13,0,0,1,1.16-1.24,1.1,1.1,0,0,1,1.12,1.24v4h1.91v-4.55a2.42,2.42,0,0,0-2.4-2.56,2.15,2.15,0,0,0-2.06,1.26,2.25,2.25,0,0,0-2.14-1.26,2.06,2.06,0,0,0-1.78,1v-.82Zm15,0v.92a2.65,2.65,0,0,0-2.21-1.06,3.53,3.53,0,0,0,0,7,2.72,2.72,0,0,0,2.19-1v.49a1.77,1.77,0,0,1-2,1.81,4.67,4.67,0,0,1-2.35-.7v2a5.33,5.33,0,0,0,2.34.52c2.42,0,3.88-1.29,3.88-3.85v-6.13Zm-.11,3.39a1.66,1.66,0,0,1-3.32,0,1.66,1.66,0,1,1,3.32,0Zm3.15,3.58h1.42l4.24-9.52h-1.43l-4.23,9.52Zm8.46-7h-1.91v7h1.91v-4.1a1.14,1.14,0,1,1,2.28.09v4h1.9v-4a1.13,1.13,0,0,1,1.17-1.24,1.1,1.1,0,0,1,1.12,1.24v4h1.9v-4.55a2.41,2.41,0,0,0-2.39-2.56,2.13,2.13,0,0,0-2.06,1.26,2.25,2.25,0,0,0-2.14-1.26,2,2,0,0,0-1.78,1v-.82ZM718.51,147H716.6v9.66h1.91V147Z" transform="translate(-305 -147)"/><path class="cls-5" d="M493,640.54h2.42v-4.31H496c1.41,0,2.4,1.79,2.81,4.31h2.5c-.27-2.49-1.14-4.53-2.59-5.28a2.83,2.83,0,0,0,2.09-2.92c0-2.14-1.56-3.37-3.82-3.37h-4v11.57Zm5.34-7.93A1.23,1.23,0,0,1,497,633.9h-1.58v-2.6H497a1.24,1.24,0,0,1,1.34,1.31Zm4.73,2a4.47,4.47,0,0,1,2.17-.62c.89,0,1.57.42,1.57,1.44v.46a3,3,0,0,0-1.85-.61,2.67,2.67,0,0,0-2.83,2.72,2.62,2.62,0,0,0,2.79,2.75,2.42,2.42,0,0,0,1.89-.81v.63h2.31v-5.09c0-2.46-1.32-3.55-3.6-3.55a7,7,0,0,0-2.45.49v2.19Zm1.34,3.39a1.12,1.12,0,0,1,1.19-1.06,1.06,1.06,0,1,1,0,2.11,1.12,1.12,0,0,1-1.19-1Zm9.46,2.57V634h1.42v-2H513.9v-2.35l-2.18.49v1.86h-1.43v2h1.29v6.5Zm4.93-8.47h-2.32v8.47h2.32v-8.47Zm-2.52-2.47a1.36,1.36,0,1,0,1.36-1.37,1.34,1.34,0,0,0-1.36,1.37Zm4,6.7a4.41,4.41,0,1,0,4.4-4.4,4.35,4.35,0,0,0-4.4,4.4Zm2.35,0a2.05,2.05,0,1,1,2,2.16,2.08,2.08,0,0,1-2-2.16Zm11.07,0a4.4,4.4,0,1,0,4.4-4.4,4.35,4.35,0,0,0-4.4,4.4Zm2.34,0a2.09,2.09,0,0,1,2.06-2.14,2.15,2.15,0,0,1,0,4.3A2.1,2.1,0,0,1,536,636.3Zm12.42-3.89H546.8v-.61a.84.84,0,0,1,.9-.91,2,2,0,0,1,.78.16v-2.31a3.55,3.55,0,0,0-.87-.11,2.8,2.8,0,0,0-3.13,3v.77h-1.19v2h1.19v6.16h2.32v-6.16h1.65v-2Zm6.4,8.13h2.42V631.3h2.8V629h-8v2.33h2.8v9.24Zm5-4.24a4.4,4.4,0,1,0,4.4-4.4,4.35,4.35,0,0,0-4.4,4.4Zm2.34,0a2.09,2.09,0,0,1,2.06-2.14,2.15,2.15,0,0,1,0,4.3,2.1,2.1,0,0,1-2.06-2.16Zm10.73,4.24V634h1.43v-2h-1.43v-2.35l-2.18.49v1.86h-1.42v2h1.29v6.5Zm2.88-6A4.41,4.41,0,0,1,578,634c.89,0,1.57.42,1.57,1.44v.46a3,3,0,0,0-1.86-.61,2.66,2.66,0,0,0-2.82,2.72,2.61,2.61,0,0,0,2.79,2.75,2.45,2.45,0,0,0,1.89-.81v.63h2.31v-5.09c0-2.46-1.33-3.55-3.61-3.55a7,7,0,0,0-2.44.49v2.19Zm1.34,3.39a1.11,1.11,0,0,1,1.19-1.06,1.06,1.06,0,1,1-1.19,1.06ZM586,628.8h-2.33v11.74H586V628.8Zm13.77,8.57a4,4,0,0,1-2.63.94,3.56,3.56,0,0,1,0-7.11,4,4,0,0,1,2.63.95v-2.77a6.15,6.15,0,0,0-2.63-.59,6,6,0,0,0,0,11.93,6.15,6.15,0,0,0,2.63-.59v-2.76Zm2,3.17h4.11c2.23,0,3.83-1.3,3.83-3.2a2.89,2.89,0,0,0-1.71-2.76,2.65,2.65,0,0,0,1.38-2.53c0-1.84-1.49-3.08-3.6-3.08h-4v11.57Zm5.45-3.54c0,.83-.57,1.21-1.34,1.21h-1.7v-2.44h1.7a1.18,1.18,0,0,1,1.34,1.23Zm-.32-4.63a1,1,0,0,1-1.14,1.08h-1.58V631.3h1.58a1,1,0,0,1,1.14,1.07Zm4.71,8.17H616A5.79,5.79,0,0,0,616,629h-4.29v11.57Zm4.27-9.24a3.46,3.46,0,0,1,0,6.91h-1.86V631.3Zm13.87,9.24V634h1.43v-2H629.8v-2.35l-2.18.49v1.86H626.2v2h1.29v6.5Zm2-4.24a4.41,4.41,0,1,0,4.41-4.4,4.36,4.36,0,0,0-4.41,4.4Zm2.35,0a2.09,2.09,0,0,1,2.06-2.14,2.15,2.15,0,0,1,0,4.3,2.1,2.1,0,0,1-2.06-2.16Zm13.31,4.24h2.42V631.3h2.8V629h-8v2.33h2.8v9.24Zm14.54,0h2.42V629H662v4.58h-5.29V629h-2.41v11.57h2.41v-4.66H662v4.66Zm12.82-3.17a4,4,0,0,1-2.63.94,3.56,3.56,0,0,1,0-7.11,4,4,0,0,1,2.63.95v-2.77a6.15,6.15,0,0,0-2.63-.59,6,6,0,0,0,0,11.93,6.15,6.15,0,0,0,2.63-.59v-2.76Zm9.57-2.17h1.7a2,2,0,0,1,2.11,2,2.06,2.06,0,0,1-2.24,2,3.85,3.85,0,0,1-2.42-.8v1.67a5.27,5.27,0,0,0,2.49.6,3.4,3.4,0,0,0,3.68-3.32,3,3,0,0,0-1.87-2.91,2.71,2.71,0,0,0,1.55-2.62A3.12,3.12,0,0,0,686,628.8a4.56,4.56,0,0,0-2.29.55V631a3.73,3.73,0,0,1,2.24-.68,1.77,1.77,0,1,1,.16,3.53h-1.69v1.4Zm11.28-5a2.36,2.36,0,0,1,2.44,2.53v4a2.44,2.44,0,1,1-4.87,0v-4a2.36,2.36,0,0,1,2.43-2.53Zm0-1.43a3.8,3.8,0,0,0-3.9,3.91v4.07a3.91,3.91,0,1,0,7.81,0v-4.07a3.8,3.8,0,0,0-3.91-3.91Zm5.93,10.83a1.05,1.05,0,0,0,1.09,1.08,1.08,1.08,0,1,0,0-2.16,1.05,1.05,0,0,0-1.09,1.08Zm12-1.59v-1.4H712V629h-1.47l-5.29,7.81V638h5.29v2.5H712V638Zm-6.73-1.4,3.7-5.51v5.51ZM717,639.7a1,1,0,1,0,2,0,1,1,0,1,0-2,0Zm0-6.37a1,1,0,1,0,1-1,1,1,0,0,0-1,1Zm5.37,7.21h6.84v-1.4h-2.47V629h-4.06v1.4h2.6v8.77h-2.91v1.4Z" transform="translate(-305 -147)"/><polygon class="cls-1" points="400.4 79.2 608.65 79.2 608.65 94.67 400.4 94.67 400.4 79.2 400.4 79.2"/><polygon class="cls-1" points="400.4 24.55 406.78 24.55 406.78 40.02 400.4 40.02 400.4 24.55 400.4 24.55"/><polygon class="cls-1" points="400.4 189.36 405.97 189.36 405.97 204.82 400.4 204.82 400.4 189.36 400.4 189.36"/><polygon class="cls-1" points="400.4 161.21 402.02 161.21 402.02 176.68 400.4 176.68 400.4 161.21 400.4 161.21"/><polygon class="cls-1" points="400.4 134.06 402.68 134.06 402.68 149.52 400.4 149.52 400.4 134.06 400.4 134.06"/><line class="cls-6" y1="358.72" x2="608.65" y2="358.72"/><text class="cls-7" transform="translate(398 380.37)">0%</text><text class="cls-7" transform="translate(591.61 380.37)">1.7%</text><text class="cls-7" transform="translate(454.9 380.37)">Cannabinoids (</text><text class="cls-7" transform="translate(530.42 380.37)">wt%)</text></svg>