<svg id="Layer_1" data-name="Layer 1" xmlns="http://www.w3.org/2000/svg" viewBox="0 0 613.6 499.94"><defs><style>.cls-1{fill:#941a27;}.cls-2{fill:#fdd8cb;}.cls-3,.cls-4{fill:none;stroke:#fff;}.cls-3{stroke-width:7px;}.cls-5{isolation:isolate;}.cls-6{fill:#231f20;}.cls-7{fill:#fbc7b5;}</style></defs><title>Good-Day-Cann-3B</title><polygon class="cls-1" points="0 475.42 0 499.94 608.65 499.94 608.65 475.42 0 475.42 0 475.42"/><polygon class="cls-2" points="0 127.38 0 156.18 608.65 156.18 608.65 127.38 0 127.38 0 127.38"/><polygon class="cls-2" points="0 17.78 0 46.58 608.65 46.58 608.65 17.78 0 17.78 0 17.78"/><polygon class="cls-2" points="0 72.58 0 101.38 608.65 101.38 608.65 72.58 0 72.58 0 72.58"/><polygon class="cls-2" points="0 182.18 0 210.98 608.65 210.98 608.65 182.18 0 182.18 0 182.18"/><polygon class="cls-2" points="0 236.98 0 265.78 608.65 265.78 608.65 236.98 0 236.98 0 236.98"/><polygon class="cls-2" points="0 291.78 0 320.58 608.65 320.58 608.65 291.78 0 291.78 0 291.78"/><line class="cls-3" y1="358.74" x2="608.65" y2="358.74"/><line class="cls-4" y1="17.68" x2="608.65" y2="17.68"/><g class="cls-5"><path class="cls-6" d="M178.71,33.43v3.14a3.34,3.34,0,1,1-6.68,0V33.43a3.34,3.34,0,1,1,6.68,0Zm-5.08,0v3.05a1.75,1.75,0,1,0,3.49,0V33.47a1.75,1.75,0,1,0-3.49,0Z" transform="translate(0 -2.08)"/><path class="cls-6" d="M181.14,37.7a1.08,1.08,0,0,1,1.11,1.11,1.09,1.09,0,1,1-1.11-1.11Z" transform="translate(0 -2.08)"/><path class="cls-6" d="M190.29,33.43v3.14a3.34,3.34,0,1,1-6.68,0V33.43a3.34,3.34,0,1,1,6.68,0Zm-5.08,0v3.05a1.74,1.74,0,1,0,3.48,0V33.47a1.74,1.74,0,1,0-3.48,0Z" transform="translate(0 -2.08)"/></g><g class="cls-5"><path class="cls-6" d="M194.8,33.26h.13a3.24,3.24,0,0,1,3.36,3.28,3.37,3.37,0,1,1-6.74,0,3.87,3.87,0,0,1,.62-2l2.73-4.26h1.91Zm.13,1.51a1.73,1.73,0,0,0-1.75,1.77,1.75,1.75,0,1,0,3.49,0A1.73,1.73,0,0,0,194.93,34.77Z" transform="translate(0 -2.08)"/></g><g class="cls-5"><path class="cls-6" d="M188.34,60.78v3.14a3.34,3.34,0,1,1-6.68,0V60.78a3.34,3.34,0,1,1,6.68,0Zm-5.08,0v3a1.75,1.75,0,1,0,3.49,0v-3a1.75,1.75,0,1,0-3.49,0Z" transform="translate(0 -2.08)"/></g><g class="cls-5"><path class="cls-6" d="M174.21,92.93h2.28V86.46h-2V84.93h3.57v8H180v1.53h-5.83Z" transform="translate(0 -2.08)"/><path class="cls-6" d="M182,92.4a1.08,1.08,0,0,1,1.11,1.11A1.07,1.07,0,0,1,182,94.6a1.05,1.05,0,0,1-1.08-1.09A1.07,1.07,0,0,1,182,92.4Z" transform="translate(0 -2.08)"/><path class="cls-6" d="M186.32,94.46h-1.83l3.25-8h-3.53V84.93h5.26v1.36Z" transform="translate(0 -2.08)"/><path class="cls-6" d="M190.23,92.93h2.28V86.46h-2V84.93h3.58v8h1.94v1.53h-5.82Z" transform="translate(0 -2.08)"/></g><g class="cls-5"><path class="cls-6" d="M188.34,115.48v3.14a3.34,3.34,0,1,1-6.68,0v-3.14a3.34,3.34,0,1,1,6.68,0Zm-5.08,0v3a1.75,1.75,0,1,0,3.49,0v-3a1.75,1.75,0,1,0-3.49,0Z" transform="translate(0 -2.08)"/></g><g class="cls-5"><path class="cls-6" d="M178.67,142.83V146a3.34,3.34,0,1,1-6.68,0v-3.14a3.34,3.34,0,1,1,6.68,0Zm-5.08,0v3a1.75,1.75,0,1,0,3.49,0v-3a1.75,1.75,0,1,0-3.49,0Z" transform="translate(0 -2.08)"/><path class="cls-6" d="M181.1,147.1a1.08,1.08,0,0,1,1.11,1.11,1.09,1.09,0,1,1-1.11-1.11Z" transform="translate(0 -2.08)"/><path class="cls-6" d="M190.25,142.83V146a3.34,3.34,0,1,1-6.68,0v-3.14a3.34,3.34,0,1,1,6.68,0Zm-5.08,0v3a1.74,1.74,0,1,0,3.48,0v-3a1.74,1.74,0,1,0-3.48,0Z" transform="translate(0 -2.08)"/></g><g class="cls-5"><path class="cls-6" d="M197.1,147.21v1.95h-1.6v-1.95h-4.2v-1.37l4.2-6.21h1.6v6.06h1.22v1.52Zm-1.6-1.52v-3.77l-2.5,3.77Z" transform="translate(0 -2.08)"/></g><g class="cls-5"><path class="cls-6" d="M179.29,170.19v3.14a3.34,3.34,0,1,1-6.68,0v-3.14a3.34,3.34,0,1,1,6.68,0Zm-5.08,0v3.05a1.74,1.74,0,1,0,3.48,0v-3.05a1.74,1.74,0,1,0-3.48,0Z" transform="translate(0 -2.08)"/><path class="cls-6" d="M181.72,174.46a1.08,1.08,0,0,1,1.11,1.11,1.09,1.09,0,1,1-1.11-1.11Z" transform="translate(0 -2.08)"/><path class="cls-6" d="M190.87,170.19v3.14a3.34,3.34,0,1,1-6.68,0v-3.14a3.34,3.34,0,1,1,6.68,0Zm-5.08,0v3.05a1.74,1.74,0,1,0,3.48,0v-3.05a1.74,1.74,0,1,0-3.48,0Z" transform="translate(0 -2.08)"/></g><g class="cls-5"><path class="cls-6" d="M193.05,170.81h1.36a1.17,1.17,0,0,0,1.24-1.18,1.2,1.2,0,0,0-1.35-1.19,3.13,3.13,0,0,0-1.85.57v-1.74a4.48,4.48,0,0,1,1.91-.43,2.67,2.67,0,0,1,2.94,2.59,2.28,2.28,0,0,1-1.22,2.15,2.42,2.42,0,0,1,1.49,2.33,2.89,2.89,0,0,1-3.14,2.76,5.31,5.31,0,0,1-2.09-.46v-1.82a3.11,3.11,0,0,0,2,.69,1.44,1.44,0,0,0,1.58-1.39,1.37,1.37,0,0,0-1.5-1.34h-1.36Z" transform="translate(0 -2.08)"/></g><g class="cls-5"><path class="cls-6" d="M188.34,197.53v3.14a3.34,3.34,0,1,1-6.68,0v-3.14a3.34,3.34,0,1,1,6.68,0Zm-5.08,0v3.05a1.75,1.75,0,1,0,3.49,0v-3.05a1.75,1.75,0,1,0-3.49,0Z" transform="translate(0 -2.08)"/></g><g class="cls-5"><path class="cls-6" d="M188.34,224.88V228a3.34,3.34,0,1,1-6.68,0v-3.14a3.34,3.34,0,1,1,6.68,0Zm-5.08,0V228a1.75,1.75,0,1,0,3.49,0v-3.05a1.75,1.75,0,1,0-3.49,0Z" transform="translate(0 -2.08)"/></g><g class="cls-5"><path class="cls-6" d="M180.09,252.23v3.14a3.34,3.34,0,1,1-6.68,0v-3.14a3.34,3.34,0,1,1,6.68,0Zm-5.08,0v3a1.75,1.75,0,1,0,3.49,0v-3a1.75,1.75,0,1,0-3.49,0Z" transform="translate(0 -2.08)"/><path class="cls-6" d="M182.52,256.5a1.08,1.08,0,0,1,1.11,1.11,1.09,1.09,0,1,1-1.11-1.11Z" transform="translate(0 -2.08)"/><path class="cls-6" d="M185.7,252.84h1.36a1.16,1.16,0,0,0,1.23-1.17,1.19,1.19,0,0,0-1.34-1.19,3.13,3.13,0,0,0-1.85.57v-1.74a4.48,4.48,0,0,1,1.91-.43,2.67,2.67,0,0,1,2.94,2.59,2.3,2.3,0,0,1-1.22,2.15,2.41,2.41,0,0,1,1.48,2.33,2.88,2.88,0,0,1-3.13,2.76,5.31,5.31,0,0,1-2.09-.46v-1.82a3.09,3.09,0,0,0,2,.69,1.44,1.44,0,0,0,1.58-1.39,1.37,1.37,0,0,0-1.5-1.34H185.7Z" transform="translate(0 -2.08)"/><path class="cls-6" d="M191.3,257h2.29v-6.47h-2V249h3.57v8h1.95v1.53H191.3Z" transform="translate(0 -2.08)"/></g><g class="cls-5"><path class="cls-6" d="M178.67,279.58v3.14a3.34,3.34,0,1,1-6.68,0v-3.14a3.34,3.34,0,1,1,6.68,0Zm-5.08,0v3.05a1.75,1.75,0,1,0,3.49,0v-3.05a1.75,1.75,0,1,0-3.49,0Z" transform="translate(0 -2.08)"/><path class="cls-6" d="M181.1,283.85a1.08,1.08,0,0,1,1.11,1.11,1.09,1.09,0,1,1-1.11-1.11Z" transform="translate(0 -2.08)"/><path class="cls-6" d="M190.25,279.58v3.14a3.34,3.34,0,1,1-6.68,0v-3.14a3.34,3.34,0,1,1,6.68,0Zm-5.08,0v3.05a1.74,1.74,0,1,0,3.48,0v-3.05a1.74,1.74,0,1,0-3.48,0Z" transform="translate(0 -2.08)"/></g><g class="cls-5"><path class="cls-6" d="M197.1,284v2h-1.6v-2h-4.2v-1.37l4.2-6.21h1.6v6.06h1.22V284Zm-1.6-1.52v-3.77l-2.5,3.77Z" transform="translate(0 -2.08)"/></g><g class="cls-5"><path class="cls-6" d="M188.34,306.94v3.14a3.34,3.34,0,1,1-6.68,0v-3.14a3.34,3.34,0,1,1,6.68,0Zm-5.08,0v3a1.75,1.75,0,1,0,3.49,0v-3a1.75,1.75,0,1,0-3.49,0Z" transform="translate(0 -2.08)"/></g><g class="cls-5"><path class="cls-6" d="M188.34,334.28v3.14a3.34,3.34,0,1,1-6.68,0v-3.14a3.34,3.34,0,1,1,6.68,0Zm-5.08,0v3.06a1.75,1.75,0,1,0,3.49,0v-3.06a1.75,1.75,0,1,0-3.49,0Z" transform="translate(0 -2.08)"/></g><g class="cls-5"><path class="cls-6" d="M158,391.26l2.63-3.29a2.7,2.7,0,0,0,.71-1.54,1.05,1.05,0,0,0-1.13-1.16,2.87,2.87,0,0,0-2,.88v-2.24a4.11,4.11,0,0,1,2.17-.63,2.71,2.71,0,0,1,3,2.77,4,4,0,0,1-1,2.71L160.54,391h2.76V393H158Z" transform="translate(0 -2.08)"/><path class="cls-6" d="M165.8,390.5a1.3,1.3,0,1,1,0,2.6,1.3,1.3,0,0,1,0-2.6Z" transform="translate(0 -2.08)"/><path class="cls-6" d="M168.11,391h2.17v-5.69h-1.81v-1.92h3.8V391h1.86V393h-6Z" transform="translate(0 -2.08)"/></g><g class="cls-5"><path class="cls-6" d="M177.67,390.1a3.42,3.42,0,1,1,3.72-3.39,3.87,3.87,0,0,1-.62,2.05l-2.62,4.2h-2.38Zm.3-2a1.43,1.43,0,1,0-1.4-1.42A1.4,1.4,0,0,0,178,388.13Z" transform="translate(0 -2.08)"/></g><g class="cls-5"><path class="cls-6" d="M186.64,386l1.23,4.64,1.24-3.68-.34-1h1.89l1.63,4.64,1.2-4.64h2l-2.08,7h-2L190,389.14,188.73,393h-2l-2.06-7Z" transform="translate(0 -2.08)"/><path class="cls-6" d="M196.92,393v-5.35h-1.07V386H197v-1.52l1.79-.41V386H200v1.63h-1.18V393Z" transform="translate(0 -2.08)"/><path class="cls-6" d="M205.14,385.42v1.7a2.25,2.25,0,0,1-4.49,0v-1.7a2.25,2.25,0,0,1,4.49,0Zm-3.11.05v1.62a.87.87,0,0,0,1.73,0v-1.62a.87.87,0,0,0-1.73,0Zm5.8-2h1.42L205,393H203.6Zm4.28,5.83V391a2.24,2.24,0,0,1-4.47,0v-1.71a2.24,2.24,0,0,1,4.47,0Zm-3.09,0v1.63a.86.86,0,0,0,1.72,0V389.3a.86.86,0,0,0-1.72,0Z" transform="translate(0 -2.08)"/></g><g class="cls-5"><path class="cls-6" d="M163.28,415.73v2.92a3.46,3.46,0,1,1-6.91,0v-2.92a3.46,3.46,0,0,1,6.91,0Zm-4.92,0v2.83a1.47,1.47,0,1,0,2.93,0v-2.83a1.47,1.47,0,1,0-2.93,0Z" transform="translate(0 -2.08)"/><path class="cls-6" d="M165.75,419.5a1.3,1.3,0,1,1,0,2.6,1.3,1.3,0,0,1,0-2.6Z" transform="translate(0 -2.08)"/><path class="cls-6" d="M175.14,415.73v2.92a3.46,3.46,0,1,1-6.91,0v-2.92a3.46,3.46,0,0,1,6.91,0Zm-4.92,0v2.83a1.47,1.47,0,1,0,2.93,0v-2.83a1.47,1.47,0,1,0-2.93,0Z" transform="translate(0 -2.08)"/><path class="cls-6" d="M179.94,415.42a3.21,3.21,0,0,1,3.15,3.26,3.42,3.42,0,1,1-6.84,0,3.78,3.78,0,0,1,.62-2l2.62-4.21h2.39Zm-.26,1.85a1.43,1.43,0,1,0,1.39,1.41A1.38,1.38,0,0,0,179.68,417.27Z" transform="translate(0 -2.08)"/></g><g class="cls-5"><path class="cls-6" d="M188.35,415l1.23,4.64,1.24-3.68-.34-1h1.89l1.63,4.64,1.2-4.64h2l-2.08,7h-2l-1.38-3.82L190.44,422h-2l-2.06-7Z" transform="translate(0 -2.08)"/><path class="cls-6" d="M198.63,422v-5.35h-1.07V415h1.18v-1.52l1.79-.41V415h1.18v1.63h-1.18V422Z" transform="translate(0 -2.08)"/><path class="cls-6" d="M206.85,414.42v1.7a2.25,2.25,0,0,1-4.49,0v-1.7a2.25,2.25,0,0,1,4.49,0Zm-3.11.05v1.62a.87.87,0,0,0,1.73,0v-1.62a.87.87,0,0,0-1.73,0Zm5.8-2H211L206.72,422h-1.41Zm4.28,5.83V420a2.24,2.24,0,0,1-4.47,0v-1.71a2.24,2.24,0,0,1,4.47,0Zm-3.09,0v1.63a.86.86,0,0,0,1.72,0V418.3a.86.86,0,0,0-1.72,0Z" transform="translate(0 -2.08)"/></g><g class="cls-5"><path class="cls-6" d="M157.56,449h2.17v-5.69h-1.8v-1.92h3.79V449h1.87V451h-6Z" transform="translate(0 -2.08)"/><path class="cls-6" d="M165.63,448.5a1.3,1.3,0,1,1,0,2.6,1.3,1.3,0,0,1,0-2.6Z" transform="translate(0 -2.08)"/></g><g class="cls-5"><path class="cls-6" d="M170.65,448.1a3.42,3.42,0,1,1,3.72-3.39,3.87,3.87,0,0,1-.62,2.05l-2.62,4.2h-2.38Zm.3-2a1.43,1.43,0,1,0-1.4-1.42A1.4,1.4,0,0,0,171,446.13Z" transform="translate(0 -2.08)"/><path class="cls-6" d="M178.45,441.28a2.7,2.7,0,0,1,2.83,2.68,2.23,2.23,0,0,1-1,1.9,2.44,2.44,0,0,1,1.29,2.26,3.15,3.15,0,0,1-6.29,0,2.45,2.45,0,0,1,1.29-2.27,2.18,2.18,0,0,1-.95-1.89A2.68,2.68,0,0,1,178.45,441.28Zm0,8.07a1.25,1.25,0,0,0,1.28-1.25,1.27,1.27,0,1,0-2.54,0A1.25,1.25,0,0,0,178.45,449.35Zm0-4.44a.9.9,0,0,0,.93-.94.88.88,0,0,0-.93-.92.93.93,0,1,0,0,1.86Z" transform="translate(0 -2.08)"/></g><g class="cls-5"><path class="cls-6" d="M187,444l1.23,4.64,1.24-3.68-.34-1H191l1.63,4.64,1.2-4.64h2l-2.08,7h-2l-1.38-3.82L189,451h-2L185,444Z" transform="translate(0 -2.08)"/><path class="cls-6" d="M197.23,451v-5.35h-1.07V444h1.18v-1.52l1.79-.41V444h1.18v1.63h-1.18V451Z" transform="translate(0 -2.08)"/><path class="cls-6" d="M205.45,443.42v1.7a2.25,2.25,0,0,1-4.49,0v-1.7a2.25,2.25,0,0,1,4.49,0Zm-3.11.05v1.62a.87.87,0,0,0,1.73,0v-1.62a.87.87,0,0,0-1.73,0Zm5.8-2h1.42L205.32,451h-1.41Zm4.28,5.83V449a2.24,2.24,0,0,1-4.47,0v-1.71a2.24,2.24,0,0,1,4.47,0Zm-3.09,0v1.63a.86.86,0,0,0,1.72,0V447.3a.86.86,0,0,0-1.72,0Z" transform="translate(0 -2.08)"/></g><g class="cls-5"><path class="cls-1" d="M151.33,2.23h2.22l1.61,7L157.1,3.4l-.32-1.17h2l1.95,7,1.6-7h2.21L162,11.76h-2.23l-1.68-5.67-2,5.67h-2.23Z" transform="translate(0 -2.08)"/><path class="cls-1" d="M165.7,11.76V2.23h5.42V4.15h-3.43V6h3.15V7.92h-3.15V9.84h3.43v1.92Z" transform="translate(0 -2.08)"/><path class="cls-1" d="M173,2.23h2v9.53h-2Z" transform="translate(0 -2.08)"/><path class="cls-1" d="M184,4.69a5.58,5.58,0,0,0-2.58-.62A2.83,2.83,0,0,0,178.49,7a2.79,2.79,0,0,0,2.76,2.92,2.24,2.24,0,0,0,2.44-2.08c0-.06,0-.16,0-.21h-2.47V5.82h4.51a8,8,0,0,1,.13,1.39,4.44,4.44,0,0,1-4.65,4.7A4.71,4.71,0,0,1,176.45,7a4.8,4.8,0,0,1,4.93-4.92,6.82,6.82,0,0,1,2.58.45Z" transform="translate(0 -2.08)"/><path class="cls-1" d="M193.52,7.92h-4.36v3.84h-2V2.23h2V6h4.36V2.23h2v9.53h-2Z" transform="translate(0 -2.08)"/><path class="cls-1" d="M199.13,4.15h-2.31V2.23h6.61V4.15h-2.31v7.61h-2Z" transform="translate(0 -2.08)"/></g><g class="cls-5"><path class="cls-1" d="M211.32,4.22v1.7a2.24,2.24,0,0,1-4.48,0V4.22a2.24,2.24,0,0,1,4.48,0Zm-3.11,0V5.89a.87.87,0,0,0,1.74,0V4.27a.87.87,0,0,0-1.74,0Zm5.8-2h1.43l-4.25,9.53h-1.41Zm4.28,5.83V9.77a2.23,2.23,0,0,1-4.46,0V8.06a2.23,2.23,0,0,1,4.46,0Zm-3.09,0V9.73a.86.86,0,0,0,1.72,0V8.1a.86.86,0,0,0-1.72,0Z" transform="translate(0 -2.08)"/></g><g class="cls-5"><path class="cls-6" d="M309.2,33.43v3.14a3.34,3.34,0,1,1-6.68,0V33.43a3.34,3.34,0,1,1,6.68,0Zm-5.08,0v3.05a1.74,1.74,0,1,0,3.48,0V33.47a1.74,1.74,0,1,0-3.48,0Z" transform="translate(0 -2.08)"/><path class="cls-6" d="M311.63,37.7a1.08,1.08,0,0,1,1.11,1.11,1.09,1.09,0,1,1-1.11-1.11Z" transform="translate(0 -2.08)"/><path class="cls-6" d="M316.49,31.76l-.25,1.93h.09c2,0,3.33,1.14,3.33,3a3.06,3.06,0,0,1-3.31,3.22,4.69,4.69,0,0,1-2.34-.64v-2a3.29,3.29,0,0,0,2.26,1A1.63,1.63,0,0,0,318,36.69c0-1.13-1-1.52-2.15-1.52h-1.27l.47-4.94h4.46v1.53Z" transform="translate(0 -2.08)"/><path class="cls-6" d="M322.83,39.76H321l3.25-8h-3.53V30.23H326v1.36Z" transform="translate(0 -2.08)"/></g><g class="cls-5"><path class="cls-6" d="M317.35,60.78v3.14a3.34,3.34,0,1,1-6.68,0V60.78a3.34,3.34,0,1,1,6.68,0Zm-5.08,0v3a1.74,1.74,0,1,0,3.48,0v-3a1.74,1.74,0,1,0-3.48,0Z" transform="translate(0 -2.08)"/></g><g class="cls-5"><path class="cls-6" d="M298.57,92.93h2.28V86.46h-2V84.93h3.57v8h1.95v1.53h-5.83Z" transform="translate(0 -2.08)"/><path class="cls-6" d="M308.39,88h.12a3.24,3.24,0,0,1,3.36,3.28,3.37,3.37,0,1,1-6.73,0,3.86,3.86,0,0,1,.61-2l2.73-4.26h1.91Zm.12,1.51a1.73,1.73,0,0,0-1.75,1.77,1.75,1.75,0,1,0,3.49,0A1.73,1.73,0,0,0,308.51,89.47Z" transform="translate(0 -2.08)"/><path class="cls-6" d="M314.05,92.4a1.08,1.08,0,0,1,1.11,1.11,1.09,1.09,0,1,1-1.11-1.11Z" transform="translate(0 -2.08)"/><path class="cls-6" d="M323.2,88.13v3.14a3.34,3.34,0,1,1-6.68,0V88.13a3.34,3.34,0,1,1,6.68,0Zm-5.08,0v3a1.74,1.74,0,1,0,3.48,0v-3a1.74,1.74,0,1,0-3.48,0Z" transform="translate(0 -2.08)"/><path class="cls-6" d="M326.51,94.46h-1.83l3.25-8H324.4V84.93h5.27v1.36Z" transform="translate(0 -2.08)"/></g><g class="cls-5"><path class="cls-6" d="M317.35,115.48v3.14a3.34,3.34,0,1,1-6.68,0v-3.14a3.34,3.34,0,1,1,6.68,0Zm-5.08,0v3a1.74,1.74,0,1,0,3.48,0v-3a1.74,1.74,0,1,0-3.48,0Z" transform="translate(0 -2.08)"/></g><g class="cls-5"><path class="cls-6" d="M309.39,142.83V146a3.34,3.34,0,1,1-6.68,0v-3.14a3.34,3.34,0,1,1,6.68,0Zm-5.08,0v3a1.74,1.74,0,1,0,3.48,0v-3a1.74,1.74,0,1,0-3.48,0Z" transform="translate(0 -2.08)"/><path class="cls-6" d="M311.83,147.1a1.07,1.07,0,0,1,1.1,1.11,1.09,1.09,0,1,1-2.18,0A1.07,1.07,0,0,1,311.83,147.1Z" transform="translate(0 -2.08)"/><path class="cls-6" d="M315,143.45h1.36a1.16,1.16,0,0,0,1.23-1.18,1.19,1.19,0,0,0-1.34-1.19,3.13,3.13,0,0,0-1.85.57v-1.73a4.31,4.31,0,0,1,1.91-.44,2.67,2.67,0,0,1,2.94,2.59,2.28,2.28,0,0,1-1.22,2.15,2.41,2.41,0,0,1,1.48,2.33,2.88,2.88,0,0,1-3.13,2.76,5.31,5.31,0,0,1-2.09-.46V147a3.09,3.09,0,0,0,2,.69,1.44,1.44,0,0,0,1.58-1.39,1.37,1.37,0,0,0-1.5-1.34H315Z" transform="translate(0 -2.08)"/><path class="cls-6" d="M322.66,149.16h-1.83l3.25-8h-3.53v-1.53h5.26V141Z" transform="translate(0 -2.08)"/></g><g class="cls-5"><path class="cls-6" d="M308.53,170.19v3.14a3.34,3.34,0,1,1-6.68,0v-3.14a3.34,3.34,0,1,1,6.68,0Zm-5.08,0v3.05a1.75,1.75,0,1,0,3.49,0v-3.05a1.75,1.75,0,1,0-3.49,0Z" transform="translate(0 -2.08)"/><path class="cls-6" d="M311,174.46a1.08,1.08,0,0,1,1.11,1.11,1.09,1.09,0,1,1-1.11-1.11Z" transform="translate(0 -2.08)"/><path class="cls-6" d="M313.3,175.15l2.78-3.52a3.06,3.06,0,0,0,.85-1.82,1.29,1.29,0,0,0-1.39-1.37,2.91,2.91,0,0,0-2.06.92v-1.8a3.76,3.76,0,0,1,2.18-.72,2.63,2.63,0,0,1,2.91,2.69,4.19,4.19,0,0,1-1.09,2.76l-2.13,2.7h3.19v1.53H313.3Z" transform="translate(0 -2.08)"/><path class="cls-6" d="M323,170h.13a3.24,3.24,0,0,1,3.36,3.28,3.37,3.37,0,1,1-6.74,0,3.78,3.78,0,0,1,.62-2.05l2.73-4.26H325Zm.13,1.51a1.73,1.73,0,0,0-1.75,1.77,1.75,1.75,0,1,0,1.75-1.77Z" transform="translate(0 -2.08)"/></g><g class="cls-5"><path class="cls-6" d="M317.35,197.53v3.14a3.34,3.34,0,1,1-6.68,0v-3.14a3.34,3.34,0,1,1,6.68,0Zm-5.08,0v3.05a1.74,1.74,0,1,0,3.48,0v-3.05a1.74,1.74,0,1,0-3.48,0Z" transform="translate(0 -2.08)"/></g><g class="cls-5"><path class="cls-6" d="M317.35,224.88V228a3.34,3.34,0,1,1-6.68,0v-3.14a3.34,3.34,0,1,1,6.68,0Zm-5.08,0V228a1.74,1.74,0,1,0,3.48,0v-3.05a1.74,1.74,0,1,0-3.48,0Z" transform="translate(0 -2.08)"/></g><g class="cls-5"><path class="cls-6" d="M305.93,257.19l2.78-3.52a3.09,3.09,0,0,0,.85-1.82,1.28,1.28,0,0,0-1.38-1.37,2.87,2.87,0,0,0-2.06.92v-1.8a3.71,3.71,0,0,1,2.17-.72,2.63,2.63,0,0,1,2.91,2.69,4.19,4.19,0,0,1-1.09,2.76L308,257h3.19v1.53h-5.24Z" transform="translate(0 -2.08)"/><path class="cls-6" d="M313.61,256.5a1.07,1.07,0,0,1,1.1,1.11,1.09,1.09,0,1,1-2.18,0A1.07,1.07,0,0,1,313.61,256.5Z" transform="translate(0 -2.08)"/></g><g class="cls-5"><path class="cls-6" d="M318.84,255.62h-.08a3.37,3.37,0,1,1,3.38-3.36,3.78,3.78,0,0,1-.63,2l-2.72,4.26h-1.91Zm-.08-1.6a1.73,1.73,0,0,0,1.75-1.76,1.75,1.75,0,1,0-3.49,0A1.73,1.73,0,0,0,318.76,254Z" transform="translate(0 -2.08)"/></g><g class="cls-5"><path class="cls-6" d="M308.49,279.58v3.14a3.34,3.34,0,1,1-6.68,0v-3.14a3.34,3.34,0,1,1,6.68,0Zm-5.08,0v3.05a1.75,1.75,0,1,0,3.49,0v-3.05a1.75,1.75,0,1,0-3.49,0Z" transform="translate(0 -2.08)"/><path class="cls-6" d="M310.92,283.85A1.08,1.08,0,0,1,312,285a1.09,1.09,0,1,1-1.11-1.11Z" transform="translate(0 -2.08)"/><path class="cls-6" d="M314.1,280.2h1.36a1.16,1.16,0,0,0,1.23-1.18,1.19,1.19,0,0,0-1.34-1.19,3.13,3.13,0,0,0-1.85.57v-1.73a4.31,4.31,0,0,1,1.91-.44,2.67,2.67,0,0,1,2.94,2.59,2.28,2.28,0,0,1-1.22,2.15,2.41,2.41,0,0,1,1.48,2.33,2.88,2.88,0,0,1-3.13,2.76,5.27,5.27,0,0,1-2.09-.46v-1.82a3.11,3.11,0,0,0,2,.69,1.44,1.44,0,0,0,1.58-1.39,1.37,1.37,0,0,0-1.5-1.34H314.1Z" transform="translate(0 -2.08)"/><path class="cls-6" d="M325.29,284v2h-1.6v-2h-4.2v-1.37l4.2-6.21h1.6v6.06h1.22V284Zm-1.6-1.52v-3.77l-2.5,3.77Z" transform="translate(0 -2.08)"/></g><g class="cls-5"><path class="cls-6" d="M317.35,306.94v3.14a3.34,3.34,0,1,1-6.68,0v-3.14a3.34,3.34,0,1,1,6.68,0Zm-5.08,0v3a1.74,1.74,0,1,0,3.48,0v-3a1.74,1.74,0,1,0-3.48,0Z" transform="translate(0 -2.08)"/></g><g class="cls-5"><path class="cls-6" d="M317.35,334.28v3.14a3.34,3.34,0,1,1-6.68,0v-3.14a3.34,3.34,0,1,1,6.68,0Zm-5.08,0v3.06a1.74,1.74,0,1,0,3.48,0v-3.06a1.74,1.74,0,1,0-3.48,0Z" transform="translate(0 -2.08)"/></g><g class="cls-5"><g class="cls-5"><path class="cls-6" d="M274.62,391.26l2.63-3.29a2.7,2.7,0,0,0,.71-1.54,1.05,1.05,0,0,0-1.13-1.16,2.87,2.87,0,0,0-2,.88v-2.24a4.11,4.11,0,0,1,2.17-.63,2.71,2.71,0,0,1,3,2.77,4,4,0,0,1-1,2.71L277.21,391H280V393h-5.35Z" transform="translate(0 -2.08)"/><path class="cls-6" d="M288.21,386.73v2.92a3.45,3.45,0,1,1-6.9,0v-2.92a3.45,3.45,0,1,1,6.9,0Zm-4.91,0v2.83a1.46,1.46,0,1,0,2.92,0v-2.83a1.46,1.46,0,1,0-2.92,0Z" transform="translate(0 -2.08)"/><path class="cls-6" d="M290.69,390.5a1.3,1.3,0,1,1,0,2.6,1.3,1.3,0,0,1,0-2.6Z" transform="translate(0 -2.08)"/><path class="cls-6" d="M295.86,385.35l-.19,1.4a3,3,0,0,1,3.18,3.06,3.1,3.1,0,0,1-3.39,3.3,5.14,5.14,0,0,1-2.31-.56v-2.39a3.18,3.18,0,0,0,2.2,1,1.35,1.35,0,0,0,1.46-1.31c0-1-.9-1.21-1.92-1.21h-1.28l.45-5.17h4.63v1.92Z" transform="translate(0 -2.08)"/><path class="cls-6" d="M299.9,391h2.17v-5.69h-1.81v-1.92h3.8V391h1.86V393h-6Z" transform="translate(0 -2.08)"/><path class="cls-6" d="M314.85,386.81a2.07,2.07,0,0,1,1.78-1,2.27,2.27,0,0,1,2.15,1.26,2.14,2.14,0,0,1,2.05-1.26,2.43,2.43,0,0,1,2.4,2.57V393h-1.91v-4a1.1,1.1,0,0,0-1.12-1.24A1.13,1.13,0,0,0,319,389v4h-1.9v-4a1.15,1.15,0,1,0-2.29-.09V393H313v-7h1.9Z" transform="translate(0 -2.08)"/><path class="cls-6" d="M331.74,386v6.14c0,2.56-1.46,3.85-3.88,3.85a5.19,5.19,0,0,1-2.34-.52v-2a4.67,4.67,0,0,0,2.35.7,1.77,1.77,0,0,0,2-1.81v-.49a2.72,2.72,0,0,1-2.19,1,3.54,3.54,0,0,1,0-7.06,2.63,2.63,0,0,1,2.21,1.07V386Zm-3.68,1.73a1.67,1.67,0,1,0,1.66,1.66A1.65,1.65,0,0,0,328.06,387.71Z" transform="translate(0 -2.08)"/><path class="cls-6" d="M337.1,383.43h1.43L334.28,393h-1.41Z" transform="translate(0 -2.08)"/></g></g><g class="cls-5"><path class="cls-6" d="M341.32,386.81a2.07,2.07,0,0,1,1.78-1,2.27,2.27,0,0,1,2.15,1.26,2.14,2.14,0,0,1,2.05-1.26,2.43,2.43,0,0,1,2.4,2.57V393h-1.91v-4a1.1,1.1,0,0,0-1.12-1.24,1.13,1.13,0,0,0-1.16,1.24v4h-1.9v-4a1.15,1.15,0,1,0-2.29-.09V393h-1.9v-7h1.9Z" transform="translate(0 -2.08)"/><path class="cls-6" d="M353.14,393h-1.92v-9.67h1.92Z" transform="translate(0 -2.08)"/></g><g class="cls-5"><g class="cls-5"><path class="cls-6" d="M285.21,415.73v2.92a3.46,3.46,0,1,1-6.91,0v-2.92a3.46,3.46,0,0,1,6.91,0Zm-4.92,0v2.83a1.47,1.47,0,1,0,2.93,0v-2.83a1.47,1.47,0,1,0-2.93,0Z" transform="translate(0 -2.08)"/><path class="cls-6" d="M287.68,419.5a1.3,1.3,0,1,1,0,2.6,1.3,1.3,0,0,1,0-2.6Z" transform="translate(0 -2.08)"/><path class="cls-6" d="M292.85,414.35l-.18,1.4a3,3,0,0,1,3.18,3.06,3.1,3.1,0,0,1-3.39,3.3,5.11,5.11,0,0,1-2.31-.56v-2.39a3.16,3.16,0,0,0,2.2,1,1.35,1.35,0,0,0,1.45-1.31c0-1-.89-1.21-1.92-1.21h-1.27l.45-5.17h4.62v1.92Z" transform="translate(0 -2.08)"/><path class="cls-6" d="M299.32,422h-2.27l3.07-7.61h-3.28v-1.92h5.47v1.7Z" transform="translate(0 -2.08)"/><path class="cls-6" d="M311.29,415.81a2,2,0,0,1,1.78-1,2.25,2.25,0,0,1,2.14,1.26,2.17,2.17,0,0,1,2.06-1.26,2.42,2.42,0,0,1,2.39,2.57V422h-1.9v-4a1.1,1.1,0,0,0-1.12-1.24,1.12,1.12,0,0,0-1.16,1.24v4h-1.91v-4a1.14,1.14,0,1,0-2.28-.09V422h-1.91v-7h1.91Z" transform="translate(0 -2.08)"/><path class="cls-6" d="M328.17,415v6.14c0,2.56-1.45,3.85-3.88,3.85a5.23,5.23,0,0,1-2.34-.52v-2a4.71,4.71,0,0,0,2.36.7,1.78,1.78,0,0,0,2-1.81v-.49a2.74,2.74,0,0,1-2.2,1,3.54,3.54,0,0,1,0-7.06,2.65,2.65,0,0,1,2.21,1.07V415Zm-3.68,1.73a1.67,1.67,0,1,0,1.67,1.66A1.64,1.64,0,0,0,324.49,416.71Z" transform="translate(0 -2.08)"/><path class="cls-6" d="M333.53,412.43H335L330.72,422H329.3Z" transform="translate(0 -2.08)"/></g></g><g class="cls-5"><path class="cls-6" d="M337.76,415.81a2.07,2.07,0,0,1,1.78-1,2.27,2.27,0,0,1,2.15,1.26,2.14,2.14,0,0,1,2.05-1.26,2.43,2.43,0,0,1,2.4,2.57V422h-1.91v-4a1.1,1.1,0,0,0-1.12-1.24A1.13,1.13,0,0,0,342,418v4h-1.9v-4a1.15,1.15,0,1,0-2.29-.09V422h-1.9v-7h1.9Z" transform="translate(0 -2.08)"/><path class="cls-6" d="M349.58,422h-1.92v-9.67h1.92Z" transform="translate(0 -2.08)"/></g><g class="cls-5"><g class="cls-5"><path class="cls-6" d="M274.51,449h2.17v-5.69h-1.8v-1.92h3.79V449h1.87V451h-6Z" transform="translate(0 -2.08)"/><path class="cls-6" d="M284.4,441.28a2.7,2.7,0,0,1,2.83,2.68,2.26,2.26,0,0,1-1,1.9,2.46,2.46,0,0,1,1.29,2.26,3.15,3.15,0,0,1-6.29,0,2.45,2.45,0,0,1,1.29-2.27,2.18,2.18,0,0,1-.95-1.89A2.68,2.68,0,0,1,284.4,441.28Zm0,8.07a1.24,1.24,0,0,0,1.27-1.25,1.27,1.27,0,1,0-2.53,0A1.24,1.24,0,0,0,284.4,449.35Zm0-4.44a.91.91,0,0,0,.94-.94.95.95,0,0,0-1.89,0A.91.91,0,0,0,284.41,444.91Z" transform="translate(0 -2.08)"/><path class="cls-6" d="M289.9,448.5a1.3,1.3,0,1,1,0,2.6,1.3,1.3,0,0,1,0-2.6Z" transform="translate(0 -2.08)"/><path class="cls-6" d="M295.86,444.42a3.22,3.22,0,0,1,3.16,3.26,3.42,3.42,0,1,1-6.84,0,3.78,3.78,0,0,1,.62-2l2.62-4.21h2.39Zm-.25,1.85a1.43,1.43,0,1,0,1.39,1.41A1.38,1.38,0,0,0,295.61,446.27Z" transform="translate(0 -2.08)"/><path class="cls-6" d="M299.91,449h2.17v-5.69h-1.81v-1.92h3.8V449h1.86V451h-6Z" transform="translate(0 -2.08)"/><path class="cls-6" d="M314.86,444.81a2.05,2.05,0,0,1,1.78-1,2.25,2.25,0,0,1,2.14,1.26,2.17,2.17,0,0,1,2.06-1.26,2.43,2.43,0,0,1,2.4,2.57V451h-1.91v-4a1.1,1.1,0,0,0-1.12-1.24,1.13,1.13,0,0,0-1.16,1.24v4h-1.91v-4a1.14,1.14,0,1,0-2.28-.09V451H313v-7h1.9Z" transform="translate(0 -2.08)"/><path class="cls-6" d="M331.75,444v6.14c0,2.56-1.46,3.85-3.88,3.85a5.19,5.19,0,0,1-2.34-.52v-2a4.64,4.64,0,0,0,2.35.7,1.77,1.77,0,0,0,2-1.81v-.49a2.73,2.73,0,0,1-2.2,1,3.54,3.54,0,0,1,0-7.06,2.63,2.63,0,0,1,2.21,1.07V444Zm-3.69,1.73a1.67,1.67,0,1,0,1.67,1.66A1.64,1.64,0,0,0,328.06,445.71Z" transform="translate(0 -2.08)"/><path class="cls-6" d="M337.11,441.43h1.43L334.29,451h-1.41Z" transform="translate(0 -2.08)"/></g></g><g class="cls-5"><path class="cls-6" d="M341.33,444.81a2.07,2.07,0,0,1,1.78-1,2.27,2.27,0,0,1,2.15,1.26,2.14,2.14,0,0,1,2.05-1.26,2.43,2.43,0,0,1,2.4,2.57V451H347.8v-4a1.1,1.1,0,0,0-1.12-1.24,1.13,1.13,0,0,0-1.16,1.24v4h-1.9v-4a1.15,1.15,0,1,0-2.29-.09V451h-1.9v-7h1.9Z" transform="translate(0 -2.08)"/><path class="cls-6" d="M353.15,451h-1.92v-9.67h1.92Z" transform="translate(0 -2.08)"/></g><g class="cls-5"><path class="cls-1" d="M265.54,11.42a5.06,5.06,0,0,1-2.18.49A4.81,4.81,0,0,1,258.46,7a4.82,4.82,0,0,1,4.9-4.92,5.06,5.06,0,0,1,2.18.49V4.85a3.34,3.34,0,0,0-2.18-.78A2.87,2.87,0,0,0,260.51,7a2.85,2.85,0,0,0,2.85,2.92,3.32,3.32,0,0,0,2.18-.77Z" transform="translate(0 -2.08)"/></g><g class="cls-5"><path class="cls-1" d="M271.36,2.08A4.82,4.82,0,0,1,276.27,7a4.91,4.91,0,1,1-9.81,0A4.82,4.82,0,0,1,271.36,2.08Zm0,7.84A2.85,2.85,0,0,0,274.21,7a2.85,2.85,0,1,0-5.7,0A2.85,2.85,0,0,0,271.36,9.92Z" transform="translate(0 -2.08)"/><path class="cls-1" d="M279.82,6.25v5.51h-2V3.42l-.66-1V2.23h2.36L283.7,8.3V2.23h2v9.53h-2Z" transform="translate(0 -2.08)"/><path class="cls-1" d="M294.27,11.42a5,5,0,0,1-2.17.49A4.8,4.8,0,0,1,287.2,7a4.81,4.81,0,0,1,4.9-4.92,5,5,0,0,1,2.17.49V4.85a3.31,3.31,0,0,0-2.17-.78A2.87,2.87,0,0,0,289.24,7a2.85,2.85,0,0,0,2.86,2.92,3.3,3.3,0,0,0,2.17-.77Z" transform="translate(0 -2.08)"/><path class="cls-1" d="M295.93,11.76V2.23h5.42V4.15h-3.43V6h3.15V7.92h-3.15V9.84h3.43v1.92Z" transform="translate(0 -2.08)"/><path class="cls-1" d="M305.23,6.25v5.51h-2V3.42l-.66-1V2.23h2.35l4.18,6.07V2.23h2v9.53h-2Z" transform="translate(0 -2.08)"/><path class="cls-1" d="M314.73,4.15h-2.31V2.23H319V4.15h-2.32v7.61h-2Z" transform="translate(0 -2.08)"/><path class="cls-1" d="M320.36,2.23h3.29c1.87,0,3.16,1,3.16,2.78a2.35,2.35,0,0,1-1.73,2.41c1.19.61,1.91,2.29,2.13,4.34h-2.06c-.33-2.07-1.15-3.54-2.31-3.54h-.49v3.54h-2Zm3.29,1.92h-1.3V6.3h1.3a1,1,0,0,0,1.11-1.07A1,1,0,0,0,323.65,4.15Z" transform="translate(0 -2.08)"/><path class="cls-1" d="M333.9,9.73h-3.4l-.71,2h-2.23l3.53-9.53h2.22l3.53,9.53h-2.22Zm-2.74-1.92h2.1l-1.05-3Z" transform="translate(0 -2.08)"/></g><g class="cls-5"><path class="cls-1" d="M338.78,4.15h-2.31V2.23h6.61V4.15h-2.31v7.61h-2Z" transform="translate(0 -2.08)"/><path class="cls-1" d="M344.41,2.23h2v9.53h-2Z" transform="translate(0 -2.08)"/><path class="cls-1" d="M352.81,2.08A4.81,4.81,0,0,1,357.71,7a4.9,4.9,0,1,1-9.8,0A4.81,4.81,0,0,1,352.81,2.08Zm0,7.84A2.85,2.85,0,0,0,355.65,7,2.85,2.85,0,1,0,350,7,2.86,2.86,0,0,0,352.81,9.92Z" transform="translate(0 -2.08)"/><path class="cls-1" d="M361.27,6.25v5.51h-2V3.42l-.66-1V2.23H361l4.18,6.07V2.23h2v9.53h-2Z" transform="translate(0 -2.08)"/><path class="cls-1" d="M373.89,5.61a2.07,2.07,0,0,1,1.78-1,2.27,2.27,0,0,1,2.15,1.26,2.14,2.14,0,0,1,2.05-1.26,2.43,2.43,0,0,1,2.4,2.57v4.55h-1.91v-4a1.1,1.1,0,0,0-1.12-1.24,1.13,1.13,0,0,0-1.16,1.24v4h-1.9v-4a1.15,1.15,0,1,0-2.29-.09v4.1H372v-7h1.9Z" transform="translate(0 -2.08)"/><path class="cls-1" d="M390.78,4.78v6.14c0,2.56-1.46,3.85-3.88,3.85a5.33,5.33,0,0,1-2.34-.52v-2a4.67,4.67,0,0,0,2.35.7,1.78,1.78,0,0,0,2-1.81v-.49a2.76,2.76,0,0,1-2.2,1,3.3,3.3,0,0,1-3.28-3.51,3.32,3.32,0,0,1,3.26-3.55,2.67,2.67,0,0,1,2.22,1.07V4.78ZM387.1,6.51a1.67,1.67,0,1,0,1.66,1.66A1.65,1.65,0,0,0,387.1,6.51Z" transform="translate(0 -2.08)"/><path class="cls-1" d="M396.14,2.23h1.43l-4.25,9.53h-1.41Z" transform="translate(0 -2.08)"/></g><g class="cls-5"><path class="cls-1" d="M400.36,5.61a2.07,2.07,0,0,1,1.78-1,2.27,2.27,0,0,1,2.15,1.26,2.14,2.14,0,0,1,2-1.26,2.43,2.43,0,0,1,2.4,2.57v4.55h-1.91v-4a1.1,1.1,0,0,0-1.12-1.24,1.13,1.13,0,0,0-1.16,1.24v4h-1.9v-4a1.15,1.15,0,1,0-2.29-.09v4.1h-1.9v-7h1.9Z" transform="translate(0 -2.08)"/><path class="cls-1" d="M412.18,11.76h-1.92V2.09h1.92Z" transform="translate(0 -2.08)"/></g><g class="cls-5"><path class="cls-6" d="M33.22,30.23h3.43A4.48,4.48,0,0,1,41.34,35a4.47,4.47,0,0,1-4.69,4.76H33.22Zm1.6,1.53v6.47h1.82a3,3,0,0,0,3-3.23,3,3,0,0,0-3-3.24Z" transform="translate(0 -2.08)"/><path class="cls-6" d="M45.78,36.82h-.09a3.37,3.37,0,1,1,3.38-3.36,3.7,3.7,0,0,1-.63,2l-2.72,4.26h-1.9Zm-.09-1.6a1.72,1.72,0,0,0,1.75-1.76,1.74,1.74,0,1,0-3.48,0A1.72,1.72,0,0,0,45.69,35.22Z" transform="translate(0 -2.08)"/><path class="cls-6" d="M50.37,36.48V35H54v1.44Z" transform="translate(0 -2.08)"/></g><g class="cls-5"><path class="cls-6" d="M56.88,31.76H54.46V30.23H60.9v1.53H58.48v8h-1.6Z" transform="translate(0 -2.08)"/><path class="cls-6" d="M68.8,35.73H63.91v4h-1.6V30.23h1.6v4H68.8v-4h1.59v9.53H68.8Z" transform="translate(0 -2.08)"/><path class="cls-6" d="M79.3,39.33a5,5,0,0,1-2.33.58,4.92,4.92,0,1,1,2.33-9.24v1.85A3.52,3.52,0,0,0,77,31.68a3.32,3.32,0,0,0,0,6.64,3.58,3.58,0,0,0,2.33-.83Z" transform="translate(0 -2.08)"/></g><g class="cls-5"><path class="cls-6" d="M41.53,59.11H39.11V57.58h6.44v1.53H43.13v8h-1.6Z" transform="translate(0 -2.08)"/><path class="cls-6" d="M53.45,63.08H48.56v4H47V57.58h1.6v4h4.89v-4H55v9.53H53.45Z" transform="translate(0 -2.08)"/><path class="cls-6" d="M64,66.68a5,5,0,0,1-2.33.58A4.92,4.92,0,1,1,64,58v1.85A3.54,3.54,0,0,0,61.62,59a3.32,3.32,0,0,0,0,6.64A3.6,3.6,0,0,0,64,64.84Z" transform="translate(0 -2.08)"/><path class="cls-6" d="M64.64,57.58h1.78l2.68,7.67,2.66-7.67h1.78L70,67.11H68.2Z" transform="translate(0 -2.08)"/></g><g class="cls-5"><path class="cls-6" d="M50.67,94a4.92,4.92,0,0,1-2.32.58,4.92,4.92,0,1,1,2.32-9.24v1.85a3.49,3.49,0,0,0-2.32-.84,3.32,3.32,0,0,0,0,6.64,3.57,3.57,0,0,0,2.32-.83Z" transform="translate(0 -2.08)"/><path class="cls-6" d="M52.46,84.93h3c1.68,0,2.92,1,2.92,2.51a2.2,2.2,0,0,1-1.25,2.12,2.35,2.35,0,0,1,1.53,2.29c0,1.6-1.31,2.61-3.09,2.61H52.46Zm3,1.53H54.06V88.8h1.45a1.13,1.13,0,0,0,1.28-1.16A1.15,1.15,0,0,0,55.51,86.46Zm.11,3.88H54.06v2.59h1.56a1.3,1.3,0,1,0,0-2.59Z" transform="translate(0 -2.08)"/><path class="cls-6" d="M60.42,84.93h3.44a4.77,4.77,0,0,1,0,9.53H60.42ZM62,86.46v6.47h1.82a3.24,3.24,0,0,0,0-6.47Z" transform="translate(0 -2.08)"/></g><g class="cls-5"><path class="cls-6" d="M46.52,121.38a4.92,4.92,0,0,1-2.32.58,4.92,4.92,0,1,1,2.32-9.24v1.85a3.49,3.49,0,0,0-2.32-.84,3.32,3.32,0,0,0,0,6.64,3.57,3.57,0,0,0,2.32-.83Z" transform="translate(0 -2.08)"/><path class="cls-6" d="M48.31,112.28h3c1.68,0,2.92,1,2.92,2.51A2.2,2.2,0,0,1,53,116.91a2.35,2.35,0,0,1,1.53,2.29c0,1.6-1.31,2.61-3.09,2.61H48.31Zm3,1.53H49.91v2.34h1.45A1.13,1.13,0,0,0,52.64,115,1.15,1.15,0,0,0,51.36,113.81Zm.11,3.88H49.91v2.59h1.56a1.3,1.3,0,1,0,0-2.59Z" transform="translate(0 -2.08)"/><path class="cls-6" d="M56.27,112.28h3.44a4.77,4.77,0,0,1,0,9.53H56.27Zm1.6,1.53v6.47h1.82a3.24,3.24,0,0,0,0-6.47Z" transform="translate(0 -2.08)"/></g><g class="cls-5"><path class="cls-6" d="M64.72,112.28H66.5L69.17,120l2.66-7.67h1.78l-3.56,9.53H68.27Z" transform="translate(0 -2.08)"/></g><g class="cls-5"><path class="cls-6" d="M50.45,148.73a4.93,4.93,0,0,1-2.33.58,4.92,4.92,0,0,1,0-9.83,4.94,4.94,0,0,1,2.33.59v1.85a3.5,3.5,0,0,0-2.33-.84,3.32,3.32,0,0,0,0,6.64,3.58,3.58,0,0,0,2.33-.83Z" transform="translate(0 -2.08)"/><path class="cls-6" d="M52.24,139.63h3c1.68,0,2.92,1,2.92,2.51A2.2,2.2,0,0,1,57,144.26a2.35,2.35,0,0,1,1.53,2.29c0,1.6-1.31,2.61-3.09,2.61H52.24Zm3,1.53H53.84v2.34h1.45a1.13,1.13,0,0,0,1.28-1.16A1.15,1.15,0,0,0,55.29,141.16ZM55.4,145H53.84v2.59H55.4a1.3,1.3,0,1,0,0-2.59Z" transform="translate(0 -2.08)"/><path class="cls-6" d="M67.14,141.74a5.27,5.27,0,0,0-2.59-.66,3.32,3.32,0,0,0-.17,6.64,2.68,2.68,0,0,0,2.87-2.62c0-.09,0-.25,0-.34H64.31v-1.44h4.57a8.26,8.26,0,0,1,.11,1.32,4.44,4.44,0,0,1-4.65,4.67,4.72,4.72,0,0,1-4.75-4.91,4.8,4.8,0,0,1,5-4.92,6.37,6.37,0,0,1,2.59.51Z" transform="translate(0 -2.08)"/></g><g class="cls-5"><path class="cls-6" d="M51.38,176.09a4.92,4.92,0,0,1-2.32.58,4.92,4.92,0,1,1,2.32-9.24v1.85a3.49,3.49,0,0,0-2.32-.84,3.32,3.32,0,0,0,0,6.64,3.57,3.57,0,0,0,2.32-.83Z" transform="translate(0 -2.08)"/><path class="cls-6" d="M53.17,167h3c1.68,0,2.92,1,2.92,2.51a2.2,2.2,0,0,1-1.25,2.12,2.35,2.35,0,0,1,1.53,2.29c0,1.6-1.31,2.61-3.09,2.61H53.17Zm3,1.53H54.77v2.34h1.45a1.13,1.13,0,0,0,1.28-1.16A1.15,1.15,0,0,0,56.22,168.52Zm.11,3.88H54.77V175h1.56a1.3,1.3,0,1,0,0-2.59Z" transform="translate(0 -2.08)"/><path class="cls-6" d="M67.75,176.09a5,5,0,0,1-2.33.58,4.92,4.92,0,1,1,2.33-9.24v1.85a3.52,3.52,0,0,0-2.33-.84,3.32,3.32,0,0,0,0,6.64,3.58,3.58,0,0,0,2.33-.83Z" transform="translate(0 -2.08)"/></g><g class="cls-5"><path class="cls-6" d="M50.58,203.43a4.93,4.93,0,0,1-2.33.58,4.92,4.92,0,1,1,2.33-9.24v1.85a3.5,3.5,0,0,0-2.33-.84,3.32,3.32,0,0,0,0,6.64,3.58,3.58,0,0,0,2.33-.83Z" transform="translate(0 -2.08)"/><path class="cls-6" d="M52.37,194.33h3.05c1.68,0,2.92,1,2.92,2.51A2.2,2.2,0,0,1,57.09,199a2.35,2.35,0,0,1,1.53,2.29c0,1.6-1.31,2.61-3.09,2.61H52.37Zm3.05,1.53H54v2.34h1.45A1.13,1.13,0,0,0,56.7,197,1.15,1.15,0,0,0,55.42,195.86Zm.11,3.88H54v2.59h1.56a1.3,1.3,0,1,0,0-2.59Z" transform="translate(0 -2.08)"/><path class="cls-6" d="M62,197.7v6.16H60.38v-8.39l-.65-1v-.13h1.91l4.82,6.77v-6.77h1.59v9.53H66.46Z" transform="translate(0 -2.08)"/></g><g class="cls-5"><path class="cls-6" d="M41.52,223.21H39.1v-1.53h6.44v1.53H43.12v8h-1.6Z" transform="translate(0 -2.08)"/><path class="cls-6" d="M53.44,227.18H48.55v4H47v-9.53h1.6v4h4.89v-4H55v9.53H53.44Z" transform="translate(0 -2.08)"/><path class="cls-6" d="M63.94,230.78a5,5,0,0,1-2.33.58,4.92,4.92,0,1,1,2.33-9.24V224a3.52,3.52,0,0,0-2.33-.84,3.32,3.32,0,0,0,0,6.64,3.58,3.58,0,0,0,2.33-.83Z" transform="translate(0 -2.08)"/><path class="cls-6" d="M70.89,228.86H67.27l-.86,2.35H64.63l3.56-9.53H70l3.56,9.53H71.75Zm-3.11-1.53h2.6l-1.29-3.56Z" transform="translate(0 -2.08)"/></g><g class="cls-5"><path class="cls-6" d="M46.51,258.12a4.92,4.92,0,1,1,0-8.65v1.85a3.49,3.49,0,0,0-2.32-.84,3.32,3.32,0,0,0,0,6.64,3.57,3.57,0,0,0,2.32-.83Z" transform="translate(0 -2.08)"/><path class="cls-6" d="M48.3,249h3.05c1.68,0,2.92,1,2.92,2.51A2.2,2.2,0,0,1,53,253.66,2.35,2.35,0,0,1,54.55,256c0,1.6-1.31,2.61-3.09,2.61H48.3Zm3.05,1.53H49.9v2.34h1.45a1.13,1.13,0,0,0,1.28-1.16A1.15,1.15,0,0,0,51.35,250.56Zm.11,3.88H49.9V257h1.56a1.3,1.3,0,1,0,0-2.59Z" transform="translate(0 -2.08)"/><path class="cls-6" d="M56.26,249H59.7a4.77,4.77,0,0,1,0,9.53H56.26Zm1.6,1.53V257h1.82a3.24,3.24,0,0,0,0-6.47Z" transform="translate(0 -2.08)"/></g><g class="cls-5"><path class="cls-6" d="M71,256.21H67.34l-.86,2.35H64.71L68.26,249H70l3.56,9.53H71.82Zm-3.11-1.53h2.59l-1.29-3.56Z" transform="translate(0 -2.08)"/></g><g class="cls-5"><path class="cls-6" d="M46.22,285.48a4.92,4.92,0,0,1-2.32.58,4.92,4.92,0,0,1,0-9.83,4.93,4.93,0,0,1,2.32.59v1.85a3.49,3.49,0,0,0-2.32-.84,3.32,3.32,0,0,0,0,6.64,3.57,3.57,0,0,0,2.32-.83Z" transform="translate(0 -2.08)"/><path class="cls-6" d="M48,276.38h3.05c1.68,0,2.92,1,2.92,2.51A2.2,2.2,0,0,1,52.73,281a2.35,2.35,0,0,1,1.53,2.29c0,1.6-1.31,2.61-3.09,2.61H48Zm3.05,1.53H49.61v2.34h1.45a1.13,1.13,0,0,0,1.28-1.16A1.15,1.15,0,0,0,51.06,277.91Zm.11,3.88H49.61v2.59h1.56a1.3,1.3,0,1,0,0-2.59Z" transform="translate(0 -2.08)"/><path class="cls-6" d="M62.91,278.49a5.27,5.27,0,0,0-2.59-.66,3.32,3.32,0,0,0-.17,6.64A2.68,2.68,0,0,0,63,281.85c0-.09,0-.25,0-.34H60.08v-1.44h4.57a8.26,8.26,0,0,1,.11,1.32,4.44,4.44,0,0,1-4.65,4.67,4.72,4.72,0,0,1-4.75-4.91,4.8,4.8,0,0,1,5-4.92,6.37,6.37,0,0,1,2.59.51Z" transform="translate(0 -2.08)"/></g><g class="cls-5"><path class="cls-6" d="M71.26,283.56H67.63l-.86,2.35H65l3.55-9.53h1.78l3.56,9.53H72.11ZM68.15,282h2.59l-1.29-3.56Z" transform="translate(0 -2.08)"/></g><g class="cls-5"><path class="cls-6" d="M33.39,303.74h3.43a4.77,4.77,0,0,1,0,9.53H33.39Zm1.6,1.53v6.47h1.82a3.24,3.24,0,0,0,0-6.47Z" transform="translate(0 -2.08)"/><path class="cls-6" d="M45.72,303.59a2.65,2.65,0,0,1,2.78,2.62,2.24,2.24,0,0,1-1.11,2,2.49,2.49,0,0,1,1.43,2.32,3.09,3.09,0,0,1-6.18,0,2.5,2.5,0,0,1,1.42-2.33,2.22,2.22,0,0,1-1.1-2A2.64,2.64,0,0,1,45.72,303.59Zm0,8.41a1.52,1.52,0,1,0-1.55-1.52A1.52,1.52,0,0,0,45.72,312Zm0-4.57a1.21,1.21,0,1,0,0-2.41,1.21,1.21,0,1,0,0,2.41Z" transform="translate(0 -2.08)"/><path class="cls-6" d="M50.2,310v-1.44h3.66V310Z" transform="translate(0 -2.08)"/></g><g class="cls-5"><path class="cls-6" d="M56.71,305.27H54.29v-1.53h6.44v1.53H58.31v8h-1.6Z" transform="translate(0 -2.08)"/><path class="cls-6" d="M68.63,309.24H63.74v4h-1.6v-9.53h1.6v4h4.89v-4h1.59v9.53H68.63Z" transform="translate(0 -2.08)"/><path class="cls-6" d="M79.13,312.83a4.92,4.92,0,1,1,0-8.65V306a3.52,3.52,0,0,0-2.33-.84,3.32,3.32,0,0,0,0,6.64,3.58,3.58,0,0,0,2.33-.83Z" transform="translate(0 -2.08)"/></g><g class="cls-5"><path class="cls-6" d="M31.87,337.68a2,2,0,0,0,2.1,1.68,4.39,4.39,0,0,0,2.41-.75v1.52a5.18,5.18,0,0,1-2.52.63,3.59,3.59,0,0,1-.09-7.18,3.2,3.2,0,0,1,3.28,3.32,3,3,0,0,1-.1.78Zm0-1.19h3.71a1.68,1.68,0,0,0-1.8-1.62A1.86,1.86,0,0,0,31.85,336.49Z" transform="translate(0 -2.08)"/><path class="cls-6" d="M39,340.61H37.21l2.33-3.45-2.33-3.44H39L40.46,336l1.46-2.28h1.81l-2.31,3.44,2.31,3.45H41.92l-1.46-2.3Z" transform="translate(0 -2.08)"/></g><g class="cls-5"><path class="cls-6" d="M47.76,333.58a3.59,3.59,0,1,1-3.59,3.58A3.52,3.52,0,0,1,47.76,333.58Zm0,5.67a2.09,2.09,0,1,0-2-2.09A2,2,0,0,0,47.76,339.25Z" transform="translate(0 -2.08)"/><path class="cls-6" d="M52.59,337.33v-1.44h3.65v1.44Z" transform="translate(0 -2.08)"/></g><g class="cls-5"><path class="cls-6" d="M59.1,332.61H56.68v-1.53h6.44v1.53H60.7v8H59.1Z" transform="translate(0 -2.08)"/><path class="cls-6" d="M71,336.58H66.13v4h-1.6v-9.53h1.6v4H71v-4h1.59v9.53H71Z" transform="translate(0 -2.08)"/><path class="cls-6" d="M81.52,340.18a5,5,0,0,1-2.33.58,4.92,4.92,0,0,1,0-9.83,5,5,0,0,1,2.33.59v1.85a3.52,3.52,0,0,0-2.33-.84,3.32,3.32,0,0,0,0,6.64,3.58,3.58,0,0,0,2.33-.83Z" transform="translate(0 -2.08)"/></g><g class="cls-5"><path class="cls-6" d="M44.48,385H42.06v-1.53H48.5V385H46.08v8h-1.6Z" transform="translate(0 -2.08)"/><path class="cls-6" d="M51.07,385.93a3.59,3.59,0,1,1-3.58,3.58A3.53,3.53,0,0,1,51.07,385.93Zm0,5.67a2.09,2.09,0,0,0,0-4.17,2.09,2.09,0,0,0,0,4.17Z" transform="translate(0 -2.08)"/></g><g class="cls-5"><path class="cls-6" d="M57.24,393v-5.58H56.08v-1.31h1.24v-1.61l1.46-.34v1.95H60v1.31H58.78V393Z" transform="translate(0 -2.08)"/><path class="cls-6" d="M61.3,386.36a4.78,4.78,0,0,1,2-.43,2.5,2.5,0,0,1,2.82,2.77V393H64.55v-.63a2.08,2.08,0,0,1-1.68.78,2.2,2.2,0,0,1-2.34-2.27,2.24,2.24,0,0,1,2.37-2.25,2.35,2.35,0,0,1,1.65.66v-.58a1.29,1.29,0,0,0-1.44-1.37,3.43,3.43,0,0,0-1.81.55Zm2,5.59a1.18,1.18,0,0,0,1.24-1.11,1.19,1.19,0,0,0-1.24-1.12,1.12,1.12,0,1,0,0,2.23Z" transform="translate(0 -2.08)"/></g><g class="cls-5"><path class="cls-6" d="M69.33,393H67.79v-9.67h1.54Z" transform="translate(0 -2.08)"/></g><g class="cls-5"><path class="cls-6" d="M34.39,422l-2.64-6.6V422h-1.6v-9.53h1.93l3,7.5,3-7.5H40V422h-1.6v-6.6L35.79,422Z" transform="translate(0 -2.08)"/><path class="cls-6" d="M42.19,415.36a4.78,4.78,0,0,1,2-.43A2.5,2.5,0,0,1,47,417.7V422H45.44v-.63a2.08,2.08,0,0,1-1.68.78,2.2,2.2,0,0,1-2.34-2.27,2.24,2.24,0,0,1,2.37-2.25,2.35,2.35,0,0,1,1.65.66v-.58A1.29,1.29,0,0,0,44,416.3a3.41,3.41,0,0,0-1.81.55Zm2,5.59a1.18,1.18,0,0,0,1.24-1.11,1.25,1.25,0,0,0-2.48,0A1.18,1.18,0,0,0,44.18,421Z" transform="translate(0 -2.08)"/><path class="cls-6" d="M49.69,422h-1.8l2.32-3.45-2.32-3.44h1.8l1.45,2.28,1.45-2.28H54.4l-2.31,3.44L54.4,422H52.59l-1.45-2.3Z" transform="translate(0 -2.08)"/></g><g class="cls-5"><path class="cls-6" d="M60,414H57.53v-1.53H64V414H61.55v8H60Z" transform="translate(0 -2.08)"/><path class="cls-6" d="M71.87,417.93H67v4h-1.6v-9.53H67v4h4.89v-4h1.59V422H71.87Z" transform="translate(0 -2.08)"/><path class="cls-6" d="M82.37,421.53a5,5,0,0,1-2.33.58,4.92,4.92,0,1,1,2.33-9.24v1.85a3.54,3.54,0,0,0-2.33-.84,3.32,3.32,0,0,0,0,6.64,3.6,3.6,0,0,0,2.33-.83Z" transform="translate(0 -2.08)"/></g><g class="cls-5"><path class="cls-6" d="M34,451l-2.64-6.6V451h-1.6v-9.53h1.93l3,7.5,3-7.5h1.92V451H38v-6.6L35.39,451Z" transform="translate(0 -2.08)"/><path class="cls-6" d="M41.79,444.36a4.78,4.78,0,0,1,2-.43,2.5,2.5,0,0,1,2.82,2.77V451H45v-.63a2.08,2.08,0,0,1-1.68.78A2.2,2.2,0,0,1,41,448.84a2.24,2.24,0,0,1,2.37-2.25,2.35,2.35,0,0,1,1.65.66v-.58a1.29,1.29,0,0,0-1.44-1.37,3.41,3.41,0,0,0-1.81.55Zm2,5.59A1.18,1.18,0,0,0,45,448.84a1.25,1.25,0,0,0-2.48,0A1.18,1.18,0,0,0,43.78,450Z" transform="translate(0 -2.08)"/><path class="cls-6" d="M49.29,451h-1.8l2.32-3.45-2.32-3.44h1.8l1.45,2.28,1.45-2.28H54l-2.31,3.44L54,451H52.19l-1.45-2.3Z" transform="translate(0 -2.08)"/><path class="cls-6" d="M65,450.53a4.93,4.93,0,0,1-2.33.58A4.92,4.92,0,1,1,65,441.87v1.85a3.5,3.5,0,0,0-2.33-.84,3.32,3.32,0,0,0,0,6.64,3.58,3.58,0,0,0,2.33-.83Z" transform="translate(0 -2.08)"/><path class="cls-6" d="M66.78,441.43h3c1.68,0,2.92,1,2.92,2.51a2.22,2.22,0,0,1-1.25,2.12A2.35,2.35,0,0,1,73,448.35c0,1.6-1.31,2.61-3.09,2.61H66.78Zm3,1.53H68.38v2.34h1.45a1.13,1.13,0,0,0,1.28-1.16A1.15,1.15,0,0,0,69.83,443Zm.11,3.88H68.38v2.59h1.56a1.3,1.3,0,1,0,0-2.59Z" transform="translate(0 -2.08)"/><path class="cls-6" d="M74.74,441.43h3.44a4.77,4.77,0,0,1,0,9.53H74.74Zm1.6,1.53v6.47h1.82a3.24,3.24,0,0,0,0-6.47Z" transform="translate(0 -2.08)"/></g><g class="cls-5"><path class="cls-1" d="M50.13,2.23h2v9.53h-2Z" transform="translate(0 -2.08)"/><path class="cls-1" d="M54.22,2.23h3.53A4.48,4.48,0,0,1,62.46,7a4.47,4.47,0,0,1-4.71,4.76H54.22Zm2,1.92V9.84h1.52A2.58,2.58,0,0,0,60.4,7a2.59,2.59,0,0,0-2.67-2.85Z" transform="translate(0 -2.08)"/></g><path class="cls-4" d="M608.15,360.82V20.26M120.5,360.82V20.26m129,340.56V20.26m149,340.56V20.26" transform="translate(0 -2.08)"/><g class="cls-5"><path class="cls-6" d="M404.15,376.87v3.05a2.66,2.66,0,1,1-5.31,0v-3.05a2.66,2.66,0,1,1,5.31,0Zm-4.61,0v3a2,2,0,1,0,3.92,0v-3a2,2,0,1,0-3.92,0Z" transform="translate(0 -2.08)"/><path class="cls-6" d="M408.85,375.77v1.65a1.67,1.67,0,0,1-3.33,0v-1.65a1.67,1.67,0,0,1,3.33,0Zm-2.76,0v1.62a1.1,1.1,0,0,0,2.19,0v-1.62a1.1,1.1,0,0,0-2.19,0Zm5.25-1.47h.58l-3.64,8.16h-.56Zm2.77,5.05V381a1.67,1.67,0,0,1-3.33,0v-1.65a1.67,1.67,0,0,1,3.33,0Zm-2.77,0V381a1.11,1.11,0,0,0,2.21,0v-1.61a1.11,1.11,0,0,0-2.21,0Z" transform="translate(0 -2.08)"/></g><g class="cls-5"><path class="cls-6" d="M592.09,381.82h2.15V375h-2v-.65h2.67v7.51h1.81v.65h-4.65Z" transform="translate(0 -2.08)"/><path class="cls-6" d="M598.32,381.41a.58.58,0,0,1,.59.59.58.58,0,0,1-.59.59.57.57,0,0,1-.59-.59A.58.58,0,0,1,598.32,381.41Z" transform="translate(0 -2.08)"/><path class="cls-6" d="M601.26,382.47h-.81l3.07-7.51h-3.45v-.65h4.17v.6Z" transform="translate(0 -2.08)"/><path class="cls-6" d="M608.34,375.77v1.65a1.67,1.67,0,0,1-3.33,0v-1.65a1.67,1.67,0,0,1,3.33,0Zm-2.76,0v1.62a1.1,1.1,0,0,0,2.19,0v-1.62a1.1,1.1,0,0,0-2.19,0Zm5.25-1.47h.58l-3.64,8.16h-.56Zm2.77,5.05V381a1.67,1.67,0,0,1-3.33,0v-1.65a1.67,1.67,0,0,1,3.33,0Zm-2.77,0V381a1.11,1.11,0,0,0,2.21,0v-1.61a1.11,1.11,0,0,0-2.21,0Z" transform="translate(0 -2.08)"/></g><g class="cls-5"><path class="cls-6" d="M461.94,381.94a4.23,4.23,0,0,1-2.28.65,4.2,4.2,0,0,1,0-8.4,4.23,4.23,0,0,1,2.28.65v.84a3.51,3.51,0,0,0-2.28-.8,3.52,3.52,0,0,0,0,7,3.51,3.51,0,0,0,2.28-.8Z" transform="translate(0 -2.08)"/><path class="cls-6" d="M463.56,377a3.41,3.41,0,0,1,1.65-.43,1.93,1.93,0,0,1,2.12,2.11v3.78h-.68v-.73a2.06,2.06,0,0,1-3.72-1.09,2,2,0,0,1,2.08-1.93,2.08,2.08,0,0,1,1.64.81v-.84a1.39,1.39,0,0,0-1.49-1.47,2.91,2.91,0,0,0-1.6.5Zm1.56,5a1.38,1.38,0,1,0,0-2.75,1.44,1.44,0,0,0-1.5,1.37A1.46,1.46,0,0,0,465.12,382Z" transform="translate(0 -2.08)"/><path class="cls-6" d="M469.75,377.71a1.91,1.91,0,0,1,1.84-1.13,2.17,2.17,0,0,1,2.23,2.35v3.54h-.67v-3.42a1.65,1.65,0,0,0-1.7-1.8,1.63,1.63,0,0,0-1.7,1.73v3.49h-.68V376.7h.68Z" transform="translate(0 -2.08)"/><path class="cls-6" d="M476.25,377.71a1.88,1.88,0,0,1,1.83-1.13,2.17,2.17,0,0,1,2.23,2.35v3.54h-.67v-3.42a1.64,1.64,0,0,0-1.7-1.8,1.62,1.62,0,0,0-1.69,1.73v3.49h-.69V376.7h.69Z" transform="translate(0 -2.08)"/><path class="cls-6" d="M482.19,377a3.34,3.34,0,0,1,1.64-.43,1.93,1.93,0,0,1,2.12,2.11v3.78h-.68v-.73a1.91,1.91,0,0,1-1.64.85,2,2,0,0,1-2.08-1.94,2,2,0,0,1,2.09-1.93,2.06,2.06,0,0,1,1.63.81v-.84a1.39,1.39,0,0,0-1.49-1.47,2.88,2.88,0,0,0-1.59.5Zm1.56,5a1.38,1.38,0,1,0,0-2.75,1.38,1.38,0,1,0,0,2.75Z" transform="translate(0 -2.08)"/><path class="cls-6" d="M488.38,382.47h-.69v-8.28h.69v3.88a2.58,2.58,0,0,1,2.4-1.49,3,3,0,0,1,0,6,2.57,2.57,0,0,1-2.4-1.48Zm2.3-.55a2.34,2.34,0,1,0-2.3-2.34A2.28,2.28,0,0,0,490.68,381.92Z" transform="translate(0 -2.08)"/><path class="cls-6" d="M495.45,374.3a.5.5,0,0,1,.51.51.49.49,0,0,1-.51.5.5.5,0,0,1-.51-.5A.51.51,0,0,1,495.45,374.3Zm.34,8.17h-.68V376.7h.68Z" transform="translate(0 -2.08)"/><path class="cls-6" d="M498.28,377.71a1.88,1.88,0,0,1,1.83-1.13,2.17,2.17,0,0,1,2.23,2.35v3.54h-.67v-3.42a1.64,1.64,0,0,0-1.7-1.8,1.62,1.62,0,0,0-1.69,1.73v3.49h-.69V376.7h.69Z" transform="translate(0 -2.08)"/><path class="cls-6" d="M506.69,376.58a3,3,0,1,1-3,3A3,3,0,0,1,506.69,376.58Zm0,5.34a2.34,2.34,0,1,0-2.29-2.34A2.28,2.28,0,0,0,506.69,381.92Z" transform="translate(0 -2.08)"/><path class="cls-6" d="M511.43,374.3a.51.51,0,0,1,.52.51.51.51,0,1,1-.52-.51Zm.35,8.17h-.69V376.7h.69Z" transform="translate(0 -2.08)"/><path class="cls-6" d="M518.51,381.11a2.59,2.59,0,0,1-2.39,1.48,3,3,0,0,1,0-6,2.6,2.6,0,0,1,2.39,1.49v-3.88h.68v8.28h-.68Zm-2.31-3.86a2.34,2.34,0,1,0,2.31,2.33A2.29,2.29,0,0,0,516.2,377.25Z" transform="translate(0 -2.08)"/><path class="cls-6" d="M523.88,377.7a2.13,2.13,0,0,0-1.35-.49c-.72,0-1.13.37-1.13.88s.21.58.61.83l1.12.67a1.64,1.64,0,0,1,1,1.45c0,1-.78,1.55-1.92,1.55a3.16,3.16,0,0,1-1.48-.38v-.81a2.19,2.19,0,0,0,1.48.58c.77,0,1.21-.39,1.21-.93,0-.34-.18-.61-.7-.92l-1.15-.71a1.49,1.49,0,0,1-.86-1.33c0-.84.63-1.51,1.85-1.51a2.74,2.74,0,0,1,1.34.34Z" transform="translate(0 -2.08)"/><path class="cls-6" d="M530.28,384.63l-.41.31a8.94,8.94,0,0,1,0-10.76l.41.31a8.88,8.88,0,0,0,0,10.14Z" transform="translate(0 -2.08)"/></g><g class="cls-5"><path class="cls-6" d="M531.45,376.7l1.49,4.91,1.58-4.23-.29-.68H535l2.08,4.91,1.5-4.91h.73l-1.82,5.77h-.73l-1.83-4.29-1.61,4.29h-.74l-1.81-5.77Z" transform="translate(0 -2.08)"/><path class="cls-6" d="M540.93,382.47V377.3h-1.17v-.6H541v-1.5l.66-.19v1.69h1.21v.6h-1.21v5.17Z" transform="translate(0 -2.08)"/><path class="cls-6" d="M546.86,375.77v1.65a1.66,1.66,0,0,1-3.32,0v-1.65a1.66,1.66,0,0,1,3.32,0Zm-2.76,0v1.62a1.1,1.1,0,0,0,2.19,0v-1.62a1.1,1.1,0,0,0-2.19,0Zm5.25-1.47h.58l-3.64,8.16h-.56Zm2.77,5.05V381a1.67,1.67,0,0,1-3.33,0v-1.65a1.67,1.67,0,0,1,3.33,0Zm-2.77,0V381a1.11,1.11,0,0,0,2.21,0v-1.61a1.11,1.11,0,0,0-2.21,0Z" transform="translate(0 -2.08)"/><path class="cls-6" d="M552.91,374.49l.41-.31a9,9,0,0,1,0,10.76l-.41-.31a8.88,8.88,0,0,0,0-10.14Z" transform="translate(0 -2.08)"/></g><path class="cls-7" d="M187.69,495.64h2.41v-4.3h.6c1.41,0,2.39,1.78,2.8,4.3H196c-.27-2.48-1.14-4.53-2.58-5.27a2.86,2.86,0,0,0,2.09-2.93c0-2.14-1.57-3.36-3.83-3.36h-4v11.56Zm5.33-7.93a1.22,1.22,0,0,1-1.15,1.3H190.1v-2.6h1.58a1.23,1.23,0,0,1,1.34,1.11Zm4.73,2a4.31,4.31,0,0,1,2.18-.63,1.37,1.37,0,0,1,1.55,1.16,1.34,1.34,0,0,1,0,.28V491a3,3,0,0,0-1.85-.61,2.68,2.68,0,0,0-2.82,2.52v.2a2.61,2.61,0,0,0,2.46,2.75h.32a2.43,2.43,0,0,0,1.89-.81v.63h2.32v-5.09c0-2.46-1.33-3.55-3.61-3.55a7.08,7.08,0,0,0-2.45.49v2.18Zm1.35,3.38a1.11,1.11,0,0,1,1.17-1h0a1.06,1.06,0,1,1-1.19,1Zm9.45,2.57v-6.5H210v-2h-1.43v-2.35l-2.18.5v1.85H205v2h1.3v6.5Zm4.93-8.47h-2.31v8.47h2.31ZM211,484.7a1.36,1.36,0,1,0,1.36-1.37,1.34,1.34,0,0,0-1.36,1.32Zm4,6.7a4.41,4.41,0,1,0,4.42-4.4h0a4.36,4.36,0,0,0-4.41,4.31Zm2.35,0a2.08,2.08,0,0,1,2-2.14h0a2.15,2.15,0,0,1,0,4.3,2.09,2.09,0,0,1-2.06-2.12Zm11.07,0a4.41,4.41,0,1,0,4.42-4.4h0a4.35,4.35,0,0,0-4.4,4.3Zm2.35,0a2,2,0,1,1,2,2.16,2.08,2.08,0,0,1-2-2.16Zm12.41-3.89h-1.65v-.61a.83.83,0,0,1,.75-.9h.15a2.08,2.08,0,0,1,.78.15v-2.31a4.3,4.3,0,0,0-.87-.1,2.8,2.8,0,0,0-3.11,2.45,3.37,3.37,0,0,0,0,.55v.76H238v2h1.19v6.16h2.31V489.5h1.65v-2Zm6.41,8.13H252v-9.23h2.81v-2.33h-8v2.33h2.81v9.23Zm5-4.24A4.41,4.41,0,1,0,259,487h0a4.35,4.35,0,0,0-4.4,4.3Zm2.35,0a2,2,0,1,1,2,2.16,2.08,2.08,0,0,1-2-2.16Zm10.72,4.24v-6.5H269v-2h-1.43v-2.35l-2.17.5v1.85H264v2h1.29v6.5Zm2.88-5.95a4.38,4.38,0,0,1,2.17-.63c.89,0,1.57.42,1.57,1.44v.5a3,3,0,0,0-1.86-.61,2.68,2.68,0,0,0-2.82,2.52v.2a2.61,2.61,0,0,0,2.46,2.75h.33a2.43,2.43,0,0,0,1.89-.81v.63h2.31v-5.09c0-2.46-1.33-3.55-3.6-3.55a7.08,7.08,0,0,0-2.45.49v2.16Zm1.34,3.38A1.12,1.12,0,0,1,273,492a1.06,1.06,0,1,1,.29,2.1H273a1.11,1.11,0,0,1-1.19-1Zm8.89-9.16h-2.33v11.73h2.33V483.91Zm13.78,8.57a4.09,4.09,0,0,1-2.64.93,3.56,3.56,0,0,1,0-7.11,4,4,0,0,1,2.64,1v-2.78a6.2,6.2,0,0,0-2.64-.59,6,6,0,0,0,0,11.93,6.2,6.2,0,0,0,2.64-.59v-2.79Zm2,3.16h4.11c2.23,0,3.83-1.29,3.83-3.2a2.87,2.87,0,0,0-1.7-2.75,2.68,2.68,0,0,0,1.37-2.54c0-1.83-1.49-3.07-3.6-3.07h-4v11.56ZM302,492.1c0,.83-.58,1.21-1.35,1.21H299v-2.43h1.7a1.19,1.19,0,0,1,1.34,1A1.34,1.34,0,0,1,302,492.1Zm-.33-4.62a1,1,0,0,1-.92,1.08H299v-2.14h1.58a1,1,0,0,1,1.13.85A.81.81,0,0,1,301.68,487.48Zm4.71,8.16h4.29a5.78,5.78,0,0,0,0-11.56h-4.29Zm4.27-9.23a3.46,3.46,0,0,1,0,6.9h-1.85v-6.9Zm13.87,9.23v-6.5H326v-2h-1.43v-2.35l-2.17.5v1.85h-1.43v2h1.29v6.5Zm2-4.24A4.41,4.41,0,1,0,331,487h0a4.35,4.35,0,0,0-4.4,4.3Zm2.34,0a2.1,2.1,0,0,1,2-2.14h0a2.15,2.15,0,0,1,0,4.3,2.1,2.1,0,0,1-2.06-2.14Zm13.32,4.24h2.41v-9.23h2.81v-2.33h-8v2.33h2.81v9.23Zm14.53,0h2.42V484.08h-2.42v4.57h-5.28v-4.57H349v11.56h2.42V491h5.28v4.66Zm12.82-3.16a4,4,0,0,1-2.63.93,3.56,3.56,0,0,1,0-7.11,3.92,3.92,0,0,1,2.63,1v-2.78a6.13,6.13,0,0,0-2.63-.59,6,6,0,0,0,0,11.93,6.13,6.13,0,0,0,2.63-.59v-2.79Zm9.58-2.18h1.7a2,2,0,0,1,2.11,1.89v.11a2.08,2.08,0,0,1-2.13,2h-.12a3.76,3.76,0,0,1-2.41-.8v1.66a5.22,5.22,0,0,0,2.48.6,3.41,3.41,0,0,0,3.68-3.1c0-.07,0-.15,0-.22a3,3,0,0,0-1.87-2.91,2.72,2.72,0,0,0,1.55-2.61,3.12,3.12,0,0,0-3.17-3.07h-.25a4.61,4.61,0,0,0-2.3.54V486a3.78,3.78,0,0,1,2.25-.68,1.77,1.77,0,0,1,.37,3.52h-1.9v1.45Zm7,5.34h6.24v-1.4H388l3-3.77a5.12,5.12,0,0,0,1.4-3.4,3.05,3.05,0,0,0-2.94-3.17,3.09,3.09,0,0,0-.43,0,4.18,4.18,0,0,0-2.63.93v1.7a3.41,3.41,0,0,1,2.55-1.17,1.8,1.8,0,0,1,2,1.61,1.61,1.61,0,0,1,0,.31,4.22,4.22,0,0,1-1.17,2.55l-3.57,4.51v1.29Zm8.21-.9a1.05,1.05,0,0,0,1,1.07h.06a1.08,1.08,0,1,0-1.09-1.07Zm12-1.6v-1.4h-1.56v-7.66H403.3l-5.28,7.8v1.26h5.28v2.5h1.47v-2.5Zm-6.73-1.4,3.7-5.5v5.5Zm10.18,3.06a1,1,0,1,0,1-1A1,1,0,0,0,409.78,494.8Zm0-6.37a1,1,0,1,0,1-1A1,1,0,0,0,409.78,488.43Zm5.37,7.21H422v-1.4h-2.47V484.08H415.4v1.39H418v8.77h-2.91v1.4Z" transform="translate(0 -2.08)"/><polygon class="cls-1" points="398.99 271.23 403.17 271.23 403.17 286.7 398.99 286.7 398.99 271.23 398.99 271.23"/><polygon class="cls-1" points="398.99 79.2 607.24 79.2 607.24 94.67 398.99 94.67 398.99 79.2 398.99 79.2"/><polygon class="cls-1" points="398.99 24.83 405.95 24.83 405.95 40.3 398.99 40.3 398.99 24.83 398.99 24.83"/><polygon class="cls-1" points="398.99 243.58 436.34 243.58 436.34 259.05 398.99 259.05 398.99 243.58 398.99 243.58"/><polygon class="cls-1" points="398.99 161.23 401.9 161.23 401.9 176.7 398.99 176.7 398.99 161.23 398.99 161.23"/><polygon class="cls-1" points="398.99 134.08 403.04 134.08 403.04 149.55 398.99 149.55 398.99 134.08 398.99 134.08"/></svg>