<svg id="Layer_1" data-name="Layer 1" xmlns="http://www.w3.org/2000/svg" viewBox="0 0 749.18 600"><defs><style>.cls-1{fill:#dfdbed;}.cls-2{fill:#39325f;}.cls-3{fill:#ebe9f4;}.cls-4,.cls-6{fill:none;stroke:#fff;}.cls-5,.cls-7{fill:#231f20;}.cls-6{stroke-width:7px;}.cls-7{font-size:12px;font-family:NiveauGroteskLight, Niveau Grotesk;}</style></defs><title>Good-Night-Can2</title><polygon class="cls-1" points="0 0 0 600 749.18 600 749.18 0 0 0 0 0"/><polygon class="cls-2" points="70.93 526.86 70.93 551.38 679.58 551.38 679.58 526.86 70.93 526.86 70.93 526.86"/><polygon class="cls-3" points="70.93 178.82 70.93 207.62 678.58 207.62 678.58 178.82 70.93 178.82 70.93 178.82"/><polygon class="cls-3" points="70.93 69.22 70.93 98.02 678.58 98.02 678.58 69.22 70.93 69.22 70.93 69.22"/><polygon class="cls-3" points="70.93 124.02 70.93 152.82 678.58 152.82 678.58 124.02 70.93 124.02 70.93 124.02"/><polygon class="cls-3" points="70.93 233.62 70.93 262.42 678.58 262.42 678.58 233.62 70.93 233.62 70.93 233.62"/><polygon class="cls-3" points="70.93 288.42 70.93 317.22 678.58 317.22 678.58 288.42 70.93 288.42 70.93 288.42"/><polygon class="cls-3" points="70.93 343.22 70.93 372.02 678.58 372.02 678.58 343.22 70.93 343.22 70.93 343.22"/><line class="cls-4" x1="70.93" y1="69.12" x2="679.58" y2="69.12"/><path class="cls-5" d="M466.19,596.32h6V594.4h-1.87v-7.6h-3.79v1.92h1.81v5.68h-2.17v1.92Zm6.77-1.15a1.26,1.26,0,0,0,1.29,1.29,1.3,1.3,0,1,0-1.29-1.29Zm3.6,1.15h6V594.4h-1.86v-7.6h-3.8v1.92h1.81v5.68h-2.17v1.92Zm6.78,0h5.34V594.4h-2.75l1.79-2.27a4,4,0,0,0,1-2.7,2.71,2.71,0,0,0-3-2.77,4.08,4.08,0,0,0-2.17.63v2.24a2.83,2.83,0,0,1,2-.88,1.05,1.05,0,0,1,1.13,1.16,2.7,2.7,0,0,1-.71,1.53l-2.63,3.29v1.69Zm8.87-7,2.06,7h2l1.29-3.82,1.39,3.82h2l2.08-7h-2l-1.2,4.63-1.63-4.63h-1.89l.34.95L495.42,594l-1.23-4.63Zm14.15,7V591h1.18v-1.62h-1.18v-1.93l-1.79.4v1.53H503.4V591h1.06v5.35Zm4.78,0h1.41l4.25-9.52h-1.43l-4.23,9.52Zm-.7-8.33a.8.8,0,0,1,.87.84v1.62a.87.87,0,0,1-1.74,0v-1.62a.8.8,0,0,1,.87-.84Zm0-1.33a2.11,2.11,0,0,0-2.24,2.13v1.69a2.24,2.24,0,0,0,4.48,0v-1.69a2.11,2.11,0,0,0-2.24-2.13Zm7,5.18a.79.79,0,0,1,.87.83v1.62a.86.86,0,0,1-1.72,0v-1.62a.78.78,0,0,1,.85-.83Zm0-1.34a2.11,2.11,0,0,0-2.22,2.12v1.71a2.23,2.23,0,0,0,4.46,0v-1.71a2.11,2.11,0,0,0-2.24-2.12Z" transform="translate(-237 -96)"/><path class="cls-5" d="M467.66,559.6a1.42,1.42,0,0,1,1.46,1.56V564a1.47,1.47,0,1,1-2.93,0v-2.82a1.43,1.43,0,0,1,1.47-1.56Zm0-1.94a3.34,3.34,0,0,0-3.45,3.44V564a3.45,3.45,0,1,0,6.9,0V561.1a3.34,3.34,0,0,0-3.45-3.44Zm4.64,8.51a1.25,1.25,0,0,0,1.29,1.29,1.3,1.3,0,1,0-1.29-1.29Zm7.22-6.57a1.42,1.42,0,0,1,1.46,1.56V564a1.47,1.47,0,1,1-2.93,0v-2.82a1.43,1.43,0,0,1,1.47-1.56Zm0-1.94a3.35,3.35,0,0,0-3.46,3.44V564a3.45,3.45,0,1,0,6.9,0V561.1a3.34,3.34,0,0,0-3.44-3.44Zm11.56,7.82v-1.91h-1.14V557.8h-2l-4.05,6v1.69H488v1.84h2v-1.84ZM486,563.57l2-3v3Zm8.41-3.22,2.06,7h2l1.29-3.82,1.39,3.82h2l2.07-7h-2L502,565l-1.62-4.63h-1.89l.33.95L497.61,565l-1.23-4.63Zm14.16,7V562h1.17v-1.62h-1.17v-1.93l-1.79.4v1.53h-1.18V562h1.06v5.35Zm4.77,0h1.41L519,557.8h-1.43l-4.23,9.52Zm-.7-8.33a.8.8,0,0,1,.87.84v1.62a.87.87,0,0,1-1.74,0v-1.62a.8.8,0,0,1,.87-.84Zm0-1.33a2.11,2.11,0,0,0-2.24,2.13v1.69a2.24,2.24,0,0,0,4.48,0v-1.69a2.11,2.11,0,0,0-2.24-2.13Zm7,5.18a.79.79,0,0,1,.87.83v1.62a.86.86,0,0,1-1.72,0v-1.62a.78.78,0,0,1,.85-.83Zm0-1.34a2.11,2.11,0,0,0-2.22,2.12v1.71a2.23,2.23,0,0,0,4.46,0v-1.71a2.11,2.11,0,0,0-2.24-2.12Z" transform="translate(-237 -96)"/><path class="cls-5" d="M466.25,538.32h6V536.4h-1.86v-7.6h-3.8v1.92h1.81v5.68h-2.17v1.92Zm6.78-1.15a1.25,1.25,0,0,0,1.28,1.29,1.3,1.3,0,1,0-1.28-1.29Zm3.68,1.15h5.34V536.4H479.3l1.79-2.27a4,4,0,0,0,1-2.7,2.71,2.71,0,0,0-3-2.77,4.11,4.11,0,0,0-2.17.63v2.24a2.83,2.83,0,0,1,2-.88,1.05,1.05,0,0,1,1.13,1.16,2.7,2.7,0,0,1-.71,1.53l-2.63,3.29v1.69Zm6.56,0h5.35V536.4h-2.76l1.79-2.27a4,4,0,0,0,1-2.7,2.7,2.7,0,0,0-3-2.77,4.08,4.08,0,0,0-2.17.63v2.24a2.81,2.81,0,0,1,2-.88,1.05,1.05,0,0,1,1.13,1.16,2.77,2.77,0,0,1-.71,1.53l-2.64,3.29v1.69Zm8.88-7,2.06,7h2l1.29-3.82,1.38,3.82h2l2.07-7h-2L499.76,536l-1.62-4.63h-1.89l.34.95L495.35,536l-1.23-4.63Zm14.15,7V533h1.18v-1.62H506.3v-1.93l-1.79.4v1.53h-1.17V533h1.06v5.35Zm4.78,0h1.41l4.24-9.52h-1.42l-4.23,9.52Zm-.7-8.33a.81.81,0,0,1,.87.84v1.62a.87.87,0,0,1-1.74,0v-1.62a.8.8,0,0,1,.87-.84Zm0-1.33a2.11,2.11,0,0,0-2.24,2.13v1.69a2.24,2.24,0,0,0,4.48,0v-1.69a2.11,2.11,0,0,0-2.24-2.13Zm7,5.18a.79.79,0,0,1,.87.83v1.62a.87.87,0,0,1-1.73,0v-1.62a.79.79,0,0,1,.86-.83Zm0-1.34a2.11,2.11,0,0,0-2.23,2.12v1.71a2.24,2.24,0,0,0,4.47,0v-1.71a2.11,2.11,0,0,0-2.24-2.12Z" transform="translate(-237 -96)"/><path class="cls-5" d="M492.94,477.88a1.68,1.68,0,0,1,1.74,1.81v3.05a1.75,1.75,0,1,1-3.49,0v-3.05a1.68,1.68,0,0,1,1.75-1.81Zm0-1.57a3.24,3.24,0,0,0-3.35,3.34v3.13a3.34,3.34,0,1,0,6.68,0v-3.13a3.23,3.23,0,0,0-3.33-3.34Z" transform="translate(-237 -96)"/><path class="cls-5" d="M492.94,450.53a1.68,1.68,0,0,1,1.74,1.81v3.05a1.75,1.75,0,1,1-3.49,0v-3.05a1.68,1.68,0,0,1,1.75-1.81Zm0-1.57a3.24,3.24,0,0,0-3.35,3.34v3.13a3.34,3.34,0,1,0,6.68,0V452.3a3.23,3.23,0,0,0-3.33-3.34Z" transform="translate(-237 -96)"/><path class="cls-5" d="M492.94,423.18a1.68,1.68,0,0,1,1.74,1.81V428a1.75,1.75,0,1,1-3.49,0V425a1.68,1.68,0,0,1,1.75-1.81Zm0-1.57a3.24,3.24,0,0,0-3.35,3.34v3.13a3.34,3.34,0,1,0,6.68,0V425a3.23,3.23,0,0,0-3.33-3.34Z" transform="translate(-237 -96)"/><path class="cls-5" d="M492.94,395.83a1.68,1.68,0,0,1,1.74,1.81v3.05a1.75,1.75,0,1,1-3.49,0v-3.05a1.68,1.68,0,0,1,1.75-1.81Zm0-1.57a3.24,3.24,0,0,0-3.35,3.34v3.13a3.34,3.34,0,1,0,6.68,0V397.6a3.23,3.23,0,0,0-3.33-3.34Z" transform="translate(-237 -96)"/><path class="cls-5" d="M492.94,368.48a1.68,1.68,0,0,1,1.74,1.81v3a1.75,1.75,0,1,1-3.49,0v-3a1.68,1.68,0,0,1,1.75-1.81Zm0-1.57a3.24,3.24,0,0,0-3.35,3.34v3.13a3.34,3.34,0,1,0,6.68,0v-3.13a3.23,3.23,0,0,0-3.33-3.34Z" transform="translate(-237 -96)"/><path class="cls-5" d="M483.89,341.13a1.68,1.68,0,0,1,1.74,1.81V346a1.75,1.75,0,1,1-3.49,0v-3.05a1.68,1.68,0,0,1,1.75-1.81Zm0-1.57a3.24,3.24,0,0,0-3.35,3.34V346a3.34,3.34,0,1,0,6.68,0V342.9a3.23,3.23,0,0,0-3.33-3.34Zm4.69,8.71a1.09,1.09,0,1,0,2.18,0,1.09,1.09,0,1,0-2.18,0Zm6.89-7.14a1.67,1.67,0,0,1,1.73,1.81V346a1.74,1.74,0,1,1-3.48,0v-3.05a1.68,1.68,0,0,1,1.75-1.81Zm0-1.57a3.24,3.24,0,0,0-3.35,3.34V346a3.34,3.34,0,1,0,6.68,0V342.9a3.23,3.23,0,0,0-3.33-3.34Zm5.51,5.49h1.36a1.37,1.37,0,0,1,1.5,1.34,1.44,1.44,0,0,1-1.58,1.39,3.11,3.11,0,0,1-2-.69v1.82a5.31,5.31,0,0,0,2.09.46,2.88,2.88,0,0,0,3.13-2.75,2.43,2.43,0,0,0-1.48-2.34,2.26,2.26,0,0,0,1.21-2.14,2.65,2.65,0,0,0-2.93-2.58,4.48,4.48,0,0,0-1.91.43v1.74a3.07,3.07,0,0,1,1.85-.58,1.2,1.2,0,0,1,1.34,1.19,1.16,1.16,0,0,1-1.23,1.17H501v1.54Z" transform="translate(-237 -96)"/><path class="cls-5" d="M483.88,313.78a1.68,1.68,0,0,1,1.73,1.81v3.05a1.75,1.75,0,1,1-3.49,0v-3.05a1.69,1.69,0,0,1,1.76-1.81Zm0-1.57a3.24,3.24,0,0,0-3.35,3.34v3.13a3.34,3.34,0,1,0,6.68,0v-3.13a3.24,3.24,0,0,0-3.33-3.34Zm4.69,8.71a1.09,1.09,0,1,0,2.18,0,1.09,1.09,0,1,0-2.18,0Zm6.88-7.14a1.68,1.68,0,0,1,1.74,1.81v3.05a1.75,1.75,0,1,1-3.49,0v-3.05a1.68,1.68,0,0,1,1.75-1.81Zm0-1.57a3.24,3.24,0,0,0-3.34,3.34v3.13a3.34,3.34,0,1,0,6.67,0v-3.13a3.23,3.23,0,0,0-3.33-3.34Zm4.6,9.66h5.82v-1.53h-1.95v-8h-3.57v1.52h2v6.47h-2.28v1.53Z" transform="translate(-237 -96)"/><path class="cls-5" d="M483.9,286.43a1.68,1.68,0,0,1,1.73,1.81v3.05a1.74,1.74,0,1,1-3.48,0v-3.05a1.68,1.68,0,0,1,1.75-1.81Zm0-1.57a3.24,3.24,0,0,0-3.35,3.34v3.13a3.34,3.34,0,1,0,6.68,0V288.2a3.24,3.24,0,0,0-3.33-3.34Zm4.69,8.71a1.09,1.09,0,1,0,2.18,0,1.09,1.09,0,1,0-2.18,0Zm6.88-7.14a1.68,1.68,0,0,1,1.74,1.81v3.05a1.75,1.75,0,1,1-3.49,0v-3.05a1.68,1.68,0,0,1,1.75-1.81Zm0-1.57a3.24,3.24,0,0,0-3.34,3.34v3.13a3.34,3.34,0,0,0,6.68,0V288.2a3.24,3.24,0,0,0-3.34-3.34Zm4.68,9.66h5.24V293h-3.2l2.13-2.69a4.14,4.14,0,0,0,1.09-2.76,2.63,2.63,0,0,0-2.91-2.68,3.8,3.8,0,0,0-2.17.71v1.81a2.9,2.9,0,0,1,2.06-.93,1.3,1.3,0,0,1,1.39,1.37,3,3,0,0,1-.86,1.82l-2.77,3.51v1.37Z" transform="translate(-237 -96)"/><path class="cls-5" d="M492.94,259.08a1.68,1.68,0,0,1,1.74,1.81v3.05a1.75,1.75,0,1,1-3.49,0v-3.05a1.68,1.68,0,0,1,1.75-1.81Zm0-1.57a3.24,3.24,0,0,0-3.35,3.34V264a3.34,3.34,0,1,0,6.68,0v-3.13a3.23,3.23,0,0,0-3.33-3.34Z" transform="translate(-237 -96)"/><path class="cls-5" d="M481.87,239.82h5.82v-1.53h-1.95v-8h-3.56v1.52h2v6.47h-2.28v1.53Zm6.72-.95a1.09,1.09,0,1,0,2.18,0,1.09,1.09,0,1,0-2.18,0Zm3.33.95h5.82v-1.53H495.8v-8h-3.57v1.52h2v6.47h-2.28v1.53Zm6.63,0h5.24v-1.53H500.6l2.13-2.69a4.19,4.19,0,0,0,1.09-2.76,2.63,2.63,0,0,0-2.91-2.68,3.77,3.77,0,0,0-2.17.71v1.81a2.88,2.88,0,0,1,2.05-.93,1.3,1.3,0,0,1,1.39,1.37,3,3,0,0,1-.85,1.82l-2.78,3.51v1.37Z" transform="translate(-237 -96)"/><path class="cls-5" d="M492.94,204.38a1.68,1.68,0,0,1,1.74,1.81v3.05a1.75,1.75,0,1,1-3.49,0v-3.05a1.68,1.68,0,0,1,1.75-1.81Zm0-1.57a3.24,3.24,0,0,0-3.35,3.34v3.13a3.34,3.34,0,1,0,6.68,0v-3.13a3.23,3.23,0,0,0-3.33-3.34Z" transform="translate(-237 -96)"/><path class="cls-5" d="M483.27,177a1.68,1.68,0,0,1,1.74,1.81v3a1.75,1.75,0,1,1-3.49,0v-3a1.68,1.68,0,0,1,1.75-1.81Zm0-1.57a3.24,3.24,0,0,0-3.34,3.34v3.13a3.34,3.34,0,1,0,6.67,0V178.8a3.23,3.23,0,0,0-3.33-3.34Zm4.69,8.71a1.1,1.1,0,0,0,2.19,0,1.1,1.1,0,1,0-2.19,0Zm6.89-7.14a1.68,1.68,0,0,1,1.74,1.81v3a1.75,1.75,0,1,1-3.49,0v-3a1.68,1.68,0,0,1,1.75-1.81Zm0-1.57a3.24,3.24,0,0,0-3.34,3.34v3.13a3.34,3.34,0,1,0,6.67,0V178.8a3.23,3.23,0,0,0-3.33-3.34Zm11.4,7.71v-1.52H505V175.6h-1.6l-4.2,6.2v1.37h4.2v2H505v-2Zm-5.32-1.52,2.5-3.77v3.77Z" transform="translate(-237 -96)"/><path class="cls-2" d="M461.81,157.12H464l2-5.67,1.68,5.67h2.23l2.55-9.52h-2.22l-1.59,7-2-7h-2l.32,1.16-1.94,5.87-1.61-7h-2.22l2.55,9.52Zm17.23,0V155.2h-3.43v-1.92h3.15v-1.91h-3.15v-1.85H479V147.6h-5.41v9.52Zm1.84,0h2V147.6h-2v9.52Zm11-9.21a6.76,6.76,0,0,0-2.57-.45,4.79,4.79,0,0,0-4.93,4.9,4.71,4.71,0,0,0,4.75,4.91,4.43,4.43,0,0,0,4.64-4.7,8.18,8.18,0,0,0-.12-1.39h-4.51V153h2.46s0,.15,0,.21a2.24,2.24,0,0,1-2.44,2.09,2.92,2.92,0,0,1,.13-5.84,5.51,5.51,0,0,1,2.57.61v-2.15Zm9.57,9.21h2V147.6h-2v3.77h-4.36V147.6h-2v9.52h2v-3.84h4.36v3.84Zm5.61,0h2v-7.6h2.31V147.6h-6.61v1.92h2.31v7.6Zm10.65,0h1.42l4.24-9.52h-1.43l-4.23,9.52Zm-.7-8.33a.8.8,0,0,1,.87.84v1.62a.87.87,0,0,1-1.74,0v-1.62a.81.81,0,0,1,.87-.84Zm0-1.33a2.11,2.11,0,0,0-2.24,2.13v1.69a2.24,2.24,0,0,0,4.48,0v-1.69a2.11,2.11,0,0,0-2.24-2.13Zm7,5.18a.79.79,0,0,1,.87.82v1.63a.86.86,0,0,1-1.72,0v-1.63a.78.78,0,0,1,.85-.82Zm0-1.34a2.11,2.11,0,0,0-2.22,2.12v1.71a2.23,2.23,0,0,0,4.46,0v-1.71A2.11,2.11,0,0,0,524,151.3Z" transform="translate(-237 -96)"/><path class="cls-5" d="M581,596.32h6V594.4h-1.86v-7.6h-3.79v1.92h1.8v5.68H581v1.92Zm10.36-7.72a1.42,1.42,0,0,1,1.46,1.55V593a1.47,1.47,0,1,1-2.93,0v-2.83a1.42,1.42,0,0,1,1.47-1.55Zm0-1.94a3.34,3.34,0,0,0-3.45,3.44V593a3.45,3.45,0,1,0,6.9,0V590.1a3.34,3.34,0,0,0-3.45-3.44Zm4.64,8.51a1.25,1.25,0,0,0,1.29,1.29,1.3,1.3,0,1,0-1.29-1.29Zm9.28-6.45V586.8h-4.62l-.45,5.16h1.28c1,0,1.91.21,1.91,1.21a1.35,1.35,0,0,1-1.45,1.32,3.19,3.19,0,0,1-2.2-1v2.39a5.14,5.14,0,0,0,2.31.56,3.1,3.1,0,0,0,3.39-3.3,3,3,0,0,0-3.18-3l.18-1.4Zm1.22,7.6h6V594.4h-1.87v-7.6h-3.79v1.92h1.81v5.68h-2.17v1.92Zm14.95-7h-1.9v7h1.9v-4.1a1.14,1.14,0,1,1,2.28.09v4h1.9v-4a1.13,1.13,0,0,1,1.17-1.24,1.1,1.1,0,0,1,1.12,1.24v4h1.9v-4.55a2.41,2.41,0,0,0-2.39-2.56,2.14,2.14,0,0,0-2.06,1.26,2.25,2.25,0,0,0-2.14-1.26,2,2,0,0,0-1.78,1v-.82Zm15,0v.92a2.67,2.67,0,0,0-2.21-1.06,3.54,3.54,0,0,0,0,7,2.74,2.74,0,0,0,2.2-1v.49a1.78,1.78,0,0,1-2,1.81,4.64,4.64,0,0,1-2.35-.7v2a5.28,5.28,0,0,0,2.33.52c2.43,0,3.88-1.29,3.88-3.85v-6.13Zm-.11,3.39a1.66,1.66,0,1,1-1.67-1.67,1.63,1.63,0,0,1,1.67,1.67Zm3.15,3.58h1.41l4.24-9.52h-1.43l-4.22,9.52Zm8.45-7H646v7h1.9v-4.1a1.15,1.15,0,1,1,2.29.09v4h1.9v-4a1.12,1.12,0,0,1,1.16-1.24,1.1,1.1,0,0,1,1.12,1.24v4h1.9v-4.55a2.41,2.41,0,0,0-2.39-2.56,2.15,2.15,0,0,0-2.06,1.26,2.25,2.25,0,0,0-2.14-1.26,2,2,0,0,0-1.78,1v-.82Zm15.57,7V594.4H660v-7.6h-2v9.52Z" transform="translate(-237 -96)"/><path class="cls-5" d="M588.08,559.6a1.42,1.42,0,0,1,1.46,1.56V564a1.47,1.47,0,1,1-2.93,0v-2.82a1.43,1.43,0,0,1,1.47-1.56Zm0-1.94a3.35,3.35,0,0,0-3.46,3.44V564a3.45,3.45,0,1,0,6.9,0V561.1a3.34,3.34,0,0,0-3.44-3.44Zm4.64,8.51a1.25,1.25,0,0,0,1.28,1.29,1.3,1.3,0,1,0-1.28-1.29Zm4.49-2.8h1.34c.73,0,1.24.39,1.24,1a1.16,1.16,0,0,1-1.29,1.08,3,3,0,0,1-2-.69V567a5.77,5.77,0,0,0,2.1.43,3,3,0,0,0,3.23-2.78,2.4,2.4,0,0,0-1.4-2.28,2.28,2.28,0,0,0,1.14-2.11,2.74,2.74,0,0,0-3.05-2.64,4.77,4.77,0,0,0-1.91.41v2.13a3.24,3.24,0,0,1,1.82-.55c.67,0,1.09.37,1.09.91a.9.9,0,0,1-1,.89h-1.33v1.92Zm11.31-3.65V557.8H603.9l-.45,5.16h1.28c1,0,1.92.21,1.92,1.21a1.36,1.36,0,0,1-1.46,1.32,3.19,3.19,0,0,1-2.2-1v2.39a5.14,5.14,0,0,0,2.31.56,3.1,3.1,0,0,0,3.39-3.3,3,3,0,0,0-3.18-3l.18-1.4Zm9.48.63h-1.9v7H618v-4.1a1.14,1.14,0,1,1,2.28.09v4h1.9v-4a1.13,1.13,0,0,1,1.17-1.24,1.1,1.1,0,0,1,1.12,1.24v4h1.9v-4.55a2.41,2.41,0,0,0-2.39-2.56,2.14,2.14,0,0,0-2.06,1.26,2.25,2.25,0,0,0-2.14-1.26,2,2,0,0,0-1.78,1v-.82Zm15,0v.92a2.67,2.67,0,0,0-2.21-1.06,3.54,3.54,0,0,0,0,7,2.74,2.74,0,0,0,2.2-1v.49a1.78,1.78,0,0,1-2,1.81,4.64,4.64,0,0,1-2.35-.7v2a5.28,5.28,0,0,0,2.33.52c2.43,0,3.88-1.29,3.88-3.85v-6.13Zm-.11,3.39a1.66,1.66,0,1,1-1.67-1.67,1.63,1.63,0,0,1,1.67,1.67Zm3.15,3.58h1.41l4.24-9.52h-1.43L636,567.32Zm8.45-7h-1.9v7h1.9v-4.1a1.15,1.15,0,1,1,2.29.09v4h1.9v-4a1.12,1.12,0,0,1,1.16-1.24,1.1,1.1,0,0,1,1.12,1.24v4h1.9v-4.55a2.41,2.41,0,0,0-2.39-2.56,2.15,2.15,0,0,0-2.06,1.26,2.25,2.25,0,0,0-2.14-1.26,2,2,0,0,0-1.78,1v-.82Zm15.57,7V565.4h-3.43v-7.6h-2v9.52Z" transform="translate(-237 -96)"/><path class="cls-5" d="M581.33,538.32h6V536.4h-1.86v-7.6H581.7v1.92h1.8v5.68h-2.17v1.92Zm6.7,0h6V536.4h-1.86v-7.6h-3.79v1.92h1.81v5.68H588v1.92Zm6.77-1.15a1.3,1.3,0,0,0,2.6,0,1.3,1.3,0,1,0-2.6,0Zm10.57-.69v-1.91h-1.15V528.8h-2l-4,6v1.69h4v1.84h2v-1.84Zm-5.09-1.91,2-3v3Zm6.91-.2h1.35c.72,0,1.23.39,1.23,1a1.16,1.16,0,0,1-1.29,1.08,3,3,0,0,1-2-.69V538a5.81,5.81,0,0,0,2.1.43,3,3,0,0,0,3.23-2.78,2.41,2.41,0,0,0-1.39-2.28,2.27,2.27,0,0,0,1.13-2.11,2.74,2.74,0,0,0-3-2.64,4.77,4.77,0,0,0-1.91.41v2.13a3.24,3.24,0,0,1,1.82-.55c.68,0,1.1.37,1.1.91a.91.91,0,0,1-1,.89h-1.33v1.92Zm13.89-3h-1.9v7h1.9v-4.1a1.14,1.14,0,1,1,2.28.09v4h1.9v-4a1.13,1.13,0,0,1,1.17-1.24,1.1,1.1,0,0,1,1.12,1.24v4h1.9v-4.55a2.41,2.41,0,0,0-2.39-2.56,2.14,2.14,0,0,0-2.06,1.26,2.25,2.25,0,0,0-2.14-1.26,2,2,0,0,0-1.78,1v-.82Zm15,0v.92a2.67,2.67,0,0,0-2.21-1.06,3.54,3.54,0,0,0,0,7,2.74,2.74,0,0,0,2.2-1v.49a1.78,1.78,0,0,1-2,1.81,4.64,4.64,0,0,1-2.35-.7v2a5.28,5.28,0,0,0,2.33.52c2.43,0,3.88-1.29,3.88-3.85v-6.13Zm-.11,3.39a1.66,1.66,0,1,1-1.67-1.67,1.63,1.63,0,0,1,1.67,1.67Zm3.15,3.58h1.41l4.24-9.52h-1.43l-4.22,9.52Zm8.45-7h-1.9v7h1.9v-4.1a1.15,1.15,0,1,1,2.29.09v4h1.9v-4a1.12,1.12,0,0,1,1.16-1.24,1.1,1.1,0,0,1,1.12,1.24v4h1.9v-4.55a2.41,2.41,0,0,0-2.39-2.56,2.15,2.15,0,0,0-2.06,1.26,2.25,2.25,0,0,0-2.14-1.26,2,2,0,0,0-1.78,1v-.82Zm15.57,7V536.4h-3.43v-7.6h-2v9.52Z" transform="translate(-237 -96)"/><path class="cls-5" d="M621.94,477.88a1.68,1.68,0,0,1,1.74,1.81v3.05a1.75,1.75,0,1,1-3.49,0v-3.05a1.68,1.68,0,0,1,1.75-1.81Zm0-1.57a3.24,3.24,0,0,0-3.35,3.34v3.13a3.34,3.34,0,1,0,6.68,0v-3.13a3.23,3.23,0,0,0-3.33-3.34Z" transform="translate(-237 -96)"/><path class="cls-5" d="M621.94,450.53a1.68,1.68,0,0,1,1.74,1.81v3.05a1.75,1.75,0,1,1-3.49,0v-3.05a1.68,1.68,0,0,1,1.75-1.81Zm0-1.57a3.24,3.24,0,0,0-3.35,3.34v3.13a3.34,3.34,0,1,0,6.68,0V452.3a3.23,3.23,0,0,0-3.33-3.34Z" transform="translate(-237 -96)"/><path class="cls-5" d="M621.94,423.18a1.68,1.68,0,0,1,1.74,1.81V428a1.75,1.75,0,1,1-3.49,0V425a1.68,1.68,0,0,1,1.75-1.81Zm0-1.57a3.24,3.24,0,0,0-3.35,3.34v3.13a3.34,3.34,0,1,0,6.68,0V425a3.23,3.23,0,0,0-3.33-3.34Z" transform="translate(-237 -96)"/><path class="cls-5" d="M621.94,395.83a1.68,1.68,0,0,1,1.74,1.81v3.05a1.75,1.75,0,1,1-3.49,0v-3.05a1.68,1.68,0,0,1,1.75-1.81Zm0-1.57a3.24,3.24,0,0,0-3.35,3.34v3.13a3.34,3.34,0,1,0,6.68,0V397.6a3.23,3.23,0,0,0-3.33-3.34Z" transform="translate(-237 -96)"/><path class="cls-5" d="M621.94,368.48a1.68,1.68,0,0,1,1.74,1.81v3a1.75,1.75,0,1,1-3.49,0v-3a1.68,1.68,0,0,1,1.75-1.81Zm0-1.57a3.24,3.24,0,0,0-3.35,3.34v3.13a3.34,3.34,0,1,0,6.68,0v-3.13a3.23,3.23,0,0,0-3.33-3.34Z" transform="translate(-237 -96)"/><path class="cls-5" d="M613.69,341.13a1.67,1.67,0,0,1,1.73,1.81V346a1.74,1.74,0,1,1-3.48,0v-3.05a1.68,1.68,0,0,1,1.75-1.81Zm0-1.57a3.24,3.24,0,0,0-3.35,3.34V346a3.34,3.34,0,1,0,6.68,0V342.9a3.23,3.23,0,0,0-3.33-3.34Zm4.69,8.71a1.09,1.09,0,1,0,2.18,0,1.09,1.09,0,1,0-2.18,0Zm4.25-3.22H624a1.37,1.37,0,0,1,1.5,1.34,1.44,1.44,0,0,1-1.58,1.39,3.11,3.11,0,0,1-2-.69v1.82a5.31,5.31,0,0,0,2.09.46,2.88,2.88,0,0,0,3.13-2.75,2.43,2.43,0,0,0-1.48-2.34,2.26,2.26,0,0,0,1.21-2.14,2.65,2.65,0,0,0-2.93-2.58A4.48,4.48,0,0,0,622,340v1.74a3.07,3.07,0,0,1,1.85-.58,1.2,1.2,0,0,1,1.34,1.19,1.16,1.16,0,0,1-1.23,1.17h-1.36v1.54Zm5.6,4.17h5.83v-1.53h-1.95v-8h-3.57v1.52h2v6.47h-2.29v1.53Z" transform="translate(-237 -96)"/><path class="cls-5" d="M613.67,313.78a1.68,1.68,0,0,1,1.74,1.81v3.05a1.75,1.75,0,1,1-3.49,0v-3.05a1.68,1.68,0,0,1,1.75-1.81Zm0-1.57a3.24,3.24,0,0,0-3.34,3.34v3.13a3.34,3.34,0,1,0,6.67,0v-3.13a3.23,3.23,0,0,0-3.33-3.34Zm4.69,8.71a1.1,1.1,0,0,0,2.19,0,1.1,1.1,0,1,0-2.19,0Zm3.34.95h5.82v-1.53h-1.95v-8H622v1.52h2v6.47H621.7v1.53Zm6.55,0h5.82v-1.53h-2v-8h-3.56v1.52h2v6.47h-2.28v1.53Z" transform="translate(-237 -96)"/><path class="cls-5" d="M613.51,286.43a1.68,1.68,0,0,1,1.73,1.81v3.05a1.75,1.75,0,1,1-3.49,0v-3.05a1.69,1.69,0,0,1,1.76-1.81Zm0-1.57a3.24,3.24,0,0,0-3.35,3.34v3.13a3.34,3.34,0,1,0,6.68,0V288.2a3.24,3.24,0,0,0-3.33-3.34Zm4.69,8.71a1.09,1.09,0,1,0,2.18,0,1.09,1.09,0,1,0-2.18,0Zm3.33.95h5.82V293h-2v-8h-3.56v1.52h2V293h-2.28v1.53Zm12.18-8V285h-4.45l-.48,4.93h1.27c1.17,0,2.15.39,2.15,1.52a1.63,1.63,0,0,1-1.74,1.63,3.2,3.2,0,0,1-2.25-1v2a4.65,4.65,0,0,0,2.33.64,3.06,3.06,0,0,0,3.31-3.22c0-1.86-1.32-3-3.33-3h-.09l.25-1.94Z" transform="translate(-237 -96)"/><path class="cls-5" d="M621.94,259.08a1.68,1.68,0,0,1,1.74,1.81v3.05a1.75,1.75,0,1,1-3.49,0v-3.05a1.68,1.68,0,0,1,1.75-1.81Zm0-1.57a3.24,3.24,0,0,0-3.35,3.34V264a3.34,3.34,0,1,0,6.68,0v-3.13a3.23,3.23,0,0,0-3.33-3.34Z" transform="translate(-237 -96)"/><path class="cls-5" d="M606.6,239.82h5.83v-1.53h-1.95v-8h-3.57v1.52h2v6.47H606.6v1.53Zm10.18-8.09a1.68,1.68,0,0,1,1.74,1.81v3.05a1.75,1.75,0,1,1-3.49,0v-3.05a1.68,1.68,0,0,1,1.75-1.81Zm0-1.57a3.24,3.24,0,0,0-3.34,3.34v3.13a3.34,3.34,0,1,0,6.67,0V233.5a3.23,3.23,0,0,0-3.33-3.34Zm4.69,8.71a1.09,1.09,0,1,0,2.18,0,1.09,1.09,0,1,0-2.18,0Zm9-7.05V230.3H626l-.48,4.93h1.28c1.16,0,2.14.39,2.14,1.52a1.63,1.63,0,0,1-1.74,1.63,3.2,3.2,0,0,1-2.25-1v2a4.66,4.66,0,0,0,2.34.64,3,3,0,0,0,3.3-3.22c0-1.86-1.31-3-3.33-3h-.08l.25-1.94Zm1.26,8h5.82v-1.53h-1.94v-8H632v1.52h2v6.47h-2.28v1.53Z" transform="translate(-237 -96)"/><path class="cls-5" d="M621.94,204.38a1.68,1.68,0,0,1,1.74,1.81v3.05a1.75,1.75,0,1,1-3.49,0v-3.05a1.68,1.68,0,0,1,1.75-1.81Zm0-1.57a3.24,3.24,0,0,0-3.35,3.34v3.13a3.34,3.34,0,1,0,6.68,0v-3.13a3.23,3.23,0,0,0-3.33-3.34Z" transform="translate(-237 -96)"/><path class="cls-5" d="M613.52,177a1.68,1.68,0,0,1,1.74,1.81v3a1.75,1.75,0,1,1-3.49,0v-3a1.68,1.68,0,0,1,1.75-1.81Zm0-1.57a3.24,3.24,0,0,0-3.35,3.34v3.13a3.34,3.34,0,1,0,6.68,0V178.8a3.23,3.23,0,0,0-3.33-3.34Zm4.69,8.71a1.09,1.09,0,1,0,2.18,0,1.09,1.09,0,1,0-2.18,0Zm4.26-3.22h1.35a1.37,1.37,0,0,1,1.5,1.34,1.44,1.44,0,0,1-1.58,1.39,3.11,3.11,0,0,1-2-.69v1.82a5.31,5.31,0,0,0,2.09.46,2.88,2.88,0,0,0,3.13-2.75,2.42,2.42,0,0,0-1.48-2.34,2.27,2.27,0,0,0,1.22-2.14,2.66,2.66,0,0,0-2.94-2.58,4.48,4.48,0,0,0-1.91.43v1.74a3.07,3.07,0,0,1,1.85-.58,1.21,1.21,0,0,1,1.35,1.19,1.17,1.17,0,0,1-1.24,1.17h-1.35V181Zm11.22-3.83V175.6h-4.45l-.47,4.93H630c1.16,0,2.14.39,2.14,1.52a1.62,1.62,0,0,1-1.73,1.63,3.23,3.23,0,0,1-2.26-1v2a4.79,4.79,0,0,0,2.34.64,3,3,0,0,0,3.3-3.22c0-1.86-1.31-3-3.33-3h-.08l.25-1.94Z" transform="translate(-237 -96)"/><path class="cls-5" d="M343.32,596.32l2.65-6.59v6.59h1.59V586.8h-1.92l-3,7.49-3-7.49h-1.93v9.52h1.59v-6.59l2.65,6.59Zm6.4-5.11a3.4,3.4,0,0,1,1.8-.55A1.3,1.3,0,0,1,353,592v.57a2.44,2.44,0,0,0-1.66-.66,2.24,2.24,0,0,0-2.36,2.26,2.19,2.19,0,0,0,2.33,2.26,2.12,2.12,0,0,0,1.69-.78v.63h1.53v-4.26a2.49,2.49,0,0,0-2.81-2.77,4.77,4.77,0,0,0-2,.44v1.48Zm.75,3a1.18,1.18,0,0,1,1.23-1.12A1.2,1.2,0,0,1,353,594.2a1.25,1.25,0,0,1-2.48,0Zm8.19-.18,1.46,2.3h1.8l-2.31-3.44,2.31-3.45h-1.8l-1.46,2.28-1.44-2.28h-1.81l2.33,3.45-2.33,3.44h1.81l1.44-2.3Zm14.25,0a3.57,3.57,0,0,1-2.32.83,3.32,3.32,0,0,1,0-6.63,3.55,3.55,0,0,1,2.32.84v-1.84a4.9,4.9,0,1,0-2.32,9.22,4.92,4.92,0,0,0,2.32-.58v-1.84Zm1.8,2.27h3.16c1.78,0,3.08-1,3.08-2.6a2.35,2.35,0,0,0-1.53-2.3,2.18,2.18,0,0,0,1.25-2.11c0-1.53-1.23-2.51-2.91-2.51h-3.05v9.52Zm4.6-2.81c0,.88-.64,1.28-1.44,1.28H376.3V592.2h1.57a1.27,1.27,0,0,1,1.44,1.31Zm-.28-4a1.12,1.12,0,0,1-1.27,1.16H376.3v-2.34h1.46A1.14,1.14,0,0,1,379,589.5Zm3.64,6.82h3.43a4.76,4.76,0,0,0,0-9.52h-3.43v9.52Zm3.42-8a3.24,3.24,0,0,1,0,6.47h-1.82v-6.47Z" transform="translate(-237 -96)"/><path class="cls-5" d="M343.72,567.32l2.64-6.59v6.59H348V557.8H346l-3,7.49-3-7.49h-1.93v9.52h1.59v-6.59l2.65,6.59Zm6.4-5.11a3.4,3.4,0,0,1,1.8-.55,1.3,1.3,0,0,1,1.44,1.38v.57a2.4,2.4,0,0,0-1.65-.66,2.24,2.24,0,0,0-2.36,2.26,2.19,2.19,0,0,0,2.33,2.26,2.08,2.08,0,0,0,1.68-.78v.63h1.54v-4.26a2.49,2.49,0,0,0-2.81-2.77,4.77,4.77,0,0,0-2,.44v1.48Zm.75,3a1.18,1.18,0,0,1,1.23-1.12,1.2,1.2,0,0,1,1.25,1.12,1.25,1.25,0,0,1-2.48,0Zm8.19-.18,1.46,2.3h1.8L360,563.88l2.31-3.45h-1.8l-1.46,2.28-1.44-2.28h-1.81l2.33,3.45-2.33,3.44h1.81l1.44-2.3Zm8.82,2.3h1.6v-8h2.42V557.8h-6.44v1.52h2.42v8Zm11.92,0h1.59V557.8H379.8v4h-4.89v-4h-1.6v9.52h1.6v-4h4.89v4Zm10.49-2.27a3.57,3.57,0,0,1-2.32.83,3.32,3.32,0,0,1,0-6.63,3.55,3.55,0,0,1,2.32.84v-1.84a4.9,4.9,0,1,0-2.32,9.22,4.92,4.92,0,0,0,2.32-.58v-1.84Z" transform="translate(-237 -96)"/><path class="cls-5" d="M352.41,538.32H354v-8h2.42V528.8H350v1.52h2.42v8Zm3.85-3.44a3.59,3.59,0,1,0,3.59-3.59,3.54,3.54,0,0,0-3.59,3.59Zm1.55,0a2.05,2.05,0,0,1,2-2.09,2.09,2.09,0,0,1,0,4.17,2.05,2.05,0,0,1-2-2.08Zm8.89,3.44v-5.57H368v-1.32H366.7v-1.94l-1.45.33v1.61H364v1.32h1.17v5.57Zm2.52-5.11a3.46,3.46,0,0,1,1.81-.55,1.3,1.3,0,0,1,1.44,1.38v.57a2.4,2.4,0,0,0-1.65-.66,2.24,2.24,0,0,0-2.36,2.26,2.19,2.19,0,0,0,2.33,2.26,2.08,2.08,0,0,0,1.68-.78v.63H374v-4.26a2.49,2.49,0,0,0-2.81-2.77,4.86,4.86,0,0,0-2,.44v1.48Zm.76,3a1.18,1.18,0,0,1,1.23-1.12,1.2,1.2,0,0,1,1.25,1.12,1.25,1.25,0,0,1-2.48,0Zm7.28-7.54h-1.54v9.66h1.54v-9.66Z" transform="translate(-237 -96)"/><path class="cls-5" d="M344.88,483a3.44,3.44,0,0,0,.1-.78,3.2,3.2,0,0,0-3.28-3.32,3.59,3.59,0,0,0,.09,7.18,5.18,5.18,0,0,0,2.52-.63V484a4.41,4.41,0,0,1-2.41.75,2,2,0,0,1-2.1-1.68Zm-3.19-2.81a1.68,1.68,0,0,1,1.8,1.62h-3.71a1.86,1.86,0,0,1,1.91-1.62Zm6.84,3.44L350,486h1.81l-2.31-3.44,2.31-3.45H350l-1.46,2.28-1.44-2.28h-1.8l2.32,3.45L345.29,486h1.8l1.44-2.3Zm3.57-1.14a3.59,3.59,0,1,0,3.59-3.59,3.54,3.54,0,0,0-3.59,3.59Zm1.56,0a2,2,0,0,1,2-2.09,2.09,2.09,0,1,1-2,2.09Zm10.51.16v-1.44h-3.65v1.44ZM367,486h1.59v-8H371v-1.52h-6.43V478H367v8Zm11.91,0h1.6v-9.52h-1.6v4h-4.89v-4h-1.59V486h1.59v-4h4.89v4Zm10.5-2.27a3.57,3.57,0,0,1-2.32.83,3.32,3.32,0,0,1,0-6.63,3.55,3.55,0,0,1,2.32.84V476.9a4.9,4.9,0,1,0-2.32,9.22,4.92,4.92,0,0,0,2.32-.58V483.7Z" transform="translate(-237 -96)"/><path class="cls-5" d="M341.32,458.62h3.43a4.76,4.76,0,0,0,0-9.52h-3.43v9.52Zm3.41-8a3.24,3.24,0,0,1,0,6.47h-1.82v-6.47Zm6.16.95a2.21,2.21,0,0,0,1.09,1.95,2.51,2.51,0,0,0-1.41,2.33,3.09,3.09,0,0,0,6.17,0,2.47,2.47,0,0,0-1.42-2.31,2.25,2.25,0,0,0,1.1-2,2.77,2.77,0,0,0-5.53,0Zm1.21,4.26a1.56,1.56,0,1,1,1.55,1.52,1.51,1.51,0,0,1-1.55-1.52Zm.3-4.26a1.26,1.26,0,0,1,2.51,0,1.26,1.26,0,0,1-2.51,0Zm9.38,3.77V453.9h-3.65v1.44Zm2.86,3.28h1.6v-8h2.42V449.1h-6.44v1.52h2.42v8Zm11.91,0h1.6V449.1h-1.6v4h-4.88v-4h-1.6v9.52h1.6v-4h4.88v4Zm10.5-2.27a3.57,3.57,0,0,1-2.32.83,3.32,3.32,0,0,1,0-6.63,3.55,3.55,0,0,1,2.32.84v-1.84a4.9,4.9,0,1,0-2.32,9.22,4.92,4.92,0,0,0,2.32-.58v-1.84Z" transform="translate(-237 -96)"/><path class="cls-5" d="M354.15,429a3.58,3.58,0,0,1-2.33.83,3.32,3.32,0,0,1,0-6.63,3.57,3.57,0,0,1,2.33.84V422.2a4.9,4.9,0,1,0-2.33,9.22,5,5,0,0,0,2.33-.58V429Zm1.79,2.27h3.16c1.78,0,3.08-1,3.08-2.6a2.34,2.34,0,0,0-1.52-2.3,2.18,2.18,0,0,0,1.24-2.11c0-1.53-1.23-2.51-2.91-2.51h-3.05v9.52Zm4.61-2.81c0,.88-.65,1.28-1.45,1.28h-1.57v-2.59h1.57a1.28,1.28,0,0,1,1.45,1.31Zm-.28-4a1.13,1.13,0,0,1-1.28,1.16h-1.46v-2.34H359a1.15,1.15,0,0,1,1.28,1.18Zm10.57-2.34a6.57,6.57,0,0,0-2.6-.5,4.79,4.79,0,0,0-4.95,4.9,4.72,4.72,0,0,0,4.74,4.91,4.44,4.44,0,0,0,4.65-4.67,7.32,7.32,0,0,0-.11-1.32H368v1.44h2.92a1.94,1.94,0,0,1,0,.34,2.67,2.67,0,0,1-2.87,2.62,3.32,3.32,0,0,1,.16-6.63,5.28,5.28,0,0,1,2.6.66v-1.75Zm9.19,9.16h1.78l-3.56-9.52h-1.77l-3.56,9.52h1.78l.85-2.35h3.63l.85,2.35Zm-2.66-7.43,1.29,3.55h-2.59l1.3-3.55Z" transform="translate(-237 -96)"/><path class="cls-5" d="M354.43,401.65a3.57,3.57,0,0,1-2.32.83,3.32,3.32,0,0,1,0-6.63,3.55,3.55,0,0,1,2.32.84v-1.84a4.9,4.9,0,1,0-2.32,9.22,4.92,4.92,0,0,0,2.32-.58v-1.84Zm1.8,2.27h3.16c1.78,0,3.08-1,3.08-2.6a2.35,2.35,0,0,0-1.53-2.3,2.18,2.18,0,0,0,1.25-2.11c0-1.53-1.23-2.51-2.91-2.51h-3v9.52Zm4.6-2.81c0,.88-.64,1.28-1.44,1.28h-1.57V399.8h1.57a1.27,1.27,0,0,1,1.44,1.31Zm-.28-4a1.12,1.12,0,0,1-1.27,1.16h-1.46v-2.34h1.46a1.14,1.14,0,0,1,1.27,1.18Zm3.64,6.82h3.43a4.76,4.76,0,0,0,0-9.52h-3.43v9.52Zm3.42-8a3.24,3.24,0,0,1,0,6.47h-1.82v-6.47Zm12.14,8h1.77L378,394.4h-1.78l-3.56,9.52h1.78l.86-2.35h3.62l.86,2.35Zm-2.66-7.43,1.28,3.55h-2.59l1.31-3.55Z" transform="translate(-237 -96)"/><path class="cls-5" d="M349.44,376.57H351v-8h2.42v-1.52H347v1.52h2.42v8Zm11.92,0H363v-9.52h-1.59v4h-4.89v-4h-1.59v9.52h1.59v-4h4.89v4Zm10.5-2.27a3.58,3.58,0,0,1-2.33.83,3.32,3.32,0,0,1,0-6.63,3.57,3.57,0,0,1,2.33.84V367.5a4.9,4.9,0,1,0-2.33,9.22,5,5,0,0,0,2.33-.58V374.3Zm7.81,2.27h1.78l-3.56-9.52h-1.78l-3.55,9.52h1.77l.86-2.35h3.62l.86,2.35ZM377,369.14l1.29,3.55h-2.59l1.3-3.55Z" transform="translate(-237 -96)"/><path class="cls-5" d="M358.51,347a3.58,3.58,0,0,1-2.33.83,3.32,3.32,0,0,1,0-6.63,3.57,3.57,0,0,1,2.33.84v-1.84a4.9,4.9,0,1,0-2.33,9.22,4.93,4.93,0,0,0,2.33-.58V347Zm1.79,2.27h3.16c1.78,0,3.08-1,3.08-2.6a2.34,2.34,0,0,0-1.52-2.3,2.18,2.18,0,0,0,1.24-2.11c0-1.53-1.23-2.51-2.91-2.51H360.3v9.52Zm4.61-2.81c0,.88-.65,1.28-1.45,1.28H361.9V345.1h1.56a1.28,1.28,0,0,1,1.45,1.31Zm-.28-4a1.13,1.13,0,0,1-1.28,1.16H361.9v-2.34h1.45a1.15,1.15,0,0,1,1.28,1.18Zm9.75,6.82H376V339.7h-1.6v6.76l-4.81-6.76h-1.91v.13l.65,1v8.39h1.59v-6.16l4.48,6.16Z" transform="translate(-237 -96)"/><path class="cls-5" d="M359.31,319.6a3.58,3.58,0,0,1-2.33.83,3.32,3.32,0,0,1,0-6.63,3.57,3.57,0,0,1,2.33.84V312.8A4.9,4.9,0,1,0,357,322a5,5,0,0,0,2.33-.58V319.6Zm1.79,2.27h3.16c1.78,0,3.08-1,3.08-2.6a2.34,2.34,0,0,0-1.52-2.3,2.18,2.18,0,0,0,1.24-2.11c0-1.53-1.23-2.51-2.91-2.51h-3v9.52Zm4.6-2.81c0,.88-.64,1.28-1.44,1.28h-1.57v-2.59h1.57a1.27,1.27,0,0,1,1.44,1.31Zm-.28-4a1.12,1.12,0,0,1-1.27,1.16h-1.46v-2.34h1.46a1.14,1.14,0,0,1,1.27,1.18Zm10.25,4.55a3.57,3.57,0,0,1-2.32.83,3.32,3.32,0,0,1,0-6.63,3.55,3.55,0,0,1,2.32.84V312.8a4.9,4.9,0,1,0-2.32,9.22,4.92,4.92,0,0,0,2.32-.58V319.6Z" transform="translate(-237 -96)"/><path class="cls-5" d="M358.37,292.25a3.58,3.58,0,0,1-2.33.83,3.32,3.32,0,0,1,0-6.63,3.57,3.57,0,0,1,2.33.84v-1.84a4.9,4.9,0,1,0-2.33,9.22,4.93,4.93,0,0,0,2.33-.58v-1.84Zm1.79,2.27h3.16c1.78,0,3.08-1,3.08-2.6a2.34,2.34,0,0,0-1.52-2.3,2.18,2.18,0,0,0,1.24-2.11c0-1.53-1.23-2.51-2.91-2.51h-3v9.52Zm4.61-2.81c0,.88-.65,1.28-1.45,1.28h-1.56V290.4h1.56a1.28,1.28,0,0,1,1.45,1.31Zm-.28-4a1.13,1.13,0,0,1-1.28,1.16h-1.45v-2.34h1.45a1.15,1.15,0,0,1,1.28,1.18Zm10.57-2.34a6.55,6.55,0,0,0-2.59-.5,4.79,4.79,0,0,0-5,4.9,4.72,4.72,0,0,0,4.75,4.91A4.43,4.43,0,0,0,376.9,290a7.32,7.32,0,0,0-.11-1.32h-4.56v1.44h2.92a1.94,1.94,0,0,1,0,.34,2.67,2.67,0,0,1-2.87,2.62,3.32,3.32,0,0,1,.17-6.63,5.27,5.27,0,0,1,2.59.66v-1.75Z" transform="translate(-237 -96)"/><path class="cls-5" d="M354.45,264.9a3.58,3.58,0,0,1-2.33.83,3.32,3.32,0,0,1,0-6.63,3.57,3.57,0,0,1,2.33.84V258.1a4.9,4.9,0,1,0-2.33,9.22,4.93,4.93,0,0,0,2.33-.58V264.9Zm1.79,2.27h3.16c1.78,0,3.08-1,3.08-2.6a2.34,2.34,0,0,0-1.52-2.3,2.18,2.18,0,0,0,1.24-2.11c0-1.53-1.23-2.51-2.91-2.51h-3.05v9.52Zm4.61-2.81c0,.88-.65,1.28-1.45,1.28h-1.56v-2.59h1.56a1.28,1.28,0,0,1,1.45,1.31Zm-.28-4a1.13,1.13,0,0,1-1.28,1.16h-1.45v-2.34h1.45a1.15,1.15,0,0,1,1.28,1.18Zm3.64,6.82h3.43a4.76,4.76,0,0,0,0-9.52h-3.43v9.52Zm3.41-8a3.24,3.24,0,0,1,0,6.47H365.8v-6.47Zm8.58,8H378l3.56-9.52h-1.78l-2.66,7.66-2.67-7.66h-1.78l3.55,9.52Z" transform="translate(-237 -96)"/><path class="cls-5" d="M358.6,237.55a3.58,3.58,0,0,1-2.33.83,3.32,3.32,0,0,1,0-6.63,3.57,3.57,0,0,1,2.33.84v-1.84a4.9,4.9,0,1,0-2.33,9.22,4.93,4.93,0,0,0,2.33-.58v-1.84Zm1.79,2.27h3.17c1.77,0,3.07-1,3.07-2.6a2.34,2.34,0,0,0-1.52-2.3,2.19,2.19,0,0,0,1.24-2.12c0-1.52-1.23-2.5-2.91-2.5h-3.05v9.52ZM365,237a1.27,1.27,0,0,1-1.44,1.28H362V235.7h1.57A1.28,1.28,0,0,1,365,237Zm-.28-4a1.13,1.13,0,0,1-1.28,1.16H362v-2.34h1.45a1.15,1.15,0,0,1,1.28,1.18Zm3.64,6.82h3.43a4.76,4.76,0,0,0,0-9.52h-3.43v9.52Zm3.41-8a3.24,3.24,0,0,1,0,6.47H370v-6.47Z" transform="translate(-237 -96)"/><path class="cls-5" d="M349.46,212.47h1.59v-8h2.42V203H347v1.52h2.42v8Zm11.91,0H363V203h-1.6v4h-4.89v-4h-1.59v9.52h1.59v-4h4.89v4Zm10.5-2.27a3.57,3.57,0,0,1-2.32.83,3.32,3.32,0,0,1,0-6.63,3.55,3.55,0,0,1,2.32.84V203.4a4.9,4.9,0,1,0-2.32,9.22,4.92,4.92,0,0,0,2.32-.58V210.2Zm4.26,2.27h1.77l3.56-9.52h-1.78L377,210.61,374.35,203h-1.78l3.56,9.52Z" transform="translate(-237 -96)"/><path class="cls-5" d="M341.15,185.12h3.43a4.76,4.76,0,0,0,0-9.52h-3.43v9.52Zm3.41-8a3.24,3.24,0,0,1,0,6.47h-1.82v-6.47Zm7.19,8h1.9l2.72-4.26a3.72,3.72,0,0,0,.63-2,3.37,3.37,0,1,0-3.38,3.35h.09l-2,2.94Zm.14-6.29a1.74,1.74,0,1,1,3.48,0,1.74,1.74,0,1,1-3.48,0Zm10.06,3V180.4H358.3v1.44Zm2.86,3.28h1.59v-8h2.43V175.6h-6.44v1.52h2.42v8Zm11.91,0h1.6V175.6h-1.6v4h-4.89v-4h-1.59v9.52h1.59v-4h4.89v4Zm10.5-2.27a3.57,3.57,0,0,1-2.32.83,3.32,3.32,0,0,1,0-6.63,3.55,3.55,0,0,1,2.32.84v-1.84a4.91,4.91,0,1,0,0,8.63v-1.83Z" transform="translate(-237 -96)"/><path class="cls-2" d="M358.05,157.12h2V147.6h-2v9.52Zm4.09,0h3.53a4.76,4.76,0,0,0,0-9.52h-3.53v9.52Zm3.51-7.6a2.85,2.85,0,0,1,0,5.68h-1.52v-5.68Z" transform="translate(-237 -96)"/><path class="cls-4" d="M916.08,506.18V165.62M428.43,506.18V165.62m129,340.56V165.62m149,340.56V165.62" transform="translate(-237 -96)"/><path class="cls-2" d="M573.46,154.52a3.33,3.33,0,0,1-2.17.77,2.92,2.92,0,0,1,0-5.84,3.29,3.29,0,0,1,2.17.78V148a5,5,0,0,0-2.17-.49,4.91,4.91,0,0,0,0,9.81,5,5,0,0,0,2.17-.49v-2.26Zm.93-2.15a4.9,4.9,0,1,0,4.9-4.91,4.8,4.8,0,0,0-4.9,4.91Zm2,0a2.85,2.85,0,1,1,2.86,2.92,2.86,2.86,0,0,1-2.86-2.92Zm15.19,4.75h2V147.6h-2v6.06l-4.17-6.06H585.1v.14l.66,1v8.33h2v-5.5l3.88,5.5Zm10.57-2.6a3.35,3.35,0,0,1-2.17.77,2.92,2.92,0,0,1,0-5.84,3.31,3.31,0,0,1,2.17.78V148a5,5,0,0,0-2.17-.49,4.91,4.91,0,0,0,0,9.81,5,5,0,0,0,2.17-.49v-2.26Zm7.09,2.6V155.2h-3.43v-1.92H609v-1.91h-3.15v-1.85h3.43V147.6h-5.42v9.52Zm7.75,0h2V147.6h-2v6.06l-4.17-6.06h-2.35v.14l.66,1v8.33h2v-5.5l3.88,5.5Zm5.63,0h2v-7.6H627V147.6h-6.61v1.92h2.31v7.6Zm5.63,0h2v-3.54h.49c1.16,0,2,1.47,2.31,3.54h2c-.22-2.05-.93-3.73-2.12-4.34a2.35,2.35,0,0,0,1.72-2.41c0-1.76-1.29-2.77-3.15-2.77h-3.29v9.52Zm4.4-6.52a1,1,0,0,1-1.11,1.06h-1.3v-2.14h1.3a1,1,0,0,1,1.11,1.08Zm9.85,6.52h2.23l-3.53-9.52H639l-3.53,9.52h2.23l.71-2h3.41l.71,2Zm-2.41-6.92,1,3h-2.1l1-3Zm6.58,6.92h2v-7.6H651V147.6H644.4v1.92h2.31v7.6Zm5.63,0h2V147.6h-2v9.52Zm3.5-4.75a4.9,4.9,0,1,0,4.9-4.91,4.8,4.8,0,0,0-4.9,4.91Zm2,0a2.85,2.85,0,1,1,2.86,2.92,2.87,2.87,0,0,1-2.86-2.92Zm15.19,4.75h2V147.6h-2v6.06l-4.17-6.06h-2.35v.14l.66,1v8.33h2v-5.5l3.88,5.5Zm8.75-7h-1.9v7h1.9V153a1.15,1.15,0,1,1,2.29.09v4H686v-4a1.13,1.13,0,0,1,1.16-1.24,1.1,1.1,0,0,1,1.12,1.24v4h1.9v-4.55A2.41,2.41,0,0,0,687.8,150a2.15,2.15,0,0,0-2.06,1.26A2.25,2.25,0,0,0,683.6,150a2.06,2.06,0,0,0-1.78,1v-.82Zm15,0v.92a2.65,2.65,0,0,0-2.21-1.06,3.53,3.53,0,0,0,0,7.05,2.72,2.72,0,0,0,2.19-1v.49a1.77,1.77,0,0,1-2,1.81,4.67,4.67,0,0,1-2.35-.7v2a5.33,5.33,0,0,0,2.34.52c2.42,0,3.88-1.29,3.88-3.85v-6.13Zm-.11,3.39a1.66,1.66,0,0,1-3.32,0,1.66,1.66,0,1,1,3.32,0Zm3.15,3.58h1.42l4.24-9.52h-1.43l-4.23,9.52Zm8.46-7h-1.91v7h1.91V153a1.14,1.14,0,1,1,2.28.09v4h1.9v-4a1.13,1.13,0,0,1,1.17-1.24,1.1,1.1,0,0,1,1.12,1.24v4h1.9v-4.55a2.41,2.41,0,0,0-2.39-2.56,2.13,2.13,0,0,0-2.06,1.26,2.26,2.26,0,0,0-2.14-1.26,2,2,0,0,0-1.78,1v-.82Zm11.81-2.69H718.2v9.66h1.91v-9.66Z" transform="translate(-237 -96)"/><path class="cls-1" d="M494.63,641h2.42v-4.31h.59c1.41,0,2.4,1.79,2.81,4.31H503c-.27-2.49-1.14-4.53-2.59-5.28a2.83,2.83,0,0,0,2.09-2.92c0-2.14-1.56-3.37-3.82-3.37h-4V641Zm5.34-7.93a1.23,1.23,0,0,1-1.34,1.29h-1.58v-2.6h1.58a1.24,1.24,0,0,1,1.34,1.31Zm4.73,2a4.47,4.47,0,0,1,2.17-.62c.89,0,1.57.42,1.57,1.44v.46a3,3,0,0,0-1.85-.61,2.67,2.67,0,0,0-2.83,2.72,2.61,2.61,0,0,0,2.79,2.75,2.44,2.44,0,0,0,1.89-.81V641h2.31v-5.09c0-2.46-1.32-3.55-3.6-3.55a7,7,0,0,0-2.45.49V635Zm1.34,3.39a1.12,1.12,0,0,1,1.19-1.06,1.06,1.06,0,1,1,0,2.11,1.12,1.12,0,0,1-1.19-1.05ZM515.5,641v-6.5h1.42v-2H515.5v-2.35l-2.18.49v1.86h-1.43v2h1.29V641Zm4.93-8.47h-2.32V641h2.32v-8.47Zm-2.52-2.47a1.36,1.36,0,1,0,1.36-1.37,1.34,1.34,0,0,0-1.36,1.37Zm4,6.7a4.41,4.41,0,1,0,4.4-4.4,4.35,4.35,0,0,0-4.4,4.4Zm2.35,0a2.05,2.05,0,1,1,2,2.16,2.08,2.08,0,0,1-2-2.16Zm11.07,0a4.4,4.4,0,1,0,4.4-4.4,4.35,4.35,0,0,0-4.4,4.4Zm2.34,0a2.09,2.09,0,0,1,2.06-2.14,2.15,2.15,0,0,1,0,4.3,2.1,2.1,0,0,1-2.06-2.16ZM550,632.87H548.4v-.61a.83.83,0,0,1,.9-.9,2,2,0,0,1,.78.15V629.2a3.55,3.55,0,0,0-.87-.11,2.8,2.8,0,0,0-3.13,3v.77h-1.19v2h1.19V641h2.32v-6.16H550v-2Zm6.41,8.13h2.42v-9.24h2.8v-2.33h-8v2.33h2.8V641Zm5-4.24a4.4,4.4,0,1,0,4.4-4.4,4.35,4.35,0,0,0-4.4,4.4Zm2.34,0a2.09,2.09,0,0,1,2.06-2.14,2.15,2.15,0,0,1,0,4.3,2.1,2.1,0,0,1-2.06-2.16ZM574.51,641v-6.5h1.43v-2h-1.43v-2.35l-2.18.49v1.86h-1.42v2h1.29V641Zm2.87-6a4.48,4.48,0,0,1,2.18-.62,1.38,1.38,0,0,1,1.57,1.44v.46a3,3,0,0,0-1.86-.61,2.66,2.66,0,0,0-2.82,2.72,2.61,2.61,0,0,0,2.79,2.75,2.45,2.45,0,0,0,1.89-.81V641h2.31v-5.09c0-2.46-1.33-3.55-3.61-3.55a7.06,7.06,0,0,0-2.45.49V635Zm1.35,3.39a1.11,1.11,0,0,1,1.19-1.06,1.06,1.06,0,1,1-1.19,1.06Zm8.89-9.17h-2.33V641h2.33V629.26Zm13.77,8.57a4,4,0,0,1-2.63.94,3.56,3.56,0,0,1,0-7.11,4,4,0,0,1,2.63,1v-2.77a6.15,6.15,0,0,0-2.63-.59,6,6,0,0,0,0,11.93,6.15,6.15,0,0,0,2.63-.59v-2.76Zm2,3.17h4.12c2.23,0,3.83-1.3,3.83-3.2a2.89,2.89,0,0,0-1.71-2.76,2.65,2.65,0,0,0,1.38-2.53c0-1.84-1.49-3.08-3.6-3.08h-4V641Zm5.46-3.54a1.18,1.18,0,0,1-1.34,1.21h-1.7v-2.44h1.7a1.19,1.19,0,0,1,1.34,1.23Zm-.32-4.63a1,1,0,0,1-1.14,1.08h-1.58v-2.15h1.58a1,1,0,0,1,1.14,1.07Zm4.71,8.17h4.28a5.79,5.79,0,0,0,0-11.57h-4.28V641Zm4.27-9.24a3.46,3.46,0,0,1,0,6.91h-1.86v-6.91ZM631.4,641v-6.5h1.43v-2H631.4v-2.35l-2.18.49v1.86H627.8v2h1.29V641Zm2-4.24a4.41,4.41,0,1,0,4.41-4.4,4.36,4.36,0,0,0-4.41,4.4Zm2.35,0a2.09,2.09,0,0,1,2.06-2.14,2.15,2.15,0,0,1,0,4.3,2.1,2.1,0,0,1-2.06-2.16ZM649.08,641h2.42v-9.24h2.8v-2.33h-8v2.33h2.8V641Zm14.54,0H666V629.43h-2.42V634h-5.29v-4.58h-2.41V641h2.41v-4.66h5.29V641Zm12.82-3.17a4,4,0,0,1-2.63.94,3.56,3.56,0,0,1,0-7.11,4,4,0,0,1,2.63,1v-2.77a6.15,6.15,0,0,0-2.63-.59,6,6,0,0,0,0,11.93,6.15,6.15,0,0,0,2.63-.59v-2.76Zm9.57-2.17h1.7a2,2,0,0,1,2.11,2,2.06,2.06,0,0,1-2.24,2,3.85,3.85,0,0,1-2.42-.8v1.67a5.24,5.24,0,0,0,2.49.6,3.4,3.4,0,0,0,3.68-3.32,3,3,0,0,0-1.87-2.91,2.71,2.71,0,0,0,1.55-2.62,3.12,3.12,0,0,0-3.42-3.06,4.56,4.56,0,0,0-2.29.55v1.6a3.73,3.73,0,0,1,2.24-.68,1.77,1.77,0,1,1,.16,3.53H686v1.4Zm11.28-5a2.36,2.36,0,0,1,2.44,2.53v4a2.44,2.44,0,1,1-4.88,0v-4a2.37,2.37,0,0,1,2.44-2.53Zm0-1.43a3.8,3.8,0,0,0-3.9,3.91v4.07a3.91,3.91,0,1,0,7.81,0v-4.07a3.8,3.8,0,0,0-3.91-3.91Zm5.93,10.83a1.05,1.05,0,0,0,1.09,1.08,1.08,1.08,0,1,0,0-2.16,1.05,1.05,0,0,0-1.09,1.08Zm12-1.59v-1.4h-1.56v-7.67h-1.47l-5.29,7.81v1.26h5.29V641h1.47v-2.5Zm-6.73-1.4,3.7-5.51v5.51Zm10.18,3.06a1,1,0,1,0,2,0,1,1,0,1,0-2,0Zm0-6.37a1,1,0,1,0,1-1,1,1,0,0,0-1,1ZM724,641h6.84v-1.4h-2.47V629.43h-4.06v1.4h2.6v8.77H724V641Z" transform="translate(-237 -96)"/><polygon class="cls-2" points="470 130.66 678.25 130.66 678.25 146.13 470 146.13 470 130.66 470 130.66"/><polygon class="cls-2" points="470 76.02 476.38 76.02 476.38 91.48 470 91.48 470 76.02 470 76.02"/><polygon class="cls-2" points="470 240.82 475.57 240.82 475.57 256.29 470 256.29 470 240.82 470 240.82"/><polygon class="cls-2" points="470 212.66 471.62 212.66 471.62 228.13 470 228.13 470 212.66 470 212.66"/><polygon class="cls-2" points="470 185.51 472.28 185.51 472.28 200.98 470 200.98 470 185.51 470 185.51"/><line class="cls-6" x1="69.6" y1="410.18" x2="678.25" y2="410.18"/><text class="cls-7" transform="translate(467.6 431.83)">0%</text><text class="cls-7" transform="translate(661.21 431.83)">1.7%</text><text class="cls-7" transform="translate(524.5 431.83)">Cannabinoids (</text><text class="cls-7" transform="translate(600.02 431.83)">wt%)</text></svg>