<?xml version="1.0" encoding="utf-8"?>
<!-- Generator: Adobe Illustrator 22.1.0, SVG Export Plug-In . SVG Version: 6.00 Build 0)  -->
<svg version="1.1" id="Layer_1" xmlns="http://www.w3.org/2000/svg" xmlns:xlink="http://www.w3.org/1999/xlink" x="0px" y="0px"
	 viewBox="0 0 152.5 24.5" style="enable-background:new 0 0 152.5 24.5;" xml:space="preserve">
<style type="text/css">
	.st0{fill:#222222;}
	.st1{fill:#F47722;}
</style>
<path class="st0" d="M18.8,22.8l-1.2-3.4h-7.4L9,22.8H3.6l7.5-20.9h5.3l7.5,20.9H18.8z M16,14.7l-2.1-5.9l-2.1,5.9H16z"/>
<path class="st0" d="M41.8,23.2c-2.5,0-4.7-0.8-6.4-2.3c-1.7-1.6-2.6-3.8-2.6-6.8V1.9h5.1v12.3c0,1.3,0.3,2.4,1,3.1
	c0.6,0.7,1.6,1.1,2.9,1.1c1.3,0,2.3-0.4,2.9-1.1c0.6-0.7,1-1.8,1-3.1V1.9h5.1v12.2c0,2.9-0.9,5.2-2.6,6.8
	C46.4,22.4,44.3,23.2,41.8,23.2z"/>
<path class="st0" d="M67.5,6.7h-5.2V1.9h9.5c2.2,0,4,0.6,5.3,1.9C78.4,5,79,6.7,79,8.7c0,1.4-0.3,2.7-1,3.8
	c-0.6,0.9-1.4,1.6-2.3,2.2l4.5,8.2h-6v-0.1l-3.7-7.5h-3.1v7.5h-5.1V12.5 M67.5,10.5h4.3c0.7,0,1.2-0.2,1.6-0.5
	c0.3-0.3,0.5-0.8,0.5-1.4s-0.2-1.1-0.5-1.4c-0.3-0.4-0.8-0.5-1.5-0.5h-4.4"/>
<path class="st0" d="M99.4,23.2c-3.1,0-5.7-1-7.8-3.1c-2-2-3.1-4.7-3.1-7.8s1-5.7,3.1-7.8c2-2,4.6-3.1,7.8-3.1s5.7,1,7.8,3.1
	c2,2,3.1,4.7,3.1,7.8s-1,5.7-3.1,7.8C105.2,22.2,102.6,23.2,99.4,23.2z M99.4,6.4c-1.6,0-2.9,0.5-4,1.6c-1,1.1-1.5,2.5-1.5,4.3
	s0.5,3.3,1.5,4.3c1,1.1,2.3,1.6,4,1.6c1.6,0,2.9-0.5,4-1.6c1-1.1,1.5-2.5,1.5-4.3S104.4,9,103.4,8C102.4,6.9,101.1,6.4,99.4,6.4z"/>
<path class="st0" d="M128,23.2c-1.4,0-2.6-0.2-3.7-0.6s-1.9-1-2.6-1.7c-0.6-0.7-1.1-1.5-1.4-2.3s-0.5-1.7-0.5-2.6v-0.5h5V16
	c0,0.7,0.3,1.3,0.9,1.8s1.4,0.7,2.5,0.7c1,0,1.8-0.2,2.3-0.5s0.7-0.7,0.7-1.3c0-0.4-0.1-0.7-0.4-0.9c-0.3-0.3-0.8-0.5-1.3-0.7
	l-4.3-1.2c-0.8-0.2-1.6-0.6-2.2-1c-0.7-0.4-1.3-1.1-1.7-1.9c-0.4-0.8-0.6-1.8-0.6-2.9c0-1.9,0.7-3.5,2.1-4.7
	c1.4-1.3,3.3-1.9,5.6-1.9c2.4,0,4.3,0.7,5.7,2c1.4,1.4,2.2,3.1,2.2,5.1v0.5h-5V8.6c0-0.8-0.3-1.4-0.8-1.8c-0.5-0.5-1.2-0.7-2.1-0.7
	c-0.8,0-1.5,0.2-2,0.5c-0.4,0.3-0.7,0.7-0.7,1.2c0,0.4,0.1,0.7,0.4,0.9c0.3,0.3,0.8,0.5,1.4,0.7l4.4,1.2c0.8,0.2,1.6,0.6,2.2,1
	c0.7,0.5,1.3,1.1,1.7,2c0.4,0.8,0.6,1.9,0.6,3c0,1.9-0.8,3.6-2.4,4.8C132.5,22.6,130.4,23.2,128,23.2z"/>
<rect x="143.2" y="16.9" class="st1" width="5.7" height="5.7"/>
</svg>
